<?xml version="1.0" encoding="UTF-8"?>
<svg version="1.1" xmlns="http://www.w3.org/2000/svg" width="600" height="600">
<path d="M0 0 C0.91265625 -0.05414062 1.8253125 -0.10828125 2.765625 -0.1640625 C15.0300143 -0.38998546 26.64624051 3.98203982 38.25 7.5 C40.73824636 8.24621011 43.22652849 8.99230092 45.71484375 9.73828125 C53.21399909 11.99391865 60.70199354 14.28565398 68.18923187 16.58047485 C74.23027264 18.43091299 80.27346546 20.27432355 86.31636429 22.11868286 C87.86711513 22.59202391 89.41783276 23.06547379 90.9685173 23.53903198 C102.38308774 27.02465485 113.8052175 30.48439391 125.234375 33.921875 C125.95414898 34.13843498 126.67392296 34.35499496 127.41550827 34.57811737 C133.65405084 36.45506312 139.89279018 38.33134812 146.13336182 40.20153809 C195.97530386 55.13939306 195.97530386 55.13939306 205.8515625 71.0859375 C210.61650884 80.14212206 211.54340186 88.33511805 211.47705078 98.42382812 C211.47734283 99.5954248 211.47763489 100.76702148 211.47793579 101.97412109 C211.47654825 105.8265741 211.4610139 109.678831 211.4453125 113.53125 C211.44158033 116.2102491 211.43863587 118.88923749 211.43673706 121.5682373 C211.43053839 127.88621292 211.41414958 134.20411875 211.39403808 140.52206373 C211.37162866 147.71920041 211.36067301 154.91634054 211.35064721 162.11350346 C211.32978179 176.90903788 211.29463742 191.70451772 211.25 206.5 C212.22646484 206.63575439 213.20292969 206.77150879 214.20898438 206.91137695 C217.91476117 207.427611 221.61982028 207.94885546 225.32470703 208.47143555 C226.91273857 208.69475748 228.50094904 208.91681154 230.08935547 209.13745117 C268.51974459 214.47973769 268.51974459 214.47973769 281.5625 227.875 C288.39364847 238.50123095 286.48102771 249.79815039 284.20214844 261.58398438 C283.98424149 262.74956375 283.76633453 263.91514313 283.54182434 265.11604309 C282.94723235 268.28473643 282.34451367 271.45173815 281.73735714 274.6180439 C281.22929405 277.27368088 280.72710801 279.93041534 280.22492337 282.58716917 C279.03913077 288.86030164 277.8441836 295.13164046 276.64306641 301.40185547 C275.40902654 307.8446354 274.18897515 314.28994899 272.97605681 320.73673582 C271.929533 326.29686194 270.87504285 331.85543573 269.81411195 337.41283083 C269.18260249 340.72097937 268.55382711 344.02958168 267.93242645 347.33964539 C267.23654665 351.03371687 266.52765453 354.72506551 265.81542969 358.41601562 C265.6147438 359.49579178 265.41405792 360.57556793 265.20729065 361.68806458 C262.82628052 373.85974018 259.16487202 383.13744619 249.1875 390.875 C243.54246408 393.99778583 238.51858022 394.83094054 232.125 394.75 C231.01427124 394.74419922 231.01427124 394.74419922 229.88110352 394.73828125 C223.54809215 394.63976622 217.44432016 393.8367319 211.25 392.5 C211.3428125 394.4490625 211.3428125 394.4490625 211.4375 396.4375 C211.30256848 428.41627033 194.07867548 459.30582598 173.25 482.5 C172.49976563 483.35980469 171.74953125 484.21960938 170.9765625 485.10546875 C161.81920215 495.50254395 152.12580246 504.91156869 141.25 513.5 C140.11798413 514.43140122 138.98787054 515.36511786 137.859375 516.30078125 C106.29782699 542.30493776 44.72436596 586.76462151 2.02929688 588.59521484 C-3.75134982 587.86783963 -8.84838556 586.27966787 -14.25 584.125 C-15.15016846 583.77268311 -16.05033691 583.42036621 -16.9777832 583.05737305 C-54.41208626 568.21621364 -90.92924799 550.0335541 -123.375 526 C-124.00688232 525.53352051 -124.63876465 525.06704102 -125.28979492 524.58642578 C-133.31839429 518.63015176 -140.98856139 512.39637523 -148.375 505.65625 C-150.51386558 503.7143852 -152.68419385 501.82022404 -154.875 499.9375 C-162.6730627 493.10833487 -169.34556209 485.64513129 -175.75 477.5 C-176.49378906 476.5615625 -177.23757812 475.623125 -178.00390625 474.65625 C-195.93715753 451.45218225 -209.96655233 422.44070445 -208.75 392.5 C-209.41902344 392.644375 -210.08804688 392.78875 -210.77734375 392.9375 C-221.26592189 394.96482249 -235.0661719 397.22270278 -244.83203125 391.8203125 C-254.27490915 385.31991997 -259.41240635 378.05772349 -261.66157532 366.70437622 C-261.83513046 365.74490082 -262.00868561 364.78542542 -262.1875 363.796875 C-262.38953537 362.7532077 -262.59157074 361.70954041 -262.79972839 360.63424683 C-263.46519705 357.17556749 -264.10791073 353.71308955 -264.75 350.25 C-265.21401217 347.80624238 -265.6792915 345.36272507 -266.14575195 342.91943359 C-267.01965693 338.32918667 -267.88769806 333.73792607 -268.74767399 329.14505577 C-270.28367258 320.94209532 -271.85389441 312.74612542 -273.4382019 304.55236816 C-274.50102946 299.05550017 -275.55611188 293.55715655 -276.608778 288.05833435 C-277.34318466 284.22211362 -278.07975202 280.38634361 -278.82202148 276.55163574 C-279.52489753 272.91746914 -280.21832621 269.2816148 -280.90499306 265.64435196 C-281.28011127 263.66926035 -281.66433258 261.69590435 -282.0488739 259.72262573 C-284.09390714 248.80684867 -285.30851591 239.48898007 -279.75 229.5 C-277.65707316 226.54192766 -275.36245449 224.00593811 -272.75 221.5 C-272.27304687 221.01660156 -271.79609375 220.53320312 -271.3046875 220.03515625 C-261.2968353 211.41582805 -241.9883116 211.10572994 -229.375 209.25 C-227.58583578 208.97983945 -225.79677252 208.70900944 -224.0078125 208.4375 C-211.14687329 206.5 -211.14687329 206.5 -208.75 206.5 C-208.75276538 205.89077005 -208.75553076 205.28154011 -208.75837994 204.65384865 C-208.82477641 189.79591504 -208.87434686 174.93799585 -208.90543652 160.07995033 C-208.92087279 152.89455444 -208.9418999 145.70925789 -208.97631836 138.52392578 C-209.00632043 132.25756299 -209.02559852 125.99127219 -209.03226548 119.72483957 C-209.03615957 116.41006117 -209.04684238 113.09553534 -209.06719017 109.78081131 C-209.08905363 106.07071108 -209.09196312 102.36103348 -209.09057617 98.65087891 C-209.101362 97.56474304 -209.11214783 96.47860718 -209.1232605 95.35955811 C-209.06815023 81.68292658 -204.3059804 70.52459744 -194.94921875 60.5625 C-189.0124875 54.9948373 -182.37335901 52.21967969 -174.7043457 49.72216797 C-173.92006101 49.4640074 -173.13577631 49.20584682 -172.32772541 48.9398632 C-162.88288323 45.85454637 -153.37059328 42.99208151 -143.85546875 40.1328125 C-141.87099352 39.5343396 -139.88658976 38.93562964 -137.9022522 38.33670044 C-132.65843691 36.7546519 -127.41368498 35.17573167 -122.16870499 33.59754944 C-116.75282853 31.96744314 -111.33774758 30.33469869 -105.92260742 28.70214844 C-99.48168336 26.76051034 -93.04068 24.81913742 -86.59925842 22.87915039 C-75.33400242 19.48619788 -64.07047668 16.08769703 -52.81149101 12.67399216 C-50.86618841 12.08422102 -48.92079152 11.49476204 -46.97535706 10.90542603 C-40.13529924 8.83344419 -40.13529924 8.83344419 -33.29647827 6.75738525 C-30.35061672 5.86223443 -27.40393321 4.96984356 -24.45703125 4.078125 C-23.62837555 3.82539825 -22.79971985 3.57267151 -21.94595337 3.31228638 C-14.53099845 1.07399428 -7.74441565 0.18150974 0 0 Z " fill="#505151" transform="translate(298.75,5.5)"/>
<path d="M0 0 C1.31742187 0.05381836 2.63484375 0.10763672 3.9921875 0.16308594 C49.30221889 2.05242618 94.39318525 7.39211735 139.33154297 13.26489258 C143.5679194 13.81751153 147.80626671 14.34973826 152.04705811 14.86724854 C160.45639918 15.89418474 168.69662859 17.33932572 177 19 C178.2890625 19.2371875 179.578125 19.474375 180.90625 19.71875 C192.51352556 21.96217301 192.51352556 21.96217301 197 26 C197.83144531 26.67095703 197.83144531 26.67095703 198.6796875 27.35546875 C201.40602408 29.89963076 202.86131809 31.94108783 203.35302734 35.69555664 C203.30416476 44.52921451 202.00192096 52.86106653 200.25 61.5 C199.96872689 62.93336613 199.68863192 64.36696392 199.40966797 65.80078125 C198.86000669 68.61837872 198.30446739 71.4346992 197.74316406 74.25 C196.98761945 78.06247215 196.26455404 81.87970402 195.55371094 85.70068359 C194.14245156 93.26972735 192.63880377 100.81970652 191.1171875 108.3671875 C190.94633133 109.21533524 190.77547516 110.06348297 190.59944153 110.93733215 C189.1193575 118.28434876 189.1193575 118.28434876 188.46456909 121.52462769 C186.20199612 132.73220825 184.00312392 143.93383257 182.27929688 155.23974609 C181.23899143 161.73647947 179.99076868 168.02066174 174.5625 172.3125 C173.98628906 172.78300781 173.41007813 173.25351562 172.81640625 173.73828125 C165.03568229 179.14295617 155.99708081 177.08265625 147.125 175.625 C146.31675781 175.49867188 145.50851562 175.37234375 144.67578125 175.2421875 C141.21060272 174.69649009 137.74988146 174.12797742 134.29199219 173.5378418 C50.23069265 159.23365444 -36.88024851 154.98424818 -204.5970459 164.75579834 C-206.89783081 164.98961699 -209.19918665 165.21625669 -211.50097656 165.43994141 C-234.12000296 167.64553277 -256.5559993 170.89580211 -279.01513672 174.35839844 C-280.72250755 174.61913147 -280.72250755 174.61913147 -282.46437073 174.88513184 C-284.60793219 175.21296937 -286.75083644 175.54514479 -288.89292908 175.88244629 C-297.86353337 177.25150864 -305.10267564 178.05984224 -312.85546875 172.72265625 C-319.66729258 166.54989479 -320.13386436 157.50953263 -321.52294922 148.91064453 C-322.33307322 143.96781015 -323.26929361 139.04868242 -324.1875 134.125 C-324.38746582 133.03396973 -324.58743164 131.94293945 -324.79345703 130.81884766 C-326.74207094 120.2255266 -328.82222177 109.65923162 -330.9039917 99.09143066 C-332.6148752 90.39667343 -334.31160627 81.69915063 -336 73 C-336.15269348 72.21369202 -336.30538696 71.42738403 -336.46270752 70.61724854 C-337.34924961 66.04009795 -338.21322435 61.459245 -339.0625 56.875 C-339.26617187 55.81804932 -339.46984375 54.76109863 -339.6796875 53.67211914 C-342.79005505 36.53013395 -342.79005505 36.53013395 -339.4609375 29.96484375 C-338.77257812 29.29582031 -338.08421875 28.62679687 -337.375 27.9375 C-336.36566406 26.89916016 -336.36566406 26.89916016 -335.3359375 25.83984375 C-330.6196487 22.12517482 -325.9594184 20.57462869 -320.0859375 19.60546875 C-319.08081619 19.43654366 -319.08081619 19.43654366 -318.0553894 19.26420593 C-315.83024481 18.89426689 -313.60296361 18.54003783 -311.375 18.1875 C-309.77961577 17.92924012 -308.18423833 17.67093832 -306.58886719 17.41259766 C-275.031005 12.3555166 -243.3796619 8.34443185 -211.5546875 5.42480469 C-207.40835335 5.04250467 -203.26695932 4.62237297 -199.125 4.1953125 C-133.2251526 -2.40220748 -66.14145975 -2.92883488 0 0 Z " fill="#FDFDFD" transform="translate(369,211)"/>
<path d="M0 0 C5.49345245 0.02102976 10.98692603 0.02971142 16.48040771 0.03967285 C27.12303746 0.06067082 37.76557937 0.09446786 48.40814209 0.1373291 C48.40814209 0.7973291 48.40814209 1.4573291 48.40814209 2.1373291 C49.33562256 2.13209229 50.26310303 2.12685547 51.21868896 2.12145996 C54.69265375 2.10431583 58.16657291 2.09182945 61.64056396 2.08239746 C63.13796706 2.07739967 64.63536536 2.0705992 66.13275146 2.06188965 C68.29747714 2.04962287 70.46213774 2.04405513 72.62689209 2.03967285 C74.57498779 2.03181763 74.57498779 2.03181763 76.56243896 2.02380371 C79.28177901 2.10407879 81.79105836 2.27188616 84.46942139 2.62585449 C88.07836719 3.09450517 91.57394737 3.3195607 95.20892334 3.4185791 C96.43288818 3.45596191 97.65685303 3.49334473 98.91790771 3.53186035 C101.47258026 3.60271414 104.0272681 3.67301843 106.58197021 3.74279785 C107.79948975 3.78018066 109.01700928 3.81756348 110.27142334 3.8560791 C111.3778418 3.88637207 112.48426025 3.91666504 113.62420654 3.94787598 C116.40814209 4.1373291 116.40814209 4.1373291 119.40814209 5.1373291 C121.41766534 5.33246505 123.43189351 5.48058748 125.44720459 5.60217285 C127.26514526 5.71697998 127.26514526 5.71697998 129.11981201 5.83410645 C130.41121094 5.91354492 131.70260986 5.9929834 133.03314209 6.0748291 C174.73050634 8.79851123 174.73050634 8.79851123 185.40814209 14.1373291 C185.61680087 20.89109655 185.15865654 27.1491774 183.78314209 33.7623291 C183.603479 34.62769287 183.42381592 35.49305664 183.2387085 36.38464355 C176.09614103 69.04882405 153.60537886 96.99527262 128.40814209 118.1373291 C127.86157959 118.59768555 127.31501709 119.05804199 126.75189209 119.53234863 C107.37747127 135.78202838 86.21391349 149.75969126 63.74407959 161.37561035 C60.57779725 163.0477337 57.53047426 164.84178088 54.47064209 166.6998291 C49.25105192 169.79083809 43.88801864 172.22451405 38.31488037 174.58728027 C34.39836303 176.25019806 30.61105887 178.02274207 26.84564209 180.0123291 C20.86404216 183.05283765 14.69325732 185.57689977 8.47064209 188.0748291 C7.46251465 188.48910156 6.45438721 188.90337402 5.41571045 189.3302002 C4.45543945 189.70870117 3.49516846 190.08720215 2.50579834 190.47717285 C1.64478516 190.82127197 0.78377197 191.16537109 -0.10333252 191.51989746 C-4.33727588 192.57038728 -7.80872995 191.17689414 -11.75201416 189.6060791 C-12.53511963 189.29493164 -13.3182251 188.98378418 -14.12506104 188.66320801 C-14.959729 188.32466797 -15.79439697 187.98612793 -16.65435791 187.6373291 C-17.53414307 187.28203125 -18.41392822 186.9267334 -19.32037354 186.56066895 C-39.04234587 178.52098236 -58.68887674 169.6924654 -76.95904541 158.6998291 C-79.52773618 157.17538354 -82.13548197 155.77635049 -84.77935791 154.3873291 C-100.09974418 146.09525318 -114.10173922 135.65283907 -127.84185791 125.0123291 C-128.59910156 124.42604736 -129.35634521 123.83976562 -130.13653564 123.23571777 C-162.17211319 98.26437773 -186.82058754 65.04545141 -192.59185791 24.1373291 C-192.82074898 20.7857098 -192.98601578 17.48009104 -192.59185791 14.1373291 C-190.64771513 12.19318632 -187.09288924 12.54373633 -184.42779541 12.2701416 C-183.6921788 12.19083908 -182.95656219 12.11153656 -182.19865417 12.02983093 C-180.6140649 11.85923494 -179.02927227 11.69051964 -177.44430542 11.52346802 C-173.30632044 11.08729776 -169.16970492 10.6386627 -165.03326416 10.18811035 C-164.21422104 10.09903915 -163.39517792 10.00996796 -162.55131531 9.91819763 C-155.98772183 9.19712355 -149.44522155 8.35414872 -142.90435791 7.4498291 C-135.45770584 6.42427436 -128.06294179 5.72135345 -120.55010986 5.4276123 C-117.28735807 5.56920268 -117.28735807 5.56920268 -114.59185791 4.1373291 C-112.95712909 4.05032568 -111.31871736 4.03031848 -109.68170166 4.03967285 C-108.69234619 4.04289551 -107.70299072 4.04611816 -106.68365479 4.04943848 C-105.64273682 4.05781738 -104.60181885 4.06619629 -103.52935791 4.0748291 C-101.96218018 4.08159668 -101.96218018 4.08159668 -100.36334229 4.08850098 C-97.77279131 4.10032998 -95.18235232 4.11681221 -92.59185791 4.1373291 C-92.59185791 3.4773291 -92.59185791 2.8173291 -92.59185791 2.1373291 C-61.70799883 0.45021635 -30.92679202 -0.13171698 0 0 Z " fill="#0164B2" transform="translate(303.59185791015625,379.8626708984375)"/>
<path d="M0 0 C0.91265625 -0.05414062 1.8253125 -0.10828125 2.765625 -0.1640625 C15.0300143 -0.38998546 26.64624051 3.98203982 38.25 7.5 C40.73824636 8.24621011 43.22652849 8.99230092 45.71484375 9.73828125 C53.21399909 11.99391865 60.70199354 14.28565398 68.18923187 16.58047485 C74.23027264 18.43091299 80.27346546 20.27432355 86.31636429 22.11868286 C87.86711513 22.59202391 89.41783276 23.06547379 90.9685173 23.53903198 C102.38308774 27.02465485 113.8052175 30.48439391 125.234375 33.921875 C125.95414898 34.13843498 126.67392296 34.35499496 127.41550827 34.57811737 C133.65405084 36.45506312 139.89279018 38.33134812 146.13336182 40.20153809 C195.97530386 55.13939306 195.97530386 55.13939306 205.8515625 71.0859375 C210.61650884 80.14212206 211.54340186 88.33511805 211.47705078 98.42382812 C211.47734283 99.5954248 211.47763489 100.76702148 211.47793579 101.97412109 C211.47654825 105.8265741 211.4610139 109.678831 211.4453125 113.53125 C211.44158033 116.2102491 211.43863587 118.88923749 211.43673706 121.5682373 C211.43053839 127.88621292 211.41414958 134.20411875 211.39403808 140.52206373 C211.37162866 147.71920041 211.36067301 154.91634054 211.35064721 162.11350346 C211.32978179 176.90903788 211.29463742 191.70451772 211.25 206.5 C208.68719792 206.35845864 206.12484515 206.21191438 203.5625 206.0625 C202.84126953 206.02318359 202.12003906 205.98386719 201.37695312 205.94335938 C197.58292718 205.71814322 193.96348508 205.37160695 190.25 204.5 C190.24503478 203.66207838 190.24503478 203.66207838 190.23996925 202.80722904 C190.15857818 189.184616 190.06631105 175.5621135 189.96247292 161.93965244 C189.91258242 155.35179807 189.86625163 148.76395918 189.828125 142.17602539 C189.79118084 135.81524064 189.7447959 129.45458765 189.69193649 123.09391594 C189.67344107 120.67034154 189.65831532 118.24673895 189.64665604 115.82312202 C189.62971063 112.42173978 189.60065521 109.02065612 189.56884766 105.61938477 C189.56668747 104.62316101 189.56452728 103.62693726 189.56230164 102.6005249 C189.47586225 95.33809607 189.06186751 87.58202466 185.125 81.25 C184.59519531 80.34507813 184.59519531 80.34507813 184.0546875 79.421875 C178.56301059 73.57359569 171.40318649 71.30178531 163.875 69.1875 C161.82007883 68.58673619 159.76540024 67.98514217 157.7109375 67.3828125 C156.64842773 67.07504883 155.58591797 66.76728516 154.49121094 66.45019531 C149.14195107 64.88200313 143.82318004 63.21660918 138.5 61.5625 C128.33451255 58.42185601 118.14445206 55.37031457 107.93457031 52.37719727 C102.15503819 50.67805089 96.39672197 48.92359399 90.65234375 47.109375 C84.71201599 45.23762755 78.74875122 43.46245606 72.76171875 41.74609375 C71.95720276 41.51541702 71.15268677 41.2847403 70.3237915 41.04707336 C67.02877592 40.1040841 63.73307517 39.16355362 60.4362793 38.22680664 C52.06096778 35.84405471 43.76459062 33.44574413 35.61352539 30.36450195 C31.84279992 28.98529124 27.99903457 27.92092052 24.125 26.875 C23.39152344 26.67132813 22.65804687 26.46765625 21.90234375 26.2578125 C2.01425425 20.80519042 -12.72505663 23.64903577 -31.92089844 30.22387695 C-36.92919415 31.92960855 -41.95329098 33.44086075 -47.0625 34.8125 C-54.99998544 36.9515294 -62.84251784 39.35714121 -70.6875 41.8125 C-79.75268433 44.64674863 -88.82603595 47.44255481 -97.9375 50.125 C-110.37550231 53.79535706 -122.81127023 57.47304462 -135.23867798 61.17913818 C-137.47311651 61.84449797 -139.70811204 62.50799049 -141.94369507 63.16949463 C-166.68358708 68.72874889 -166.68358708 68.72874889 -184.90906525 84.3196888 C-186.62035391 88.75658695 -186.31780443 93.43132677 -186.29589844 98.12670898 C-186.30623611 99.2786525 -186.31657379 100.43059601 -186.32722473 101.6174469 C-186.35663207 105.41047222 -186.35815154 109.20296343 -186.359375 112.99609375 C-186.37435794 115.6316886 -186.39108532 118.26727407 -186.40948486 120.90284729 C-186.44996638 127.12165577 -186.47036697 133.34035961 -186.48345876 139.5592795 C-186.49935554 146.64283473 -186.5377823 153.72621254 -186.57805204 160.80966461 C-186.66034331 175.37303948 -186.71450262 189.93643681 -186.75 204.5 C-189.10344806 204.83923576 -191.4575484 205.17150534 -193.8125 205.5 C-194.79766602 205.64308594 -194.79766602 205.64308594 -195.80273438 205.7890625 C-200.15138763 206.38887674 -204.36329071 206.59127093 -208.75 206.5 C-208.82023551 191.0266868 -208.87305919 175.55338561 -208.90543652 160.07995033 C-208.92087279 152.89455444 -208.9418999 145.70925789 -208.97631836 138.52392578 C-209.00632043 132.25756299 -209.02559852 125.99127219 -209.03226548 119.72483957 C-209.03615957 116.41006117 -209.04684238 113.09553534 -209.06719017 109.78081131 C-209.08905363 106.07071108 -209.09196312 102.36103348 -209.09057617 98.65087891 C-209.101362 97.56474304 -209.11214783 96.47860718 -209.1232605 95.35955811 C-209.06815023 81.68292658 -204.3059804 70.52459744 -194.94921875 60.5625 C-189.0124875 54.9948373 -182.37335901 52.21967969 -174.7043457 49.72216797 C-173.92006101 49.4640074 -173.13577631 49.20584682 -172.32772541 48.9398632 C-162.88288323 45.85454637 -153.37059328 42.99208151 -143.85546875 40.1328125 C-141.87099352 39.5343396 -139.88658976 38.93562964 -137.9022522 38.33670044 C-132.65843691 36.7546519 -127.41368498 35.17573167 -122.16870499 33.59754944 C-116.75282853 31.96744314 -111.33774758 30.33469869 -105.92260742 28.70214844 C-99.48168336 26.76051034 -93.04068 24.81913742 -86.59925842 22.87915039 C-75.33400242 19.48619788 -64.07047668 16.08769703 -52.81149101 12.67399216 C-50.86618841 12.08422102 -48.92079152 11.49476204 -46.97535706 10.90542603 C-40.13529924 8.83344419 -40.13529924 8.83344419 -33.29647827 6.75738525 C-30.35061672 5.86223443 -27.40393321 4.96984356 -24.45703125 4.078125 C-23.62837555 3.82539825 -22.79971985 3.57267151 -21.94595337 3.31228638 C-14.53099845 1.07399428 -7.74441565 0.18150974 0 0 Z " fill="#02204F" transform="translate(298.75,5.5)"/>
<path d="M0 0 C0.06993164 0.59312988 0.13986328 1.18625977 0.21191406 1.79736328 C4.06759387 33.82678062 15.16886298 60.80760921 37.515625 84.36328125 C39.59052389 86.5654145 41.56451016 88.80145403 43.5 91.125 C45.86597104 94.10123262 45.86597104 94.10123262 49 96 C49 96.66 49 97.32 49 98 C49.57878906 98.2578125 50.15757812 98.515625 50.75390625 98.78125 C53.19477218 100.10568508 54.91222801 101.6030082 56.9375 103.5 C76.03531344 120.76268153 98.91327884 135.97862718 122.10693359 147.06787109 C125.89040151 148.93081673 129.59228118 150.95219092 133.3125 152.9375 C147.48581873 160.44235138 161.9899468 167.1076494 176.85595703 173.12744141 C178.2866794 173.70970077 179.70976556 174.31108318 181.12451172 174.93115234 C187.58239603 177.634061 191.55287571 176.62396056 197.9921875 174.1015625 C199.95651124 173.28413191 201.91726438 172.45808569 203.875 171.625 C204.92349121 171.18236816 205.97198242 170.73973633 207.05224609 170.28369141 C229.92601246 160.58750612 229.92601246 160.58750612 251.8046875 148.87890625 C254.60672244 147.2312549 257.44371023 145.70184736 260.33129883 144.21069336 C283.60432691 132.16553152 305.34572374 116.76033335 324.671875 99.10546875 C326.72429983 97.24933287 328.81845709 95.46629008 330.9375 93.6875 C359.26454237 68.90133793 373.89063454 36.6772382 378 0 C380.75039833 0.30926968 383.50028178 0.6222884 386.25 0.9375 C387.02730469 1.02451172 387.80460937 1.11152344 388.60546875 1.20117188 C389.35957031 1.28818359 390.11367188 1.37519531 390.890625 1.46484375 C391.58188477 1.543396 392.27314453 1.62194824 392.98535156 1.70288086 C395.03695313 2.00544983 396.99782535 2.46412384 399 3 C400.85815765 34.86396273 384.31429278 67.71883396 363.6484375 91.05078125 C362.77445312 92.02402344 361.90046875 92.99726563 361 94 C360.24976563 94.85980469 359.49953125 95.71960938 358.7265625 96.60546875 C349.56920215 107.00254395 339.87580246 116.41156869 329 125 C327.86798413 125.93140122 326.73787054 126.86511786 325.609375 127.80078125 C294.04782699 153.80493776 232.47436596 198.26462151 189.77929688 200.09521484 C183.99865018 199.36783963 178.90161444 197.77966787 173.5 195.625 C172.59983154 195.27268311 171.69966309 194.92036621 170.7722168 194.55737305 C133.33791374 179.71621364 96.82075201 161.5335541 64.375 137.5 C63.74311768 137.03352051 63.11123535 136.56704102 62.46020508 136.08642578 C54.43160571 130.13015176 46.76143861 123.89637523 39.375 117.15625 C37.23613442 115.2143852 35.06580615 113.32022404 32.875 111.4375 C25.0769373 104.60833487 18.40443791 97.14513129 12 89 C11.25621094 88.0615625 10.51242188 87.123125 9.74609375 86.15625 C-8.56512584 62.46312412 -22.09977427 33.48818683 -21 3 C-5.96750198 -0.05997489 -5.96750198 -0.05997489 0 0 Z " fill="#012051" transform="translate(111,394)"/>
<path d="M0 0 C1.81247935 2.71871903 2.71075498 4.75827574 3.7265625 7.81640625 C4.0359375 8.74517578 4.3453125 9.67394531 4.6640625 10.63085938 C4.98117187 11.59830078 5.29828125 12.56574219 5.625 13.5625 C6.11226563 15.01946289 6.11226563 15.01946289 6.609375 16.50585938 C9 23.73297991 9 23.73297991 9 26 C18.24 26 27.48 26 37 26 C34.22961917 28.77038083 32.01573482 30.83751816 28.890625 33.015625 C28.13652344 33.54414063 27.38242187 34.07265625 26.60546875 34.6171875 C25.82816406 35.15601563 25.05085938 35.69484375 24.25 36.25 C23.45722656 36.80429687 22.66445313 37.35859375 21.84765625 37.9296875 C19.90091002 39.29006438 17.95166452 40.64669316 16 42 C16.70756286 47.48137304 18.34745619 52.52130494 20.0625 57.75 C20.61847664 59.45228087 21.17198783 61.15536958 21.72265625 62.859375 C21.96765869 63.60670898 22.21266113 64.35404297 22.46508789 65.12402344 C23 67 23 67 23 69 C19.9808834 67.58590784 17.36468763 65.92284385 14.671875 63.9609375 C13.87265625 63.38085938 13.0734375 62.80078125 12.25 62.203125 C11.0125 61.29820312 11.0125 61.29820312 9.75 60.375 C8.48929687 59.45847656 8.48929687 59.45847656 7.203125 58.5234375 C5.13348624 57.01824567 3.06587006 55.51035798 1 54 C-2.96214134 55.8929692 -6.40157645 58.35541884 -9.9375 60.9375 C-13.8716358 63.80362014 -17.77358379 66.57001117 -22 69 C-20.68764148 62.63569826 -18.98780585 56.57878972 -16.875 50.4375 C-16.59785156 49.61958984 -16.32070312 48.80167969 -16.03515625 47.95898438 C-15.36094863 45.97123432 -14.68107796 43.98540651 -14 42 C-14.515625 41.77054687 -15.03125 41.54109375 -15.5625 41.3046875 C-18.90877141 39.51357428 -21.91967301 37.33536016 -25 35.125 C-25.61617187 34.69058594 -26.23234375 34.25617188 -26.8671875 33.80859375 C-27.46789062 33.37933594 -28.06859375 32.95007813 -28.6875 32.5078125 C-29.22761719 32.12254395 -29.76773438 31.73727539 -30.32421875 31.34033203 C-32.35287521 29.71776152 -34.16313009 27.83686991 -36 26 C-26.76 26 -17.52 26 -8 26 C-7.13375 22.349375 -7.13375 22.349375 -6.25 18.625 C-4.67780627 12.17453628 -2.74078307 6.06471147 0 0 Z " fill="#F6FCFD" transform="translate(258,455)"/>
<path d="M0 0 C2 1 2 1 2.86962891 3.19311523 C3.15241699 4.13872314 3.43520508 5.08433105 3.7265625 6.05859375 C4.0359375 7.08404297 4.3453125 8.10949219 4.6640625 9.16601562 C4.98117187 10.24560547 5.29828125 11.32519531 5.625 12.4375 C5.94984375 13.51322266 6.2746875 14.58894531 6.609375 15.69726562 C9 23.69782366 9 23.69782366 9 26 C18.24 26 27.48 26 37 26 C31.3673257 31.6326743 31.3673257 31.6326743 28.5546875 33.640625 C27.95269531 34.07117188 27.35070312 34.50171875 26.73046875 34.9453125 C26.11816406 35.37585938 25.50585938 35.80640625 24.875 36.25 C24.25496094 36.69601562 23.63492188 37.14203125 22.99609375 37.6015625 C20.3515746 39.47831803 18.09393776 40.96868741 15 42 C15.37137085 43.0669812 15.37137085 43.0669812 15.75024414 44.15551758 C16.86369265 47.37135861 17.96323578 50.5917843 19.0625 53.8125 C19.45244141 54.93205078 19.84238281 56.05160156 20.24414062 57.20507812 C20.60830078 58.27822266 20.97246094 59.35136719 21.34765625 60.45703125 C21.68804932 61.44678955 22.02844238 62.43654785 22.37915039 63.45629883 C23 66 23 66 22 69 C21.44014404 68.58113525 20.88028809 68.16227051 20.3034668 67.73071289 C17.76784128 65.83721094 15.22774418 63.94980055 12.6875 62.0625 C11.80642578 61.40314453 10.92535156 60.74378906 10.01757812 60.06445312 C9.17001953 59.43603516 8.32246094 58.80761719 7.44921875 58.16015625 C6.66893311 57.57886963 5.88864746 56.99758301 5.0847168 56.39868164 C2.95926924 54.83867161 2.95926924 54.83867161 0 54 C-2.03330736 55.04307556 -2.03330736 55.04307556 -4.08984375 56.67578125 C-4.87423828 57.25650391 -5.65863281 57.83722656 -6.46679688 58.43554688 C-7.28212891 59.05494141 -8.09746094 59.67433594 -8.9375 60.3125 C-10.54889651 61.5194475 -12.16211544 62.72396658 -13.77734375 63.92578125 C-14.49140381 64.46630127 -15.20546387 65.00682129 -15.94116211 65.5637207 C-17.89871141 66.92933941 -19.83922422 67.99451455 -22 69 C-20.20603778 62.09596359 -18.15950142 55.3512568 -15.76953125 48.62890625 C-14.81271281 45.81671799 -14.81271281 45.81671799 -15 42 C-16.61225602 40.29598898 -16.61225602 40.29598898 -18.83203125 38.87109375 C-19.63060547 38.31099609 -20.42917969 37.75089844 -21.25195312 37.17382812 C-22.09693359 36.60083984 -22.94191406 36.02785156 -23.8125 35.4375 C-25.46643726 34.2926633 -27.11884257 33.14560948 -28.76953125 31.99609375 C-29.50792236 31.49263428 -30.24631348 30.9891748 -31.00708008 30.47045898 C-33 29 -33 29 -36 26 C-26.76 26 -17.52 26 -8 26 C-7.01 22.37 -6.02 18.74 -5 15 C-4.12709556 12.25834241 -3.24378416 9.53320024 -2.3125 6.8125 C-2.08755859 6.14669922 -1.86261719 5.48089844 -1.63085938 4.79492188 C-1.09009689 3.1956456 -0.54549292 1.59766898 0 0 Z " fill="#F7FCFD" transform="translate(341,455)"/>
<path d="M0 0 C3.3 0 6.6 0 10 0 C10.34933594 1.07121094 10.69867188 2.14242187 11.05859375 3.24609375 C11.51807145 4.64328104 11.97771546 6.04041365 12.4375 7.4375 C12.66759766 8.14455078 12.89769531 8.85160156 13.13476562 9.58007812 C14.07421147 13.06306795 14.07421147 13.06306795 16 16 C16.04063832 17.66617115 16.042721 19.33388095 16 21 C16.66 21 17.32 21 18 21 C18.11214844 20.34644531 18.22429687 19.69289063 18.33984375 19.01953125 C19.18338422 15.16120708 20.36284441 11.44776501 21.5625 7.6875 C21.79646484 6.94693359 22.03042969 6.20636719 22.27148438 5.44335938 C22.84531972 3.62816595 23.42234011 1.81397994 24 0 C27.63 0 31.26 0 35 0 C35 10.23 35 20.46 35 31 C32.69 31 30.38 31 28 31 C27.505 21.1 27.505 21.1 27 11 C24.69 17.6 22.38 24.2 20 31 C18.02 31 16.04 31 14 31 C11.69 24.73 9.38 18.46 7 12 C6.67 18.27 6.34 24.54 6 31 C4.02 31 2.04 31 0 31 C0 20.77 0 10.54 0 0 Z " fill="#F6F6F6" transform="translate(202,91)"/>
<path d="M0 0 C17.77777778 0 17.77777778 0 22.71484375 3.7109375 C25.05052862 6.05372171 25.03908724 7.3973869 25.375 10.8125 C25.34887097 14.41177378 25.08025749 14.9028462 22.625 17.875 C21.75875 18.57625 20.8925 19.2775 20 20 C19.34 20.66 18.68 21.32 18 22 C18.47050781 22.59167969 18.94101562 23.18335938 19.42578125 23.79296875 C28 34.67494824 28 34.67494824 28 38 C24.75 38.3984375 24.75 38.3984375 21 38 C19.26116073 35.79540021 18.1809672 34.10189582 17 31.625 C15.80893727 29.15855151 14.62960049 27.26398068 13 25 C10.69 24.34 8.38 23.68 6 23 C6 27.95 6 32.9 6 38 C4.02 38 2.04 38 0 38 C0 25.46 0 12.92 0 0 Z " fill="#313131" transform="translate(327,243)"/>
<path d="M0 0 C17.06272714 -0.06234858 17.06272714 -0.06234858 21.5625 2.9375 C24.57879841 6.72720825 24.75307184 8.96024767 24.46484375 13.69140625 C23.55628256 18.20367235 20.61802453 19.58798365 17 22 C17.56589844 22.89203125 18.13179688 23.7840625 18.71484375 24.703125 C19.45601107 25.88523996 20.19688091 27.06754148 20.9375 28.25 C21.31068359 28.83652344 21.68386719 29.42304688 22.06835938 30.02734375 C23.8965661 32.95906265 25.46275382 35.55480229 26 39 C23.69 39 21.38 39 19 39 C17.82823482 36.87767021 16.66245215 34.75242209 15.5 32.625 C15.16613281 32.02171875 14.83226562 31.4184375 14.48828125 30.796875 C12 26.2265625 12 26.2265625 12 24 C9.69 23.67 7.38 23.34 5 23 C4.67 27.95 4.34 32.9 4 38 C2.02 38 0.04 38 -2 38 C-2.17331242 29.75081033 -1.62661546 21.59721094 -1 13.375 C-0.85691406 11.43947266 -0.85691406 11.43947266 -0.7109375 9.46484375 C-0.47721854 6.30963781 -0.24016501 3.15472071 0 0 Z " fill="#323232" transform="translate(436,307)"/>
<path d="M0 0 C2.64 0 5.28 0 8 0 C10.05020675 2.1345507 11.13680065 3.599277 12.5 6.125 C12.86601318 6.74648926 13.23202637 7.36797852 13.60913086 8.00830078 C14.76796987 9.99054505 15.88374307 11.99352697 17 14 C17.77982733 15.35053533 18.56235208 16.69951695 19.34765625 18.046875 C21.26920302 21.345598 23.13065686 24.66917041 25 28 C25.33 19.09 25.66 10.18 26 1 C27.98 1 29.96 1 32 1 C32 13.54 32 26.08 32 39 C29.69 39 27.38 39 25 39 C23.08206907 36.91849971 21.95772169 35.35812507 20.625 32.9375 C20.25705322 32.31858887 19.88910645 31.69967773 19.51000977 31.06201172 C18.72822513 29.7424505 17.9574262 28.41632938 17.19677734 27.08447266 C15.5997246 24.3028251 13.93350718 21.56526987 12.2668457 18.82495117 C10.49515366 15.8929554 8.75024153 12.94485084 7 10 C6.67 19.24 6.34 28.48 6 38 C4.02 38 2.04 38 0 38 C0 25.46 0 12.92 0 0 Z " fill="#313131" transform="translate(334,302)"/>
<path d="M0 0 C6.44040698 -0.41969477 6.44040698 -0.41969477 8.828125 1.37109375 C9.53195313 2.39396484 9.53195313 2.39396484 10.25 3.4375 C10.81332031 4.23929687 11.37664062 5.04109375 11.95703125 5.8671875 C12.63121094 6.90101563 13.30539063 7.93484375 14 9 C14.68328369 10.03688965 14.68328369 10.03688965 15.38037109 11.09472656 C18.63313802 16.03555827 21.81837629 21.01152826 25 26 C25.33 17.42 25.66 8.84 26 0 C27.98 0 29.96 0 32 0 C32.67707648 12.34584137 33.1574163 24.63407511 33 37 C30.14200272 37.24064218 27.80127627 37.42810427 25 37 C22.8203125 34.90234375 22.8203125 34.90234375 21.125 31.9375 C20.15433594 30.31908203 20.15433594 30.31908203 19.1640625 28.66796875 C18.8227832 28.08063965 18.48150391 27.49331055 18.12988281 26.88818359 C16.05499535 23.42077227 13.7591205 20.09890491 11.5 16.75 C10.015 14.5225 8.53 12.295 7 10 C7 19.24 7 28.48 7 38 C5.02 38 3.04 38 1 38 C-0.40618519 25.36944374 -0.09640239 12.68803757 0 0 Z " fill="#303030" transform="translate(236,303)"/>
<path d="M0 0 C2.64 0 5.28 0 8 0 C9.65887946 3.82076406 11.31270504 7.64366617 12.9621582 11.46850586 C13.52234382 12.76563392 14.08383545 14.06219885 14.64672852 15.3581543 C17.74074059 22.48400789 20.69669074 29.57283787 23 37 C20.69 37 18.38 37 16 37 C13 31.375 13 31.375 13 28 C7.72 28 2.44 28 -3 28 C-3.66 31.3 -4.32 34.6 -5 38 C-7.31 38 -9.62 38 -12 38 C-11.37553591 31.91355667 -9.66502481 26.46253578 -7.6875 20.6875 C-7.39166016 19.80126953 -7.09582031 18.91503906 -6.79101562 18.00195312 C-4.73471664 11.91299868 -2.44494039 5.94297499 0 0 Z " fill="#323232" transform="translate(225,244)"/>
<path d="M0 0 C4.38299083 2.19149542 7.20074724 4.40190962 9 9 C9.68829606 14.0729969 9.59408188 17.83305346 7.25 22.4375 C4.51524044 25.55208728 2.59710466 27.73220753 -1.5859375 28.43359375 C-7.53235226 28.44192206 -11.42167576 28.22614545 -16 24 C-19.08282225 19.14027325 -18.73307333 13.53877624 -18 8 C-14.43300839 0.5533721 -7.5694724 -1.06445706 0 0 Z " fill="#EAF8FD" transform="translate(284,405)"/>
<path d="M0 0 C2.64 0 5.28 0 8 0 C11.80248164 7.3542502 15.2917361 14.7828522 18.55102539 22.390625 C19.85851636 25.4341798 21.20196519 28.39653577 22.70703125 31.3515625 C24 34 24 34 24 36 C21.69 36 19.38 36 17 36 C16.01 33.69 15.02 31.38 14 29 C9.05 29 4.1 29 -1 29 C-1.66 32.3 -2.32 35.6 -3 39 C-5.64 39 -8.28 39 -11 39 C-10.80889648 38.351521 -10.61779297 37.70304199 -10.42089844 37.03491211 C-6.79892172 24.72738294 -3.20542651 12.42351639 0 0 Z " fill="#323232" transform="translate(145,308)"/>
<path d="M0 0 C0 1.98 0 3.96 0 6 C-0.55945313 5.84015625 -1.11890625 5.6803125 -1.6953125 5.515625 C-7.01767746 4.3248586 -12.26498261 4.43217613 -17.4375 6.125 C-20.73129958 8.53509725 -21.72597676 10.1071512 -23 14 C-23.64367068 18.88712927 -23.86537146 23.30312114 -21.125 27.5625 C-19.23715667 30.03988626 -19.23715667 30.03988626 -17 31 C-14.95944995 31.07065617 -12.91665743 31.08421976 -10.875 31.0625 C-9.77929688 31.05347656 -8.68359375 31.04445313 -7.5546875 31.03515625 C-6.71164062 31.02355469 -5.86859375 31.01195312 -5 31 C-5 28.03 -5 25.06 -5 22 C-7.64 22 -10.28 22 -13 22 C-13 20.02 -13 18.04 -13 16 C-8.38 16 -3.76 16 1 16 C1 22.27 1 28.54 1 35 C-6.53115549 37.51038516 -13.82639164 38.34151697 -21.5 35.875 C-26.31107149 32.26669638 -30.45696432 27.62976481 -31.37109375 21.51953125 C-31.56658111 13.55054665 -29.9131672 8.20887253 -24.44921875 2.33203125 C-18.73622963 -2.190224 -6.57035286 -3.28517643 0 0 Z " fill="#313131" transform="translate(307,303)"/>
<path d="M0 0 C2.31 0 4.62 0 7 0 C7.01458252 0.82725586 7.02916504 1.65451172 7.04418945 2.50683594 C7.1186586 6.25502881 7.2153246 10.00232997 7.3125 13.75 C7.33505859 15.05195313 7.35761719 16.35390625 7.38085938 17.6953125 C7.41630859 18.94570313 7.45175781 20.19609375 7.48828125 21.484375 C7.51446533 22.63647461 7.54064941 23.78857422 7.56762695 24.97558594 C8.03485969 28.24384069 8.71329644 29.66024801 11 32 C12.93425486 32.62723208 12.93425486 32.62723208 15 32.5 C15.680625 32.5103125 16.36125 32.520625 17.0625 32.53125 C19.88306978 31.75786796 20.5180037 30.49367227 22 28 C22.50317193 24.90848769 22.50317193 24.90848769 22.51171875 21.484375 C22.54716797 20.23398437 22.58261719 18.98359375 22.61914062 17.6953125 C22.64169922 16.39335937 22.66425781 15.09140625 22.6875 13.75 C22.72166016 12.43257812 22.75582031 11.11515625 22.79101562 9.7578125 C22.87350706 6.50529322 22.9426567 3.25304404 23 0 C25.31 0 27.62 0 30 0 C30.08735463 4.54154478 30.14051247 9.08287232 30.1875 13.625 C30.21263672 14.91019531 30.23777344 16.19539063 30.26367188 17.51953125 C30.27333984 18.76347656 30.28300781 20.00742187 30.29296875 21.2890625 C30.3086792 22.43068848 30.32438965 23.57231445 30.34057617 24.74853516 C29.83691068 29.55700613 28.11318829 32.82320095 24.8125 36.3125 C20.1183031 39.12901814 15.67569724 39.02889133 10.375 38.9375 C6.06270629 37.73964064 3.55350626 35.65888313 1 32 C-0.17025598 28.4952825 -0.11435196 25.15743165 -0.09765625 21.484375 C-0.09443359 20.23398437 -0.09121094 18.98359375 -0.08789062 17.6953125 C-0.07951172 16.39335937 -0.07113281 15.09140625 -0.0625 13.75 C-0.05798828 12.43257812 -0.05347656 11.11515625 -0.04882812 9.7578125 C-0.03704316 6.50516259 -0.02059011 3.25260416 0 0 Z " fill="#3C3C3C" transform="translate(287,242)"/>
<path d="M0 0 C9.24 0 18.48 0 28 0 C26.93910891 4.24356437 25.13376468 7.16430738 22.74609375 10.734375 C22.32578384 11.37240051 21.90547394 12.01042603 21.47242737 12.66778564 C20.13274673 14.69874828 18.78526145 16.72439311 17.4375 18.75 C16.52617268 20.12856262 15.61535932 21.50746514 14.70507812 22.88671875 C12.47599006 26.2617813 10.23988949 29.63209722 8 33 C8.65661621 32.9285376 9.31323242 32.8570752 9.98974609 32.78344727 C14.54898292 32.30407847 19.03459558 31.87192279 23.625 31.9375 C24.88183594 31.95103516 24.88183594 31.95103516 26.1640625 31.96484375 C26.76992188 31.97644531 27.37578125 31.98804688 28 32 C28 33.98 28 35.96 28 38 C18.43 38 8.86 38 -1 38 C-0.04625853 33.23129267 0.76401423 31.46578237 3.4375 27.625 C4.14777344 26.59117187 4.85804688 25.55734375 5.58984375 24.4921875 C5.9751123 23.9362793 6.36038086 23.38037109 6.75732422 22.80761719 C9.04402195 19.48134803 11.26637822 16.11202204 13.5 12.75 C15.7275 9.40875 15.7275 9.40875 18 6 C12.06 5.67 6.12 5.34 0 5 C0 3.35 0 1.7 0 0 Z " fill="#303030" transform="translate(252,243)"/>
<path d="M0 0 C1.20366211 0.00483398 1.20366211 0.00483398 2.43164062 0.00976562 C3.68170898 0.02233398 3.68170898 0.02233398 4.95703125 0.03515625 C5.80201172 0.03966797 6.64699219 0.04417969 7.51757812 0.04882812 C9.6015928 0.06060222 11.68557102 0.07853735 13.76953125 0.09765625 C13.76953125 2.07765625 13.76953125 4.05765625 13.76953125 6.09765625 C9.14953125 6.09765625 4.52953125 6.09765625 -0.23046875 6.09765625 C-0.23046875 9.72765625 -0.23046875 13.35765625 -0.23046875 17.09765625 C1.08953125 16.76765625 2.40953125 16.43765625 3.76953125 16.09765625 C5.35164698 16.03217133 6.93623206 16.01187244 8.51953125 16.03515625 C9.31875 16.04417969 10.11796875 16.05320312 10.94140625 16.0625 C11.5446875 16.07410156 12.14796875 16.08570313 12.76953125 16.09765625 C12.76953125 18.07765625 12.76953125 20.05765625 12.76953125 22.09765625 C8.47953125 22.09765625 4.18953125 22.09765625 -0.23046875 22.09765625 C-0.23046875 25.72765625 -0.23046875 29.35765625 -0.23046875 33.09765625 C5.04953125 33.09765625 10.32953125 33.09765625 15.76953125 33.09765625 C15.76953125 34.74765625 15.76953125 36.39765625 15.76953125 38.09765625 C1.77396584 39.58767842 1.77396584 39.58767842 -5.23046875 39.09765625 C-7.28736335 37.04076165 -6.48793951 32.74209627 -6.546875 29.90625 C-6.5676561 29.08641129 -6.58843719 28.26657257 -6.60984802 27.42189026 C-6.67543369 24.79306724 -6.73427001 22.16414121 -6.79296875 19.53515625 C-6.83614542 17.75715064 -6.87975942 15.9791556 -6.92382812 14.20117188 C-7.03112418 9.83343991 -7.13236579 5.46560398 -7.23046875 1.09765625 C-4.46481493 0.17577164 -2.84763173 -0.02019597 0 0 Z " fill="#373737" transform="translate(213.23046875,303.90234375)"/>
<path d="M0 0 C3.63467079 1.62400184 4.77408696 2.66113044 7 6 C7.79829231 10.500108 8.20812277 15.06847241 5.71484375 19.0546875 C2.73252241 21.89434655 0.07941005 23.35500547 -4.0625 23.5625 C-8.05834237 22.99166538 -10.61751549 22.17445433 -14 20 C-16.96266844 15.55599734 -16.76945894 11.21098923 -16 6 C-11.40681468 -0.04366489 -7.21141025 -0.71115983 0 0 Z " fill="#F6F6F6" transform="translate(310,99)"/>
<path d="M0 0 C2.625 1.6875 2.625 1.6875 4.625 4.6875 C5.42329231 9.187608 5.83312277 13.75597241 3.33984375 17.7421875 C0.35752241 20.58184655 -2.29558995 22.04250547 -6.4375 22.25 C-10.43334237 21.67916538 -12.99251549 20.86195433 -16.375 18.6875 C-18.52664703 15.46002945 -18.64745079 14.48244361 -18.625 10.75 C-18.63015625 9.89535156 -18.6353125 9.04070312 -18.640625 8.16015625 C-18.23476188 4.38204805 -17.17506711 2.34637879 -14.25 -0.0625 C-9.14849949 -2.2805437 -5.03470192 -1.95793964 0 0 Z " fill="#F6F6F6" transform="translate(358.375,100.3125)"/>
<path d="M0 0 C6.6 0 13.2 0 20 0 C20 1.98 20 3.96 20 6 C13.07 5.505 13.07 5.505 6 5 C5.67 8.63 5.34 12.26 5 16 C7.21354167 15.96744792 9.42708333 15.93489583 11.640625 15.90234375 C13.90691002 15.99614694 15.8288895 16.36758937 18 17 C18 18.65 18 20.3 18 22 C13.71 21.67 9.42 21.34 5 21 C4.67 24.96 4.34 28.92 4 33 C8.95 33 13.9 33 19 33 C19 34.65 19 36.3 19 38 C16.62492145 38.02719556 14.25016036 38.04693247 11.875 38.0625 C10.87726563 38.07506836 10.87726563 38.07506836 9.859375 38.08789062 C5.79318646 38.10782292 1.9879908 37.78890161 -2 37 C-2.13800414 28.52424574 -1.73754664 20.19191897 -1 11.75 C-0.90460938 10.61175781 -0.80921875 9.47351563 -0.7109375 8.30078125 C-0.47839102 5.5334781 -0.23983612 2.76668091 0 0 Z " fill="#2E2E2E" transform="translate(408,306)"/>
<path d="M0 0 C6.6 0 13.2 0 20 0 C20 1.65 20 3.3 20 5 C15.38 5 10.76 5 6 5 C6 8.63 6 12.26 6 16 C10.29 16 14.58 16 19 16 C18.67 17.65 18.34 19.3 18 21 C13.71 21 9.42 21 5 21 C5 24.63 5 28.26 5 32 C6.7634375 31.9690625 6.7634375 31.9690625 8.5625 31.9375 C12.47413467 31.93052739 16.14497944 32.35749657 20 33 C20 34.65 20 36.3 20 38 C13.07 37.67 6.14 37.34 -1 37 C-1.08679234 24.58869489 -0.85377709 12.37976787 0 0 Z " fill="#2B2B2B" transform="translate(362,244)"/>
<path d="M0 0 C6.6 0 13.2 0 20 0 C20 1.65 20 3.3 20 5 C15.38 5 10.76 5 6 5 C6 8.63 6 12.26 6 16 C10.29 16 14.58 16 19 16 C19 17.65 19 19.3 19 21 C14.38 21 9.76 21 5 21 C5 24.63 5 28.26 5 32 C9.95 32.33 14.9 32.66 20 33 C20 34.65 20 36.3 20 38 C12.92278069 38.12109311 6.02804699 37.85373239 -1 37 C-1.14429568 24.62263735 -0.69150052 12.36057178 0 0 Z " fill="#2B2B2B" transform="translate(378,304)"/>
<path d="M0 0 C2.64 0 5.28 0 8 0 C9.34315504 3.91336793 10.67280672 7.83119282 12 11.75 C12.3815625 12.86117188 12.763125 13.97234375 13.15625 15.1171875 C13.5171875 16.18710937 13.878125 17.25703125 14.25 18.359375 C14.75273437 19.83615723 14.75273437 19.83615723 15.265625 21.34277344 C16 24 16 24 16 28 C13.69 28 11.38 28 9 28 C8.67 26.02 8.34 24.04 8 22 C4.7 22 1.4 22 -2 22 C-2.66 23.98 -3.32 25.96 -4 28 C-6.31 28 -8.62 28 -11 28 C-8.94661139 21.48529224 -6.50465317 15.21269971 -3.8125 8.9375 C-3.44447266 8.07189453 -3.07644531 7.20628906 -2.69726562 6.31445312 C-1.80127408 4.20829117 -0.90215345 2.10352808 0 0 Z " fill="#E9F7FB" transform="translate(350,406)"/>
<path d="M0 0 C2.64 0 5.28 0 8 0 C10.97974749 5.72216996 13.73972427 11.52273639 16.3125 17.4375 C16.82425781 18.61183594 17.33601563 19.78617187 17.86328125 20.99609375 C19 24 19 24 19 27 C16.69 27 14.38 27 12 27 C11.505 24.525 11.505 24.525 11 22 C7.37 22 3.74 22 0 22 C-0.33 23.98 -0.66 25.96 -1 28 C-2.98 28 -4.96 28 -7 28 C-6.40317702 21.53315857 -4.87545517 15.68706803 -2.9375 9.5 C-2.65583984 8.5821875 -2.37417969 7.664375 -2.08398438 6.71875 C-1.3951987 4.47727797 -0.70044695 2.23784969 0 0 Z " fill="#E7F6FB" transform="translate(190,408)"/>
<path d="M0 0 C12.42307692 0 12.42307692 0 16 3 C18.55573817 5.55573817 18.35498461 6.69698427 18.4375 10.25 C18.38116908 14.15219612 18.13945118 16.58392335 15.625 19.625 C9.98768028 24.72543212 9.92801778 23 0 23 C0 15.41 0 7.82 0 0 Z " fill="#585858" transform="translate(379,142)"/>
<path d="M0 0 C1.74216797 0.05414063 1.74216797 0.05414063 3.51953125 0.109375 C4.39996094 0.15578125 5.28039062 0.2021875 6.1875 0.25 C6.1875 2.23 6.1875 4.21 6.1875 6.25 C2.8875 6.25 -0.4125 6.25 -3.8125 6.25 C-3.8125 7.24 -3.8125 8.23 -3.8125 9.25 C-3.26980469 9.50394531 -2.72710937 9.75789063 -2.16796875 10.01953125 C-1.09482422 10.53580078 -1.09482422 10.53580078 0 11.0625 C1.06154297 11.56716797 1.06154297 11.56716797 2.14453125 12.08203125 C4.25300868 13.28745143 5.6690149 14.35658031 7.1875 16.25 C7.625 19.6875 7.625 19.6875 7.1875 23.25 C5.32041495 25.61497439 3.86688569 26.91030715 1.1875 28.25 C-0.64378771 28.34608608 -2.47869959 28.37982579 -4.3125 28.375 C-5.2921875 28.37757813 -6.271875 28.38015625 -7.28125 28.3828125 C-9.8125 28.25 -9.8125 28.25 -11.8125 27.25 C-11.8125 24.94 -11.8125 22.63 -11.8125 20.25 C-11.3175 20.58 -10.8225 20.91 -10.3125 21.25 C-6.72159106 22.68636358 -3.66793873 22.37851462 0.1875 22.25 C-0.79339423 19.80287324 -1.413139 18.49710462 -3.6875 17.08984375 C-4.38875 16.79207031 -5.09 16.49429687 -5.8125 16.1875 C-9.07610688 14.78966838 -9.72977014 14.37409478 -11.8125 11.25 C-12.25 7.8125 -12.25 7.8125 -11.8125 4.25 C-8.03838383 0.28647651 -5.36911972 -0.21693413 0 0 Z " fill="#EBF8FC" transform="translate(252.8125,405.75)"/>
<path d="M0 0 C1.75570312 0.04060547 1.75570312 0.04060547 3.546875 0.08203125 C4.43890625 0.11683594 5.3309375 0.15164063 6.25 0.1875 C6.25 2.1675 6.25 4.1475 6.25 6.1875 C2.95 6.1875 -0.35 6.1875 -3.75 6.1875 C-4.08 7.1775 -4.41 8.1675 -4.75 9.1875 C-3.88375 9.435 -3.0175 9.6825 -2.125 9.9375 C1.58053845 11.30992165 4.24694564 12.60347648 7.25 15.1875 C8.375 18.625 8.375 18.625 8.25 22.1875 C6.61329756 24.97595601 5.52194277 26.75905612 2.39453125 27.8125 C0.09799261 28.21408053 -2.04431966 28.32029492 -4.375 28.3125 C-5.15101563 28.31507813 -5.92703125 28.31765625 -6.7265625 28.3203125 C-8.75 28.1875 -8.75 28.1875 -10.75 27.1875 C-10.75 25.2075 -10.75 23.2275 -10.75 21.1875 C-7.45 21.5175 -4.15 21.8475 -0.75 22.1875 C-0.75 20.8675 -0.75 19.5475 -0.75 18.1875 C-1.56404297 17.82398438 -1.56404297 17.82398438 -2.39453125 17.453125 C-10.20410628 13.79458535 -10.20410628 13.79458535 -11.75 10.1875 C-11.6435045 4.11725647 -11.6435045 4.11725647 -9.11328125 1.484375 C-5.94446351 -0.25454647 -3.59057682 -0.1077173 0 0 Z " fill="#EBF9FD" transform="translate(225.75,406.8125)"/>
<path d="M0 0 C5.28 0.33 10.56 0.66 16 1 C16 2.65 16 4.3 16 6 C12.7 6 9.4 6 6 6 C6 7.98 6 9.96 6 12 C8.97 12 11.94 12 15 12 C14.67 13.65 14.34 15.3 14 17 C11.03 17 8.06 17 5 17 C5 18.98 5 20.96 5 23 C8.3 23 11.6 23 15 23 C15 24.65 15 26.3 15 28 C12.52076199 28.02685095 10.0418116 28.04676547 7.5625 28.0625 C6.85544922 28.07087891 6.14839844 28.07925781 5.41992188 28.08789062 C3.61306441 28.09653588 1.80612397 28.05220011 0 28 C-1.59614666 26.40385334 -1.12983576 24.72678224 -1.1328125 22.51953125 C-1.13474609 21.1437793 -1.13474609 21.1437793 -1.13671875 19.74023438 C-1.13285156 18.77408203 -1.12898438 17.80792969 -1.125 16.8125 C-1.12886719 15.86568359 -1.13273437 14.91886719 -1.13671875 13.94335938 C-1.13542969 13.01974609 -1.13414062 12.09613281 -1.1328125 11.14453125 C-1.13168457 10.30253174 -1.13055664 9.46053223 -1.12939453 8.59301758 C-0.98541065 5.70763486 -0.47494423 2.84966538 0 0 Z " fill="#F0FBFD" transform="translate(397,408)"/>
<path d="M0 0 C1 1 1 1 1.0625 4.0625 C1.041875 5.031875 1.02125 6.00125 1 7 C-0.01320313 6.93039062 -0.01320313 6.93039062 -1.046875 6.859375 C-6.61112204 6.55165981 -6.61112204 6.55165981 -11.625 8.625 C-13.44828677 11.77431352 -13.6587245 13.41361103 -13 17 C-11.21013047 20.1235883 -11.21013047 20.1235883 -8 22 C-4.89437986 22.11425358 -2.02772034 21.6662304 1 21 C1.04254356 22.99954746 1.04080783 25.00041636 1 27 C-0.85423068 28.85423068 -3.69637198 28.30181432 -6.1875 28.375 C-13.5144278 28.33478635 -13.5144278 28.33478635 -16.75 25.6875 C-20.45291515 21.26457357 -20.33994385 17.28437425 -20.28125 11.73046875 C-19.77923438 6.85673377 -17.43933357 4.30848506 -13.9375 1.125 C-9.40408683 -0.61120079 -4.80276259 -0.41903298 0 0 Z " fill="#E9F9FD" transform="translate(319,405)"/>
<path d="M0 0 C0.33 1.65 0.66 3.3 1 5 C-0.32 5.33 -1.64 5.66 -3 6 C-3.33 7.32 -3.66 8.64 -4 10 C-2.68 10 -1.36 10 0 10 C0 11.65 0 13.3 0 15 C-1.65 15 -3.3 15 -5 15 C-5 20.94 -5 26.88 -5 33 C-6.98 33 -8.96 33 -11 33 C-11 27.06 -11 21.12 -11 15 C-12.32 15 -13.64 15 -15 15 C-15 13.35 -15 11.7 -15 10 C-13.68 10 -12.36 10 -11 10 C-11.061875 9.071875 -11.12375 8.14375 -11.1875 7.1875 C-11 4 -11 4 -9.6875 2.1875 C-6.52064738 -0.04102592 -3.74110403 -0.10111092 0 0 Z " fill="#FCFCFC" transform="translate(381,89)"/>
<path d="M0 0 C3.10414702 -0.02903577 6.20825909 -0.0468107 9.3125 -0.0625 C10.19357422 -0.07087891 11.07464844 -0.07925781 11.98242188 -0.08789062 C12.82998047 -0.09111328 13.67753906 -0.09433594 14.55078125 -0.09765625 C15.72120972 -0.10551147 15.72120972 -0.10551147 16.9152832 -0.11352539 C19 0 19 0 22 1 C22 2.65 22 4.3 22 6 C19.36 6 16.72 6 14 6 C14.01160156 7.25296875 14.02320313 8.5059375 14.03515625 9.796875 C14.04453716 11.44791517 14.05363704 13.09895696 14.0625 14.75 C14.07087891 15.575 14.07925781 16.4 14.08789062 17.25 C14.09111328 18.04921875 14.09433594 18.8484375 14.09765625 19.671875 C14.10289307 20.4050293 14.10812988 21.13818359 14.11352539 21.89355469 C13.9975109 24.0461849 13.59073271 25.9314135 13 28 C11.02 28 9.04 28 7 28 C6.90071918 20.24506486 6.93940512 12.68931285 8 5 C5.36 5 2.72 5 0 5 C0 3.35 0 1.7 0 0 Z " fill="#E7F8FD" transform="translate(368,407)"/>
<path d="M0 0 C0.80824219 0.10183594 1.61648438 0.20367187 2.44921875 0.30859375 C3.06410156 0.39238281 3.67898438 0.47617188 4.3125 0.5625 C4.3125 2.2125 4.3125 3.8625 4.3125 5.5625 C1.6725 5.5625 -0.9675 5.5625 -3.6875 5.5625 C-4.0175 6.2225 -4.3475 6.8825 -4.6875 7.5625 C-3.73037109 7.85253906 -3.73037109 7.85253906 -2.75390625 8.1484375 C-1.92761719 8.40882812 -1.10132813 8.66921875 -0.25 8.9375 C0.57371094 9.19273438 1.39742188 9.44796875 2.24609375 9.7109375 C4.3125 10.5625 4.3125 10.5625 5.3125 12.5625 C5.6875 15.4375 5.6875 15.4375 5.3125 18.5625 C3.4375 20.9375 3.4375 20.9375 0.3125 22.5625 C-3.73489883 23.01362295 -7.97928431 23.41660784 -11.6875 21.5625 C-11.6875 19.5825 -11.6875 17.6025 -11.6875 15.5625 C-10.6975 15.8925 -9.7075 16.2225 -8.6875 16.5625 C-6.35450175 16.60204234 -4.02041811 16.60651732 -1.6875 16.5625 C-1.3575 15.9025 -1.0275 15.2425 -0.6875 14.5625 C-1.409375 14.459375 -2.13125 14.35625 -2.875 14.25 C-6.07772322 13.4671121 -8.11289682 12.63648589 -10.6875 10.5625 C-11.75 7.625 -11.75 7.625 -11.6875 4.5625 C-8.35093077 0.15346209 -5.32142022 -0.69409829 0 0 Z " fill="#F5F5F5" transform="translate(331.6875,99.4375)"/>
<path d="M0 0 C0 2.31 0 4.62 0 7 C1.65 7 3.3 7 5 7 C5 8.65 5 10.3 5 12 C3.35 12 1.7 12 0 12 C0.33 15.96 0.66 19.92 1 24 C2.32 24.33 3.64 24.66 5 25 C5 26.32 5 27.64 5 29 C2.12529507 30.43735246 0.18105412 30.38172649 -3 30 C-5.8666886 27.24119753 -6.92336883 25.6536639 -7.390625 21.66796875 C-7.34421875 20.51941406 -7.2978125 19.37085937 -7.25 18.1875 C-7.21390625 17.02605469 -7.1778125 15.86460938 -7.140625 14.66796875 C-7.07101562 13.34732422 -7.07101562 13.34732422 -7 12 C-7.99 12 -8.98 12 -10 12 C-10 10.35 -10 8.7 -10 7 C-9.01 7 -8.02 7 -7 7 C-7 5.35 -7 3.7 -7 2 C-2.25 0 -2.25 0 0 0 Z " fill="#F7F7F7" transform="translate(394,92)"/>
<path d="M0 0 C1.98 0 3.96 0 6 0 C6.28788454 4.14408265 6.57259951 8.2883678 6.85449219 12.43286133 C6.9506451 13.84014638 7.04763511 15.24737452 7.14550781 16.65454102 C7.28675666 18.68751547 7.42490504 20.72068161 7.5625 22.75390625 C7.64628906 23.97408447 7.73007813 25.1942627 7.81640625 26.45141602 C7.99899751 29.98062339 8.10207213 33.46713921 8 37 C7 38 7 38 3.9375 38.0625 C2.968125 38.041875 1.99875 38.02125 1 38 C0.25863082 25.31729149 -0.13809004 12.70428397 0 0 Z " fill="#303030" transform="translate(173,306)"/>
<path d="M0 0 C0 1.98 0 3.96 0 6 C-4.455 6.495 -4.455 6.495 -9 7 C-9.020625 8.464375 -9.04125 9.92875 -9.0625 11.4375 C-9.07410156 12.26121094 -9.08570313 13.08492187 -9.09765625 13.93359375 C-9.23267348 15.99163938 -9.23267348 15.99163938 -8 17 C-5.32941149 17.14115161 -2.67567762 17.04247107 0 17 C0.042721 18.66611905 0.04063832 20.33382885 0 22 C-1 23 -1 23 -4.6875 23.25 C-8.77033487 23.19868969 -11.5241453 22.23447802 -15 20 C-17.96768598 15.54847103 -17.75531806 11.21856114 -17 6 C-14.89539585 3.07693868 -13.44591209 1.64816749 -10.1875 0.1875 C-6.78329487 -0.10428901 -3.41628712 -0.05693812 0 0 Z " fill="#F6F6F6" transform="translate(272,99)"/>
<path d="M0 0 C4.875 0.875 4.875 0.875 6 2 C6.96345515 10.67109635 6.96345515 10.67109635 4.1875 14.5 C2.4671685 15.67965588 0.73560356 16.84293096 -1 18 C-0.43410156 18.89203125 0.13179688 19.7840625 0.71484375 20.703125 C1.45601107 21.88523996 2.19688091 23.06754148 2.9375 24.25 C3.31068359 24.83652344 3.68386719 25.42304688 4.06835938 26.02734375 C5.8965661 28.95906265 7.46275382 31.55480229 8 35 C5.69 35 3.38 35 1 35 C-0.17176518 32.87767021 -1.33754785 30.75242209 -2.5 28.625 C-2.83386719 28.02171875 -3.16773438 27.4184375 -3.51171875 26.796875 C-6 22.2265625 -6 22.2265625 -6 20 C-6.66 20 -7.32 20 -8 20 C-6.95316928 16.66917498 -6.13714911 15.11707851 -3.4375 12.8125 C0.0095693 8.83511235 -0.10931839 5.11808842 0 0 Z " fill="#2F2F2F" transform="translate(454,311)"/>
<path d="M0 0 C1.98 0 3.96 0 6 0 C6 12.54 6 25.08 6 38 C4.02 38 2.04 38 0 38 C0 25.46 0 12.92 0 0 Z " fill="#292929" transform="translate(318,302)"/>
<path d="M0 0 C1.23750708 0.00138269 1.23750708 0.00138269 2.50001431 0.00279331 C3.44377422 0.00141865 4.38753414 0.00004398 5.35989285 -0.00137234 C6.40358028 0.00222294 7.44726772 0.00581821 8.52258205 0.00952244 C9.61512798 0.00937641 10.70767391 0.00923038 11.83332729 0.00907993 C15.46405899 0.00977961 19.09474012 0.01757454 22.72546291 0.02539158 C25.2351011 0.02725557 27.74473964 0.02867956 30.25437832 0.0296793 C36.1971526 0.03311435 42.1399105 0.0410051 48.08267635 0.05102879 C55.50982591 0.0632853 62.93697771 0.06866991 70.36413479 0.0742197 C83.6187014 0.08495972 96.87325287 0.101847 110.12780666 0.12304783 C110.12780666 0.45304783 110.12780666 0.78304783 110.12780666 1.12304783 C108.37705837 1.13850903 108.37705837 1.13850903 106.59094143 1.15428257 C95.52933847 1.25252969 84.46778538 1.35530632 73.40626431 1.46238708 C67.72101489 1.51728095 62.03576012 1.57064264 56.35046291 1.62036228 C50.85204043 1.66850636 45.35367192 1.72085861 39.85531521 1.77598858 C37.76965608 1.79618812 35.68398229 1.81493438 33.59829617 1.83212185 C22.90718026 1.92117353 12.27089035 2.10967152 1.6066885 2.90588474 C-4.71627776 3.3005848 -11.03864447 3.22803293 -17.37219334 3.18554783 C-18.6831699 3.18103611 -19.99414646 3.17652439 -21.34484959 3.17187595 C-24.52068251 3.16028532 -27.69641064 3.14397503 -30.87219334 3.12304783 C-30.87219334 3.78304783 -30.87219334 4.44304783 -30.87219334 5.12304783 C-31.86400608 5.16063206 -31.86400608 5.16063206 -32.87585545 5.19897556 C-35.85401639 5.31457885 -38.83183253 5.43746536 -41.80969334 5.56054783 C-43.37107029 5.61952244 -43.37107029 5.61952244 -44.96399021 5.67968845 C-46.44802341 5.74253025 -46.44802341 5.74253025 -47.96203709 5.80664158 C-48.87847996 5.84329929 -49.79492283 5.87995701 -50.7391367 5.91772556 C-52.85426614 5.89308647 -52.85426614 5.89308647 -53.87219334 7.12304783 C-55.7239404 7.28091091 -57.58128443 7.37412138 -59.43859959 7.43945408 C-61.12566013 7.50229588 -61.12566013 7.50229588 -62.84680271 7.5664072 C-64.62280857 7.62538181 -64.62280857 7.62538181 -66.43469334 7.68554783 C-67.62256443 7.72873142 -68.81043552 7.77191502 -70.03430271 7.8164072 C-72.98014118 7.92288329 -75.92606763 8.02489624 -78.87219334 8.12304783 C-78.87219334 7.79304783 -78.87219334 7.46304783 -78.87219334 7.12304783 C-66.11101013 5.4616715 -53.40694261 3.86379281 -40.53698826 3.41430759 C-36.57499446 3.3547363 -36.57499446 3.3547363 -32.87219334 2.12304783 C-30.63391197 1.98003372 -28.39171373 1.89657389 -26.14953709 1.84179783 C-25.48885731 1.8233884 -24.82817753 1.80497898 -24.14747715 1.7860117 C-21.31686841 1.70724955 -18.48602163 1.63944831 -15.65515232 1.57080173 C-13.59065686 1.51918343 -11.52637275 1.46190265 -9.46203709 1.40429783 C-8.22316746 1.37400486 -6.98429783 1.34371189 -5.7078867 1.31250095 C-2.79628893 1.11797664 -2.60017963 0.17089392 0 0 Z " fill="#3F5565" transform="translate(241.87219333648682,378.8769521713257)"/>
<path d="M0 0 C10 0 10 0 14 3 C13.33035714 10.09821429 13.33035714 10.09821429 10 13 C10.433125 13.55429688 10.86625 14.10859375 11.3125 14.6796875 C12.1478125 15.76636719 12.1478125 15.76636719 13 16.875 C13.556875 17.59429687 14.11375 18.31359375 14.6875 19.0546875 C16 21 16 21 16 23 C15.01 23 14.02 23 13 23 C11.32640919 20.79086013 9.99970177 18.45549182 8.59765625 16.06640625 C7.00201192 13.56193823 7.00201192 13.56193823 3 13 C3 16.3 3 19.6 3 23 C2.01 23 1.02 23 0 23 C0 15.41 0 7.82 0 0 Z " fill="#F4F4F4" transform="translate(254,142)"/>
<path d="M0 0 C2.31 0 4.62 0 7 0 C7.33 0.66 7.66 1.32 8 2 C8.66 1.34 9.32 0.68 10 0 C11.32 0 12.64 0 14 0 C14 1.98 14 3.96 14 6 C12.02 6.66 10.04 7.32 8 8 C7.67 12.95 7.34 17.9 7 23 C4.69 23 2.38 23 0 23 C0 15.41 0 7.82 0 0 Z " fill="#F7F7F7" transform="translate(277,99)"/>
<path d="M0 0 C5.49345245 0.02102976 10.98692603 0.02971142 16.48040771 0.03967285 C27.12303746 0.06067082 37.76557937 0.09446786 48.40814209 0.1373291 C48.40814209 0.4673291 48.40814209 0.7973291 48.40814209 1.1373291 C46.93142029 1.1527903 46.93142029 1.1527903 45.42486572 1.16856384 C36.1266962 1.26651083 26.82859043 1.369264 17.53052521 1.47666836 C12.7508209 1.53172695 7.97111032 1.58511867 3.19134521 1.63464355 C-1.42524751 1.68254004 -6.04177061 1.73489013 -10.65827942 1.79026985 C-12.41561641 1.81057942 -14.17297241 1.82931045 -15.93034363 1.84640312 C-18.40026683 1.87070151 -20.87006155 1.90071842 -23.33990479 1.93200684 C-24.05920166 1.9377623 -24.77849854 1.94351776 -25.51959229 1.94944763 C-28.96813333 1.99879083 -32.32564321 2.18837422 -35.74676514 2.6373291 C-38.99491091 3.05970458 -42.09610787 3.287641 -45.36529541 3.34265137 C-46.95603882 3.3725692 -46.95603882 3.3725692 -48.57891846 3.40309143 C-49.69693848 3.41980392 -50.8149585 3.43651642 -51.96685791 3.45373535 C-53.71446411 3.484907 -53.71446411 3.484907 -55.49737549 3.51670837 C-59.19548002 3.58175532 -62.89365167 3.64087916 -66.59185791 3.6998291 C-69.10879175 3.74305703 -71.62571897 3.78667264 -74.14263916 3.83068848 C-80.29230913 3.93739038 -86.4420449 4.03923763 -92.59185791 4.1373291 C-92.59185791 3.4773291 -92.59185791 2.8173291 -92.59185791 2.1373291 C-61.70799883 0.45021635 -30.92679202 -0.13171698 0 0 Z " fill="#205D8B" transform="translate(303.59185791015625,379.8626708984375)"/>
<path d="M0 0 C1.9375 1.5 1.9375 1.5 3 4 C3.51677508 8.65097575 3.56074315 10.90094343 1.4375 15.0625 C-1 17 -1 17 -4.625 17 C-8 16 -8 16 -10 13 C-10.57308803 8.95861299 -10.50603314 5.22043287 -8.9375 1.4375 C-5.90622489 -0.81151056 -3.64942331 -0.52134619 0 0 Z " fill="#0C66AD" transform="translate(283,411)"/>
<path d="M0 0 C1.85253906 0.21337891 1.85253906 0.21337891 4 1 C5.28027344 2.99365234 5.28027344 2.99365234 6.359375 5.5859375 C6.75253906 6.51664062 7.14570313 7.44734375 7.55078125 8.40625 C7.94652344 9.3859375 8.34226563 10.365625 8.75 11.375 C9.36681641 12.83292969 9.36681641 12.83292969 9.99609375 14.3203125 C13 21.54565511 13 21.54565511 13 25 C10.69 25 8.38 25 6 25 C5.7525 24.195625 5.505 23.39125 5.25 22.5625 C4.27761141 19.828919 4.27761141 19.828919 1.875 19.1875 C0.946875 19.0946875 0.946875 19.0946875 0 19 C0.33 18.01 0.66 17.02 1 16 C1.99 16 2.98 16 4 16 C3.1028125 14.7315625 3.1028125 14.7315625 2.1875 13.4375 C-0.0400402 10.11600768 -1.51681821 6.70795447 -3 3 C-2.34 3 -1.68 3 -1 3 C-0.67 2.01 -0.34 1.02 0 0 Z " fill="#ECF9FC" transform="translate(196,410)"/>
<path d="M0 0 C47.16632017 -0.91683992 47.16632017 -0.91683992 65 8 C65.09688221 13.44693314 65.12862175 18.63904667 64 24 C63.67 24 63.34 24 63 24 C63 19.05 63 14.1 63 9 C61.45828125 8.86722656 59.9165625 8.73445313 58.328125 8.59765625 C56.30206859 8.41943833 54.27602772 8.24104369 52.25 8.0625 C51.23421875 7.97548828 50.2184375 7.88847656 49.171875 7.79882812 C47.70234375 7.66831055 47.70234375 7.66831055 46.203125 7.53515625 C44.85202637 7.41732788 44.85202637 7.41732788 43.47363281 7.29711914 C41.23332371 7.02802556 39.17932191 6.56467342 37 6 C34.75292759 5.7801777 32.50228762 5.59516013 30.25 5.4375 C29.07953125 5.35371094 27.9090625 5.26992188 26.703125 5.18359375 C25.81109375 5.12300781 24.9190625 5.06242187 24 5 C24 4.34 24 3.68 24 3 C23.12263184 2.970271 23.12263184 2.970271 22.22753906 2.93994141 C19.56791975 2.84446519 16.90906162 2.73487858 14.25 2.625 C13.32960938 2.5940625 12.40921875 2.563125 11.4609375 2.53125 C10.12675781 2.47324219 10.12675781 2.47324219 8.765625 2.4140625 C7.94868164 2.3826416 7.13173828 2.3512207 6.29003906 2.31884766 C3.83167042 1.97656307 2.14240001 1.2260723 0 0 Z " fill="#215A88" transform="translate(424,386)"/>
<path d="M0 0 C12.42307692 0 12.42307692 0 16 3 C18.55573817 5.55573817 18.35498461 6.69698427 18.4375 10.25 C18.38116908 14.15219612 18.13945118 16.58392335 15.625 19.625 C9.98768028 24.72543212 9.92801778 23 0 23 C0 15.41 0 7.82 0 0 Z M3 2 C3 8.27 3 14.54 3 21 C9.1683564 21 10.41855919 20.62253459 15 17 C16.55024464 13.89951072 16.28992015 11.42105782 16 8 C14.20437595 5.24670979 12.94745078 3.47372539 10 2 C7.69 2 5.38 2 3 2 Z " fill="#F3F3F3" transform="translate(379,142)"/>
<path d="M0 0 C1.98 0 3.96 0 6 0 C6 8.91 6 17.82 6 27 C4.02 27 2.04 27 0 27 C0 18.09 0 9.18 0 0 Z " fill="#F7FEFE" transform="translate(328,406)"/>
<path d="M0 0 C2.31 0 4.62 0 7 0 C7 7.59 7 15.18 7 23 C4.69 23 2.38 23 0 23 C0 15.41 0 7.82 0 0 Z " fill="#F4F4F4" transform="translate(243,99)"/>
<path d="M0 0 C3.00617269 3.00617269 2.59585316 5.82381598 3 10 C1.68 10.33 0.36 10.66 -1 11 C-0.67 11.66 -0.34 12.32 0 13 C2.52733235 13.65555119 2.52733235 13.65555119 5 14 C5 14.33 5 14.66 5 15 C1.7 15 -1.6 15 -5 15 C-5.66 16.98 -6.32 18.96 -7 21 C-9.31 21 -11.62 21 -14 21 C-12.13236819 15.27789404 -10.14710968 9.62338249 -8 4 C-6.35 4.99 -4.7 5.98 -3 7 C-3 6.34 -3 5.68 -3 5 C-2.34 5 -1.68 5 -1 5 C-0.67 3.35 -0.34 1.7 0 0 Z " fill="#E7F6FB" transform="translate(353,413)"/>
<path d="M0 0 C3 1 3 1 4.16674805 2.82592773 C4.52808838 3.60395752 4.88942871 4.3819873 5.26171875 5.18359375 C5.85629883 6.45106445 5.85629883 6.45106445 6.46289062 7.74414062 C6.86701172 8.63294922 7.27113281 9.52175781 7.6875 10.4375 C8.10322266 11.32244141 8.51894531 12.20738281 8.94726562 13.11914062 C12 19.70081589 12 19.70081589 12 22 C9.69 22 7.38 22 5 22 C4.01 19.03 3.02 16.06 2 13 C0.02 13 -1.96 13 -4 13 C-3.649375 12.484375 -3.29875 11.96875 -2.9375 11.4375 C-1.6384359 8.05993333 -2.32782319 5.49531943 -3 2 C-2.01 1.34 -1.02 0.68 0 0 Z " fill="#2D2D2D" transform="translate(157,322)"/>
<path d="M0 0 C0.33 0.66 0.66 1.32 1 2 C0.0925 2.556875 -0.815 3.11375 -1.75 3.6875 C-6.93225088 7.37487082 -9.42144602 10.86592876 -11 17 C-11.30464921 20.74540803 -11.31114724 24.48144239 -11.31884766 28.23779297 C-11.33391609 29.92159813 -11.33391609 29.92159813 -11.34928894 31.63941956 C-11.38011662 35.34033712 -11.39715522 39.04118235 -11.4140625 42.7421875 C-11.43277445 45.31194684 -11.45234788 47.88170004 -11.4727478 50.45144653 C-11.51882952 56.51797564 -11.55623876 62.58450113 -11.58942068 68.65111268 C-11.62769806 75.56048853 -11.67709342 82.46977106 -11.72740483 89.37906814 C-11.83060707 103.58597498 -11.91990538 117.79294503 -12 132 C-12.33 132 -12.66 132 -13 132 C-13.14042271 116.77030461 -13.2460943 101.54063916 -13.31087303 86.31044102 C-13.34175625 79.23807136 -13.38382924 72.16610492 -13.45263672 65.09399414 C-13.51903314 58.26641469 -13.55372686 51.43925403 -13.56926346 44.61137199 C-13.58033263 42.00907748 -13.60194837 39.40680536 -13.63438034 36.80468941 C-13.67806503 33.15387982 -13.68392859 29.50478951 -13.68115234 25.85375977 C-13.702724 24.7827301 -13.72429565 23.71170044 -13.746521 22.60821533 C-13.68578888 15.2063492 -11.85937722 10.60539427 -7 5 C-4.69191253 2.90173866 -2.76575571 1.38287786 0 0 Z " fill="#4A515A" transform="translate(125,78)"/>
<path d="M0 0 C3.96 0 7.92 0 12 0 C12 0.66 12 1.32 12 2 C9.03 2 6.06 2 3 2 C3 4.64 3 7.28 3 10 C5.64 10 8.28 10 11 10 C11 10.99 11 11.98 11 13 C8.36 13 5.72 13 3 13 C3 15.31 3 17.62 3 20 C5.97 20 8.94 20 12 20 C12 20.99 12 21.98 12 23 C8.04 23 4.08 23 0 23 C0 15.41 0 7.82 0 0 Z " fill="#ECECEC" transform="translate(356,142)"/>
<path d="M0 0 C1.60875 -0.04125 3.2175 -0.0825 4.875 -0.125 C5.77992188 -0.14820313 6.68484375 -0.17140625 7.6171875 -0.1953125 C10 0 10 0 12 2 C12.5647482 8.21223022 12.5647482 8.21223022 10.7734375 10.7109375 C8.47695154 12.38018941 7.12026158 12.30957659 4.3125 12.1875 C2.889375 12.125625 1.46625 12.06375 0 12 C0 8.04 0 4.08 0 0 Z " fill="#EFEFEF" transform="translate(333,249)"/>
<path d="M0 0 C2.54960259 0.05035122 3.89903688 0.13359476 6.1875 1.3125 C7.72487081 4.48973301 6.9716463 6.92388953 6.125 10.25 C3.03611478 12.30925681 2.41564073 12.4890374 -1.0625 12.375 C-2.9496875 12.313125 -2.9496875 12.313125 -4.875 12.25 C-4.90187279 10.43757948 -4.92133715 8.62504767 -4.9375 6.8125 C-4.94910156 5.80316406 -4.96070313 4.79382813 -4.97265625 3.75390625 C-4.81374887 -0.32047892 -4.28786266 0.2766363 0 0 Z " fill="#F6F6F6" transform="translate(446.875,312.75)"/>
<path d="M0 0 C3.96 0 7.92 0 12 0 C12 0.66 12 1.32 12 2 C9.03 2 6.06 2 3 2 C3 4.64 3 7.28 3 10 C5.64 10 8.28 10 11 10 C11 10.99 11 11.98 11 13 C8.36 13 5.72 13 3 13 C3 15.64 3 18.28 3 21 C5.97 21 8.94 21 12 21 C12 21.66 12 22.32 12 23 C8.04 23 4.08 23 0 23 C0 15.41 0 7.82 0 0 Z " fill="#F2F2F2" transform="translate(231,142)"/>
<path d="M0 0 C3.96 0 7.92 0 12 0 C12 0.66 12 1.32 12 2 C9.03 2 6.06 2 3 2 C3 4.64 3 7.28 3 10 C5.64 10 8.28 10 11 10 C11 10.99 11 11.98 11 13 C8.36 13 5.72 13 3 13 C3 16.3 3 19.6 3 23 C2.01 23 1.02 23 0 23 C0 15.41 0 7.82 0 0 Z " fill="#EEEEEE" transform="translate(318,142)"/>
<path d="M0 0 C1.58894072 1.58894072 1.16998411 3.24801424 1.1875 5.4375 C1.20167969 6.24058594 1.21585937 7.04367188 1.23046875 7.87109375 C1 10 1 10 -1 12 C-3.4375 12.375 -3.4375 12.375 -6 12 C-8.5348994 9.72733157 -8.96041822 8.32325124 -9.375 4.9375 C-9 2 -9 2 -7.875 0.0625 C-5.04805609 -1.53943488 -3.05073223 -0.79584319 0 0 Z " fill="#595959" transform="translate(309,105)"/>
<path d="M0 0 C5.56818182 0.56818182 5.56818182 0.56818182 7 2 C7.16796875 3.99609375 7.16796875 3.99609375 7.1875 6.4375 C7.20167969 7.24058594 7.21585937 8.04367188 7.23046875 8.87109375 C7 11 7 11 5 13 C2.5625 13.375 2.5625 13.375 0 13 C-1.875 11.4375 -1.875 11.4375 -3 9 C-2.67272727 2.67272727 -2.67272727 2.67272727 0 0 Z " fill="#585758" transform="translate(349,104)"/>
<path d="M0 0 C1.51400391 0.01740234 1.51400391 0.01740234 3.05859375 0.03515625 C4.07050781 0.04417969 5.08242187 0.05320313 6.125 0.0625 C7.29869141 0.07990234 7.29869141 0.07990234 8.49609375 0.09765625 C8.49609375 1.08765625 8.49609375 2.07765625 8.49609375 3.09765625 C7.59117187 3.04544922 7.59117187 3.04544922 6.66796875 2.9921875 C3.18404962 2.87418379 0.28341525 2.80241069 -3.00390625 4.03515625 C-5.47452865 7.43226204 -5.7717541 10.96411235 -5.50390625 15.09765625 C-4.42435113 18.34294109 -4.42435113 18.34294109 -1.50390625 20.09765625 C1.8712532 20.49908366 5.11513297 20.38800594 8.49609375 20.09765625 C8.16609375 21.08765625 7.83609375 22.07765625 7.49609375 23.09765625 C-1.47915895 23.72505256 -1.47915895 23.72505256 -5.56640625 21.22265625 C-9.12420403 17.32055546 -8.88732347 13.92593504 -8.8671875 8.8046875 C-8.50390625 6.09765625 -8.50390625 6.09765625 -6.06640625 2.97265625 C-5.22078125 2.35390625 -4.37515625 1.73515625 -3.50390625 1.09765625 C-2.50390625 0.09765625 -2.50390625 0.09765625 0 0 Z " fill="#F5F5F5" transform="translate(210.50390625,141.90234375)"/>
<path d="M0 0 C3.12831454 1.56415727 3.41662452 4.17386497 4.625 7.375 C5.07101563 8.53773438 5.51703125 9.70046875 5.9765625 10.8984375 C7 14 7 14 7 17 C3.37 17 -0.26 17 -4 17 C-3.35729017 11.0870696 -1.80996216 5.65755469 0 0 Z " fill="#E6E6E6" transform="translate(228,250)"/>
<path d="M0 0 C2.44786227 2.44786227 3.30080644 4.74317342 4.625 7.9375 C5.07101563 8.99839844 5.51703125 10.05929687 5.9765625 11.15234375 C7 14 7 14 7 17 C3.37 17 -0.26 17 -4 17 C-2.68 11.39 -1.36 5.78 0 0 Z " fill="#F0F0F0" transform="translate(149,314)"/>
<path d="M0 0 C5.28 0 10.56 0 16 0 C16 0.66 16 1.32 16 2 C13.69 2 11.38 2 9 2 C9 8.93 9 15.86 9 23 C8.01 23 7.02 23 6 23 C6 16.07 6 9.14 6 2 C4.02 2 2.04 2 0 2 C0 1.34 0 0.68 0 0 Z " fill="#F3F3F3" transform="translate(277,142)"/>
<path d="M0 0 C1.74216797 0.05414063 1.74216797 0.05414063 3.51953125 0.109375 C4.39996094 0.15578125 5.28039062 0.2021875 6.1875 0.25 C6.1875 2.23 6.1875 4.21 6.1875 6.25 C2.5575 6.25 -1.0725 6.25 -4.8125 6.25 C-4.8125 5.59 -4.8125 4.93 -4.8125 4.25 C-4.1525 4.25 -3.4925 4.25 -2.8125 4.25 C-2.8125 3.59 -2.8125 2.93 -2.8125 2.25 C-5.28050047 3.40173355 -6.86033565 4.29783565 -8.8125 6.25 C-9.05462873 8.23128508 -9.05462873 8.23128508 -8.9375 10.375 C-8.875625 12.293125 -8.875625 12.293125 -8.8125 14.25 C-10.3125 13.1875 -10.3125 13.1875 -11.8125 11.25 C-12.3125 7.8125 -12.3125 7.8125 -11.8125 4.25 C-8.03416891 0.28941176 -5.37152952 -0.2170315 0 0 Z " fill="#E4F9FD" transform="translate(252.8125,405.75)"/>
<path d="M0 0 C6.0546875 -0.1953125 6.0546875 -0.1953125 8 0 C8.66 0.66 9.32 1.32 10 2 C9.34 2 8.68 2 8 2 C8.33 2.99 8.66 3.98 9 5 C8.67 5.66 8.34 6.32 8 7 C8.639375 7.309375 9.27875 7.61875 9.9375 7.9375 C12 9 12 9 13 10 C13.4729064 17.21182266 13.4729064 17.21182266 11.5 20.5 C11.005 20.995 10.51 21.49 10 22 C9.34 21.67 8.68 21.34 8 21 C8.515625 20.484375 9.03125 19.96875 9.5625 19.4375 C11.23541667 16.98125 11.23541667 16.98125 11.375 13.625 C9.42590355 8.486473 6.16455742 7.40512801 1.37109375 5.06640625 C0.58863281 4.71449219 -0.19382813 4.36257813 -1 4 C-0.67 2.68 -0.34 1.36 0 0 Z " fill="#1267AA" transform="translate(222,412)"/>
<path d="M0 0 C0.98226563 0.01546875 1.96453125 0.0309375 2.9765625 0.046875 C5.375 0.25 5.375 0.25 6.375 1.25 C6.375 3.23 6.375 5.21 6.375 7.25 C2.415 7.25 -1.545 7.25 -5.625 7.25 C-5.295 5.6 -4.965 3.95 -4.625 2.25 C-5.945 2.58 -7.265 2.91 -8.625 3.25 C-6.05361665 -0.07355671 -4.08592819 -0.10780813 0 0 Z " fill="#DCF3FB" transform="translate(313.625,404.75)"/>
<path d="M0 0 C7.75 -0.125 7.75 -0.125 10 1 C9.95875 2.11375 9.9175 3.2275 9.875 4.375 C9.58878141 8.04366025 9.58878141 8.04366025 12 10 C12.125 13.125 12.125 13.125 12 16 C11.67 16 11.34 16 11 16 C10.773125 15.071875 10.54625 14.14375 10.3125 13.1875 C8.74707616 9.3857564 7.61994017 8.76787776 4 7 C2.33333333 6 0.66666667 5 -1 4 C-0.67 2.68 -0.34 1.36 0 0 Z " fill="#156BAF" transform="translate(249,411)"/>
<path d="M0 0 C0.99 0 1.98 0 3 0 C3 7.59 3 15.18 3 23 C2.01 23 1.02 23 0 23 C0 15.41 0 7.82 0 0 Z " fill="#EEEEEE" transform="translate(341,142)"/>
<path d="M0 0 C0.99 0 1.98 0 3 0 C3 7.59 3 15.18 3 23 C2.01 23 1.02 23 0 23 C0 15.41 0 7.82 0 0 Z " fill="#EFEFEF" transform="translate(303,142)"/>
<path d="M0 0 C2.875 -0.125 2.875 -0.125 6 0 C8 2 8 2 8.25 4.5 C8 7 8 7 6 9 C2.875 9.125 2.875 9.125 0 9 C0 6.03 0 3.06 0 0 Z " fill="#5E5E5E" transform="translate(257,144)"/>
<path d="M0 0 C9.24 0 18.48 0 28 0 C23 5 23 5 20 6 C20 5.34 20 4.68 20 4 C20.66 4 21.32 4 22 4 C22 3.34 22 2.68 22 2 C11.11 2.495 11.11 2.495 0 3 C0 2.01 0 1.02 0 0 Z " fill="#DFFCFE" transform="translate(350,481)"/>
<path d="M0 0 C0.79075928 0.00523682 1.58151855 0.01047363 2.39624023 0.01586914 C3.67724609 0.02070313 3.67724609 0.02070313 4.98413086 0.02563477 C5.88196289 0.03401367 6.77979492 0.04239258 7.70483398 0.05102539 C8.6065332 0.05553711 9.50823242 0.06004883 10.43725586 0.06469727 C12.67234712 0.07652315 14.90730835 0.09300319 17.14233398 0.11352539 C17.14233398 0.44352539 17.14233398 0.77352539 17.14233398 1.11352539 C12.80112345 1.68646156 8.4594881 2.25602891 4.11743164 2.82250977 C2.64107393 3.01559934 1.16483522 3.20960101 -0.3112793 3.40454102 C-2.43580826 3.68495023 -4.56074673 3.96205199 -6.68579102 4.23852539 C-7.96357422 4.40610352 -9.24135742 4.57368164 -10.55786133 4.74633789 C-13.85766602 5.11352539 -13.85766602 5.11352539 -17.85766602 5.11352539 C-17.85766602 4.45352539 -17.85766602 3.79352539 -17.85766602 3.11352539 C-16.25084961 2.91436523 -16.25084961 2.91436523 -14.61157227 2.71118164 C-13.21440832 2.5330198 -11.81727442 2.3546222 -10.42016602 2.17602539 C-9.71311523 2.08901367 -9.00606445 2.00200195 -8.27758789 1.91235352 C-5.29059048 1.52647347 -2.70907164 0.16555636 0 0 Z " fill="#355771" transform="translate(145.857666015625,386.886474609375)"/>
<path d="M0 0 C1.32 0 2.64 0 4 0 C5 1 6 2 7 3 C9.29115564 4.1404407 11.61678025 5.05570538 14 6 C13.67 6.99 13.34 7.98 13 9 C9.625 9.1875 9.625 9.1875 6 9 C5.34 8.01 4.68 7.02 4 6 C2.68 6 1.36 6 0 6 C0 4.02 0 2.04 0 0 Z " fill="#5D5D5D" transform="translate(317,108)"/>
<path d="M0 0 C1 4 1 4 0 10 C-7.59 10 -15.18 10 -23 10 C-23.33 10.66 -23.66 11.32 -24 12 C-26.46800047 10.84826645 -28.04783565 9.95216435 -30 8 C-20.76 8 -11.52 8 -2 8 C-1.34 5.36 -0.68 2.72 0 0 Z " fill="#D4F6FC" transform="translate(335,473)"/>
<path d="M0 0 C5.28 0.33 10.56 0.66 16 1 C16 2.65 16 4.3 16 6 C12.7 6 9.4 6 6 6 C6 7.98 6 9.96 6 12 C5.67 12 5.34 12 5 12 C5 9.69 5 7.38 5 5 C7.97 5 10.94 5 14 5 C14 4.34 14 3.68 14 3 C9.71 3 5.42 3 1 3 C0.67 3.99 0.34 4.98 0 6 C0 4.02 0 2.04 0 0 Z " fill="#DDF9FD" transform="translate(397,408)"/>
<path d="M0 0 C2 3 2 3 2 5 C11.24 5 20.48 5 30 5 C26.54602565 8.45397435 25.30872286 9.56375905 21 11 C21 10.34 21 9.68 21 9 C22.32 8.67 23.64 8.34 25 8 C25 7.34 25 6.68 25 6 C17.08 6.33 9.16 6.66 1 7 C0.67 4.69 0.34 2.38 0 0 Z " fill="#D7F8FC" transform="translate(265,476)"/>
<path d="M0 0 C4.455 1.98 4.455 1.98 9 4 C9 4.99 9 5.98 9 7 C10.32 7.33 11.64 7.66 13 8 C11.20841511 8.02696365 9.41671527 8.04637917 7.625 8.0625 C6.62726563 8.07410156 5.62953125 8.08570313 4.6015625 8.09765625 C2 8 2 8 0 7 C0 4.69 0 2.38 0 0 Z " fill="#D7EEF9" transform="translate(241,426)"/>
<path d="M0 0 C1.2380014 3.57644848 0.74926071 6.33694766 0 10 C-2.64 10 -5.28 10 -8 10 C-5.53581662 3.34670487 -5.53581662 3.34670487 -2.875 1.625 C-1.946875 1.315625 -1.946875 1.315625 -1 1 C-0.67 0.67 -0.34 0.34 0 0 Z " fill="#3A3A3A" transform="translate(142,337)"/>
<path d="M0 0 C1.75570312 0.04060547 1.75570312 0.04060547 3.546875 0.08203125 C4.43890625 0.11683594 5.3309375 0.15164063 6.25 0.1875 C6.25 2.1675 6.25 4.1475 6.25 6.1875 C3.61 5.8575 0.97 5.5275 -1.75 5.1875 C-1.75 4.8575 -1.75 4.5275 -1.75 4.1875 C0.56 4.1875 2.87 4.1875 5.25 4.1875 C5.25 3.1975 5.25 2.2075 5.25 1.1875 C-1.75686163 1.29062414 -1.75686163 1.29062414 -7.75 4.5625 C-9.14434763 6.39258127 -10.47377928 8.27316893 -11.75 10.1875 C-11.2626183 3.72969243 -11.2626183 3.72969243 -9.125 1.46875 C-5.94929073 -0.24446158 -3.585565 -0.10756695 0 0 Z " fill="#D2EEFA" transform="translate(225.75,406.8125)"/>
<path d="M0 0 C0.99 0.33 1.98 0.66 3 1 C2.67 1.66 2.34 2.32 2 3 C1.34 3 0.68 3 0 3 C0 5.64 0 8.28 0 11 C-1.98 11.99 -1.98 11.99 -4 13 C-5.44430855 10.11138291 -5.37688506 8.20352299 -5 5 C-2.5 2.125 -2.5 2.125 0 0 Z " fill="#FBFEFD" transform="translate(248,407)"/>
<path d="M0 0 C2.00720923 0.28674418 4.0085944 0.61866701 6 1 C6.042721 2.66611905 6.04063832 4.33382885 6 6 C5 7 5 7 2.5625 7.1875 C0 7 0 7 -2 5 C-1.46428571 1.46428571 -1.46428571 1.46428571 0 0 Z " fill="#EEEEEE" transform="translate(244,89)"/>
<path d="M0 0 C0.98484375 0.02707031 1.9696875 0.05414063 2.984375 0.08203125 C3.73203125 0.11683594 4.4796875 0.15164062 5.25 0.1875 C5.25 1.1775 5.25 2.1675 5.25 3.1875 C4.4146875 3.10048828 4.4146875 3.10048828 3.5625 3.01171875 C-2.93647985 2.62748852 -6.6216111 4.27483272 -11.75 8.1875 C-9.65399555 1.72481961 -6.76383093 -0.24156539 0 0 Z " fill="#E6E5E6" transform="translate(213.75,141.8125)"/>
<path d="M0 0 C0.66 0 1.32 0 2 0 C3.60805085 8.02277542 3.60805085 8.02277542 1.25 11.8125 C0.5075 12.534375 -0.235 13.25625 -1 14 C-2.00573778 15.32901064 -3.00795408 16.66073801 -4 18 C-5.32 17.67 -6.64 17.34 -8 17 C-7.21625 16.4225 -6.4325 15.845 -5.625 15.25 C-1.79636233 11.96831056 -0.81223335 9.2053113 -0.375 4.25 C-0.26285156 3.05117188 -0.26285156 3.05117188 -0.1484375 1.828125 C-0.09945313 1.22484375 -0.05046875 0.6215625 0 0 Z " fill="#0763A5" transform="translate(293,415)"/>
<path d="M0 0 C2 1 2 1 2.8515625 3.50390625 C3.10679687 4.51324219 3.36203125 5.52257812 3.625 6.5625 C3.88539063 7.57441406 4.14578125 8.58632813 4.4140625 9.62890625 C4.60742188 10.41136719 4.80078125 11.19382812 5 12 C4.34 12 3.68 12 3 12 C3 11.34 3 10.68 3 10 C1.68 9.67 0.36 9.34 -1 9 C-2.0326802 6.21176345 -2.04509293 5.1322726 -1.0625 2.25 C-0.711875 1.5075 -0.36125 0.765 0 0 Z " fill="#CFEBF8" transform="translate(341,455)"/>
<path d="M0 0 C0.33 0.99 0.66 1.98 1 3 C-6.92 3 -14.84 3 -23 3 C-23.33 3.99 -23.66 4.98 -24 6 C-25.32 4.68 -26.64 3.36 -28 2 C-18.76 2 -9.52 2 0 2 C0 1.34 0 0.68 0 0 Z " fill="#DAFCFF" transform="translate(250,479)"/>
<path d="M0 0 C3.00617269 3.00617269 2.59585316 5.82381598 3 10 C1.02 10 -0.96 10 -3 10 C-2.01 6.7 -1.02 3.4 0 0 Z " fill="#3074A9" transform="translate(353,413)"/>
<path d="M0 0 C2.97903734 2.97903734 4 5.80285329 4 10 C2.02 10 0.04 10 -2 10 C-1.34 6.7 -0.68 3.4 0 0 Z " fill="#2C73A9" transform="translate(194,415)"/>
<path d="M0 0 C2.31 0 4.62 0 7 0 C7 1.65 7 3.3 7 5 C4.36 5 1.72 5 -1 5 C-0.67 3.35 -0.34 1.7 0 0 Z " fill="#333333" transform="translate(375,277)"/>
<path d="M0 0 C-0.33 1.98 -0.66 3.96 -1 6 C-1.99 6 -2.98 6 -4 6 C-4 6.66 -4 7.32 -4 8 C-5.32 8.33 -6.64 8.66 -8 9 C-7.53918323 4.85264908 -4.48412936 0 0 0 Z " fill="#F9FEFC" transform="translate(309,407)"/>
<path d="M0 0 C0.33 0.66 0.66 1.32 1 2 C0.0925 2.556875 -0.815 3.11375 -1.75 3.6875 C-7.26681541 7.61292635 -9.59212443 11.8599173 -12 18 C-12.6640625 16.28125 -12.6640625 16.28125 -13 14 C-10.20956995 8.04148772 -5.92572584 2.96286292 0 0 Z " fill="#3F495A" transform="translate(125,78)"/>
<path d="M0 0 C0 3 0 3 -1.3125 4.625 C-3 6 -3 6 -6 7 C-6.73323796 9.01508358 -6.73323796 9.01508358 -7 11 C-7.99 10.67 -8.98 10.34 -10 10 C-12.14255793 10.38932856 -12.14255793 10.38932856 -14 11 C-9.37951624 7.27380342 -4.69017194 3.63769327 0 0 Z " fill="#196AAB" transform="translate(378,481)"/>
<path d="M0 0 C-0.78375 0.598125 -1.5675 1.19625 -2.375 1.8125 C-5.14574323 3.91085249 -5.14574323 3.91085249 -7 7 C-10.125 7.1875 -10.125 7.1875 -13 7 C-4.84931507 -1.61643836 -4.84931507 -1.61643836 0 0 Z " fill="#1369AB" transform="translate(294,485)"/>
<path d="M0 0 C0.33 0 0.66 0 1 0 C1.04254356 1.99954746 1.04080783 4.00041636 1 6 C0.67 6.33 0.34 6.66 0 7 C-1.52519276 6.91062197 -3.04681929 6.75462854 -4.5625 6.5625 C-5.80193359 6.40974609 -5.80193359 6.40974609 -7.06640625 6.25390625 C-7.70449219 6.17011719 -8.34257812 6.08632813 -9 6 C-9 7.32 -9 8.64 -9 10 C-8.34 10.33 -7.68 10.66 -7 11 C-7.99 11 -8.98 11 -10 11 C-10 9.02 -10 7.04 -10 5 C-7.03 5 -4.06 5 -1 5 C-0.67 3.35 -0.34 1.7 0 0 Z " fill="#307AAE" transform="translate(412,420)"/>
<path d="M0 0 C0 0.33 0 0.66 0 1 C-2.05078125 1.22786458 -4.1015625 1.45572917 -6.15234375 1.68359375 C-8.01140229 1.81886614 -8.01140229 1.81886614 -9 3 C-11.35313555 3.07271741 -13.70833668 3.08370868 -16.0625 3.0625 C-17.35285156 3.05347656 -18.64320313 3.04445313 -19.97265625 3.03515625 C-20.97167969 3.02355469 -21.97070312 3.01195312 -23 3 C-23 2.67 -23 2.34 -23 2 C-15.26940505 0.64290496 -7.85546636 -0.31918373 0 0 Z " fill="#1061A0" transform="translate(163,388)"/>
<path d="M0 0 C0.33 0.99 0.66 1.98 1 3 C-1.22355226 5.5570851 -2.75018193 6.24170912 -6 7 C-6.33 7.66 -6.66 8.32 -7 9 C-8.32 8.67 -9.64 8.34 -11 8 C-7.37 5.36 -3.74 2.72 0 0 Z " fill="#1A6CA9" transform="translate(334,513)"/>
<path d="M0 0 C1.98 0 3.96 0 6 0 C6.33 0.66 6.66 1.32 7 2 C6.01 2.495 6.01 2.495 5 3 C5 3.66 5 4.32 5 5 C3.35 5 1.7 5 0 5 C0 3.35 0 1.7 0 0 Z " fill="#0B62A5" transform="translate(403,414)"/>
<path d="M0 0 C2.00293347 3.00440021 2.49271626 4.70993945 3.125 8.1875 C3.29257812 9.08855469 3.46015625 9.98960937 3.6328125 10.91796875 C3.75398438 11.60503906 3.87515625 12.29210937 4 13 C2.02 11.68 0.04 10.36 -2 9 C-1.01 8.67 -0.02 8.34 1 8 C0.67 5.36 0.34 2.72 0 0 Z " fill="#C5EBF8" transform="translate(360,511)"/>
<path d="M0 0 C0.33 0 0.66 0 1 0 C1 1.65 1 3.3 1 5 C2.32 5 3.64 5 5 5 C5 4.01 5 3.02 5 2 C5.66 2.33 6.32 2.66 7 3 C6.34 4.32 5.68 5.64 5 7 C2.69 7 0.38 7 -2 7 C-1.34 4.69 -0.68 2.38 0 0 Z " fill="#B4DBF1" transform="translate(341,427)"/>
<path d="M0 0 C1.32 0.33 2.64 0.66 4 1 C3.67 1.33 3.34 1.66 3 2 C5.97 2.495 5.97 2.495 9 3 C9 3.66 9 4.32 9 5 C2.25 5.125 2.25 5.125 0 4 C0 2.68 0 1.36 0 0 Z " fill="#0B63A2" transform="translate(403,426)"/>
<path d="M0 0 C0.66 0 1.32 0 2 0 C2 1.98 2 3.96 2 6 C-1.63 6 -5.26 6 -9 6 C-9 5.34 -9 4.68 -9 4 C-7.88625 3.896875 -6.7725 3.79375 -5.625 3.6875 C-4.42875 3.460625 -3.2325 3.23375 -2 3 C-1.34 2.01 -0.68 1.02 0 0 Z " fill="#C4ECFC" transform="translate(257,406)"/>
<path d="M0 0 C0 0.66 0 1.32 0 2 C-4.96993194 4.43425238 -8.34605369 5.34615998 -14 5 C-11.67684302 2.67684302 -10.12738825 2.27503325 -7 1.375 C-6.113125 1.11460938 -5.22625 0.85421875 -4.3125 0.5859375 C-2 0 -2 0 0 0 Z " fill="#414D5C" transform="translate(284,30)"/>
<path d="M0 0 C2.45823172 3.68734758 3.01242616 6.69699971 4 11 C0.125 9.25 0.125 9.25 -1 7 C-0.71758117 4.6599583 -0.38749213 2.32495277 0 0 Z " fill="#C0E5F6" transform="translate(277,513)"/>
<path d="M0 0 C1.32 0.33 2.64 0.66 4 1 C4.33 4.3 4.66 7.6 5 11 C2.77174356 8.77174356 2.30760631 7.34238372 1.375 4.375 C1.11460937 3.55773437 0.85421875 2.74046875 0.5859375 1.8984375 C0.39257812 1.27195312 0.19921875 0.64546875 0 0 Z " fill="#1A6AAA" transform="translate(200,412)"/>
<path d="M0 0 C1.134375 0.020625 2.26875 0.04125 3.4375 0.0625 C1.07457344 2.58838702 -0.22712511 3.95070837 -3.5625 5.0625 C-4.125 3.125 -4.125 3.125 -4.5625 1.0625 C-3.5625 0.0625 -3.5625 0.0625 0 0 Z " fill="#1565A0" transform="translate(252.5625,410.9375)"/>
<path d="M0 0 C0.33 1.32 0.66 2.64 1 4 C1.99 4.33 2.98 4.66 4 5 C2.02 6.32 0.04 7.64 -2 9 C-1.34 6.03 -0.68 3.06 0 0 Z " fill="#CCF1FB" transform="translate(238,515)"/>
<path d="M0 0 C0.66 0.33 1.32 0.66 2 1 C0.44499019 4.81684226 -2.03595495 7.19195732 -5 10 C-5.66 9.67 -6.32 9.34 -7 9 C-6.57847656 8.51789063 -6.15695312 8.03578125 -5.72265625 7.5390625 C-5.17480469 6.90742188 -4.62695312 6.27578125 -4.0625 5.625 C-3.51722656 4.99851562 -2.97195313 4.37203125 -2.41015625 3.7265625 C-0.93041376 2.04367666 -0.93041376 2.04367666 0 0 Z " fill="#012A62" transform="translate(465,461)"/>
<path d="M0 0 C2.97 0 5.94 0 9 0 C9 0.99 9 1.98 9 3 C5.7 2.67 2.4 2.34 -1 2 C-0.67 1.34 -0.34 0.68 0 0 Z " fill="#F3F3F3" transform="translate(210,142)"/>
<path d="M0 0 C0.33 0 0.66 0 1 0 C1.36923077 6.52307692 1.36923077 6.52307692 -0.5 8.9375 C-0.995 9.288125 -1.49 9.63875 -2 10 C-3.39195915 5.82412255 -1.82323219 3.86525224 0 0 Z " fill="#5F5F5F" transform="translate(228,103)"/>
<path d="M0 0 C0 0.66 0 1.32 0 2 C-3.71973879 4.84450614 -6.37390802 5.3227506 -11 5 C-3.5 0 -3.5 0 0 0 Z " fill="#00295F" transform="translate(332,559)"/>
<path d="M0 0 C1 2 1 2 0.375 5 C-1 8 -1 8 -3.625 9.375 C-4.40875 9.58125 -5.1925 9.7875 -6 10 C-5.18957164 8.51969728 -4.37659652 7.04078858 -3.5625 5.5625 C-2.88380859 4.32693359 -2.88380859 4.32693359 -2.19140625 3.06640625 C-1 1 -1 1 0 0 Z " fill="#002D65" transform="translate(472,451)"/>
<path d="M0 0 C0.66 0 1.32 0 2 0 C1.34 1.32 0.68 2.64 0 4 C-0.66 4 -1.32 4 -2 4 C-2 4.99 -2 5.98 -2 7 C-2.66 7 -3.32 7 -4 7 C-4.33 7.99 -4.66 8.98 -5 10 C-4.49890042 5.61537866 -3.01704885 3.1999003 0 0 Z " fill="#D0EEFB" transform="translate(271,407)"/>
<path d="M0 0 C-3.28491373 2.18994248 -4.83095639 2.35277339 -8.6875 2.625 C-10.17830078 2.73714844 -10.17830078 2.73714844 -11.69921875 2.8515625 C-12.83810547 2.92503906 -12.83810547 2.92503906 -14 3 C-9.7368213 0.15788087 -5.03577274 -2.0143091 0 0 Z " fill="#404B5A" transform="translate(266,37)"/>
<path d="M0 0 C-5.75 5 -5.75 5 -8 5 C-8 4.01 -8 3.02 -8 2 C-3.71900826 -1.23966942 -3.71900826 -1.23966942 0 0 Z " fill="#DBF4FB" transform="translate(364,492)"/>
<path d="M0 0 C0.103125 0.639375 0.20625 1.27875 0.3125 1.9375 C0.539375 2.618125 0.76625 3.29875 1 4 C1.99 4.33 2.98 4.66 4 5 C3.67 6.98 3.34 8.96 3 11 C0.81024227 7.71536341 0.00193437 4.79303725 -1 1 C-0.67 0.67 -0.34 0.34 0 0 Z " fill="#1266A5" transform="translate(264,468)"/>
<path d="M0 0 C-0.33 0.66 -0.66 1.32 -1 2 C-3.28515625 2.4140625 -3.28515625 2.4140625 -6.0625 2.625 C-6.98160156 2.69976562 -7.90070313 2.77453125 -8.84765625 2.8515625 C-9.55792969 2.90054687 -10.26820313 2.94953125 -11 3 C-7.65817252 -1.0165182 -4.96805907 -0.24433077 0 0 Z " fill="#1869A5" transform="translate(318,411)"/>
<path d="M0 0 C-2.3129482 2.3129482 -3.47904875 2.49580975 -6.625 3.125 C-7.44226563 3.29257812 -8.25953125 3.46015625 -9.1015625 3.6328125 C-10.04128906 3.81457031 -10.04128906 3.81457031 -11 4 C-11 3.34 -11 2.68 -11 2 C-7.36576791 -0.32590854 -4.22911669 -0.16265833 0 0 Z " fill="#0C2546" transform="translate(272,33)"/>
<path d="M0 0 C0.66 0.33 1.32 0.66 2 1 C-0.64 2.65 -3.28 4.3 -6 6 C-6.66 5.34 -7.32 4.68 -8 4 C-6.71349294 3.30289269 -5.42059335 2.61757124 -4.125 1.9375 C-3.40570313 1.55464844 -2.68640625 1.17179688 -1.9453125 0.77734375 C-1.30335938 0.52082031 -0.66140625 0.26429688 0 0 Z " fill="#002D67" transform="translate(374,537)"/>
<path d="M0 0 C1.65 0 3.3 0 5 0 C2.22719294 3.08089673 -0.06326356 4.68775452 -4 6 C-4 5.34 -4 4.68 -4 4 C-2.68 3.67 -1.36 3.34 0 3 C0 2.01 0 1.02 0 0 Z " fill="#CCF2FD" transform="translate(290,481)"/>
<path d="M0 0 C2.1875 -0.3125 2.1875 -0.3125 5 0 C7.8125 2.5 7.8125 2.5 10 5 C6.08788267 3.84414715 3.1254959 2.64465038 0 0 Z " fill="#09599F" transform="translate(256,553)"/>
<path d="M0 0 C0.66 0.33 1.32 0.66 2 1 C0.02 3.97 0.02 3.97 -2 7 C-3.32 6.67 -4.64 6.34 -6 6 C-5.195625 5.38125 -4.39125 4.7625 -3.5625 4.125 C-0.96125481 2.25835959 -0.96125481 2.25835959 0 0 Z " fill="#196AA6" transform="translate(291,426)"/>
</svg>
