<?xml version="1.0" standalone="no"?>
<!DOCTYPE svg PUBLIC "-//W3C//DTD SVG 20010904//EN"
 "http://www.w3.org/TR/2001/REC-SVG-20010904/DTD/svg10.dtd">
<svg version="1.0" xmlns="http://www.w3.org/2000/svg"
 width="384.000000pt" height="400.000000pt" viewBox="0 0 384.000000 400.000000"
 preserveAspectRatio="xMidYMid meet">

<g transform="translate(0.000000,400.000000) scale(0.100000,-0.100000)"
fill="#000000" stroke="none">
<path d="M1835 3954 c-111 -29 -1129 -341 -1155 -354 -50 -26 -105 -87 -132
-145 -23 -49 -23 -56 -26 -462 l-3 -412 -47 -7 c-26 -3 -107 -17 -179 -29
-142 -25 -186 -43 -228 -99 -51 -67 -51 -76 40 -552 93 -486 96 -493 180 -534
51 -24 92 -28 177 -16 l56 8 7 -58 c31 -280 185 -527 468 -756 231 -186 577
-376 867 -478 l65 -23 95 38 c365 143 720 358 939 570 217 209 329 414 356
649 l7 58 56 -8 c85 -12 126 -8 177 16 84 41 87 48 180 534 91 476 91 485 40
552 -42 56 -86 74 -228 99 -72 12 -153 26 -179 29 l-47 7 -3 412 c-3 406 -3
413 -26 462 -27 58 -82 119 -132 145 -19 9 -285 93 -590 185 -489 148 -565
169 -635 171 -44 2 -89 0 -100 -2z m-242 -546 c7 -21 -4 -38 -23 -38 -23 0
-34 16 -26 35 7 18 43 20 49 3z m877 -2 c0 -7 -9 -16 -20 -19 -24 -6 -28 -47
-5 -47 8 0 15 -7 15 -15 0 -8 -7 -15 -15 -15 -12 0 -15 -13 -15 -60 0 -57 -1
-60 -25 -60 -24 0 -25 3 -25 60 0 47 -3 60 -15 60 -8 0 -15 7 -15 15 0 8 7 15
15 15 9 0 15 9 15 22 0 12 7 30 17 40 19 21 73 25 73 4z m-1110 -77 l24 -72
24 72 24 71 39 0 39 0 0 -105 0 -105 -30 0 -30 0 -1 63 -1 62 -21 -62 c-17
-52 -25 -63 -43 -63 -18 0 -26 11 -42 53 -11 28 -22 59 -25 67 -3 8 -6 -15 -6
-52 -1 -66 -2 -68 -26 -68 l-25 0 0 105 0 105 38 0 37 0 25 -71z m1190 36 c0
-16 6 -25 15 -25 8 0 15 -7 15 -15 0 -8 -7 -15 -15 -15 -11 0 -15 -12 -15 -45
0 -33 4 -45 15 -45 8 0 15 -7 15 -15 0 -18 -50 -21 -68 -3 -7 7 -12 34 -12 60
0 36 -4 48 -15 48 -8 0 -15 7 -15 15 0 8 7 15 15 15 8 0 15 9 15 19 0 19 12
29 38 30 6 1 12 -10 12 -24z m-960 -100 c0 -73 -1 -75 -25 -75 -24 0 -25 2
-25 75 0 73 1 75 25 75 24 0 25 -2 25 -75z m150 55 c0 -16 -5 -19 -22 -15 -28
6 -43 -3 -52 -31 -9 -30 19 -57 50 -50 19 5 24 2 24 -14 0 -17 -7 -20 -39 -20
-54 0 -85 27 -85 75 0 48 31 75 85 75 32 0 39 -3 39 -20z m130 0 c0 -12 -9
-20 -22 -22 -20 -3 -23 -10 -26 -55 -3 -49 -5 -53 -28 -53 -23 0 -24 2 -24 74
l0 75 50 -1 c42 0 50 -3 50 -18z m149 -6 c28 -35 26 -69 -4 -99 -52 -52 -139
-21 -139 50 0 48 31 75 84 75 30 0 43 -6 59 -26z m141 5 c0 -16 -4 -19 -20
-14 -37 12 -45 -7 -9 -24 23 -11 35 -24 37 -40 5 -33 -21 -51 -75 -51 -37 0
-43 3 -43 20 0 18 4 20 35 14 44 -8 48 12 5 27 -64 23 -40 89 32 89 32 0 38
-3 38 -21z m169 -5 c28 -35 26 -69 -4 -99 -52 -52 -139 -21 -139 50 0 48 31
75 84 75 30 0 43 -6 59 -26z m-947 -269 c-2 -5 -12 -9 -23 -7 -31 5 -69 -25
-69 -54 0 -47 17 -64 62 -64 32 0 39 -3 30 -12 -19 -19 -71 -13 -95 10 -51 52
-6 147 67 140 17 -2 30 -7 28 -13z m156 3 c-3 -7 -17 -14 -31 -16 -36 -4 -38
-42 -3 -42 14 0 28 -4 31 -10 4 -6 -7 -10 -24 -10 -26 0 -31 -4 -31 -25 0 -21
5 -25 30 -25 17 0 30 -4 30 -10 0 -5 -20 -10 -45 -10 l-45 0 0 73 c0 41 3 77
7 80 12 13 85 8 81 -5z m153 -7 c23 -19 23 -21 8 -49 -15 -27 -15 -31 2 -53
21 -27 24 -39 9 -39 -6 0 -19 13 -28 30 -23 40 -52 40 -52 0 0 -16 -4 -30 -10
-30 -6 0 -10 33 -10 80 l0 80 29 0 c16 0 39 -9 52 -19z m179 4 c0 -8 -9 -15
-20 -15 -18 0 -20 -7 -20 -65 0 -51 -3 -65 -15 -65 -12 0 -15 14 -15 64 0 55
-3 64 -20 69 -41 11 -20 27 35 27 42 0 55 -3 55 -15z m90 -65 c0 -64 -3 -80
-15 -80 -12 0 -15 15 -15 73 0 41 3 77 7 80 17 18 23 0 23 -73z m158 68 c-3
-7 -17 -14 -31 -16 -19 -2 -27 -9 -27 -23 0 -15 7 -19 31 -19 38 0 35 -24 -4
-28 -22 -3 -27 -8 -27 -33 0 -16 -4 -29 -10 -29 -6 0 -10 33 -10 80 l0 80 41
0 c28 0 39 -4 37 -12z m92 -68 c0 -47 -4 -80 -10 -80 -6 0 -10 33 -10 80 0 47
4 80 10 80 6 0 10 -33 10 -80z m165 65 c0 -5 -12 -11 -27 -13 -38 -4 -40 -42
-3 -42 14 0 25 -4 25 -10 0 -5 -11 -10 -25 -10 -20 0 -25 -5 -25 -25 0 -21 5
-25 30 -25 17 0 30 -4 30 -10 0 -5 -20 -10 -45 -10 l-45 0 0 81 0 80 43 -3
c23 -2 42 -7 42 -13z m165 0 c33 -17 46 -58 31 -98 -12 -32 -39 -47 -85 -47
l-36 0 0 80 0 80 30 0 c17 0 44 -7 60 -15z m-149 -455 c364 -18 780 -61 1112
-115 120 -19 154 -28 181 -49 67 -50 67 -39 -23 -512 -45 -234 -88 -436 -97
-449 -8 -13 -31 -31 -51 -40 -33 -16 -43 -16 -201 9 -503 77 -885 106 -1392
106 -507 0 -889 -29 -1392 -106 -158 -25 -168 -25 -201 -9 -20 9 -43 27 -51
40 -9 13 -52 215 -97 449 -90 473 -90 462 -23 512 25 20 60 30 151 45 306 51
779 101 1113 118 231 12 740 12 971 1z m-743 -1317 c3 -20 0 -21 -31 -16 -51
8 -55 -13 -8 -37 80 -40 61 -110 -31 -110 -44 0 -48 2 -48 25 0 22 2 24 26 15
16 -6 32 -7 42 -1 14 8 10 13 -21 31 -47 28 -62 53 -47 80 15 28 40 40 80 37
27 -1 36 -7 38 -24z m197 2 c19 -18 25 -35 25 -70 0 -60 -32 -95 -87 -95 -42
1 -63 13 -81 47 -20 36 -14 79 14 112 34 41 92 44 129 6z m213 -2 c3 -20 0
-21 -31 -16 -41 6 -67 -16 -67 -57 0 -36 30 -55 72 -46 26 5 29 3 26 -17 -3
-19 -10 -22 -50 -25 -40 -3 -52 1 -73 22 -37 37 -35 98 5 137 25 26 36 30 72
27 36 -2 44 -7 46 -25z m92 -68 c0 -95 0 -95 -25 -95 -24 0 -25 2 -25 64 0 91
9 126 31 126 17 0 19 -9 19 -95z m-680 62 c0 -21 -4 -23 -36 -19 -44 5 -42 -8
6 -40 69 -46 39 -113 -47 -106 -30 2 -39 7 -41 25 -3 19 0 21 37 16 53 -7 54
10 1 37 -35 18 -40 25 -40 55 0 41 19 54 78 55 37 0 42 -3 42 -23z m865 -60
c14 -46 25 -88 25 -95 0 -23 -40 -13 -50 13 -12 32 -65 36 -73 5 -3 -14 -14
-20 -31 -20 -14 0 -26 1 -26 3 0 2 12 32 26 68 15 35 30 74 35 87 6 16 17 22
38 22 29 0 31 -3 56 -83z m163 77 c32 -9 30 -43 -3 -36 -24 4 -25 2 -25 -41 0
-73 -10 -107 -31 -107 -17 0 -19 8 -19 75 0 73 -1 75 -25 75 -18 0 -25 5 -25
20 0 17 7 20 53 20 28 0 62 -3 75 -6z m-1216 -94 l37 -90 -30 0 c-19 0 -29 5
-29 15 0 25 -66 20 -73 -5 -3 -13 -14 -20 -31 -20 l-25 0 15 48 c8 26 19 65
25 87 15 53 16 55 47 55 25 0 30 -8 64 -90z m1391 84 c13 -14 -7 -34 -34 -34
-22 0 -29 -5 -29 -20 0 -16 7 -20 31 -20 24 0 30 -4 27 -17 -2 -12 -13 -18
-33 -18 -20 0 -31 -6 -33 -17 -3 -15 4 -18 32 -18 30 0 36 -4 36 -20 0 -19 -5
-21 -55 -18 -30 2 -55 6 -55 11 0 4 0 45 0 92 l0 85 53 0 c30 0 56 -3 60 -6z
m-879 -486 l89 -3 -63 -45 c-35 -25 -68 -48 -73 -51 -5 -4 2 -41 18 -88 15
-45 25 -85 22 -87 -3 -3 -37 18 -75 46 l-71 52 -75 -56 c-42 -31 -76 -52 -76
-48 0 5 11 42 25 83 14 41 24 79 23 86 -2 6 -34 34 -73 62 l-70 51 92 0 91 0
28 83 c14 45 29 86 32 92 3 5 19 -32 36 -82 l30 -92 90 -3z m441 85 l27 -83
91 0 92 0 -70 -51 c-39 -28 -71 -56 -73 -62 -1 -7 9 -45 23 -86 14 -41 25 -78
25 -83 0 -4 -34 17 -76 48 l-75 56 -71 -52 c-38 -28 -72 -49 -75 -46 -3 2 7
42 22 87 16 47 23 84 18 88 -5 3 -38 26 -73 51 l-63 45 90 3 89 3 29 89 c16
50 32 87 36 83 3 -5 19 -45 34 -90z"/>
<path d="M1929 3289 c-13 -25 2 -69 24 -69 19 0 37 21 37 45 0 43 -41 60 -61
24z"/>
<path d="M2239 3289 c-13 -25 2 -69 24 -69 19 0 37 21 37 45 0 43 -41 60 -61
24z"/>
<path d="M1630 3010 c0 -15 7 -20 25 -20 18 0 25 5 25 20 0 15 -7 20 -25 20
-18 0 -25 -5 -25 -20z"/>
<path d="M2470 2975 c0 -52 2 -55 24 -55 32 0 56 25 56 59 0 35 -17 51 -52 51
-27 0 -28 -1 -28 -55z"/>
<path d="M1428 2368 c-13 -11 -88 -215 -88 -241 0 -4 8 -7 19 -7 12 0 21 11
27 33 9 30 13 32 60 35 49 3 52 1 64 -28 12 -30 51 -44 49 -17 -1 22 -94 230
-104 234 -6 2 -18 -2 -27 -9z m51 -135 c1 -8 -12 -13 -34 -13 -40 0 -40 0 -18
65 l16 48 18 -44 c10 -24 18 -50 18 -56z"/>
<path d="M1600 2365 c0 -10 16 -15 65 -17 l66 -3 -65 -95 c-36 -52 -66 -101
-66 -107 0 -10 26 -13 95 -13 88 0 95 2 95 20 0 17 -8 19 -65 22 l-65 3 65 97
c36 54 65 100 65 103 0 3 -43 5 -95 5 -76 0 -95 -3 -95 -15z"/>
<path d="M1840 2280 c0 -94 2 -103 25 -125 34 -35 106 -35 140 0 23 22 25 31
25 125 0 93 -1 100 -20 100 -19 0 -20 -7 -20 -93 0 -78 -3 -97 -18 -110 -25
-22 -48 -21 -72 3 -17 17 -20 33 -20 110 0 83 -1 90 -20 90 -19 0 -20 -7 -20
-100z"/>
<path d="M2107 2298 c-12 -145 -10 -168 13 -168 17 0 20 7 20 50 0 43 3 50 20
50 17 0 72 -61 82 -92 2 -5 14 -8 26 -6 22 3 22 4 -12 56 l-35 52 25 25 c54
54 12 115 -81 115 l-52 0 -6 -82z m107 36 c22 -21 20 -40 -6 -58 -25 -18 -54
-21 -63 -6 -3 5 -3 25 1 45 5 28 11 35 29 35 13 0 31 -7 39 -16z"/>
<path d="M2340 2308 c0 -40 -3 -97 -6 -125 l-7 -53 72 0 c56 0 71 3 71 15 0
11 -12 15 -45 15 -50 0 -62 13 -51 55 5 21 12 25 46 25 29 0 40 4 40 15 0 11
-11 15 -40 15 -40 0 -40 0 -40 38 l0 37 45 -3 c40 -4 45 -2 45 17 0 19 -6 21
-65 21 l-65 0 0 -72z"/>
<path d="M1890 1979 c-19 -4 -40 -15 -47 -25 -30 -41 -7 -82 65 -118 18 -10
36 -24 39 -32 14 -36 -52 -58 -98 -33 -18 9 -20 8 -17 -13 3 -21 9 -23 60 -26
47 -2 61 1 78 18 40 40 14 99 -60 130 -62 26 -43 74 27 68 35 -2 43 0 43 13 0
20 -40 28 -90 18z"/>
<path d="M1620 1883 l0 -98 -61 93 c-49 73 -67 92 -85 92 -24 0 -24 0 -24
-125 0 -118 1 -125 20 -125 19 0 20 7 20 97 l0 97 63 -92 c47 -69 67 -91 85
-92 22 0 23 1 20 122 -3 108 -5 123 -20 126 -16 3 -18 -7 -18 -95z"/>
<path d="M1730 1855 c0 -118 1 -125 20 -125 19 0 20 7 20 125 0 118 -1 125
-20 125 -19 0 -20 -7 -20 -125z"/>
<path d="M2020 1965 c0 -10 11 -15 35 -15 l35 0 0 -110 c0 -103 1 -110 20
-110 18 0 20 8 22 108 l3 107 33 3 c20 2 32 9 32 18 0 11 -18 14 -90 14 -73 0
-90 -3 -90 -15z"/>
<path d="M2260 1924 c0 -33 -3 -89 -7 -126 -6 -65 -5 -68 16 -68 19 0 21 6 21
51 0 47 2 50 23 47 13 -2 34 -21 52 -49 17 -27 40 -49 53 -52 29 -6 28 -1 -14
63 -21 32 -31 56 -25 58 23 8 41 34 41 61 0 42 -32 64 -100 69 l-60 4 0 -58z
m112 3 c19 -30 -7 -67 -48 -67 -22 0 -24 4 -24 46 l0 47 32 -7 c18 -3 36 -12
40 -19z"/>
<path d="M1168 1869 l-34 -102 -47 97 c-43 89 -49 97 -69 90 -13 -3 -25 -8
-27 -10 -2 -1 0 -57 4 -124 6 -104 10 -121 24 -118 14 3 16 17 14 98 l-3 95
46 -92 c25 -51 51 -93 59 -93 8 0 27 40 48 103 l34 102 8 -97 c7 -89 9 -98 28
-98 19 0 19 4 14 68 -4 37 -7 93 -7 125 0 56 0 57 -29 57 -28 0 -31 -4 -63
-101z"/>
<path d="M1334 1909 c3 -34 6 -91 6 -125 0 -57 2 -64 20 -64 18 0 20 7 20 79
0 124 -9 171 -33 171 -18 0 -19 -4 -13 -61z"/>
<path d="M2511 1854 c-28 -64 -51 -120 -51 -125 0 -23 39 -6 50 21 12 29 15
31 64 28 47 -3 51 -5 60 -35 7 -25 15 -33 31 -33 23 0 23 1 -17 123 -22 67
-41 123 -41 123 -1 1 -12 4 -23 8 -19 6 -27 -5 -73 -110z m88 12 c6 -25 11
-47 11 -50 0 -3 -16 -6 -35 -6 -19 0 -35 3 -35 7 0 16 33 93 40 93 4 0 13 -20
19 -44z"/>
<path d="M2690 1948 c0 -10 13 -18 36 -23 l36 -6 -3 -107 c-4 -93 -2 -107 13
-110 14 -3 17 11 23 95 3 54 8 104 10 111 3 6 20 12 40 12 24 0 35 4 35 15 0
10 -10 15 -27 15 -16 0 -58 3 -95 7 -57 5 -68 3 -68 -9z"/>
<path d="M2942 1924 c-53 -37 -70 -141 -31 -195 27 -38 83 -54 135 -37 93 31
108 190 22 234 -36 19 -98 18 -126 -2z m114 -37 c21 -19 26 -31 26 -67 -1 -58
-28 -94 -74 -98 -75 -6 -107 100 -49 159 35 35 61 37 97 6z"/>
<path d="M726 1923 c-16 -4 -17 -12 -12 -56 3 -29 8 -84 12 -123 l6 -70 57 7
c32 3 67 12 80 18 30 17 61 70 61 106 0 41 -30 97 -60 112 -24 12 -106 16
-144 6z m135 -49 c26 -23 34 -76 17 -111 -13 -28 -89 -65 -104 -51 -3 4 -10
44 -15 90 -6 61 -5 85 4 91 18 12 77 0 98 -19z"/>
<path d="M539 1903 c-18 -5 -82 -263 -65 -263 20 0 33 14 43 45 8 26 15 31 57
36 44 5 48 3 62 -23 8 -16 23 -28 34 -28 11 0 20 3 20 6 0 13 -122 234 -128
233 -4 -1 -14 -3 -23 -6z m56 -143 c-3 -6 -20 -10 -37 -10 -29 0 -30 1 -24 38
14 78 17 80 43 29 13 -26 21 -52 18 -57z"/>
<path d="M3180 1808 c-6 -57 -14 -110 -16 -119 -4 -16 23 -35 34 -25 2 3 7 26
10 51 4 40 8 46 26 43 14 -2 29 -20 46 -55 21 -44 54 -73 68 -59 2 2 -9 28
-25 58 -15 29 -29 56 -31 60 -2 3 6 9 16 12 29 9 48 61 34 91 -12 25 -63 45
-118 45 l-32 0 -12 -102z m117 45 c19 -24 -6 -57 -46 -61 -27 -3 -31 0 -31 20
0 13 3 33 6 46 6 19 11 22 33 17 14 -3 32 -13 38 -22z"/>
<path d="M1748 1235 c-8 -18 -9 -35 -2 -53 18 -51 77 -34 77 23 0 54 -54 75
-75 30z"/>
<path d="M2267 1219 c-10 -35 -9 -39 8 -39 16 0 18 14 6 44 -7 18 -8 18 -14
-5z"/>
<path d="M1208 1195 c-4 -19 -1 -25 12 -25 13 0 17 6 13 20 -8 31 -20 33 -25
5z"/>
</g>
</svg>
