<?xml version="1.0" encoding="UTF-8"?>
<svg version="1.1" xmlns="http://www.w3.org/2000/svg" width="384" height="400">
<path d="M0 0 C4.0865171 1.29576487 8.18241507 2.56112745 12.27782059 3.82846069 C17.1223631 5.32939867 21.96607645 6.83272546 26.80527115 8.35083008 C35.39395132 11.04430514 43.99328945 13.67669136 52.64671707 16.15658569 C53.52610443 16.40975052 54.40549179 16.66291534 55.31152725 16.92375183 C58.40297456 17.81169618 61.49455073 18.69813797 64.59370804 19.55883789 C76.72758254 22.93509738 87.5051189 27.08491735 94.10039139 38.3538208 C98.12756236 46.95259408 97.5954081 55.86404141 97.59984207 65.15267944 C97.61484396 66.95444205 97.63157529 68.75619101 97.64995193 70.55792236 C97.6934124 75.26946692 97.71357699 79.98082603 97.72868729 84.6925354 C97.74833564 89.51269398 97.79029669 94.33265452 97.83031082 99.15267944 C97.90538181 108.58751387 97.95581277 118.02230348 97.99046707 127.45736694 C99.36597733 127.64528809 99.36597733 127.64528809 100.76927567 127.83700562 C104.21945602 128.31698339 107.6666266 128.81277992 111.11302567 129.31893921 C112.59586113 129.53350515 114.07958951 129.74200219 115.56419754 129.94393921 C136.11279402 132.74979948 136.11279402 132.74979948 142.99046707 140.45736694 C150.31454471 151.44348339 146.20032784 164.19727258 143.88499832 176.36361694 C143.56031178 178.09650019 143.23599276 179.82945234 142.91202164 181.56246948 C142.23311857 185.18116282 141.54708737 188.79841826 140.85643387 192.41488647 C139.97707635 197.02465143 139.11980307 201.63821438 138.26839542 206.25321198 C137.60534471 209.82936699 136.92839716 213.40278945 136.24758339 216.9756012 C135.92594048 218.67457937 135.60899251 220.374454 135.2970562 222.07524109 C131.46926433 242.86372873 131.46926433 242.86372873 124.55296707 249.95736694 C116.99392608 254.38217143 108.7084335 254.54753621 100.30296707 252.45736694 C99.20984207 252.12736694 98.11671707 251.79736694 96.99046707 251.45736694 C97.03687332 251.99361694 97.08327957 252.52986694 97.13109207 253.08236694 C98.1938948 276.16036894 84.90007561 297.92327867 69.99046707 314.45736694 C51.46770536 334.58360864 29.05411784 349.68504074 4.99046707 362.45736694 C4.17481277 362.89049194 3.35915848 363.32361694 2.51878738 363.76986694 C-7.8827229 369.24066503 -18.43668398 374.27034176 -29.32203293 378.70736694 C-30.25797287 379.1024646 -31.19391281 379.49756226 -32.15821457 379.90463257 C-41.77712192 383.69025525 -48.72011744 382.03156757 -58.00953293 378.14486694 C-58.85983078 377.79512817 -59.71012863 377.4453894 -60.58619308 377.08505249 C-105.15325646 358.42785971 -156.93031531 330.08449016 -176.95093918 283.25424194 C-180.29369909 274.42244823 -183.20071241 265.60464848 -183.07203293 256.08236694 C-183.06300949 255.20838257 -183.05398605 254.33439819 -183.04468918 253.43392944 C-183.03308762 252.78166382 -183.02148605 252.12939819 -183.00953293 251.45736694 C-184.10265793 251.78736694 -185.19578293 252.11736694 -186.32203293 252.45736694 C-194.20810047 254.40091905 -201.88575376 254.58915886 -209.00953293 250.45736694 C-215.69205892 245.0181016 -218.34569509 237.70032498 -219.84058762 229.4559021 C-219.98747528 228.70026474 -220.13436295 227.94462738 -220.28570175 227.16609192 C-220.76278189 224.69496775 -221.2225741 222.221001 -221.68140793 219.74642944 C-222.01121309 218.01047144 -222.34181351 216.27466436 -222.67316818 214.53900146 C-223.36306241 210.91096573 -224.04461096 207.28149286 -224.71998215 203.65072632 C-225.58197809 199.01936576 -226.46270222 194.39181209 -227.34951019 189.76514626 C-228.03414599 186.18373312 -228.70972351 182.60065716 -229.38255692 179.01700974 C-229.70375834 177.31106272 -230.02747628 175.60558737 -230.35385513 173.90062332 C-234.87206265 150.21439236 -234.87206265 150.21439236 -230.27125168 142.20736694 C-225.82847632 136.04525127 -219.47521968 133.19983598 -212.27735519 131.6578064 C-210.97338791 131.46404419 -209.66942062 131.27028198 -208.32593918 131.07064819 C-207.62557037 130.96391281 -206.92520157 130.85717743 -206.20360947 130.74720764 C-203.99430593 130.4125657 -201.78333513 130.09100641 -199.57203293 129.76986694 C-198.0621371 129.54352029 -196.55236978 129.31631459 -195.04273605 129.08822632 C-191.36643331 128.53467724 -187.68851829 127.99283298 -184.00953293 127.45736694 C-184.0058873 126.46479889 -184.00224167 125.47223083 -183.99848557 124.44958496 C-183.9614322 115.06360673 -183.90354718 105.67795345 -183.82563019 96.29222298 C-183.78623838 91.46770049 -183.75400937 86.64335826 -183.73853683 81.81869507 C-183.7233154 77.1565182 -183.68877324 72.49483718 -183.64122391 67.83288193 C-183.62646646 66.06047772 -183.61849517 64.2880027 -183.61764908 62.51553726 C-183.60557468 49.89639001 -182.813812 40.30489264 -174.27906418 30.34408569 C-166.68779396 24.0332707 -157.53125969 21.50695731 -148.22437668 18.79721069 C-146.77572176 18.36667222 -145.32735856 17.9351511 -143.87926865 17.50271606 C-140.03180294 16.35665242 -136.18066334 15.22349017 -132.32834244 14.09386826 C-127.54508762 12.68980827 -122.76513291 11.27455748 -117.9846344 9.86114788 C-117.19778133 9.6285064 -116.41092827 9.39586493 -115.60023117 9.15617371 C-114.81648621 8.92441751 -114.03274124 8.69266132 -113.22524643 8.45388222 C-110.86303682 7.75596962 -108.50033466 7.05974344 -106.13758469 6.36366272 C-97.45931258 3.8030283 -88.81114797 1.16859333 -80.19312668 -1.58950806 C-78.38800654 -2.16017278 -76.58275605 -2.73042542 -74.77735519 -3.30020142 C-72.38493702 -4.05548578 -69.99687844 -4.81755045 -67.61765671 -5.61346436 C-43.43820727 -13.6956344 -23.45372662 -7.47211916 0 0 Z " fill="#515151" transform="translate(235.0095329284668,13.542633056640625)"/>
<path d="M0 0 C1.51600986 0.24367294 3.03266937 0.48333578 4.54992676 0.71911621 C6.73403596 1.06248948 8.91368878 1.42645157 11.09332275 1.79705811 C12.33444824 2.00258301 13.57557373 2.20810791 14.85430908 2.41986084 C19.55018188 3.72043758 22.92366413 5.89638917 26.1987915 9.48846436 C28.71301885 16.29166776 25.88061051 25.00748311 24.48394775 31.95721436 C24.31253769 32.82938599 24.14112762 33.70155762 23.96452332 34.60015869 C23.42195788 37.35547325 22.8729937 40.10946588 22.3237915 42.86346436 C21.95943537 44.70843279 21.59549987 46.55348434 21.23199463 48.39862061 C20.55950561 51.80733709 19.88500826 55.21563712 19.20684814 58.62322998 C19.05306198 59.39618912 18.89927582 60.16914825 18.74082947 60.9655304 C18.40412725 62.64921289 18.06488402 64.33238826 17.72377014 66.0151825 C17.45883003 67.32538109 17.45883003 67.32538109 17.1885376 68.66204834 C17.02880463 69.4477269 16.86907166 70.23340546 16.70449829 71.04289246 C15.80177181 75.76944846 15.1544073 80.54122677 14.49371338 85.30682373 C12.29869448 100.04134283 12.29869448 100.04134283 7.1987915 104.36346436 C-0.33154312 109.49050069 -9.49114366 106.6625815 -18.0512085 105.05096436 C-38.35752135 101.27810343 -58.97609036 99.285648 -79.5512085 97.67596436 C-80.71008072 97.5849646 -80.71008072 97.5849646 -81.8923645 97.49212646 C-99.64344999 96.11538703 -117.35422621 95.20229137 -135.1605835 95.16033936 C-135.99915138 95.15751198 -136.83771927 95.1546846 -137.7016983 95.15177155 C-142.15576975 95.13693015 -146.60981018 95.12761099 -151.06390381 95.12322998 C-154.64473906 95.11888821 -158.22532752 95.10514259 -161.80609131 95.08221436 C-187.2649409 94.92278932 -212.39320628 95.93974696 -237.7387085 98.36346436 C-239.50749359 98.53123383 -239.50749359 98.53123383 -241.31201172 98.70239258 C-247.77590902 99.32895922 -254.22700934 100.03908854 -260.6762085 100.80096436 C-261.58388977 100.90540863 -262.49157104 101.00985291 -263.42675781 101.11746216 C-276.17742829 102.58549163 -288.82570956 104.32548759 -301.449646 106.66424561 C-306.50491361 107.55228162 -310.29634258 108.15535152 -314.9262085 105.61346436 C-322.26959337 99.73875646 -322.94677568 91.88863661 -324.2387085 83.05096436 C-324.94975145 78.25728465 -325.68823838 73.48327592 -326.65008545 68.73260498 C-326.82645538 67.85940109 -327.00282532 66.9861972 -327.18453979 66.08653259 C-327.90974538 62.52302514 -328.6356794 58.95966876 -329.36314392 55.3966217 C-330.18016104 51.37946726 -330.98541539 47.35998494 -331.78973389 43.340271 C-332.2152983 41.22452863 -332.64501154 39.10961669 -333.07879639 36.99554443 C-333.70936836 33.91843898 -334.32504811 30.8386673 -334.93792725 27.75799561 C-335.13367844 26.8193013 -335.32942963 25.88060699 -335.53111267 24.91346741 C-336.74656417 18.70254089 -337.51688766 13.2612378 -334.0512085 7.61346436 C-328.95586798 2.65583574 -323.21014833 1.6762435 -316.44573975 0.71502686 C-315.06932312 0.50850243 -315.06932312 0.50850243 -313.6651001 0.29780579 C-310.6289077 -0.15196005 -307.59053062 -0.58345753 -304.5512085 -1.01153564 C-303.49694672 -1.16238617 -302.44268494 -1.31323669 -301.35647583 -1.46865845 C-203.781123 -15.36095651 -104.48519778 -15.73076692 0 0 Z " fill="#FCFCFC" transform="translate(346.73870849609375,151.63653564453125)"/>
<path d="M0 0 C1.55847701 -0.00698549 3.11695377 -0.01402638 4.6754303 -0.02111816 C9.62997803 -0.04038337 14.58448139 -0.0452952 19.5390625 -0.046875 C20.38450245 -0.04746414 21.2299424 -0.04805328 22.10100174 -0.04866028 C48.39949329 -0.06158477 74.53061249 0.37781452 100.7232666 2.96234131 C103.29252601 3.21579788 105.86249746 3.46099752 108.43261719 3.70556641 C113.61629941 4.20326652 118.79720248 4.72483973 123.9765625 5.265625 C124.76054413 5.34744019 125.54452576 5.42925537 126.3522644 5.5135498 C128.54704338 5.74691174 130.74042214 5.99031055 132.93359375 6.23828125 C134.16698486 6.3762915 135.40037598 6.51430176 136.67114258 6.65649414 C140.32184308 7.22781716 143.63822763 8.11614555 147.1640625 9.203125 C147.76979782 32.01915537 135.40589333 51.6808817 120.36303711 67.86206055 C96.79575614 92.6805587 65.15962481 109.69515556 34.0390625 123.078125 C33.05010986 123.51334473 32.06115723 123.94856445 31.04223633 124.39697266 C23.55068139 127.51019471 19.00757832 127.39287689 11.44921875 124.41796875 C9.70386056 123.66919523 7.96313369 122.90955769 6.2265625 122.140625 C5.29996826 121.73577881 4.37337402 121.33093262 3.41870117 120.91381836 C-24.67440314 108.51973054 -51.41944782 93.41175311 -73.8359375 72.203125 C-74.74214844 71.36136719 -75.64835937 70.51960938 -76.58203125 69.65234375 C-91.02168967 55.8135033 -104.20981692 36.2016585 -104.93017578 15.49414062 C-104.93317162 13.06152098 -104.90568429 10.63465296 -104.8359375 8.203125 C-87.57644107 5.84036817 -70.33106416 3.85833923 -52.9609375 2.515625 C-52.18562683 2.45523041 -51.41031616 2.39483582 -50.61151123 2.33261108 C-33.7449398 1.03117396 -16.9197892 0.04758389 0 0 Z " fill="#0164B5" transform="translate(170.8359375,253.796875)"/>
<path d="M0 0 C4.0865171 1.29576487 8.18241507 2.56112745 12.27782059 3.82846069 C17.1223631 5.32939867 21.96607645 6.83272546 26.80527115 8.35083008 C35.39395132 11.04430514 43.99328945 13.67669136 52.64671707 16.15658569 C53.52610443 16.40975052 54.40549179 16.66291534 55.31152725 16.92375183 C58.40297456 17.81169618 61.49455073 18.69813797 64.59370804 19.55883789 C76.75141304 22.94172823 87.47333201 27.0954718 94.10808182 38.3538208 C98.16358711 46.96241487 97.49491472 55.85822527 97.38109207 65.15267944 C97.37361943 66.95442066 97.36793134 68.75617007 97.36394119 70.55792236 C97.34876534 75.26969363 97.30955426 79.98096129 97.26512527 84.6925354 C97.22399761 89.51251414 97.20589303 94.33257531 97.18577957 99.15267944 C97.14305111 108.58779494 97.07489892 118.02253884 96.99046707 127.45736694 C91.83875085 127.54774793 87.07133503 127.30417827 81.99046707 126.45736694 C81.98904205 125.46844452 81.98761703 124.47952209 81.98614883 123.46063232 C81.96946549 114.13224137 81.92665116 104.8042859 81.8583765 95.47612572 C81.82411346 90.68058415 81.79899759 85.88536092 81.79491043 81.08969116 C81.790626 76.45987703 81.76215151 71.83078093 81.71703529 67.20119095 C81.70406487 65.43664358 81.69975101 63.67201026 81.70431328 61.90742111 C81.70922274 59.4315859 81.68311477 56.95784653 81.6498909 54.48226929 C81.65851654 53.75578186 81.66714218 53.02929443 81.67602921 52.28079224 C81.54880874 46.61043007 79.8586828 44.30622095 75.99046707 40.45736694 C73.99108175 39.17051794 73.99108175 39.17051794 71.86546707 38.55111694 C71.08767899 38.28557007 70.3098909 38.02002319 69.50853348 37.74642944 C68.26209061 37.35584351 68.26209061 37.35584351 66.99046707 36.95736694 C65.67248123 36.52037476 65.67248123 36.52037476 64.32786942 36.07455444 C57.2712921 33.77036593 50.14116935 31.71675136 42.99046707 29.72689819 C36.60720952 27.94749454 30.29512898 25.99679962 23.99046707 23.95736694 C16.16775518 21.43187591 8.31832617 19.07671362 0.39696121 16.88070679 C-4.89472113 15.39748066 -10.12869736 13.78802464 -15.35328293 12.08236694 C-16.64348656 11.66529128 -17.93377008 11.24846268 -19.22413254 10.83187866 C-21.72682874 10.02361169 -24.21911184 9.1946458 -26.71094894 8.35238647 C-38.50686242 4.54282085 -47.80281879 4.41259635 -59.44703293 8.58236694 C-61.37185615 9.23364275 -63.29766482 9.88201232 -65.22437668 10.52767944 C-66.1884343 10.85413452 -67.15249191 11.1805896 -68.1457634 11.51693726 C-72.56268168 12.96740352 -77.03051594 14.21486369 -81.50953293 15.45736694 C-88.726875 17.47846639 -95.87735655 19.65394744 -103.00953293 21.95736694 C-110.12244491 24.25294604 -117.25305388 26.42984339 -124.44703293 28.45736694 C-132.12411183 30.63077319 -139.79606488 32.81847228 -147.44703293 35.08236694 C-148.41246017 35.35951538 -149.37788742 35.63666382 -150.37257004 35.92221069 C-157.04883326 37.91734787 -163.33996646 40.13195262 -167.00953293 46.45736694 C-167.31275909 49.13284955 -167.44713963 51.57955215 -167.44190598 54.25521851 C-167.45209763 55.03608826 -167.46228928 55.81695801 -167.47278976 56.62149048 C-167.50293275 59.19706383 -167.51218754 61.77226534 -167.52125168 64.34799194 C-167.53809743 66.13590736 -167.55624753 67.92381093 -167.57564926 69.71170044 C-167.6231668 74.41342465 -167.65296479 79.11510082 -167.67908859 83.81698608 C-167.70888527 88.6164804 -167.75541866 93.41580914 -167.80054855 98.21517944 C-167.88660179 107.62917442 -167.95239098 117.04315203 -168.00953293 126.45736694 C-175.43453293 127.44736694 -175.43453293 127.44736694 -183.00953293 128.45736694 C-183.10014572 117.93861546 -183.17342824 107.42012608 -183.21678162 96.90107155 C-183.23759616 92.01587977 -183.26580095 87.13097043 -183.31129074 82.24594116 C-183.35496828 77.52562078 -183.37871609 72.80557092 -183.3890419 68.08506393 C-183.39639413 66.29024374 -183.41075081 64.49543722 -183.43245316 62.70073318 C-183.58026917 49.96245437 -182.90100988 40.4066603 -174.27906418 30.34408569 C-166.68779396 24.0332707 -157.53125969 21.50695731 -148.22437668 18.79721069 C-146.77572176 18.36667222 -145.32735856 17.9351511 -143.87926865 17.50271606 C-140.03180294 16.35665242 -136.18066334 15.22349017 -132.32834244 14.09386826 C-127.54508762 12.68980827 -122.76513291 11.27455748 -117.9846344 9.86114788 C-117.19778133 9.6285064 -116.41092827 9.39586493 -115.60023117 9.15617371 C-114.81648621 8.92441751 -114.03274124 8.69266132 -113.22524643 8.45388222 C-110.86303682 7.75596962 -108.50033466 7.05974344 -106.13758469 6.36366272 C-97.45931258 3.8030283 -88.81114797 1.16859333 -80.19312668 -1.58950806 C-78.38800654 -2.16017278 -76.58275605 -2.73042542 -74.77735519 -3.30020142 C-72.38493702 -4.05548578 -69.99687844 -4.81755045 -67.61765671 -5.61346436 C-43.43820727 -13.6956344 -23.45372662 -7.47211916 0 0 Z " fill="#012050" transform="translate(235.0095329284668,13.542633056640625)"/>
<path d="M0 0 C0.22042969 1.79630859 0.22042969 1.79630859 0.4453125 3.62890625 C2.52017115 19.18713424 6.69599828 32.0899505 16 45 C16.57105469 45.7940625 17.14210938 46.588125 17.73046875 47.40625 C27.0614188 59.66182618 38.45927121 70.12764766 51 79 C51.5357666 79.38542969 52.0715332 79.77085937 52.62353516 80.16796875 C87.49195577 105.36632968 87.49195577 105.36632968 127.37890625 116.81640625 C131.45793491 115.8967547 135.1016599 114.57548562 138.9375 112.9375 C139.67766357 112.62586914 140.41782715 112.31423828 141.18041992 111.99316406 C148.9643663 108.66605461 156.51046825 104.93945307 164 101 C164.77214844 100.59797363 165.54429687 100.19594727 166.33984375 99.78173828 C183.34165862 90.88298838 199.55149601 80.69245505 214 68 C214.98226562 67.15050781 215.96453125 66.30101562 216.9765625 65.42578125 C237.46663248 47.41049861 248.28524776 26.90930284 252 0 C257.22435233 -0.1003477 261.09412542 0.39808177 266 2 C267.83415026 23.19462525 256.53186321 43.34179093 243.875 59.4375 C224.4963592 82.269428 200.30723762 99.0368394 174 113 C172.77651855 113.6496875 172.77651855 113.6496875 171.52832031 114.3125 C161.12681003 119.78329809 150.57284895 124.81297481 139.6875 129.25 C138.75156006 129.64509766 137.81562012 130.04019531 136.85131836 130.44726562 C127.23241101 134.2328883 120.28941549 132.57420063 111 128.6875 C110.14970215 128.33776123 109.2994043 127.98802246 108.42333984 127.62768555 C63.85627647 108.97049277 12.07921762 80.62712321 -7.94140625 33.796875 C-11.3657805 24.74945078 -14.18130796 15.86725267 -14.0625 6.125 C-14.05347656 5.15820312 -14.04445312 4.19140625 -14.03515625 3.1953125 C-14.02355469 2.47085937 -14.01195312 1.74640625 -14 1 C-9.2702137 0.22778999 -4.78736372 -0.04597708 0 0 Z " fill="#002050" transform="translate(66,263)"/>
<path d="M0 0 C3.39963441 5.09945162 4.38277075 11.12406704 6 17 C11.94 17.33 17.88 17.66 24 18 C21.01439924 20.98560076 18.69975383 23.01780635 15.25 25.25 C14.45078125 25.77078125 13.6515625 26.2915625 12.828125 26.828125 C12.22484375 27.21484375 11.6215625 27.6015625 11 28 C11.12117188 28.54527344 11.24234375 29.09054687 11.3671875 29.65234375 C12.578125 35.1015625 13.7890625 40.55078125 15 46 C11.20159655 43.90700218 7.75830759 41.83908191 4.375 39.125 C2.704375 38.073125 2.704375 38.073125 1 37 C-3.16316006 38.06642524 -6.03951739 40.41933438 -9.3125 43.125 C-10.19550781 43.84945312 -11.07851562 44.57390625 -11.98828125 45.3203125 C-12.98408203 46.15175781 -12.98408203 46.15175781 -14 47 C-15.27386134 43.17841598 -14.43280593 41.79508416 -13.0625 38.0625 C-11.69797516 34.32971509 -11 32.02485683 -11 28 C-12.97694132 26.24958321 -14.83724262 24.79087132 -17 23.3125 C-19.01567008 21.89381329 -21.01229882 20.45823911 -23 19 C-23 18.67 -23 18.34 -23 18 C-14.585 17.505 -14.585 17.505 -6 17 C-4.39609513 11.78047191 -4.39609513 11.78047191 -2.79907227 6.55883789 C-1.11111111 1.11111111 -1.11111111 1.11111111 0 0 Z " fill="#F6F9FC" transform="translate(164,303)"/>
<path d="M0 0 C4.76232792 3.77984193 5.40597541 10.4483971 7 16 C12.61 16.33 18.22 16.66 24 17 C19.96080655 21.03919345 16.60212178 23.84168113 12 27 C12.53176041 31.99854788 13.68550815 36.28491129 15.4765625 40.984375 C16 43 16 43 15 46 C14.33613281 45.44570313 13.67226562 44.89140625 12.98828125 44.3203125 C12.10527344 43.59585938 11.22226563 42.87140625 10.3125 42.125 C9.44238281 41.40570313 8.57226562 40.68640625 7.67578125 39.9453125 C4.12126728 37.33239397 4.12126728 37.33239397 0 36 C-2.91117489 37.47750244 -2.91117489 37.47750244 -5.625 39.8125 C-10.80454097 43.93484699 -10.80454097 43.93484699 -14 45 C-12.66666667 39 -11.33333333 33 -10 27 C-10.9384375 26.36191406 -11.876875 25.72382813 -12.84375 25.06640625 C-14.0626214 24.23194814 -15.28136484 23.39730309 -16.5 22.5625 C-17.12003906 22.14162109 -17.74007812 21.72074219 -18.37890625 21.28710938 C-19.93710398 20.21691863 -21.47078051 19.11120482 -23 18 C-23 17.67 -23 17.34 -23 17 C-17.06 16.67 -11.12 16.34 -5 16 C-3.72643453 11.48328517 -3.72643453 11.48328517 -2.45727539 6.96533203 C-1.11111111 2.22222222 -1.11111111 2.22222222 0 0 Z " fill="#F6F9FC" transform="translate(219,304)"/>
<path d="M0 0 C3.15689734 1.60714774 5.19415756 2.97438234 7.375 5.75 C8.61079991 10.19887967 8.88172327 13.99768023 7.01953125 18.2265625 C4.79816786 21.98579286 3.1657213 24.37201696 -1 26 C-5.32135899 26.480151 -7.4668367 26.29173086 -11.3125 24.1875 C-14.32297052 21.73711702 -15.8367875 20.19059225 -16.37109375 16.29296875 C-16.57243625 6.87724591 -16.57243625 6.87724591 -13.625 3.3125 C-9.26426967 -0.52909576 -5.66259835 -0.69473896 0 0 Z " fill="#353535" transform="translate(305,206)"/>
<path d="M0 0 C2.22855574 -0.0814222 4.45797655 -0.13938079 6.6875 -0.1875 C8.54955078 -0.23970703 8.54955078 -0.23970703 10.44921875 -0.29296875 C14.23834515 0.01966544 16.01437144 0.70669111 19 3 C21.63824342 6.91187817 22.60013158 10.38656573 22.421875 15.0390625 C21.6380264 18.68250694 19.67324109 20.44826987 17 23 C13.78762766 24.99388628 10.99412394 25.35756258 7.25 25.625 C6.26515625 25.69976562 5.2803125 25.77453125 4.265625 25.8515625 C3.51796875 25.90054688 2.7703125 25.94953125 2 26 C1.66205529 22.97961911 1.32951567 19.95880244 1 16.9375 C0.90460938 16.08994141 0.80921875 15.24238281 0.7109375 14.36914062 C0.18943842 9.54527411 -0.10532727 4.85163736 0 0 Z " fill="#353535" transform="translate(71,207)"/>
<path d="M0 0 C1.98 0 3.96 0 6 0 C6.33 8.25 6.66 16.5 7 25 C5.68 25 4.36 25 3 25 C2.34 20.05 1.68 15.1 1 10 C-0.98 15.28 -2.96 20.56 -5 26 C-6.32 25.67 -7.64 25.34 -9 25 C-10.4492036 22.45211156 -11.61221266 20.11397477 -12.75 17.4375 C-13.8225 14.983125 -14.895 12.52875 -16 10 C-16 15.61 -16 21.22 -16 27 C-17.32 27 -18.64 27 -20 27 C-20.84327749 18.64251778 -21.12190678 10.39802254 -21 2 C-19.02 2 -17.04 2 -15 2 C-13.85170023 4.269616 -12.70628022 6.54060778 -11.5625 8.8125 C-11.23701172 9.45509766 -10.91152344 10.09769531 -10.57617188 10.75976562 C-9.20767324 13.48265466 -7.96516735 16.10449794 -7 19 C-6.823479 18.45996338 -6.64695801 17.91992676 -6.46508789 17.36352539 C-5.66733505 14.92881836 -4.86498121 12.49565242 -4.0625 10.0625 C-3.78470703 9.21236328 -3.50691406 8.36222656 -3.22070312 7.48632812 C-2.95322266 6.67744141 -2.68574219 5.86855469 -2.41015625 5.03515625 C-2.16402588 4.2862915 -1.91789551 3.53742676 -1.66430664 2.76586914 C-1 1 -1 1 0 0 Z " fill="#353535" transform="translate(120,203)"/>
<path d="M0 0 C2.64 0 5.28 0 8 0 C9.32 4.29 10.64 8.58 12 13 C13.65 8.71 15.3 4.42 17 0 C19.31 0 21.62 0 24 0 C24 6.93 24 13.86 24 21 C22.68 21 21.36 21 20 21 C19.505 14.565 19.505 14.565 19 8 C18.360625 9.77375 17.72125 11.5475 17.0625 13.375 C15.125 18.75 15.125 18.75 14 21 C12.68 21 11.36 21 10 21 C8.68 17.37 7.36 13.74 6 10 C5.67 13.63 5.34 17.26 5 21 C3.35 21 1.7 21 0 21 C0 14.07 0 7.14 0 0 Z " fill="#F2F2F2" transform="translate(126,60)"/>
<path d="M0 0 C4.57883754 -0.24005556 8.6934701 -0.45328588 13.0625 1.0625 C15 3 15 3 16.125 6.375 C16 10 16 10 13.5625 12.9375 C12.716875 13.618125 11.87125 14.29875 11 15 C11.3609375 15.61488281 11.721875 16.22976562 12.09375 16.86328125 C12.5578125 17.67152344 13.021875 18.47976562 13.5 19.3125 C13.9640625 20.11300781 14.428125 20.91351563 14.90625 21.73828125 C16 24 16 24 16 27 C13.66015625 26.8125 13.66015625 26.8125 11 26 C9.55859375 23.75 9.55859375 23.75 8.4375 21 C7.39293807 18.27696956 7.39293807 18.27696956 6 16 C3.9395513 15.11689738 3.9395513 15.11689738 2 15 C2.020625 16.093125 2.04125 17.18625 2.0625 18.3125 C2 22 2 22 1 25 C-0.32 25 -1.64 25 -3 25 C-2.76265767 22.38923433 -2.5249345 19.77851226 -2.28515625 17.16796875 C-2.09792485 15.08790484 -1.91799988 13.00716775 -1.74609375 10.92578125 C-1.66488281 9.96027344 -1.58367187 8.99476563 -1.5 8 C-1.39171875 6.6696875 -1.39171875 6.6696875 -1.28125 5.3125 C-1 3 -1 3 0 0 Z " fill="#393939" transform="translate(319,209)"/>
<path d="M0 0 C12.33222867 -0.49328915 12.33222867 -0.49328915 15.421875 1.7890625 C17 4 17 4 17 7.625 C16 11 16 11 13.9375 12.2109375 C13.298125 12.47132813 12.65875 12.73171875 12 13 C12.5053125 13.78246094 13.010625 14.56492188 13.53125 15.37109375 C14.50578125 16.88896484 14.50578125 16.88896484 15.5 18.4375 C16.1496875 19.44683594 16.799375 20.45617187 17.46875 21.49609375 C19 24 19 24 19 25 C16.69140625 25.27734375 16.69140625 25.27734375 14 25 C12.33984375 23.06640625 12.33984375 23.06640625 10.9375 20.5625 C9.60069782 18.07777724 9.60069782 18.07777724 8 16 C6.68 15.67 5.36 15.34 4 15 C4 18.3 4 21.6 4 25 C2.68 25 1.36 25 0 25 C0 16.75 0 8.5 0 0 Z " fill="#373737" transform="translate(210,162)"/>
<path d="M0 0 C11 0 11 0 14.1875 1.625 C16 4 16 4 16.5 7.0625 C16 10 16 10 14.625 11.875 C13 13 13 13 11 13 C11.5053125 13.78246094 12.010625 14.56492188 12.53125 15.37109375 C13.50578125 16.88896484 13.50578125 16.88896484 14.5 18.4375 C15.1496875 19.44683594 15.799375 20.45617187 16.46875 21.49609375 C18 24 18 24 18 25 C15.69140625 25.27734375 15.69140625 25.27734375 13 25 C11.33984375 23.06640625 11.33984375 23.06640625 9.9375 20.5625 C8.60069782 18.07777724 8.60069782 18.07777724 7 16 C5.68 15.67 4.36 15.34 3 15 C3 18.3 3 21.6 3 25 C1.68 25 0.36 25 -1 25 C-0.67 16.75 -0.34 8.5 0 0 Z " fill="#303030" transform="translate(226,202)"/>
<path d="M0 0 C3.14712898 0.27418169 4.217958 0.82826454 7 2.625 C9.67810718 6.72585161 9.82962082 9.91495013 9 14.6875 C7.27310955 17.97681514 6.5579199 18.5015267 3 19.6875 C-0.375 20.125 -0.375 20.125 -4 19.6875 C-7.66271372 16.49236675 -8.77303522 14.95850277 -9.625 10.1875 C-8.61124807 4.51048922 -6.04830452 0.4123844 0 0 Z " fill="#EFF5FA" transform="translate(178,269.3125)"/>
<path d="M0 0 C1.32 0 2.64 0 4 0 C4 8.25 4 16.5 4 25 C-1 25 -1 25 -2.57739258 23.53125 C-3.01204834 22.8609375 -3.4467041 22.190625 -3.89453125 21.5 C-4.37470703 20.778125 -4.85488281 20.05625 -5.34960938 19.3125 C-5.83236328 18.549375 -6.31511719 17.78625 -6.8125 17 C-7.31458984 16.236875 -7.81667969 15.47375 -8.33398438 14.6875 C-9.57150337 12.80175678 -10.78781744 10.90212886 -12 9 C-12.33 14.61 -12.66 20.22 -13 26 C-14.32 26 -15.64 26 -17 26 C-17 17.75 -17 9.5 -17 1 C-12 1 -12 1 -10.42260742 2.46875 C-9.98795166 3.1390625 -9.5532959 3.809375 -9.10546875 4.5 C-8.62529297 5.221875 -8.14511719 5.94375 -7.65039062 6.6875 C-7.16763672 7.450625 -6.68488281 8.21375 -6.1875 9 C-5.68541016 9.763125 -5.18332031 10.52625 -4.66601562 11.3125 C-3.42849663 13.19824322 -2.21218256 15.09787114 -1 17 C-0.67 11.39 -0.34 5.78 0 0 Z " fill="#313131" transform="translate(162,202)"/>
<path d="M0 0 C1.2065625 0.0309375 1.2065625 0.0309375 2.4375 0.0625 C3.94605339 3.6631459 5.44285824 7.26855959 6.9375 10.875 C7.36675781 11.89916016 7.79601562 12.92332031 8.23828125 13.97851562 C8.84736328 15.45288086 8.84736328 15.45288086 9.46875 16.95703125 C9.84580078 17.86300049 10.22285156 18.76896973 10.61132812 19.70239258 C11.4375 22.0625 11.4375 22.0625 11.4375 25.0625 C10.1175 25.0625 8.7975 25.0625 7.4375 25.0625 C6.7775 23.4125 6.1175 21.7625 5.4375 20.0625 C2.1375 20.0625 -1.1625 20.0625 -4.5625 20.0625 C-5.2225 22.0425 -5.8825 24.0225 -6.5625 26.0625 C-8.2125 26.0625 -9.8625 26.0625 -11.5625 26.0625 C-10.25496439 21.91508414 -8.94064669 17.76984931 -7.625 13.625 C-7.25181641 12.44099609 -6.87863281 11.25699219 -6.49414062 10.03710938 C-6.13642578 8.91240234 -5.77871094 7.78769531 -5.41015625 6.62890625 C-5.08023682 5.58677979 -4.75031738 4.54465332 -4.41040039 3.47094727 C-3.21605917 0.07844047 -3.21605917 0.07844047 0 0 Z " fill="#363636" transform="translate(144.5625,161.9375)"/>
<path d="M0 0 C2.3190918 0.21118164 2.3190918 0.21118164 5 1 C6.57739258 3.00952148 6.57739258 3.00952148 7.89453125 5.62109375 C8.37470703 6.55630859 8.85488281 7.49152344 9.34960938 8.45507812 C9.83236328 9.43927734 10.31511719 10.42347656 10.8125 11.4375 C11.31458984 12.41783203 11.81667969 13.39816406 12.33398438 14.40820312 C16 21.65544218 16 21.65544218 16 24 C14.35 23.67 12.7 23.34 11 23 C10.67 21.68 10.34 20.36 10 19 C5.05 19.495 5.05 19.495 0 20 C-0.66 22.31 -1.32 24.62 -2 27 C-3.65 27 -5.3 27 -7 27 C-6.40387696 23.99820275 -5.79836699 20.99880158 -5.1875 18 C-5.02185547 17.16082031 -4.85621094 16.32164062 -4.68554688 15.45703125 C-3.5762781 10.05719459 -2.06522222 5.11275645 0 0 Z " fill="#373737" transform="translate(53,209)"/>
<path d="M0 0 C2.4362793 0.16894531 2.4362793 0.16894531 5 1 C6.21020508 2.87011719 6.21020508 2.87011719 7.01953125 5.296875 C7.31923828 6.1734375 7.61894531 7.05 7.92773438 7.953125 C8.36569336 9.33757812 8.36569336 9.33757812 8.8125 10.75 C9.12380859 11.6575 9.43511719 12.565 9.75585938 13.5 C11.19909347 17.83921811 12.17764415 21.39046711 12 26 C10.68 26 9.36 26 8 26 C7.34 24.02 6.68 22.04 6 20 C2.7 19.67 -0.6 19.34 -4 19 C-4.66 20.98 -5.32 22.96 -6 25 C-7.32 25 -8.64 25 -10 25 C-9.4176232 19.36732443 -7.33205594 14.77154503 -5 9.6875 C-4.44699219 8.45290039 -4.44699219 8.45290039 -3.8828125 7.19335938 C-1.15472274 1.15472274 -1.15472274 1.15472274 0 0 Z " fill="#343434" transform="translate(256,203)"/>
<path d="M0 0 C2.38055049 1.72673733 2.93681281 2.62713867 3.43359375 5.55859375 C3.44401126 13.23630063 3.44401126 13.23630063 1.4375 16.6875 C-1.96637149 18.52035388 -4.19146701 18.54407614 -8 18 C-10.4375 16.5625 -10.4375 16.5625 -12 14 C-12.84422772 9.33498911 -12.65735369 6.05176591 -10.125 2 C-6.52886248 -1.38460002 -4.73516632 -1.15963257 0 0 Z " fill="#F7F7F7" transform="translate(305,210)"/>
<path d="M0 0 C1.32 0 2.64 0 4 0 C4.01981934 0.56509277 4.03963867 1.13018555 4.06005859 1.71240234 C4.15518236 4.26707997 4.26491058 6.82092541 4.375 9.375 C4.4059375 10.26445312 4.436875 11.15390625 4.46875 12.0703125 C4.50742188 12.92109375 4.54609375 13.771875 4.5859375 14.6484375 C4.6173584 15.43395996 4.6487793 16.21948242 4.68115234 17.02880859 C4.8399465 19.23002939 4.8399465 19.23002939 7 21 C9.5 21.33333333 9.5 21.33333333 12 21 C14.3968665 18.6031335 14.28281133 17.92971686 14.4140625 14.6484375 C14.45273438 13.79765625 14.49140625 12.946875 14.53125 12.0703125 C14.5621875 11.18085938 14.593125 10.29140625 14.625 9.375 C14.68300781 8.02921875 14.68300781 8.02921875 14.7421875 6.65625 C14.83659357 4.4377073 14.92216748 2.21917597 15 0 C16.32 0 17.64 0 19 0 C19.14584064 3.22868746 19.23424106 6.45652365 19.3125 9.6875 C19.35439453 10.59951172 19.39628906 11.51152344 19.43945312 12.45117188 C19.52261196 17.02490789 19.5029386 19.28802475 16.80078125 23.11328125 C13.80281197 25.13283378 12.43814624 25.63075766 8.875 25.5 C7.60269531 25.48453125 7.60269531 25.48453125 6.3046875 25.46875 C3.56699167 24.91193051 2.67358848 24.20373142 1 22 C0.05862745 19.17588235 -0.11725382 17.47081968 -0.09765625 14.55078125 C-0.09443359 13.70322266 -0.09121094 12.85566406 -0.08789062 11.98242188 C-0.07951172 11.10134766 -0.07113281 10.22027344 -0.0625 9.3125 C-0.05798828 8.41982422 -0.05347656 7.52714844 -0.04882812 6.60742188 C-0.03704983 4.40488013 -0.02060164 2.20247401 0 0 Z " fill="#2F2F2F" transform="translate(184,162)"/>
<path d="M0 0 C6.27 0 12.54 0 19 0 C17.61372007 3.46569983 16.62075958 5.81554677 14.6171875 8.76953125 C14.17246094 9.43017578 13.72773438 10.09082031 13.26953125 10.77148438 C12.80933594 11.44501953 12.34914062 12.11855469 11.875 12.8125 C11.40707031 13.50537109 10.93914062 14.19824219 10.45703125 14.91210938 C9.30887563 16.61091105 8.15500633 18.30584864 7 20 C10.96 20.33 14.92 20.66 19 21 C19 22.32 19 23.64 19 25 C12.73 25 6.46 25 0 25 C0.85683529 20.71582356 1.17677274 19.30180406 3.50390625 16.01171875 C3.99697266 15.30595703 4.49003906 14.60019531 4.99804688 13.87304688 C5.51431641 13.15181641 6.03058594 12.43058594 6.5625 11.6875 C7.08263672 10.94693359 7.60277344 10.20636719 8.13867188 9.44335938 C9.41833871 7.62364965 10.70817975 5.81110219 12 4 C8.04 3.67 4.08 3.34 0 3 C0 2.01 0 1.02 0 0 Z " fill="#353535" transform="translate(160,162)"/>
<path d="M0 0 C2.5 1.625 2.5 1.625 4 4 C4.47532236 7.25935332 4.29737834 9.26646676 3.0625 12.3125 C-0.24118364 15.01551389 -3.80981654 15.29497681 -8 15 C-10.5625 13.5625 -10.5625 13.5625 -12 11 C-12.56609405 8.03247539 -12.39389621 6.10193265 -12 3 C-9.09439036 -0.87414619 -4.47304957 -0.81578158 0 0 Z " fill="#F3F3F3" transform="translate(231,66)"/>
<path d="M0 0 C2.5 1.625 2.5 1.625 4 4 C4.47532236 7.25935332 4.29737834 9.26646676 3.0625 12.3125 C-0.24118364 15.01551389 -3.80981654 15.29497681 -8 15 C-10.5625 13.5625 -10.5625 13.5625 -12 11 C-12.56609405 8.03247539 -12.39389621 6.10193265 -12 3 C-9.09439036 -0.87414619 -4.47304957 -0.81578158 0 0 Z " fill="#F3F3F3" transform="translate(200,66)"/>
<path d="M0 0 C8.93558502 -0.76736894 8.93558502 -0.76736894 12.6875 1.9375 C14.51398643 6.19930167 14.31314446 9.58305953 13 14 C10.62765173 16.91981326 8.9875938 17.00227447 5.25 17.6875 C4.1775 17.790625 3.105 17.89375 2 18 C0.81304447 14.43913342 0.64904582 11.02668976 0.4375 7.3125 C0.39431641 6.61060547 0.35113281 5.90871094 0.30664062 5.18554688 C0.2008264 3.45724794 0.09993419 1.7286489 0 0 Z " fill="#F5F5F5" transform="translate(75,211)"/>
<path d="M0 0 C4.62 0 9.24 0 14 0 C14 1.32 14 2.64 14 4 C10.7 4 7.4 4 4 4 C4 6.31 4 8.62 4 11 C6.64 11 9.28 11 12 11 C12 11.99 12 12.98 12 14 C9.36 14 6.72 14 4 14 C3.67 16.64 3.34 19.28 3 22 C6.3 22 9.6 22 13 22 C13 22.99 13 23.98 13 25 C8.38 25 3.76 25 -1 25 C-0.67 16.75 -0.34 8.5 0 0 Z " fill="#323232" transform="translate(234,162)"/>
<path d="M0 0 C1.65 0 3.3 0 5 0 C5.79423861 1.56119422 6.58527123 3.12401964 7.375 4.6875 C7.81585938 5.55761719 8.25671875 6.42773438 8.7109375 7.32421875 C12 14.15151515 12 14.15151515 12 18 C10.35 17.67 8.7 17.34 7 17 C7 16.34 7 15.68 7 15 C4.69 15 2.38 15 0 15 C-0.33 16.32 -0.66 17.64 -1 19 C-2.32 19 -3.64 19 -5 19 C-3.9559635 12.31816637 -2.5957524 6.2534035 0 0 Z " fill="#DDEAF5" transform="translate(119,272)"/>
<path d="M0 0 C0.98484375 0.02707031 1.9696875 0.05414063 2.984375 0.08203125 C3.73203125 0.11683594 4.4796875 0.15164062 5.25 0.1875 C5.25 1.5075 5.25 2.8275 5.25 4.1875 C2.28 4.1875 -0.69 4.1875 -3.75 4.1875 C-4.08 5.5075 -4.41 6.8275 -4.75 8.1875 C-4.03972656 8.53941406 -3.32945312 8.89132813 -2.59765625 9.25390625 C4.90792031 13.28565355 4.90792031 13.28565355 6.625 17.8125 C6.25 21.1875 6.25 21.1875 5 23.625 C0.63446313 26.10541868 -3.84230499 25.49211555 -8.75 25.1875 C-9.08 23.5375 -9.41 21.8875 -9.75 20.1875 C-8.76 20.5175 -7.77 20.8475 -6.75 21.1875 C-4.41700175 21.22704234 -2.08291811 21.23151732 0.25 21.1875 C0.58 19.8675 0.91 18.5475 1.25 17.1875 C0.53972656 16.77757812 -0.17054688 16.36765625 -0.90234375 15.9453125 C-1.82144531 15.40648437 -2.74054688 14.86765625 -3.6875 14.3125 C-4.60402344 13.77882812 -5.52054688 13.24515625 -6.46484375 12.6953125 C-8.75 11.1875 -8.75 11.1875 -9.75 9.1875 C-10.0625 6.25 -10.0625 6.25 -9.75 3.1875 C-6.6594801 0.06062105 -4.2901849 -0.15322089 0 0 Z " fill="#313131" transform="translate(192.75,201.8125)"/>
<path d="M0 0 C1.98 0 3.96 0 6 0 C6.83887056 2.43572059 7.67126529 4.87333217 8.5 7.3125 C8.73847656 8.00279297 8.97695312 8.69308594 9.22265625 9.40429688 C10.23208263 12.38931489 11 14.82658914 11 18 C9.35 18 7.7 18 6 18 C6 16.68 6 15.36 6 14 C3.69 14 1.38 14 -1 14 C-1.33 15.32 -1.66 16.64 -2 18 C-3.65 18 -5.3 18 -7 18 C-6.02216461 15.37449704 -5.0427937 12.74958495 -4.0625 10.125 C-3.78470703 9.37863281 -3.50691406 8.63226563 -3.22070312 7.86328125 C-1.11328125 2.2265625 -1.11328125 2.2265625 0 0 Z " fill="#E4EEF7" transform="translate(225,271)"/>
<path d="M0 0 C7 0 7 0 9.9375 1.5 C12.43665005 4.52927279 12.7459903 6.24727566 12.48046875 10.09375 C12 12 12 12 9.9375 14.5 C7 16 7 16 0 16 C0 10.72 0 5.44 0 0 Z " fill="#565656" transform="translate(245,94)"/>
<path d="M0 0 C1.21236328 0.04060547 1.21236328 0.04060547 2.44921875 0.08203125 C3.06410156 0.11683594 3.67898437 0.15164063 4.3125 0.1875 C4.3125 1.5075 4.3125 2.8275 4.3125 4.1875 C2.0025 4.1875 -0.3075 4.1875 -2.6875 4.1875 C-2.6875 5.1775 -2.6875 6.1675 -2.6875 7.1875 C-1.264375 7.620625 -1.264375 7.620625 0.1875 8.0625 C3.3125 9.1875 3.3125 9.1875 5.3125 11.1875 C5.6875 13.625 5.6875 13.625 5.3125 16.1875 C3.8125 18 3.8125 18 1.3125 19.1875 C-1.40829845 19.42634872 -3.94564068 19.32459297 -6.6875 19.1875 C-7.0175 17.5375 -7.3475 15.8875 -7.6875 14.1875 C-5.0475 14.5175 -2.4075 14.8475 0.3125 15.1875 C-1.81053556 12.00294666 -3.42245052 11.02932279 -6.6875 9.1875 C-7.6875 8.1875 -7.6875 8.1875 -7.9375 5.8125 C-7.6875 3.1875 -7.6875 3.1875 -6.46484375 1.53515625 C-4.16667456 -0.2074116 -2.84893333 -0.12386667 0 0 Z " fill="#E6F0F7" transform="translate(142.6875,270.8125)"/>
<path d="M0 0 C3.63 0 7.26 0 11 0 C11 1.32 11 2.64 11 4 C9.02 4 7.04 4 5 4 C5 5.32 5 6.64 5 8 C6.65 8 8.3 8 10 8 C10 8.99 10 9.98 10 11 C8.02 11 6.04 11 4 11 C4 12.32 4 13.64 4 15 C6.31 15 8.62 15 11 15 C11 16.32 11 17.64 11 19 C7.37 19 3.74 19 0 19 C0 12.73 0 6.46 0 0 Z " fill="#E9F1F8" transform="translate(256,272)"/>
<path d="M0 0 C6.41688675 -0.10349817 12.62694402 0.25492456 19 1 C19 1.99 19 2.98 19 4 C16.36 4 13.72 4 11 4 C11.01160156 4.83402344 11.02320313 5.66804687 11.03515625 6.52734375 C11.08799793 13.11745662 10.88555068 19.46906374 10 26 C8.68 26 7.36 26 6 26 C6.33 18.74 6.66 11.48 7 4 C4.69 4 2.38 4 0 4 C0 2.68 0 1.36 0 0 Z " fill="#353535" transform="translate(269,204)"/>
<path d="M0 0 C0.33 1.65 0.66 3.3 1 5 C-0.299375 4.979375 -1.59875 4.95875 -2.9375 4.9375 C-4.29165633 4.91600546 -5.64756083 4.92851801 -7 5 C-8.40432936 6.17718985 -8.40432936 6.17718985 -8.125 9.5 C-8.40432936 12.82281015 -8.40432936 12.82281015 -7 14 C-4.32941149 14.14115161 -1.67567762 14.04247107 1 14 C0.67 15.65 0.34 17.3 0 19 C-8.1627907 19.62790698 -8.1627907 19.62790698 -11.5 17.125 C-14.219456 13.27243733 -14.40154756 10.73826123 -14 6 C-9.88815502 -0.30482896 -7.02946014 -0.11337839 0 0 Z " fill="#E8F1F8" transform="translate(205,270)"/>
<path d="M0 0 C0.33 1.65 0.66 3.3 1 5 C-1.31 5 -3.62 5 -6 5 C-4.33705466 6.7460926 -2.89416782 8.06349931 -0.8125 9.3125 C1 11 1 11 1.4375 14.0625 C1.293125 15.031875 1.14875 16.00125 1 17 C-2.20380017 19.13586678 -3.01939967 19.23132175 -6.6875 19.125 C-7.89986328 19.09792969 -7.89986328 19.09792969 -9.13671875 19.0703125 C-9.75160156 19.04710937 -10.36648437 19.02390625 -11 19 C-11 17.68 -11 16.36 -11 15 C-8.69 15 -6.38 15 -4 15 C-4 14.34 -4 13.68 -4 13 C-4.969375 12.525625 -5.93875 12.05125 -6.9375 11.5625 C-10 10 -10 10 -11 9 C-11.3125 6.125 -11.3125 6.125 -11 3 C-7.91446809 -0.70263829 -4.55791101 -0.2629564 0 0 Z " fill="#EDF4F9" transform="translate(164,270)"/>
<path d="M0 0 C5.94 0 11.88 0 18 0 C18 0.99 18 1.98 18 3 C15.69 3 13.38 3 11 3 C11 10.26 11 17.52 11 25 C9.68 25 8.36 25 7 25 C7 17.74 7 10.48 7 3 C4.69 3 2.38 3 0 3 C0 2.01 0 1.02 0 0 Z " fill="#282828" transform="translate(202,202)"/>
<path d="M0 0 C0 0.99 0 1.98 0 3 C-0.99 3.33 -1.98 3.66 -3 4 C-3.73323796 6.01508358 -3.73323796 6.01508358 -4 8 C-3.01 8 -2.02 8 -1 8 C-1 8.99 -1 9.98 -1 11 C-1.99 11 -2.98 11 -4 11 C-4 14.96 -4 18.92 -4 23 C-5.65 23 -7.3 23 -9 23 C-9 19.04 -9 15.08 -9 11 C-9.66 11 -10.32 11 -11 11 C-11 10.01 -11 9.02 -11 8 C-10.34 8 -9.68 8 -9 8 C-9.0928125 6.8553125 -9.0928125 6.8553125 -9.1875 5.6875 C-9 3 -9 3 -7.875 1.1875 C-5.22464043 -0.49106106 -3.06753576 -0.20450238 0 0 Z " fill="#F3F3F3" transform="translate(247,58)"/>
<path d="M0 0 C4.95 0 9.9 0 15 0 C15 1.32 15 2.64 15 4 C13.35 4 11.7 4 10 4 C9.67 8.95 9.34 13.9 9 19 C7.68 19 6.36 19 5 19 C5 14.05 5 9.1 5 4 C3.35 4 1.7 4 0 4 C0 2.68 0 1.36 0 0 Z " fill="#E4EFF7" transform="translate(237,271)"/>
<path d="M0 0 C0 1.65 0 3.3 0 5 C0.99 5 1.98 5 3 5 C3 5.99 3 6.98 3 8 C2.01 8 1.02 8 0 8 C0 10.97 0 13.94 0 17 C0.99 17 1.98 17 3 17 C3 17.99 3 18.98 3 20 C0.6568787 19.74438677 -1.67843403 19.40729228 -4 19 C-5.20272819 16.59454362 -5.10071472 15.05003047 -5.0625 12.375 C-5.05347656 11.55773437 -5.04445312 10.74046875 -5.03515625 9.8984375 C-5.02355469 9.27195312 -5.01195312 8.64546875 -5 8 C-5.66 8 -6.32 8 -7 8 C-7 7.01 -7 6.02 -7 5 C-6.34 5 -5.68 5 -5 5 C-5 3.68 -5 2.36 -5 1 C-3 0 -3 0 0 0 Z " fill="#F4F4F4" transform="translate(255,61)"/>
<path d="M0 0 C7 0 7 0 9 1.1875 C10 3 10 3 9.6875 5.6875 C9.460625 6.450625 9.23375 7.21375 9 8 C8.34 8 7.68 8 7 8 C7.66 8.94875 8.32 9.8975 9 10.875 C11 14 11 14 11 16 C10.01 15.67 9.02 15.34 8 15 C6.8125 12.4375 6.8125 12.4375 6 10 C4.68 10 3.36 10 2 10 C2 11.98 2 13.96 2 16 C1.34 16 0.68 16 0 16 C0 10.72 0 5.44 0 0 Z " fill="#D6D6D6" transform="translate(161,94)"/>
<path d="M0 0 C1.65 0 3.3 0 5 0 C5 8.25 5 16.5 5 25 C3.68 25 2.36 25 1 25 C0.67 16.75 0.34 8.5 0 0 Z " fill="#373737" transform="translate(133,203)"/>
<path d="M0 0 C1.670625 0.061875 1.670625 0.061875 3.375 0.125 C3.705 1.115 4.035 2.105 4.375 3.125 C2.395 3.125 0.415 3.125 -1.625 3.125 C-0.11836217 6.13827566 2.40666411 6.73556618 5.375 8.125 C5.0625 10.5 5.0625 10.5 4.375 13.125 C0.9397952 15.41513653 -0.610331 15.30342973 -4.625 15.125 C-4.955 14.135 -5.285 13.145 -5.625 12.125 C-3.645 12.125 -1.665 12.125 0.375 12.125 C-1.79187491 9.84978134 -4.08120509 7.96705838 -6.625 6.125 C-5.71577947 1.57889733 -4.95184304 0.17075321 0 0 Z " fill="#F5F5F5" transform="translate(211.625,65.875)"/>
<path d="M0 0 C1.32 0 2.64 0 4 0 C4 8.25 4 16.5 4 25 C2.68 25 1.36 25 0 25 C0 16.75 0 8.5 0 0 Z " fill="#282828" transform="translate(173,202)"/>
<path d="M0 0 C0 1.32 0 2.64 0 4 C-0.969375 3.979375 -1.93875 3.95875 -2.9375 3.9375 C-5.87465895 3.64381501 -5.87465895 3.64381501 -7 5 C-7.04063832 6.66617115 -7.042721 8.33388095 -7 10 C-3.52852158 10.74957157 -3.52852158 10.74957157 0 11 C0 12.32 0 13.64 0 15 C-7.68421053 15.29554656 -7.68421053 15.29554656 -11 13 C-12.54586876 9.90826248 -12.29359521 7.40570448 -12 4 C-8.92690336 -0.99378204 -5.33129622 -0.35541975 0 0 Z " fill="#F4F4F4" transform="translate(174,66)"/>
<path d="M0 0 C3.3 0 6.6 0 10 0 C10 1.32 10 2.64 10 4 C8.68 4.33 7.36 4.66 6 5 C5.67 8.3 5.34 11.6 5 15 C3.35 15 1.7 15 0 15 C0 10.05 0 5.1 0 0 Z " fill="#EFEFEF" transform="translate(177,66)"/>
<path d="M0 0 C1.2375 0.1546875 1.2375 0.1546875 2.5 0.3125 C4.5 3.3125 4.5 3.3125 4.1875 6.9375 C3.5 10.3125 3.5 10.3125 2.5 11.3125 C0.0625 11.5 0.0625 11.5 -2.5 11.3125 C-4.5 9.3125 -4.5 9.3125 -4.75 5.8125 C-4.46068549 1.7620969 -4.13470522 0.51683815 0 0 Z " fill="#0E6CB9" transform="translate(178.5,273.6875)"/>
<path d="M0 0 C7 0 7 0 9.9375 1.5 C12.43665005 4.52927279 12.7459903 6.24727566 12.48046875 10.09375 C12 12 12 12 9.9375 14.5 C7 16 7 16 0 16 C0 10.72 0 5.44 0 0 Z M2 2 C2 5.96 2 9.92 2 14 C6.34184202 13.81535634 6.34184202 13.81535634 10 12 C10.32460261 7.96916989 10.32460261 7.96916989 10 4 C6.90754997 1.53774984 6.90754997 1.53774984 2 2 Z " fill="#EFEFEF" transform="translate(245,94)"/>
<path d="M0 0 C1.32 0 2.64 0 4 0 C4 6.27 4 12.54 4 19 C2.68 19 1.36 19 0 19 C0 12.73 0 6.46 0 0 Z " fill="#EFF5FA" transform="translate(211,270)"/>
<path d="M0 0 C1.65 0 3.3 0 5 0 C5 4.95 5 9.9 5 15 C3.35 15 1.7 15 0 15 C0 10.05 0 5.1 0 0 Z " fill="#F1F1F1" transform="translate(154,66)"/>
<path d="M0 0 C2.64 0 5.28 0 8 0 C7.67 0.99 7.34 1.98 7 3 C5.35 3 3.7 3 2 3 C2 4.32 2 5.64 2 7 C3.65 7 5.3 7 7 7 C7 7.66 7 8.32 7 9 C5.35 9 3.7 9 2 9 C2 10.65 2 12.3 2 14 C3.98 14 5.96 14 8 14 C8 14.66 8 15.32 8 16 C5.36 16 2.72 16 0 16 C0 10.72 0 5.44 0 0 Z " fill="#CBCBCB" transform="translate(146,94)"/>
<path d="M0 0 C2.64 0 5.28 0 8 0 C8 0.66 8 1.32 8 2 C6.02 2 4.04 2 2 2 C2 3.65 2 5.3 2 7 C3.98 7 5.96 7 8 7 C8 7.66 8 8.32 8 9 C6.02 9 4.04 9 2 9 C2 10.65 2 12.3 2 14 C4.31 14 6.62 14 9 14 C9 14.66 9 15.32 9 16 C6.03 16 3.06 16 0 16 C0 10.72 0 5.44 0 0 Z " fill="#DCDCDC" transform="translate(229,94)"/>
<path d="M0 0 C2.31 0.33 4.62 0.66 7 1 C7.6875 3.3125 7.6875 3.3125 8 6 C6.875 7.8125 6.875 7.8125 5 9 C2.3125 9.1875 2.3125 9.1875 0 9 C0 6.03 0 3.06 0 0 Z " fill="#E8E8E8" transform="translate(230,205)"/>
<path d="M0 0 C5.875 0.875 5.875 0.875 7 2 C7.1875 4.4375 7.1875 4.4375 7 7 C5 9 5 9 1.875 9.125 C0.451875 9.063125 0.451875 9.063125 -1 9 C-0.67 6.03 -0.34 3.06 0 0 Z " fill="#ECECEC" transform="translate(323,212)"/>
<path d="M0 0 C2.375 -0.125 2.375 -0.125 5 0 C7 2 7 2 7.25 4.5 C7 7 7 7 5 9 C2.375 9.125 2.375 9.125 0 9 C-0.84454356 5.62182575 -1.10844919 3.32534757 0 0 Z " fill="#E8E8E8" transform="translate(215,165)"/>
<path d="M0 0 C0 0.66 0 1.32 0 2 C-1.134375 2.309375 -2.26875 2.61875 -3.4375 2.9375 C-6.78775099 3.62924531 -6.78775099 3.62924531 -8 5 C-8.16666667 8.5 -8.16666667 8.5 -8 12 C-6.03177114 13.96822886 -2.65191291 13.66248381 0 14 C0 14.66 0 15.32 0 16 C-7.35678392 16.48241206 -7.35678392 16.48241206 -10 14.5 C-11.42909126 10.92727186 -11.82194398 7.78404401 -11 4 C-7.65899814 0.06940958 -5.03930644 -0.46877269 0 0 Z " fill="#E3E3E3" transform="translate(138,94)"/>
<path d="M0 0 C2.64 0 5.28 0 8 0 C8 0.66 8 1.32 8 2 C6.02 2 4.04 2 2 2 C2 3.65 2 5.3 2 7 C3.98 7 5.96 7 8 7 C8 7.66 8 8.32 8 9 C6.02 9 4.04 9 2 9 C2 11.31 2 13.62 2 16 C1.34 16 0.68 16 0 16 C0 10.72 0 5.44 0 0 Z " fill="#DFDFDF" transform="translate(204,94)"/>
<path d="M0 0 C2.625 0.375 2.625 0.375 5 1 C5 3.31 5 5.62 5 8 C2.625 8.625 2.625 8.625 0 9 C-2 7 -2 7 -2.25 4.5 C-2 2 -2 2 0 0 Z " fill="#5D5D5D" transform="translate(225,69)"/>
<path d="M0 0 C2.625 0.375 2.625 0.375 5 1 C5 3.31 5 5.62 5 8 C2.625 8.625 2.625 8.625 0 9 C-2 7 -2 7 -2.25 4.5 C-2 2 -2 2 0 0 Z " fill="#5D5D5D" transform="translate(194,69)"/>
<path d="M0 0 C3.63 0 7.26 0 11 0 C11 0.99 11 1.98 11 3 C9.68 3 8.36 3 7 3 C7 7.29 7 11.58 7 16 C6.34 16 5.68 16 5 16 C5 11.38 5 6.76 5 2 C3.35 2 1.7 2 0 2 C0 1.34 0 0.68 0 0 Z " fill="#CFCFCF" transform="translate(176,94)"/>
<path d="M0 0 C2.31 0 4.62 0 7 0 C7.66 0.99 8.32 1.98 9 3 C6.69 2.67 4.38 2.34 2 2 C2 3.98 2 5.96 2 8 C2.99 8.33 3.98 8.66 5 9 C4.01 9 3.02 9 2 9 C2 11.31 2 13.62 2 16 C1.34 16 0.68 16 0 16 C0 10.72 0 5.44 0 0 Z " fill="#E5E5E5" transform="translate(161,94)"/>
<path d="M0 0 C0.66 0 1.32 0 2 0 C2.66 3.3 3.32 6.6 4 10 C1.69 10 -0.62 10 -3 10 C-2.49287967 6.28111761 -1.88391785 3.26545761 0 0 Z " fill="#E4E4E4" transform="translate(257,209)"/>
<path d="M0 0 C2.3129482 2.3129482 2.49580975 3.47904875 3.125 6.625 C3.29257813 7.44226563 3.46015625 8.25953125 3.6328125 9.1015625 C3.81457031 10.04128906 3.81457031 10.04128906 4 11 C1.69 11 -0.62 11 -3 11 C-2.44894091 7.0507432 -1.61064629 3.65079826 0 0 Z " fill="#E5E5E5" transform="translate(144,167)"/>
<path d="M0 0 C2.64465038 3.1254959 3.84414715 6.08788267 5 10 C2.69 10.33 0.38 10.66 -2 11 C-1.85957123 9.35369672 -1.71250671 7.70795821 -1.5625 6.0625 C-1.48128906 5.14597656 -1.40007813 4.22945312 -1.31640625 3.28515625 C-1 1 -1 1 0 0 Z " fill="#E9E9E9" transform="translate(55,214)"/>
<path d="M0 0 C3.37462715 0.54723683 5.08235 1.0549 8 3 C8 3.66 8 4.32 8 5 C6.02 5 4.04 5 2 5 C2.33 5.99 2.66 6.98 3 8 C2.34 8 1.68 8 1 8 C-1.125 3.375 -1.125 3.375 0 0 Z " fill="#686868" transform="translate(204,73)"/>
<path d="M0 0 C2.31 0 4.62 0 7 0 C7 0.33 7 0.66 7 1 C5.35 1 3.7 1 2 1 C2 2.65 2 4.3 2 6 C3.98 6 5.96 6 8 6 C8 6.66 8 7.32 8 8 C5.36 8 2.72 8 0 8 C0 5.36 0 2.72 0 0 Z " fill="#EBEBEB" transform="translate(146,102)"/>
<path d="M0 0 C2.31 0 4.62 0 7 0 C7.66 0.66 8.32 1.32 9 2 C7 3 7 3 2 2 C2 5.96 2 9.92 2 14 C1.67 14 1.34 14 1 14 C0.67 9.38 0.34 4.76 0 0 Z " fill="#D7D7D7" transform="translate(245,94)"/>
<path d="M0 0 C2.475 0.495 2.475 0.495 5 1 C4.67 2.65 4.34 4.3 4 6 C2.68 6 1.36 6 0 6 C0 4.02 0 2.04 0 0 Z " fill="#636363" transform="translate(163,96)"/>
<path d="M0 0 C1.36125 0.12375 1.36125 0.12375 2.75 0.25 C2.75 0.91 2.75 1.57 2.75 2.25 C-3.875 4.25 -3.875 4.25 -7.25 4.25 C-4.83923194 1.28290085 -3.90322061 0.30024774 0 0 Z " fill="#DBDBDB" transform="translate(135.25,93.75)"/>
<path d="M0 0 C1.98 0.495 1.98 0.495 4 1 C3.67 2.32 3.34 3.64 3 5 C1.68 4.67 0.36 4.34 -1 4 C-0.67 2.68 -0.34 1.36 0 0 Z " fill="#F3F3F3" transform="translate(155,58)"/>
</svg>
