<?xml version="1.0" standalone="no"?>
<!DOCTYPE svg PUBLIC "-//W3C//DTD SVG 20010904//EN"
 "http://www.w3.org/TR/2001/REC-SVG-20010904/DTD/svg10.dtd">
<svg version="1.0" xmlns="http://www.w3.org/2000/svg"
 width="1605.000000pt" height="1568.000000pt" viewBox="0 0 1605.000000 1568.000000"
 preserveAspectRatio="xMidYMid meet">

<g transform="translate(0.000000,1568.000000) scale(0.100000,-0.100000)"
fill="#000000" stroke="none">
<path d="M7893 15652 c-159 -57 -270 -191 -309 -374 -22 -102 -13 -319 20
-503 71 -387 107 -901 71 -1021 -14 -47 -45 -98 -110 -180 -28 -34 -30 -45
-33 -131 -3 -78 -7 -93 -20 -93 -10 0 -76 -7 -147 -15 -851 -95 -1662 -367
-2380 -798 -402 -241 -750 -510 -1107 -856 l-157 -153 -78 54 -77 53 -105 0
c-90 0 -113 3 -151 23 -121 60 -495 405 -735 676 -143 162 -284 287 -386 341
-206 108 -428 80 -573 -74 -68 -74 -98 -146 -104 -252 -7 -135 24 -239 104
-344 53 -69 228 -203 361 -276 369 -205 707 -428 852 -564 65 -61 95 -118 114
-218 14 -73 17 -79 65 -122 28 -26 61 -54 74 -64 l22 -18 -60 -94 c-726 -1131
-1046 -2501 -894 -3833 16 -136 18 -181 9 -187 -6 -4 -49 -17 -94 -29 -77 -21
-85 -26 -119 -70 -66 -87 -137 -146 -197 -163 -203 -59 -613 -117 -944 -132
-466 -23 -690 -134 -775 -386 -18 -52 -21 -81 -18 -155 3 -78 9 -101 36 -157
38 -77 124 -162 204 -201 57 -28 170 -56 229 -56 109 0 314 57 538 150 350
145 799 281 933 282 60 1 78 -4 160 -44 l93 -44 97 16 97 16 46 -134 c440
-1271 1311 -2353 2483 -3086 50 -32 92 -61 92 -66 0 -4 -17 -49 -38 -100 l-38
-91 19 -57 c11 -31 22 -86 24 -122 5 -62 3 -72 -44 -176 -80 -179 -291 -535
-438 -739 -150 -207 -238 -367 -270 -492 -17 -66 -19 -188 -4 -252 29 -126
112 -232 227 -288 74 -37 79 -38 187 -38 111 0 112 0 197 42 109 55 185 133
250 259 62 120 81 170 138 364 51 173 187 565 245 709 19 46 53 115 76 154 74
124 129 172 230 197 41 10 47 17 79 77 19 36 42 78 51 93 l17 27 244 -82 c619
-207 1218 -305 1873 -305 654 0 1238 94 1855 300 113 37 212 71 220 74 11 4
27 -17 62 -82 46 -86 48 -88 100 -105 122 -38 178 -97 261 -276 86 -188 207
-521 272 -753 131 -462 277 -650 538 -688 212 -31 417 113 467 329 16 69 16
171 1 242 -21 93 -132 302 -241 454 -184 255 -398 613 -475 793 -50 115 -54
167 -22 263 l26 75 -34 85 c-19 46 -35 89 -35 94 0 6 29 28 65 49 102 59 338
220 470 319 935 703 1647 1678 2031 2782 42 121 56 151 72 153 11 2 55 -4 98
-12 78 -15 79 -15 114 8 103 68 165 83 261 66 193 -34 611 -167 872 -277 401
-169 626 -191 810 -76 302 186 267 615 -64 775 -122 59 -289 92 -519 103 -328
15 -746 73 -936 131 -92 27 -153 74 -214 162 -32 48 -37 51 -116 72 -44 12
-86 25 -92 29 -8 5 -9 24 -2 66 57 360 59 995 4 1445 -107 875 -408 1720 -876
2458 -43 68 -78 127 -78 131 0 4 35 39 79 78 l78 72 5 65 c9 104 43 161 147
249 172 144 463 336 740 489 183 101 228 130 324 210 188 157 261 341 212 533
-65 250 -340 378 -601 280 -122 -46 -272 -167 -442 -358 -146 -164 -422 -439
-542 -539 -190 -160 -228 -177 -382 -178 l-88 0 -82 -59 -82 -59 -150 149
c-925 911 -2174 1510 -3456 1658 -52 6 -114 14 -136 17 l-41 5 -5 100 -5 100
-50 52 c-85 87 -96 119 -101 285 -6 215 32 615 88 922 27 146 36 341 21 440
-25 164 -131 315 -268 381 -59 29 -80 33 -163 36 -73 3 -107 -1 -147 -15z
m-460 -3947 c-13 -236 -26 -436 -28 -442 -4 -10 -233 -13 -1101 -13 -959 0
-1095 2 -1084 15 18 22 312 215 435 286 145 83 460 235 610 294 256 101 581
197 835 246 163 31 344 57 351 50 3 -3 -5 -199 -18 -436z m1537 380 c585 -120
1181 -371 1685 -710 61 -41 124 -86 140 -99 l30 -25 -1088 -1 c-861 0 -1088 3
-1092 13 -5 16 -53 870 -49 878 4 8 214 -24 374 -56z m3338 -2442 l-3 -938
-4280 0 -4280 0 -3 938 -2 937 4285 0 4285 0 -2 -937z m-8246 -1540 l3 -358
105 124 c58 68 116 137 130 153 l25 29 144 -3 145 -3 -100 -115 c-54 -63 -131
-149 -170 -190 l-72 -75 59 -65 c78 -85 182 -230 241 -332 l48 -83 -143 -3
c-78 -1 -143 1 -144 5 -16 48 -244 353 -264 353 -5 0 -9 -74 -9 -180 l0 -180
-120 0 -120 0 0 619 0 619 73 12 c39 7 90 16 112 20 22 4 43 8 47 9 4 1 9
-160 10 -356z m1838 143 l0 -214 48 15 c57 18 182 20 237 5 100 -28 185 -113
226 -227 27 -76 37 -261 19 -344 -39 -178 -165 -293 -347 -321 -82 -13 -232
-2 -353 26 l-70 16 0 608 0 608 73 12 c39 7 90 16 112 20 22 4 43 8 48 9 4 1
7 -95 7 -213z m4420 -71 l0 -125 140 0 140 0 0 -110 0 -110 -140 0 -140 0 0
-180 c0 -212 8 -242 67 -266 39 -17 127 -13 180 7 14 5 28 8 30 6 7 -8 34
-180 29 -192 -8 -22 -119 -45 -217 -45 -130 0 -189 19 -249 79 -84 84 -84 83
-88 584 -2 240 -2 437 0 438 61 12 209 37 226 38 22 1 22 -1 22 -124z m-3168
-137 c147 -68 218 -201 218 -415 l0 -93 -270 0 c-198 0 -270 -3 -270 -12 0 -6
11 -30 25 -54 38 -64 96 -89 210 -88 52 0 117 7 154 17 35 10 66 15 69 13 5
-6 31 -160 32 -187 0 -21 -81 -45 -201 -61 -247 -31 -438 62 -509 249 -28 72
-38 240 -21 325 33 158 136 275 286 325 65 21 210 11 277 -19z m885 11 c29 -6
55 -14 58 -19 4 -7 -31 -199 -38 -206 -1 -1 -36 4 -77 12 -47 9 -97 13 -132 8
l-58 -6 0 -329 0 -329 -120 0 -120 0 2 413 3 412 80 23 c143 41 268 47 402 21z
m700 -3 c67 -21 144 -90 171 -154 34 -79 42 -162 42 -444 l0 -268 -125 0 -125
0 -1 273 c0 177 -5 286 -12 311 -21 67 -85 96 -181 82 l-46 -7 0 -330 0 -329
-120 0 -120 0 0 419 c0 391 1 420 18 425 21 6 174 34 222 40 65 8 225 -3 277
-18z m945 -8 c147 -68 218 -201 218 -415 l0 -93 -270 0 c-198 0 -270 -3 -270
-12 0 -6 11 -30 25 -54 38 -64 96 -89 210 -88 52 0 117 7 154 17 35 10 66 15
69 13 5 -6 31 -160 32 -187 0 -21 -81 -45 -201 -61 -247 -31 -438 62 -509 249
-28 72 -38 240 -21 325 33 158 136 275 286 325 65 21 210 11 277 -19z m1600 0
c147 -68 218 -201 218 -415 l0 -93 -270 0 c-198 0 -270 -3 -270 -12 0 -6 11
-30 25 -54 38 -64 96 -89 210 -88 52 0 117 7 154 17 35 10 66 15 69 13 5 -6
31 -160 32 -187 0 -21 -81 -45 -201 -61 -247 -31 -438 62 -509 249 -28 72 -38
240 -21 325 33 158 136 275 286 325 65 21 210 11 277 -19z m897 8 c29 -8 55
-17 58 -20 8 -7 -28 -185 -38 -192 -5 -2 -35 2 -68 11 -32 8 -91 15 -130 15
-58 0 -75 -4 -92 -21 -14 -14 -18 -27 -13 -42 11 -36 22 -44 102 -77 228 -94
282 -153 282 -305 0 -117 -57 -194 -176 -237 -79 -29 -275 -31 -379 -5 -105
27 -101 20 -80 128 10 52 20 97 24 100 3 4 47 -4 96 -17 178 -46 292 -23 265
52 -8 21 -36 37 -185 104 -151 68 -190 122 -190 261 0 78 3 90 30 135 34 54
110 107 179 123 56 14 249 6 315 -13z m-7219 -275 c0 -280 5 -325 38 -364 22
-25 84 -39 142 -31 l50 7 0 333 0 334 125 0 125 0 0 -424 0 -423 -82 -19 c-63
-14 -122 -19 -248 -19 -151 0 -169 2 -215 23 -95 44 -153 123 -174 237 -6 33
-11 180 -11 342 l0 283 125 0 125 0 0 -279z m7348 -1893 l2 -938 -4285 0
-4285 0 0 933 c0 514 3 937 7 940 3 4 1930 6 4282 5 l4276 -3 3 -937z m-6542
-1717 c-3 -5 -67 -157 -142 -337 -75 -181 -138 -331 -140 -333 -5 -6 -160 98
-279 187 -155 117 -313 251 -442 377 l-118 114 563 1 c330 0 561 -4 558 -9z
m3449 -571 c176 -319 321 -586 323 -593 6 -27 -422 -142 -708 -191 -304 -52
-420 -61 -805 -61 -385 0 -489 8 -800 61 -258 44 -713 167 -708 192 1 5 147
272 324 591 l321 581 867 0 866 -1 320 -579z m2091 463 c-131 -126 -310 -279
-451 -383 -134 -99 -275 -193 -281 -188 -5 6 -284 676 -284 684 0 2 255 4 568
4 l567 -1 -119 -116z"/>
<path d="M4543 10085 c-220 -61 -355 -240 -355 -470 0 -162 67 -304 184 -391
89 -65 154 -87 280 -92 156 -6 255 28 368 126 l35 31 -66 67 -67 67 -38 -31
c-133 -107 -319 -99 -414 16 -97 118 -92 316 11 422 56 57 109 80 190 80 80 0
135 -18 199 -65 l48 -35 62 70 c38 43 60 76 57 85 -9 21 -105 82 -168 107 -71
28 -249 35 -326 13z"/>
<path d="M5260 9615 l0 -475 355 0 355 0 0 90 0 90 -255 0 -255 0 0 105 0 105
225 0 225 0 0 90 0 90 -225 0 -225 0 0 100 0 100 255 0 255 0 0 90 0 90 -355
0 -355 0 0 -475z"/>
<path d="M6200 9616 l0 -476 100 0 100 0 0 155 0 155 83 0 82 -1 104 -154 103
-155 119 0 120 0 -116 170 -116 169 43 22 c59 29 95 65 126 124 24 45 27 61
27 150 0 92 -2 104 -30 154 -34 62 -89 106 -168 135 -44 16 -91 19 -314 23
l-263 5 0 -476z m487 273 c97 -36 119 -152 42 -225 l-30 -29 -150 -3 -149 -3
0 135 0 136 129 0 c71 0 142 -5 158 -11z"/>
<path d="M7150 9995 l0 -95 145 0 145 0 0 -380 0 -380 100 0 100 0 0 380 0
380 145 0 145 0 0 95 0 95 -390 0 -390 0 0 -95z"/>
<path d="M8140 9615 l0 -475 100 0 100 0 0 475 0 475 -100 0 -100 0 0 -475z"/>
<path d="M8620 9615 l0 -475 100 0 100 0 0 185 0 185 225 0 225 0 0 90 0 90
-225 0 -225 0 0 105 0 105 255 0 255 0 0 95 0 95 -355 0 -355 0 0 -475z"/>
<path d="M9550 9615 l0 -475 100 0 100 0 0 475 0 475 -100 0 -100 0 0 -475z"/>
<path d="M10030 9615 l0 -475 355 0 355 0 0 90 0 90 -255 0 -255 0 0 105 0
105 225 0 225 0 0 90 0 90 -225 0 -225 0 0 100 0 100 255 0 255 0 0 90 0 90
-355 0 -355 0 0 -475z"/>
<path d="M10970 9616 l0 -476 198 0 c235 0 303 10 400 55 99 47 173 118 220
214 37 75 37 75 37 205 0 127 -1 133 -32 199 -58 121 -162 208 -303 252 -43
13 -107 18 -287 22 l-233 6 0 -477z m452 274 c112 -31 188 -130 196 -255 8
-124 -37 -214 -136 -273 -44 -25 -56 -27 -179 -30 l-133 -4 0 286 0 286 108 0
c59 0 124 -5 144 -10z"/>
<path d="M5945 7835 c-22 -8 -41 -15 -42 -15 -2 0 -3 -98 -3 -219 l0 -218 31
-7 c108 -21 185 12 232 99 19 34 22 57 22 145 0 117 -16 166 -67 203 -35 26
-120 32 -173 12z"/>
<path d="M6930 7849 c-47 -19 -79 -60 -94 -121 l-6 -28 151 0 152 0 -6 37
c-15 91 -111 146 -197 112z"/>
<path d="M9460 7849 c-47 -19 -79 -60 -94 -121 l-6 -28 151 0 152 0 -6 37
c-15 91 -111 146 -197 112z"/>
<path d="M11060 7849 c-47 -19 -79 -60 -94 -121 l-6 -28 151 0 152 0 -6 37
c-15 91 -111 146 -197 112z"/>
<path d="M4441 6168 c-5 -13 -64 -151 -130 -306 -67 -156 -121 -286 -121 -288
0 -2 28 -4 63 -4 l62 0 26 68 26 67 137 0 138 0 27 -65 28 -65 66 -3 67 -3
-23 53 c-13 29 -73 169 -133 311 l-109 257 -58 0 c-50 0 -59 -3 -66 -22z m111
-240 c21 -50 38 -95 38 -100 0 -4 -39 -8 -86 -8 -84 0 -85 0 -78 23 17 54 77
187 82 182 3 -3 23 -46 44 -97z"/>
<path d="M7776 6176 c-103 -39 -154 -150 -109 -243 22 -47 69 -75 190 -112
101 -31 123 -46 123 -85 0 -9 -9 -25 -20 -36 -39 -39 -182 -18 -241 36 -14 13
-20 10 -53 -30 l-37 -45 42 -31 c55 -40 127 -60 211 -60 137 0 219 67 220 179
0 98 -41 138 -186 182 -114 35 -136 50 -136 90 0 64 103 77 196 25 l44 -25 31
45 c36 53 33 61 -44 94 -65 29 -176 36 -231 16z"/>
<path d="M9631 6168 c-5 -13 -64 -151 -130 -306 -67 -156 -121 -286 -121 -288
0 -2 28 -4 63 -4 l62 0 26 68 26 67 137 0 138 0 27 -65 28 -65 66 -3 67 -3
-23 53 c-13 29 -73 169 -133 311 l-109 257 -58 0 c-50 0 -59 -3 -66 -22z m111
-240 c21 -50 38 -95 38 -100 0 -4 -39 -8 -86 -8 -84 0 -85 0 -78 23 17 54 77
187 82 182 3 -3 23 -46 44 -97z"/>
<path d="M10764 6169 c-71 -27 -137 -88 -171 -157 -38 -77 -39 -191 -3 -267
117 -242 468 -240 587 3 58 119 27 273 -74 361 -89 79 -228 103 -339 60z m206
-115 c34 -17 77 -63 89 -97 27 -72 5 -183 -46 -229 -29 -26 -88 -48 -130 -48
-147 1 -233 166 -160 307 41 78 161 111 247 67z"/>
<path d="M4930 5876 l0 -306 118 0 c239 0 344 46 409 178 23 47 28 70 27 132
-1 123 -60 216 -173 269 -52 24 -68 26 -218 29 l-163 3 0 -305z m292 184 c48
-14 97 -55 114 -97 22 -51 18 -141 -9 -188 -33 -59 -90 -85 -189 -85 l-78 0 0
190 0 190 63 0 c34 0 79 -5 99 -10z"/>
<path d="M5620 5875 l0 -305 60 0 60 0 0 200 c0 110 3 200 8 200 4 0 43 -56
87 -125 44 -69 82 -125 85 -125 3 0 41 56 85 125 44 68 83 125 88 125 4 0 7
-90 7 -200 l0 -200 65 0 65 0 0 305 0 305 -72 0 -73 0 -80 -129 c-44 -71 -82
-128 -85 -126 -4 2 -41 60 -84 129 l-78 126 -69 0 -69 0 0 -305z"/>
<path d="M6380 5875 l0 -305 65 0 65 0 0 305 0 305 -65 0 -65 0 0 -305z"/>
<path d="M6680 5875 l0 -305 60 0 60 0 0 195 c0 107 4 195 8 195 4 0 75 -88
156 -195 l149 -195 53 0 54 0 0 305 0 305 -65 0 -65 0 -2 -190 -3 -190 -144
190 -144 190 -58 0 -59 0 0 -305z"/>
<path d="M7380 5875 l0 -305 65 0 65 0 0 305 0 305 -65 0 -65 0 0 -305z"/>
<path d="M8170 6120 l0 -60 95 0 95 0 0 -245 0 -245 65 0 65 0 0 245 0 245 95
0 95 0 0 60 0 60 -255 0 -255 0 0 -60z"/>
<path d="M8790 5876 l0 -306 65 0 65 0 0 100 0 100 55 0 55 0 66 -100 67 -100
74 0 74 0 -76 110 -76 109 28 15 c37 19 79 64 92 99 18 46 13 126 -10 174 -15
30 -35 52 -67 71 -46 26 -51 27 -229 30 l-183 4 0 -306z m319 183 c38 -13 51
-35 51 -87 0 -28 -7 -45 -26 -63 -23 -21 -36 -24 -120 -27 l-94 -4 0 96 0 96
79 0 c43 0 92 -5 110 -11z"/>
<path d="M9990 6120 l0 -60 95 0 95 0 0 -245 0 -245 65 0 65 0 0 245 0 245 95
0 95 0 0 60 0 60 -255 0 -255 0 0 -60z"/>
<path d="M11340 5876 l0 -306 65 0 65 0 0 100 0 100 55 0 55 0 66 -100 67
-100 74 0 74 0 -76 110 -76 109 28 15 c37 19 79 64 92 99 18 46 13 126 -10
174 -15 30 -35 52 -67 71 -46 26 -51 27 -229 30 l-183 4 0 -306z m319 183 c38
-13 51 -35 51 -87 0 -28 -7 -45 -26 -63 -23 -21 -36 -24 -120 -27 l-94 -4 0
96 0 96 79 0 c43 0 92 -5 110 -11z"/>
</g>
</svg>
