<?xml version="1.0" encoding="UTF-8"?>
<svg version="1.1" xmlns="http://www.w3.org/2000/svg" width="1605" height="1568">
<path d="M0 0 C11.00038265 8.29884405 18.0128932 19.28009086 20.75 32.8125 C21.30922195 37.47630247 21.57857482 42.11973561 21.75 46.8125 C21.811875 48.13507812 21.811875 48.13507812 21.875 49.484375 C22.18672782 62.03141988 20.19043954 74.55561155 18.02294922 86.87182617 C13.38381718 113.29600065 10.42009286 139.77599065 10.25 166.625 C10.23433487 167.82467407 10.23433487 167.82467407 10.21835327 169.04858398 C10.09735314 180.79731622 10.84544871 190.52731743 19.4375 199.375 C20.22511719 200.20128906 21.01273438 201.02757812 21.82421875 201.87890625 C22.79880327 202.85744446 23.77343663 203.83593663 24.75 204.8125 C24.97623521 206.29687809 25.14412965 207.79027425 25.28515625 209.28515625 C25.37216797 210.18427734 25.45917969 211.08339844 25.54882812 212.00976562 C25.6793457 213.42805664 25.6793457 213.42805664 25.8125 214.875 C25.90337891 215.82439453 25.99425781 216.77378906 26.08789062 217.75195312 C26.31256498 220.10512135 26.53308182 222.45860619 26.75 224.8125 C27.59780029 224.90748779 28.44560059 225.00247559 29.3190918 225.1003418 C123.20647002 235.73994314 212.74268016 264.75603548 351.93261719 359.29931641 C354.38415837 361.34051096 356.88153264 363.32287487 359.375 365.3125 C365.84932747 370.59806628 371.86175036 376.37606956 377.93505859 382.11083984 C380.59528873 384.60502925 383.29832365 387.05092483 386 389.5 C391.76576732 394.76439625 397.27895388 400.24452589 402.75 405.8125 C406.79877789 404.45102715 409.12990456 402.61528765 412.25 399.75 C418.5301472 394.98634128 424.4230922 394.95328473 432.13671875 395.02514648 C441.19720183 395.08666204 447.3412812 392.59653949 454.5625 387.25 C455.16143066 386.81453857 455.76036133 386.37907715 456.37744141 385.93041992 C461.21742606 382.34769942 465.67404658 378.46617308 470.0546875 374.33203125 C472.14426312 372.3787323 474.25791843 370.50286347 476.42456055 368.63842773 C480.6606895 364.93826527 484.67290592 361.05099429 488.65234375 357.078125 C489.37434464 356.35945251 490.09634552 355.64078003 490.84022522 354.90032959 C492.35662074 353.38896241 493.87169545 351.87626896 495.38549805 350.36230469 C497.67281077 348.07717521 499.96800618 345.80017139 502.26367188 343.5234375 C509.17505719 336.63797957 515.8644841 329.78809962 521.90795898 322.11962891 C536.35113772 304.02976289 555.47954751 288.31263856 578.75 284.8125 C581.81819783 284.51086458 584.68415812 284.50760965 587.75 284.8125 C588.50152344 284.88210938 589.25304688 284.95171875 590.02734375 285.0234375 C600.66708649 286.57542591 612.20427975 292.13766106 618.75 300.8125 C625.48622335 309.87432427 629.28568885 321.45875546 627.75 332.8125 C625.98376424 342.41204126 623.74105347 350.91027336 617.75 358.8125 C616.86441406 359.98619141 616.86441406 359.98619141 615.9609375 361.18359375 C605.20348662 374.16314356 590.48434979 383.04909601 575.75 390.8125 C561.82453019 398.19957326 548.58546756 406.28527764 535.46484375 415.02441406 C532.66119559 416.87098952 529.8333056 418.67423283 526.99609375 420.46875 C501.89298683 435.63450575 501.89298683 435.63450575 485.265625 458.484375 C484.67282228 460.91929284 484.67282228 460.91929284 484.484375 463.890625 C483.8867237 470.65352125 483.04448582 474.29782971 477.875 478.9375 C476.19531425 480.26620664 474.4883573 481.5615326 472.75 482.8125 C471.98429687 483.38742187 471.21859375 483.96234375 470.4296875 484.5546875 C469.87539062 484.96976562 469.32109375 485.38484375 468.75 485.8125 C469.36621875 488.86064989 470.34803491 491.02772018 472.05078125 493.62109375 C472.76524414 494.72469238 472.76524414 494.72469238 473.49414062 495.85058594 C474.27047852 497.0382959 474.27047852 497.0382959 475.0625 498.25 C524.02420314 574.5726549 553.8161446 661.640913 564.0625 751.5625 C564.14390228 752.27626801 564.22530457 752.99003601 564.30917358 753.72543335 C565.95569464 768.37073773 566.90261388 782.95992402 566.953125 797.703125 C566.95997866 799.08974226 566.96688201 800.47635928 566.97383118 801.86297607 C566.99270871 806.2628196 566.99722849 810.66262155 567 815.0625 C567.001031 815.80908875 567.002062 816.55567749 567.00312424 817.32489014 C567.03112259 838.89079413 566.67526204 860.26224651 564.11376953 881.703125 C563.56453915 886.39775459 563.15303746 891.10338875 562.75 895.8125 C563.86117188 896.02261719 564.97234375 896.23273437 566.1171875 896.44921875 C576.66543923 898.78338583 581.67350435 901.78592371 587.65625 910.71484375 C595.2296119 921.91946312 609.25134734 923.77998966 621.71142578 926.328125 C646.9259739 931.13921016 672.71268982 933.77019438 698.33059692 935.04406738 C708.99218447 935.57758724 719.32082822 936.48407639 729.75 938.8125 C730.40403809 938.95413574 731.05807617 939.09577148 731.73193359 939.24169922 C746.88270436 942.59167419 760.25999888 948.55578418 769.6640625 961.43359375 C776.95944179 973.23917057 779.87000624 985.369955 777.06640625 999.1796875 C775.07372301 1005.67864613 772.29540075 1010.77658838 767.75 1015.8125 C766.92822266 1016.73675781 766.92822266 1016.73675781 766.08984375 1017.6796875 C756.91498439 1027.41883206 745.74101045 1031.80039984 732.40771484 1032.33813477 C713.18060726 1032.60483449 695.27414002 1026.74307231 677.83984375 1019.109375 C625.77519457 994.38541881 625.77519457 994.38541881 571.75 991.5 C569.17900858 992.58169761 566.99159773 993.63318919 564.75 995.296875 C559.8827314 998.83324984 556.49352557 998.9658258 550.70117188 998.08227539 C547.02669534 997.41383186 543.39015657 996.64891138 539.75 995.8125 C539.50991211 996.53912842 539.26982422 997.26575684 539.02246094 998.0144043 C516.37246403 1066.14018286 482.8746935 1129.80969036 437.75 1185.8125 C436.63044922 1187.20662109 436.63044922 1187.20662109 435.48828125 1188.62890625 C420.8911075 1206.63296076 405.23528102 1223.4099805 388.875 1239.8125 C388.28709686 1240.40308197 387.69919373 1240.99366394 387.09347534 1241.60214233 C380.8225007 1247.89477006 374.53783524 1254.07227468 367.75 1259.8125 C366.55797571 1260.85718813 365.36786428 1261.90406297 364.1796875 1262.953125 C355.91580525 1270.19768389 347.48222324 1277.14090164 338.75 1283.8125 C338.1410791 1284.27978516 337.5321582 1284.74707031 336.90478516 1285.22851562 C319.78791824 1298.33327051 302.15511887 1310.46707883 283.70092773 1321.61425781 C282.02678273 1322.64250255 280.38472977 1323.72268015 278.75 1324.8125 C279.55807646 1329.92405345 281.63334908 1334.2062726 283.7890625 1338.875 C285.29026057 1343.46402824 283.88928066 1346.61316847 282.1875 1350.9375 C277.3752695 1365.68855833 284.84976396 1378.19717633 291.36425781 1391.17578125 C302.35034816 1412.54798359 315.42402315 1433.09406617 329.61206055 1452.48706055 C345.37765055 1474.04732541 359.34970826 1496.09249758 356.75 1523.8125 C354.50585483 1535.79463226 348.05013855 1545.91239693 338.3125 1553.15625 C327.0413998 1560.4412294 314.41667038 1561.45883742 301.35546875 1559.234375 C286.24317762 1554.7836333 275.82322678 1544.28682561 268.30151367 1530.86401367 C261.41224219 1518.11907587 257.04592383 1505.04653075 253.1875 1491.125 C240.15022876 1435.7889805 240.15022876 1435.7889805 209.3203125 1392.3359375 C208.51335937 1391.95695312 207.70640625 1391.57796875 206.875 1391.1875 C206.07320312 1390.80335937 205.27140625 1390.41921875 204.4453125 1390.0234375 C201.68370234 1388.72045607 201.68370234 1388.72045607 198.39013672 1387.74853516 C193.67292265 1385.73073292 192.03088581 1382.04248132 189.8125 1377.625 C189.41482422 1376.87541016 189.01714844 1376.12582031 188.60742188 1375.35351562 C187.63616465 1373.51631823 186.6904417 1371.66566062 185.75 1369.8125 C184.77579102 1370.13412109 183.80158203 1370.45574219 182.79785156 1370.78710938 C129.28693545 1388.42363037 76.08077211 1401.64508477 19.75 1405.8125 C18.49807861 1405.90748779 17.24615723 1406.00247559 15.95629883 1406.1003418 C3.33445947 1406.98840274 -9.28938559 1407.01253967 -21.9375 1407 C-23.62900177 1406.99909363 -23.62900177 1406.99909363 -25.35467529 1406.99816895 C-43.07030124 1406.97245094 -60.61225188 1406.6027886 -78.25 1404.8125 C-79.53825684 1404.68359375 -80.82651367 1404.5546875 -82.15380859 1404.421875 C-134.42142962 1399.07393981 -184.64920965 1385.81007252 -234.25 1368.8125 C-234.49008789 1369.33682617 -234.73017578 1369.86115234 -234.97753906 1370.40136719 C-242.04901299 1385.44238559 -242.04901299 1385.44238559 -247.375 1388.7578125 C-250.32520524 1389.63549856 -253.22390944 1390.26349954 -256.25 1390.8125 C-264.71011061 1395.12236767 -269.17344905 1403.23903351 -273.3125 1411.4375 C-273.61655762 1412.03916992 -273.92061523 1412.64083984 -274.23388672 1413.26074219 C-280.30053289 1425.72662873 -284.80597535 1438.91635539 -289.35449219 1451.99023438 C-290.2446842 1454.54723083 -291.14148666 1457.10183744 -292.0390625 1459.65625 C-296.86761801 1473.4502306 -301.5557122 1487.30718029 -305.35083008 1501.42602539 C-311.44625714 1523.62372917 -320.9821752 1544.15347562 -341.37890625 1556.0546875 C-351.76928156 1561.62604334 -364.14722261 1562.73518069 -375.5625 1559.6875 C-388.06786509 1555.24207121 -396.29092896 1547.85592466 -401.96191406 1535.99365234 C-407.34508763 1524.23238494 -408.18397113 1510.7726345 -404.5390625 1498.25390625 C-399.33000984 1484.34731416 -392.45756611 1471.7156289 -383.68408203 1459.76611328 C-365.43164553 1434.90128575 -349.02530288 1408.42325992 -335.25 1380.8125 C-334.7034375 1379.74 -334.156875 1378.6675 -333.59375 1377.5625 C-329.38780078 1368.58980832 -328.69463204 1359.96961756 -331.8125 1350.5 C-332.10253906 1349.78199219 -332.39257812 1349.06398438 -332.69140625 1348.32421875 C-334.14678045 1341.78012355 -331.73025595 1335.74756377 -329.1875 1329.8125 C-328.90583984 1329.13316406 -328.62417969 1328.45382812 -328.33398438 1327.75390625 C-327.64808689 1326.10310213 -326.95030171 1324.45724531 -326.25 1322.8125 C-326.89324219 1322.59464844 -327.53648437 1322.37679688 -328.19921875 1322.15234375 C-332.42245127 1320.29758222 -336.18225301 1317.85664391 -340.0625 1315.375 C-340.90490234 1314.83858887 -341.74730469 1314.30217773 -342.61523438 1313.74951172 C-363.05380613 1300.66158681 -382.60769536 1286.35107514 -401.25 1270.8125 C-401.82975586 1270.33184082 -402.40951172 1269.85118164 -403.00683594 1269.35595703 C-410.38628142 1263.23038295 -417.52741412 1256.89385249 -424.55297852 1250.3659668 C-425.8405202 1249.18734102 -427.14007254 1248.02181939 -428.44506836 1246.86254883 C-434.49608554 1241.48406634 -440.30767416 1235.91087599 -446.01928711 1230.17358398 C-447.44337492 1228.74410283 -448.87278044 1227.32009489 -450.30273438 1225.89648438 C-454.9539664 1221.2387698 -459.4836077 1216.53793939 -463.76782227 1211.53979492 C-465.82817523 1209.13870824 -467.97826457 1206.82382303 -470.125 1204.5 C-475.04507305 1199.09756684 -479.69355013 1193.52335243 -484.25 1187.8125 C-484.65798828 1187.30412598 -485.06597656 1186.79575195 -485.48632812 1186.27197266 C-508.74217652 1157.25541983 -529.37947463 1126.33517744 -546.82226562 1093.48730469 C-548.18088976 1090.94197534 -549.56358798 1088.41136417 -550.953125 1085.8828125 C-566.29350002 1057.68120168 -578.31396043 1027.30324738 -588.25 996.8125 C-589.17039062 996.96589844 -590.09078125 997.11929688 -591.0390625 997.27734375 C-592.09867188 997.45394531 -593.15828125 997.63054688 -594.25 997.8125 C-595.36375 997.998125 -596.4775 998.18375 -597.625 998.375 C-605.42401572 999.31626052 -610.11101419 998.97445987 -617 995.375 C-636.62041624 985.48646686 -660.06032427 995.95965808 -679.71484375 1002.296875 C-697.22442487 1008.07651581 -714.42062407 1014.58598808 -731.4375 1021.6875 C-753.2067654 1030.70657719 -777.28674766 1038.27489317 -800.375 1029.75 C-812.14941961 1024.41495914 -819.96283191 1016.0936811 -825.33984375 1004.453125 C-829.06698257 994.21637507 -828.52893914 981.68623912 -824.63671875 971.62109375 C-818.16092218 958.50532548 -807.8346719 949.07637396 -794.25 943.8125 C-791.16986531 942.79976681 -788.06744146 941.90784256 -784.9375 941.0625 C-784.20418457 940.86374268 -783.47086914 940.66498535 -782.71533203 940.46020508 C-770.48659779 937.38655317 -757.98657069 936.58199501 -745.4375 936 C-689.26040858 935.51981424 -689.26040858 935.51981424 -640.5 915.625 C-639.76265625 914.84253906 -639.0253125 914.06007813 -638.265625 913.25390625 C-636.22878845 910.89325668 -636.22878845 910.89325668 -634.734375 908.40234375 C-629.41998243 900.02518283 -621.42843718 898.8670658 -612.25 896.8125 C-612.70765895 889.23376963 -613.2332202 881.67851522 -613.99072266 874.12304688 C-615.87299445 855.25645043 -616.73184838 836.59356829 -616.64111328 817.63525391 C-616.62402267 814.03289808 -616.63423181 810.43120794 -616.65142918 806.82887459 C-616.76235772 779.36191901 -614.80716797 752.09229974 -610.5625 724.9375 C-610.43783356 724.12273193 -610.31316711 723.30796387 -610.1847229 722.46850586 C-597.98550535 643.25374373 -569.119289 567.37039212 -526.83203125 499.375 C-524.26243059 495.21288141 -521.75462241 491.01394769 -519.25 486.8125 C-519.81565674 486.23725586 -520.38131348 485.66201172 -520.96411133 485.06933594 C-522.3133138 483.69726562 -523.66251628 482.32519531 -525.01171875 480.953125 C-527.20204339 478.73225795 -527.20204339 478.73225795 -529.89453125 477.05859375 C-533.09866643 474.00324096 -533.51472087 470.81768452 -534.25 466.625 C-538.95781399 444.18780917 -559.17379859 432.70554711 -577.33203125 420.78125 C-593.81437675 410.10067992 -610.50429386 399.8478744 -627.8125 390.5625 C-635.44237057 386.45789763 -642.49919584 382.27319991 -649.25 376.8125 C-650.16652344 376.10738281 -651.08304688 375.40226562 -652.02734375 374.67578125 C-664.47835722 364.88918219 -674.32739656 353.80734954 -677.25 337.8125 C-678.78075029 323.60155235 -676.31090661 311.65145405 -667.375 300.21875 C-659.4127448 291.20266691 -648.16927205 286.41484045 -636.2421875 285.609375 C-617.6336772 285.32954778 -603.99781376 292.67237661 -590.25 304.8125 C-589.44175781 305.49957031 -588.63351562 306.18664062 -587.80078125 306.89453125 C-578.48623025 314.97914154 -570.29929875 324.24407825 -562.24609375 333.5625 C-552.44971492 344.60499356 -542.35551104 355.53081471 -531.13671875 365.140625 C-529.31540284 366.75454468 -527.62732032 368.43747231 -525.9375 370.1875 C-521.38070495 374.80601236 -516.32755101 378.78570183 -511.25 382.8125 C-510.7044043 383.25094238 -510.15880859 383.68938477 -509.59667969 384.14111328 C-507.90470481 385.49887691 -506.20377534 386.84458516 -504.5 388.1875 C-503.47390625 388.99960937 -502.4478125 389.81171875 -501.390625 390.6484375 C-495.42730348 394.75749238 -489.50664738 396.77848447 -482.25 396.8125 C-481.3425 396.64105469 -480.435 396.46960938 -479.5 396.29296875 C-474.34006819 395.33920476 -470.89020987 395.16370436 -466.37109375 397.96875 C-462.84512785 400.40302007 -459.52680346 403.05436217 -456.25 405.8125 C-452.25914912 404.2141536 -449.61472923 401.41643055 -446.671875 398.39453125 C-446.14160706 397.85906174 -445.61133911 397.32359222 -445.06500244 396.77189636 C-443.37182944 395.06096248 -441.68547792 393.34351232 -440 391.625 C-433.26848958 384.78133025 -426.58035056 378.02318151 -419.25 371.8125 C-417.7051874 370.3992645 -416.16304675 368.98309591 -414.625 367.5625 C-409.58535186 363.01527549 -404.30229136 358.8472757 -398.94140625 354.69140625 C-395.87303536 352.31084358 -392.85181023 349.877546 -389.83862305 347.42773438 C-320.43312515 291.17343094 -235.28404376 253.25309124 -106.4375 227.9375 C-105.67099121 227.83368011 -104.90448242 227.72986023 -104.11474609 227.62289429 C-94.50507503 226.33900007 -84.93192046 225.37981881 -75.25 224.8125 C-75.26087646 223.97372314 -75.27175293 223.13494629 -75.28295898 222.27075195 C-75.31445439 219.11678663 -75.28499981 215.96637192 -75.25 212.8125 C-75.26933594 212.06613281 -75.28867187 211.31976563 -75.30859375 210.55078125 C-75.13285017 204.77467569 -72.1058708 202.09814916 -68.32421875 198.1875 C-56.0564466 184.14078537 -59.30211451 161.30506541 -60.43878174 143.92614746 C-62.19838724 121.05175164 -65.11253428 98.26566453 -69.234375 75.69921875 C-72.89060529 55.29630858 -74.1841436 31.4940783 -62.68359375 13.33984375 C-47.6412585 -7.007445 -22.01634323 -14.40947883 0 0 Z M32.75 346.8125 C33.34738078 363.14997956 34.11640145 379.47166434 35.05224609 395.79321289 C35.25286723 399.30011996 35.44886485 402.80726646 35.64453125 406.31445312 C35.77316539 408.58334878 35.90206171 410.85222958 36.03125 413.12109375 C36.088573 414.15036484 36.145896 415.17963593 36.20495605 416.24009705 C36.26171509 417.2197493 36.31847412 418.19940155 36.37695312 419.20874023 C36.42501099 420.0526683 36.47306885 420.89659637 36.52258301 421.76609802 C36.84775416 426.12198204 37.31536732 430.46617324 37.75 434.8125 C108.7 434.8125 179.65 434.8125 252.75 434.8125 C249.63170578 431.69420578 247.12415012 429.56860683 243.515625 427.1953125 C242.47954102 426.5132373 241.44345703 425.83116211 240.37597656 425.12841797 C239.25119199 424.39727911 238.12585118 423.66699537 237 422.9375 C236.42310425 422.56256409 235.8462085 422.18762817 235.25183105 421.80133057 C178.74438416 385.14003221 101.9406445 346.8125 32.75 346.8125 Z M-230.25 389.8125 C-231.23033203 390.27881836 -232.21066406 390.74513672 -233.22070312 391.22558594 C-253.49505181 400.8980568 -272.64956706 412.23064049 -291.25 424.8125 C-292.32072754 425.53493896 -292.32072754 425.53493896 -293.41308594 426.27197266 C-295.11351962 427.42426971 -296.80710965 428.58664903 -298.5 429.75 C-299.06589844 430.13478516 -299.63179687 430.51957031 -300.21484375 430.91601562 C-301.57834312 431.85527851 -302.91723048 432.83011988 -304.25 433.8125 C-304.25 434.1425 -304.25 434.4725 -304.25 434.8125 C-232.64 434.8125 -161.03 434.8125 -87.25 434.8125 C-86.02005284 416.97826621 -84.81505249 399.15707835 -83.81738281 381.31030273 C-83.62049767 377.79460367 -83.41975799 374.2791374 -83.21875 370.76367188 C-83.09092213 368.50001262 -82.96330925 366.23634121 -82.8359375 363.97265625 C-82.77659027 362.93528824 -82.71724304 361.89792023 -82.65609741 360.82911682 C-82.39673629 356.15036017 -82.17543236 351.50081621 -82.25 346.8125 C-131.29824439 346.8125 -187.21549231 369.06524728 -230.25 389.8125 Z M-360.25 1144.8125 C-354.10005653 1151.98743404 -347.84205917 1158.57750857 -340.6796875 1164.72265625 C-338.77432997 1166.36150879 -336.88769106 1168.01588988 -335.0078125 1169.68359375 C-325.75447318 1177.85604084 -316.16642804 1185.46219363 -306.25 1192.8125 C-305.47092285 1193.39128906 -304.6918457 1193.97007813 -303.88916016 1194.56640625 C-301.51553089 1196.3235774 -299.13461367 1198.07027104 -296.75 1199.8125 C-296.03287842 1200.34037109 -295.31575684 1200.86824219 -294.5769043 1201.41210938 C-289.67123232 1204.96169114 -284.60197275 1207.983153 -279.25 1210.8125 C-276.43649011 1205.32695027 -273.92026375 1199.8094659 -271.60546875 1194.09765625 C-271.27259354 1193.28364853 -270.93971832 1192.46964081 -270.59675598 1191.63096619 C-269.54074283 1189.04682773 -268.48900006 1186.46097768 -267.4375 1183.875 C-266.3996124 1181.33116738 -265.36085092 1178.78769277 -264.322052 1176.24423218 C-263.63876842 1174.56997362 -262.95636758 1172.89535451 -262.27487183 1171.22036743 C-260.59221657 1167.08643913 -258.89796651 1162.95800817 -257.17822266 1158.83935547 C-256.85138992 1158.05443222 -256.52455719 1157.26950897 -256.18782043 1156.46080017 C-255.56895293 1154.97661808 -254.94725293 1153.49361291 -254.3223114 1152.01197815 C-252.77718787 1148.53106869 -252.77718787 1148.53106869 -252.25 1144.8125 C-287.89 1144.8125 -323.53 1144.8125 -360.25 1144.8125 Z M-111.25 1144.8125 C-111.84736717 1145.92371971 -111.84736717 1145.92371971 -112.45680237 1147.05738831 C-113.95753598 1149.84845959 -115.45873015 1152.63928256 -116.96022034 1155.4299469 C-117.60568437 1156.6298216 -118.25097329 1157.82979051 -118.89607239 1159.02986145 C-123.80793918 1168.166949 -128.79065301 1177.2596998 -133.85400391 1186.31347656 C-136.702542 1191.41274832 -139.53798071 1196.51931375 -142.375 1201.625 C-143.00607666 1202.7603418 -143.63715332 1203.89568359 -144.28735352 1205.06542969 C-149.42782068 1214.31708863 -154.53926652 1223.58461705 -159.64678955 1232.85449219 C-164.79813423 1242.20208513 -169.98619356 1251.52773031 -175.25 1260.8125 C-115.00277662 1300.97731559 -1.13477981 1291.28759404 67.38058472 1277.83544922 C97.51902927 1272.51220844 97.51902927 1272.51220844 125.75 1261.8125 C124.12427018 1255.80827085 121.03215656 1250.77560223 117.9375 1245.4375 C113.26676483 1237.28456495 108.69654758 1229.08984631 104.25 1220.8125 C99.48973564 1211.96535705 94.6026135 1203.20043579 89.6315918 1194.47021484 C85.16365197 1186.60098428 80.84063287 1178.65847385 76.58984375 1170.66992188 C75.60732365 1168.83614428 74.58139138 1167.02496186 73.51335144 1165.23963928 C72.09651007 1162.48595523 71.35378043 1160.47868699 70.59883118 1157.55625916 C68.8538035 1152.10811198 66.64729476 1147.97951036 61.75 1144.8125 C50.23636342 1141.6758107 37.61545913 1142.78341979 25.80232763 1143.08880305 C20.98076843 1143.19545241 16.15901296 1143.20508958 11.3364563 1143.22523499 C2.21550554 1143.27796868 -6.90196005 1143.41731043 -16.02137935 1143.58817631 C-26.40786021 1143.77853593 -36.79451222 1143.87174498 -47.18230462 1143.95699871 C-68.54014467 1144.13445124 -89.8948524 1144.43324585 -111.25 1144.8125 Z M202.75 1144.8125 C207.51998344 1157.6232691 207.51998344 1157.6232691 212.66015625 1170.265625 C212.99494492 1171.05797546 213.32973358 1171.85032593 213.67466736 1172.66668701 C214.71758593 1175.13325263 215.7648646 1177.59793468 216.8125 1180.0625 C217.51397865 1181.71862009 218.21515157 1183.37486972 218.91601562 1185.03125 C219.93287081 1187.43421999 220.94995899 1189.8370876 221.96841431 1192.23937988 C224.58811761 1198.4197702 227.18000826 1204.61124932 229.75 1210.8125 C233.03877887 1210.8125 233.74034793 1210.40561126 236.3828125 1208.64453125 C237.45583618 1207.9326062 237.45583618 1207.9326062 238.55053711 1207.20629883 C239.31760986 1206.68447021 240.08468262 1206.1626416 240.875 1205.625 C242.06911499 1204.82002075 242.06911499 1204.82002075 243.28735352 1203.9987793 C255.6015644 1195.60664762 267.34556144 1186.39812724 278.75 1176.8125 C279.265625 1176.38179199 279.78125 1175.95108398 280.3125 1175.50732422 C287.50887829 1169.48417623 294.51065887 1163.27440061 301.375 1156.875 C302.05006592 1156.24835449 302.72513184 1155.62170898 303.4206543 1154.97607422 C304.057854 1154.37682129 304.69505371 1153.77756836 305.3515625 1153.16015625 C306.19195068 1152.37137085 306.19195068 1152.37137085 307.04931641 1151.56665039 C309.10004897 1149.45144605 310.90957657 1147.11302929 312.75 1144.8125 C276.45 1144.8125 240.15 1144.8125 202.75 1144.8125 Z " fill="#427AF4" transform="translate(827.25,7.1875)"/>
<path d="M0 0 C282.15 0 564.3 0 855 0 C855 61.71 855 123.42 855 187 C572.85 187 290.7 187 0 187 C0 125.29 0 63.58 0 0 Z " fill="#FDFEFE" transform="translate(375,887)"/>
<path d="M0 0 C282.15 0 564.3 0 855 0 C855 61.71 855 123.42 855 187 C572.85 187 290.7 187 0 187 C0 125.29 0 63.58 0 0 Z " fill="#FEFEFE" transform="translate(375,510)"/>
<path d="M0 0 C55.99496222 0 55.99496222 0 70 10 C70.95132812 10.65935547 70.95132812 10.65935547 71.921875 11.33203125 C80.50757466 17.92326528 85.90486933 28.53674389 88 39 C89.46264938 53.89791323 86.34996429 67.06346772 77 79 C68.70644684 88.11939426 58.71347411 91.80541615 47 95 C31.49 95 15.98 95 0 95 C0 63.65 0 32.3 0 0 Z " fill="#447BF4" transform="translate(1096,559)"/>
<path d="M0 0 C0 13.86 0 27.72 0 42 C2.64 41.01 5.28 40.02 8 39 C10.40185547 38.59594727 10.40185547 38.59594727 12.3671875 38.56640625 C13.10275879 38.55488525 13.83833008 38.54336426 14.59619141 38.53149414 C15.72420166 38.54684204 15.72420166 38.54684204 16.875 38.5625 C17.66438965 38.57079834 18.4537793 38.57909668 19.26708984 38.58764648 C28.59576965 38.85727815 35.36898542 41.56286194 42.18359375 48.01953125 C52.91418501 59.71933721 54.54552265 73.39064414 54.27734375 88.671875 C53.76259695 100.29849424 48.76647326 111.71699157 40.375 119.8125 C31.74090253 126.87676156 21.56988654 129.19653313 10.75 129.1875 C9.76306152 129.18669434 8.77612305 129.18588867 7.75927734 129.18505859 C-3.21143352 129.09403757 -13.32632082 127.66841979 -24 125 C-24 84.74 -24 44.48 -24 3 C-5 0 -5 0 0 0 Z " fill="#FDFEFE" transform="translate(590,723)"/>
<path d="M0 0 C8.37375 -0.061875 16.7475 -0.12375 25.375 -0.1875 C27.99872559 -0.21481201 30.62245117 -0.24212402 33.32568359 -0.27026367 C35.43326356 -0.27903538 37.54084866 -0.28667769 39.6484375 -0.29296875 C40.72005127 -0.30831665 41.79166504 -0.32366455 42.89575195 -0.33947754 C53.79824242 -0.34322582 63.56522374 2.03214628 71.72265625 9.59765625 C78.96104542 17.4051571 79.68222837 25.60483139 79.35546875 35.8515625 C78.90276423 43.07195437 76.30976478 49.96969652 71 55 C67.74264154 57.14245816 64.40781953 59.10748953 61 61 C62.30300735 64.57607943 63.85793318 67.46375815 66.08203125 70.546875 C66.68466797 71.3925 67.28730469 72.238125 67.90820312 73.109375 C68.53662109 73.98078125 69.16503906 74.8521875 69.8125 75.75 C74.30110822 81.97870608 78.43906847 88.19029988 82 95 C73.76273515 96.90168331 64.99579111 98.33882327 57 95 C51.72984041 89.62504927 48.22384965 83.15230183 44.9831543 76.40356445 C41.82609302 69.5333069 41.82609302 69.5333069 35.94921875 65.27557373 C30.79548773 64.35657767 26.34922224 64.72358842 21 65 C21 74.9 21 84.8 21 95 C14.07 95 7.14 95 0 95 C0 63.65 0 32.3 0 0 Z " fill="#437BF4" transform="translate(619,559)"/>
<path d="M0 0 C0.33 23.1 0.66 46.2 1 70 C10.08020886 59.42138193 10.08020886 59.42138193 19.125 48.8125 C19.57875 48.28076172 20.0325 47.74902344 20.5 47.20117188 C22.48347211 44.86267 24.29611257 42.55583115 26 40 C28.79736328 39.65942383 28.79736328 39.65942383 32.3203125 39.70703125 C33.57714844 39.71669922 34.83398438 39.72636719 36.12890625 39.73632812 C38.10697266 39.7740332 38.10697266 39.7740332 40.125 39.8125 C41.46482903 39.82754517 42.80467404 39.84123387 44.14453125 39.85351562 C47.43008842 39.88897128 50.71484582 39.93839151 54 40 C49.1042196 50.15861086 39.93418348 58.384218 32.265625 66.515625 C28.74237907 70.25680367 25.32798499 74.08398759 22 78 C24.88359237 81.97154114 27.79434341 85.82860674 31.125 89.4375 C55 116.38289911 55 116.38289911 55 127 C32.19652935 129.84678411 32.19652935 129.84678411 25.70458984 125.44287109 C21.92940142 121.30263625 19.56538583 116.39661158 17.19433594 111.36035156 C15.39330959 107.80100513 13.05473235 104.7851665 10.5625 101.6875 C9.80066406 100.70136719 9.03882813 99.71523438 8.25390625 98.69921875 C5.99388966 95.99268242 3.49329239 93.49329239 1 91 C0.67 102.88 0.34 114.76 0 127 C-7.92 127 -15.84 127 -24 127 C-24 86.08 -24 45.16 -24 3 C-5 0 -5 0 0 0 Z " fill="#FDFDFE" transform="translate(406,723)"/>
<path d="M0 0 C9.86597759 7.91651467 12.85721302 16.7861142 15 29 C15 34.94 15 40.88 15 47 C-2.82 47 -20.64 47 -39 47 C-36.13708399 54.63444269 -34.82005022 57.53392779 -27.81640625 61.1171875 C-24.13438716 62.27132941 -20.630772 62.29766513 -16.8125 62.25 C-16.0587207 62.24540771 -15.30494141 62.24081543 -14.52832031 62.23608398 C-8.82884427 62.14370304 -3.52388108 61.42250321 2 60 C3.66511118 59.65898147 5.33145332 59.3237914 7 59 C8.64006048 65.66957927 9.51358785 72.15182898 10 79 C0.94877052 84.53130691 -9.77910285 84.22759886 -20.0625 84.375 C-21.06716309 84.40102295 -22.07182617 84.4270459 -23.10693359 84.45385742 C-35.14429608 84.48235404 -44.17347691 80.35621983 -52.87109375 72.2578125 C-59.6683779 65.21202549 -63.75342843 55.81002621 -64 46 C-64.03867188 45.02417969 -64.07734375 44.04835938 -64.1171875 43.04296875 C-64.43203002 28.29784421 -62.04014319 15.19203032 -51.625 4 C-36.77208845 -9.3643124 -16.66026324 -10.44572061 0 0 Z " fill="#FDFDFE" transform="translate(1135,768)"/>
<path d="M0 0 C9.86597759 7.91651467 12.85721302 16.7861142 15 29 C15 34.94 15 40.88 15 47 C-2.82 47 -20.64 47 -39 47 C-36.13708399 54.63444269 -34.82005022 57.53392779 -27.81640625 61.1171875 C-24.13438716 62.27132941 -20.630772 62.29766513 -16.8125 62.25 C-16.0587207 62.24540771 -15.30494141 62.24081543 -14.52832031 62.23608398 C-8.82884427 62.14370304 -3.52388108 61.42250321 2 60 C3.66511118 59.65898147 5.33145332 59.3237914 7 59 C8.64006048 65.66957927 9.51358785 72.15182898 10 79 C0.94877052 84.53130691 -9.77910285 84.22759886 -20.0625 84.375 C-21.06716309 84.40102295 -22.07182617 84.4270459 -23.10693359 84.45385742 C-35.14429608 84.48235404 -44.17347691 80.35621983 -52.87109375 72.2578125 C-59.6683779 65.21202549 -63.75342843 55.81002621 -64 46 C-64.03867187 45.02417969 -64.07734375 44.04835938 -64.1171875 43.04296875 C-64.43203002 28.29784421 -62.04014319 15.19203032 -51.625 4 C-36.77208845 -9.3643124 -16.66026324 -10.44572061 0 0 Z " fill="#FDFDFE" transform="translate(975,768)"/>
<path d="M0 0 C9.86597759 7.91651467 12.85721302 16.7861142 15 29 C15 34.94 15 40.88 15 47 C-2.82 47 -20.64 47 -39 47 C-36.13708399 54.63444269 -34.82005022 57.53392779 -27.81640625 61.1171875 C-24.13438716 62.27132941 -20.630772 62.29766513 -16.8125 62.25 C-16.0587207 62.24540771 -15.30494141 62.24081543 -14.52832031 62.23608398 C-8.82884427 62.14370304 -3.52388108 61.42250321 2 60 C3.66511118 59.65898147 5.33145332 59.3237914 7 59 C8.64006048 65.66957927 9.51358785 72.15182898 10 79 C0.94877052 84.53130691 -9.77910285 84.22759886 -20.0625 84.375 C-21.06716309 84.40102295 -22.07182617 84.4270459 -23.10693359 84.45385742 C-35.14429608 84.48235404 -44.17347691 80.35621983 -52.87109375 72.2578125 C-59.6683779 65.21202549 -63.75342843 55.81002621 -64 46 C-64.03867187 45.02417969 -64.07734375 44.04835938 -64.1171875 43.04296875 C-64.43203002 28.29784421 -62.04014319 15.19203032 -51.625 4 C-36.77208845 -9.3643124 -16.66026324 -10.44572061 0 0 Z " fill="#FDFDFE" transform="translate(722,768)"/>
<path d="M0 0 C23.76 0 47.52 0 72 0 C72 6.27 72 12.54 72 19 C55.17 19 38.34 19 21 19 C21 25.27 21 31.54 21 38 C35.85 38 50.7 38 66 38 C66 44.27 66 50.54 66 57 C51.15 57 36.3 57 21 57 C21 63.27 21 69.54 21 76 C38.16 76 55.32 76 73 76 C73 82.27 73 88.54 73 95 C48.91 95 24.82 95 0 95 C0 63.65 0 32.3 0 0 Z " fill="#447BF4" transform="translate(1002,559)"/>
<path d="M0 0 C23.76 0 47.52 0 72 0 C72 6.27 72 12.54 72 19 C55.17 19 38.34 19 21 19 C21 25.27 21 31.54 21 38 C35.85 38 50.7 38 66 38 C66 44.27 66 50.54 66 57 C51.15 57 36.3 57 21 57 C21 63.27 21 69.54 21 76 C38.16 76 55.32 76 73 76 C73 82.27 73 88.54 73 95 C48.91 95 24.82 95 0 95 C0 63.65 0 32.3 0 0 Z " fill="#447BF4" transform="translate(525,559)"/>
<path d="M0 0 C1.05960938 -0.02900391 2.11921875 -0.05800781 3.2109375 -0.08789062 C12.57244927 -0.16246149 22.07742586 1.65858256 29.0625 8.375 C41.44998688 23.73548374 38.88278927 44.70473715 38.75 63.1875 C38.73995041 65.62890258 38.73082806 68.07030916 38.72265625 70.51171875 C38.70251445 76.44549379 38.66333752 82.37870423 38.625 88.3125 C30.375 88.3125 22.125 88.3125 13.625 88.3125 C13.56892578 82.38796875 13.56892578 82.38796875 13.51171875 76.34375 C13.46546415 72.50450201 13.4142446 68.66535 13.36254883 64.82617188 C13.32774213 62.16467393 13.30131239 59.50346857 13.27856445 56.84179688 C13.24490411 53.00881503 13.19257986 49.17646484 13.13671875 45.34375 C13.13032883 44.16010864 13.1239389 42.97646729 13.11735535 41.75695801 C13.0036109 35.31782417 12.70788109 30.04455369 9.625 24.3125 C3.19419537 21.44166495 3.19419537 21.44166495 -10.375 21.3125 C-10.375 43.4225 -10.375 65.5325 -10.375 88.3125 C-18.295 88.3125 -26.215 88.3125 -34.375 88.3125 C-34.375 60.5925 -34.375 32.8725 -34.375 4.3125 C-22.32413055 1.53153013 -12.16346697 0.11017633 0 0 Z " fill="#FCFDFE" transform="translate(856.375,761.6875)"/>
<path d="M0 0 C7.92 0 15.84 0 24 0 C24.03738281 3.77050781 24.07476562 7.54101562 24.11328125 11.42578125 C24.15958609 15.1062578 24.21078726 18.78663625 24.26245117 22.46704102 C24.29555994 25.01092491 24.32363488 27.55487979 24.34643555 30.09887695 C24.38024032 33.77065072 24.43256984 37.44178217 24.48828125 41.11328125 C24.49467117 42.23769119 24.5010611 43.36210114 24.50764465 44.52058411 C24.63251308 51.33542679 24.77194298 58.84352261 28 65 C34.57841037 67.99037514 34.57841037 67.99037514 49 67 C49 44.89 49 22.78 49 0 C56.92 0 64.84 0 73 0 C73 27.72 73 55.44 73 84 C61.0974364 87.17401696 51.5096791 89.17981693 39.5625 89.1875 C38.56412109 89.19974609 37.56574219 89.21199219 36.53710938 89.22460938 C26.47087615 89.24446388 16.67425805 87.64909505 9.23828125 80.24609375 C2.91770287 72.36527184 -0.13500254 63.0461839 -0.11352539 53.01635742 C-0.11344986 51.83551071 -0.11337433 50.654664 -0.11329651 49.43803406 C-0.10813522 48.17328751 -0.10297394 46.90854095 -0.09765625 45.60546875 C-0.0962413 44.30297684 -0.09482635 43.00048492 -0.09336853 41.65852356 C-0.08956355 38.20783546 -0.07975064 34.75718992 -0.06866455 31.30651855 C-0.05840689 27.78052343 -0.0538616 24.25452139 -0.04882812 20.72851562 C-0.03812644 13.81899124 -0.02054612 6.90950205 0 0 Z " fill="#FBFCFE" transform="translate(471,763)"/>
<path d="M0 0 C0.7425 0.70125 1.485 1.4025 2.25 2.125 C0.57770299 6.08469176 -2.11304994 9.1411201 -4.875 12.375 C-5.34292969 12.92929687 -5.81085938 13.48359375 -6.29296875 14.0546875 C-7.44175328 15.41447326 -8.59539653 16.77015165 -9.75 18.125 C-14.04021013 17.33878502 -16.85227956 15.10268943 -20.3359375 12.59765625 C-27.04767414 8.50327969 -34.09971189 8.26198277 -41.75 9.125 C-49.75276767 11.57728449 -54.94270966 16.15083243 -59 23.33984375 C-62.63796764 31.13368414 -63.0672572 39.07450236 -60.90234375 47.375 C-57.78598013 55.82615557 -53.08341571 60.23605619 -45.75 65.125 C-36.31423583 67.57482152 -27.31048899 66.71843312 -18.75 62.125 C-15.6623271 60.23834443 -12.67971706 58.24798337 -9.75 56.125 C-7.71339574 58.02702689 -5.69668664 59.94438491 -3.6875 61.875 C-3.10677734 62.41382813 -2.52605469 62.95265625 -1.92773438 63.5078125 C-0.27734375 65.109375 -0.27734375 65.109375 2.25 68.125 C1.69139568 72.94780734 -1.48429294 75.13905951 -5.01171875 78.16015625 C-16.36884822 86.30942319 -30.13566803 88.3492879 -43.75 87.125 C-56.86961517 84.75381414 -68.4817449 77.67950273 -76.3671875 66.91796875 C-84.43543939 54.49446647 -86.32631299 41.23735524 -84.27734375 26.79296875 C-81.58981753 14.25654406 -74.12116082 3.49102667 -63.5 -3.625 C-43.7511474 -15.50686461 -18.22607431 -14.98966859 0 0 Z " fill="#447BF4" transform="translate(502.75,568.875)"/>
<path d="M0 0 C24.09 0 48.18 0 73 0 C73 6.27 73 12.54 73 19 C55.84 19 38.68 19 21 19 C21 25.6 21 32.2 21 39 C36.18 39 51.36 39 67 39 C67 45.27 67 51.54 67 58 C66 59 66 59 64.17137146 59.12025452 C63.37417191 59.11803391 62.57697235 59.11581329 61.75561523 59.11352539 C60.85475693 59.11344986 59.95389862 59.11337433 59.02574158 59.11329651 C58.04658279 59.10813522 57.06742401 59.10297394 56.05859375 59.09765625 C55.06118668 59.0962413 54.0637796 59.09482635 53.03614807 59.09336853 C49.83656876 59.08775114 46.63705831 59.07519571 43.4375 59.0625 C41.27408955 59.05748724 39.11067801 59.05292395 36.94726562 59.04882812 C31.63146226 59.03862505 26.31580861 59.01905308 21 59 C21 70.88 21 82.76 21 95 C14.07 95 7.14 95 0 95 C0 63.65 0 32.3 0 0 Z " fill="#457CF4" transform="translate(861,559)"/>
<path d="M0 0 C-0.47535969 2.79236448 -0.9551067 5.58384991 -1.4375 8.375 C-1.57220703 9.1690625 -1.70691406 9.963125 -1.84570312 10.78125 C-2.88671875 16.7734375 -2.88671875 16.7734375 -4 19 C-4.71542969 18.7834375 -5.43085937 18.566875 -6.16796875 18.34375 C-14.21816906 16.09427618 -23.95764331 13.56551967 -31.83984375 17.37109375 C-34.22286293 18.81572328 -34.22286293 18.81572328 -34.625 21.4375 C-33.73370871 25.09179428 -32.0848239 25.86466086 -29 28 C-26.13836389 29.42652453 -23.20126174 30.64710945 -20.25 31.875 C-1.66739294 39.92603425 -1.66739294 39.92603425 3 50 C3.8125 52.375 3.8125 52.375 4 55 C4.061875 55.71800781 4.12375 56.43601562 4.1875 57.17578125 C4.55921132 64.64485556 3.19784138 71.30964943 -1.80078125 77.078125 C-13.36891786 87.77022796 -28.08652211 86.63598397 -42.93261719 86.20556641 C-49.24716782 85.78238496 -55.06634232 84.16120215 -61 82 C-60.29843593 74.84404654 -58.69214979 67.98144819 -57 61 C-56.12601563 61.28875 -55.25203125 61.5775 -54.3515625 61.875 C-46.9051857 64.12296281 -40.05005045 65.4058118 -32.25 65.4375 C-31.4760791 65.44716797 -30.7021582 65.45683594 -29.90478516 65.46679688 C-25.70025153 65.40705453 -25.70025153 65.40705453 -21.98828125 63.625 C-20.79695976 61.96967083 -20.79695976 61.96967083 -20.9375 59.5625 C-22.60462223 55.54179345 -26.11645502 53.84713676 -29.95581055 52.12036133 C-32.08663081 51.26365534 -34.22869977 50.44208444 -36.375 49.625 C-46.30346962 45.64364551 -52.52100408 42.35195371 -57.08984375 32.26953125 C-59.83579766 25.4223243 -59.94815056 18.89098143 -57.5625 11.875 C-54.47724682 4.95225876 -48.83814912 -0.13263432 -41.8125 -2.9375 C-29.10574545 -6.47872668 -11.84309924 -6.79280006 0 0 Z " fill="#FCFDFE" transform="translate(1224,766)"/>
<path d="M0 0 C0 8.25 0 16.5 0 25 C9.24 25 18.48 25 28 25 C28 31.6 28 38.2 28 45 C18.76 45 9.52 45 0 45 C0.07422502 50.14200191 0.15725324 55.28233543 0.26245117 60.42358398 C0.29557767 62.17023899 0.32364737 63.91699788 0.34643555 65.66381836 C0.38020881 68.1838787 0.43253347 70.70299752 0.48828125 73.22265625 C0.49467117 73.99585709 0.5010611 74.76905792 0.50764465 75.56568909 C0.64565525 80.72684995 1.6077046 84.40363361 4 89 C9.37534966 93.18337447 18.880579 91.1964977 25.25 90.5 C26.4875 90.335 27.725 90.17 29 90 C29.50333542 92.60356241 30.00279378 95.20776651 30.5 97.8125 C30.64308594 98.55048828 30.78617188 99.28847656 30.93359375 100.04882812 C31.50926281 103.07794391 32 105.909196 32 109 C18.99877803 113.61533078 4.01242921 116.07736807 -9 110 C-15.55162055 106.58850528 -19.14421287 101.62496054 -21.86567688 94.84257507 C-24.76460873 85.59331808 -24.37906658 76.35340149 -24.29296875 66.76953125 C-24.28736325 64.92437589 -24.28309767 63.07921602 -24.28010559 61.23405457 C-24.26873185 56.41225538 -24.23933023 51.59073365 -24.20599365 46.76904297 C-24.17513041 41.8349991 -24.16156574 36.90090976 -24.14648438 31.96679688 C-24.11445235 22.311077 -24.06334797 12.6555617 -24 3 C-21.1259578 2.49387936 -18.25097127 1.99493459 -15.375 1.5 C-14.56675781 1.35691406 -13.75851562 1.21382812 -12.92578125 1.06640625 C-11.73662109 0.86337891 -11.73662109 0.86337891 -10.5234375 0.65625 C-9.80075684 0.53056641 -9.07807617 0.40488281 -8.33349609 0.27539062 C-5.57330302 -0.05035721 -2.77934839 0 0 0 Z " fill="#FDFDFE" transform="translate(1031,739)"/>
<path d="M0 0 C9.0508673 -0.50192645 18.27158046 2.54222177 25.30078125 8.27734375 C32.84334443 16.20836512 35.50509967 23.75533219 35.39453125 34.48046875 C34.71688703 43.67706893 31.11109249 51.14897119 24.12109375 57.19140625 C15.11213434 63.44187013 5.9810553 65.21275978 -4.87890625 64.19140625 C-13.97907826 62.05695579 -21.83457805 56.038139 -26.87890625 48.19140625 C-31.08578037 39.88692746 -31.58701765 29.61606774 -28.8125 20.8046875 C-24.50412485 11.44835235 -18.42709083 5.70081884 -8.8984375 1.90234375 C-5.8852912 0.841623 -3.16724908 0.32265115 0 0 Z " fill="#457CF4" transform="translate(1085.87890625,947.80859375)"/>
<path d="M0 0 C25.74 0 51.48 0 78 0 C78 6.6 78 13.2 78 20 C68.76 20 59.52 20 50 20 C50 44.75 50 69.5 50 95 C42.74 95 35.48 95 28 95 C28 69.92 28 44.84 28 19 C18.76 19 9.52 19 0 19 C0 12.73 0 6.46 0 0 Z " fill="#467CF4" transform="translate(715,559)"/>
<path d="M0 0 C5.0325 -0.103125 10.065 -0.20625 15.25 -0.3125 C17.59206543 -0.38078003 17.59206543 -0.38078003 19.98144531 -0.45043945 C30.58899776 -0.55479149 39.91460315 0.94244056 48 8.375 C54.62583239 15.80886073 56.37797536 22.97925141 56.28125 32.796875 C55.60005969 40.55487573 52.72628741 47.64716612 47 53 C32.11416534 63.66946698 19.62072552 61 0 61 C0 40.87 0 20.74 0 0 Z " fill="#437BF4" transform="translate(493,950)"/>
<path d="M0 0 C0.84240234 -0.01224609 1.68480469 -0.02449219 2.55273438 -0.03710938 C8.83657039 -0.0516217 15.35065287 0.33157643 21.0625 3.1875 C19.7425 9.7875 18.4225 16.3875 17.0625 23.1875 C15.5775 23.0225 14.0925 22.8575 12.5625 22.6875 C5.08274519 22.11213425 -2.43564838 22.1875 -9.9375 22.1875 C-9.9375 43.9675 -9.9375 65.7475 -9.9375 88.1875 C-17.8575 88.1875 -25.7775 88.1875 -33.9375 88.1875 C-33.9375 61.1275 -33.9375 34.0675 -33.9375 6.1875 C-21.79977186 2.39445995 -12.25796163 0.00933584 0 0 Z " fill="#FEFEFE" transform="translate(788.9375,761.8125)"/>
<path d="M0 0 C5.94 -0.103125 11.88 -0.20625 18 -0.3125 C19.85882812 -0.35802002 21.71765625 -0.40354004 23.6328125 -0.45043945 C25.13019006 -0.46506228 26.62758773 -0.47779869 28.125 -0.48828125 C28.88296875 -0.51386108 29.6409375 -0.53944092 30.421875 -0.5657959 C36.41558105 -0.5706233 40.32598817 1.28628747 45 5 C50.11335222 10.51703792 51.48272649 14.75541149 51.3046875 22.18359375 C50.72709889 27.52258587 48.9744846 31.24029712 44.953125 34.82421875 C43.0118872 36.30079857 41.05295919 37.68451159 39 39 C42.26542755 45.35816421 46.09834509 51.02758476 50.42578125 56.71484375 C52 59 52 59 52 61 C46.6427732 62.10135881 41.22151888 63.05999649 36 61 C30.71762196 56.26664813 26.89846464 49.42637697 24 43 C24 42.34 24 41.68 24 41 C20.37 41 16.74 41 13 41 C13 47.6 13 54.2 13 61 C8.71 61 4.42 61 0 61 C0 40.87 0 20.74 0 0 Z " fill="#447BF4" transform="translate(1134,950)"/>
<path d="M0 0 C5.94 -0.103125 11.88 -0.20625 18 -0.3125 C19.85882812 -0.35802002 21.71765625 -0.40354004 23.6328125 -0.45043945 C25.13019006 -0.46506228 26.62758773 -0.47779869 28.125 -0.48828125 C28.88296875 -0.51386108 29.6409375 -0.53944092 30.421875 -0.5657959 C36.41558105 -0.5706233 40.32598817 1.28628747 45 5 C50.11335222 10.51703792 51.48272649 14.75541149 51.3046875 22.18359375 C50.72709889 27.52258587 48.9744846 31.24029712 44.953125 34.82421875 C43.0118872 36.30079857 41.05295919 37.68451159 39 39 C42.26542755 45.35816421 46.09834509 51.02758476 50.42578125 56.71484375 C52 59 52 59 52 61 C46.6427732 62.10135881 41.22151888 63.05999649 36 61 C30.71762196 56.26664813 26.89846464 49.42637697 24 43 C24 42.34 24 41.68 24 41 C20.37 41 16.74 41 13 41 C13 47.6 13 54.2 13 61 C8.71 61 4.42 61 0 61 C0 40.87 0 20.74 0 0 Z " fill="#447BF4" transform="translate(879,950)"/>
<path d="M0 0 C4.95 0 9.9 0 15 0 C18.68700126 4.04011355 20.58752032 6.65827504 22.9375 11.375 C23.83758789 12.99535156 23.83758789 12.99535156 24.75585938 14.6484375 C29 22.40915179 29 22.40915179 29 25 C29.66 25 30.32 25 31 25 C31.2781958 24.27530518 31.5563916 23.55061035 31.84301758 22.80395508 C33.74301719 18.1992926 36.16816035 13.97735031 38.6875 9.6875 C39.17283203 8.75615234 39.65816406 7.82480469 40.15820312 6.86523438 C41.76171875 4.19921875 41.76171875 4.19921875 46 0 C50.95 0 55.9 0 61 0 C61 20.13 61 40.26 61 61 C56.71 61 52.42 61 48 61 C47.67 48.13 47.34 35.26 47 22 C44.916875 25.196875 42.83375 28.39375 40.6875 31.6875 C40.03612061 32.68612061 39.38474121 33.68474121 38.71362305 34.71362305 C37.93305542 35.91305542 37.93305542 35.91305542 37.13671875 37.13671875 C36.60780029 37.94842529 36.07888184 38.76013184 35.53393555 39.59643555 C34.446706 41.30004448 33.41680898 43.0408623 32.42895508 44.80395508 C31.9573999 45.5286499 31.48584473 46.25334473 31 47 C30.34 47 29.68 47 29 47 C27.30966728 44.50788113 25.73145835 42.01834349 24.1875 39.4375 C23.32912808 38.01813463 22.46846111 36.60015459 21.60546875 35.18359375 C21.22543701 34.54993896 20.84540527 33.91628418 20.45385742 33.26342773 C18.4200034 30.09703636 16.1873868 27.06234152 14 24 C13.67 36.21 13.34 48.42 13 61 C8.71 61 4.42 61 0 61 C0 40.87 0 20.74 0 0 Z " fill="#437BF4" transform="translate(562,950)"/>
<path d="M0 0 C28.640625 0 28.640625 0 38.30859375 9.0625 C43.85127672 15.41162414 45.35498383 22.49297776 45.28515625 30.72265625 C44.67386237 37.74834888 42.20849648 45.08086444 37 50 C24.96550619 58.80635706 16.55736432 57 0 57 C0 38.19 0 19.38 0 0 Z " fill="#FCFDFE" transform="translate(1117,578)"/>
<path d="M0 0 C13 0 13 0 17.12890625 3.8125 C18.31691743 5.51208777 19.46010563 7.2436698 20.5625 9 C21.81449639 10.82854129 23.06710998 12.65666013 24.3203125 14.484375 C24.93036133 15.40669922 25.54041016 16.32902344 26.16894531 17.27929688 C28.9353551 21.38981296 31.93444022 25.31125884 34.9375 29.25 C36.608125 31.4775 38.27875 33.705 40 36 C40.33 24.12 40.66 12.24 41 0 C45.29 0 49.58 0 54 0 C54 20.13 54 40.26 54 61 C42 61 42 61 37.75 56.96875 C36.46037163 55.17365005 35.21173988 53.34857016 34 51.5 C33.33355469 50.55487549 32.66710937 49.60975098 31.98046875 48.63598633 C30.6206593 46.70726042 29.27548222 44.76813314 27.9453125 42.81884766 C25.63168261 39.46629109 23.20395464 36.21493851 20.73828125 32.97338867 C18.47410026 29.99592707 16.2398541 26.99580486 14 24 C13.67 36.21 13.34 48.42 13 61 C8.71 61 4.42 61 0 61 C0 40.87 0 20.74 0 0 Z " fill="#437BF4" transform="translate(668,950)"/>
<path d="M0 0 C6.93 0 13.86 0 21 0 C21 31.35 21 62.7 21 95 C14.07 95 7.14 95 0 95 C0 63.65 0 32.3 0 0 Z " fill="#447BF4" transform="translate(954,559)"/>
<path d="M0 0 C6.93 0 13.86 0 21 0 C21 31.35 21 62.7 21 95 C14.07 95 7.14 95 0 95 C0 63.65 0 32.3 0 0 Z " fill="#447BF4" transform="translate(813,559)"/>
<path d="M0 0 C4.29 0 8.58 0 13 0 C18.62032295 11.75178859 23.7571226 23.6835702 28.8125 35.6875 C29.95645904 38.39918702 31.10123335 41.11052341 32.2474823 43.82124329 C32.95345022 45.49119409 33.65804123 47.16172787 34.36103821 48.83293152 C34.67864609 49.5850441 34.99625397 50.33715668 35.32348633 51.11206055 C35.7381591 52.09676582 35.7381591 52.09676582 36.16120911 53.10136414 C36.99338996 55.05104017 36.99338996 55.05104017 38.1047821 57.05549622 C39 59 39 59 39 62 C34.38 62 29.76 62 25 62 C20 50.25 20 50.25 20 48 C11.09 48 2.18 48 -7 48 C-7.33 49.65 -7.66 51.3 -8 53 C-9.21269669 56.06339846 -10.61540165 59.00748098 -12 62 C-16.62 62 -21.24 62 -26 62 C-12.34860138 27.71194165 -12.34860138 27.71194165 -6.421875 15.09375 C-4.13647638 10.12112443 -2.07433333 5.06381372 0 0 Z " fill="#457CF4" transform="translate(963,949)"/>
<path d="M0 0 C4.29 0 8.58 0 13 0 C18.62032295 11.75178859 23.7571226 23.6835702 28.8125 35.6875 C29.95645904 38.39918702 31.10123335 41.11052341 32.2474823 43.82124329 C32.95345022 45.49119409 33.65804123 47.16172787 34.36103821 48.83293152 C34.67864609 49.5850441 34.99625397 50.33715668 35.32348633 51.11206055 C35.7381591 52.09676582 35.7381591 52.09676582 36.16120911 53.10136414 C36.99338996 55.05104017 36.99338996 55.05104017 38.1047821 57.05549622 C39 59 39 59 39 62 C34.38 62 29.76 62 25 62 C20 50.25 20 50.25 20 48 C11.09 48 2.18 48 -7 48 C-7.33 49.65 -7.66 51.3 -8 53 C-9.21269669 56.06339846 -10.61540165 59.00748098 -12 62 C-16.62 62 -21.24 62 -26 62 C-12.34860138 27.71194165 -12.34860138 27.71194165 -6.421875 15.09375 C-4.13647638 10.12112443 -2.07433333 5.06381372 0 0 Z " fill="#457CF4" transform="translate(444,949)"/>
<path d="M0 0 C4.71336207 2.67672414 4.71336207 2.67672414 5.9375 5.125 C3.9575 8.095 1.9775 11.065 -0.0625 14.125 C-4.0625 13.125 -4.0625 13.125 -6.75 11.625 C-11.91810037 9.28472814 -16.7107703 8.26109929 -22.125 10.25 C-24.3346402 11.99222923 -24.3346402 11.99222923 -24.375 14.8125 C-24.271875 15.575625 -24.16875 16.33875 -24.0625 17.125 C-19.84380942 19.39758749 -15.8951814 20.79575508 -11.25 21.9375 C-4.58041859 23.79877853 1.96390012 25.96196017 6.1484375 31.8203125 C8.80262287 37.25043486 8.58566787 42.62441384 6.8125 48.25 C4.61234314 53.56533222 0.75263195 56.02835778 -4.0625 58.9375 C-12.53868609 62.20045659 -22.47152089 60.71922437 -30.640625 57.34765625 C-34.10733415 55.59752727 -37.03137232 53.54990215 -40.0625 51.125 C-39.21506083 46.64428716 -37.04215011 44.48665653 -34.0625 41.125 C-30.78039641 41.77692469 -28.33136486 43.03318963 -25.4375 44.6875 C-20.30490897 47.29935106 -15.767619 48.30142052 -10.0625 47.125 C-7.42733958 45.33308542 -7.42733958 45.33308542 -6.0625 43.125 C-6.31387168 40.64613452 -6.31387168 40.64613452 -8.0625 38.125 C-12.15920155 36.17143409 -16.62683842 35.17603018 -20.9921875 33.984375 C-27.59645131 32.02548319 -32.50357191 29.4039987 -37.0625 24.125 C-39.05903601 18.13539198 -39.13962301 11.40352945 -36.4375 5.6875 C-26.88697246 -4.61701656 -12.61853857 -6.24845705 0 0 Z " fill="#467CF4" transform="translate(803.0625,951.875)"/>
<path d="M0 0 C3.90263667 2.92697751 5.96910212 6.28230637 7.5 10.875 C8.37997822 20.50017954 9.30900866 31.67884987 4 40.125 C0.97157287 43.65816498 -2.06031735 45.39510578 -6.5 46.875 C-11.45 46.875 -16.4 46.875 -21.5 46.875 C-21.5 32.025 -21.5 17.175 -21.5 1.875 C-14.11227334 -1.81886333 -7.93175486 -2.54949263 0 0 Z " fill="#437AF4" transform="translate(611.5,784.125)"/>
<path d="M0 0 C16.83 0 33.66 0 51 0 C51 3.96 51 7.92 51 12 C44.73 12 38.46 12 32 12 C32 28.17 32 44.34 32 61 C27.71 61 23.42 61 19 61 C19 44.83 19 28.66 19 12 C12.73 12 6.46 12 0 12 C0 8.04 0 4.08 0 0 Z " fill="#427AF4" transform="translate(999,950)"/>
<path d="M0 0 C16.83 0 33.66 0 51 0 C51 3.96 51 7.92 51 12 C44.73 12 38.46 12 32 12 C32 28.17 32 44.34 32 61 C27.71 61 23.42 61 19 61 C19 44.83 19 28.66 19 12 C12.73 12 6.46 12 0 12 C0 8.04 0 4.08 0 0 Z " fill="#427AF4" transform="translate(817,950)"/>
<path d="M0 0 C4.19805152 3.17268673 6.73950036 6.39503825 8.125 11.5 C9.04988484 18.57476847 7.88779823 24.47620828 3.5 30.1875 C0.1978618 33.7934669 -3.04680659 35.66452027 -7.875 36.5 C-13.93317333 36.73656704 -18.15652517 35.45035102 -22.875 31.5 C-28.19911725 25.58431416 -29.34085924 21.35539327 -29.1875 13.4765625 C-28.5962905 7.84529201 -26.06067137 4.37510658 -21.875 0.625 C-15.33895425 -4.00469907 -6.83640544 -4.16964233 0 0 Z " fill="#FCFCFE" transform="translate(1098.875,963.5)"/>
<path d="M0 0 C17 0 17 0 24 4 C28.9606799 10.39666618 29.95367425 16.06716422 29 24 C26.8200923 29.67527695 23.34127643 33.09713237 18 36 C12.29912287 37.90029238 6.00925213 37 0 37 C0 24.79 0 12.58 0 0 Z " fill="#FCFDFE" transform="translate(506,962)"/>
<path d="M0 0 C4.125 -0.0825 8.25 -0.165 12.5 -0.25 C13.78455078 -0.28641602 15.06910156 -0.32283203 16.39257812 -0.36035156 C23.12112399 -0.42525042 28.4909929 -0.13287305 34 4 C36.21471096 6.184012 36.87686968 7.327775 37.43359375 10.3671875 C37.44245592 16.05670203 37.03912454 19.64199721 33 24 C28.66826973 26.59310006 25.53181997 27.36474029 20.5078125 27.29296875 C19.4264502 27.28547607 18.34508789 27.2779834 17.23095703 27.27026367 C15.87599121 27.24295166 14.52102539 27.21563965 13.125 27.1875 C8.79375 27.125625 4.4625 27.06375 0 27 C0 18.09 0 9.18 0 0 Z " fill="#FBFCFE" transform="translate(640,578)"/>
<path d="M0 0 C4.29 0 8.58 0 13 0 C13 20.13 13 40.26 13 61 C8.71 61 4.42 61 0 61 C0 40.87 0 20.74 0 0 Z " fill="#427AF4" transform="translate(738,950)"/>
<path d="M0 0 C4.29 0 8.58 0 13 0 C13 20.13 13 40.26 13 61 C8.71 61 4.42 61 0 61 C0 40.87 0 20.74 0 0 Z " fill="#427AF4" transform="translate(638,950)"/>
<path d="M0 0 C3.88318241 2.02815897 6.29612788 4.21065619 7.90234375 8.2734375 C7.90234375 10.5834375 7.90234375 12.8934375 7.90234375 15.2734375 C-1.99765625 15.2734375 -11.89765625 15.2734375 -22.09765625 15.2734375 C-21.09844813 8.27898068 -20.18548206 4.99798968 -14.97265625 0.3984375 C-10.09599338 -1.50982189 -4.9881126 -1.72772615 0 0 Z " fill="#447CF4" transform="translate(1118.09765625,782.7265625)"/>
<path d="M0 0 C3.88318241 2.02815897 6.29612788 4.21065619 7.90234375 8.2734375 C7.90234375 10.5834375 7.90234375 12.8934375 7.90234375 15.2734375 C-1.99765625 15.2734375 -11.89765625 15.2734375 -22.09765625 15.2734375 C-21.09844813 8.27898068 -20.18548206 4.99798968 -14.97265625 0.3984375 C-10.09599338 -1.50982189 -4.9881126 -1.72772615 0 0 Z " fill="#447CF4" transform="translate(958.09765625,782.7265625)"/>
<path d="M0 0 C3.88318241 2.02815897 6.29612788 4.21065619 7.90234375 8.2734375 C7.90234375 10.5834375 7.90234375 12.8934375 7.90234375 15.2734375 C-1.99765625 15.2734375 -11.89765625 15.2734375 -22.09765625 15.2734375 C-21.09844813 8.27898068 -20.18548206 4.99798968 -14.97265625 0.3984375 C-10.09599338 -1.50982189 -4.9881126 -1.72772615 0 0 Z " fill="#447CF4" transform="translate(705.09765625,782.7265625)"/>
<path d="M0 0 C2.89640118 -0.08120751 5.79050912 -0.14059421 8.6875 -0.1875 C9.50412109 -0.21263672 10.32074219 -0.23777344 11.16210938 -0.26367188 C15.94015822 -0.32170486 19.13423093 -0.14903871 23 3 C24.52846661 6.05693322 24.23242445 8.62984547 24 12 C22.23984869 15.1850357 21.50109084 15.83296972 18 17 C16.59175107 17.08021999 15.18002769 17.10765977 13.76953125 17.09765625 C12.96708984 17.09443359 12.16464844 17.09121094 11.33789062 17.08789062 C10.50451172 17.07951172 9.67113281 17.07113281 8.8125 17.0625 C7.96751953 17.05798828 7.12253906 17.05347656 6.25195312 17.04882812 C4.16793845 17.03705403 2.08396023 17.0191189 0 17 C0 11.39 0 5.78 0 0 Z " fill="#FDFDFE" transform="translate(1147,962)"/>
<path d="M0 0 C2.89640118 -0.08120751 5.79050912 -0.14059421 8.6875 -0.1875 C9.50412109 -0.21263672 10.32074219 -0.23777344 11.16210938 -0.26367188 C15.94015822 -0.32170486 19.13423093 -0.14903871 23 3 C24.52846661 6.05693322 24.23242445 8.62984547 24 12 C22.23984869 15.1850357 21.50109084 15.83296972 18 17 C16.59175107 17.08021999 15.18002769 17.10765977 13.76953125 17.09765625 C12.96708984 17.09443359 12.16464844 17.09121094 11.33789062 17.08789062 C10.50451172 17.07951172 9.67113281 17.07113281 8.8125 17.0625 C7.96751953 17.05798828 7.12253906 17.05347656 6.25195312 17.04882812 C4.16793845 17.03705403 2.08396023 17.0191189 0 17 C0 11.39 0 5.78 0 0 Z " fill="#FDFDFE" transform="translate(892,962)"/>
<path d="M0 0 C3.20210703 2.62929609 4.25385985 5.6769596 5.6875 9.5 C6.34298828 11.21703125 6.34298828 11.21703125 7.01171875 12.96875 C8 16 8 16 8 19 C3.05 19 -1.9 19 -7 19 C-6.15199097 14.75995483 -5.05741374 11.25219111 -3.5 7.25 C-3.0565625 6.10015625 -2.613125 4.9503125 -2.15625 3.765625 C-1 1 -1 1 0 0 Z " fill="#F6F8FE" transform="translate(969,966)"/>
<path d="M0 0 C3.20210703 2.62929609 4.25385985 5.6769596 5.6875 9.5 C6.34298828 11.21703125 6.34298828 11.21703125 7.01171875 12.96875 C8 16 8 16 8 19 C3.05 19 -1.9 19 -7 19 C-6.15199097 14.75995483 -5.05741374 11.25219111 -3.5 7.25 C-3.0565625 6.10015625 -2.613125 4.9503125 -2.15625 3.765625 C-1 1 -1 1 0 0 Z " fill="#F6F8FE" transform="translate(450,966)"/>
</svg>
