<?xml version="1.0" standalone="no"?>
<!DOCTYPE svg PUBLIC "-//W3C//DTD SVG 20010904//EN"
 "http://www.w3.org/TR/2001/REC-SVG-20010904/DTD/svg10.dtd">
<svg version="1.0" xmlns="http://www.w3.org/2000/svg"
 width="520.000000pt" height="520.000000pt" viewBox="0 0 520.000000 520.000000"
 preserveAspectRatio="xMidYMid meet">

<g transform="translate(0.000000,520.000000) scale(0.100000,-0.100000)"
fill="#000000" stroke="none">
<path d="M2447 4813 c-4 -7 -65 -200 -83 -265 -4 -12 0 -15 14 -11 12 3 22 19
28 41 l9 37 62 3 63 3 17 -36 c10 -20 24 -35 34 -35 15 0 7 23 -43 135 -45
101 -65 135 -79 135 -10 0 -20 -3 -22 -7z m55 -97 l26 -64 -49 -4 c-27 -1 -49
0 -49 5 0 17 34 127 39 127 3 0 18 -29 33 -64z"/>
<path d="M2164 4750 c19 -92 19 -95 5 -82 -40 37 -129 -16 -129 -78 0 -38 24
-86 49 -100 31 -16 76 -12 104 10 14 11 27 16 29 10 1 -5 8 -6 15 -2 17 10
-45 272 -65 272 -11 0 -13 -8 -8 -30z m21 -123 c34 -49 7 -117 -46 -117 -31 0
-69 40 -69 72 0 67 78 97 115 45z"/>
<path d="M3024 4753 c-3 -16 -17 -72 -30 -125 -28 -111 -29 -128 -11 -128 9 0
19 22 26 58 16 68 34 92 72 92 43 0 52 -27 34 -102 -18 -78 -18 -78 -1 -78 20
0 54 145 40 168 -21 32 -60 48 -92 36 l-29 -11 13 51 c17 64 17 66 -1 66 -8 0
-17 -12 -21 -27z"/>
<path d="M2640 4635 c0 -78 3 -95 15 -95 12 0 15 13 15 58 0 66 19 102 54 102
13 0 26 7 30 15 8 21 -42 20 -66 -2 -17 -15 -18 -15 -18 0 0 10 -7 17 -15 17
-12 0 -15 -17 -15 -95z"/>
<path d="M2803 4705 c-26 -18 -43 -71 -36 -108 14 -71 98 -99 158 -53 17 13
18 17 5 25 -10 7 -19 6 -31 -5 -8 -7 -27 -14 -41 -14 -59 0 -81 90 -32 129 34
27 50 26 79 -3 34 -34 59 -17 25 18 -28 30 -92 36 -127 11z"/>
<path d="M3253 4704 c-3 -8 -1 -20 5 -26 15 -15 43 8 35 28 -7 19 -32 18 -40
-2z"/>
<path d="M3354 4625 c-4 -15 -13 -25 -24 -25 -25 0 -34 -17 -15 -28 14 -8 14
-14 -4 -61 -12 -28 -21 -60 -21 -71 0 -22 25 -50 46 -50 19 0 18 20 -3 35 -16
12 -15 16 4 66 18 47 24 54 47 52 31 -2 36 23 6 32 -16 5 -18 10 -10 25 14 26
13 37 -5 44 -10 3 -17 -3 -21 -19z"/>
<path d="M1940 4622 c0 -5 9 -34 19 -64 24 -69 13 -101 -36 -106 -30 -3 -32
-1 -58 67 -27 69 -37 81 -50 62 -10 -17 41 -134 67 -154 23 -17 28 -17 61 -3
21 8 37 22 37 31 0 13 3 13 20 3 10 -7 22 -10 25 -7 10 11 -57 179 -71 179 -8
0 -14 -4 -14 -8z"/>
<path d="M3207 4547 c-32 -97 -31 -93 -13 -100 10 -4 21 17 40 78 30 95 31
105 13 105 -7 0 -25 -36 -40 -83z"/>
<path d="M1663 4520 c-80 -48 -41 -180 54 -180 47 0 72 16 88 54 20 47 4 101
-38 126 -40 25 -64 25 -104 0z m94 -32 c28 -32 34 -54 23 -83 -26 -69 -129
-39 -130 38 0 58 68 87 107 45z"/>
<path d="M1476 4522 c-8 -13 128 -237 144 -237 22 0 18 10 -55 133 -62 106
-77 123 -89 104z"/>
<path d="M3447 4510 c-53 -42 -53 -130 -2 -164 26 -17 82 -21 104 -7 20 13 -6
26 -45 22 -24 -2 -36 4 -53 25 -23 30 -24 33 -12 52 6 11 21 7 69 -17 34 -17
66 -31 71 -31 15 0 23 54 12 83 -11 29 -57 57 -94 57 -13 0 -36 -9 -50 -20z
m103 -30 c21 -21 27 -50 10 -50 -10 0 -89 37 -100 47 -8 7 24 23 48 23 12 0
31 -9 42 -20z"/>
<path d="M1360 4439 c-75 -30 -113 -112 -86 -184 30 -78 97 -114 174 -93 47
13 102 68 102 102 0 36 -24 33 -35 -6 -22 -70 -118 -97 -170 -48 -63 59 -69
124 -15 175 21 20 41 29 65 29 26 1 35 5 35 19 0 19 -29 22 -70 6z"/>
<path d="M3629 4381 c-51 -52 -36 -133 30 -161 38 -15 83 -6 75 15 -4 10 -14
13 -30 9 -15 -4 -34 0 -49 10 -46 30 -25 107 35 128 26 9 61 -11 71 -42 13
-37 29 -39 29 -5 0 72 -105 101 -161 46z"/>
<path d="M3900 4330 c-8 -15 -17 -19 -35 -14 -18 5 -25 2 -25 -9 0 -8 5 -17
12 -19 7 -3 -5 -26 -30 -59 -23 -31 -42 -63 -42 -71 0 -17 31 -48 48 -48 15 0
16 17 2 25 -18 11 -10 40 24 82 31 39 34 41 54 27 28 -19 40 1 16 27 -16 18
-16 20 0 38 10 11 15 25 11 30 -10 17 -23 13 -35 -9z"/>
<path d="M2453 3185 c-166 -45 -319 -183 -383 -345 l-20 -52 32 20 c55 33 143
54 216 51 60 -3 71 -1 103 23 64 49 118 68 200 68 65 0 85 -4 137 -30 103 -52
168 -144 179 -256 5 -48 9 -55 32 -60 83 -20 139 -99 126 -181 -5 -33 -17 -56
-45 -87 l-39 -41 -195 -3 -196 -3 0 -125 0 -124 193 0 c166 0 202 3 250 19
232 80 344 336 243 556 -14 31 -52 84 -84 118 -35 37 -65 81 -76 109 -59 160
-215 299 -383 343 -71 19 -221 18 -290 0z"/>
<path d="M475 2374 c-48 -51 -24 -127 43 -140 29 -6 32 -4 31 17 0 13 -4 33
-9 44 -7 17 -9 15 -9 -12 -1 -41 -21 -43 -50 -7 -27 34 -26 47 2 80 49 57 133
21 125 -53 -4 -35 6 -45 15 -14 22 86 -88 149 -148 85z"/>
<path d="M4735 2357 l-7 -38 -57 6 c-31 4 -64 9 -73 11 -10 3 -18 1 -18 -4 0
-6 24 -13 53 -17 28 -3 64 -8 79 -11 24 -5 27 -2 33 30 4 19 5 41 2 48 -2 7
-8 -4 -12 -25z"/>
<path d="M4645 2219 c-81 -15 -95 -19 -95 -28 0 -10 143 -101 149 -95 2 2 -3
12 -12 22 -31 34 -19 92 19 92 13 0 24 5 24 10 0 12 -15 11 -85 -1z m15 -33
c0 -40 -10 -45 -47 -24 -25 15 -31 23 -21 29 22 14 68 11 68 -5z"/>
<path d="M522 2157 c-49 -52 -12 -147 58 -147 37 0 90 47 90 80 0 29 -26 76
-45 84 -36 13 -82 6 -103 -17z m102 -8 c32 -25 35 -70 5 -100 -46 -46 -135 7
-113 68 9 26 45 53 70 53 6 0 23 -9 38 -21z"/>
<path d="M4520 2052 c0 -5 28 -17 63 -27 69 -20 68 -21 -36 -50 -32 -9 -57
-21 -55 -27 2 -5 37 -21 78 -34 87 -28 80 -26 80 -15 0 5 -29 17 -64 27 -36
10 -63 21 -61 24 2 4 38 15 80 25 41 11 74 24 72 29 -2 6 -30 19 -63 29 -32 9
-67 20 -76 23 -10 3 -18 1 -18 -4z"/>
<path d="M593 1938 c-30 -34 -36 -63 -19 -96 17 -33 34 -42 76 -42 42 0 59 9
76 42 12 24 13 36 4 64 -13 40 -35 54 -83 54 -22 0 -41 -8 -54 -22z m101 -9
c17 -13 26 -30 26 -49 0 -32 -40 -70 -73 -70 -30 0 -67 39 -67 71 0 30 40 69
70 69 10 0 29 -9 44 -21z"/>
<path d="M4459 1841 c-32 -25 -43 -60 -29 -97 15 -37 38 -53 81 -54 68 0 106
85 62 139 -26 32 -82 38 -114 12z m98 -23 c13 -12 23 -32 23 -45 0 -30 -42
-73 -70 -73 -11 0 -32 11 -45 25 -66 66 24 157 92 93z"/>
<path d="M699 1745 c-48 -26 -55 -111 -12 -142 17 -13 75 -18 86 -7 7 8 -24
74 -35 74 -5 0 -1 -14 7 -30 14 -27 14 -31 0 -36 -22 -9 -64 22 -71 52 -9 36
24 78 64 82 37 4 72 -26 72 -63 0 -14 5 -25 10 -25 22 0 9 53 -19 81 -32 32
-62 36 -102 14z"/>
<path d="M4370 1671 c0 -11 140 -85 147 -77 9 8 7 9 -74 50 -40 20 -73 32 -73
27z"/>
<path d="M4304 1565 c-18 -28 -11 -62 14 -68 9 -2 35 6 58 19 24 13 45 19 53
15 19 -12 9 -55 -14 -59 -34 -6 -43 -24 -10 -20 37 4 66 48 49 75 -16 26 -50
27 -89 3 -19 -12 -39 -19 -45 -15 -17 11 -11 42 13 58 18 13 19 16 5 16 -10 1
-25 -10 -34 -24z"/>
<path d="M808 1537 l-67 -43 21 -34 c25 -43 27 -45 34 -37 3 3 -3 19 -15 36
l-21 29 60 37 c57 34 81 55 63 55 -4 0 -38 -20 -75 -43z"/>
<path d="M893 1403 c-66 -49 -66 -49 -24 -103 11 -14 22 -22 25 -19 4 3 -3 17
-14 32 -25 32 -25 44 1 57 17 10 23 7 41 -15 26 -33 37 -25 14 11 -17 24 -17
27 0 46 18 19 19 19 45 -14 15 -18 30 -30 33 -27 6 6 -43 79 -53 79 -3 -1 -34
-22 -68 -47z"/>
<path d="M4220 1430 c-23 -23 -24 -33 -10 -61 14 -24 34 -24 75 1 36 22 65 18
65 -9 0 -22 -19 -41 -42 -41 -10 0 -18 -4 -18 -10 0 -11 20 -13 45 -4 24 9 37
51 25 75 -13 23 -57 25 -88 3 -48 -34 -72 10 -24 45 21 16 23 20 10 21 -10 0
-27 -9 -38 -20z"/>
<path d="M4123 1308 c-36 -40 -35 -45 28 -99 l61 -53 29 32 c16 18 29 38 29
45 -1 6 -13 -2 -28 -20 -27 -32 -27 -32 -52 -13 l-25 19 23 23 c32 34 27 47
-5 16 -28 -26 -28 -26 -51 -8 l-22 18 26 31 c29 35 18 43 -13 9z"/>
<path d="M1045 1205 c-27 -27 -33 -79 -12 -106 11 -15 49 -39 61 -39 15 0 4
18 -13 23 -10 2 -27 17 -37 31 -16 25 -16 30 -1 61 28 58 87 61 124 6 18 -27
23 -30 23 -14 0 58 -99 85 -145 38z"/>
<path d="M4012 1187 l-32 -33 58 -57 c59 -58 99 -81 47 -27 l-29 30 24 25 c13
14 21 27 18 30 -2 3 -15 -6 -28 -20 -22 -23 -25 -24 -42 -8 -23 21 -23 32 4
60 12 13 19 25 17 28 -3 3 -20 -10 -37 -28z"/>
<path d="M1224 1088 c-16 -18 -41 -46 -54 -61 l-25 -29 34 -29 c19 -16 37 -26
40 -23 3 3 -7 16 -22 30 l-28 24 38 42 c54 61 67 78 56 78 -5 0 -22 -15 -39
-32z"/>
<path d="M3862 1057 c-63 -66 19 -180 97 -136 81 46 55 159 -37 159 -27 0 -45
-7 -60 -23z m102 -8 c32 -25 35 -70 6 -99 -42 -42 -113 -11 -113 50 0 22 7 39
22 52 30 23 52 23 85 -3z"/>
<path d="M1337 989 c-9 -5 -24 -24 -33 -40 -12 -25 -13 -37 -4 -65 13 -40 35
-54 83 -54 47 0 77 34 77 87 0 33 -6 46 -26 62 -29 23 -68 27 -97 10z m93 -29
c27 -27 25 -66 -5 -95 -30 -30 -54 -31 -89 -4 -32 25 -34 64 -4 96 27 29 71
30 98 3z"/>
<path d="M3701 931 l-25 -19 43 -66 c42 -65 79 -95 45 -36 -10 16 -15 32 -11
36 3 4 27 1 52 -6 55 -15 71 -7 20 10 -32 11 -36 15 -31 36 15 57 -42 84 -93
45z m79 -26 c0 -15 -26 -45 -40 -45 -5 0 -16 10 -25 23 -15 20 -14 23 6 39 23
20 59 9 59 -17z"/>
<path d="M1512 857 c-37 -66 -40 -89 -12 -117 39 -39 78 -20 125 63 15 26 22
47 17 47 -6 0 -23 -23 -39 -50 -30 -53 -62 -72 -88 -50 -22 18 -18 45 11 96
14 24 24 49 22 56 -2 6 -19 -14 -36 -45z"/>
<path d="M3559 852 l-27 -17 43 -74 c23 -40 45 -69 48 -64 4 6 0 19 -8 29 -21
27 -18 39 10 52 18 8 25 19 25 40 0 52 -41 67 -91 34z m75 -19 c7 -16 -19 -53
-37 -53 -12 0 -36 31 -37 46 0 13 41 33 57 27 6 -3 14 -12 17 -20z"/>
<path d="M1671 742 c-17 -38 -31 -71 -31 -74 0 -3 18 -13 39 -22 30 -12 47
-13 69 -5 44 15 65 75 42 120 -10 18 -59 49 -78 49 -5 0 -23 -31 -41 -68z m90
18 c34 -34 33 -62 -4 -93 -21 -19 -70 -18 -90 2 -9 9 42 121 56 121 5 0 22
-13 38 -30z"/>
<path d="M1954 666 c-60 -51 -20 -146 62 -146 19 0 34 4 34 9 0 5 -16 9 -36 8
-48 -1 -78 33 -70 77 4 17 13 37 21 45 20 20 71 18 95 -4 11 -10 20 -13 20 -7
0 17 -42 42 -72 42 -15 0 -39 -11 -54 -24z"/>
<path d="M3158 678 c-16 -5 -28 -13 -28 -18 0 -10 41 -144 45 -148 9 -9 77 22
90 41 28 41 12 106 -32 126 -28 13 -39 13 -75 -1z m84 -25 c18 -16 24 -68 10
-89 -8 -13 -46 -34 -60 -34 -5 0 -17 28 -27 61 -14 51 -14 63 -3 70 21 14 60
10 80 -8z"/>
<path d="M3410 680 c0 -5 7 -10 15 -10 8 0 15 5 15 10 0 6 -7 10 -15 10 -8 0
-15 -4 -15 -10z"/>
<path d="M3012 648 c-33 -7 -42 -13 -38 -26 3 -9 10 -45 17 -80 l12 -63 41 6
c58 10 68 25 15 22 -41 -2 -44 0 -44 23 0 17 6 26 20 28 11 2 25 8 30 14 7 6
-3 7 -27 3 -30 -6 -38 -4 -38 8 0 8 -3 22 -6 30 -4 12 5 18 38 24 24 5 39 11
33 14 -5 3 -29 2 -53 -3z"/>
<path d="M2155 637 c-2 -6 -10 -42 -18 -79 -16 -75 -20 -69 52 -83 21 -5 31
-3 27 3 -3 5 -19 12 -36 16 -27 5 -31 10 -28 33 3 26 6 28 43 26 l40 -2 -37
11 c-38 10 -47 28 -29 56 6 9 20 12 47 7 47 -8 26 9 -24 18 -22 5 -34 3 -37
-6z"/>
<path d="M2309 598 c0 -13 -4 -49 -8 -80 -8 -63 3 -80 13 -22 9 43 24 40 51
-9 24 -44 42 -50 20 -7 -19 36 -19 50 -1 50 8 0 17 7 20 16 18 47 -5 74 -63
74 -25 0 -31 -4 -32 -22z m65 -1 c29 -21 16 -51 -22 -55 -26 -3 -32 0 -32 17
0 48 20 63 54 38z"/>
<path d="M2756 613 c-28 -5 -29 -5 -22 -56 3 -29 6 -64 6 -79 0 -16 5 -28 11
-28 6 0 9 14 7 31 -3 28 1 33 32 45 l35 12 -37 1 c-35 1 -38 3 -38 31 0 28 3
30 35 30 19 0 35 5 35 10 0 10 -11 11 -64 3z"/>
<path d="M2894 546 c13 -90 31 -117 22 -31 -9 75 -16 105 -25 105 -4 0 -2 -33
3 -74z"/>
<path d="M2488 598 c20 -10 22 -18 23 -87 1 -90 17 -70 18 22 1 55 2 57 29 57
21 0 24 2 12 10 -8 5 -35 9 -60 9 -40 0 -42 -2 -22 -11z"/>
<path d="M2640 516 c0 -51 4 -86 10 -86 6 0 10 33 10 79 0 44 -4 83 -10 86 -6
4 -10 -25 -10 -79z"/>
</g>
</svg>
