<?xml version="1.0" standalone="no"?>
<!DOCTYPE svg PUBLIC "-//W3C//DTD SVG 20010904//EN"
 "http://www.w3.org/TR/2001/REC-SVG-20010904/DTD/svg10.dtd">
<svg version="1.0" xmlns="http://www.w3.org/2000/svg"
 width="400.000000pt" height="400.000000pt" viewBox="0 0 400.000000 400.000000"
 preserveAspectRatio="xMidYMid meet">

<g transform="translate(0.000000,400.000000) scale(0.100000,-0.100000)"
fill="#000000" stroke="none">
<path d="M1905 3873 c-673 -41 -1262 -419 -1564 -1003 -149 -288 -212 -548
-212 -875 0 -414 123 -788 366 -1114 611 -821 1758 -1003 2597 -411 108 77
284 242 370 349 589 730 548 1788 -97 2470 -261 276 -612 472 -979 546 -108
22 -357 48 -411 43 -11 -1 -42 -3 -70 -5z m-222 -320 c17 -82 23 -131 17 -137
-18 -18 -27 6 -53 129 -23 114 -23 134 4 135 3 0 17 -57 32 -127z m627 110 c0
-10 -8 -68 -17 -130 -11 -78 -21 -113 -30 -113 -7 0 -13 3 -13 8 0 4 -17 6
-39 4 -32 -3 -42 0 -61 25 -18 23 -21 36 -16 72 10 73 62 110 115 81 16 -8 19
-4 25 30 6 40 36 59 36 23z m-760 -48 c17 -9 30 -17 30 -19 0 -3 3 -11 6 -20
4 -12 0 -16 -15 -16 -12 0 -21 4 -21 10 0 18 -38 30 -64 20 -39 -15 -50 -44
-36 -97 23 -82 68 -113 115 -79 10 7 19 24 20 37 1 13 9 25 18 27 31 6 21 -53
-14 -82 -58 -49 -125 -28 -160 48 -34 75 -20 143 35 170 39 20 50 20 86 1z
m321 -14 c23 -24 29 -38 29 -74 0 -56 -23 -86 -72 -93 -30 -5 -41 -2 -62 19
-49 49 -42 136 14 164 38 19 59 16 91 -16z m109 -46 c0 -83 10 -97 56 -77 22
11 24 17 24 82 0 56 3 70 15 70 12 0 15 -17 15 -95 0 -78 -3 -95 -15 -95 -8 0
-15 5 -15 10 0 7 -6 7 -19 0 -30 -16 -59 -12 -81 10 -16 16 -20 33 -20 95 0
68 2 75 20 75 18 0 20 -7 20 -75z m625 20 c29 -28 35 -85 10 -85 -9 0 -15 9
-15 24 0 52 -69 76 -104 37 -26 -28 -47 -107 -36 -135 14 -37 67 -49 90 -21
14 16 50 21 50 6 0 -20 -54 -51 -87 -51 -49 0 -93 45 -93 95 0 43 23 101 52
132 31 33 100 32 133 -2z m168 -142 c18 -17 23 -78 8 -101 -7 -11 -19 -8 -60
12 -28 15 -56 24 -61 21 -30 -19 17 -80 55 -72 32 6 41 -19 9 -27 -29 -8 -79
16 -94 43 -46 88 70 189 143 124z m-1474 -19 c12 -15 21 -29 21 -33 0 -3 -23
-19 -51 -34 -55 -30 -59 -50 -12 -55 23 -2 36 3 51 23 12 15 23 21 27 15 12
-19 -6 -48 -40 -64 -30 -15 -38 -15 -68 -3 -21 9 -40 27 -50 50 -22 46 -21 69
4 101 16 20 29 26 59 26 30 0 43 -6 59 -26z m-176 -99 c64 -95 74 -120 49
-120 -15 0 -153 206 -146 217 12 19 31 -1 97 -97z m1751 59 c9 -3 13 -10 10
-15 -3 -5 4 -9 15 -9 22 0 35 -15 26 -30 -4 -7 -12 -7 -25 0 -28 15 -42 5 -78
-55 -33 -55 -45 -64 -57 -45 -5 8 82 159 92 160 1 0 8 -3 17 -6z m151 -54 c4
-6 1 -18 -6 -26 -9 -11 -9 -18 -1 -26 19 -19 14 -29 -11 -23 -32 8 -91 -71
-81 -110 7 -29 -7 -33 -30 -9 -23 22 -20 37 17 86 48 63 51 69 37 78 -7 4 -9
13 -5 19 5 9 11 9 22 -1 12 -10 17 -9 24 5 11 19 25 22 34 7z m-1954 -80 c90
-110 94 -121 53 -169 -28 -34 -84 -44 -84 -16 0 9 9 15 24 15 34 0 59 36 44
64 l-11 21 -10 -22 c-13 -30 -57 -46 -89 -34 -30 11 -66 54 -74 88 -8 30 10
71 33 80 10 3 26 15 37 25 10 11 21 16 25 11 4 -4 27 -33 52 -63z m1158 14
c260 -47 483 -165 676 -359 190 -190 307 -413 357 -683 17 -88 16 -337 -1
-432 -46 -259 -168 -490 -360 -681 -189 -190 -395 -300 -661 -355 -115 -24
-353 -25 -472 -1 -571 114 -992 581 -1036 1148 -41 529 232 1015 703 1252 243
121 519 160 794 111z m901 -4 c0 -21 -24 -28 -35 -10 -8 14 3 30 21 30 8 0 14
-9 14 -20z m-45 -40 c7 -12 -101 -135 -118 -135 -23 0 -11 25 41 85 54 61 66
68 77 50z m155 -38 c28 -22 19 -48 -9 -30 -29 18 -53 3 -45 -27 7 -26 -4 -33
-23 -14 -9 9 -27 -3 -71 -45 -48 -46 -61 -54 -71 -43 -9 11 0 25 44 66 44 41
54 57 49 73 -5 18 -3 20 17 15 14 -3 32 0 43 9 26 19 39 18 66 -4z m-2312 -67
c40 -43 43 -85 7 -120 -61 -61 -179 10 -160 96 9 38 59 72 95 64 14 -3 40 -21
58 -40z m2362 -21 c0 -14 -21 -19 -33 -7 -9 9 13 34 24 27 5 -3 9 -12 9 -20z
m-76 -72 c-100 -85 -111 -92 -123 -78 -16 19 128 139 148 123 11 -9 6 -18 -25
-45z m-2448 -38 c19 -9 41 -26 49 -38 33 -47 7 -118 -49 -132 -34 -8 -94 23
-112 58 -24 47 -3 103 46 121 24 9 30 8 66 -9z m2543 -14 c10 -5 24 -23 31
-39 10 -26 10 -35 -7 -63 -10 -18 -26 -34 -34 -36 -8 -1 -29 18 -48 44 -29 42
-34 45 -48 31 -22 -21 -9 -65 22 -77 30 -11 33 -30 5 -30 -33 0 -70 44 -70 84
0 65 91 118 149 86z m-2721 -142 c-3 -7 -18 -15 -34 -20 -84 -22 -68 -102 29
-143 55 -23 94 -4 111 52 6 18 1 25 -22 37 -28 14 -30 14 -40 -9 -12 -25 -32
-34 -32 -15 0 9 27 68 35 78 8 9 84 -40 90 -58 8 -26 -27 -105 -53 -119 -47
-25 -134 0 -182 51 -49 53 -5 158 67 158 22 0 33 -4 31 -12z m2832 -28 c11
-11 20 -32 20 -46 l0 -26 34 21 c39 25 52 26 59 7 4 -10 -30 -32 -114 -76 -65
-33 -120 -56 -120 -51 -1 6 -2 16 -3 21 0 6 -6 14 -12 18 -6 4 -16 17 -23 29
-38 73 100 162 159 103z m-2920 -440 c24 -24 24 -29 4 -58 -18 -26 -41 -28
-66 -5 -24 22 -23 49 4 67 29 20 34 20 58 -4z m3065 0 c36 -40 -7 -96 -55 -70
-25 14 -27 65 -2 79 25 15 37 13 57 -9z m-3095 -340 c23 -23 24 -33 10 -61
-21 -38 -90 -14 -90 31 0 17 34 50 52 50 5 0 17 -9 28 -20z m3122 8 c24 -20
28 -44 11 -67 -22 -32 -65 -25 -78 13 -8 24 -6 31 14 47 27 22 32 23 53 7z
m-3039 -339 c4 -16 -7 -30 -59 -67 -58 -43 -62 -48 -42 -54 13 -3 46 -6 74 -7
53 -1 81 -18 71 -44 -2 -7 -46 -23 -97 -36 -77 -20 -93 -22 -101 -10 -7 11 3
18 44 31 28 9 63 18 77 19 14 1 -13 7 -59 13 -47 6 -86 16 -88 22 -2 6 24 32
58 58 67 49 67 55 -1 31 -53 -19 -80 -19 -80 -1 0 9 22 21 58 31 31 9 68 20
82 25 41 14 57 11 63 -11z m2994 -34 c16 -22 22 -24 58 -15 44 10 50 8 42 -14
-3 -8 -23 -18 -44 -22 -62 -11 -73 -48 -18 -58 26 -5 35 -12 35 -27 0 -15 -5
-19 -17 -15 -10 3 -55 15 -100 27 -46 12 -83 27 -83 33 0 26 22 87 36 101 24
24 69 19 91 -10z m-122 -135 c3 -5 -1 -26 -10 -47 -15 -35 -15 -39 1 -50 27
-19 34 -16 50 22 8 19 21 35 29 35 18 0 18 1 -1 -45 -17 -42 -18 -41 17 -50
24 -6 28 -2 43 34 9 23 23 41 31 41 19 0 19 4 -9 -66 -15 -35 -30 -58 -38 -56
-12 2 -169 63 -176 67 -5 4 42 125 49 125 4 0 10 -4 14 -10z m-2778 -116 c4
-11 -18 -40 -71 -92 -61 -62 -78 -74 -86 -62 -6 10 -3 21 10 35 17 19 17 23 3
58 -13 33 -20 38 -40 34 -16 -3 -27 2 -33 14 -9 16 -5 18 52 22 149 8 158 8
165 -9z m2718 -34 c4 -6 -4 -27 -16 -47 -22 -35 -22 -36 -4 -49 27 -20 34 -18
52 21 9 19 20 35 24 35 18 0 19 -21 3 -51 -16 -31 -16 -33 7 -50 24 -18 24
-18 46 19 13 20 24 41 26 46 2 5 8 6 15 2 8 -5 3 -24 -18 -67 -17 -32 -33 -59
-35 -59 -8 0 -175 91 -175 96 0 11 55 114 61 114 5 0 11 -5 14 -10z m-2660
-96 c19 -7 45 -55 45 -81 0 -10 -7 -27 -16 -38 -12 -17 -16 -18 -24 -5 -5 8
-5 21 1 32 24 44 -25 82 -73 58 -32 -17 -68 -51 -68 -65 0 -22 27 -48 51 -49
31 -1 32 -30 1 -34 -29 -4 -82 48 -82 80 0 66 99 127 165 102z m2653 -106
c102 -69 97 -82 -32 -79 l-81 2 55 -37 c30 -20 57 -38 58 -40 2 -1 0 -10 -5
-18 -8 -14 -22 -8 -91 40 -112 77 -109 88 22 85 79 -2 80 -2 56 15 -71 49 -89
65 -84 79 7 17 4 18 102 -47z m-2578 -69 c-34 -29 -34 -36 3 -76 l20 -23 33
25 c26 20 34 22 43 11 9 -11 -4 -26 -65 -75 -42 -33 -80 -61 -85 -61 -23 0
-18 25 10 47 37 29 38 39 6 76 l-25 28 -31 -26 c-31 -25 -54 -29 -54 -8 0 6
34 38 75 71 59 47 78 58 89 49 11 -9 7 -16 -19 -38z m2450 -103 c38 -32 70
-62 70 -67 0 -23 -25 -17 -63 14 -102 85 -110 94 -103 106 11 17 15 14 96 -53z
m-2293 -22 c2 -5 -28 -41 -67 -79 -55 -55 -72 -67 -82 -57 -10 10 2 27 57 82
65 66 84 77 92 54z m2196 -1 c12 -11 -13 -31 -33 -26 -26 7 -50 -14 -50 -42 0
-28 42 -81 71 -90 23 -7 69 18 69 38 0 24 -21 37 -41 24 -30 -19 -35 2 -6 30
l27 27 30 -29 c36 -34 33 -56 -12 -99 -41 -38 -89 -32 -135 19 -42 44 -45 94
-8 130 23 24 73 34 88 18z m-2142 -124 c-17 -103 -15 -107 29 -53 39 48 60 60
67 39 5 -15 -117 -157 -131 -152 -13 4 -14 59 -3 132 l8 50 -47 -53 c-36 -41
-49 -50 -60 -41 -11 9 -1 26 54 90 55 65 69 76 80 66 10 -11 11 -27 3 -78z
m2033 -60 c74 -101 68 -113 -36 -75 -40 14 -77 26 -81 26 -4 0 10 -24 32 -52
30 -40 37 -56 29 -65 -6 -8 -13 -12 -15 -10 -24 25 -120 164 -117 169 9 14 38
9 104 -17 35 -14 65 -23 67 -22 2 2 -13 25 -33 51 -32 42 -39 77 -17 76 4 -1
35 -37 67 -81z m-1815 -35 c28 -19 31 -24 18 -30 -9 -3 -29 3 -46 15 -35 25
-40 26 -57 4 -19 -25 -18 -26 21 -47 19 -11 35 -23 35 -27 0 -19 -22 -19 -50
1 -31 22 -44 21 -60 -9 -8 -16 -3 -23 31 -46 29 -19 38 -30 31 -37 -8 -8 -26
-1 -61 22 -28 17 -51 36 -51 41 0 5 24 45 53 88 l52 80 25 -16 c14 -9 40 -27
59 -39z m1611 -12 c0 -4 -18 -17 -40 -30 -37 -21 -39 -25 -29 -45 7 -12 13
-23 14 -25 2 -2 18 6 36 17 31 19 49 20 49 2 0 -4 -15 -16 -34 -26 -34 -18
-34 -19 -20 -48 l15 -28 43 25 c40 23 56 25 56 5 0 -8 -110 -72 -115 -67 -2 2
-26 41 -53 88 l-50 85 56 32 c51 29 72 33 72 15z m-1489 -130 c-48 -96 -48
-98 0 -122 64 -33 35 -47 -35 -16 l-57 25 15 33 c57 132 71 156 88 146 17 -8
16 -13 -11 -66z m1270 -1 c22 -18 22 -20 6 -26 -9 -4 -24 -2 -32 5 -21 18 -64
4 -70 -23 -11 -42 30 -117 65 -117 9 0 24 6 34 13 23 17 11 49 -17 45 -36 -5
-29 20 8 32 42 14 38 16 54 -30 11 -33 10 -36 -19 -62 -70 -64 -160 -6 -160
103 0 65 80 101 131 60z m-1064 -8 c32 -10 53 -22 53 -31 0 -14 -16 -14 -77 4
-18 5 -25 1 -32 -17 -8 -22 -5 -25 31 -37 21 -8 37 -19 35 -25 -4 -13 -17 -13
-58 -3 -21 6 -27 3 -37 -19 -11 -24 -10 -27 23 -41 19 -7 39 -14 45 -14 5 0
10 -7 10 -15 0 -8 -4 -15 -8 -15 -13 0 -106 32 -114 39 -11 9 51 191 65 191 5
0 34 -8 64 -17z m897 -101 c9 -43 19 -87 22 -98 4 -15 0 -23 -12 -28 -13 -5
-33 9 -76 51 -62 61 -66 59 -44 -24 13 -50 13 -53 -5 -53 -19 0 -24 14 -48
120 -23 100 -3 106 82 23 64 -63 62 -65 36 37 -12 48 -12 50 10 50 15 0 21
-15 35 -78z m-715 -34 c7 -51 15 -101 17 -110 4 -13 0 -18 -15 -18 -14 0 -21
8 -23 27 -2 23 -10 29 -41 36 -34 8 -40 7 -53 -12 -16 -22 -44 -29 -44 -11 0
6 25 48 57 95 75 113 87 113 102 -7z m199 46 c28 -18 29 -60 1 -90 -19 -21
-20 -24 -5 -52 20 -39 20 -52 1 -52 -9 0 -24 20 -35 45 -14 32 -25 45 -40 45
-17 0 -20 -6 -20 -40 0 -34 -3 -40 -21 -40 -22 0 -22 -4 -3 163 l6 48 47 -7
c25 -3 56 -13 69 -20z m309 -74 c9 -62 10 -97 3 -104 -17 -17 -27 6 -39 94
-14 110 -14 112 7 108 14 -3 19 -22 29 -98z m-172 20 c27 -38 50 -70 52 -70 2
0 1 32 -3 70 -6 67 -6 70 15 70 20 0 21 -5 21 -95 0 -52 0 -98 1 -102 0 -5 -7
-9 -15 -11 -9 -2 -33 24 -62 67 -26 39 -49 71 -51 71 -2 0 -1 -31 3 -70 6 -67
6 -70 -15 -70 -20 0 -21 5 -21 78 0 42 -3 87 -6 99 -4 15 -1 22 13 26 10 3 18
5 19 6 0 0 22 -30 49 -69z"/>
<path d="M2185 3574 c-11 -12 -15 -30 -13 -63 3 -45 3 -46 38 -46 34 0 35 2
44 47 7 35 6 51 -4 63 -16 20 -44 19 -65 -1z"/>
<path d="M1786 3584 c-22 -22 -21 -87 2 -107 26 -24 49 -21 68 8 39 60 -22
147 -70 99z"/>
<path d="M2698 3419 c-26 -15 -22 -23 17 -42 45 -22 45 -22 45 8 0 14 -8 29
-19 35 -23 12 -22 12 -43 -1z"/>
<path d="M1207 3403 c-4 -3 -7 -19 -7 -34 l0 -27 39 21 c30 16 37 25 29 34
-11 14 -50 18 -61 6z"/>
<path d="M973 3243 c-20 -7 -15 -57 8 -87 22 -27 57 -34 77 -14 18 18 15 38
-14 75 -24 31 -42 38 -71 26z"/>
<path d="M1874 2402 c-77 -27 -152 -80 -195 -137 -32 -42 -69 -111 -69 -129 0
-2 23 4 50 15 29 11 75 19 110 19 50 0 66 5 103 31 36 25 58 32 110 36 58 5
73 2 121 -21 69 -34 112 -90 128 -167 10 -51 15 -57 45 -69 42 -15 73 -62 73
-113 0 -29 -8 -46 -34 -75 l-34 -37 -141 -3 -141 -4 0 -85 0 -85 163 4 c179 4
193 7 268 75 122 111 129 299 16 416 -23 23 -59 77 -79 118 -45 92 -103 149
-196 192 -86 40 -216 49 -298 19z"/>
<path d="M2590 1106 c0 -5 14 -31 31 -58 l31 -48 30 21 c33 24 32 37 -2 17
-20 -12 -24 -10 -38 11 -27 40 -51 67 -52 57z"/>
<path d="M1416 1076 c-9 -14 -23 -38 -32 -52 -8 -14 -13 -29 -9 -32 4 -4 11 1
16 11 8 14 18 16 49 11 32 -5 41 -3 46 11 8 21 -4 43 -33 62 -20 13 -23 12
-37 -11z m45 -12 c18 -16 15 -44 -5 -44 -24 0 -38 18 -31 39 8 25 13 26 36 5z"/>
<path d="M2517 1013 c3 -27 10 -57 14 -68 8 -19 8 -19 8 1 1 32 28 51 51 36
38 -24 28 6 -15 41 -58 49 -66 48 -58 -10z m41 -14 c-17 -11 -28 -2 -28 23 0
21 1 21 20 3 15 -14 17 -21 8 -26z"/>
<path d="M1521 1023 c-24 -47 -39 -93 -30 -93 6 0 13 9 16 20 7 27 27 20 31
-11 5 -36 22 -48 22 -16 0 15 9 36 20 47 23 23 18 43 -16 59 -32 14 -32 14
-43 -6z m49 -18 c17 -21 -1 -39 -29 -30 -17 5 -19 10 -11 26 13 23 23 24 40 4z"/>
<path d="M2446 985 c20 -49 19 -49 -30 -16 -24 17 -46 28 -49 25 -5 -6 28
-103 39 -113 13 -13 12 11 -1 42 -18 44 -13 45 31 12 41 -31 58 -32 48 -3 -15
48 -35 88 -44 88 -5 0 -2 -16 6 -35z"/>
<path d="M1630 970 c-20 -20 -26 -65 -12 -86 16 -24 43 -24 68 1 30 30 33 80
5 95 -28 14 -38 13 -61 -10z m64 -15 c8 -21 -10 -64 -30 -72 -8 -3 -22 1 -30
9 -22 22 0 78 31 78 13 0 25 -7 29 -15z"/>
<path d="M2262 958 c-19 -19 -15 -73 7 -92 46 -42 98 10 70 70 -15 32 -55 44
-77 22z m58 -17 c15 -29 12 -68 -6 -75 -21 -8 -40 8 -48 40 -12 46 33 74 54
35z"/>
<path d="M1745 914 c-3 -26 -9 -53 -12 -60 -3 -8 -1 -14 5 -14 5 0 13 12 16
26 6 22 11 25 31 20 14 -4 25 -2 25 4 0 5 -11 10 -25 10 -27 0 -30 6 -16 29 5
8 19 12 35 9 14 -3 26 -2 26 2 0 6 -48 20 -70 20 -4 0 -11 -21 -15 -46z"/>
<path d="M2190 939 c0 -39 14 -109 22 -109 10 0 0 87 -13 110 -7 13 -8 13 -9
-1z"/>
<path d="M1856 924 c-3 -9 -6 -35 -6 -59 0 -42 1 -43 35 -47 19 -2 35 0 35 4
0 4 -14 8 -31 8 -24 0 -30 3 -25 16 3 9 6 18 6 20 0 2 12 4 26 4 14 0 23 4 19
10 -3 6 -15 10 -26 10 -13 0 -19 7 -19 21 0 18 4 20 30 14 19 -4 30 -3 30 4 0
18 -67 13 -74 -5z"/>
<path d="M1978 929 c-29 -16 -21 -44 17 -62 19 -9 35 -21 35 -26 0 -18 -33
-21 -51 -5 -17 16 -19 16 -19 1 0 -18 41 -33 66 -23 24 9 13 49 -18 64 -16 7
-28 20 -28 28 0 17 31 19 48 2 9 -9 12 -9 12 0 0 6 -9 16 -19 22 -23 12 -22
12 -43 -1z"/>
<path d="M2080 925 c-18 -22 -5 -45 29 -51 16 -4 32 -13 35 -21 8 -19 -23 -29
-46 -14 -16 10 -19 10 -16 -1 3 -7 19 -13 39 -13 28 0 35 4 37 23 3 18 -4 26
-32 37 -20 9 -36 20 -36 25 0 16 30 24 43 11 17 -17 31 -13 17 4 -16 19 -54
19 -70 0z"/>
<path d="M824 3102 c-19 -12 -22 -36 -8 -64 28 -55 97 -62 110 -12 12 46 -63
102 -102 76z"/>
<path d="M680 2931 c-15 -29 -13 -40 16 -66 45 -41 104 -29 104 21 0 50 -97
86 -120 45z"/>
<path d="M3250 2929 c0 -6 10 -25 22 -41 20 -29 22 -30 35 -12 17 23 16 29 -3
48 -18 18 -54 21 -54 5z"/>
<path d="M3355 2772 c-39 -9 -65 -34 -65 -63 0 -42 32 -52 81 -25 44 24 53 40
39 66 -11 21 -28 28 -55 22z"/>
<path d="M3473 1628 c-6 -7 -13 -23 -15 -35 -5 -18 -1 -23 24 -29 21 -4 33 -2
39 7 14 23 10 48 -10 59 -25 13 -26 13 -38 -2z"/>
<path d="M549 1371 c-23 -5 -25 -9 -17 -30 l9 -24 29 28 c17 16 30 30 30 32 0
4 -19 2 -51 -6z"/>
<path d="M1657 469 c-19 -34 -15 -49 14 -49 20 0 25 27 11 62 -6 15 -10 12
-25 -13z"/>
<path d="M1830 461 c0 -20 6 -32 19 -36 31 -10 52 5 49 34 -2 21 -9 27 -35 29
-31 3 -33 1 -33 -27z"/>
</g>
</svg>
