<?xml version="1.0" standalone="no"?>
<!DOCTYPE svg PUBLIC "-//W3C//DTD SVG 20010904//EN"
 "http://www.w3.org/TR/2001/REC-SVG-20010904/DTD/svg10.dtd">
<svg version="1.0" xmlns="http://www.w3.org/2000/svg"
 width="302.000000pt" height="299.000000pt" viewBox="0 0 302.000000 299.000000"
 preserveAspectRatio="xMidYMid meet">

<g transform="translate(0.000000,299.000000) scale(0.100000,-0.100000)"
fill="#000000" stroke="none">
<path d="M360 2970 c-102 -5 -133 -10 -168 -28 -58 -31 -113 -88 -143 -148
-23 -48 -24 -58 -31 -394 -5 -190 -7 -615 -6 -945 l3 -600 30 -54 c43 -79 93
-116 291 -218 194 -101 337 -175 709 -371 407 -213 368 -197 465 -197 78 0 91
3 155 36 61 32 273 142 650 339 61 32 178 92 260 135 335 174 349 183 401 279
l29 51 0 950 0 950 -23 43 c-36 67 -88 119 -154 152 l-61 30 -1141 -2 c-628
-1 -1197 -4 -1266 -8z m742 -1079 c37 -41 36 -61 -2 -61 -19 0 -33 7 -40 20
-14 26 -85 28 -112 3 -26 -23 -25 -106 2 -133 24 -24 77 -26 102 -3 26 23 23
31 -14 35 -25 2 -34 8 -36 26 -3 21 0 22 67 22 69 0 71 -1 71 -25 0 -78 -56
-127 -143 -127 -58 0 -93 22 -119 73 -55 106 20 215 141 206 46 -3 59 -9 83
-36z m128 14 c0 -20 -5 -25 -24 -25 -14 0 -28 5 -31 10 -12 19 4 40 30 40 20
0 25 -5 25 -25z m262 -32 l3 -58 60 0 60 0 3 58 c3 57 4 58 30 55 l27 -3 3
-137 3 -138 -31 0 c-30 0 -30 0 -30 55 l0 55 -65 0 -65 0 0 -55 c0 -54 0 -55
-30 -55 l-30 0 0 140 0 140 30 0 c28 0 29 -1 32 -57z m536 6 l3 -47 30 15 c25
12 35 13 60 3 38 -16 49 -37 49 -98 0 -83 -56 -126 -120 -92 -13 7 -21 7 -25
0 -3 -5 -17 -10 -31 -10 l-24 0 0 133 c0 74 3 137 7 141 4 4 16 6 28 4 16 -2
21 -12 23 -49z m-678 1 c0 -23 4 -30 20 -30 13 0 20 -7 20 -20 0 -13 -7 -20
-20 -20 -18 0 -20 -7 -20 -54 0 -45 3 -54 20 -59 12 -3 20 -14 20 -26 0 -18
-6 -21 -38 -21 -53 0 -62 13 -62 92 0 61 -2 68 -20 68 -13 0 -20 7 -20 20 0
13 7 20 20 20 16 0 20 7 20 30 0 27 3 30 30 30 27 0 30 -3 30 -30z m-120 -131
l0 -100 -27 3 -28 3 -3 98 -3 97 31 0 30 0 0 -101z m562 30 c2 -57 7 -74 21
-83 31 -19 57 24 57 95 0 56 1 59 25 59 l25 0 0 -100 0 -100 -25 0 c-17 0 -25
6 -25 17 0 15 -1 15 -18 0 -25 -23 -78 -21 -102 3 -17 17 -20 33 -20 100 l0
80 30 0 29 0 3 -71z m-784 -251 c11 -29 29 -84 41 -123 12 -38 24 -78 27 -87
4 -15 -1 -18 -26 -18 -26 0 -33 5 -41 30 -10 28 -14 30 -63 30 -48 0 -52 -2
-63 -30 -8 -22 -18 -30 -35 -30 -14 0 -27 3 -30 6 -3 3 14 66 39 140 l45 134
43 0 c43 0 44 0 63 -52z m510 30 c-4 -28 -42 -37 -52 -13 -9 24 1 35 30 35 21
0 25 -4 22 -22z m-128 -18 c0 -23 4 -30 20 -30 15 0 20 -7 20 -25 0 -18 -5
-25 -20 -25 -18 0 -20 -7 -20 -55 0 -48 2 -55 20 -55 15 0 20 -7 20 -25 0 -21
-5 -25 -30 -25 -49 0 -70 30 -70 100 0 47 -3 60 -15 60 -9 0 -15 9 -15 25 0
16 6 25 15 25 9 0 15 9 15 23 0 13 3 27 7 30 3 4 17 7 30 7 19 0 23 -5 23 -30z
m-136 -51 c34 -27 35 -59 1 -59 -14 0 -28 7 -31 15 -7 18 -45 20 -62 3 -16
-16 -16 -70 0 -86 17 -17 55 -15 62 3 8 23 56 19 56 -4 0 -30 -47 -61 -92 -61
-66 0 -108 59 -94 135 13 69 103 99 160 54z m264 -81 c-3 -97 -4 -103 -25
-106 -21 -3 -22 0 -25 98 -2 56 -1 104 1 106 2 2 15 4 28 4 24 0 24 -1 21
-102z m213 73 c24 -24 29 -38 29 -76 0 -39 -5 -52 -30 -77 -28 -28 -36 -30
-78 -25 -62 7 -92 40 -92 103 0 63 40 104 100 104 33 0 48 -6 71 -29z m115 14
c5 -13 8 -13 27 0 34 24 73 19 97 -12 18 -23 20 -38 18 -102 -3 -68 -5 -76
-23 -76 -18 0 -21 8 -25 67 -3 45 -11 73 -22 84 -16 16 -19 16 -42 1 -22 -15
-25 -25 -28 -84 -3 -60 -5 -68 -23 -68 -19 0 -20 8 -23 103 -3 97 -2 102 18
102 11 0 23 -7 26 -15z m332 -1 c30 -21 28 -44 -3 -44 -14 0 -25 5 -25 10 0 6
-13 10 -30 10 -20 0 -30 -5 -30 -15 0 -17 3 -18 67 -35 45 -11 59 -33 49 -75
-12 -47 -122 -58 -161 -15 -18 20 -13 40 9 40 8 0 19 -7 26 -15 15 -18 66 -20
76 -3 10 15 -24 38 -58 38 -30 0 -68 31 -68 55 0 9 11 27 25 40 29 29 88 34
123 9z m-1038 -599 c15 -18 7 -19 -19 -3 -30 18 -51 3 -51 -36 0 -26 5 -36 21
-41 12 -4 26 -2 32 4 17 17 31 13 17 -4 -17 -20 -55 -19 -75 2 -19 18 -14 71
8 85 20 13 54 9 67 -7z m314 0 c-5 -11 1 -15 20 -15 24 0 26 -3 25 -42 l-2
-43 -6 35 c-9 50 -41 55 -41 6 0 -20 -4 -36 -9 -36 -12 0 -19 77 -8 95 11 20
28 19 21 0z m-108 -10 c9 -8 11 -15 5 -15 -15 0 -14 -57 2 -64 6 -3 3 -5 -8
-3 -16 2 -21 11 -23 50 -3 50 1 56 24 32z m394 5 c0 -5 11 -10 25 -10 23 0 25
-3 23 -42 l-1 -43 -4 38 c-3 29 -8 37 -25 37 -17 0 -20 -5 -16 -35 2 -22 0
-34 -6 -32 -12 4 -24 64 -18 85 5 14 22 16 22 2z m-502 -32 c2 -10 -1 -18 -7
-18 -6 0 -11 7 -11 16 0 9 -7 14 -17 12 -11 -2 -17 -12 -17 -28 0 -21 4 -25
27 -23 15 1 25 -2 22 -8 -4 -5 -17 -9 -30 -9 -30 0 -45 41 -24 66 16 19 53 14
57 -8z m60 15 c-13 -3 -18 -15 -18 -39 0 -21 -4 -33 -10 -29 -11 7 -14 58 -3
68 3 4 16 6 27 6 17 -1 18 -2 4 -6z m102 -39 c0 -19 -4 -34 -10 -34 -5 0 -10
18 -10 41 0 24 4 38 10 34 6 -3 10 -22 10 -41z m184 38 c3 -5 -5 -8 -17 -8
-17 1 -22 -5 -22 -24 0 -20 4 -25 23 -23 13 2 21 -1 17 -7 -11 -17 -44 -11
-55 10 -8 14 -8 26 0 40 11 20 44 27 54 12z m96 -32 c0 -32 -3 -36 -30 -38
-24 -2 -31 2 -36 23 -8 32 11 55 42 53 20 -2 24 -8 24 -38z m204 18 c15 -25
-4 -53 -35 -53 -25 0 -37 30 -25 61 8 20 46 14 60 -8z m36 -28 l-8 -35 -1 45
c-1 27 3 40 8 35 6 -6 6 -25 1 -45z m57 5 l2 -40 -9 34 c-4 18 -14 38 -22 43
-10 7 -8 8 7 6 16 -3 20 -12 22 -43z m-716 -85 c11 -6 19 -21 19 -35 0 -20 -6
-25 -34 -31 -25 -4 -36 -12 -39 -28 -2 -11 -5 4 -6 35 -1 71 12 84 60 59z
m179 -64 c0 -32 -26 -53 -48 -39 -24 14 -27 54 -7 70 24 17 55 -1 55 -31z
m-102 27 c-10 -2 -18 -17 -21 -36 -4 -31 -4 -31 -5 6 -2 33 1 37 21 36 15 -1
17 -3 5 -6z m190 -40 c-3 -45 -5 -48 -33 -50 -27 -2 -28 -1 -5 5 19 6 24 14
25 42 0 25 -5 36 -18 38 -26 5 -34 -28 -11 -45 19 -14 19 -15 -1 -11 -21 3
-31 29 -21 54 3 8 19 14 36 14 31 0 31 0 28 -47z m60 40 c-10 -2 -18 -17 -21
-36 -4 -31 -4 -31 -5 6 -2 33 1 37 21 36 15 -1 17 -3 5 -6z m102 -35 c0 -23
-3 -38 -7 -34 -5 4 -8 20 -8 34 0 17 -6 28 -18 30 -25 5 -33 -25 -12 -48 19
-21 7 -28 -13 -8 -13 13 -16 50 -5 61 3 4 19 7 35 7 26 0 28 -3 28 -42z m49
30 c-1 -7 -5 -24 -9 -38 -7 -22 -8 -21 -9 13 -1 20 4 37 9 37 6 0 10 -6 9 -12z
m48 -28 l2 -35 -9 29 c-5 16 -15 33 -22 38 -9 7 -7 8 7 6 15 -2 21 -12 22 -38z
m51 3 c-1 -37 -1 -37 -5 -6 -3 19 -11 34 -21 36 -12 3 -10 5 6 6 19 1 22 -3
20 -36z"/>
<path d="M2042 1798 c-7 -7 -12 -29 -12 -50 0 -32 5 -41 26 -50 23 -11 29 -10
45 11 21 26 24 53 9 82 -12 21 -50 25 -68 7z"/>
<path d="M932 1478 c-6 -18 -13 -41 -17 -50 -6 -15 -1 -18 30 -18 34 0 37 2
31 25 -9 36 -25 75 -30 75 -3 0 -9 -15 -14 -32z"/>
<path d="M1644 1460 c-26 -10 -37 -50 -24 -84 7 -20 16 -26 40 -26 24 0 33 6
40 26 20 52 -12 100 -56 84z"/>
<path d="M1634 856 c-8 -22 3 -49 19 -43 6 2 12 14 12 27 0 27 -22 39 -31 16z"/>
<path d="M1834 855 c-8 -21 3 -48 19 -43 19 7 22 58 2 58 -8 0 -18 -7 -21 -15z"/>
<path d="M1210 721 c0 -17 6 -21 31 -21 24 0 30 4 27 18 -2 10 -14 18 -31 20
-22 3 -27 -1 -27 -17z"/>
<path d="M1387 703 c-12 -12 -7 -41 7 -46 19 -7 40 18 32 38 -6 15 -28 20 -39
8z"/>
</g>
</svg>
