<?xml version="1.0" standalone="no"?>
<!DOCTYPE svg PUBLIC "-//W3C//DTD SVG 20010904//EN"
 "http://www.w3.org/TR/2001/REC-SVG-20010904/DTD/svg10.dtd">
<svg version="1.0" xmlns="http://www.w3.org/2000/svg"
 width="1280.000000pt" height="369.000000pt" viewBox="0 0 1280.000000 369.000000"
 preserveAspectRatio="xMidYMid meet">

<g transform="translate(0.000000,369.000000) scale(0.100000,-0.100000)"
fill="#000000" stroke="none">
<path d="M1908 3088 l-695 -583 -118 -205 c-512 -886 -1085 -1882 -1085 -1886
0 -2 243 -3 541 -2 l541 3 734 1575 c831 1781 784 1680 780 1680 -2 0 -316
-262 -698 -582z"/>
<path d="M2777 3403 c-10 -16 -587 -1610 -587 -1621 0 -10 364 -448 997 -1199
84 -100 150 -184 146 -186 -5 -2 -490 -89 -1079 -193 l-1072 -189 888 -3 c489
-1 1291 -1 1784 0 l895 3 -306 530 c-1461 2533 -1644 2848 -1653 2858 -4 5
-10 5 -13 0z"/>
<path d="M5922 2273 c-56 -148 -239 -627 -406 -1065 l-303 -798 136 0 136 0
105 298 105 297 456 3 456 2 113 -300 113 -300 134 0 c123 0 134 1 129 18 -4
9 -187 487 -409 1062 l-402 1045 -131 3 -130 3 -102 -268z m246 -38 c10 -50
100 -303 290 -817 l70 -188 -374 0 c-206 0 -374 2 -374 4 0 2 78 219 174 482
96 264 178 500 181 527 4 26 11 47 15 47 4 0 12 -25 18 -55z"/>
<path d="M12002 1950 c-247 -65 -429 -263 -508 -556 -28 -104 -26 -397 4 -509
65 -239 215 -410 427 -482 75 -26 90 -28 250 -28 201 0 257 12 413 85 l102 49
0 111 c0 86 -3 109 -12 104 -7 -4 -37 -23 -66 -42 -107 -67 -268 -112 -406
-112 -270 0 -464 185 -492 469 l-7 71 541 0 541 0 7 46 c8 58 -11 280 -32 359
-59 225 -214 384 -429 440 -83 21 -241 19 -333 -5z m301 -206 c133 -47 229
-191 244 -366 l6 -68 -417 0 -416 0 0 23 c0 38 30 128 63 191 40 76 130 166
198 200 92 45 227 53 322 20z"/>
<path d="M11063 1946 c-112 -37 -204 -123 -263 -249 -26 -56 -39 -74 -44 -62
-3 9 -6 79 -6 156 l0 139 -120 0 -120 0 0 -473 c0 -261 3 -603 7 -760 l6 -287
112 0 112 0 6 458 c5 424 7 462 27 530 44 156 125 270 223 313 72 32 191 33
260 2 l47 -22 0 123 c0 109 -2 125 -17 131 -36 14 -187 15 -230 1z"/>
<path d="M7280 1830 l0 -100 410 0 c226 0 410 -3 410 -6 0 -3 -202 -284 -450
-624 -394 -541 -450 -623 -450 -654 l0 -36 625 0 625 0 0 100 0 100 -445 0
c-245 0 -445 3 -445 8 1 4 203 286 450 627 371 511 450 626 450 653 l0 32
-590 0 -590 0 0 -100z"/>
<path d="M8753 1378 c3 -482 6 -561 20 -617 70 -262 242 -391 522 -391 181 0
324 71 424 210 l46 65 3 -118 3 -117 119 0 120 0 0 755 0 755 -120 0 -120 0 0
-486 0 -485 -25 -76 c-63 -188 -186 -291 -358 -301 -155 -9 -270 47 -334 164
-60 109 -63 143 -63 697 l0 497 -121 0 -120 0 4 -552z"/>
</g>
</svg>
