<?xml version="1.0" standalone="no"?>
<!DOCTYPE svg PUBLIC "-//W3C//DTD SVG 20010904//EN"
 "http://www.w3.org/TR/2001/REC-SVG-20010904/DTD/svg10.dtd">
<svg version="1.0" xmlns="http://www.w3.org/2000/svg"
 width="960.000000pt" height="149.000000pt" viewBox="0 0 960.000000 149.000000"
 preserveAspectRatio="xMidYMid meet">

<g transform="translate(0.000000,149.000000) scale(0.100000,-0.100000)"
fill="#000000" stroke="none">
<path d="M802 1470 c-75 -14 -189 -60 -254 -104 -76 -50 -176 -158 -216 -233
-33 -63 -65 -143 -56 -143 2 0 28 12 56 26 71 36 179 57 254 50 56 -6 62 -4
85 20 13 14 51 40 84 57 76 38 191 48 276 24 160 -47 269 -186 269 -342 l0
-53 45 -11 c52 -13 112 -62 131 -108 35 -83 3 -193 -69 -241 -40 -27 -41 -27
-259 -30 l-218 -3 0 -145 0 -144 218 0 c300 0 375 22 497 145 197 198 191 489
-14 694 -39 39 -71 77 -71 85 0 7 -18 50 -40 94 -51 101 -161 221 -251 275
-130 76 -323 112 -467 87z"/>
<path d="M2639 1246 c-148 -52 -271 -179 -313 -325 -22 -75 -21 -204 3 -280
62 -201 258 -341 476 -341 179 0 331 92 407 247 30 61 33 77 37 175 l3 108
-226 0 -226 0 0 -65 0 -65 160 0 160 0 0 -23 c0 -13 -14 -51 -31 -85 -74 -148
-283 -206 -445 -124 -76 38 -146 114 -173 188 -29 75 -28 184 1 261 26 69 102
155 170 189 115 59 265 46 368 -31 l35 -26 41 48 c23 26 40 51 38 55 -12 19
-118 79 -172 97 -88 30 -224 29 -313 -3z"/>
<path d="M5390 780 l0 -460 65 0 65 0 0 460 0 460 -65 0 -65 0 0 -460z"/>
<path d="M6811 1179 c-216 -42 -367 -249 -348 -477 18 -221 185 -384 408 -399
122 -9 232 26 327 104 l44 36 -38 38 -37 38 -40 -35 c-67 -61 -118 -79 -227
-79 -84 0 -101 3 -147 28 -67 35 -116 84 -150 150 -38 74 -44 207 -13 289 28
75 96 150 168 184 47 23 71 28 137 28 96 1 139 -13 204 -64 l49 -39 33 35 33
34 -29 31 c-79 81 -242 124 -374 98z"/>
<path d="M7340 745 l0 -425 55 0 55 0 0 425 0 425 -55 0 -55 0 0 -425z"/>
<path d="M9330 993 l0 -177 -32 31 c-53 50 -96 67 -168 66 -36 0 -81 -7 -101
-15 -56 -25 -116 -84 -146 -146 -37 -78 -39 -200 -4 -280 31 -68 113 -144 175
-162 90 -25 190 1 248 63 l28 29 0 -41 0 -41 50 0 50 0 0 425 0 425 -50 0 -50
0 0 -177z m-100 -193 c22 -11 52 -39 67 -62 38 -57 45 -175 14 -235 -32 -63
-105 -113 -166 -113 -29 0 -88 24 -115 47 -54 45 -72 95 -68 184 3 67 7 83 33
120 17 23 46 50 65 60 46 25 120 24 170 -1z"/>
<path d="M3524 909 c-53 -15 -127 -72 -161 -122 -134 -200 -6 -465 233 -485
145 -11 289 82 326 212 18 67 13 166 -12 225 -28 65 -112 143 -176 165 -51 17
-159 20 -210 5z m186 -131 c20 -10 47 -35 60 -55 21 -31 25 -48 25 -114 0 -71
-2 -80 -31 -116 -106 -133 -305 -73 -322 97 -8 91 52 189 126 206 15 3 32 7
37 9 18 6 69 -7 105 -27z"/>
<path d="M4207 906 c-136 -50 -215 -172 -205 -315 6 -83 34 -148 87 -199 67
-65 122 -86 221 -87 73 0 93 4 142 28 65 32 122 90 151 156 31 69 29 179 -5
251 -30 66 -84 121 -147 152 -57 28 -186 36 -244 14z m148 -107 c84 -24 135
-91 135 -181 0 -68 -12 -103 -48 -142 -112 -120 -313 -33 -312 135 1 82 61
170 128 185 15 3 32 7 37 9 16 6 18 5 60 -6z"/>
<path d="M4862 894 c-136 -68 -202 -229 -156 -383 23 -80 118 -173 198 -196
83 -24 157 -15 213 24 l43 31 0 -58 c0 -108 -65 -177 -166 -176 -61 1 -114 30
-141 75 -10 16 -23 29 -29 29 -19 0 -104 -40 -104 -49 0 -18 63 -93 101 -120
60 -44 100 -54 195 -49 70 4 90 9 131 34 26 16 62 49 80 72 58 77 63 110 63
459 l0 313 -65 0 c-64 0 -65 0 -65 -27 l0 -26 -22 20 c-67 61 -185 73 -276 27z
m230 -119 c74 -50 101 -172 57 -262 -29 -59 -70 -86 -138 -91 -70 -4 -114 18
-156 77 -26 37 -30 51 -30 111 0 60 4 74 30 112 38 53 85 78 150 78 37 0 60
-7 87 -25z"/>
<path d="M5774 901 c-108 -49 -167 -140 -172 -268 -5 -103 14 -164 70 -228
116 -132 315 -140 444 -19 l49 46 -29 23 c-16 13 -40 29 -53 36 -21 11 -25 10
-40 -10 -36 -52 -152 -77 -212 -46 -35 18 -85 75 -74 85 4 4 94 41 198 84 105
42 196 81 204 85 12 8 10 19 -13 65 -32 66 -108 138 -164 154 -60 18 -160 15
-208 -7z m182 -107 c30 -15 62 -50 52 -59 -7 -6 -251 -105 -266 -107 -13 -2
-16 3 -13 27 4 40 23 74 58 107 51 49 110 60 169 32z"/>
<path d="M7777 910 c-97 -25 -183 -101 -213 -192 -23 -69 -16 -197 14 -255 55
-106 143 -158 267 -158 94 0 151 22 208 79 58 58 80 109 85 202 6 105 -14 166
-73 232 -70 78 -190 116 -288 92z m153 -110 c124 -63 148 -245 46 -346 -180
-181 -433 86 -279 294 51 69 155 92 233 52z"/>
<path d="M8242 672 l3 -229 30 -48 c20 -32 45 -56 74 -72 87 -46 219 -22 276
51 l25 31 0 -42 0 -43 50 0 50 0 0 290 0 290 -50 0 -50 0 0 -172 c0 -95 -5
-190 -10 -210 -43 -154 -248 -169 -289 -22 -6 21 -11 121 -11 222 l0 182 -51
0 -50 0 3 -228z"/>
</g>
</svg>
