<?xml version="1.0" standalone="no"?>
<!DOCTYPE svg PUBLIC "-//W3C//DTD SVG 20010904//EN"
 "http://www.w3.org/TR/2001/REC-SVG-20010904/DTD/svg10.dtd">
<svg version="1.0" xmlns="http://www.w3.org/2000/svg"
 width="1280.000000pt" height="1244.000000pt" viewBox="0 0 1280.000000 1244.000000"
 preserveAspectRatio="xMidYMid meet">

<g transform="translate(0.000000,1244.000000) scale(0.100000,-0.100000)"
fill="#000000" stroke="none">
<path d="M6268 12250 c-73 -13 -152 -38 -231 -74 -432 -199 -4386 -2098 -4431
-2129 -129 -86 -240 -224 -300 -372 -29 -72 -1103 -4732 -1119 -4858 -21 -161
19 -349 106 -495 66 -111 3096 -3872 3168 -3932 120 -100 261 -165 409 -189
44 -7 851 -11 2526 -11 2167 0 2472 2 2549 15 164 29 312 105 429 220 56 54
2690 3318 3048 3777 86 110 136 205 168 318 27 99 36 237 21 325 -25 143
-1091 4755 -1114 4817 -57 159 -182 312 -330 405 -46 29 -4283 2055 -4432
2119 -150 65 -322 88 -467 64z m203 -1576 c69 -20 148 -97 172 -169 22 -62 23
-234 2 -341 -24 -129 -45 -341 -45 -464 0 -123 10 -155 66 -207 20 -18 24 -32
24 -76 l0 -54 78 -7 c110 -10 325 -51 477 -91 550 -144 1063 -432 1487 -834
l107 -102 48 34 c39 28 55 33 84 30 98 -13 173 42 464 339 261 266 305 294
446 286 85 -5 150 -42 194 -112 24 -40 30 -62 33 -120 3 -64 0 -77 -30 -136
-42 -83 -122 -151 -289 -244 -160 -90 -371 -232 -431 -290 -45 -44 -68 -92
-68 -143 0 -13 -17 -36 -44 -60 l-45 -38 65 -105 c90 -145 219 -408 283 -574
172 -454 248 -971 211 -1431 -20 -237 -22 -217 28 -231 29 -9 59 -31 100 -72
l57 -59 105 -22 c119 -24 304 -47 460 -56 208 -13 318 -51 390 -132 104 -119
83 -291 -48 -374 -115 -73 -227 -65 -468 34 -142 58 -379 135 -470 152 -78 15
-111 11 -167 -24 -27 -16 -39 -18 -81 -10 -27 5 -50 8 -52 7 -1 -2 -28 -70
-59 -153 -161 -420 -366 -757 -662 -1087 -191 -212 -464 -442 -689 -580 -46
-28 -84 -52 -84 -54 0 -1 9 -24 21 -51 18 -42 19 -52 9 -82 -22 -62 -15 -105
32 -204 48 -98 168 -294 268 -437 83 -118 120 -210 120 -297 0 -198 -182 -320
-355 -239 -94 43 -158 134 -210 296 -15 47 -41 128 -57 180 -43 135 -115 316
-150 377 -31 55 -63 84 -113 100 -27 8 -46 29 -80 88 -10 16 -21 14 -150 -28
-226 -74 -429 -118 -680 -149 -142 -17 -585 -17 -725 0 -287 35 -591 108 -821
197 -13 5 -25 -8 -49 -49 -17 -31 -38 -56 -45 -56 -57 0 -126 -73 -172 -185
-36 -84 -120 -325 -147 -417 -66 -232 -143 -336 -275 -375 -45 -13 -66 -14
-108 -5 -177 37 -254 227 -167 412 17 36 81 139 142 230 126 188 225 362 248
436 15 46 15 55 0 106 -15 53 -15 58 5 102 11 26 19 51 17 56 -2 4 -64 49
-138 98 -573 383 -1019 932 -1270 1562 -20 52 -45 119 -54 148 l-18 52 -66 -2
c-53 -2 -78 3 -120 22 l-53 24 -84 -17 c-103 -21 -287 -81 -465 -152 -170 -67
-279 -91 -350 -76 -95 20 -165 72 -206 151 -26 50 -24 152 4 207 24 46 83 108
124 129 58 30 178 54 323 64 250 16 480 52 551 86 18 9 48 36 66 60 26 35 44
47 87 60 l54 16 -6 52 c-64 548 -5 1065 178 1572 80 218 196 456 313 639 l45
69 -41 36 c-33 29 -42 45 -52 94 -10 50 -19 66 -60 106 -51 50 -238 180 -355
247 -188 107 -219 127 -274 173 -137 114 -163 298 -58 408 54 57 102 77 187
77 128 0 155 -19 435 -300 144 -145 265 -258 304 -283 58 -38 69 -42 127 -42
56 0 70 -4 106 -30 l42 -31 95 94 c422 415 942 706 1518 851 147 36 340 71
463 84 l75 7 3 48 c2 37 11 59 39 95 19 25 39 57 44 70 22 58 1 385 -37 591
-21 114 -16 312 9 359 25 47 85 110 121 129 66 35 113 39 187 17z"/>
<path d="M5960 8650 c-494 -81 -938 -289 -1328 -625 l-113 -97 108 -76 c59
-42 311 -220 558 -396 248 -175 468 -327 490 -337 51 -24 129 -24 181 0 51 23
109 90 123 144 10 35 95 1398 88 1402 -1 1 -49 -6 -107 -15z"/>
<path d="M6735 8586 c3 -44 21 -356 40 -693 27 -476 38 -621 50 -650 52 -124
197 -173 318 -107 30 16 296 200 591 409 l536 380 -48 43 c-400 365 -892 604
-1405 686 l-89 13 7 -81z"/>
<path d="M4057 7313 c-192 -343 -307 -745 -332 -1161 -8 -120 2 -381 15 -401
5 -9 106 16 386 97 208 61 492 143 629 182 305 88 367 116 410 184 25 42 30
59 30 115 0 54 -5 75 -28 113 -20 35 -157 163 -500 469 -260 232 -491 440
-513 461 l-42 40 -55 -99z"/>
<path d="M8160 6943 c-429 -384 -514 -465 -535 -507 -57 -114 -15 -239 100
-299 44 -23 1337 -398 1345 -390 3 2 5 113 4 246 -1 194 -5 270 -22 382 -42
269 -122 538 -229 765 -62 132 -133 260 -144 260 -5 0 -238 -206 -519 -457z"/>
<path d="M6075 6283 c-65 -82 -122 -154 -128 -160 -7 -10 45 -274 79 -394 2
-8 87 -55 189 -104 l185 -88 185 88 c102 49 185 90 185 91 0 1 20 91 45 199
l46 196 -127 160 -128 159 -207 0 -207 0 -117 -147z"/>
<path d="M4553 5206 c-358 -61 -654 -114 -658 -117 -8 -9 47 -145 114 -279
197 -393 500 -744 856 -992 l85 -60 19 44 c61 139 485 1171 497 1208 50 163
-57 313 -221 309 -22 -1 -333 -51 -692 -113z"/>
<path d="M7445 5301 c-49 -22 -99 -77 -115 -126 -28 -86 -20 -110 260 -787
l264 -636 55 38 c135 91 256 193 391 329 209 209 372 435 498 688 50 100 126
282 120 288 -10 10 -1327 225 -1375 225 -34 0 -74 -8 -98 -19z"/>
<path d="M6302 4744 c-29 -14 -63 -40 -76 -58 -25 -33 -662 -1183 -668 -1205
-3 -14 63 -37 221 -77 343 -85 746 -96 1101 -30 155 29 370 86 370 98 0 9
-640 1170 -650 1178 -3 3 -16 19 -28 37 -12 17 -45 43 -74 57 -68 34 -128 34
-196 0z"/>
</g>
</svg>
