<?xml version="1.0" standalone="no"?>
<!DOCTYPE svg PUBLIC "-//W3C//DTD SVG 20010904//EN"
 "http://www.w3.org/TR/2001/REC-SVG-20010904/DTD/svg10.dtd">
<svg version="1.0" xmlns="http://www.w3.org/2000/svg"
 width="704.000000pt" height="179.000000pt" viewBox="0 0 704.000000 179.000000"
 preserveAspectRatio="xMidYMid meet">

<g transform="translate(0.000000,179.000000) scale(0.100000,-0.100000)"
fill="#000000" stroke="none">
<path d="M550 910 c0 -473 0 -474 60 -505 25 -13 72 -15 287 -13 l258 3 3 43
3 42 -245 0 c-209 0 -247 2 -260 16 -14 13 -16 66 -16 430 l0 414 -45 0 -45 0
0 -430z"/>
<path d="M670 945 c0 -382 1 -396 20 -415 19 -19 33 -20 246 -20 l225 0 -3 43
-3 42 -184 3 c-115 1 -189 7 -198 13 -10 9 -13 85 -13 370 l0 359 -45 0 -45 0
0 -395z"/>
<path d="M790 1004 c0 -212 4 -342 10 -355 10 -18 23 -19 186 -19 l175 0 -3
43 -3 42 -135 5 -135 5 -3 308 -2 307 -45 0 -45 0 0 -336z"/>
<path d="M910 1057 c0 -207 3 -286 12 -295 8 -8 51 -12 126 -12 l113 0 -3 43
-3 42 -77 3 -78 3 -1 32 c-1 18 -3 118 -4 222 -3 271 2 245 -45 245 l-40 0 0
-283z"/>
<path d="M1032 1298 l3 -43 248 -5 c206 -4 249 -8 257 -20 6 -9 10 -185 10
-427 l0 -413 40 0 40 0 0 441 c0 283 -4 447 -10 460 -24 45 -53 49 -330 49
l-261 0 3 -42z"/>
<path d="M1940 886 l0 -455 26 -20 c25 -20 40 -21 225 -21 l199 0 0 55 0 55
-149 0 -150 0 -20 26 c-20 26 -21 37 -21 420 l0 394 -55 0 -55 0 0 -454z"/>
<path d="M2440 1285 l0 -55 55 0 55 0 0 55 0 55 -55 0 -55 0 0 -55z"/>
<path d="M6400 865 l0 -475 55 0 55 0 0 475 0 475 -55 0 -55 0 0 -475z"/>
<path d="M1030 1175 l0 -45 188 0 c133 0 192 -4 200 -12 9 -9 12 -105 12 -370
l0 -358 40 0 40 0 0 403 c0 300 -3 406 -12 415 -9 9 -76 12 -240 12 l-228 0 0
-45z"/>
<path d="M3564 1120 c-108 -23 -210 -104 -261 -208 -25 -50 -28 -68 -28 -152
0 -87 3 -101 32 -161 137 -278 537 -275 663 3 29 63 27 68 -29 68 -47 0 -50
-1 -75 -44 -28 -49 -82 -95 -136 -117 -51 -20 -146 -17 -200 7 -77 35 -144
119 -152 190 l-3 29 318 3 319 2 -7 53 c-13 95 -43 157 -109 223 -45 44 -77
67 -120 83 -68 25 -153 34 -212 21z m213 -138 c45 -29 113 -109 113 -134 0 -4
-112 -8 -250 -8 -268 0 -267 0 -233 50 33 51 69 83 118 107 42 20 62 23 125
21 66 -3 82 -7 127 -36z"/>
<path d="M4593 1116 c-104 -34 -185 -106 -232 -205 l-26 -56 -3 -368 -3 -367
56 0 55 0 0 180 c0 99 2 180 5 180 3 0 24 -14 47 -30 116 -84 313 -80 430 10
25 19 55 48 69 66 l24 32 52 -54 c31 -33 75 -66 110 -82 51 -24 70 -27 158
-27 88 0 107 3 158 27 32 15 80 50 110 80 l52 53 47 -51 c26 -28 74 -64 105
-80 53 -27 67 -29 163 -29 87 0 113 4 153 22 66 31 152 115 184 182 25 50 28
67 28 161 0 90 -3 112 -23 152 -37 75 -105 143 -180 180 -61 30 -74 33 -162
33 -88 0 -101 -3 -162 -33 -42 -20 -83 -51 -110 -81 l-44 -49 -48 50 c-29 31
-74 62 -115 82 -59 28 -76 31 -156 31 -81 0 -97 -3 -155 -32 -62 -30 -113 -70
-143 -113 -14 -21 -16 -20 -71 35 -76 76 -147 108 -251 112 -49 2 -96 -3 -122
-11z m222 -124 c193 -99 192 -373 -1 -468 -48 -23 -63 -26 -127 -22 -39 3 -85
12 -102 20 -43 23 -99 80 -121 124 -26 53 -26 175 0 224 35 67 95 118 166 141
41 14 142 3 185 -19z m606 13 c168 -57 230 -273 118 -408 -51 -62 -103 -89
-181 -95 -161 -11 -278 97 -278 259 0 181 170 302 341 244z m664 -13 c86 -44
136 -118 143 -212 12 -157 -100 -280 -254 -280 -110 0 -185 46 -234 143 -71
142 -5 307 146 363 52 19 148 12 199 -14z"/>
<path d="M1030 1060 l0 -40 121 0 c66 0 129 -5 140 -10 18 -10 19 -24 19 -316
l0 -305 43 3 42 3 3 337 c2 296 0 338 -14 352 -13 13 -44 16 -185 16 l-169 0
0 -40z"/>
<path d="M2440 745 l0 -355 55 0 55 0 0 355 0 355 -55 0 -55 0 0 -355z"/>
<path d="M2600 1093 c0 -4 27 -75 60 -158 33 -82 95 -238 138 -345 l77 -195
74 0 73 0 139 350 c77 192 139 351 139 353 0 1 -28 2 -62 0 -52 -3 -64 -6 -73
-24 -5 -12 -55 -137 -110 -278 -55 -141 -103 -256 -106 -256 -3 0 -55 125
-115 278 l-110 277 -62 3 c-34 2 -62 -1 -62 -5z"/>
<path d="M4142 1070 c-18 -11 -41 -34 -52 -52 -19 -31 -20 -51 -20 -331 l0
-298 53 3 52 3 3 274 c3 323 -1 311 99 311 l63 0 0 55 0 55 -82 0 c-65 0 -90
-4 -116 -20z"/>
<path d="M1030 940 l0 -40 68 0 c40 0 73 -5 80 -12 9 -9 12 -79 12 -256 l0
-243 43 3 42 3 3 273 c1 177 -1 280 -8 292 -10 18 -22 20 -125 20 l-115 0 0
-40z"/>
</g>
</svg>
