<?xml version="1.0" standalone="no"?>
<!DOCTYPE svg PUBLIC "-//W3C//DTD SVG 20010904//EN"
 "http://www.w3.org/TR/2001/REC-SVG-20010904/DTD/svg10.dtd">
<svg version="1.0" xmlns="http://www.w3.org/2000/svg"
 width="3000.000000pt" height="2000.000000pt" viewBox="0 0 3000.000000 2000.000000"
 preserveAspectRatio="xMidYMid meet">

<g transform="translate(0.000000,2000.000000) scale(0.100000,-0.100000)"
fill="#000000" stroke="none">
<path d="M17890 13330 c-14 -5 -105 -34 -202 -65 l-178 -56 0 -1995 0 -1994
215 0 215 0 0 1003 0 1002 106 68 c205 134 398 216 559 238 272 38 471 -111
557 -417 22 -79 23 -82 26 -986 l3 -908 214 0 215 0 0 899 c0 550 -4 938 -10
1000 -13 122 -39 210 -91 311 -153 294 -437 431 -814 391 -255 -27 -475 -106
-690 -245 l-70 -45 -3 905 c-2 714 -5 904 -15 903 -6 0 -23 -4 -37 -9z"/>
<path d="M5835 13179 c-137 -12 -226 -25 -324 -49 -24 -6 -50 -9 -58 -6 -7 3
-12 0 -10 -6 1 -7 -5 -12 -13 -13 -8 0 -139 -146 -292 -325 l-277 -325 -1
-242 0 -243 650 0 650 0 0 -85 0 -85 -832 -1 c-982 -1 -1026 -2 -1049 -26 -9
-10 -181 -213 -384 -450 -204 -241 -372 -430 -378 -426 -6 3 -7 1 -3 -5 4 -6
0 -25 -9 -42 -8 -16 -13 -41 -11 -55 3 -13 1 -27 -4 -30 -5 -3 -9 -13 -10 -23
-17 -374 -10 -494 46 -771 79 -395 189 -595 397 -724 120 -74 156 -80 479 -85
l286 -4 5 364 c4 400 6 411 73 556 105 228 304 395 554 465 72 20 103 21 855
27 l780 5 67 26 c197 77 338 224 406 424 l27 80 3 701 c3 791 4 785 -69 934
-33 67 -59 102 -123 166 -158 157 -291 212 -631 258 -182 25 -600 33 -800 15z
m-298 -402 c82 -43 134 -130 134 -226 1 -145 -103 -251 -246 -251 -174 0 -285
159 -233 334 15 50 98 137 148 154 47 15 157 9 197 -11z"/>
<path d="M25540 12705 c0 -25 1 -25 90 -25 l90 0 0 -240 0 -240 35 0 35 0 0
240 0 240 90 0 c89 0 90 0 90 25 l0 25 -215 0 -215 0 0 -25z"/>
<path d="M26050 12465 l0 -265 25 0 25 0 0 217 c0 131 4 213 9 208 5 -6 39
-103 76 -217 l66 -208 34 0 33 0 74 218 73 217 3 -217 2 -218 35 0 35 0 0 266
0 265 -47 -3 -48 -3 -52 -150 c-93 -265 -106 -297 -113 -285 -4 6 -36 108 -71
226 l-63 214 -48 0 -48 0 0 -265z"/>
<path d="M16293 12610 l-213 -75 0 -362 0 -363 -150 0 -151 0 3 -132 3 -133
147 -3 147 -3 3 -922 3 -922 27 -80 c71 -207 223 -341 456 -402 77 -20 131
-26 260 -30 l162 -6 0 117 0 116 -44 0 c-73 0 -187 28 -256 63 -73 37 -116 85
-152 174 l-23 58 -3 918 -3 917 241 0 240 0 0 135 0 135 -240 0 -240 0 -2 438
-3 437 -212 -75z"/>
<path d="M11474 11869 c-243 -15 -481 -73 -671 -164 -145 -69 -234 -127 -322
-210 l-71 -67 0 -1707 0 -1706 208 -73 c114 -40 210 -72 215 -72 4 0 7 344 7
765 l0 765 48 -30 c188 -115 432 -194 643 -207 398 -24 727 154 934 507 129
221 188 471 188 800 1 274 -28 468 -100 673 -147 424 -417 673 -775 716 -137
16 -177 18 -304 10z m194 -294 c202 -48 337 -194 420 -455 94 -297 102 -845
15 -1150 -122 -430 -468 -603 -911 -454 -77 26 -240 104 -312 149 l-40 25 0
849 0 850 30 21 c81 57 299 141 432 165 101 18 288 18 366 0z"/>
<path d="M21090 11870 c-124 -10 -246 -40 -356 -87 -351 -152 -611 -504 -691
-936 -22 -114 -24 -451 -5 -572 53 -327 175 -588 371 -792 159 -164 349 -262
586 -300 145 -23 377 -14 506 20 204 53 347 134 489 277 277 277 414 673 397
1145 -12 303 -79 521 -229 746 -239 358 -617 534 -1068 499z m309 -320 c280
-90 465 -369 512 -772 15 -135 7 -491 -15 -613 -51 -281 -132 -456 -267 -578
-111 -101 -245 -149 -419 -150 -193 -2 -301 41 -430 172 -70 70 -95 104 -137
186 -88 175 -132 342 -153 590 -21 238 6 532 63 700 87 254 234 404 460 470
126 36 262 34 386 -5z"/>
<path d="M23873 11869 c-169 -12 -387 -59 -538 -116 -111 -41 -289 -135 -422
-222 l-123 -80 0 -1116 0 -1115 210 0 210 0 0 1085 0 1084 44 30 c128 89 305
153 469 172 295 33 538 -76 650 -290 75 -141 71 -78 74 -1133 l4 -948 210 0
209 0 -2 1058 -3 1057 -23 65 c-118 325 -487 504 -969 469z"/>
<path d="M13332 11798 l-203 -71 4 -956 c3 -1053 1 -1009 66 -1141 44 -89 82
-139 158 -210 123 -116 243 -183 401 -222 71 -18 115 -22 242 -21 263 1 533
53 776 148 64 25 118 45 121 45 9 0 -5 -426 -17 -515 -25 -191 -78 -312 -176
-411 -144 -145 -333 -217 -724 -278 -83 -13 -152 -25 -154 -27 -2 -2 13 -63
31 -134 l35 -130 104 7 c400 27 783 170 1004 375 122 113 189 233 235 424 59
250 58 218 62 1737 l4 1392 -211 0 -210 0 0 -1055 0 -1054 -42 -29 c-320 -215
-695 -267 -968 -134 -136 67 -237 183 -286 332 -18 52 -19 116 -22 1028 -2
756 -5 972 -15 971 -7 0 -103 -33 -215 -71z"/>
</g>
</svg>
