<?xml version="1.0" standalone="no"?>
<!DOCTYPE svg PUBLIC "-//W3C//DTD SVG 20010904//EN"
 "http://www.w3.org/TR/2001/REC-SVG-20010904/DTD/svg10.dtd">
<svg version="1.0" xmlns="http://www.w3.org/2000/svg"
 width="3840.000000pt" height="1900.000000pt" viewBox="0 0 3840.000000 1900.000000"
 preserveAspectRatio="xMidYMid meet">

<g transform="translate(0.000000,1900.000000) scale(0.100000,-0.100000)"
fill="#000000" stroke="none">
<path d="M0 7710 l0 -7700 9708 2 9707 1 7695 7699 7695 7698 -5575 -1 c-3066
-1 -5528 -6 -5470 -10 1377 -109 2382 -435 3095 -1005 141 -113 368 -339 475
-474 425 -536 661 -1174 747 -2024 24 -244 25 -848 0 -1066 -91 -808 -345
-1457 -783 -2005 -118 -147 -370 -398 -524 -521 -669 -532 -1535 -853 -2590
-958 -297 -30 -500 -36 -1247 -36 l-753 0 0 -1815 0 -1815 -2802 0 -2803 0
-274 858 c-150 471 -277 861 -281 865 -4 4 -60 -8 -124 -28 -1178 -356 -2605
-349 -3750 21 -59 19 -109 34 -111 32 -1 -2 -130 -391 -285 -865 -156 -475
-286 -867 -290 -873 -4 -7 -563 -9 -1722 -8 l-1716 3 184 490 c101 270 184
494 184 498 0 4 -33 -21 -72 -55 -172 -149 -454 -344 -701 -482 -824 -463
-1784 -676 -2947 -653 -1192 24 -2331 283 -3438 781 -231 104 -692 344 -692
360 0 10 1149 2296 1160 2309 4 5 66 -25 136 -66 784 -454 1464 -702 2144
-781 414 -49 978 -49 1300 0 335 50 558 147 743 323 174 166 269 379 271 611
2 182 -55 311 -204 461 -109 109 -230 189 -455 299 -280 138 -411 185 -1395
500 -672 216 -1161 411 -1625 649 -539 276 -916 542 -1246 878 -245 250 -384
441 -529 733 -183 366 -274 738 -302 1227 -34 605 79 1179 332 1683 165 330
342 573 615 845 489 489 1100 841 1885 1084 l95 30 -1732 0 -1733 1 0 -7700z"/>
<path d="M7290 15393 c795 -182 1465 -408 2093 -707 l139 -66 -20 -32 c-11
-18 -306 -532 -657 -1143 -351 -610 -639 -1112 -641 -1114 -3 -3 -35 9 -72 26
-467 214 -740 326 -1013 417 -560 187 -979 260 -1694 296 -324 17 -627 -5
-865 -61 -519 -121 -830 -392 -830 -721 0 -146 54 -252 210 -408 194 -196 468
-365 895 -555 323 -143 552 -227 1215 -445 758 -248 1167 -406 1579 -610 530
-262 922 -536 1236 -861 211 -218 377 -452 500 -704 111 -227 171 -399 224
-648 l27 -129 293 784 c1077 2875 2484 6629 2496 6661 l15 37 -2598 -1 c-2323
-1 -2590 -2 -2532 -16z"/>
<path d="M15754 15318 c59 -163 1065 -2904 1999 -5448 498 -1356 980 -2670
1072 -2920 92 -250 172 -462 177 -470 6 -10 7 806 4 2230 -3 1235 -6 3247 -6
4473 l0 2227 -1640 0 -1639 0 33 -92z"/>
<path d="M22180 11430 l0 -1520 443 0 c603 0 851 16 1118 70 386 78 665 215
879 429 258 259 380 592 380 1043 0 433 -125 765 -381 1014 -287 277 -696 427
-1293 474 -71 5 -358 10 -637 10 l-509 0 0 -1520z"/>
<path d="M13446 9844 c-336 -1058 -595 -1889 -590 -1894 13 -11 210 -74 329
-104 296 -74 521 -100 865 -100 277 0 443 14 660 55 210 40 509 123 516 144 3
6 -69 250 -160 541 -90 291 -349 1125 -576 1854 -226 729 -416 1340 -421 1358
-6 17 -14 32 -18 32 -4 0 -276 -849 -605 -1886z"/>
</g>
</svg>
