<?xml version="1.0" standalone="no"?>
<!DOCTYPE svg PUBLIC "-//W3C//DTD SVG 20010904//EN"
 "http://www.w3.org/TR/2001/REC-SVG-20010904/DTD/svg10.dtd">
<svg version="1.0" xmlns="http://www.w3.org/2000/svg"
 width="1280.000000pt" height="308.000000pt" viewBox="0 0 1280.000000 308.000000"
 preserveAspectRatio="xMidYMid meet">

<g transform="translate(0.000000,308.000000) scale(0.100000,-0.100000)"
fill="#000000" stroke="none">
<path d="M4640 2880 l0 -200 40 0 40 0 0 99 0 99 35 12 c61 20 65 13 65 -105
l0 -105 35 0 35 0 0 125 c0 114 -2 127 -21 146 -21 21 -58 22 -126 3 -22 -6
-23 -4 -23 54 0 59 0 60 -31 66 -17 3 -35 6 -40 6 -5 0 -9 -90 -9 -200z"/>
<path d="M0 2588 l0 -483 203 -116 c111 -65 300 -173 420 -243 l217 -125 0
482 0 482 -378 218 c-207 119 -396 229 -419 243 l-43 25 0 -483z"/>
<path d="M3730 2875 l0 -195 40 0 40 0 0 80 0 80 75 0 75 0 0 -80 0 -80 40 0
40 0 0 195 0 195 -40 0 -40 0 0 -80 0 -80 -75 0 -75 0 0 80 0 80 -40 0 -40 0
0 -195z"/>
<path d="M4960 3035 c0 -33 2 -35 35 -35 33 0 35 2 35 35 0 33 -2 35 -35 35
-33 0 -35 -2 -35 -35z"/>
<path d="M5154 3060 c-12 -4 -31 -21 -43 -36 -19 -24 -21 -39 -21 -146 0 -133
11 -168 57 -186 55 -21 75 -24 134 -17 59 7 59 7 59 40 l0 33 -63 -5 c-103 -9
-107 -3 -107 127 0 105 1 110 24 125 19 13 38 15 85 9 l61 -7 0 31 c0 18 -6
32 -16 36 -23 9 -146 6 -170 -4z"/>
<path d="M4122 2963 c-18 -4 -23 -10 -20 -31 3 -26 4 -27 65 -24 53 3 63 1 72
-16 22 -41 14 -49 -50 -55 -77 -7 -99 -25 -99 -83 0 -35 5 -47 28 -64 22 -18
34 -21 67 -15 22 4 61 7 88 6 l47 -2 0 115 c0 106 -2 117 -24 142 -20 24 -31
28 -87 30 -35 1 -74 0 -87 -3z m125 -189 c8 -22 -24 -46 -57 -42 -28 3 -40 35
-18 49 23 15 68 10 75 -7z"/>
<path d="M4430 2963 c-35 -14 -50 -37 -50 -78 0 -53 13 -69 78 -90 45 -14 53
-20 50 -38 -3 -20 -9 -22 -65 -20 -63 1 -63 1 -63 -27 0 -27 3 -29 55 -35 103
-13 145 11 145 85 0 55 -11 68 -79 90 -34 11 -46 20 -46 35 0 18 7 20 57 20
52 0 58 2 63 24 3 13 3 26 0 29 -8 8 -127 13 -145 5z"/>
<path d="M5440 2952 c-50 -25 -61 -53 -58 -145 3 -72 6 -81 31 -103 54 -46
149 -43 199 6 26 26 28 34 28 107 0 90 -13 117 -66 139 -45 19 -92 18 -134 -4z
m116 -67 c20 -31 15 -132 -7 -146 -20 -13 -63 -11 -77 3 -7 7 -12 40 -12 80 0
53 4 69 18 77 30 18 61 12 78 -14z"/>
<path d="M5801 2951 c-26 -12 -35 -13 -38 -3 -3 6 -18 12 -34 12 l-29 0 0
-140 0 -140 35 0 35 0 0 90 0 89 40 23 c26 15 40 30 40 43 0 37 -12 44 -49 26z"/>
<path d="M6000 2955 c-22 -10 -36 -12 -38 -5 -2 5 -17 10 -33 10 l-29 0 0
-206 c0 -184 2 -205 16 -200 9 3 24 6 35 6 17 0 19 8 19 59 l0 59 59 -5 c57
-5 61 -4 91 26 l32 31 -4 95 c-2 79 -6 98 -24 115 -27 28 -81 34 -124 15z m68
-131 c3 -92 -3 -100 -64 -88 l-34 6 0 73 c0 65 2 73 23 83 12 6 33 10 47 9 24
-2 25 -5 28 -83z"/>
<path d="M4960 2820 l0 -140 35 0 35 0 0 140 0 140 -35 0 -35 0 0 -140z"/>
<path d="M930 2043 l0 -478 173 -99 c94 -55 283 -164 420 -242 l247 -143 0
482 0 482 -407 235 c-224 129 -413 236 -420 238 -11 3 -13 -88 -13 -475z"/>
<path d="M2278 2283 l-408 -236 0 -483 0 -483 188 109 c103 59 288 166 412
238 l225 130 3 481 c1 264 -1 481 -5 481 -5 0 -191 -107 -415 -237z"/>
<path d="M8760 2440 c-68 -15 -146 -57 -180 -98 -55 -66 -72 -131 -78 -289
l-5 -143 -93 0 -94 0 0 -115 0 -115 95 0 95 0 0 -480 0 -480 150 0 150 0 2
477 3 478 141 3 141 3 6 82 c4 45 7 97 7 115 l0 32 -150 0 -150 0 0 100 c0
111 14 161 51 181 16 8 58 10 140 6 l117 -5 12 96 c6 54 13 104 13 112 1 10
-15 19 -48 28 -65 16 -267 24 -325 12z"/>
<path d="M3730 2215 l0 -135 230 0 230 0 0 -680 0 -681 153 3 152 3 3 678 2
677 225 0 225 0 0 135 0 135 -610 0 -610 0 0 -135z"/>
<path d="M5072 1929 c-173 -25 -293 -119 -344 -269 -19 -58 -22 -92 -26 -302
-4 -259 5 -352 42 -434 71 -155 213 -224 460 -224 67 0 162 7 212 15 97 16
224 51 224 63 0 4 -10 55 -21 113 l-21 106 -72 -18 c-113 -30 -294 -45 -372
-32 -115 20 -145 54 -152 174 l-5 79 332 0 331 0 0 183 c0 197 -11 271 -54
355 -30 59 -102 127 -163 154 -93 41 -238 56 -371 37z m228 -257 c50 -25 72
-71 78 -158 l5 -74 -192 0 -191 0 0 58 c0 77 31 139 85 169 52 29 162 32 215
5z"/>
<path d="M6337 1900 c-48 -21 -115 -54 -148 -74 -33 -20 -64 -36 -68 -36 -5 0
-11 27 -15 60 l-7 60 -124 0 -125 0 0 -595 0 -595 145 0 145 0 0 385 0 384 86
51 c47 28 118 67 157 86 40 20 74 38 75 39 4 3 -27 267 -31 271 -1 1 -41 -15
-90 -36z"/>
<path d="M7067 1900 c-48 -21 -115 -54 -148 -74 -33 -20 -64 -36 -68 -36 -5 0
-11 27 -15 60 l-7 60 -124 0 -125 0 0 -595 0 -595 145 0 145 0 0 385 0 384 86
51 c47 28 118 67 157 86 40 20 73 37 75 39 3 2 -27 268 -31 271 -1 1 -41 -15
-90 -36z"/>
<path d="M7554 1930 c-93 -10 -236 -39 -248 -50 -8 -8 18 -207 28 -218 2 -2
64 4 136 13 149 19 299 17 344 -6 57 -28 71 -60 74 -175 l4 -104 -159 0 c-293
0 -389 -35 -447 -160 -28 -63 -35 -234 -11 -315 43 -150 135 -215 302 -215 96
0 193 23 276 64 37 19 69 31 71 28 2 -4 7 -22 11 -39 l7 -33 124 0 124 0 0
428 c0 250 -5 454 -11 492 -13 84 -61 172 -113 210 -102 76 -284 104 -512 80z
m336 -849 l0 -90 -57 -21 c-112 -43 -231 -42 -265 0 -21 25 -25 128 -7 161 17
32 45 38 192 38 l137 1 0 -89z"/>
<path d="M9545 1926 c-131 -26 -202 -62 -269 -136 -91 -101 -109 -192 -104
-512 4 -206 7 -241 26 -298 62 -183 201 -268 457 -277 332 -12 510 110 546
376 17 125 7 491 -16 561 -46 146 -141 233 -303 275 -83 22 -253 27 -337 11z
m246 -257 c19 -7 48 -25 66 -42 48 -45 55 -96 51 -342 -3 -202 -4 -212 -27
-249 -54 -87 -248 -112 -343 -45 -60 43 -68 79 -68 319 0 118 5 232 10 252 13
45 60 95 103 107 46 13 168 13 208 0z"/>
<path d="M11733 1929 c-90 -11 -241 -54 -318 -88 -46 -21 -67 -26 -70 -18 -2
7 -9 29 -15 50 l-12 37 -114 0 -114 0 0 -595 0 -595 150 0 150 0 0 414 0 413
68 31 c148 67 273 85 314 44 l23 -23 3 -439 3 -440 149 0 150 0 0 416 0 415
65 30 c85 38 228 72 271 64 65 -12 64 -3 64 -487 l0 -438 150 0 151 0 -3 503
c-3 494 -3 503 -25 558 -37 89 -105 142 -199 154 -96 13 -327 -37 -471 -101
l-53 -23 -17 30 c-10 16 -34 41 -54 54 -64 45 -113 52 -246 34z"/>
<path d="M10814 1881 c-56 -27 -119 -61 -140 -75 l-39 -26 -10 62 -10 63 -128
3 -127 3 0 -596 0 -595 150 0 150 0 0 385 0 385 48 30 c26 17 95 55 155 85
123 64 116 47 96 225 -10 81 -15 100 -28 100 -9 0 -62 -22 -117 -49z"/>
<path d="M932 969 l3 -482 405 -235 c223 -128 411 -236 418 -239 9 -4 12 95
12 475 l0 480 -397 230 c-219 126 -408 234 -421 241 l-22 12 2 -482z"/>
</g>
</svg>
