<?xml version="1.0" encoding="UTF-8"?>
<svg version="1.1" xmlns="http://www.w3.org/2000/svg" width="512" height="512">
<path d="M0 0 C6.19269991 1.73043102 11.43508107 0.89528914 17.6875 0 C42.10662244 -3.41255908 79.41399285 -7.57175414 102.56640625 2.60546875 C105.56877853 5.09510193 106.47749551 7.84942427 106.86550903 11.69807434 C106.86106781 12.52192123 106.85662659 13.34576813 106.85205078 14.19458008 C106.85189972 15.13517776 106.85174866 16.07577545 106.85159302 17.0448761 C106.84127045 18.0471373 106.83094788 19.0493985 106.8203125 20.08203125 C106.81606766 21.63624031 106.81606766 21.63624031 106.81173706 23.22184753 C106.80056454 26.52301707 106.77546505 29.82391281 106.75 33.125 C106.73996643 35.36653253 106.73084124 37.60806933 106.72265625 39.84960938 C106.70063478 45.3373326 106.66718621 50.82489674 106.625 56.3125 C107.70136719 56.4563916 108.77773438 56.6002832 109.88671875 56.74853516 C113.94931355 57.36142661 117.73686686 58.40057648 121.625 59.6875 C122.38248535 59.93790039 123.1399707 60.18830078 123.92041016 60.44628906 C134.55343597 64.13229078 144.5786188 69.28177838 154.625 74.3125 C155.95830674 74.97921984 157.291636 75.64589467 158.625 76.3125 C159.02145721 75.91382217 159.41791443 75.51514435 159.8263855 75.10438538 C163.94358611 70.96510556 168.06426747 66.82931485 172.18701172 62.69555664 C173.72632447 61.15120708 175.2647396 59.60596229 176.80224609 58.05981445 C179.00905201 55.8409145 181.21903857 53.62522667 183.4296875 51.41015625 C184.46414505 50.36795677 184.46414505 50.36795677 185.51950073 49.30470276 C186.16001373 48.66411423 186.80052673 48.0235257 187.46044922 47.36352539 C188.02448456 46.79726944 188.5885199 46.23101349 189.16964722 45.64759827 C192.02767842 43.02572366 194.6974352 42.96275158 198.50732422 43.02197266 C202.01167298 43.50273989 204.48478227 45.37319897 207.1875 47.5 C208.08021606 48.17276978 208.08021606 48.17276978 208.9909668 48.85913086 C210.89348941 50.31517097 212.76287404 51.80520282 214.625 53.3125 C215.22763672 53.79944336 215.83027344 54.28638672 216.45117188 54.78808594 C230.73957654 66.48489083 244.50132071 79.53689582 255.625 94.3125 C256.06489258 94.87066406 256.50478516 95.42882812 256.95800781 96.00390625 C258.389131 97.82052046 259.79074494 99.65687194 261.1875 101.5 C261.6302124 102.05840576 262.0729248 102.61681152 262.52905273 103.19213867 C265.11762713 106.70737833 266.5093996 109.86082565 266.19335938 114.29223633 C264.98537896 118.58606705 261.73699189 121.27073196 258.625 124.3125 C257.61812304 125.33283142 256.61321989 126.35511285 255.60986328 127.37890625 C252.16193803 130.88331929 248.67625397 134.34881096 245.1875 137.8125 C243.9665631 139.02841114 242.74585808 140.24455516 241.52539062 141.4609375 C238.56125987 144.41414966 235.59401042 147.36419398 232.625 150.3125 C233.41729004 151.87641479 233.41729004 151.87641479 234.22558594 153.47192383 C237.97405446 160.89961577 241.69012374 168.30866141 244.875 176 C245.20435547 176.78963135 245.53371094 177.5792627 245.87304688 178.39282227 C252.625 194.84987237 252.625 194.84987237 252.625 202.3125 C253.48824387 202.30250725 253.48824387 202.30250725 254.368927 202.29231262 C260.3712199 202.22582275 266.37340775 202.18064279 272.37597656 202.14770508 C274.61462658 202.13264036 276.85324719 202.11218467 279.09179688 202.08618164 C282.31387602 202.04969717 285.53556411 202.03275017 288.7578125 202.01953125 C290.25346237 201.99630547 290.25346237 201.99630547 291.77932739 201.97261047 C297.10180203 201.97132817 301.12289901 202.12489745 305.625 205.3125 C312.93163804 217.48668414 311.10646883 237.68758311 311.01611328 251.41699219 C311.00000096 254.31232763 311.01610183 257.20626806 311.03515625 260.1015625 C311.04701925 269.96741757 310.56432384 279.6491947 309.2890625 289.4375 C309.17283539 290.3560376 309.05660828 291.2745752 308.93685913 292.22094727 C308.27539051 296.79595751 307.70906479 300.68812892 304.625 304.3125 C301.22156226 305.95576921 298.50512756 306.55983222 294.74291992 306.53955078 C293.80232224 306.53939972 292.86172455 306.53924866 291.8926239 306.53909302 C290.8903627 306.52877045 289.8881015 306.51844788 288.85546875 306.5078125 C287.30125969 306.50356766 287.30125969 306.50356766 285.71565247 306.49923706 C282.41448293 306.48806454 279.11358719 306.46296505 275.8125 306.4375 C273.57096747 306.42746643 271.32943067 306.41834124 269.08789062 306.41015625 C263.6001674 306.38813478 258.11260326 306.35468621 252.625 306.3125 C252.4811084 307.38886719 252.3372168 308.46523438 252.18896484 309.57421875 C251.57607339 313.63681355 250.53692352 317.42436686 249.25 321.3125 C248.99959961 322.06998535 248.74919922 322.8274707 248.49121094 323.60791016 C244.80520922 334.24093597 239.65572162 344.2661188 234.625 354.3125 C233.95828016 355.64580674 233.29160533 356.979136 232.625 358.3125 C233.02367783 358.70895721 233.42235565 359.10541443 233.83311462 359.5138855 C237.97239444 363.63108611 242.10818515 367.75176747 246.24194336 371.87451172 C247.78629292 373.41382447 249.33153771 374.9522396 250.87768555 376.48974609 C253.0965855 378.69655201 255.31227333 380.90653857 257.52734375 383.1171875 C258.56954323 384.15164505 258.56954323 384.15164505 259.63279724 385.20700073 C260.59368004 386.16777023 260.59368004 386.16777023 261.57397461 387.14794922 C262.14023056 387.71198456 262.70648651 388.2760199 263.28990173 388.85714722 C265.91177634 391.71517842 265.97474842 394.3849352 265.91552734 398.19482422 C265.43476011 401.69917298 263.56430103 404.17228227 261.4375 406.875 C260.98898682 407.47014404 260.54047363 408.06528809 260.07836914 408.6784668 C258.62232903 410.58098941 257.13229718 412.45037404 255.625 414.3125 C255.13805664 414.91513672 254.65111328 415.51777344 254.14941406 416.13867188 C242.45260917 430.42707654 229.40060418 444.18882071 214.625 455.3125 C214.06683594 455.75239258 213.50867188 456.19228516 212.93359375 456.64550781 C211.11697954 458.076631 209.28062806 459.47824494 207.4375 460.875 C206.87909424 461.3177124 206.32068848 461.7604248 205.74536133 462.21655273 C202.23012167 464.80512713 199.07667435 466.1968996 194.64526367 465.88085938 C190.35143295 464.67287896 187.66676804 461.42449189 184.625 458.3125 C183.60466858 457.30562304 182.58238715 456.30071989 181.55859375 455.29736328 C178.05418071 451.84943803 174.58868904 448.36375397 171.125 444.875 C169.90908886 443.6540631 168.69294484 442.43335808 167.4765625 441.21289062 C164.52335034 438.24875987 161.57330602 435.28151042 158.625 432.3125 C157.06108521 433.10479004 157.06108521 433.10479004 155.46557617 433.91308594 C148.03788423 437.66155446 140.62883859 441.37762374 132.9375 444.5625 C131.75305298 445.0565332 131.75305298 445.0565332 130.54467773 445.56054688 C114.08762763 452.3125 114.08762763 452.3125 106.625 452.3125 C106.63499275 453.17574387 106.63499275 453.17574387 106.64518738 454.056427 C106.71167725 460.0587199 106.75685721 466.06090775 106.78979492 472.06347656 C106.80485964 474.30212658 106.82531533 476.54074719 106.85131836 478.77929688 C106.88780283 482.00137602 106.90474983 485.22306411 106.91796875 488.4453125 C106.93345261 489.44241241 106.94893646 490.43951233 106.96488953 491.46682739 C106.96617183 496.78930203 106.81260255 500.81039901 103.625 505.3125 C91.45081586 512.61913804 71.24991689 510.79396883 57.52050781 510.70361328 C54.62517237 510.68750096 51.73123194 510.70360183 48.8359375 510.72265625 C16.02066749 510.75934224 16.02066749 510.75934224 7.5925293 506.21713257 C3.54954315 504.3582444 -2.01868052 506.91872983 -6.16015625 508.12109375 C-30.69198196 514.47444142 -57.45107134 510.65448724 -79.37353516 498.17480469 C-97.66451466 486.8812384 -111.08681472 470.0529413 -119.375 450.3125 C-119.67517561 448.68905026 -119.96757967 447.06413247 -120.25 445.4375 C-120.79207493 443.176957 -120.79207493 443.176957 -122.375 441.3125 C-126.21831347 439.41121418 -130.09552546 438.08723764 -134.1640625 436.76171875 C-152.95066673 430.58269381 -167.77464045 415.16894785 -176.74316406 397.97045898 C-185.90402339 379.46086186 -187.80668288 356.07163215 -181.51953125 336.34375 C-179.96885624 332.2368428 -178.30270487 328.2551721 -176.375 324.3125 C-175.78387496 322.9617164 -175.19995054 321.60774704 -174.625 320.25 C-174.00625 318.7959375 -174.00625 318.7959375 -173.375 317.3125 C-173.94734375 317.08046875 -174.5196875 316.8484375 -175.109375 316.609375 C-187.61564461 309.45061377 -195.65216167 289.41458219 -199.375 276.3125 C-205.67881236 251.40942891 -200.53868537 228.2445893 -187.76953125 206.58984375 C-186.38298193 204.42266344 -184.93087108 202.36078773 -183.375 200.3125 C-182.8903125 199.66410156 -182.405625 199.01570312 -181.90625 198.34765625 C-176.68745373 191.88811675 -170.02390953 187.19169977 -163.375 182.3125 C-163.66375 181.03375 -163.9525 179.755 -164.25 178.4375 C-164.63523795 176.73144622 -165.00760279 175.02248452 -165.375 173.3125 C-165.54112793 172.6002124 -165.70725586 171.8879248 -165.87841797 171.15405273 C-170.73206979 149.15998896 -166.7180411 128.5256646 -155.375 109.3125 C-153.25806591 106.07123869 -150.97605018 103.17588786 -148.375 100.3125 C-147.73304688 99.57902344 -147.09109375 98.84554687 -146.4296875 98.08984375 C-135.0138919 85.81049166 -119.83403941 78.18630053 -103.375 75.3125 C-102.055 75.3125 -100.735 75.3125 -99.375 75.3125 C-99.36082031 74.631875 -99.34664063 73.95125 -99.33203125 73.25 C-98.3447346 53.1838626 -89.22601279 34.49891882 -75.3046875 20.18359375 C-73.39181367 18.45271399 -71.4307892 16.87015566 -69.375 15.3125 C-68.6634375 14.74273438 -67.951875 14.17296875 -67.21875 13.5859375 C-49.05676062 -0.15663446 -22.10671513 -6.9954126 0 0 Z M-63.375 35.3125 C-64.09816406 36.0240625 -64.82132812 36.735625 -65.56640625 37.46875 C-74.82489114 47.16644195 -81.375 61.67948795 -81.375 75.3125 C-80.16585937 75.59222656 -78.95671875 75.87195313 -77.7109375 76.16015625 C-62.65833739 79.78555948 -50.07216003 84.77451799 -38.375 95.3125 C-37.75238281 95.85390625 -37.12976563 96.3953125 -36.48828125 96.953125 C-30.59036944 102.41366358 -23.75479789 109.84401369 -23.05859375 118.03515625 C-23.375 121.3125 -23.375 121.3125 -24.875 123.75 C-28.34797418 125.92060886 -31.45194936 126.20088622 -35.375 125.3125 C-38.66203075 122.80809562 -40.81642166 119.72923491 -43.25 116.4375 C-52.42344016 104.09841425 -65.01797658 95.75254344 -80.375 93.3125 C-97.71928337 91.6933629 -113.07287955 94.27762241 -126.96484375 105.3828125 C-138.65026497 115.46917608 -148.30893584 128.61434803 -149.54345703 144.47705078 C-150.01746758 154.10600991 -149.82214871 163.18165967 -146.375 172.3125 C-142.83610871 173.55276564 -140.66138693 173.03883193 -137.125 171.9375 C-128.1786835 169.33903407 -118.5441144 167.94627693 -109.375 170.3125 C-108.16598991 173.93953026 -107.58839525 177.55267363 -108.375 181.3125 C-110.03206587 183.81390189 -111.41855119 185.06356127 -114.35327148 185.82739258 C-116.81477288 186.20940838 -119.27260247 186.49079914 -121.75 186.75 C-141.31229988 189.26961434 -157.63552976 197.25523025 -170 212.9375 C-174.41927822 219.04067561 -177.63840989 225.3043734 -180.375 232.3125 C-180.7153125 233.14652344 -181.055625 233.98054687 -181.40625 234.83984375 C-186.90422403 250.95196209 -183.96623276 270.22148941 -176.6875 285.18188477 C-172.89483438 292.55147111 -168.3007306 298.48278818 -162.375 304.3125 C-161.075625 303.1059375 -161.075625 303.1059375 -159.75 301.875 C-149.80301513 293.39494422 -135.86276065 283.59349501 -122.375 283.3125 C-119.72683989 284.09979084 -118.74615471 284.83530109 -117.0625 287 C-116.05641051 290.38411918 -116.57057601 292.90916774 -117.375 296.3125 C-119.81386349 299.6087114 -123.13809667 300.55732383 -126.875 302 C-142.46078292 308.3563486 -153.65927624 319.46272568 -161.375 334.3125 C-167.80879156 350.10959052 -168.96190831 367.57400528 -162.92578125 383.6875 C-156.3342006 399.09552731 -145.90251552 412.19785422 -129.98828125 418.578125 C-128.45341452 419.16388923 -126.91660006 419.74469292 -125.375 420.3125 C-125.31030518 419.66925781 -125.24561035 419.02601563 -125.17895508 418.36328125 C-122.99216858 397.3100646 -119.46357791 374.52221063 -104.375 358.3125 C-101.28326248 356.76663124 -98.78070448 357.01890479 -95.375 357.3125 C-92.9375 358.8125 -92.9375 358.8125 -91.375 361.3125 C-90.05477039 367.36355237 -91.77511108 370.35452169 -95.0625 375.5 C-95.42585449 376.05196045 -95.78920898 376.6039209 -96.16357422 377.17260742 C-107.01271341 393.83429867 -109.35007438 414.08975223 -105.375 433.3125 C-99.72553281 455.03107424 -87.13098855 471.81524131 -67.9921875 483.3515625 C-50.61416078 492.65415084 -30.75519227 495.36705446 -11.5 490.8125 C9.43728422 484.24212572 25.61958089 471.73402638 36.8359375 452.7421875 C44.62706637 437.8063553 45.92853348 423.1088502 45.8203125 406.61328125 C45.8165746 404.92506581 45.8137313 403.23684817 45.81173706 401.54862976 C45.80416175 397.1411828 45.78456691 392.73387116 45.7623291 388.32647705 C45.73810702 383.01908412 45.72906059 377.71164553 45.71742249 372.40421295 C45.69813798 364.37354833 45.65977321 356.34317966 45.625 348.3125 C22.855 348.3125 0.085 348.3125 -23.375 348.3125 C-26.88202008 362.20430484 -26.88202008 362.20430484 -28.375 376.3125 C-26.77761492 377.78495747 -26.77761492 377.78495747 -24.625 378.75 C-19.67079517 381.55096386 -17.55731847 384.82963121 -15.125 389.9375 C-13.19473004 398.62371481 -13.57153588 406.68346875 -18.375 414.3125 C-22.99967663 419.93710671 -29.08637436 423.78667106 -36.41796875 424.515625 C-44.7346893 424.69741124 -51.7223863 422.84147628 -57.87109375 417.03515625 C-62.89837378 411.27663549 -64.45713492 404.85717933 -64.375 397.3125 C-63.83067273 390.32889693 -61.19738504 385.35200664 -56.375 380.3125 C-53.71489647 378.29082132 -51.45982074 376.67554859 -48.29296875 375.61572266 C-46.08177548 374.39802039 -46.08177548 374.39802039 -45.43359375 371.45849609 C-45.12615234 369.66532959 -45.12615234 369.66532959 -44.8125 367.8359375 C-44.69447021 367.19185944 -44.57644043 366.54778137 -44.45483398 365.88418579 C-44.07825408 363.82118961 -43.72467623 361.75521358 -43.375 359.6875 C-39.84442984 339.13141174 -39.84442984 339.13141174 -33.375 333.875 C-28.56714288 331.37090775 -24.73300738 331.17352457 -19.31152344 331.10717773 C-18.60868225 331.09727814 -17.90584106 331.08737854 -17.18170166 331.07717896 C-14.86596 331.04567216 -12.55019785 331.02084951 -10.234375 330.99609375 C-8.62582882 330.97551487 -7.01728794 330.95451815 -5.40875244 330.93312073 C-1.1805043 330.87799652 3.04779186 330.82854479 7.27612305 330.78027344 C12.35231769 330.72114257 17.42842481 330.65496781 22.50454712 330.58997345 C30.21131117 330.49208539 37.91813204 330.40314634 45.625 330.3125 C45.625 319.4225 45.625 308.5325 45.625 297.3125 C35.23749213 295.9846118 35.23749213 295.9846118 25.52734375 298.91796875 C24.37348974 301.0027287 23.51881814 303.10665524 22.625 305.3125 C18.42644057 310.09351854 13.06834747 312.96579053 6.79296875 313.59765625 C-1.49003179 313.83729023 -8.69586938 312.75663329 -14.98828125 306.9296875 C-20.71964099 300.24579192 -22.199634 293.40871239 -21.859375 284.72265625 C-20.94667817 278.29697613 -18.37295727 272.85770826 -13.625 268.375 C-6.70937078 263.9862353 0.44601649 262.15509667 8.625 263.3125 C18.01112906 266.12833872 22.75232674 270.78532179 27.625 279.3125 C33.565 279.3125 39.505 279.3125 45.625 279.3125 C45.625 268.4225 45.625 257.5325 45.625 246.3125 C33.50800079 246.05058629 33.50800079 246.05058629 21.390625 245.87304688 C16.44540173 245.81930258 11.5016823 245.75583369 6.55761719 245.63354492 C2.56985189 245.53553046 -1.41630101 245.48189926 -5.40517807 245.45860481 C-6.92441067 245.44201294 -8.4435578 245.40960797 -9.96210098 245.36092949 C-18.34773366 244.80388217 -18.34773366 244.80388217 -25.55413818 248.2727356 C-27.17401924 250.61974179 -27.17401924 250.61974179 -28.27194214 253.08778381 C-30.48960415 257.56050346 -34.77663645 259.54964467 -39.125 261.625 C-47.80122838 263.460356 -55.75366126 262.90647067 -63.28125 258.09375 C-69.34609651 253.46801961 -72.05168062 247.35642669 -73.3125 239.9375 C-73.803358 232.91823055 -72.04332788 225.90679389 -67.625 220.375 C-62.98935297 215.56638107 -57.55415833 212.64994757 -50.859375 212.109375 C-41.82483883 211.95449724 -35.93836468 213.57451236 -29.015625 219.421875 C-27.375 221.3125 -27.375 221.3125 -23.375 228.3125 C-0.605 228.3125 22.165 228.3125 45.625 228.3125 C45.625 207.1925 45.625 186.0725 45.625 164.3125 C41.32404868 168.58119109 41.32404868 168.58119109 37.7578125 173.203125 C37.26804932 173.90864502 36.77828613 174.61416504 36.27368164 175.34106445 C35.7708667 176.07413818 35.26805176 176.80721191 34.75 177.5625 C33.69022245 179.08302221 32.62903486 180.60256266 31.56640625 182.12109375 C31.05996582 182.84538574 30.55352539 183.56967773 30.03173828 184.31591797 C20.33744407 198.07501864 20.33744407 198.07501864 13.625 200.3125 C4.24297573 201.89877563 -3.46741756 197.63848237 -11.6875 193.75 C-13.70468005 192.80302259 -15.72382773 191.86209636 -17.75126648 190.93727112 C-19.57812435 190.10318104 -21.39545761 189.24832166 -23.2121582 188.39233398 C-26.5702878 187.24582629 -28.05968016 187.19665116 -31.375 188.3125 C-33.45646501 189.43633213 -33.45646501 189.43633213 -35.375 190.8125 C-38.42155046 192.78848693 -40.68793168 194.02887936 -44.375 194.3125 C-45.4475 194.395 -46.52 194.4775 -47.625 194.5625 C-55.12882729 194.06224485 -62.69573323 191.50277604 -67.78125 185.7109375 C-73.03995378 178.77067147 -74.34353923 171.92173764 -73.375 163.3125 C-71.28363681 156.07751382 -67.34894026 149.91069076 -60.8125 146 C-54.35585968 142.83037657 -47.67135322 142.11250554 -40.67578125 144.06640625 C-32.52301275 147.17396375 -28.40846868 150.58465191 -24.48828125 158.38671875 C-23.375 161.3125 -23.375 161.3125 -23.30078125 163.40258789 C-23.11132748 166.19199864 -22.76056796 167.86111054 -21.375 170.3125 C-16.80554871 173.39721918 -11.85425302 175.34370343 -6.75 177.375 C-5.36065362 177.95713289 -3.97261183 178.54238986 -2.5859375 179.13085938 C0.80336312 180.56120429 4.20856652 181.94801947 7.625 183.3125 C10.49261436 180.51579151 13.17901853 177.78684484 15.5 174.51953125 C16.0038623 173.81570312 16.50772461 173.111875 17.02685547 172.38671875 C17.55424316 171.64035156 18.08163086 170.89398438 18.625 170.125 C19.77327917 168.51681402 20.9217215 166.90874453 22.0703125 165.30078125 C22.65586914 164.47787598 23.24142578 163.6549707 23.84472656 162.80712891 C27.21909496 158.07875585 30.63714877 153.38185873 34.046875 148.67895508 C35.02564094 147.32538644 35.99607255 145.96573728 36.95655823 144.59913635 C38.625 142.3125 38.625 142.3125 40.42710876 140.18289185 C46.04508598 133.17894515 46.62064323 127.5742523 46.44921875 118.7734375 C46.44880081 117.49377106 46.44838287 116.21410461 46.44795227 114.8956604 C46.44475409 112.19717834 46.41805833 109.50034391 46.37280273 106.80224609 C46.31646975 103.39293728 46.30827527 99.98567713 46.31569386 96.57598114 C46.34690779 72.95184941 44.55469308 52.48651207 27.2734375 34.93359375 C26.39945313 34.06863281 25.52546875 33.20367187 24.625 32.3125 C24.03976563 31.70535156 23.45453125 31.09820312 22.8515625 30.47265625 C11.24230177 19.3643027 -4.97406894 15.80448797 -20.46069336 15.89038086 C-37.67248276 16.3583844 -51.28077875 23.23840225 -63.375 35.3125 Z M35.625 16.3125 C37.14633018 19.53010709 38.67178576 21.47293577 41.3125 23.875 C59.69254359 41.88943693 62.99171764 66.21318054 63.2928009 90.61247253 C63.32974226 94.30161181 63.34803135 97.99070893 63.36322021 101.67999268 C63.38305986 105.48211076 63.42499533 109.28398581 63.46484375 113.0859375 C63.53935335 120.49472509 63.59011827 127.90340827 63.625 135.3125 C64.9022998 135.50368408 66.17959961 135.69486816 67.49560547 135.8918457 C69.20283627 136.15291708 70.91002824 136.41424249 72.6171875 136.67578125 C73.45531982 136.80053833 74.29345215 136.92529541 75.15698242 137.05383301 C105.00782743 141.6624099 130.66377341 158.04328273 149.625 181.3125 C168.57241638 207.25879564 177.37505022 239.4642528 172.75 271.40600586 C172.14841508 275.06603909 171.42027677 278.69005802 170.625 282.3125 C170.36976563 283.48941406 170.11453125 284.66632813 169.8515625 285.87890625 C162.62123742 314.50170691 143.09038629 340.30844167 118.02124023 355.68994141 C100.66964517 365.92922906 83.46834374 370.6072209 63.625 373.3125 C63.61913376 373.92843018 63.61326752 374.54436035 63.60722351 375.17895508 C63.54260409 381.66971597 63.45802122 388.16001192 63.36254883 394.65039062 C63.3295753 397.06308814 63.30146049 399.47585769 63.27856445 401.88867188 C62.9993175 430.55010391 59.05563834 456.0887074 39.625 478.3125 C38.820625 479.29669922 38.820625 479.29669922 38 480.30078125 C34.8478871 484.13421022 31.47890779 487.19266988 27.625 490.3125 C27.625 490.6425 27.625 490.9725 27.625 491.3125 C33.55904846 492.04670347 39.34805476 492.47149181 45.32421875 492.48046875 C46.1217305 492.48379715 46.91924225 492.48712555 47.74092102 492.49055481 C49.41736278 492.49558019 51.09381439 492.49796451 52.77026367 492.49780273 C55.28907421 492.49997975 57.80743902 492.51815673 60.32617188 492.53710938 C69.9594525 492.56944894 79.11929256 492.03098547 88.625 490.3125 C88.63086624 489.72003479 88.63673248 489.12756958 88.64277649 488.51715088 C88.70669373 482.3525899 88.79110902 476.1885518 88.88745117 470.02441406 C88.92071251 467.72370292 88.94874063 465.42290994 88.97143555 463.12207031 C89.00495873 459.81540032 89.0572746 456.50948112 89.11328125 453.203125 C89.12286613 451.6591806 89.12286613 451.6591806 89.13264465 450.08404541 C89.15243881 449.12335144 89.17223297 448.16265747 89.19262695 447.17285156 C89.20928154 445.90710297 89.20928154 445.90710297 89.22627258 444.61578369 C89.71495683 441.79285653 90.70116353 440.4077433 92.625 438.3125 C94.8671875 437.34277344 94.8671875 437.34277344 97.5 436.671875 C98.47590088 436.41027588 99.45180176 436.14867676 100.45727539 435.87915039 C101.50262451 435.60965576 102.54797363 435.34016113 103.625 435.0625 C121.15257531 430.24048037 137.89140248 423.36162077 153.30078125 413.62109375 C156.76050839 411.67318015 159.83470211 411.35677123 163.625 412.3125 C171.43925921 417.53508408 178.01603592 425.59118179 184.625 432.25 C185.79273374 433.42276009 186.96070074 434.59528798 188.12890625 435.76757812 C190.96363234 438.61321689 193.79518824 441.46197453 196.625 444.3125 C201.1451026 442.64173615 204.39661805 440.26952037 208 437.125 C208.57363281 436.63177246 209.14726562 436.13854492 209.73828125 435.63037109 C213.88794092 432.03235269 217.8371036 428.29084929 221.625 424.3125 C226.625 419.3125 226.625 419.3125 228.6171875 417.42578125 C234.73636334 411.5289284 239.69134593 405.20561951 244.625 398.3125 C243.33165553 395.46351954 241.97707334 393.42070567 239.75170898 391.22802734 C238.8858744 390.36726089 238.8858744 390.36726089 238.00254822 389.48910522 C237.38166824 388.88168488 236.76078827 388.27426453 236.12109375 387.6484375 C235.48261002 387.01515533 234.84412628 386.38187317 234.18629456 385.72940063 C232.14972625 383.71062011 230.10658925 381.69866271 228.0625 379.6875 C226.01572882 377.66833275 223.97042734 375.64773099 221.92799377 373.62417603 C220.65756434 372.36601851 219.38447158 371.11054361 218.10850525 369.85800171 C212.74527437 364.55578559 212.74527437 364.55578559 212.27734375 359.71875 C212.35035993 354.57284806 214.54467047 351.10165129 217.1875 346.8125 C218.11602848 345.22186181 219.03913215 343.62804562 219.95703125 342.03125 C220.64079834 340.84208984 220.64079834 340.84208984 221.33837891 339.62890625 C229.0546329 325.73672069 234.44268094 309.8741078 237.7890625 294.37890625 C238.88861212 291.66086069 240.14752457 290.85065502 242.625 289.3125 C244.92828369 288.91377258 244.92828369 288.91377258 247.48535156 288.88012695 C248.44604553 288.86033279 249.4067395 288.84053864 250.39654541 288.82014465 C251.94048981 288.81055977 251.94048981 288.81055977 253.515625 288.80078125 C255.10525055 288.77385445 255.10525055 288.77385445 256.72698975 288.74638367 C260.10961944 288.6922298 263.4921076 288.65836801 266.875 288.625 C269.16929055 288.59183148 271.46356241 288.55734227 273.7578125 288.52148438 C279.38008143 288.43650045 285.00236856 288.36817198 290.625 288.3125 C292.53620759 277.79432792 292.93756716 267.59554477 292.88574219 256.93554688 C292.87501503 254.31617088 292.88570316 251.69748043 292.8984375 249.078125 C292.90535677 239.29704436 292.37818132 229.96098762 290.625 220.3125 C290.03253479 220.30663376 289.44006958 220.30076752 288.82965088 220.29472351 C282.6650899 220.23080627 276.5010518 220.14639098 270.33691406 220.05004883 C268.03620292 220.01678749 265.73540994 219.98875937 263.43457031 219.96606445 C260.12790032 219.93254127 256.82198112 219.8802254 253.515625 219.82421875 C252.48632874 219.81782883 251.45703247 219.8114389 250.39654541 219.80485535 C249.43585144 219.78506119 248.47515747 219.76526703 247.48535156 219.74487305 C246.21960297 219.72821846 246.21960297 219.72821846 244.92828369 219.71122742 C242.10535653 219.22254317 240.7202433 218.23633647 238.625 216.3125 C237.65527344 214.0703125 237.65527344 214.0703125 236.984375 211.4375 C236.59197632 209.97364868 236.59197632 209.97364868 236.19165039 208.48022461 C235.78740845 206.91220093 235.78740845 206.91220093 235.375 205.3125 C230.55298037 187.78492469 223.67412077 171.04609752 213.93359375 155.63671875 C211.98568015 152.17699161 211.66927123 149.10279789 212.625 145.3125 C217.84758408 137.49824079 225.90368179 130.92146408 232.5625 124.3125 C233.73526009 123.14476626 234.90778798 121.97679926 236.08007812 120.80859375 C238.92571689 117.97386766 241.77447453 115.14231176 244.625 112.3125 C242.95423615 107.7923974 240.58202037 104.54088195 237.4375 100.9375 C236.94427246 100.36386719 236.45104492 99.79023437 235.94287109 99.19921875 C232.34485269 95.04955908 228.60334929 91.1003964 224.625 87.3125 C219.625 82.3125 219.625 82.3125 217.73828125 80.3203125 C211.8414284 74.20113666 205.51811951 69.24615407 198.625 64.3125 C195.72344614 65.61803643 193.73537284 66.97960734 191.55981445 69.29345703 C190.70290764 70.19416428 190.70290764 70.19416428 189.82868958 71.11306763 C189.22135483 71.75895844 188.61402008 72.40484924 187.98828125 73.0703125 C186.67621071 74.43203152 185.36302418 75.79267596 184.04882812 77.15234375 C181.98843106 79.29303516 179.93578028 81.43933087 177.90161133 83.60498047 C175.93031921 85.69773339 173.93126496 87.76037211 171.92578125 89.8203125 C171.02996086 90.79522141 171.02996086 90.79522141 170.11604309 91.78982544 C166.85050518 95.09505478 164.67706995 96.71923222 159.93457031 96.83959961 C156.70733556 96.58642094 154.15842146 96.09559273 151.37109375 94.37109375 C150.67048828 93.95569336 149.96988281 93.54029297 149.24804688 93.11230469 C148.52681641 92.66274414 147.80558594 92.21318359 147.0625 91.75 C145.48100826 90.82144779 143.89630573 89.89834455 142.30859375 88.98046875 C141.12885986 88.29670166 141.12885986 88.29670166 139.92529297 87.59912109 C126.07306949 79.85116761 110.16307649 74.48973718 94.69140625 71.1484375 C91.97336069 70.04888788 91.16315502 68.78997543 89.625 66.3125 C89.22627258 64.00921631 89.22627258 64.00921631 89.19262695 61.45214844 C89.16293571 60.01110748 89.16293571 60.01110748 89.13264465 58.54095459 C89.12625473 57.51165833 89.11986481 56.48236206 89.11328125 55.421875 C89.09533005 54.36212463 89.07737885 53.30237427 89.05888367 52.21051025 C89.0047298 48.82788056 88.97086801 45.4453924 88.9375 42.0625 C88.90433148 39.76820945 88.86984227 37.47393759 88.83398438 35.1796875 C88.74900045 29.55741857 88.68067198 23.93513144 88.625 18.3125 C77.10433399 16.18579225 65.92095962 16.07379396 54.25 16.1875 C52.43490082 16.19755865 50.61979619 16.20667935 48.8046875 16.21484375 C44.4113207 16.23660856 40.01822264 16.27097616 35.625 16.3125 Z M63.625 153.3125 C63.625 167.1725 63.625 181.0325 63.625 195.3125 C67.585 196.3025 71.545 197.2925 75.625 198.3125 C89.28046401 203.3858842 99.75524682 212.55714367 106.625 225.3125 C107.02203125 225.98925781 107.4190625 226.66601562 107.828125 227.36328125 C115.01366224 240.31333531 115.70728528 256.6188833 112 270.75 C109.93541549 277.05318379 107.12171233 282.69015465 103.625 288.3125 C103.25890625 288.94542969 102.8928125 289.57835937 102.515625 290.23046875 C93.85266675 303.94681931 78.5151343 309.58996642 63.625 313.3125 C63.625 327.1725 63.625 341.0325 63.625 355.3125 C88.20636175 355.3125 110.68725654 342.20047611 127.875 325.5 C146.62044457 306.54437739 156.31180796 281.06048866 156.9375 254.625 C156.84909829 239.69954411 153.56642804 225.94545777 147.625 212.3125 C147.17253906 211.25417969 146.72007812 210.19585937 146.25390625 209.10546875 C135.30625606 185.44241749 113.75340878 167.4011372 89.625 158.3125 C80.90052607 155.41570201 72.8470983 153.3125 63.625 153.3125 Z M-53.8125 162.875 C-55.97896028 166.25467804 -55.93788002 168.37233987 -55.375 172.3125 C-53.5985196 174.72343768 -52.1591608 175.9204196 -49.5 177.25 C-46.08670625 177.35039099 -44.17273485 176.19793001 -41.375 174.3125 C-39.63698265 171.51551296 -39.63698265 171.51551296 -39.375 168.3125 C-40.70626447 165.38371816 -42.10804965 163.57945035 -44.375 161.3125 C-48.23006762 160.88415915 -50.50300365 160.75352798 -53.8125 162.875 Z M63.625 213.3125 C63.625 240.3725 63.625 267.4325 63.625 295.3125 C75.6271624 291.71185128 84.64293488 286.90274598 91.02734375 275.89453125 C96.87392576 264.69281905 98.76928708 253.39194201 95.0625 241.0625 C90.84853914 230.02104158 83.517041 221.21988813 72.83203125 215.9296875 C68.36861229 213.99090225 68.36861229 213.99090225 63.625 213.3125 Z M-55.375 234.3125 C-56.12515195 237.35558291 -56.12515195 237.35558291 -55.375 240.3125 C-53.31251175 243.24757943 -51.83220755 244.15685488 -48.4375 245.3125 C-45.29580593 245.54076527 -45.29580593 245.54076527 -42.5 243.875 C-39.9507076 240.80085328 -39.63174079 239.12355526 -39.88671875 235.21875 C-40.2964149 233.02298119 -40.2964149 233.02298119 -42.5625 230.8125 C-48.46991869 227.6618767 -51.36723249 229.04514842 -55.375 234.3125 Z M-2.375 282.3125 C-4.72049674 285.83074511 -4.95491403 287.17025694 -4.375 291.3125 C-1.88897551 294.67594489 -0.46074477 296.11307749 3.6875 296.875 C7.30937046 296.18145034 8.46425205 295.27352497 10.625 292.3125 C11.87831017 289.05389356 11.85779906 287.83936102 10.4375 284.625 C8.57111636 282.24375191 7.4560064 281.28565845 4.625 280.3125 C1.46512675 280.3125 0.26465207 280.69464873 -2.375 282.3125 Z M-44.1875 392.875 C-46.81181169 395.79923302 -47.29372313 397.41121003 -47.375 401.3125 C-46.25481101 404.67306696 -45.42965901 405.27606066 -42.375 407.3125 C-39.4600745 407.8963196 -39.4600745 407.8963196 -36.375 407.3125 C-33.01155511 404.82647551 -31.57442251 403.39824477 -30.8125 399.25 C-31.51144685 395.59994421 -32.35702045 394.45685389 -35.375 392.3125 C-39.1916059 391.01322991 -40.63288881 390.90021601 -44.1875 392.875 Z " fill="#000000" transform="translate(201.375,1.6875)"/>
</svg>
