<?xml version="1.0" encoding="UTF-8"?>
<svg version="1.1" xmlns="http://www.w3.org/2000/svg" width="632" height="395">
<path d="M0 0 C1.69702309 -0.00956978 1.69702309 -0.00956978 3.42832947 -0.01933289 C4.65540115 -0.02044571 5.88247284 -0.02155853 7.14672852 -0.02270508 C9.02957298 -0.02769768 9.02957298 -0.02769768 10.95045471 -0.03279114 C13.60942115 -0.03786182 16.26828541 -0.04063105 18.92724609 -0.04003906 C22.33482781 -0.03993743 25.74220121 -0.05359076 29.14973354 -0.07081127 C32.39872415 -0.08460186 35.64771259 -0.08401993 38.89672852 -0.08520508 C40.7342997 -0.09598335 40.7342997 -0.09598335 42.60899353 -0.10697937 C44.31074486 -0.10236443 44.31074486 -0.10236443 46.046875 -0.09765625 C47.04677963 -0.09908127 48.04668427 -0.10050629 49.07688904 -0.10197449 C51.58813477 0.14526367 51.58813477 0.14526367 54.58813477 2.14526367 C54.04728711 10.42877252 51.91895059 18.25745189 49.77734375 26.24072266 C49.14630326 28.5989507 48.52975139 30.96065773 47.91430664 33.32299805 C47.51607505 34.82517861 47.11701654 36.32714026 46.71704102 37.82885742 C46.53363663 38.53400986 46.35023224 39.23916229 46.16127014 39.96568298 C44.81799627 44.91540217 44.81799627 44.91540217 42.58813477 47.14526367 C40.07652283 47.39250183 40.07652283 47.39250183 36.86914062 47.38818359 C35.07234108 47.39279854 35.07234108 47.39279854 33.23924255 47.39750671 C31.29079185 47.38672844 31.29079185 47.38672844 29.30297852 47.37573242 C27.96301823 47.37454067 26.6230571 47.37408745 25.28309631 47.37434387 C22.474485 47.37277895 19.66600113 47.3644879 16.85742188 47.35107422 C13.25015557 47.33406794 9.6430292 47.33026033 6.0357275 47.3310194 C3.26915644 47.33074803 0.50261621 47.32527242 -2.26394463 47.31801796 C-4.24326578 47.3132714 -6.22259344 47.31155328 -8.20191956 47.30986023 C-9.99399086 47.30029045 -9.99399086 47.30029045 -11.82226562 47.29052734 C-12.87990616 47.28671555 -13.93754669 47.28290375 -15.02723694 47.27897644 C-17.41186523 47.14526367 -17.41186523 47.14526367 -18.41186523 46.14526367 C-17.9983848 38.28913534 -15.96587288 30.83104311 -13.96899414 23.2590332 C-13.41550894 21.15908805 -12.87196153 19.05675981 -12.32983398 16.95385742 C-9.19842067 4.93303817 -9.19842067 4.93303817 -7.41186523 1.14526367 C-4.8134192 -0.15395935 -2.90975545 0.01110129 0 0 Z M15.58813477 8.14526367 C15.58813477 9.13526367 15.58813477 10.12526367 15.58813477 11.14526367 C17.56813477 11.14526367 19.54813477 11.14526367 21.58813477 11.14526367 C21.58813477 10.48526367 21.58813477 9.82526367 21.58813477 9.14526367 C18.61813477 8.65026367 18.61813477 8.65026367 15.58813477 8.14526367 Z M12.58813477 11.14526367 C10.94346737 13.60853079 10.94346737 13.60853079 9.58813477 16.14526367 C11.23813477 15.48526367 12.88813477 14.82526367 14.58813477 14.14526367 C14.58813477 13.15526367 14.58813477 12.16526367 14.58813477 11.14526367 C13.92813477 11.14526367 13.26813477 11.14526367 12.58813477 11.14526367 Z M21.58813477 11.14526367 C22.3793138 13.14509901 22.3793138 13.14509901 23.58813477 15.14526367 C24.57813477 15.47526367 25.56813477 15.80526367 26.58813477 16.14526367 C25.79695573 14.14542833 25.79695573 14.14542833 24.58813477 12.14526367 C23.59813477 11.81526367 22.60813477 11.48526367 21.58813477 11.14526367 Z M14.58813477 14.14526367 C14.91813477 14.97026367 15.24813477 15.79526367 15.58813477 16.64526367 C17.06045998 21.79840194 17.31300656 26.97064828 15.58813477 32.14526367 C17.07313477 33.13526367 17.07313477 33.13526367 18.58813477 34.14526367 C19.24813477 32.82526367 19.90813477 31.50526367 20.58813477 30.14526367 C20.25813477 29.81526367 19.92813477 29.48526367 19.58813477 29.14526367 C19.35620612 27.63056919 19.17598238 26.10771806 19.02563477 24.58276367 C18.9418457 23.75647461 18.85805664 22.93018555 18.77172852 22.07885742 C18.71114258 21.44077148 18.65055664 20.80268555 18.58813477 20.14526367 C19.24813477 20.14526367 19.90813477 20.14526367 20.58813477 20.14526367 C20.58813477 18.82526367 20.58813477 17.50526367 20.58813477 16.14526367 C18.60813477 15.48526367 16.62813477 14.82526367 14.58813477 14.14526367 Z M26.58813477 16.14526367 C26.58813477 16.80526367 26.58813477 17.46526367 26.58813477 18.14526367 C28.56813477 19.13526367 28.56813477 19.13526367 30.58813477 20.14526367 C29.92813477 18.82526367 29.26813477 17.50526367 28.58813477 16.14526367 C27.92813477 16.14526367 27.26813477 16.14526367 26.58813477 16.14526367 Z M6.58813477 18.14526367 C6.25813477 18.80526367 5.92813477 19.46526367 5.58813477 20.14526367 C6.24813477 20.14526367 6.90813477 20.14526367 7.58813477 20.14526367 C7.25813477 19.48526367 6.92813477 18.82526367 6.58813477 18.14526367 Z M2.58813477 21.14526367 C2.58813477 22.79526367 2.58813477 24.44526367 2.58813477 26.14526367 C3.24813477 24.82526367 3.90813477 23.50526367 4.58813477 22.14526367 C3.92813477 21.81526367 3.26813477 21.48526367 2.58813477 21.14526367 Z M21.58813477 21.14526367 C22.24813477 22.79526367 22.90813477 24.44526367 23.58813477 26.14526367 C24.90813477 25.81526367 26.22813477 25.48526367 27.58813477 25.14526367 C26.92813477 23.82526367 26.26813477 22.50526367 25.58813477 21.14526367 C24.26813477 21.14526367 22.94813477 21.14526367 21.58813477 21.14526367 Z M32.58813477 22.14526367 C33.58813477 26.14526367 33.58813477 26.14526367 33.58813477 26.14526367 Z M3.58813477 26.14526367 C4.24813477 27.46526367 4.90813477 28.78526367 5.58813477 30.14526367 C6.24813477 29.81526367 6.90813477 29.48526367 7.58813477 29.14526367 C6.26813477 28.15526367 4.94813477 27.16526367 3.58813477 26.14526367 Z M31.58813477 26.14526367 C27.62813477 30.10526367 23.66813477 34.06526367 19.58813477 38.14526367 C22.76433748 38.47597682 22.76433748 38.47597682 25.06860352 35.95776367 C25.96192383 35.02963867 26.85524414 34.10151367 27.77563477 33.14526367 C28.67668945 32.21713867 29.57774414 31.28901367 30.50610352 30.33276367 C31.19317383 29.61088867 31.88024414 28.88901367 32.58813477 28.14526367 C32.25813477 27.48526367 31.92813477 26.82526367 31.58813477 26.14526367 Z M7.58813477 30.14526367 C8.24813477 31.46526367 8.90813477 32.78526367 9.58813477 34.14526367 C10.24813477 33.81526367 10.90813477 33.48526367 11.58813477 33.14526367 C10.26813477 32.15526367 8.94813477 31.16526367 7.58813477 30.14526367 Z " fill="#FC9554" transform="translate(410.411865234375,67.854736328125)"/>
<path d="M0 0 C20.46 0 40.92 0 62 0 C62.93730296 3.74921185 63.10586538 4.56466108 62.14453125 7.984375 C61.83201416 9.1285791 61.83201416 9.1285791 61.51318359 10.29589844 C61.28195801 11.10575195 61.05073242 11.91560547 60.8125 12.75 C60.34133178 14.45802583 59.87129851 16.16636511 59.40234375 17.875 C59.16499512 18.73222656 58.92764648 19.58945313 58.68310547 20.47265625 C57.33838307 25.44784077 56.17775141 30.46933473 54.9921875 35.484375 C53.94430002 39.19736212 52.54699176 42.4710728 51 46 C43.19424805 46.02312792 35.38850405 46.04091738 27.58272648 46.05181217 C23.9585404 46.05704002 20.3343777 46.06413587 16.71020508 46.07543945 C13.21540025 46.08627184 9.72061796 46.09227758 6.22579765 46.09487724 C4.23760611 46.09763551 2.24942369 46.10544688 0.26124573 46.11329651 C-0.93992386 46.11337204 -2.14109344 46.11344757 -3.37866211 46.11352539 C-4.97417152 46.11685631 -4.97417152 46.11685631 -6.60191345 46.12025452 C-9 46 -9 46 -10 45 C-10.27234964 39.94049013 -9.61312245 35.66304511 -8.3203125 30.78125 C-8.14748749 30.11967896 -7.97466248 29.45810791 -7.79660034 28.77648926 C-7.24737544 26.68212728 -6.68634473 24.59114207 -6.125 22.5 C-5.75574234 21.0978583 -5.38724633 19.69551578 -5.01953125 18.29296875 C-3.4093952 12.17573273 -1.73793608 6.08277628 0 0 Z M24 7 C24 7.99 24 8.98 24 10 C24.73605469 10.08121094 25.47210938 10.16242188 26.23046875 10.24609375 C29.61329376 11.16694738 30.93451218 12.52329267 33.3125 15.0625 C34.00988281 15.79597656 34.70726562 16.52945313 35.42578125 17.28515625 C35.94527344 17.85105469 36.46476562 18.41695312 37 19 C37.66 18.67 38.32 18.34 39 18 C38.278125 17.278125 37.55625 16.55625 36.8125 15.8125 C34.99952114 13.99952114 33.22469221 12.14716143 31.5 10.25 C28.86794823 7.88115341 27.47184157 7.29758642 24 7 Z M21 10 C20.34 11.32 19.68 12.64 19 14 C20.32 13.67 21.64 13.34 23 13 C23 12.01 23 11.02 23 10 C22.34 10 21.68 10 21 10 Z M15.375 15.5 C14.92125 15.995 14.4675 16.49 14 17 C14.33 17.66 14.66 18.32 15 19 C16.32 17.35 17.64 15.7 19 14 C16.87635519 13.77390663 16.87635519 13.77390663 15.375 15.5 Z M24 14 C24.165 14.639375 24.33 15.27875 24.5 15.9375 C25.38303387 21.34608243 25.5131035 26.70413774 24 32 C24.99 32.33 25.98 32.66 27 33 C27.95619733 29.00204108 28.1039592 25.29196078 28.0625 21.1875 C28.05347656 20.02605469 28.04445313 18.86460938 28.03515625 17.66796875 C28.02355469 16.78753906 28.01195312 15.90710938 28 15 C26.68 14.67 25.36 14.34 24 14 Z M10 20 C9.66574265 22.37374861 9.66574265 22.37374861 10 25 C11.9004467 26.84315671 11.9004467 26.84315671 14 28 C13.34 25.36 12.68 22.72 12 20 C11.34 20 10.68 20 10 20 Z M30 20 C30.33 21.65 30.66 23.3 31 25 C32.32 24.67 33.64 24.34 35 24 C35 23.01 35 22.02 35 21 C33.35 20.67 31.7 20.34 30 20 Z M40 20 C39.855625 20.763125 39.71125 21.52625 39.5625 22.3125 C39 25 39 25 38 28 C39.32 27.34 40.64 26.68 42 26 C42 24.02 42 22.04 42 20 C41.34 20 40.68 20 40 20 Z M15 29 C16.32 30.32 17.64 31.64 19 33 C18.34 31.68 17.68 30.36 17 29 C16.34 29 15.68 29 15 29 Z M35 29 C34.34 30.32 33.68 31.64 33 33 C34.32 32.34 35.64 31.68 37 31 C37 30.34 37 29.68 37 29 C36.34 29 35.68 29 35 29 Z M19 33 C20.32 34.32 21.64 35.64 23 37 C22.34 35.68 21.68 34.36 21 33 C20.34 33 19.68 33 19 33 Z M30 34 C29.34 35.32 28.68 36.64 28 38 C29.32 37.34 30.64 36.68 32 36 C32 35.34 32 34.68 32 34 C31.34 34 30.68 34 30 34 Z " fill="#087F3A" transform="translate(102,69)"/>
<path d="M0 0 C20.46 0 40.92 0 62 0 C62 6.06320383 61.88548443 9.38618465 60.28515625 14.87890625 C59.92873047 16.12994141 59.57230469 17.38097656 59.20507812 18.66992188 C58.82489384 19.96764588 58.44402927 21.26517078 58.0625 22.5625 C57.31810337 25.12461675 56.58186011 27.68882286 55.84765625 30.25390625 C55.51773682 31.38127197 55.18781738 32.5086377 54.84790039 33.67016602 C53.91593154 37.05033761 53.91593154 37.05033761 53.50952148 40.79663086 C53 44 53 44 51 46 C48.53308105 46.25396729 48.53308105 46.25396729 45.38867188 46.25878906 C44.21405396 46.26509338 43.03943604 46.27139771 41.82922363 46.27789307 C39.91828918 46.27182037 39.91828918 46.27182037 37.96875 46.265625 C36.66675659 46.26753845 35.36476318 46.2694519 34.02331543 46.27142334 C31.26598372 46.27437391 28.50878151 46.27007924 25.75146484 46.26074219 C22.21372927 46.24934753 18.67629713 46.25590738 15.13857269 46.26788712 C11.76944066 46.27684394 8.40039066 46.2705764 5.03125 46.265625 C3.7572937 46.26967346 2.4833374 46.27372192 1.17077637 46.27789307 C-0.00384155 46.27158875 -1.17845947 46.26528442 -2.38867188 46.25878906 C-3.4263269 46.25719788 -4.46398193 46.25560669 -5.53308105 46.25396729 C-8 46 -8 46 -10 44 C-9.92122287 41.48822144 -9.71978163 39.16551043 -9.375 36.6875 C-9.23167236 35.60770874 -9.23167236 35.60770874 -9.08544922 34.50610352 C-8.10426793 27.72846267 -6.14921429 21.51085507 -4 15 C-2.68 10.05 -1.36 5.1 0 0 Z M18.1875 12.5 C17.68541016 13.02464844 17.18332031 13.54929687 16.66601562 14.08984375 C15.43237867 15.38222532 14.21458375 16.68969599 13 18 C16.12498166 18.3373846 16.12498166 18.3373846 18.1875 16 C18.785625 15.34 19.38375 14.68 20 14 C20.99 14.33 21.98 14.66 23 15 C24.13442694 18.40328083 24.06398478 20.98335142 24 24.5625 C23.76037998 28.94224133 23.76037998 28.94224133 25 33 C26.32 32.34 27.64 31.68 29 31 C29 30.01 29 29.02 29 28 C28.34 28 27.68 28 27 28 C27 25.03 27 22.06 27 19 C27.66 19 28.32 19 29 19 C29 17.68 29 16.36 29 15 C26.525 14.01 26.525 14.01 24 13 C24 12.01 24 11.02 24 10 C25.65 9.67 27.3 9.34 29 9 C29 8.34 29 7.68 29 7 C23.74360132 6.15436365 21.50753398 8.89184559 18.1875 12.5 Z M33 13 C34.04874998 15.62187494 34.64931313 16.79371361 37.125 18.25 C37.74375 18.4975 38.3625 18.745 39 19 C37.35830472 16.97945196 35.69088222 14.97956942 34 13 C33.67 13 33.34 13 33 13 Z M30 20 C30.66 21.65 31.32 23.3 32 25 C32.99 24.67 33.98 24.34 35 24 C34.67 22.68 34.34 21.36 34 20 C32.68 20 31.36 20 30 20 Z M40 20 C39.67 22.31 39.34 24.62 39 27 C39.99 26.34 40.98 25.68 42 25 C42.25030977 22.41619823 42.25030977 22.41619823 42 20 C41.34 20 40.68 20 40 20 Z M11 24 C12.3089572 27.12197478 12.3089572 27.12197478 15 29 C13.6910428 25.87802522 13.6910428 25.87802522 11 24 Z M15 29 C15.79117904 30.99983534 15.79117904 30.99983534 17 33 C17.99 33.33 18.98 33.66 20 34 C19.20882096 32.00016466 19.20882096 32.00016466 18 30 C17.01 29.67 16.02 29.34 15 29 Z M35 29 C35 29.99 35 30.98 35 32 C35.66 31.01 36.32 30.02 37 29 C36.34 29 35.68 29 35 29 Z M20 34 C20.66 35.32 21.32 36.64 22 38 C22.99 37.67 23.98 37.34 25 37 C23.62514468 35.45833358 23.62514468 35.45833358 22 34 C21.34 34 20.68 34 20 34 Z M30 35 C30 38 30 38 30 38 Z " fill="#084CAA" transform="translate(254,69)"/>
<path d="M0 0 C2.5625 1.75 2.5625 1.75 4.375 3.875 C6.8779714 6.02040406 7.63333352 5.99729346 10.8125 6.1875 C16.00152088 6.56426059 19.66031064 8.31497416 23.5625 11.75 C25.68543548 15.06708668 26.5625 16.82561828 26.5625 20.75 C27.8928125 20.87375 27.8928125 20.87375 29.25 21 C33.17220162 21.88804565 34.79716214 22.83518442 37.5625 25.75 C39.58619933 29.41453663 40.58563576 32.61634791 40.5 36.8125 C39.29803883 40.57864501 38.11799254 43.69816611 35.5625 46.75 C28.9383792 50.01748227 22.98670844 50.18982292 15.6875 50.1484375 C14.56359863 50.15130768 13.43969727 50.15417786 12.28173828 50.15713501 C9.91503391 50.15916861 7.54831246 50.15368824 5.18164062 50.14111328 C1.57383383 50.12505046 -2.03285275 50.14098689 -5.640625 50.16015625 C-7.94791912 50.15817369 -10.25521255 50.15432977 -12.5625 50.1484375 C-14.16907471 50.15754654 -14.16907471 50.15754654 -15.80810547 50.1668396 C-22.0498707 50.10866688 -26.76956799 49.42670641 -32.4375 46.75 C-35.41654642 43.51801567 -36.30232872 39.5760467 -37 35.3125 C-36.24992727 30.56203936 -34.49301984 26.49703223 -31.4375 22.75 C-29.265625 21.9921875 -29.265625 21.9921875 -27.4375 21.75 C-27.64375 20.904375 -27.85 20.05875 -28.0625 19.1875 C-28.60495543 14.21499188 -27.83387631 10.72790063 -24.91796875 6.59765625 C-18.25968203 -1.42420117 -10.01763779 -3.64277738 0 0 Z M-18.4375 8.75 C-21.77352214 13.16084994 -22.72573002 16.74289287 -22.1875 22.25 C-21.96103417 23.7537331 -21.71922482 25.25563354 -21.4375 26.75 C-22.55125 26.87375 -22.55125 26.87375 -23.6875 27 C-27.05176412 27.91752658 -28.30809621 29.01219512 -30.4375 31.75 C-31.68903259 34.09095531 -31.68903259 34.09095531 -31.4375 36.75 C-29.85280844 39.627057 -29.07070606 40.94378781 -26.4375 42.75 C-22.24584439 43.65587593 -18.11426186 43.56677084 -13.83984375 43.51171875 C-12.61342667 43.51508743 -11.38700958 43.51845612 -10.12342834 43.52192688 C-7.53365886 43.52162816 -4.94385409 43.50639162 -2.35424805 43.47729492 C1.61453821 43.43760462 5.57998665 43.45659427 9.54882812 43.48242188 C12.06511716 43.47486353 14.58139876 43.46391085 17.09765625 43.44921875 C18.28625748 43.45620285 19.4748587 43.46318695 20.69947815 43.47038269 C27.04841151 43.50600793 27.04841151 43.50600793 32.34545898 40.43286133 C34.00839779 36.76705702 33.6286023 34.58796829 32.5625 30.75 C31.66492444 28.60219923 31.66492444 28.60219923 29.5625 27.75 C26.80005752 27.82097184 24.29977549 28.25639294 21.5625 28.75 C20.5625 25.75 20.5625 25.75 20.75 22.875 C20.50678971 18.82149524 19.52911595 17.48841472 16.5625 14.75 C11.53548809 12.66331581 7.85701972 12.66948577 2.5625 13.75 C2.294375 12.986875 2.02625 12.22375 1.75 11.4375 C0.56364298 8.75258675 -0.18696096 7.56265136 -2.4375 5.75 C-8.67941314 3.95585285 -13.63063424 4.05758342 -18.4375 8.75 Z " fill="#1E1D1D" transform="translate(278.4375,208.25)"/>
<path d="M0 0 C1.20446777 0.01047363 2.40893555 0.02094727 3.64990234 0.03173828 C5.60283203 0.04140625 5.60283203 0.04140625 7.59521484 0.05126953 C8.9754258 0.06798149 10.35563413 0.08491139 11.73583984 0.10205078 C13.12385436 0.11208072 14.51187574 0.12120655 15.89990234 0.12939453 C19.3037201 0.15303215 22.70719491 0.18598211 26.11083984 0.22705078 C26.11083984 0.55705078 26.11083984 0.88705078 26.11083984 1.22705078 C24.46083984 1.55705078 22.81083984 1.88705078 21.11083984 2.22705078 C21.60583984 3.21705078 21.60583984 3.21705078 22.11083984 4.22705078 C21.12083984 4.55705078 20.13083984 4.88705078 19.11083984 5.22705078 C19.11083984 6.21705078 19.11083984 7.20705078 19.11083984 8.22705078 C16.58943829 10.8262048 13.99170256 13.26234279 11.28857422 15.66845703 C9.40382335 17.37863792 9.40382335 17.37863792 7.11083984 20.22705078 C7.07694397 26.06561558 11.57284725 29.64749082 15.42333984 33.60205078 C15.98021484 34.13830078 16.53708984 34.67455078 17.11083984 35.22705078 C16.78083984 36.21705078 16.45083984 37.20705078 16.11083984 38.22705078 C18.12906901 38.3898112 20.14729818 38.55257161 22.16552734 38.71533203 C24.11083984 39.22705078 24.11083984 39.22705078 26.11083984 42.22705078 C28.23190779 42.73407595 28.23190779 42.73407595 30.68115234 42.73876953 C31.57705078 42.77421875 32.47294922 42.80966797 33.39599609 42.84619141 C34.33314453 42.86875 35.27029297 42.89130859 36.23583984 42.91455078 C37.18072266 42.94871094 38.12560547 42.98287109 39.09912109 43.01806641 C41.43624237 43.10069191 43.77298176 43.16979066 46.11083984 43.22705078 C46.11083984 43.55705078 46.11083984 43.88705078 46.11083984 44.22705078 C26.64083984 44.22705078 7.17083984 44.22705078 -12.88916016 44.22705078 C-13.88916016 39.22705078 -13.88916016 39.22705078 -12.88916016 37.22705078 C-12.63913806 35.47990845 -12.41492822 33.72905937 -12.20166016 31.97705078 C-11.22717137 25.36391694 -9.63364607 18.98959238 -7.88916016 12.53955078 C-7.6278833 11.55889648 -7.36660645 10.57824219 -7.09741211 9.56787109 C-6.71588989 8.18680176 -6.71588989 8.18680176 -6.32666016 6.77783203 C-6.09849609 5.94936768 -5.87033203 5.12090332 -5.63525391 4.26733398 C-4.430597 0.97305461 -3.50267352 0.27526503 0 0 Z " fill="#064AA9" transform="translate(257.88916015625,69.77294921875)"/>
<path d="M0 0 C1.28132813 0.28746094 2.56265625 0.57492188 3.8828125 0.87109375 C4.87023437 1.09925781 5.85765625 1.32742187 6.875 1.5625 C7.80923645 4.57281744 7.91949911 5.42900268 6.875 8.5625 C7.205 9.5525 7.535 10.5425 7.875 11.5625 C6.885 11.8925 5.895 12.2225 4.875 12.5625 C4.14176204 14.57758358 4.14176204 14.57758358 3.875 16.5625 C2.885 16.5625 1.895 16.5625 0.875 16.5625 C1.91462638 24.53601078 1.91462638 24.53601078 6.875 30.5625 C9.00065993 33.71162582 9.93811109 35.81494435 10.875 39.5625 C15.825 39.0675 15.825 39.0675 20.875 38.5625 C20.215 40.2125 19.555 41.8625 18.875 43.5625 C20.195 43.8925 21.515 44.2225 22.875 44.5625 C17.07259432 44.58717332 11.27021902 44.60534724 5.46777344 44.61743164 C3.49283313 44.6224681 1.51789657 44.62929751 -0.45703125 44.63793945 C-3.29167605 44.65003508 -6.12627166 44.6557351 -8.9609375 44.66015625 C-9.84743988 44.66531754 -10.73394226 44.67047882 -11.64730835 44.67579651 C-17.89725659 44.67637171 -17.89725659 44.67637171 -20.125 43.5625 C-19.54073614 38.23330537 -18.65221827 33.2040849 -17.3125 28 C-17.13799316 27.3196167 -16.96348633 26.6392334 -16.78369141 25.93823242 C-16.23603547 23.81159178 -15.68073205 21.68704267 -15.125 19.5625 C-14.76425299 18.16408054 -14.40357479 16.76564332 -14.04296875 15.3671875 C-10.9079467 3.34262344 -10.9079467 3.34262344 -9.125 -0.4375 C-5.95954798 -2.02022601 -3.38081122 -0.76836619 0 0 Z " fill="#FB914E" transform="translate(412.125,69.4375)"/>
<path d="M0 0 C2.0625 0.1875 2.0625 0.1875 4 1 C8.52241838 14.56725515 5.94885573 34.04372219 -0.3203125 46.65625 C-3.53419203 52.06540243 -7.36538233 55.28666917 -13 58 C-13.9796875 58.495 -14.959375 58.99 -15.96875 59.5 C-21.2559424 61.72863149 -26.92079406 62.31546408 -32.5625 63.125 C-34.29282471 63.38265137 -34.29282471 63.38265137 -36.05810547 63.64550781 C-44.02801046 64.80089165 -51.94657352 65.70714813 -60 66 C-59.48824219 66.60328125 -58.97648437 67.2065625 -58.44921875 67.828125 C-57.97097656 68.54484375 -57.49273437 69.2615625 -57 70 C-57.8125 72.75 -57.8125 72.75 -59 75 C-64.46908508 73.01212333 -68.91850737 70.16530151 -73 66 C-74.1875 62.25 -74.1875 62.25 -74 59 C-71.86506646 55.79759969 -71.02917257 55.31131201 -67.625 53.875 C-66.85414063 53.54242188 -66.08328125 53.20984375 -65.2890625 52.8671875 C-60.71988073 51.13620055 -56.9079693 50.90561598 -52 51 C-52 52.32 -52 53.64 -52 55 C-52.99 55.66 -53.98 56.32 -55 57 C-50.62480781 56.7161176 -50.62480781 56.7161176 -46.25048828 56.41918945 C-43.0220474 56.19491912 -39.79999204 55.99135347 -36.56640625 55.8515625 C-26.89072739 55.35415918 -16.19863746 54.05147622 -9 47 C-7.40629703 44.11815297 -7.40629703 44.11815297 -6.3125 40.875 C-5.91675781 39.82054687 -5.52101563 38.76609375 -5.11328125 37.6796875 C-2.53403308 29.15459356 -1.76038471 21.3897271 -2 12.5 C-2.05085375 10.55230153 -2.09297645 8.60434906 -2.125 6.65625 C-2.14820313 5.80869141 -2.17140625 4.96113281 -2.1953125 4.08789062 C-2 2 -2 2 0 0 Z M-65.625 60.5 C-66.07875 60.995 -66.5325 61.49 -67 62 C-65.62514468 63.54166642 -65.62514468 63.54166642 -64 65 C-63.34 65 -62.68 65 -62 65 C-62 63.02 -62 61.04 -62 59 C-64.12364481 58.77390663 -64.12364481 58.77390663 -65.625 60.5 Z " fill="#141414" transform="translate(431,153)"/>
<path d="M0 0 C0.99 0.33 1.98 0.66 3 1 C3.01981934 1.70495605 3.03963867 2.40991211 3.06005859 3.13623047 C3.15631269 6.38281211 3.26557876 9.6288365 3.375 12.875 C3.4059375 13.98359375 3.436875 15.0921875 3.46875 16.234375 C3.77693704 24.96634127 4.24318077 33.56217934 8.5 41.375 C8.9228125 42.16648438 9.345625 42.95796875 9.78125 43.7734375 C10.38453125 44.87558594 10.38453125 44.87558594 11 46 C11.28488281 46.721875 11.56976563 47.44375 11.86328125 48.1875 C13.43908173 50.70011658 14.85232407 50.90426615 17.6875 51.625 C18.51636719 51.84414062 19.34523437 52.06328125 20.19921875 52.2890625 C21.12347656 52.52367187 22.04773438 52.75828125 23 53 C24.04800781 53.33515625 25.09601563 53.6703125 26.17578125 54.015625 C30.93964643 55.24187017 35.60878608 55.70298579 40.5 56.125 C41.41136719 56.21136719 42.32273438 56.29773438 43.26171875 56.38671875 C48.19659817 56.83534415 53.04545921 57.09527963 58 57 C56.68 56.34 55.36 55.68 54 55 C54 53.68 54 52.36 54 51 C61.10211659 50.36870075 67.85276045 52.30516923 73.8515625 56.203125 C75.25 57.4375 75.25 57.4375 77 60 C77.18231306 63.6462612 76.12228134 64.85733844 73.75 67.625 C69.85746351 70.98673606 65.9088834 73.40792971 61 75 C60.01 74.505 60.01 74.505 59 74 C58.8125 71.6875 58.8125 71.6875 59 69 C60.51171875 67.33203125 60.51171875 67.33203125 62 66 C60.70449219 65.89042969 59.40898437 65.78085938 58.07421875 65.66796875 C52.37662286 65.16954386 46.68738915 64.60341111 41 64 C40.13084961 63.90879883 39.26169922 63.81759766 38.36621094 63.72363281 C26.610389 62.41436777 13.34711047 60.50012634 5.22265625 50.94921875 C-4.60398387 37.91035532 -3.37498061 20.64311769 -2.44921875 5.1328125 C-2 2 -2 2 0 0 Z M64 59 C64 60.98 64 62.96 64 65 C65.98491642 64.73323796 65.98491642 64.73323796 68 64 C68.33 63.01 68.66 62.02 69 61 C66.525 60.01 66.525 60.01 64 59 Z " fill="#161616" transform="translate(127,153)"/>
<path d="M0 0 C1.13119766 -0.00938095 2.26239532 -0.0187619 3.4278717 -0.02842712 C5.25299538 -0.01157616 5.25299538 -0.01157616 7.11499023 0.00561523 C8.36738998 0.00416 9.61978973 0.00270477 10.91014099 0.00120544 C13.55767706 0.00286561 16.20377663 0.01235491 18.85107422 0.03515625 C22.24309603 0.06357077 25.63421841 0.06079445 29.02630711 0.04806614 C32.26425954 0.0394386 35.50206601 0.05455272 38.73999023 0.06811523 C39.95876358 0.0651796 41.17753693 0.06224396 42.4332428 0.05921936 C43.5612883 0.07190353 44.6893338 0.08458771 45.8515625 0.09765625 C46.84543472 0.10305923 47.83930695 0.10846222 48.86329651 0.11402893 C51.36108398 0.50170898 51.36108398 0.50170898 53.18017578 1.87194824 C55.84771201 5.55339089 54.82665246 11.07838811 54.79858398 15.43920898 C54.81856445 16.5368457 54.83854492 17.63448242 54.85913086 18.76538086 C54.85816406 20.34996094 54.85816406 20.34996094 54.85717773 21.96655273 C54.85903076 22.93197998 54.86088379 23.89740723 54.86279297 24.89208984 C54.36108398 27.50170898 54.36108398 27.50170898 53.02050781 29.81665039 C48.7100092 32.54785956 44.31006962 32.05135828 39.31420898 31.99780273 C38.22903992 31.99925797 37.14387085 32.0007132 36.02581787 32.00221252 C33.72934283 32.00055277 31.43285676 31.98898313 29.13647461 31.96826172 C25.63794083 31.93943031 22.14093427 31.94762784 18.64233398 31.96069336 C16.40795167 31.9544519 14.17357413 31.94605779 11.93920898 31.93530273 C10.37943329 31.93970619 10.37943329 31.93970619 8.78814697 31.94419861 C2.63851942 31.86521009 -2.08023047 31.21521892 -7.63891602 28.50170898 C-10.54437246 24.14352432 -10.00702008 20.19133446 -10.01391602 15.06420898 C-10.0384082 14.1096582 -10.06290039 13.15510742 -10.08813477 12.17163086 C-10.09200195 11.2505957 -10.09586914 10.32956055 -10.09985352 9.38061523 C-10.10807129 8.54087158 -10.11628906 7.70112793 -10.12475586 6.8359375 C-8.97532263 1.31345957 -5.1674815 0.00086327 0 0 Z M-2.63891602 5.50170898 C-2.63891602 11.77170898 -2.63891602 18.04170898 -2.63891602 24.50170898 C-1.63590291 25.7259894 -1.63590291 25.7259894 0.37953186 25.6219635 C1.70856789 25.61863258 1.70856789 25.61863258 3.06445312 25.61523438 C4.56589622 25.61512108 4.56589622 25.61512108 6.09767151 25.61500549 C7.18619919 25.60984421 8.27472687 25.60468292 9.39624023 25.59936523 C10.50462753 25.59795029 11.61301483 25.59653534 12.75498962 25.59507751 C16.31121467 25.58945932 19.86737782 25.57690373 23.42358398 25.56420898 C25.82787995 25.55919633 28.2321769 25.55463302 30.63647461 25.55053711 C36.54470176 25.53948397 42.45288236 25.52220715 48.36108398 25.50170898 C48.36108398 18.90170898 48.36108398 12.30170898 48.36108398 5.50170898 C31.53108398 5.50170898 14.70108398 5.50170898 -2.63891602 5.50170898 Z " fill="#181717" transform="translate(294.638916015625,182.498291015625)"/>
<path d="M0 0 C1.6406543 -0.03673828 1.6406543 -0.03673828 3.31445312 -0.07421875 C7.72821405 -0.09035682 11.28524702 0.01737973 15.41015625 1.65234375 C18.39206372 6.22023278 17.90707356 10.98800866 17.8125 16.3125 C17.83183594 17.39724609 17.85117187 18.48199219 17.87109375 19.59960938 C17.86464844 20.64826172 17.85820312 21.69691406 17.8515625 22.77734375 C17.84592285 23.73116943 17.8402832 24.68499512 17.83447266 25.66772461 C16.86657225 29.71793124 15.64196619 31.01338597 12.1875 33.375 C8.21722505 34.10316937 4.30821396 34.05166921 0.28125 34.00390625 C-1.45493591 34.00752419 -1.45493591 34.00752419 -3.22619629 34.01121521 C-5.67052643 34.0102368 -8.11487874 33.99684499 -10.55908203 33.97192383 C-14.29926881 33.93762135 -18.03709238 33.95126622 -21.77734375 33.97070312 C-24.15365589 33.96380455 -26.52996193 33.95413208 -28.90625 33.94140625 C-30.0240686 33.94636612 -31.14188721 33.95132599 -32.2935791 33.95643616 C-40.03973806 33.83900109 -40.03973806 33.83900109 -43.99414062 31.46459961 C-47.46484235 27.47618177 -46.9283028 23.80146532 -46.875 18.75 C-46.87048828 17.94820313 -46.86597656 17.14640625 -46.86132812 16.3203125 C-46.84953168 14.33850994 -46.83159605 12.35674567 -46.8125 10.375 C-44.5025 10.375 -42.1925 10.375 -39.8125 10.375 C-39.8125 15.655 -39.8125 20.935 -39.8125 26.375 C-22.9825 26.375 -6.1525 26.375 11.1875 26.375 C10.8575 20.105 10.5275 13.835 10.1875 7.375 C-2.6825 6.88 -2.6825 6.88 -15.8125 6.375 C-11.96593147 -1.31813706 -7.90613351 0.00921998 0 0 Z " fill="#151515" transform="translate(331.8125,249.625)"/>
<path d="M0 0 C1.09763672 -0.04576172 2.19527344 -0.09152344 3.32617188 -0.13867188 C4.38255859 -0.15349609 5.43894531 -0.16832031 6.52734375 -0.18359375 C7.492771 -0.2086499 8.45819824 -0.23370605 9.45288086 -0.25952148 C12.0625 0.4375 12.0625 0.4375 16.0625 6.4375 C2.6975 6.9325 2.6975 6.9325 -10.9375 7.4375 C-10.9375 13.3775 -10.9375 19.3175 -10.9375 25.4375 C13.8125 25.9325 13.8125 25.9325 39.0625 26.4375 C39.0625 21.4875 39.0625 16.5375 39.0625 11.4375 C40.0625 10.4375 40.0625 10.4375 42.5625 10.3125 C45.0625 10.4375 45.0625 10.4375 46.0625 11.4375 C46.2435363 14.03730001 46.34063914 16.58523781 46.375 19.1875 C46.41850586 20.26257813 46.41850586 20.26257813 46.46289062 21.359375 C46.50769356 25.1090358 46.21041951 27.20692856 44.16796875 30.390625 C41.05287958 33.41902337 39.35974224 33.56497387 35.12548828 33.58276367 C34.09747101 33.58914352 33.06945374 33.59552338 32.01028442 33.60209656 C30.33843582 33.60376579 30.33843582 33.60376579 28.6328125 33.60546875 C27.49093475 33.60879715 26.34905701 33.61212555 25.1725769 33.61555481 C22.75323897 33.62062509 20.33389402 33.6229631 17.91455078 33.62280273 C14.20984373 33.62498683 10.50543548 33.64313516 6.80078125 33.66210938 C4.45312602 33.66504372 2.10546937 33.66702824 -0.2421875 33.66796875 C-1.35270477 33.67515427 -2.46322205 33.68233978 -3.60739136 33.68974304 C-4.64171295 33.68666641 -5.67603455 33.68358978 -6.74169922 33.68041992 C-8.10498856 33.68255745 -8.10498856 33.68255745 -9.49581909 33.68473816 C-12.07895835 33.4231763 -13.71463391 32.74423103 -15.9375 31.4375 C-15.9375 30.7775 -15.9375 30.1175 -15.9375 29.4375 C-16.5975 29.4375 -17.2575 29.4375 -17.9375 29.4375 C-18.02444042 25.33346637 -18.07787149 21.22966871 -18.125 17.125 C-18.15013672 15.95775391 -18.17527344 14.79050781 -18.20117188 13.58789062 C-18.21567383 11.91049805 -18.21567383 11.91049805 -18.23046875 10.19921875 C-18.2461792 9.16756592 -18.26188965 8.13591309 -18.27807617 7.07299805 C-17.9375 4.4375 -17.9375 4.4375 -16.60668945 2.63989258 C-11.8782224 -0.76623587 -5.56215676 0.09438417 0 0 Z " fill="#1A191A" transform="translate(228.9375,249.5625)"/>
<path d="M0 0 C1.69206825 -0.01902626 1.69206825 -0.01902626 3.4183197 -0.03843689 C4.63709305 -0.03550125 5.85586639 -0.03256561 7.11157227 -0.02954102 C8.36301529 -0.03478287 9.61445831 -0.04002472 10.90382385 -0.04542542 C13.55290061 -0.05185494 16.20111791 -0.0519321 18.85009766 -0.04199219 C22.24104411 -0.03050676 25.63094854 -0.05070407 29.02175808 -0.07990932 C32.26003481 -0.10269268 35.49823415 -0.09580382 38.73657227 -0.09204102 C40.56169594 -0.10889198 40.56169594 -0.10889198 42.4236908 -0.12608337 C44.12048729 -0.11201195 44.12048729 -0.11201195 45.8515625 -0.09765625 C47.34356422 -0.097407 47.34356422 -0.097407 48.8657074 -0.09715271 C52.20418225 0.54033593 53.39365482 1.78628569 55.49047852 4.40405273 C55.96044922 6.40283203 55.96044922 6.40283203 55.91625977 8.47827148 C55.90369141 9.60265625 55.90369141 9.60265625 55.89086914 10.74975586 C55.86186523 11.52254883 55.83286133 12.2953418 55.80297852 13.09155273 C55.79331055 13.87594727 55.78364258 14.6603418 55.77368164 15.46850586 C55.65903975 21.2354915 55.65903975 21.2354915 54.49047852 22.40405273 C51.99047852 22.52905273 51.99047852 22.52905273 49.49047852 22.40405273 C49.16047852 22.07405273 48.83047852 21.74405273 48.49047852 21.40405273 C48.49047852 16.12405273 48.49047852 10.84405273 48.49047852 5.40405273 C31.99047852 5.73405273 15.49047852 6.06405273 -1.50952148 6.40405273 C-1.50952148 12.34405273 -1.50952148 18.28405273 -1.50952148 24.40405273 C11.03047852 24.73405273 23.57047852 25.06405273 36.49047852 25.40405273 C33.49047852 30.40405273 33.49047852 30.40405273 32.49047852 31.40405273 C29.7983348 31.54231187 27.13368102 31.61719532 24.43969727 31.64233398 C23.62934525 31.65040573 22.81899323 31.65847748 21.98408508 31.66679382 C20.26496531 31.68065094 18.54581784 31.69136579 16.82666016 31.69921875 C14.19909295 31.71641455 11.57278939 31.76028197 8.94555664 31.80444336 C7.27694612 31.81457145 5.60832488 31.82308719 3.93969727 31.82983398 C3.15414963 31.84734207 2.36860199 31.86485016 1.55924988 31.88288879 C-1.90761746 31.86913129 -4.09782636 31.68114593 -7.0065918 29.72338867 C-8.84373859 26.8882856 -9.01207212 25.23293138 -9.00561523 21.86889648 C-9.00625977 20.81250977 -9.0069043 19.75612305 -9.00756836 18.66772461 C-8.98758789 17.57008789 -8.96760742 16.47245117 -8.94702148 15.34155273 C-8.95411133 14.24004883 -8.96120117 13.13854492 -8.96850586 12.00366211 C-8.90454265 3.94921788 -8.90454265 3.94921788 -7.32861328 1.77429199 C-4.82233887 -0.11357073 -3.12109266 0.01696719 0 0 Z " fill="#181818" transform="translate(219.509521484375,182.595947265625)"/>
<path d="M0 0 C1.16781006 0.00523682 2.33562012 0.01047363 3.53881836 0.01586914 C4.79887695 0.0190918 6.05893555 0.02231445 7.35717773 0.02563477 C8.6976732 0.03399136 10.03816799 0.04245632 11.37866211 0.05102539 C12.72306153 0.05603879 14.06746271 0.06060197 15.41186523 0.06469727 C18.71334151 0.07653051 22.01473014 0.09301568 25.31616211 0.11352539 C25.64616211 1.43352539 25.97616211 2.75352539 26.31616211 4.11352539 C27.70907471 4.08995972 27.70907471 4.08995972 29.13012695 4.06591797 C32.57045039 4.01483686 36.01037187 3.97719932 39.45092773 3.94873047 C40.9409012 3.93362939 42.43083012 3.91314681 43.9206543 3.88720703 C46.06041441 3.85087955 48.19958777 3.83381318 50.33959961 3.82055664 C51.62785645 3.80484619 52.91611328 3.78913574 54.2434082 3.77294922 C55.25741699 3.88533936 56.27142578 3.99772949 57.31616211 4.11352539 C59.31616211 7.11352539 59.31616211 7.11352539 59.31616211 10.11352539 C58.36775703 10.12565567 58.36775703 10.12565567 57.40019226 10.13803101 C50.8303893 10.22396574 44.26089193 10.32346437 37.69140625 10.4309082 C35.23833338 10.46923493 32.7852036 10.50408121 30.33203125 10.53540039 C26.80960726 10.58097046 23.28757636 10.6389786 19.76538086 10.69946289 C18.66530197 10.7110141 17.56522308 10.72256531 16.43180847 10.73446655 C15.41097672 10.75433624 14.39014496 10.77420593 13.33837891 10.79467773 C11.98935738 10.81466324 11.98935738 10.81466324 10.61308289 10.83505249 C8.04046315 10.97194513 8.04046315 10.97194513 5.31616211 13.11352539 C4.33225164 15.66526947 3.50684183 18.12021607 2.75366211 20.73852539 C2.54547852 21.4255957 2.33729492 22.11266602 2.12280273 22.82055664 C0.70729553 27.55074688 -0.51436842 32.31708376 -1.68383789 37.11352539 C-2.34383789 37.11352539 -3.00383789 37.11352539 -3.68383789 37.11352539 C-3.70848799 32.00488643 -3.72667396 26.8962818 -3.73876953 21.78759766 C-3.74380993 20.04833371 -3.75064219 18.30907403 -3.75927734 16.56982422 C-3.77135581 14.07526602 -3.77706897 11.58076366 -3.78149414 9.08618164 C-3.78665543 8.30388687 -3.79181671 7.5215921 -3.7971344 6.71559143 C-3.79733015 4.84785425 -3.74583483 2.98023335 -3.68383789 1.11352539 C-2.68383789 0.11352539 -2.68383789 0.11352539 0 0 Z " fill="#FB9150" transform="translate(395.683837890625,55.886474609375)"/>
<path d="M0 0 C1.12591553 0.00523682 2.25183105 0.01047363 3.41186523 0.01586914 C4.62680664 0.0190918 5.84174805 0.02231445 7.09350586 0.02563477 C8.37290039 0.03401367 9.65229492 0.04239258 10.97045898 0.05102539 C12.2537207 0.05553711 13.53698242 0.06004883 14.85913086 0.06469727 C18.04211921 0.07652994 21.22501661 0.09301471 24.40795898 0.11352539 C25.06795898 1.43352539 25.72795898 2.75352539 26.40795898 4.11352539 C27.80087158 4.08995972 27.80087158 4.08995972 29.22192383 4.06591797 C32.66224727 4.01483686 36.10216875 3.97719932 39.54272461 3.94873047 C41.03269807 3.93362939 42.52262699 3.91314681 44.01245117 3.88720703 C46.15221129 3.85087955 48.29138465 3.83381318 50.43139648 3.82055664 C51.71965332 3.80484619 53.00791016 3.78913574 54.33520508 3.77294922 C55.34921387 3.88533936 56.36322266 3.99772949 57.40795898 4.11352539 C59.40795898 7.11352539 59.40795898 7.11352539 59.40795898 10.11352539 C58.78013016 10.12161224 58.15230133 10.1296991 57.50544739 10.13803101 C50.96778188 10.22412439 44.4304179 10.32363039 37.89306641 10.4309082 C35.45366482 10.46917841 33.01420717 10.50403469 30.57470703 10.53540039 C27.06709772 10.58109284 23.55987365 10.63908144 20.05249023 10.69946289 C18.96273392 10.7110141 17.8729776 10.72256531 16.75019836 10.73446655 C15.72951767 10.75433624 14.70883698 10.77420593 13.65722656 10.79467773 C12.7623201 10.8080014 11.86741364 10.82132507 10.94538879 10.83505249 C8.14722607 11.1421398 5.96407985 11.96008436 3.40795898 13.11352539 C3.22233398 14.62946289 3.22233398 14.62946289 3.03295898 16.17602539 C2.43147815 19.96535467 1.46911816 23.43067884 0.40795898 27.11352539 C-0.30851576 30.43757829 -0.96012775 33.77245205 -1.59204102 37.11352539 C-2.25204102 37.11352539 -2.91204102 37.11352539 -3.59204102 37.11352539 C-3.61669112 32.00488643 -3.63487709 26.8962818 -3.64697266 21.78759766 C-3.65201306 20.04833371 -3.65884532 18.30907403 -3.66748047 16.56982422 C-3.67955893 14.07526602 -3.6852721 11.58076366 -3.68969727 9.08618164 C-3.69485855 8.30388687 -3.70001984 7.5215921 -3.70533752 6.71559143 C-3.70553328 4.84785425 -3.65403796 2.98023335 -3.59204102 1.11352539 C-2.59204102 0.11352539 -2.59204102 0.11352539 0 0 Z " fill="#084CAD" transform="translate(247.592041015625,55.886474609375)"/>
<path d="M0 0 C1.16781006 0.00523682 2.33562012 0.01047363 3.53881836 0.01586914 C4.79887695 0.0190918 6.05893555 0.02231445 7.35717773 0.02563477 C8.6976732 0.03399136 10.03816799 0.04245632 11.37866211 0.05102539 C12.72306153 0.05603879 14.06746271 0.06060197 15.41186523 0.06469727 C18.71334151 0.07653051 22.01473014 0.09301568 25.31616211 0.11352539 C25.31616211 1.43352539 25.31616211 2.75352539 25.31616211 4.11352539 C35.87616211 4.11352539 46.43616211 4.11352539 57.31616211 4.11352539 C57.81116211 7.08352539 57.81116211 7.08352539 58.31616211 10.11352539 C57.70086136 10.11495041 57.08556061 10.11637543 56.45161438 10.11784363 C50.04346218 10.13754055 43.63626253 10.19181419 37.22851562 10.26611328 C34.83763464 10.28930053 32.44665141 10.30369067 30.05566406 10.30908203 C26.61710841 10.31836577 23.18016267 10.35934707 19.74194336 10.40649414 C18.67406082 10.40256149 17.60617828 10.39862885 16.50593567 10.39457703 C10.41603292 10.49855263 10.41603292 10.49855263 5.18286133 13.41943359 C3.58626556 15.72370175 2.59028728 17.22726909 2.02319336 19.92602539 C1.86786133 20.60922852 1.7125293 21.29243164 1.55249023 21.99633789 C1.41262695 22.69500977 1.27276367 23.39368164 1.12866211 24.11352539 C0.15662545 28.597303 -0.81533093 32.89909559 -2.68383789 37.11352539 C-3.01383789 37.11352539 -3.34383789 37.11352539 -3.68383789 37.11352539 C-3.70848799 32.00488643 -3.72667396 26.8962818 -3.73876953 21.78759766 C-3.74380993 20.04833371 -3.75064219 18.30907403 -3.75927734 16.56982422 C-3.77135581 14.07526602 -3.77706897 11.58076366 -3.78149414 9.08618164 C-3.78665543 8.30388687 -3.79181671 7.5215921 -3.7971344 6.71559143 C-3.79733015 4.84785425 -3.74583483 2.98023335 -3.68383789 1.11352539 C-2.68383789 0.11352539 -2.68383789 0.11352539 0 0 Z " fill="#118542" transform="translate(95.683837890625,55.886474609375)"/>
<path d="M0 0 C6.21131774 -0.07408447 12.42237905 -0.12857114 18.6340332 -0.16479492 C20.74768554 -0.1798936 22.86130648 -0.20037426 24.97485352 -0.22631836 C28.01065815 -0.26265397 31.04604906 -0.27971544 34.08203125 -0.29296875 C35.5024749 -0.31619453 35.5024749 -0.31619453 36.95161438 -0.33988953 C38.27264412 -0.34022942 38.27264412 -0.34022942 39.62036133 -0.34057617 C40.39535477 -0.34723801 41.17034821 -0.35389984 41.96882629 -0.36076355 C44.5505333 0.09778206 45.42804923 0.9350222 47 3 C47.37231445 5.60375977 47.37231445 5.60375977 47.36328125 8.69140625 C47.36263672 9.80064453 47.36199219 10.90988281 47.36132812 12.05273438 C47.34521484 13.21095703 47.32910156 14.36917969 47.3125 15.5625 C47.31572266 16.72458984 47.31894531 17.88667969 47.32226562 19.08398438 C47.26691946 27.73308054 47.26691946 27.73308054 45 30 C42.38623047 30.22705078 42.38623047 30.22705078 39.1171875 30.1953125 C37.95058594 30.18886719 36.78398437 30.18242187 35.58203125 30.17578125 C34.35871094 30.15902344 33.13539063 30.14226562 31.875 30.125 C30.64394531 30.11597656 29.41289062 30.10695312 28.14453125 30.09765625 C25.09616185 30.07402548 22.04817618 30.04108054 19 30 C19 28.35 19 26.7 19 25 C26.26 25 33.52 25 41 25 C41 18.73 41 12.46 41 6 C28.46 6 15.92 6 3 6 C2.01 4.02 1.02 2.04 0 0 Z " fill="#1B1B1B" transform="translate(302,217)"/>
<path d="M0 0 C0.66 1.32 1.32 2.64 2 4 C-1.13349732 5.04449911 -1.98968256 4.93423645 -5 4 C-5 5.98 -5 7.96 -5 10 C-1.535 9.505 -1.535 9.505 2 9 C2.33 7.35 2.66 5.7 3 4 C6.465 3.505 6.465 3.505 10 3 C11.5625 4.6875 11.5625 4.6875 13 7 C12.75925978 10.37036311 12.41201979 11.58798021 10 14 C6.26703674 14.38286803 5.22373677 14.14915785 2 12 C1.34 12.66 0.68 13.32 0 14 C-1.32 14 -2.64 14 -4 14 C-3.9278125 15.23234375 -3.855625 16.4646875 -3.78125 17.734375 C-3.26528205 26.83141429 -2.83623966 35.88400751 -3 45 C-2.01 45 -1.02 45 0 45 C0.48792229 48.25281528 0.40014561 50.34713084 -1.3359375 53.1796875 C-2.84217602 55.1667909 -4.38217825 57.1029114 -6 59 C-7.890625 58.66796875 -7.890625 58.66796875 -10 58 C-12.66280693 53.91068936 -13.34568576 50.83960066 -13 46 C-11.02 45.505 -11.02 45.505 -9 45 C-9 44.04633545 -9 43.0926709 -9 42.11010742 C-9 31.40673828 -9 20.70336914 -9 10 C-9.0825 9.030625 -9.165 8.06125 -9.25 7.0625 C-9 4 -9 4 -7.3125 1.625 C-4.61209763 -0.27258004 -3.22939919 -0.35882213 0 0 Z M6 6 C6.33 7.65 6.66 9.3 7 11 C7.99 10.67 8.98 10.34 10 10 C9.67 8.68 9.34 7.36 9 6 C8.01 6 7.02 6 6 6 Z " fill="#101010" transform="translate(287,117)"/>
<path d="M0 0 C0.79481277 0.00424484 1.58962555 0.00848969 2.40852356 0.01286316 C4.94587146 0.02964945 7.48242363 0.06730051 10.01953125 0.10546875 C11.7402229 0.1205157 13.46092701 0.13420409 15.18164062 0.14648438 C19.39874387 0.17955268 23.61525267 0.2313338 27.83203125 0.29296875 C27.17203125 2.27296875 26.51203125 4.25296875 25.83203125 6.29296875 C15.60203125 6.29296875 5.37203125 6.29296875 -5.16796875 6.29296875 C-4.83796875 12.23296875 -4.50796875 18.17296875 -4.16796875 24.29296875 C2.76203125 24.62296875 9.69203125 24.95296875 16.83203125 25.29296875 C17.16203125 26.94296875 17.49203125 28.59296875 17.83203125 30.29296875 C13.37375199 30.35079915 8.91556845 30.3865073 4.45703125 30.41796875 C3.18601563 30.43472656 1.915 30.45148438 0.60546875 30.46875 C-0.60625 30.47519531 -1.81796875 30.48164063 -3.06640625 30.48828125 C-4.18708496 30.49875488 -5.30776367 30.50922852 -6.46240234 30.52001953 C-9.16796875 30.29296875 -9.16796875 30.29296875 -11.16796875 28.29296875 C-11.62612863 24.16545727 -11.49197733 20.00546107 -11.48046875 15.85546875 C-11.49658203 14.69724609 -11.51269531 13.53902344 -11.52929688 12.34570312 C-11.52994141 11.23646484 -11.53058594 10.12722656 -11.53125 8.984375 C-11.53423096 7.96545166 -11.53721191 6.94652832 -11.5402832 5.89672852 C-11.16796875 3.29296875 -11.16796875 3.29296875 -10.15576172 1.45556641 C-6.95450474 -0.41674823 -3.60073588 -0.07222187 0 0 Z " fill="#201F1F" transform="translate(222.16796875,216.70703125)"/>
<path d="M0 0 C2.875 0.25 2.875 0.25 6 1 C7.1875 3 7.1875 3 8 5 C8.99 5.33 9.98 5.66 11 6 C11 6.66 11 7.32 11 8 C13.9254644 8.2236068 13.9254644 8.2236068 16 7 C19 9 19 9 19.625 11.75 C18.82336773 15.91848781 17.27779023 16.90293789 14.01953125 19.41796875 C11.90366373 21.07546651 10.02485678 22.85014322 8.125 24.75 C7.55007813 25.32234375 6.97515625 25.8946875 6.3828125 26.484375 C4.90173697 27.96946673 4.90173697 27.96946673 4 30 C2.68 30 1.36 30 0 30 C-1.875 27.9375 -1.875 27.9375 -4 25 C-5.03093332 23.7618172 -6.07309388 22.53291536 -7.125 21.3125 C-7.62257813 20.73113281 -8.12015625 20.14976563 -8.6328125 19.55078125 C-9.71151017 18.3272299 -10.84659925 17.15340075 -12 16 C-11.625 13.375 -11.625 13.375 -11 11 C-10.01 10.67 -9.02 10.34 -8 10 C-7.71125 9.360625 -7.4225 8.72125 -7.125 8.0625 C-6 6 -6 6 -3.4375 5 C-2.633125 4.67 -1.82875 4.34 -1 4 C-0.11306697 1.95894361 -0.11306697 1.95894361 0 0 Z M-1 4 C-0.67 4.825 -0.34 5.65 0 6.5 C1.47232522 11.65313826 1.7248718 16.82538461 0 22 C1.485 22.99 1.485 22.99 3 24 C3.66 22.68 4.32 21.36 5 20 C4.67 19.67 4.34 19.34 4 19 C3.76807135 17.48530552 3.58784762 15.96245438 3.4375 14.4375 C3.35371094 13.61121094 3.26992188 12.78492187 3.18359375 11.93359375 C3.12300781 11.29550781 3.06242187 10.65742187 3 10 C3.66 10 4.32 10 5 10 C5 8.68 5 7.36 5 6 C3.02 5.34 1.04 4.68 -1 4 Z M6 11 C6.66 12.65 7.32 14.3 8 16 C9.32 15.67 10.64 15.34 12 15 C11.34 13.68 10.68 12.36 10 11 C8.68 11 7.36 11 6 11 Z " fill="#F29863" transform="translate(426,78)"/>
<path d="M0 0 C2.2421875 -0.2734375 2.2421875 -0.2734375 5 0 C7.1328125 1.8984375 7.1328125 1.8984375 9.125 4.375 C11.38221554 7.14162605 13.0040286 9.00268574 16 11 C15.75170379 15.22103559 15.48782755 17.43306529 12.6875 20.6875 C11.800625 21.450625 10.91375 22.21375 10 23 C7.72808584 25.02040748 7.72808584 25.02040748 6 27 C6 27.99 6 28.98 6 30 C3.69 30 1.38 30 -1 30 C-1 29.01 -1 28.02 -1 27 C-3.22847788 24.52056045 -3.22847788 24.52056045 -6 22 C-6.86625 21.0925 -7.7325 20.185 -8.625 19.25 C-10.86533112 16.80995326 -10.86533112 16.80995326 -14 16 C-14 14.68 -14 13.36 -14 12 C-13.34 12 -12.68 12 -12 12 C-12 11.34 -12 10.68 -12 10 C-10.34928604 8.97388051 -8.68029994 7.97691857 -7 7 C-5.24850835 5.41754725 -5.24850835 5.41754725 -4 4 C-2.0625 4.8125 -2.0625 4.8125 0 6 C1.2062252 9.61867559 1.10816918 12.92506251 1.0625 16.6875 C1.05798828 17.38939453 1.05347656 18.09128906 1.04882812 18.81445312 C1.03706927 20.54300538 1.01913454 22.27151365 1 24 C4.24849977 22.27773504 4.24849977 22.27773504 5 19 C4.34 19 3.68 19 3 19 C3 16.03 3 13.06 3 10 C3.66 10 4.32 10 5 10 C5 8.68 5 7.36 5 6 C3.02 5.34 1.04 4.68 -1 4 C-0.67 2.68 -0.34 1.36 0 0 Z M6 11 C6.66 12.65 7.32 14.3 8 16 C8.99 15.67 9.98 15.34 11 15 C10.67 13.68 10.34 12.36 10 11 C8.68 11 7.36 11 6 11 Z " fill="#3F6EB0" transform="translate(278,78)"/>
<path d="M0 0 C0.99 0.33 1.98 0.66 3 1 C3 5.29 3 9.58 3 14 C-1.0342808 15.0085702 -3.02023108 14.77865044 -7 14 C-9.17450693 13.93063079 -9.17450693 13.93063079 -11.9375 14.625 C-15 15 -15 15 -18 13 C-18.99 13.66 -19.98 14.32 -21 15 C-26.44444444 14.55555556 -26.44444444 14.55555556 -29 12 C-29.55641422 4.98918083 -29.55641422 4.98918083 -27.875 2 C-25.1715264 0.55814741 -23.01217617 0.74364458 -20 1 C-19.34 1.33 -18.68 1.66 -18 2 C-18 3.32 -18 4.64 -18 6 C-20.64 5.67 -23.28 5.34 -26 5 C-26 6.98 -26 8.96 -26 11 C-23.36 10.67 -20.72 10.34 -18 10 C-17.690625 9.195625 -17.38125 8.39125 -17.0625 7.5625 C-16 5 -16 5 -15 4 C-12.5625 3.8125 -12.5625 3.8125 -10 4 C-9.34 4.66 -8.68 5.32 -8 6 C-7.01 5.34 -6.02 4.68 -5 4 C-2.3125 3.875 -2.3125 3.875 0 4 C0 2.68 0 1.36 0 0 Z M-13 7 C-13.33 8.32 -13.66 9.64 -14 11 C-13.01 11 -12.02 11 -11 11 C-11.33 9.68 -11.66 8.36 -12 7 C-12.33 7 -12.66 7 -13 7 Z M-4 7 C-3.67 8.65 -3.34 10.3 -3 12 C-2.01 11.67 -1.02 11.34 0 11 C-0.66 9.68 -1.32 8.36 -2 7 C-2.66 7 -3.32 7 -4 7 Z " fill="#2E2D2D" transform="translate(455,116)"/>
<path d="M0 0 C2.6875 -0.3125 2.6875 -0.3125 5 0 C5 1.32 5 2.64 5 4 C6.39025391 3.98259766 6.39025391 3.98259766 7.80859375 3.96484375 C9.00613281 3.95582031 10.20367187 3.94679688 11.4375 3.9375 C12.63246094 3.92589844 13.82742187 3.91429688 15.05859375 3.90234375 C18 4 18 4 19 5 C19.04092937 7.33297433 19.04241723 9.66705225 19 12 C19.66 12 20.32 12 21 12 C20.67 12.99 20.34 13.98 20 15 C13.84765625 15.09765625 13.84765625 15.09765625 12 15 C11 14 11 14 10.9375 10.9375 C10.958125 9.968125 10.97875 8.99875 11 8 C10.01 7.67 9.02 7.34 8 7 C7.67 9.31 7.34 11.62 7 14 C6.01 14 5.02 14 4 14 C4 11.69 4 9.38 4 7 C3.34 7 2.68 7 2 7 C2 9.31 2 11.62 2 14 C0.68 14 -0.64 14 -2 14 C-2.721875 14.185625 -3.44375 14.37125 -4.1875 14.5625 C-4.785625 14.706875 -5.38375 14.85125 -6 15 C-7 14 -7 14 -7.0625 10.4375 C-7.041875 9.303125 -7.02125 8.16875 -7 7 C-7.66 7 -8.32 7 -9 7 C-9.33 9.64 -9.66 12.28 -10 15 C-10.66 15 -11.32 15 -12 15 C-12 11.37 -12 7.74 -12 4 C-5.25 3.875 -5.25 3.875 -3 5 C-2.4121875 3.7625 -2.4121875 3.7625 -1.8125 2.5 C-1.214375 1.675 -0.61625 0.85 0 0 Z " fill="#4F5551" transform="translate(104,116)"/>
<path d="M0 0 C0.99 0 1.98 0 3 0 C3 4.95 3 9.9 3 15 C-4 15 -4 15 -7 13 C-7.99 13.66 -8.98 14.32 -10 15 C-11.96243414 14.77104935 -13.92517763 14.53384042 -15.875 14.21484375 C-18.27927855 13.8777425 -18.27927855 13.8777425 -21.75 14.625 C-25 15 -25 15 -27.4375 14 C-29 12 -29 12 -29.4375 8.5625 C-28.78454774 3.24560302 -28.78454774 3.24560302 -26 1 C-22.3125 0.75 -22.3125 0.75 -19 1 C-18.34 2.32 -17.68 3.64 -17 5 C-20 6 -20 6 -23 5 C-23.99 5.495 -23.99 5.495 -25 6 C-25 7.32 -25 8.64 -25 10 C-21.71023192 11.09658936 -20.28696233 10.79953138 -17 10 C-16.855625 9.195625 -16.71125 8.39125 -16.5625 7.5625 C-16 5 -16 5 -15 4 C-12.0625 3.8125 -12.0625 3.8125 -9 4 C-8.34 4.66 -7.68 5.32 -7 6 C-6.34 5.34 -5.68 4.68 -5 4 C-2.375 3.875 -2.375 3.875 0 4 C0 2.68 0 1.36 0 0 Z M-13 7 C-13.33 8.32 -13.66 9.64 -14 11 C-12.68 11 -11.36 11 -10 11 C-10.33 9.68 -10.66 8.36 -11 7 C-11.66 7 -12.32 7 -13 7 Z M-3 7 C-3.33 8.32 -3.66 9.64 -4 11 C-2.68 11 -1.36 11 0 11 C-0.33 9.68 -0.66 8.36 -1 7 C-1.66 7 -2.32 7 -3 7 Z " fill="#2A2C2B" transform="translate(157,116)"/>
<path d="M0 0 C0 1.32 0 2.64 0 4 C-0.99 4.66 -1.98 5.32 -3 6 C-0.03 6.495 -0.03 6.495 3 7 C3 7.33 3 7.66 3 8 C2.26394531 7.97679687 1.52789062 7.95359375 0.76953125 7.9296875 C-0.69419922 7.90261719 -0.69419922 7.90261719 -2.1875 7.875 C-3.63189453 7.84019531 -3.63189453 7.84019531 -5.10546875 7.8046875 C-8.12812778 8.0086456 -10.26769985 8.73125368 -13 10 C-13 10.66 -13 11.32 -13 12 C-12.05125 12.598125 -11.1025 13.19625 -10.125 13.8125 C-6.86068903 16.09751768 -5.79128743 17.14247376 -5 21 C-5.66 21.99 -6.32 22.98 -7 24 C-12.46908508 22.01212333 -16.91850737 19.16530151 -21 15 C-22.1875 11.25 -22.1875 11.25 -22 8 C-19.86506646 4.79759969 -19.02917257 4.31131201 -15.625 2.875 C-14.85414063 2.54242188 -14.08328125 2.20984375 -13.2890625 1.8671875 C-8.71988073 0.13620055 -4.9079693 -0.09438402 0 0 Z " fill="#1D1D1D" transform="translate(379,204)"/>
<path d="M0 0 C1.6406543 -0.03673828 1.6406543 -0.03673828 3.31445312 -0.07421875 C11.32036597 -0.10349083 11.32036597 -0.10349083 15.4296875 2.1640625 C17.8867276 5.25447293 17.55593511 7.54327483 17.1875 11.375 C16.548125 11.478125 15.90875 11.58125 15.25 11.6875 C14.569375 11.914375 13.88875 12.14125 13.1875 12.375 C12.8575 13.365 12.5275 14.355 12.1875 15.375 C11.5275 12.735 10.8675 10.095 10.1875 7.375 C-2.6825 6.88 -2.6825 6.88 -15.8125 6.375 C-11.96593147 -1.31813706 -7.90613351 0.00921998 0 0 Z " fill="#272727" transform="translate(331.8125,249.625)"/>
<path d="M0 0 C1.11628784 -0.01933594 1.11628784 -0.01933594 2.25512695 -0.0390625 C5.9166601 -0.04612173 7.3587804 0.0933536 10.5 2.1875 C10.6875 5.3125 10.6875 5.3125 10.5 8.1875 C8.5 4.4375 8.5 4.4375 8.5 2.1875 C7.63761719 2.2596875 6.77523437 2.331875 5.88671875 2.40625 C-2.54458299 3.04727822 -10.870863 3.2726613 -19.32739258 3.0625 C-21.38511967 3.03169506 -23.44384469 3.10138931 -25.5 3.1875 C-26.16 3.8475 -26.82 4.5075 -27.5 5.1875 C-25.19 5.8475 -22.88 6.5075 -20.5 7.1875 C-21.16 8.5075 -21.82 9.8275 -22.5 11.1875 C-22.5 10.5275 -22.5 9.8675 -22.5 9.1875 C-24.48 9.1875 -26.46 9.1875 -28.5 9.1875 C-28.83 9.8475 -29.16 10.5075 -29.5 11.1875 C-30.16 11.1875 -30.82 11.1875 -31.5 11.1875 C-31.70625 11.72375 -31.9125 12.26 -32.125 12.8125 C-34.03250426 16.10728009 -36.54819384 18.78113628 -39.5 21.1875 C-40.16 21.1875 -40.82 21.1875 -41.5 21.1875 C-41.5 20.1975 -41.5 19.2075 -41.5 18.1875 C-40.51 18.1875 -39.52 18.1875 -38.5 18.1875 C-38.17 16.5375 -37.84 14.8875 -37.5 13.1875 C-36.51 13.1875 -35.52 13.1875 -34.5 13.1875 C-34.83 12.5275 -35.16 11.8675 -35.5 11.1875 C-36.49 11.6825 -36.49 11.6825 -37.5 12.1875 C-37.005 10.7953125 -37.005 10.7953125 -36.5 9.375 C-35.35032996 6.26720709 -35.35032996 6.26720709 -35.5 3.1875 C-39.13 2.8575 -42.76 2.5275 -46.5 2.1875 C-46.5 1.8575 -46.5 1.5275 -46.5 1.1875 C-11.93013104 0.09749826 -11.93013104 0.09749826 0 0 Z " fill="#F59B64" transform="translate(454.5,67.8125)"/>
<path d="M0 0 C1.16781006 0.00523682 2.33562012 0.01047363 3.53881836 0.01586914 C4.79887695 0.0190918 6.05893555 0.02231445 7.35717773 0.02563477 C8.6976732 0.03399136 10.03816799 0.04245632 11.37866211 0.05102539 C12.72306153 0.05603879 14.06746271 0.06060197 15.41186523 0.06469727 C18.71334151 0.07653051 22.01473014 0.09301568 25.31616211 0.11352539 C25.64616211 1.43352539 25.97616211 2.75352539 26.31616211 4.11352539 C27.70907471 4.08995972 27.70907471 4.08995972 29.13012695 4.06591797 C32.57045039 4.01483686 36.01037187 3.97719932 39.45092773 3.94873047 C40.9409012 3.93362939 42.43083012 3.91314681 43.9206543 3.88720703 C46.06041441 3.85087955 48.19958777 3.83381318 50.33959961 3.82055664 C51.62785645 3.80484619 52.91611328 3.78913574 54.2434082 3.77294922 C55.25741699 3.88533936 56.27142578 3.99772949 57.31616211 4.11352539 C59.31616211 7.11352539 59.31616211 7.11352539 59.31616211 10.11352539 C54.69616211 10.11352539 50.07616211 10.11352539 45.31616211 10.11352539 C45.31616211 9.78352539 45.31616211 9.45352539 45.31616211 9.11352539 C48.94616211 9.11352539 52.57616211 9.11352539 56.31616211 9.11352539 C56.31616211 7.79352539 56.31616211 6.47352539 56.31616211 5.11352539 C45.75616211 5.11352539 35.19616211 5.11352539 24.31616211 5.11352539 C23.98616211 4.12352539 23.65616211 3.13352539 23.31616211 2.11352539 C15.06616211 2.11352539 6.81616211 2.11352539 -1.68383789 2.11352539 C-2.01383789 8.05352539 -2.34383789 13.99352539 -2.68383789 20.11352539 C-1.36383789 20.11352539 -0.04383789 20.11352539 1.31616211 20.11352539 C1.64616211 17.80352539 1.97616211 15.49352539 2.31616211 13.11352539 C2.97616211 13.11352539 3.63616211 13.11352539 4.31616211 13.11352539 C2.88549514 21.28338679 0.67478794 29.16747527 -1.68383789 37.11352539 C-2.34383789 37.11352539 -3.00383789 37.11352539 -3.68383789 37.11352539 C-3.70848799 32.00488643 -3.72667396 26.8962818 -3.73876953 21.78759766 C-3.74380993 20.04833371 -3.75064219 18.30907403 -3.75927734 16.56982422 C-3.77135581 14.07526602 -3.77706897 11.58076366 -3.78149414 9.08618164 C-3.78665543 8.30388687 -3.79181671 7.5215921 -3.7971344 6.71559143 C-3.79733015 4.84785425 -3.74583483 2.98023335 -3.68383789 1.11352539 C-2.68383789 0.11352539 -2.68383789 0.11352539 0 0 Z " fill="#E69467" transform="translate(395.683837890625,55.886474609375)"/>
<path d="M0 0 C1.43739513 -0.02712066 2.87493863 -0.04645067 4.3125 -0.0625 C5.51326172 -0.07990234 5.51326172 -0.07990234 6.73828125 -0.09765625 C9 0 9 0 12 1 C12.33 1.99 12.66 2.98 13 4 C28.345 3.505 28.345 3.505 44 3 C44.495 5.475 44.495 5.475 45 8 C31.14 8 17.28 8 3 8 C3.99 7.01 4.98 6.02 6 5 C4.68 5 3.36 5 2 5 C2 3.68 2 2.36 2 1 C1.34 0.67 0.68 0.34 0 0 Z " fill="#0348A9" transform="translate(259,57)"/>
<path d="M0 0 C0.66 1.32 1.32 2.64 2 4 C-1.13349732 5.04449911 -1.98968256 4.93423645 -5 4 C-5 5.98 -5 7.96 -5 10 C-1.535 9.505 -1.535 9.505 2 9 C2.33 7.35 2.66 5.7 3 4 C6.465 3.505 6.465 3.505 10 3 C11.5625 4.6875 11.5625 4.6875 13 7 C12.75925978 10.37036311 12.41201979 11.58798021 10 14 C6.26703674 14.38286803 5.22373677 14.14915785 2 12 C1.34 12.66 0.68 13.32 0 14 C-1.32 14 -2.64 14 -4 14 C-4 15.65 -4 17.3 -4 19 C-7.11857396 15.17265923 -8.77162201 11.8650869 -9.375 6.9375 C-9 4 -9 4 -7.3125 1.625 C-4.61209763 -0.27258004 -3.22939919 -0.35882213 0 0 Z M6 6 C6.33 7.65 6.66 9.3 7 11 C7.99 10.67 8.98 10.34 10 10 C9.67 8.68 9.34 7.36 9 6 C8.01 6 7.02 6 6 6 Z " fill="#202124" transform="translate(287,117)"/>
<path d="M0 0 C4.31241009 0.49498968 6.14487863 1.70795971 9.0625 4.875 C11.5639087 7.55968023 14.00156538 9.87638706 17 12 C16.45773019 15.79588866 14.79872437 17.47211993 12 20 C11.67 19.01 11.34 18.02 11 17 C8.98491642 16.26676204 8.98491642 16.26676204 7 16 C8.32 15.34 9.64 14.68 11 14 C10.67 13.34 10.34 12.68 10 12 C7.97536745 11.34786708 7.97536745 11.34786708 6 11 C6.020625 12.216875 6.04125 13.43375 6.0625 14.6875 C6.06824116 17.91977322 5.78766315 20.84934741 5 24 C4.34 23.67 3.68 23.34 3 23 C3 17.39 3 11.78 3 6 C1.68 5.34 0.36 4.68 -1 4 C-0.67 2.68 -0.34 1.36 0 0 Z " fill="#0D7C40" transform="translate(126,78)"/>
<path d="M0 0 C0.95310059 0.01047363 1.90620117 0.02094727 2.88818359 0.03173828 C4.43505859 0.04140625 4.43505859 0.04140625 6.01318359 0.05126953 C7.63353516 0.07640625 7.63353516 0.07640625 9.28662109 0.10205078 C10.37458984 0.11107422 11.46255859 0.12009766 12.58349609 0.12939453 C15.27642261 0.15301669 17.96891365 0.18595522 20.66162109 0.22705078 C21.04380876 1.88319735 21.37557211 3.55162102 21.66162109 5.22705078 C20.66162109 6.22705078 20.66162109 6.22705078 18.43676758 6.34057617 C17.47843018 6.33533936 16.52009277 6.33010254 15.53271484 6.32470703 C13.98100586 6.31987305 13.98100586 6.31987305 12.39794922 6.31494141 C11.30933594 6.3065625 10.22072266 6.29818359 9.09912109 6.28955078 C7.46040039 6.2827832 7.46040039 6.2827832 5.78857422 6.27587891 C3.07953614 6.26404905 0.3706051 6.24756621 -2.33837891 6.22705078 C-2.99837891 4.90705078 -3.65837891 3.58705078 -4.33837891 2.22705078 C-2.33837891 0.22705078 -2.33837891 0.22705078 0 0 Z " fill="#1F1E1E" transform="translate(223.33837890625,228.77294921875)"/>
<path d="M0 0 C7.92 0 15.84 0 24 0 C24.33 1.65 24.66 3.3 25 5 C24 6 24 6 21.68334961 6.11352539 C20.68311768 6.10828857 19.68288574 6.10305176 18.65234375 6.09765625 C17.57275391 6.09443359 16.49316406 6.09121094 15.38085938 6.08789062 C14.24455078 6.07951172 13.10824219 6.07113281 11.9375 6.0625 C10.79732422 6.05798828 9.65714844 6.05347656 8.48242188 6.04882812 C5.65489649 6.03699747 2.8274736 6.0205141 0 6 C0 4.02 0 2.04 0 0 Z " fill="#121212" transform="translate(316,195)"/>
<path d="M0 0 C0.95310059 0.01047363 1.90620117 0.02094727 2.88818359 0.03173828 C4.43505859 0.04140625 4.43505859 0.04140625 6.01318359 0.05126953 C7.63353516 0.07640625 7.63353516 0.07640625 9.28662109 0.10205078 C10.37458984 0.11107422 11.46255859 0.12009766 12.58349609 0.12939453 C15.27642261 0.15301669 17.96891365 0.18595522 20.66162109 0.22705078 C21.04380876 1.88319735 21.37557211 3.55162102 21.66162109 5.22705078 C20.66162109 6.22705078 20.66162109 6.22705078 18.43676758 6.34057617 C17.47843018 6.33533936 16.52009277 6.33010254 15.53271484 6.32470703 C13.98100586 6.31987305 13.98100586 6.31987305 12.39794922 6.31494141 C11.30933594 6.3065625 10.22072266 6.29818359 9.09912109 6.28955078 C7.46040039 6.2827832 7.46040039 6.2827832 5.78857422 6.27587891 C3.07953614 6.26404905 0.3706051 6.24756621 -2.33837891 6.22705078 C-2.99837891 4.90705078 -3.65837891 3.58705078 -4.33837891 2.22705078 C-2.33837891 0.22705078 -2.33837891 0.22705078 0 0 Z " fill="#121212" transform="translate(223.33837890625,194.77294921875)"/>
<path d="M0 0 C1.95766281 -0.08082094 3.91626728 -0.13910778 5.875 -0.1875 C7.51082031 -0.23970703 7.51082031 -0.23970703 9.1796875 -0.29296875 C10.11039062 -0.19628906 11.04109375 -0.09960938 12 0 C12.66 0.99 13.32 1.98 14 3 C14.66 2.01 15.32 1.02 16 0 C16.99 0.33 17.98 0.66 19 1 C18.43454163 4.95820859 17.19097652 7.6659053 15 11 C13.0625 10.625 13.0625 10.625 11 10 C10.67 9.34 10.34 8.68 10 8 C9.01 9.485 9.01 9.485 8 11 C7.01 10.67 6.02 10.34 5 10 C4.67 8.02 4.34 6.04 4 4 C3.34 6.31 2.68 8.62 2 11 C1.34 11 0.68 11 0 11 C0 7.37 0 3.74 0 0 Z " fill="#2F2E32" transform="translate(255,120)"/>
<path d="M0 0 C7.92 0 15.84 0 24 0 C25 4 25 4 24 6 C20.37515001 6.08681476 16.75056557 6.14032721 13.125 6.1875 C11.57619141 6.22520508 11.57619141 6.22520508 9.99609375 6.26367188 C9.00996094 6.27333984 8.02382813 6.28300781 7.0078125 6.29296875 C5.64100342 6.31653442 5.64100342 6.31653442 4.24658203 6.34057617 C3.50520996 6.22818604 2.76383789 6.1157959 2 6 C0 3 0 3 0 0 Z " fill="#212121" transform="translate(316,229)"/>
<path d="M0 0 C1.65 0 3.3 0 5 0 C6.04449911 3.13349732 5.93423645 3.98968256 5 7 C4.01 7 3.02 7 2 7 C2 9.64 2 12.28 2 15 C1.01 14.67 0.02 14.34 -1 14 C-1 11.69 -1 9.38 -1 7 C-1.66 7 -2.32 7 -3 7 C-3 9.64 -3 12.28 -3 15 C-3.99 14.67 -4.98 14.34 -6 14 C-6.33 12.02 -6.66 10.04 -7 8 C-7.66 10.31 -8.32 12.62 -9 15 C-9.66 15 -10.32 15 -11 15 C-11 11.37 -11 7.74 -11 4 C-8.03 4 -5.06 4 -2 4 C-1.34 2.68 -0.68 1.36 0 0 Z " fill="#333336" transform="translate(312,116)"/>
<path d="M0 0 C19.47 0 38.94 0 59 0 C59 0.33 59 0.66 59 1 C47.97636372 1.91050683 37.05694276 2.1139891 26 2 C26 2.66 26 3.32 26 4 C26.66 4 27.32 4 28 4 C28 4.66 28 5.32 28 6 C28.66 6 29.32 6 30 6 C30 6.99 30 7.98 30 9 C28.906875 8.773125 27.81375 8.54625 26.6875 8.3125 C23.09468727 7.59853617 23.09468727 7.59853617 21.0625 9.4375 C20.5365625 10.2109375 20.5365625 10.2109375 20 11 C19.34 10.67 18.68 10.34 18 10 C18 9.01 18 8.02 18 7 C18.66 7 19.32 7 20 7 C20.33 5.35 20.66 3.7 21 2 C14.07 1.67 7.14 1.34 0 1 C0 0.67 0 0.34 0 0 Z " fill="#218048" transform="translate(103,69)"/>
<path d="M0 0 C2.47960136 0.14024219 4.95852402 0.2869185 7.4375 0.4375 C8.14455078 0.47681641 8.85160156 0.51613281 9.58007812 0.55664062 C14.88671875 0.88671875 14.88671875 0.88671875 16 2 C16.04092937 4.33297433 16.04241723 6.66705225 16 9 C16.66 9 17.32 9 18 9 C17.67 9.99 17.34 10.98 17 12 C10.84765625 12.09765625 10.84765625 12.09765625 9 12 C8 11 8 11 7.9375 7.9375 C7.9684375 6.4834375 7.9684375 6.4834375 8 5 C7.01 4.67 6.02 4.34 5 4 C4.67 6.31 4.34 8.62 4 11 C3.01 11 2.02 11 1 11 C1 8.69 1 6.38 1 4 C0.34 3.67 -0.32 3.34 -1 3 C-0.67 2.01 -0.34 1.02 0 0 Z " fill="#28292A" transform="translate(107,119)"/>
<path d="M0 0 C0.66 1.32 1.32 2.64 2 4 C-1 5 -1 5 -4 4 C-4.99 4.495 -4.99 4.495 -6 5 C-6 6.32 -6 7.64 -6 9 C-2.71023192 10.09658936 -1.28696233 9.79953138 2 9 C2.33 8.01 2.66 7.02 3 6 C3.99 6 4.98 6 6 6 C6 7.98 6 9.96 6 12 C7.65 11.67 9.3 11.34 11 11 C11 11.66 11 12.32 11 13 C5.49128368 14.12678288 5.49128368 14.12678288 3.0625 13.5 C0.77231832 12.79821428 0.77231832 12.79821428 -2.5 13.625 C-6 14 -6 14 -8.4375 13 C-10 11 -10 11 -10.4375 7.5625 C-9.5458163 0.30164701 -7.06215339 -0.53299271 0 0 Z " fill="#36423D" transform="translate(138,117)"/>
<path d="M0 0 C7.92 0 15.84 0 24 0 C24.33 1.32 24.66 2.64 25 4 C24 5 24 5 21.68334961 5.11352539 C20.68311768 5.10828857 19.68288574 5.10305176 18.65234375 5.09765625 C17.57275391 5.09443359 16.49316406 5.09121094 15.38085938 5.08789062 C14.24455078 5.07951172 13.10824219 5.07113281 11.9375 5.0625 C10.79732422 5.05798828 9.65714844 5.05347656 8.48242188 5.04882812 C5.65489649 5.03699747 2.8274736 5.0205141 0 5 C0 3.35 0 1.7 0 0 Z " fill="#101010" transform="translate(316,264)"/>
<path d="M0 0 C0.95310059 0.01047363 1.90620117 0.02094727 2.88818359 0.03173828 C4.43505859 0.04140625 4.43505859 0.04140625 6.01318359 0.05126953 C7.63353516 0.07640625 7.63353516 0.07640625 9.28662109 0.10205078 C10.37458984 0.11107422 11.46255859 0.12009766 12.58349609 0.12939453 C15.27642261 0.15301669 17.96891365 0.18595522 20.66162109 0.22705078 C21.22412109 2.16455078 21.22412109 2.16455078 21.66162109 4.22705078 C20.66162109 5.22705078 20.66162109 5.22705078 18.3449707 5.34057617 C17.34473877 5.33533936 16.34450684 5.33010254 15.31396484 5.32470703 C14.234375 5.32148438 13.15478516 5.31826172 12.04248047 5.31494141 C10.90617188 5.3065625 9.76986328 5.29818359 8.59912109 5.28955078 C7.45894531 5.28503906 6.31876953 5.28052734 5.14404297 5.27587891 C2.31651758 5.26404826 -0.51090531 5.24756488 -3.33837891 5.22705078 C-3.66837891 4.23705078 -3.99837891 3.24705078 -4.33837891 2.22705078 C-2.33837891 0.22705078 -2.33837891 0.22705078 0 0 Z " fill="#0F0E0E" transform="translate(223.33837890625,263.77294921875)"/>
<path d="M0 0 C1.58493084 3.16986168 1.2940042 6.54032261 1 10 C0 12.5 0 12.5 -1 14 C-5.26205106 13.52643877 -7.28693793 11.15301808 -10 8 C-10.8125 5.6875 -10.8125 5.6875 -11 4 C-10.34 4 -9.68 4 -9 4 C-9 3.34 -9 2.68 -9 2 C-2.25 0 -2.25 0 0 0 Z " fill="#0849A5" transform="translate(277,87)"/>
<path d="M0 0 C9.24 0 18.48 0 28 0 C28 1.65 28 3.3 28 5 C17.11 5 6.22 5 -5 5 C-5 4.67 -5 4.34 -5 4 C-2.36 3.34 0.28 2.68 3 2 C2.01 1.34 1.02 0.68 0 0 Z " fill="#077836" transform="translate(123,60)"/>
<path d="M0 0 C3 2 3 2 3.546875 4.0234375 C3.61390625 4.79945312 3.6809375 5.57546875 3.75 6.375 C3.82734375 7.14585938 3.9046875 7.91671875 3.984375 8.7109375 C3.99997875 10.9968866 3.65703398 12.81984178 3 15 C2.01 15 1.02 15 0 15 C0 14.01 0 13.02 0 12 C-0.763125 12.061875 -1.52625 12.12375 -2.3125 12.1875 C-5 12 -5 12 -6.875 10.8125 C-8 9 -8 9 -7.75 6.375 C-7 4 -7 4 -6 3 C-4.33382885 2.95936168 -2.66611905 2.957279 -1 3 C-0.67 2.01 -0.34 1.02 0 0 Z " fill="#FB914E" transform="translate(422,85)"/>
<path d="M0 0 C2.875 0.25 2.875 0.25 6 1 C7.1875 3 7.1875 3 8 5 C8.99 5.33 9.98 5.66 11 6 C11 6.66 11 7.32 11 8 C13.9254644 8.2236068 13.9254644 8.2236068 16 7 C16.99 7.66 17.98 8.32 19 9 C19.1875 12.125 19.1875 12.125 19 15 C18.34 14.01 17.68 13.02 17 12 C14.43717258 11.27034634 14.43717258 11.27034634 12 11 C11.67 11.66 11.34 12.32 11 13 C9.02 12.01 7.04 11.02 5 10 C5 8.68 5 7.36 5 6 C3.02 5.34 1.04 4.68 -1 4 C-0.67 2.68 -0.34 1.36 0 0 Z " fill="#F49A5A" transform="translate(426,78)"/>
<path d="M0 0 C3.5625 0.125 3.5625 0.125 5.5625 1.125 C6.375 4.5 6.375 4.5 6.5625 8.125 C5.375 10.0625 5.375 10.0625 3.5625 11.125 C2.2425 11.125 0.9225 11.125 -0.4375 11.125 C-0.7675 12.445 -1.0975 13.765 -1.4375 15.125 C-2.4275 14.795 -3.4175 14.465 -4.4375 14.125 C-4.46435938 11.97923363 -4.48383088 9.83337355 -4.5 7.6875 C-4.51160156 6.49253906 -4.52320313 5.29757813 -4.53515625 4.06640625 C-4.39489202 -0.1583525 -4.31066037 0.15675129 0 0 Z M-0.4375 3.125 C-0.7675 4.445 -1.0975 5.765 -1.4375 7.125 C-0.4475 7.455 0.5425 7.785 1.5625 8.125 C1.8925 6.475 2.2225 4.825 2.5625 3.125 C1.5725 3.125 0.5825 3.125 -0.4375 3.125 Z " fill="#0E0B0D" transform="translate(415.4375,119.875)"/>
<path d="M0 0 C2.97 0 5.94 0 9 0 C8.67 1.32 8.34 2.64 8 4 C8 4.66 8 5.32 8 6 C7.68521554 7.33783393 7.35412344 8.67203709 7 10 C7.66 10.33 8.32 10.66 9 11 C8.67 11.99 8.34 12.98 8 14 C5.66705225 14.04241723 3.33297433 14.04092937 1 14 C0 13 0 13 -0.09765625 10.05859375 C-0.08605469 8.86363281 -0.07445312 7.66867188 -0.0625 6.4375 C-0.05347656 5.23996094 -0.04445312 4.04242188 -0.03515625 2.80859375 C-0.02355469 1.88175781 -0.01195312 0.95492187 0 0 Z " fill="#3E3D41" transform="translate(245,117)"/>
<path d="M0 0 C1.890625 0.265625 1.890625 0.265625 4 1 C6.43315632 4.88578696 7.42634867 9.45228087 7 14 C6.4225 13.690625 5.845 13.38125 5.25 13.0625 C3.15705816 12.07416636 1.25464725 11.4831387 -1 11 C-1.33 11.99 -1.66 12.98 -2 14 C-2.99 13.67 -3.98 13.34 -5 13 C-4.54803755 11.39402675 -4.08817673 9.79027492 -3.625 8.1875 C-3.36976563 7.29417969 -3.11453125 6.40085937 -2.8515625 5.48046875 C-2 3 -2 3 0 0 Z M1 6 C2 8 2 8 2 8 Z " fill="#28272A" transform="translate(393,117)"/>
<path d="M0 0 C2.31 0 4.62 0 7 0 C9 2 9 2 9.25 5.5 C9 9 9 9 7 11 C5.68 11 4.36 11 3 11 C2.67 12.32 2.34 13.64 2 15 C1.34 15 0.68 15 0 15 C0 10.05 0 5.1 0 0 Z M4 3 C3.67 3.99 3.34 4.98 3 6 C3.66 6.66 4.32 7.32 5 8 C5.33 6.68 5.66 5.36 6 4 C5.34 3.67 4.68 3.34 4 3 Z " fill="#343131" transform="translate(401,120)"/>
<path d="M0 0 C2.23828125 -0.27734375 2.23828125 -0.27734375 5 0 C7.16796875 1.93359375 7.16796875 1.93359375 9.1875 4.4375 C11.70187282 7.70544403 11.70187282 7.70544403 15 10 C15 11.65 15 13.3 15 15 C14.01 15 13.02 15 12 15 C11.34 14.01 10.68 13.02 10 12 C7.44816596 10.79549696 7.44816596 10.79549696 5 10 C5 8.68 5 7.36 5 6 C3.02 5.34 1.04 4.68 -1 4 C-0.67 2.68 -0.34 1.36 0 0 Z " fill="#2B5CA6" transform="translate(278,78)"/>
<path d="M0 0 C1.1482685 2.296537 1.11561175 3.58313167 1.09765625 6.1328125 C1.09282227 7.34130859 1.09282227 7.34130859 1.08789062 8.57421875 C1.07951172 9.41597656 1.07113281 10.25773437 1.0625 11.125 C1.05798828 11.97449219 1.05347656 12.82398437 1.04882812 13.69921875 C1.03702874 15.79950909 1.01909306 17.8997633 1 20 C1.66 20 2.32 20 3 20 C3 19.01 3 18.02 3 17 C2.34 16.67 1.68 16.34 1 16 C1.99 16 2.98 16 4 16 C4.33 15.34 4.66 14.68 5 14 C4.48400816 21.8822202 2.9078547 29.34458305 1 37 C0.34 37 -0.32 37 -1 37 C-1.0246501 31.89136104 -1.04283607 26.78275641 -1.05493164 21.67407227 C-1.05997204 19.93480832 -1.0668043 18.19554864 -1.07543945 16.45629883 C-1.08751792 13.96174063 -1.09323108 11.46723827 -1.09765625 8.97265625 C-1.10281754 8.19036148 -1.10797882 7.40806671 -1.11329651 6.60206604 C-1.11349226 4.73432886 -1.06199694 2.86670796 -1 1 C-0.67 0.67 -0.34 0.34 0 0 Z " fill="#4B74B0" transform="translate(245,56)"/>
<path d="M0 0 C0.625 1.875 0.625 1.875 1 4 C-1.1385485 6.1385485 -2.13275314 6.42655063 -5 7 C-5.33 8.32 -5.66 9.64 -6 11 C-7.98 11 -9.96 11 -12 11 C-11.71574109 7.30463414 -11.4523486 4.6785229 -9.375 1.5625 C-6.16093309 -0.5520177 -3.76478675 -0.28959898 0 0 Z " fill="#1C1A1B" transform="translate(273,217)"/>
<path d="M0 0 C0 0.99 0 1.98 0 3 C-5.94 3 -11.88 3 -18 3 C-18 2.67 -18 2.34 -18 2 C-20.31 1.67 -22.62 1.34 -25 1 C-25 0.34 -25 -0.32 -25 -1 C-21.20913543 -1.22519106 -17.41738942 -1.42729249 -13.625 -1.625 C-12.54476563 -1.68945312 -11.46453125 -1.75390625 -10.3515625 -1.8203125 C-9.3203125 -1.871875 -8.2890625 -1.9234375 -7.2265625 -1.9765625 C-6.27346191 -2.02893066 -5.32036133 -2.08129883 -4.33837891 -2.13525391 C-2 -2 -2 -2 0 0 Z " fill="#0A459B" transform="translate(304,62)"/>
<path d="M0 0 C2.5 -0.3125 2.5 -0.3125 5 0 C7 2 7 2 7.25 5.5 C7 9 7 9 5 11 C1.875 10.625 1.875 10.625 -1 10 C-2.25 3.375 -2.25 3.375 0 0 Z " fill="#0C0C0C" transform="translate(163,120)"/>
<path d="M0 0 C2.4375 0.5 2.4375 0.5 4 1 C3.67 3.31 3.34 5.62 3 8 C3.66 8.33 4.32 8.66 5 9 C4.67 9.66 4.34 10.32 4 11 C3.34 11 2.68 11 2 11 C2 10.01 2 9.02 2 8 C0.35 8.33 -1.3 8.66 -3 9 C-2.67 7.68 -2.34 6.36 -2 5 C-3.134375 4.87625 -4.26875 4.7525 -5.4375 4.625 C-6.613125 4.41875 -7.78875 4.2125 -9 4 C-9.33 3.34 -9.66 2.68 -10 2 C-6.30594568 -0.46270288 -4.36722928 -0.22985417 0 0 Z " fill="#FB904B" transform="translate(436,70)"/>
<path d="M0 0 C3.125 0.375 3.125 0.375 6 1 C7.125 6.625 7.125 6.625 6 10 C3.6875 10.625 3.6875 10.625 1 11 C0.01 10.34 -0.98 9.68 -2 9 C-2.3125 5.5 -2.3125 5.5 -2 2 C-1.34 1.34 -0.68 0.68 0 0 Z " fill="#211F21" transform="translate(461,120)"/>
<path d="M0 0 C0.66 0.33 1.32 0.66 2 1 C2 2.32 2 3.64 2 5 C-0.64 4.67 -3.28 4.34 -6 4 C-6 5.98 -6 7.96 -6 10 C-4.02 10 -2.04 10 0 10 C0 10.66 0 11.32 0 12 C-3.375 12.625 -3.375 12.625 -7 13 C-9 11 -9 11 -9.3125 7.0625 C-9.2339218 4.51564191 -9.13665953 3.24295027 -7.875 1 C-5.1715264 -0.44185259 -3.01217617 -0.25635542 0 0 Z " fill="#161414" transform="translate(435,117)"/>
<path d="M0 0 C0.99 0.33 1.98 0.66 3 1 C3.495 3.475 3.495 3.475 4 6 C3.36772995 6.01030746 2.7354599 6.02061493 2.08403015 6.03123474 C-4.48567124 6.13926004 -11.05523438 6.25386139 -17.62475586 6.37231445 C-20.07785149 6.41567602 -22.53097753 6.45735019 -24.98413086 6.49731445 C-28.50644101 6.55498721 -32.02859784 6.61869052 -35.55078125 6.68359375 C-37.20089958 6.70866249 -37.20089958 6.70866249 -38.88435364 6.73423767 C-39.90518539 6.75418289 -40.92601715 6.77412811 -41.9777832 6.79467773 C-42.87713089 6.81022202 -43.77647858 6.8257663 -44.70307922 6.84178162 C-47.16176469 6.91487339 -47.16176469 6.91487339 -50 8 C-50.33 7.01 -50.66 6.02 -51 5 C-33.84 5 -16.68 5 1 5 C0.505 2.525 0.505 2.525 0 0 Z " fill="#3663A8" transform="translate(303,60)"/>
<path d="M0 0 C0.625 1.875 0.625 1.875 1 4 C-1 6 -1 6 -3.4803772 6.24050903 C-4.52406464 6.23606781 -5.56775208 6.23162659 -6.64306641 6.22705078 C-7.82413971 6.22689972 -9.00521301 6.22674866 -10.22207642 6.22659302 C-11.50230682 6.21627045 -12.78253723 6.20594788 -14.1015625 6.1953125 C-16.06166763 6.19106766 -16.06166763 6.19106766 -18.06137085 6.18673706 C-21.53682081 6.17909776 -25.01210383 6.1594469 -28.48748779 6.1373291 C-32.03330222 6.11687696 -35.5791436 6.10773671 -39.125 6.09765625 C-46.08340195 6.07620116 -53.04169296 6.04206173 -60 6 C-60 5.67 -60 5.34 -60 5 C-40.86 5 -21.72 5 -2 5 C-1.34 3.35 -0.68 1.7 0 0 Z " fill="#94AED1" transform="translate(306,109)"/>
<path d="M0 0 C0.99 0.33 1.98 0.66 3 1 C3 1.99 3 2.98 3 4 C4.3929126 3.97643433 4.3929126 3.97643433 5.81396484 3.95239258 C9.25428829 3.90131147 12.69420976 3.86367393 16.13476562 3.83520508 C17.62473909 3.820104 19.11466801 3.79962142 20.60449219 3.77368164 C22.7442523 3.73735416 24.88342566 3.72028779 27.0234375 3.70703125 C28.31169434 3.6913208 29.59995117 3.67561035 30.92724609 3.65942383 C31.94125488 3.77181396 32.95526367 3.8842041 34 4 C36 7 36 7 36 10 C31.38 10 26.76 10 22 10 C22 9.67 22 9.34 22 9 C25.63 9 29.26 9 33 9 C33 7.68 33 6.36 33 5 C22.44 5 11.88 5 1 5 C0.67 3.35 0.34 1.7 0 0 Z " fill="#E79F73" transform="translate(419,56)"/>
<path d="M0 0 C4.62 0 9.24 0 14 0 C14.66 1.32 15.32 2.64 16 4 C25.24 4 34.48 4 44 4 C44 4.33 44 4.66 44 5 C34.1 5.33 24.2 5.66 14 6 C13.67 4.68 13.34 3.36 13 2 C11.783125 2.020625 10.56625 2.04125 9.3125 2.0625 C6.08022678 2.06824116 3.15065259 1.78766315 0 1 C0 0.67 0 0.34 0 0 Z " fill="#7298C9" transform="translate(258,56)"/>
<path d="M0 0 C0.99 0 1.98 0 3 0 C3 4.95 3 9.9 3 15 C0.69 15 -1.62 15 -4 15 C-4.66 14.34 -5.32 13.68 -6 13 C-4.35 12.34 -2.7 11.68 -1 11 C-1.33 8.69 -1.66 6.38 -2 4 C-1.34 4 -0.68 4 0 4 C0 2.68 0 1.36 0 0 Z " fill="#1D1D1E" transform="translate(157,116)"/>
<path d="M0 0 C0.66 0 1.32 0 2 0 C2.495 2.97 2.495 2.97 3 6 C-13.5 6 -30 6 -47 6 C-47 5.67 -47 5.34 -47 5 C-31.49 5 -15.98 5 0 5 C0 3.35 0 1.7 0 0 Z " fill="#3A935B" transform="translate(151,60)"/>
<path d="M0 0 C2.3125 -0.25 2.3125 -0.25 5 0 C6.875 1.6875 6.875 1.6875 8 4 C7.75925978 7.37036311 7.41201979 8.58798021 5 11 C2.5 11.3125 2.5 11.3125 0 11 C-0.66 10.01 -1.32 9.02 -2 8 C-1.34 8 -0.68 8 0 8 C-0.20625 7.38125 -0.4125 6.7625 -0.625 6.125 C-0.74875 5.42375 -0.8725 4.7225 -1 4 C-0.34 3.34 0.32 2.68 1 2 C0.67 1.34 0.34 0.68 0 0 Z M1 3 C1.33 4.65 1.66 6.3 2 8 C2.99 7.67 3.98 7.34 5 7 C4.67 5.68 4.34 4.36 4 3 C3.01 3 2.02 3 1 3 Z " fill="#4B4B4D" transform="translate(292,120)"/>
<path d="M0 0 C0.33 0.66 0.66 1.32 1 2 C2.65 1.67 4.3 1.34 6 1 C5.4739075 4.78786597 4.61896089 7.17152224 2 10 C1.34 10 0.68 10 0 10 C-0.66 11.32 -1.32 12.64 -2 14 C-2.66 13.67 -3.32 13.34 -4 13 C-4 11.68 -4 10.36 -4 9 C-3.01 9 -2.02 9 -1 9 C-1.020625 7.88625 -1.04125 6.7725 -1.0625 5.625 C-1 2 -1 2 0 0 Z " fill="#0C7738" transform="translate(132,93)"/>
<path d="M0 0 C1.32 0 2.64 0 4 0 C4 1.98 4 3.96 4 6 C5.65 5.67 7.3 5.34 9 5 C9 5.66 9 6.32 9 7 C3.49128368 8.12678288 3.49128368 8.12678288 1.0625 7.5 C-2.06396632 6.74206877 -4.86825549 7.4579673 -8 8 C-7 5 -7 5 -5.125 3.8125 C-3 3 -3 3 0 3 C0 2.01 0 1.02 0 0 Z " fill="#494948" transform="translate(140,123)"/>
<path d="M0 0 C2.33294775 -0.04241723 4.66702567 -0.04092937 7 0 C8 1 8 1 8.09765625 2.84765625 C8.04882812 5.92382812 8.04882812 5.92382812 8 9 C7.34 9 6.68 9 6 9 C5.67 7.02 5.34 5.04 5 3 C4.34 3 3.68 3 3 3 C2.67 5.64 2.34 8.28 2 11 C1.34 11 0.68 11 0 11 C0 7.37 0 3.74 0 0 Z " fill="#3F4143" transform="translate(92,120)"/>
<path d="M0 0 C1.51400391 0.01740234 1.51400391 0.01740234 3.05859375 0.03515625 C4.07050781 0.04417969 5.08242187 0.05320313 6.125 0.0625 C7.29869141 0.07990234 7.29869141 0.07990234 8.49609375 0.09765625 C6.49609375 2.09765625 6.49609375 2.09765625 4.33203125 2.29296875 C3.11386719 2.25816406 3.11386719 2.25816406 1.87109375 2.22265625 C1.05382812 2.20460937 0.2365625 2.1865625 -0.60546875 2.16796875 C-1.23195313 2.14476562 -1.8584375 2.1215625 -2.50390625 2.09765625 C-2.42011719 2.9896875 -2.33632812 3.88171875 -2.25 4.80078125 C-2.14816406 5.97125 -2.04632813 7.14171875 -1.94140625 8.34765625 C-1.83699219 9.5078125 -1.73257813 10.66796875 -1.625 11.86328125 C-1.52073611 14.64813624 -1.6513154 16.49251753 -2.50390625 19.09765625 C-2.68953125 19.84015625 -2.87515625 20.58265625 -3.06640625 21.34765625 C-3.21078125 21.92515625 -3.35515625 22.50265625 -3.50390625 23.09765625 C-2.84390625 23.09765625 -2.18390625 23.09765625 -1.50390625 23.09765625 C-1.87890625 25.03515625 -1.87890625 25.03515625 -2.50390625 27.09765625 C-3.16390625 27.42765625 -3.82390625 27.75765625 -4.50390625 28.09765625 C-4.63870067 19.08140753 -4.55352866 10.06480076 -3.50390625 1.09765625 C-2.50390625 0.09765625 -2.50390625 0.09765625 0 0 Z " fill="#0E7639" transform="translate(96.50390625,56.90234375)"/>
<path d="M0 0 C0.66 0 1.32 0 2 0 C0.85210257 7.09883934 -1.11450374 13.41658619 -4 20 C-4.33 20 -4.66 20 -5 20 C-5 15.71 -5 11.42 -5 7 C-3.68 7 -2.36 7 -1 7 C-0.67 4.69 -0.34 2.38 0 0 Z " fill="#F29965" transform="translate(398,69)"/>
<path d="M0 0 C2.64 0.33 5.28 0.66 8 1 C8.33 1.99 8.66 2.98 9 4 C7.68 4 6.36 4 5 4 C4.67 6.31 4.34 8.62 4 11 C3.01 11 2.02 11 1 11 C1 8.69 1 6.38 1 4 C0.34 3.67 -0.32 3.34 -1 3 C-0.67 2.01 -0.34 1.02 0 0 Z " fill="#222324" transform="translate(107,119)"/>
<path d="M0 0 C0.66 0.33 1.32 0.66 2 1 C2 1.66 2 2.32 2 3 C4.9254644 3.2236068 4.9254644 3.2236068 7 2 C7.99 2.66 8.98 3.32 10 4 C10.1875 7.125 10.1875 7.125 10 10 C9.34 9.01 8.68 8.02 8 7 C5.43717258 6.27034634 5.43717258 6.27034634 3 6 C2.67 6.66 2.34 7.32 2 8 C-0.475 7.01 -0.475 7.01 -3 6 C-3 5.34 -3 4.68 -3 4 C-2.34 3.67 -1.68 3.34 -1 3 C-0.67 2.01 -0.34 1.02 0 0 Z " fill="#F2AB74" transform="translate(435,83)"/>
<path d="M0 0 C2.31 1.65 4.62 3.3 7 5 C5.95206337 9.19174654 5.08236365 10.21592961 2 13 C1.67 12.01 1.34 11.02 1 10 C-1.01508358 9.26676204 -1.01508358 9.26676204 -3 9 C-1.68 8.34 -0.36 7.68 1 7 C0.67 4.69 0.34 2.38 0 0 Z " fill="#258650" transform="translate(136,85)"/>
<path d="M0 0 C3.00559652 5.00932754 3.29341888 8.32723489 3 14 C2.34 14 1.68 14 1 14 C0.86722656 13.36191406 0.73445313 12.72382812 0.59765625 12.06640625 C0.33275391 10.82697266 0.33275391 10.82697266 0.0625 9.5625 C-0.11152344 8.73878906 -0.28554688 7.91507812 -0.46484375 7.06640625 C-0.80752994 5.02338796 -0.80752994 5.02338796 -2 4 C-2.99 5.485 -2.99 5.485 -4 7 C-4.99 6.67 -5.98 6.34 -7 6 C-5.52522876 2.59668175 -4.14385429 0 0 0 Z " fill="#F29966" transform="translate(425,82)"/>
<path d="M0 0 C3.68802044 1.22934015 4.72356973 2.93859378 7 6 C11.21912747 5.5205537 13.79663178 4.83374881 17 2 C17 3.65 17 5.3 17 7 C12.52796459 8.11800885 8.57850782 8.4430814 4 8 C1.81369367 5.39053761 1.07207819 3.21623458 0 0 Z M13 8 C13.66 8.33 14.32 8.66 15 9 C14.67 9.99 14.34 10.98 14 12 C13.34 12 12.68 12 12 12 C12.33 10.68 12.66 9.36 13 8 Z " fill="#F2955A" transform="translate(419,101)"/>
<path d="M0 0 C4 2 4 2 4.75 4.125 C4.8325 4.74375 4.915 5.3625 5 6 C4.34 6 3.68 6 3 6 C3.020625 7.216875 3.04125 8.43375 3.0625 9.6875 C3.06824116 12.91977322 2.78766315 15.84934741 2 19 C1.34 18.67 0.68 18.34 0 18 C0 12.06 0 6.12 0 0 Z " fill="#278D50" transform="translate(129,83)"/>
<path d="M0 0 C1.28488954 2.14850383 2.03605301 3.48169093 1.85986328 6.01464844 C1.68181152 6.7059082 1.50375977 7.39716797 1.3203125 8.109375 C1.13339844 8.86347656 0.94648438 9.61757812 0.75390625 10.39453125 C0.54636719 11.17183594 0.33882813 11.94914062 0.125 12.75 C-0.07480469 13.54277344 -0.27460938 14.33554688 -0.48046875 15.15234375 C-0.97445701 17.10477355 -1.48557931 19.05285391 -2 21 C-3.32 21.33 -4.64 21.66 -6 22 C-6 21.01 -6 20.02 -6 19 C-5.34 19 -4.68 19 -4 19 C-3.86722656 18.21753906 -3.73445313 17.43507813 -3.59765625 16.62890625 C-3.42105469 15.61699219 -3.24445313 14.60507813 -3.0625 13.5625 C-2.88847656 12.55316406 -2.71445312 11.54382813 -2.53515625 10.50390625 C-2 8 -2 8 -1 7 C-0.63239269 4.67182036 -0.29758419 2.3381615 0 0 Z " fill="#F1A576" transform="translate(457,92)"/>
<path d="M0 0 C1.20076172 0.06960937 1.20076172 0.06960937 2.42578125 0.140625 C3.23402344 0.17671875 4.04226563 0.2128125 4.875 0.25 C5.79732422 0.31960937 5.79732422 0.31960937 6.73828125 0.390625 C7.39828125 1.710625 8.05828125 3.030625 8.73828125 4.390625 C4.11828125 4.390625 -0.50171875 4.390625 -5.26171875 4.390625 C-2.26171875 0.390625 -2.26171875 0.390625 0 0 Z " fill="#0147AA" transform="translate(275.26171875,108.609375)"/>
<path d="M0 0 C1.32 0.66 2.64 1.32 4 2 C3.67 2.99 3.34 3.98 3 5 C3.66 5.33 4.32 5.66 5 6 C4.67 6.99 4.34 7.98 4 9 C4 9.99 4 10.98 4 12 C2 11 2 11 1.125 9.1875 C-0.19965085 6.61179002 -1.89415861 4.96545196 -4 3 C-2.68 2.01 -1.36 1.02 0 0 Z " fill="#1E9550" transform="translate(123,96)"/>
<path d="M0 0 C1.65 0.33 3.3 0.66 5 1 C4.69381595 4.67420866 4.24228216 5.78135513 1.4375 8.3125 C0.633125 8.869375 -0.17125 9.42625 -1 10 C-1 8.68 -1 7.36 -1 6 C-2.32 6.33 -3.64 6.66 -5 7 C-5 6.34 -5 5.68 -5 5 C-3.68 4.67 -2.36 4.34 -1 4 C-0.67 2.68 -0.34 1.36 0 0 Z " fill="#F19E6B" transform="translate(438,89)"/>
<path d="M0 0 C3.96 0 7.92 0 12 0 C12 0.33 12 0.66 12 1 C8.37 1 4.74 1 1 1 C1.020625 2.711875 1.04125 4.42375 1.0625 6.1875 C1.10789471 9.9552607 0.85298376 13.32612505 0 17 C0.66 17 1.32 17 2 17 C2 17.99 2 18.98 2 20 C1.34 20 0.68 20 0 20 C-0.33 21.32 -0.66 22.64 -1 24 C-1.02893932 20.37501666 -1.04677792 16.75006287 -1.0625 13.125 C-1.07087891 12.09246094 -1.07925781 11.05992188 -1.08789062 9.99609375 C-1.09111328 9.00996094 -1.09433594 8.02382812 -1.09765625 7.0078125 C-1.10289307 6.09660645 -1.10812988 5.18540039 -1.11352539 4.24658203 C-1 2 -1 2 0 0 Z " fill="#0B4494" transform="translate(246,56)"/>
<path d="M0 0 C2.97 0.495 2.97 0.495 6 1 C6.6875 4.3125 6.6875 4.3125 7 8 C5.6875 9.9375 5.6875 9.9375 4 11 C3.34 11 2.68 11 2 11 C0.7922442 7.37673261 1.45688872 6.35853631 3 3 C2.34 2.67 1.68 2.34 1 2 C0.67 1.34 0.34 0.68 0 0 Z " fill="#464444" transform="translate(415,120)"/>
<path d="M0 0 C1.65 0 3.3 0 5 0 C6.04449911 3.13349732 5.93423645 3.98968256 5 7 C4.01 7 3.02 7 2 7 C2 9.64 2 12.28 2 15 C1.67 15 1.34 15 1 15 C1 11.04 1 7.08 1 3 C0.34 3 -0.32 3 -1 3 C-0.67 2.01 -0.34 1.02 0 0 Z " fill="#515455" transform="translate(312,116)"/>
<path d="M0 0 C0.33 0 0.66 0 1 0 C1.09765625 6.15234375 1.09765625 6.15234375 1 8 C0.67 8.33 0.34 8.66 0 9 C-0.23527773 11.34987262 -0.41386417 13.70556039 -0.5625 16.0625 C-0.64628906 17.35285156 -0.73007813 18.64320312 -0.81640625 19.97265625 C-0.87699219 20.97167969 -0.93757812 21.97070312 -1 23 C-1.99 23 -2.98 23 -4 23 C-3.71542568 20.47818712 -3.42254942 17.95778804 -3.125 15.4375 C-3.04636719 14.73302734 -2.96773437 14.02855469 -2.88671875 13.30273438 C-2.33366097 8.6868291 -1.38804164 4.43823397 0 0 Z " fill="#4274B2" transform="translate(248,90)"/>
<path d="M0 0 C0.99 0.33 1.98 0.66 3 1 C3 1.66 3 2.32 3 3 C3.66 3 4.32 3 5 3 C5 3.99 5 4.98 5 6 C3.906875 5.773125 2.81375 5.54625 1.6875 5.3125 C-1.90531273 4.59853617 -1.90531273 4.59853617 -3.9375 6.4375 C-4.288125 6.953125 -4.63875 7.46875 -5 8 C-5.66 7.67 -6.32 7.34 -7 7 C-7 6.01 -7 5.02 -7 4 C-6.34 4 -5.68 4 -5 4 C-4.67 3.01 -4.34 2.02 -4 1 C-3.34 1 -2.68 1 -2 1 C-1.67 1.33 -1.34 1.66 -1 2 C-0.67 1.34 -0.34 0.68 0 0 Z " fill="#1D8C4B" transform="translate(128,72)"/>
<path d="M0 0 C1.2684375 0.12375 1.2684375 0.12375 2.5625 0.25 C4.5625 3.25 4.5625 3.25 4.1875 5.9375 C3.98125 6.700625 3.775 7.46375 3.5625 8.25 C3.2325 6.93 2.9025 5.61 2.5625 4.25 C0.9125 4.25 -0.7375 4.25 -2.4375 4.25 C-2.7675 5.24 -3.0975 6.23 -3.4375 7.25 C-4.0975 6.92 -4.7575 6.59 -5.4375 6.25 C-3.15823922 0.32392197 -3.15823922 0.32392197 0 0 Z " fill="#121012" transform="translate(442.4375,119.75)"/>
<path d="M0 0 C2.25 -0.25 2.25 -0.25 5 0 C7.3125 2 7.3125 2 9 4 C8.67 4.66 8.34 5.32 8 6 C4.61976483 6 2.16531063 5.12544378 -1 4 C-0.67 2.68 -0.34 1.36 0 0 Z " fill="#5781BB" transform="translate(278,78)"/>
<path d="M0 0 C1.125 3.75 1.125 3.75 0 6 C-0.12839364 7.560696 -0.22868632 9.12377617 -0.3125 10.6875 C-0.75443413 15.76237694 -2.17257997 18.80447351 -5 23 C-6.29813841 20.40372319 -5.78545428 19.48726893 -5.0390625 16.71875 C-4.70261719 15.45611328 -4.70261719 15.45611328 -4.359375 14.16796875 C-3.99585938 12.84732422 -3.99585938 12.84732422 -3.625 11.5 C-3.39039063 10.61957031 -3.15578125 9.73914063 -2.9140625 8.83203125 C-1.15762562 2.31525125 -1.15762562 2.31525125 0 0 Z " fill="#EEA578" transform="translate(398,87)"/>
<path d="M0 0 C0.66 0 1.32 0 2 0 C2.37851209 5.93002267 1.10575375 10.47239641 -1 16 C-1.33 16 -1.66 16 -2 16 C-2.05449838 14.27119018 -2.09301688 12.54187288 -2.125 10.8125 C-2.14820313 9.84957031 -2.17140625 8.88664062 -2.1953125 7.89453125 C-1.9913544 4.87187222 -1.26874632 2.73230015 0 0 Z " fill="#056F35" transform="translate(156,94)"/>
<path d="M0 0 C0.33 0 0.66 0 1 0 C1.125 3.375 1.125 3.375 1 7 C0.34 7.66 -0.32 8.32 -1 9 C-2.32 9 -3.64 9 -5 9 C-5.33 10.32 -5.66 11.64 -6 13 C-6.66 13 -7.32 13 -8 13 C-8 11.35 -8 9.7 -8 8 C-7.21625 7.938125 -6.4325 7.87625 -5.625 7.8125 C-4.75875 7.544375 -3.8925 7.27625 -3 7 C-1.67518454 4.60470331 -1.67518454 4.60470331 -1 2 C-0.67 1.34 -0.34 0.68 0 0 Z " fill="#393637" transform="translate(409,122)"/>
<path d="M0 0 C0.99 0 1.98 0 3 0 C3.33 0.99 3.66 1.98 4 3 C3.34 3 2.68 3 2 3 C2 4.65 2 6.3 2 8 C0.68 8.33 -0.64 8.66 -2 9 C-2.6875 7.3125 -2.6875 7.3125 -3 5 C-1.75 2.25 -1.75 2.25 0 0 Z " fill="#060909" transform="translate(152,120)"/>
<path d="M0 0 C0 0.66 0 1.32 0 2 C-0.66 2 -1.32 2 -2 2 C-1.814375 2.94875 -1.62875 3.8975 -1.4375 4.875 C-1 8 -1 8 -2 10 C-2.99 10 -3.98 10 -5 10 C-6.34261242 3.53104925 -6.34261242 3.53104925 -4.75 1.0625 C-3 0 -3 0 0 0 Z " fill="#121211" transform="translate(453,120)"/>
<path d="M0 0 C4.875 0.875 4.875 0.875 6 2 C6.1875 5.4375 6.1875 5.4375 6 9 C5.34 9.66 4.68 10.32 4 11 C1.875 10.625 1.875 10.625 0 10 C0.99 9.67 1.98 9.34 3 9 C2.67 8.01 2.34 7.02 2 6 C2.99 6 3.98 6 5 6 C3.36587557 4.29159719 2.13093906 3.06546953 0 2 C0 1.34 0 0.68 0 0 Z " fill="#323232" transform="translate(164,120)"/>
<path d="M0 0 C0.99 0.33 1.98 0.66 3 1 C2.67 1.99 2.34 2.98 2 4 C1.01 4 0.02 4 -1 4 C-1.103125 4.61875 -1.20625 5.2375 -1.3125 5.875 C-2 8 -2 8 -5 10 C-5.66 9.34 -6.32 8.68 -7 8 C-4.69 5.36 -2.38 2.72 0 0 Z " fill="#4175B6" transform="translate(291,98)"/>
<path d="M0 0 C1.67542976 0.28604898 3.34385343 0.61781233 5 1 C5 2.32 5 3.64 5 5 C3.35 5.33 1.7 5.66 0 6 C-0.38218767 4.34385343 -0.71395102 2.67542976 -1 1 C-0.67 0.67 -0.34 0.34 0 0 Z " fill="#292829" transform="translate(295,195)"/>
<path d="M0 0 C2.97 0 5.94 0 9 0 C8.67 1.32 8.34 2.64 8 4 C5.36 4 2.72 4 0 4 C0 2.68 0 1.36 0 0 Z " fill="#494E59" transform="translate(245,117)"/>
<path d="M0 0 C0.33 0.66 0.66 1.32 1 2 C2.65 2 4.3 2 6 2 C6.33 3.32 6.66 4.64 7 6 C4.69 6 2.38 6 0 6 C-0.38218767 4.34385343 -0.71395102 2.67542976 -1 1 C-0.67 0.67 -0.34 0.34 0 0 Z " fill="#242128" transform="translate(246,120)"/>
<path d="M0 0 C0.66 0.33 1.32 0.66 2 1 C1.566875 2.423125 1.566875 2.423125 1.125 3.875 C-0.2110958 8.52270466 -1.10192035 13.25164268 -2 18 C-2.66 18 -3.32 18 -4 18 C-3.61020794 11.44074057 -2.57886807 6.05473373 0 0 Z " fill="#EBA278" transform="translate(403,69)"/>
<path d="M0 0 C0.99 0 1.98 0 3 0 C2.71682074 1.60568666 2.42312209 3.20952047 2.125 4.8125 C1.96257812 5.70582031 1.80015625 6.59914063 1.6328125 7.51953125 C1 10 1 10 -1 13 C-1.22151549 11.20991533 -1.42682213 9.41781838 -1.625 7.625 C-1.74101562 6.62726563 -1.85703125 5.62953125 -1.9765625 4.6015625 C-1.98429687 3.74304688 -1.99203125 2.88453125 -2 2 C-1.34 1.34 -0.68 0.68 0 0 Z " fill="#356AAD" transform="translate(313,74)"/>
<path d="M0 0 C1.65 0.33 3.3 0.66 5 1 C4.67 2.65 4.34 4.3 4 6 C2.35 5.67 0.7 5.34 -1 5 C-0.67 3.35 -0.34 1.7 0 0 Z " fill="#222021" transform="translate(261,195)"/>
<path d="M0 0 C1.65 0.33 3.3 0.66 5 1 C4.67 2.65 4.34 4.3 4 6 C2.35 5.67 0.7 5.34 -1 5 C-0.67 3.35 -0.34 1.7 0 0 Z " fill="#222222" transform="translate(252,195)"/>
<path d="M0 0 C0.99 0.33 1.98 0.66 3 1 C3.20086443 4.71599191 3.1519437 5.77208445 1 9 C-1.475 8.01 -1.475 8.01 -4 7 C-3.34 6.67 -2.68 6.34 -2 6 C-2 5.34 -2 4.68 -2 4 C-1.34 4 -0.68 4 0 4 C0 2.68 0 1.36 0 0 Z " fill="#3B3D3D" transform="translate(455,116)"/>
<path d="M0 0 C0.33 0 0.66 0 1 0 C1 2.31 1 4.62 1 7 C-3.625 9.125 -3.625 9.125 -7 8 C-5.85760183 6.66372225 -4.71098945 5.33104612 -3.5625 4 C-2.92441406 3.2575 -2.28632813 2.515 -1.62890625 1.75 C-1.09136719 1.1725 -0.55382812 0.595 0 0 Z " fill="#EE9A65" transform="translate(443,94)"/>
<path d="M0 0 C0.66 1.32 1.32 2.64 2 4 C-1.65433764 5.21811255 -2.60630184 4.56632223 -6 3 C-6.66 2.67 -7.32 2.34 -8 2 C-4.77208445 -0.1519437 -3.71599191 -0.20086443 0 0 Z " fill="#686A6D" transform="translate(287,117)"/>
<path d="M0 0 C0.66 0.66 1.32 1.32 2 2 C1.96712417 4.72869407 1.43602229 7.2966618 1 10 C0.01 10 -0.98 10 -2 10 C-2 7.03 -2 4.06 -2 1 C-1.34 0.67 -0.68 0.34 0 0 Z " fill="#FC8F4C" transform="translate(424,90)"/>
<path d="M0 0 C1.43410153 3.78819273 0.51009497 6.06521279 -0.9375 9.75 C-1.31777344 10.73484375 -1.69804688 11.7196875 -2.08984375 12.734375 C-2.39019531 13.48203125 -2.69054687 14.2296875 -3 15 C-3.33 15 -3.66 15 -4 15 C-4.1953125 8.9453125 -4.1953125 8.9453125 -4 7 C-3.34 6.34 -2.68 5.68 -2 5 C-1.29289322 3.35008418 -0.62056011 1.68437744 0 0 Z " fill="#3F8F5E" transform="translate(96,78)"/>
<path d="M0 0 C1.32 0.33 2.64 0.66 4 1 C3.67 1.61875 3.34 2.2375 3 2.875 C1.85806765 4.91018344 1.85806765 4.91018344 2 7 C0.02 7.33 -1.96 7.66 -4 8 C-4 7.01 -4 6.02 -4 5 C-3.01 5 -2.02 5 -1 5 C-0.67 3.35 -0.34 1.7 0 0 Z " fill="#0A0B0E" transform="translate(290,121)"/>
<path d="M0 0 C0.2475 0.515625 0.495 1.03125 0.75 1.5625 C2.39581616 4.77184151 4.1976096 7.87585664 6 11 C4.02 11 2.04 11 0 11 C0.33 10.01 0.66 9.02 1 8 C0.40206327 5.64811553 -0.25881795 3.31074405 -1 1 C-0.67 0.67 -0.34 0.34 0 0 Z " fill="#077132" transform="translate(127,102)"/>
<path d="M0 0 C1.32 0 2.64 0 4 0 C3.67 1.32 3.34 2.64 3 4 C2.34 4 1.68 4 1 4 C0.34 5.32 -0.32 6.64 -1 8 C-1.66 7.67 -2.32 7.34 -3 7 C-3 5.68 -3 4.36 -3 3 C-2.01 3 -1.02 3 0 3 C0 2.01 0 1.02 0 0 Z " fill="#158149" transform="translate(131,99)"/>
<path d="M0 0 C2.5 0.3125 2.5 0.3125 5 1 C5.33 1.66 5.66 2.32 6 3 C5.67 3.66 5.34 4.32 5 5 C3.35 5 1.7 5 0 5 C-0.5625 3.0625 -0.5625 3.0625 -1 1 C-0.67 0.67 -0.34 0.34 0 0 Z " fill="#413E40" transform="translate(295,264)"/>
<path d="M0 0 C1.2065625 0.0309375 1.2065625 0.0309375 2.4375 0.0625 C2.4375 1.7125 2.4375 3.3625 2.4375 5.0625 C0.7875 5.0625 -0.8625 5.0625 -2.5625 5.0625 C-3.125 3.125 -3.125 3.125 -3.5625 1.0625 C-2.5625 0.0625 -2.5625 0.0625 0 0 Z " fill="#353334" transform="translate(254.5625,263.9375)"/>
<path d="M0 0 C1.5 1.3125 1.5 1.3125 3 3 C3 3.99 3 4.98 3 6 C3.66 6.33 4.32 6.66 5 7 C3.35 7.66 1.7 8.32 0 9 C-0.84454356 5.62182575 -1.10844919 3.32534757 0 0 Z " fill="#080808" transform="translate(402,122)"/>
<path d="M0 0 C0.33 0 0.66 0 1 0 C1.125 5.75 1.125 5.75 0 8 C-1.32 8 -2.64 8 -4 8 C-6.25 5.5 -6.25 5.5 -8 3 C-6.68 3 -5.36 3 -4 3 C-4 3.66 -4 4.32 -4 5 C-2.68 5 -1.36 5 0 5 C-0.2784375 4.0409375 -0.2784375 4.0409375 -0.5625 3.0625 C-0.706875 2.381875 -0.85125 1.70125 -1 1 C-0.67 0.67 -0.34 0.34 0 0 Z " fill="#EFB698" transform="translate(430,100)"/>
<path d="M0 0 C1.65 0 3.3 0 5 0 C4.07038578 1.15224028 3.1309875 2.29659176 2.1875 3.4375 C1.40439453 4.39462891 1.40439453 4.39462891 0.60546875 5.37109375 C-1 7 -1 7 -4 8 C-4 7.01 -4 6.02 -4 5 C-3.01 5 -2.02 5 -1 5 C-0.67 3.35 -0.34 1.7 0 0 Z " fill="#F2B384" transform="translate(417,81)"/>
<path d="M0 0 C0.33 0.66 0.66 1.32 1 2 C1.66 2.33 2.32 2.66 3 3 C1.35 3.33 -0.3 3.66 -2 4 C-2 5.65 -2 7.3 -2 9 C-4.15377564 6.37801226 -5.40072174 4.35595828 -6 1 C-5.01 1 -4.02 1 -3 1 C-3 1.66 -3 2.32 -3 3 C-2.01 2.01 -1.02 1.02 0 0 Z " fill="#575759" transform="translate(285,127)"/>
<path d="M0 0 C2.475 0.495 2.475 0.495 5 1 C4.34 1.66 3.68 2.32 3 3 C2.54188325 4.97235333 2.54188325 4.97235333 2.375 7.125 C2.25125 8.40375 2.1275 9.6825 2 11 C1.34 11 0.68 11 0 11 C0 7.37 0 3.74 0 0 Z " fill="#1D2023" transform="translate(255,120)"/>
<path d="M0 0 C0.66 0 1.32 0 2 0 C2 4.62 2 9.24 2 14 C1.34 13.67 0.68 13.34 0 13 C0 8.71 0 4.42 0 0 Z " fill="#282A2A" transform="translate(87,117)"/>
<path d="M0 0 C0.66 0 1.32 0 2 0 C0.68 5.61 -0.64 11.22 -2 17 C-2.33 17 -2.66 17 -3 17 C-2.54775239 11.08507728 -1.8417395 5.64800112 0 0 Z " fill="#EFA77B" transform="translate(462,77)"/>
<path d="M0 0 C1.65 0.33 3.3 0.66 5 1 C4.67 2.32 4.34 3.64 4 5 C2.35 4.67 0.7 4.34 -1 4 C-0.67 2.68 -0.34 1.36 0 0 Z " fill="#222020" transform="translate(261,264)"/>
<path d="M0 0 C1.98 0.495 1.98 0.495 4 1 C3.67 2.65 3.34 4.3 3 6 C1.68 5.67 0.36 5.34 -1 5 C-0.67 3.35 -0.34 1.7 0 0 Z " fill="#242223" transform="translate(304,195)"/>
<path d="M0 0 C0.66 0.33 1.32 0.66 2 1 C2 2.32 2 3.64 2 5 C-0.31 4.67 -2.62 4.34 -5 4 C-3.68 3.34 -2.36 2.68 -1 2 C-3.31 2.33 -5.62 2.66 -8 3 C-8 2.34 -8 1.68 -8 1 C-5.26094655 -0.36952673 -3.02912668 -0.12621361 0 0 Z " fill="#5D5956" transform="translate(435,117)"/>
<path d="M0 0 C1.875 0.1875 1.875 0.1875 4 1 C5.3125 3.375 5.3125 3.375 6 6 C5.67 6.99 5.34 7.98 5 9 C4.34 7.68 3.68 6.36 3 5 C2.01 5.495 2.01 5.495 1 6 C1 5.34 1 4.68 1 4 C0.34 4 -0.32 4 -1 4 C-0.67 2.68 -0.34 1.36 0 0 Z " fill="#2F2D28" transform="translate(393,117)"/>
<path d="M0 0 C0.99 0.33 1.98 0.66 3 1 C3.33 2.65 3.66 4.3 4 6 C2.35 6.66 0.7 7.32 -1 8 C-1.04241723 5.66705225 -1.04092937 3.33297433 -1 1 C-0.67 0.67 -0.34 0.34 0 0 Z " fill="#047A34" transform="translate(94,72)"/>
<path d="M0 0 C1.65 0 3.3 0 5 0 C5.33 1.32 5.66 2.64 6 4 C3.625 4.625 3.625 4.625 1 5 C0.34 4.34 -0.32 3.68 -1 3 C-0.67 2.01 -0.34 1.02 0 0 Z " fill="#3E3E3F" transform="translate(461,126)"/>
<path d="M0 0 C0.99 0.495 0.99 0.495 2 1 C1.67 2.65 1.34 4.3 1 6 C1.78375 5.938125 2.5675 5.87625 3.375 5.8125 C4.674375 5.9053125 4.674375 5.9053125 6 6 C6.99 7.485 6.99 7.485 8 9 C5.125 9.125 5.125 9.125 2 9 C0 7 0 7 -0.125 3.375 C-0.08375 2.26125 -0.0425 1.1475 0 0 Z " fill="#0E100F" transform="translate(128,121)"/>
<path d="M0 0 C3 3.75 3 3.75 3 6 C3.66 6 4.32 6 5 6 C5 7.65 5 9.3 5 11 C4.01 10.67 3.02 10.34 2 10 C2 9.34 2 8.68 2 8 C1.34 7.34 0.68 6.68 0 6 C-0.125 2.875 -0.125 2.875 0 0 Z " fill="#0C0C0D" transform="translate(395,120)"/>
<path d="M0 0 C0.33 0 0.66 0 1 0 C1 3.3 1 6.6 1 10 C0.01 9.67 -0.98 9.34 -2 9 C-2.25 3.375 -2.25 3.375 0 0 Z " fill="#0D0D0E" transform="translate(104,121)"/>
<path d="M0 0 C0.33 0.66 0.66 1.32 1 2 C2.32 2 3.64 2 5 2 C4.67 2.99 4.34 3.98 4 5 C1.69 5 -0.62 5 -3 5 C-2.67 3.68 -2.34 2.36 -2 1 C-1.34 1.33 -0.68 1.66 0 2 C0 1.34 0 0.68 0 0 Z " fill="#4D4D4D" transform="translate(120,126)"/>
<path d="M0 0 C3 1 3 1 4.875 3.5625 C6.7676163 6.28684933 6.7676163 6.28684933 9.75 6.3125 C10.4925 6.209375 11.235 6.10625 12 6 C12 6.66 12 7.32 12 8 C6.68720127 8.43547531 6.68720127 8.43547531 4 8 C1.81369367 5.39053761 1.07207819 3.21623458 0 0 Z " fill="#EB9C66" transform="translate(419,101)"/>
<path d="M0 0 C0.33 0 0.66 0 1 0 C0.75 3.375 0.75 3.375 0 7 C-2.0625 8.4375 -2.0625 8.4375 -4 9 C-4.625 6.625 -4.625 6.625 -5 4 C-4.34 3.34 -3.68 2.68 -3 2 C-3 2.66 -3 3.32 -3 4 C-2.01 4 -1.02 4 0 4 C0 2.68 0 1.36 0 0 Z " fill="#5981BB" transform="translate(293,89)"/>
<path d="M0 0 C0.33 1.32 0.66 2.64 1 4 C-0.32 3.67 -1.64 3.34 -3 3 C-3.33 4.32 -3.66 5.64 -4 7 C-4.99 6.67 -5.98 6.34 -7 6 C-5.52522876 2.59668175 -4.14385429 0 0 0 Z " fill="#EDA87A" transform="translate(425,82)"/>
<path d="M0 0 C0.99 0.33 1.98 0.66 3 1 C2.67 3.64 2.34 6.28 2 9 C1.34 9 0.68 9 0 9 C0 6.03 0 3.06 0 0 Z " fill="#4B79B0" transform="translate(281,88)"/>
<path d="M0 0 C0 0.99 0 1.98 0 3 C-1.32 3.33 -2.64 3.66 -4 4 C-3.67 5.98 -3.34 7.96 -3 10 C-3.99 9.67 -4.98 9.34 -6 9 C-5.6875 5.625 -5.6875 5.625 -5 2 C-2 0 -2 0 0 0 Z " fill="#27944F" transform="translate(116,85)"/>
<path d="M0 0 C1.98 0.495 1.98 0.495 4 1 C3.67 2.32 3.34 3.64 3 5 C1.68 4.67 0.36 4.34 -1 4 C-0.67 2.68 -0.34 1.36 0 0 Z " fill="#414041" transform="translate(304,264)"/>
<path d="M0 0 C0.66 1.32 1.32 2.64 2 4 C1.01 5.485 1.01 5.485 0 7 C-2.625 7.1875 -2.625 7.1875 -5 7 C-4.34 6.67 -3.68 6.34 -3 6 C-2.835 5.175 -2.67 4.35 -2.5 3.5 C-2.335 2.675 -2.17 1.85 -2 1 C-1.34 0.67 -0.68 0.34 0 0 Z " fill="#333434" transform="translate(446,123)"/>
<path d="M0 0 C0.66 0 1.32 0 2 0 C2.33 2.64 2.66 5.28 3 8 C1.68 7.01 0.36 6.02 -1 5 C-0.67 3.35 -0.34 1.7 0 0 Z " fill="#EDA374" transform="translate(415,89)"/>
<path d="M0 0 C2.4375 0.375 2.4375 0.375 5 1 C5.33 1.66 5.66 2.32 6 3 C3.69 3.33 1.38 3.66 -1 4 C-0.67 2.68 -0.34 1.36 0 0 Z " fill="#2A8C57" transform="translate(126,78)"/>
<path d="M0 0 C1.32 0 2.64 0 4 0 C3.34 1.65 2.68 3.3 2 5 C0.68 4.67 -0.64 4.34 -2 4 C-2 3.34 -2 2.68 -2 2 C-1.34 2 -0.68 2 0 2 C0 1.34 0 0.68 0 0 Z " fill="#5B5B5D" transform="translate(268,126)"/>
<path d="M0 0 C0.99 0.33 1.98 0.66 3 1 C3 2.32 3 3.64 3 5 C3.66 5 4.32 5 5 5 C4.625 6.9375 4.625 6.9375 4 9 C3.01 9.495 3.01 9.495 2 10 C1.855625 8.906875 1.71125 7.81375 1.5625 6.6875 C1.11711896 3.06877013 1.11711896 3.06877013 0 0 Z " fill="#F39E6B" transform="translate(429,95)"/>
<path d="M0 0 C0.66 0.33 1.32 0.66 2 1 C2.20086443 4.71599191 2.1519437 5.77208445 0 9 C-0.66 9 -1.32 9 -2 9 C-1.34 6.03 -0.68 3.06 0 0 Z " fill="#396BB0" transform="translate(253,72)"/>
<path d="M0 0 C0.66 0 1.32 0 2 0 C2 1.65 2 3.3 2 5 C0.68 5 -0.64 5 -2 5 C-1.125 1.125 -1.125 1.125 0 0 Z " fill="#6D6D6F" transform="translate(262,125)"/>
<path d="M0 0 C1.485 0.99 1.485 0.99 3 2 C5.28648848 2.24107326 5.28648848 2.24107326 7.6875 2.125 C8.49574219 2.10695313 9.30398438 2.08890625 10.13671875 2.0703125 C10.75160156 2.04710938 11.36648438 2.02390625 12 2 C11.67 2.99 11.34 3.98 11 5 C9.54119891 4.85892253 8.08296449 4.71197585 6.625 4.5625 C5.40683594 4.44068359 5.40683594 4.44068359 4.1640625 4.31640625 C2 4 2 4 0 3 C0 2.01 0 1.02 0 0 Z " fill="#17499B" transform="translate(274,105)"/>
<path d="M0 0 C0.33 0 0.66 0 1 0 C0.88541307 1.43836751 0.75790884 2.87570966 0.625 4.3125 C0.55539062 5.11300781 0.48578125 5.91351563 0.4140625 6.73828125 C0 9 0 9 -2 12 C-2.28571429 3.42857143 -2.28571429 3.42857143 0 0 Z " fill="#5C83B9" transform="translate(311,87)"/>
<path d="M0 0 C0.99 0 1.98 0 3 0 C3 1.32 3 2.64 3 4 C3.66 4 4.32 4 5 4 C4.67 4.99 4.34 5.98 4 7 C2.35 5.35 0.7 3.7 -1 2 C-0.67 1.34 -0.34 0.68 0 0 Z " fill="#F2A372" transform="translate(435,78)"/>
<path d="M0 0 C0.66 0 1.32 0 2 0 C2.33 2.31 2.66 4.62 3 7 C2.01 6.67 1.02 6.34 0 6 C0 4.02 0 2.04 0 0 Z " fill="#323232" transform="translate(411,128)"/>
<path d="M0 0 C2.0625 0.4375 2.0625 0.4375 4 1 C3.67 1.66 3.34 2.32 3 3 C2.34 3 1.68 3 1 3 C0.67 4.32 0.34 5.64 0 7 C-1 6 -1 6 -1.125 3.5 C-1 1 -1 1 0 0 Z " fill="#0D0C0D" transform="translate(116,124)"/>
<path d="M0 0 C0.99 0 1.98 0 3 0 C3 2.31 3 4.62 3 7 C2.67 6.34 2.34 5.68 2 5 C1.01 4.67 0.02 4.34 -1 4 C-0.67 2.68 -0.34 1.36 0 0 Z " fill="#575C59" transform="translate(157,116)"/>
<path d="M0 0 C0.33 0 0.66 0 1 0 C1 1.98 1 3.96 1 6 C-0.32 6.33 -1.64 6.66 -3 7 C-3 6.01 -3 5.02 -3 4 C-2.34 4 -1.68 4 -1 4 C-0.67 2.68 -0.34 1.36 0 0 Z " fill="#EAA069" transform="translate(454,107)"/>
<path d="M0 0 C-0.66 1.65 -1.32 3.3 -2 5 C-2.66 4.01 -3.32 3.02 -4 2 C-6.05925139 1.27617533 -6.05925139 1.27617533 -8 1 C-2.25 -1.125 -2.25 -1.125 0 0 Z " fill="#42AB68" transform="translate(141,93)"/>
<path d="M0 0 C1.32 0 2.64 0 4 0 C3.375 1.9375 3.375 1.9375 2 4 C-1.125 4.75 -1.125 4.75 -4 5 C-3.34 4.34 -2.68 3.68 -2 3 C-1.01 3 -0.02 3 1 3 C0.67 2.01 0.34 1.02 0 0 Z " fill="#4A494B" transform="translate(434,126)"/>
<path d="M0 0 C2.31 0 4.62 0 7 0 C7 0.66 7 1.32 7 2 C4.69 2.33 2.38 2.66 0 3 C0 2.01 0 1.02 0 0 Z " fill="#212124" transform="translate(428,127)"/>
<path d="M0 0 C0.99 0 1.98 0 3 0 C3.33 0.99 3.66 1.98 4 3 C2.02 3.33 0.04 3.66 -2 4 C-1.34 2.68 -0.68 1.36 0 0 Z " fill="#363334" transform="translate(152,120)"/>
<path d="M0 0 C0.66 0 1.32 0 2 0 C2 2.31 2 4.62 2 7 C1.34 7 0.68 7 0 7 C-1.125 2.25 -1.125 2.25 0 0 Z " fill="#0A0B0B" transform="translate(98,122)"/>
<path d="M0 0 C1.14926266 0.95421808 2.29430541 1.91352045 3.4375 2.875 C4.07558594 3.40867187 4.71367187 3.94234375 5.37109375 4.4921875 C7 6 7 6 8 8 C5.125 7.375 5.125 7.375 2 6 C0.625 2.875 0.625 2.875 0 0 Z " fill="#7C9DCB" transform="translate(267,97)"/>
<path d="M0 0 C0.33 0.99 0.66 1.98 1 3 C0.01 3.99 -0.98 4.98 -2 6 C-2.99 5.67 -3.98 5.34 -5 5 C-3.35 3.35 -1.7 1.7 0 0 Z " fill="#25894E" transform="translate(137,101)"/>
<path d="M0 0 C2.475 0.99 2.475 0.99 5 2 C4.67 2.99 4.34 3.98 4 5 C3.01 5.33 2.02 5.66 1 6 C0.67 4.02 0.34 2.04 0 0 Z " fill="#144C9D" transform="translate(282,82)"/>
<path d="M0 0 C2.97 0.495 2.97 0.495 6 1 C5.67 1.66 5.34 2.32 5 3 C3.68 2.34 2.36 1.68 1 1 C1.33 2.32 1.66 3.64 2 5 C1.01 4.67 0.02 4.34 -1 4 C-0.67 2.68 -0.34 1.36 0 0 Z " fill="#ECA67B" transform="translate(426,78)"/>
<path d="M0 0 C0 1.65 0 3.3 0 5 C-0.66 4.67 -1.32 4.34 -2 4 C-2 3.34 -2 2.68 -2 2 C-4.64 2.33 -7.28 2.66 -10 3 C-9.67 2.34 -9.34 1.68 -9 1 C-5.98003217 0.45091494 -3.07380605 0 0 0 Z " fill="#04439E" transform="translate(286,73)"/>
<path d="M0 0 C0.99 0.33 1.98 0.66 3 1 C3.33 2.65 3.66 4.3 4 6 C2.68 5.67 1.36 5.34 0 5 C0 3.35 0 1.7 0 0 Z " fill="#6180B1" transform="translate(303,60)"/>
</svg>
