<?xml version="1.0" encoding="UTF-8"?>
<svg version="1.1" xmlns="http://www.w3.org/2000/svg" width="512" height="512">
<path d="M0 0 C4.12593192 2.87855716 7.06537651 6.00862953 8.6875 10.875 C8.77549471 12.63908128 8.80514257 14.40633766 8.80102539 16.17260742 C8.80094986 17.25350143 8.80087433 18.33439545 8.80079651 19.44804382 C8.79563522 20.61374405 8.79047394 21.77944427 8.78515625 22.98046875 C8.78303383 24.77198112 8.78303383 24.77198112 8.78086853 26.59968567 C8.7752635 30.42064908 8.76271011 34.24155425 8.75 38.0625 C8.74498565 40.65038978 8.74042263 43.23828048 8.73632812 45.82617188 C8.72614261 52.17582183 8.70656803 58.52534559 8.6875 64.875 C18.5875 64.875 28.4875 64.875 38.6875 64.875 C38.65269531 61.2140625 38.61789063 57.553125 38.58203125 53.78125 C38.5586085 50.22006001 38.54040734 46.65887873 38.52270508 43.09765625 C38.50765548 40.63016901 38.4872111 38.16270835 38.46118164 35.6953125 C38.42463074 32.14055809 38.40773482 28.58615861 38.39453125 25.03125 C38.37904739 23.93510376 38.36356354 22.83895752 38.34761047 21.70959473 C38.34623045 15.37276043 38.92124156 10.61169015 41.6875 4.875 C45.84408151 0.8249975 49.73164706 -1.41025302 55.5625 -1.4375 C60.69195201 -1.30945201 64.37296571 -0.4269553 68.125 3.3046875 C71.86322186 7.57390678 72.81394835 10.62865618 72.80102539 16.17260742 C72.80094986 17.25350143 72.80087433 18.33439545 72.80079651 19.44804382 C72.79563522 20.61374405 72.79047394 21.77944427 72.78515625 22.98046875 C72.78303383 24.77198112 72.78303383 24.77198112 72.78086853 26.59968567 C72.7752635 30.42064908 72.76271011 34.24155425 72.75 38.0625 C72.74498565 40.65038978 72.74042263 43.23828048 72.73632812 45.82617188 C72.72614261 52.17582183 72.70656803 58.52534559 72.6875 64.875 C82.5875 64.875 92.4875 64.875 102.6875 64.875 C102.64109375 61.141875 102.5946875 57.40875 102.546875 53.5625 C102.51564633 49.9318172 102.49137726 46.30114959 102.46777344 42.67041016 C102.44770484 40.15439109 102.4204437 37.63841839 102.38574219 35.12255859 C102.33701688 31.49825572 102.31448278 27.87457159 102.296875 24.25 C102.27622986 23.13197998 102.25558472 22.01395996 102.23431396 20.86206055 C102.2323715 14.0437599 103.02299352 9.67252739 106.6875 3.875 C111.54789326 -0.74830091 115.61373456 -1.48766602 122.1171875 -1.40234375 C126.27274246 -0.953948 128.34468505 0.33446064 131.6875 2.875 C135.36906613 7.62228265 136.81515759 11.13115486 136.80102539 17.08081055 C136.80094986 18.14168381 136.80087433 19.20255707 136.80079651 20.295578 C136.79563522 21.43940445 136.79047394 22.5832309 136.78515625 23.76171875 C136.78303383 25.51993706 136.78303383 25.51993706 136.78086853 27.31367493 C136.77526388 31.06330907 136.76271056 34.81288385 136.75 38.5625 C136.7449856 41.10221268 136.74042259 43.6419263 136.73632812 46.18164062 C136.72614316 52.41280178 136.70656851 58.64383431 136.6875 64.875 C146.5875 64.875 156.4875 64.875 166.6875 64.875 C166.64109375 61.05808594 166.5946875 57.24117187 166.546875 53.30859375 C166.5156581 49.60182016 166.49138231 45.89506135 166.46777344 42.18823242 C166.44768851 39.61687641 166.42041521 37.04556591 166.38574219 34.47436523 C166.33708919 30.77316034 166.31449917 27.07256067 166.296875 23.37109375 C166.26590729 21.65351112 166.26590729 21.65351112 166.23431396 19.90122986 C166.23247044 13.30757746 166.71073112 9.21418044 170.6875 3.875 C175.56684356 -0.64731842 179.56082182 -1.53903399 186.046875 -1.47265625 C190.37870152 -0.90234181 193.44272122 1.02021867 196.6875 3.875 C200.12662732 8.42352323 200.81461795 12.50240455 200.80102539 18.10253906 C200.80094986 19.14331604 200.80087433 20.18409302 200.80079651 21.25640869 C200.79563522 22.37320007 200.79047394 23.48999146 200.78515625 24.640625 C200.78303383 26.36342682 200.78303383 26.36342682 200.78086853 28.12103271 C200.77527143 31.78904831 200.76271944 35.45700285 200.75 39.125 C200.74498463 41.61197829 200.74042178 44.09895753 200.73632812 46.5859375 C200.7261539 52.68233411 200.70657775 58.77859871 200.6875 64.875 C210.5875 64.875 220.4875 64.875 230.6875 64.875 C230.65269531 61.04648438 230.61789062 57.21796875 230.58203125 53.2734375 C230.55862618 49.56006618 230.54041493 45.84670311 230.52270508 42.13330078 C230.50763095 39.55513829 230.48716833 36.97700138 230.46118164 34.39892578 C230.42473914 30.69036539 230.40775948 26.98214446 230.39453125 23.2734375 C230.37130547 21.54811295 230.37130547 21.54811295 230.34761047 19.78793335 C230.34623955 13.24970777 230.57374968 8.28877314 235.1875 3.23046875 C240.19680355 -0.67000459 243.83095769 -1.53626944 250.046875 -1.47265625 C255.48003548 -0.7573437 259.32676107 2.11920784 262.625 6.375 C264.43457003 10.63281183 264.8160628 14.71325886 264.89282227 19.30786133 C264.91276749 20.36858353 264.93271271 21.42930573 264.95326233 22.52217102 C264.97833107 24.22242683 264.97833107 24.22242683 265.00390625 25.95703125 C265.02468735 27.12634689 265.04546844 28.29566254 265.06687927 29.50041199 C265.13217414 33.22938253 265.19116659 36.95842247 265.25 40.6875 C265.29320429 43.21810609 265.33681919 45.7487052 265.38085938 48.27929688 C265.487835 54.47779158 265.58963848 60.67635506 265.6875 66.875 C266.6350415 67.33100586 267.58258301 67.78701172 268.55883789 68.25683594 C269.82194103 68.87401406 271.08487134 69.491546 272.34765625 70.109375 C272.96983032 70.40763184 273.59200439 70.70588867 274.23303223 71.01318359 C284.34904772 75.98990489 291.68227692 83.77923753 296.6875 93.875 C297.37546557 96.20214251 298.04454682 98.53502135 298.6875 100.875 C299.44425522 100.86833817 300.20101044 100.86167633 300.98069763 100.85481262 C308.14463682 100.79447093 315.30845116 100.74890925 322.472579 100.71956348 C326.15492616 100.70396886 329.8370617 100.68284567 333.51928711 100.64868164 C337.07898575 100.61586459 340.63848203 100.59810044 344.19832039 100.59036827 C346.20393174 100.5822029 348.20946273 100.55881983 350.21495056 100.53511047 C365.97797624 100.53223141 365.97797624 100.53223141 371.29905701 105.32722473 C375.77846418 110.52230918 376.0325437 114.22418328 375.96875 120.890625 C375.46904276 126.19307409 372.9367295 128.74764655 369.125 132.1875 C364.78765115 135.19027997 360.81012464 135.02871364 355.73120117 135.03613281 C354.92110092 135.04109772 354.11100067 135.04606262 353.27635193 135.05117798 C350.59438224 135.06579146 347.91247172 135.07260046 345.23046875 135.078125 C343.36582945 135.08387739 341.50119017 135.08963511 339.6365509 135.09539795 C335.72506434 135.1059058 331.81359831 135.11174979 327.90209961 135.11523438 C322.8951378 135.12071678 317.88844824 135.14474031 312.88157177 135.17320633 C309.02878532 135.19185003 305.17606421 135.19703925 301.32323647 135.19857025 C299.47768987 135.2015937 297.63214434 135.20961185 295.78664207 135.22275543 C293.2015462 135.23985119 290.61711222 135.2379271 288.03198242 135.23144531 C287.27280518 135.2406601 286.51362793 135.24987488 285.73144531 135.2593689 C280.2749662 135.21661119 276.08803322 134.1158778 272.04296875 130.33984375 C268.42844808 125.61316288 267.54049535 123.02116438 266.875 117.125 C265.87580113 109.79727706 265.87580113 109.79727706 261.6875 103.875 C254.01071378 98.83915947 246.22863785 98.72708124 237.30778503 98.74128723 C235.74153624 98.7378889 235.74153624 98.7378889 234.14364606 98.73442191 C230.6454761 98.72809276 227.14734498 98.72891058 223.64916992 98.72973633 C221.14075165 98.72674416 218.63233383 98.7233415 216.12391663 98.71955872 C210.01761601 98.71163844 203.91132962 98.70850431 197.80502435 98.70794634 C192.84004467 98.70747071 187.87506817 98.70541364 182.91008949 98.70224571 C168.82472047 98.69344175 154.73935905 98.68882593 140.65398725 98.68957619 C139.51561635 98.68963612 139.51561635 98.68963612 138.35424805 98.68969727 C137.21448268 98.68975859 137.21448268 98.68975859 136.05169175 98.68982115 C123.73940724 98.69022753 111.42715332 98.68065915 99.11487766 98.6665589 C86.46415325 98.65218569 73.81344375 98.64528924 61.16271096 98.64615268 C54.06373923 98.64648432 46.96479956 98.64375148 39.86583519 98.63297462 C33.18869236 98.62290287 26.51162844 98.62321463 19.83447838 98.63049126 C17.38555299 98.63153707 14.93662338 98.62917442 12.48770523 98.6231308 C9.14111256 98.61540756 5.79475358 98.62005808 2.44816589 98.62776184 C1.48239142 98.62261828 0.51661695 98.61747471 -0.47842342 98.61217529 C-8.90029452 98.65492563 -16.6285501 99.30504175 -23.3125 104.875 C-26.72517012 109.46445291 -27.43612545 113.94350634 -27.44113445 119.56243706 C-27.44597112 120.93986904 -27.44597112 120.93986904 -27.4509055 122.34512794 C-27.4493569 123.34521735 -27.4478083 124.34530676 -27.44621277 125.3757019 C-27.4496111 126.97953773 -27.4496111 126.97953773 -27.45307809 128.61577427 C-27.45941679 132.20463519 -27.45858881 135.79345832 -27.45776367 139.38232422 C-27.46075523 141.95295256 -27.46415775 144.52358046 -27.46794128 147.09420776 C-27.47624372 153.35571669 -27.47899594 159.6172162 -27.47955366 165.87873016 C-27.48002899 170.96865559 -27.48208458 176.05857791 -27.48525429 181.14850235 C-27.49405956 195.58193598 -27.49867383 210.01536218 -27.49792381 224.44879852 C-27.49786388 225.61568866 -27.49786388 225.61568866 -27.49780273 226.80615234 C-27.49774141 227.97446843 -27.49774141 227.97446843 -27.49767885 229.16638686 C-27.49727236 241.79047901 -27.50684301 254.41454134 -27.5209411 267.03862487 C-27.5353054 280.00345136 -27.54221126 292.96826331 -27.54134732 305.93309796 C-27.54101539 313.21087283 -27.54376114 320.48861643 -27.55452538 327.76638412 C-27.56458287 334.61012235 -27.56429447 341.45379348 -27.55700874 348.29753494 C-27.5559613 350.81018927 -27.55833519 353.32284769 -27.5643692 355.835495 C-27.5720694 359.26385176 -27.5674572 362.6919791 -27.55973816 366.12033081 C-27.56488172 367.11595878 -27.57002529 368.11158674 -27.57532471 369.13738525 C-27.54254372 375.72027405 -27.38616285 381.34052318 -23.0625 386.625 C-15.29935431 392.97666465 -7.51057493 393.0239649 2.06721497 393.00871277 C3.11138083 393.01097833 4.15554669 393.01324388 5.23135394 393.01557809 C8.7295239 393.02190724 12.22765502 393.02108942 15.72583008 393.02026367 C18.23424835 393.02325584 20.74266617 393.0266585 23.25108337 393.03044128 C29.35738399 393.03836156 35.46367038 393.04149569 41.56997565 393.04205366 C46.53495533 393.04252929 51.49993183 393.04458636 56.46491051 393.04775429 C70.55027953 393.05655825 84.63564095 393.06117407 98.72101275 393.06042381 C99.85938365 393.06036388 99.85938365 393.06036388 101.02075195 393.06030273 C102.16051732 393.06024141 102.16051732 393.06024141 103.32330825 393.06017885 C115.63559276 393.05977247 127.94784668 393.06934085 140.26012234 393.0834411 C152.91084675 393.09781431 165.56155625 393.10471076 178.21228904 393.10384732 C185.31126077 393.10351568 192.41020044 393.10624852 199.50916481 393.11702538 C206.18630764 393.12709713 212.86337156 393.12678537 219.54052162 393.11950874 C221.98944701 393.11846293 224.43837662 393.12082558 226.88729477 393.1268692 C230.23388744 393.13459244 233.58024642 393.12994192 236.92683411 393.12223816 C237.89260858 393.12738172 238.85838305 393.13252529 239.85342342 393.13782471 C248.27529452 393.09507437 256.0035501 392.44495825 262.6875 386.875 C267.03785133 381.02452752 266.83342375 374.9579631 266.81880188 367.96878052 C266.82091759 367.07106583 266.82303331 366.17335115 266.82521313 365.24843299 C266.83120517 362.23999124 266.83021355 359.23159153 266.8293457 356.22314453 C266.83237769 354.0663038 266.83589925 351.90946371 266.83987427 349.75262451 C266.84775998 345.10748346 266.85290692 340.46235008 266.85616493 335.81720352 C266.86207602 328.47217713 266.87861681 321.12719916 266.89750671 313.78219604 C266.90384395 311.26754191 266.91016957 308.75288775 266.91648388 306.23823357 C266.91964969 304.9789623 266.9228155 303.71969104 266.92607725 302.42226005 C266.9681583 285.32236809 267.00113805 268.22249889 267.01342773 251.12255859 C267.02180314 239.58748499 267.04427314 228.05253146 267.0827834 216.51751792 C267.10255856 210.41342583 267.11494365 204.3095133 267.10994911 198.20538712 C267.10530896 192.46465645 267.11907385 186.72426642 267.14696121 180.98360443 C267.1538831 178.87732689 267.15398888 176.77101421 267.14676094 174.6647377 C267.13788576 171.78781472 267.15354505 168.91201828 267.17524719 166.03518677 C267.16680466 165.20297863 267.15836212 164.37077049 267.14966375 163.51334393 C267.2286707 157.84397856 268.4181504 154.53791206 271.6875 149.875 C276.67709667 145.90368836 280.76476374 145.23654541 287.1015625 145.48828125 C292.11865162 146.23857101 294.75313517 148.81436965 298 152.5 C300.93359097 156.62875767 300.82633513 159.78148017 300.80775452 164.70828247 C300.80903615 165.93591145 300.80903615 165.93591145 300.81034368 167.18834102 C300.81199813 169.94605782 300.80647767 172.70371454 300.80102539 175.46142578 C300.80074349 177.43213906 300.80090132 179.40285245 300.8014679 181.37356567 C300.80175574 186.73692169 300.7958611 192.10025551 300.78889394 197.46360636 C300.78265824 203.06369827 300.78205643 208.66379065 300.78086853 214.2638855 C300.77775585 224.87444762 300.76954332 235.48499949 300.75951904 246.09555709 C300.74835594 258.17276047 300.74284695 270.24996432 300.73782361 282.32717156 C300.72736066 307.1764534 300.70976244 332.02572613 300.6875 356.875 C301.46344513 356.86833817 302.23939026 356.86167633 303.03884888 356.85481262 C310.36560072 356.79460238 317.69223191 356.74897545 325.01916695 356.71956348 C328.78567214 356.70393394 332.55197221 356.68274576 336.31835938 356.64868164 C339.95585002 356.61599065 343.59314385 356.5981266 347.23077011 356.59036827 C348.61580374 356.58484215 350.00082709 356.57405095 351.38577652 356.55780983 C353.33145821 356.53590872 355.27733961 356.53477352 357.22314453 356.53442383 C358.32900909 356.52776199 359.43487366 356.52110016 360.57424927 356.51423645 C364.82049866 357.0062919 368.19444092 358.48124176 371.33203125 361.41015625 C376.09890939 367.64376612 376.41218864 372.07694201 375.6875 379.875 C373.4008819 384.80002359 370.41275071 387.27129043 365.6875 389.875 C361.89724103 390.86098981 358.33500407 390.99648168 354.4284668 390.98852539 C353.18755783 390.98844986 351.94664886 390.98837433 350.6681366 390.98829651 C349.32433023 390.98319072 347.98052429 390.97797474 346.63671875 390.97265625 C345.25381013 390.97078965 343.87090085 390.96936689 342.48799133 390.96836853 C338.85975294 390.96456237 335.231555 390.95474843 331.60333252 390.94366455 C327.89636787 390.93340945 324.18939664 390.92886215 320.48242188 390.92382812 C313.21742954 390.91312435 305.95247045 390.8960709 298.6875 390.875 C298.49137619 391.48942963 298.29525238 392.10385925 298.09318542 392.73690796 C297.83064468 393.54479767 297.56810394 394.35268738 297.29760742 395.18505859 C297.03960861 395.98511322 296.7816098 396.78516785 296.51579285 397.60946655 C292.42927892 408.78683458 282.72752452 416.56688583 272.4140625 421.578125 C271.44206909 422.05693115 271.44206909 422.05693115 270.45043945 422.54541016 C268.86471189 423.32585119 267.27636714 424.10097072 265.6875 424.875 C265.67536972 425.84766563 265.67536972 425.84766563 265.66299438 426.83998108 C265.57676176 433.60502325 265.47725013 440.3697787 265.37011719 447.13452148 C265.33189635 449.65725886 265.29703158 452.18004945 265.265625 454.70288086 C265.21982515 458.33466577 265.1618543 461.96608652 265.1015625 465.59765625 C265.08423569 467.28242821 265.08423569 467.28242821 265.06655884 469.00123596 C264.81660046 482.34309675 264.81660046 482.34309675 260.375 487.625 C255.15152279 491.99814371 251.9487653 493.39951093 245.1171875 493.15625 C240.15232401 492.58153911 237.08840908 490.54485924 233.875 486.875 C230.98666229 482.91385114 230.56285477 480.34780333 230.57397461 475.57739258 C230.57405014 474.49649857 230.57412567 473.41560455 230.57420349 472.30195618 C230.58194542 470.55340584 230.58194542 470.55340584 230.58984375 468.76953125 C230.59196617 466.97801888 230.59196617 466.97801888 230.59413147 465.15031433 C230.5997365 461.32935092 230.61228989 457.50844575 230.625 453.6875 C230.63001435 451.09961022 230.63457737 448.51171952 230.63867188 445.92382812 C230.64885739 439.57417817 230.66843197 433.22465441 230.6875 426.875 C220.7875 426.875 210.8875 426.875 200.6875 426.875 C200.72230469 430.5359375 200.75710938 434.196875 200.79296875 437.96875 C200.8163915 441.52993999 200.83459266 445.09112127 200.85229492 448.65234375 C200.86734452 451.11983099 200.8877889 453.58729165 200.91381836 456.0546875 C200.95036926 459.60944191 200.96726518 463.16384139 200.98046875 466.71875 C200.99595261 467.81489624 201.01143646 468.91104248 201.02738953 470.04040527 C201.02876955 476.37723957 200.45375844 481.13830985 197.6875 486.875 C193.53091849 490.9250025 189.64335294 493.16025302 183.8125 493.1875 C178.68304799 493.05945201 175.00203429 492.1769553 171.25 488.4453125 C167.51177814 484.17609322 166.56105165 481.12134382 166.57397461 475.57739258 C166.57405014 474.49649857 166.57412567 473.41560455 166.57420349 472.30195618 C166.58194542 470.55340584 166.58194542 470.55340584 166.58984375 468.76953125 C166.59196617 466.97801888 166.59196617 466.97801888 166.59413147 465.15031433 C166.5997365 461.32935092 166.61228989 457.50844575 166.625 453.6875 C166.63001435 451.09961022 166.63457737 448.51171952 166.63867188 445.92382812 C166.64885739 439.57417817 166.66843197 433.22465441 166.6875 426.875 C156.7875 426.875 146.8875 426.875 136.6875 426.875 C136.73390625 430.608125 136.7803125 434.34125 136.828125 438.1875 C136.85935367 441.8181828 136.88362274 445.44885041 136.90722656 449.07958984 C136.92729516 451.59560891 136.9545563 454.11158161 136.98925781 456.62744141 C137.03798312 460.25174428 137.06051722 463.87542841 137.078125 467.5 C137.09877014 468.61802002 137.11941528 469.73604004 137.14068604 470.88793945 C137.1426285 477.7062401 136.35200648 482.07747261 132.6875 487.875 C127.82710674 492.49830091 123.76126544 493.23766602 117.2578125 493.15234375 C113.10225754 492.703948 111.03031495 491.41553936 107.6875 488.875 C104.00593387 484.12771735 102.55984241 480.61884514 102.57397461 474.66918945 C102.57405014 473.60831619 102.57412567 472.54744293 102.57420349 471.454422 C102.57936478 470.31059555 102.58452606 469.1667691 102.58984375 467.98828125 C102.59196617 466.23006294 102.59196617 466.23006294 102.59413147 464.43632507 C102.59973612 460.68669093 102.61228944 456.93711615 102.625 453.1875 C102.6300144 450.64778732 102.63457741 448.1080737 102.63867188 445.56835938 C102.64885684 439.33719822 102.66843149 433.10616569 102.6875 426.875 C92.7875 426.875 82.8875 426.875 72.6875 426.875 C72.73390625 430.69191406 72.7803125 434.50882812 72.828125 438.44140625 C72.8593419 442.14817984 72.88361769 445.85493865 72.90722656 449.56176758 C72.92731149 452.13312359 72.95458479 454.70443409 72.98925781 457.27563477 C73.03791081 460.97683966 73.06050083 464.67743933 73.078125 468.37890625 C73.09877014 469.52396133 73.11941528 470.66901642 73.14068604 471.84877014 C73.14252956 478.44242254 72.66426888 482.53581956 68.6875 487.875 C63.80815644 492.39731842 59.81417818 493.28903399 53.328125 493.22265625 C48.99629848 492.65234181 45.93227878 490.72978133 42.6875 487.875 C39.24837268 483.32647677 38.56038205 479.24759545 38.57397461 473.64746094 C38.57405014 472.60668396 38.57412567 471.56590698 38.57420349 470.49359131 C38.57936478 469.37679993 38.58452606 468.26000854 38.58984375 467.109375 C38.59196617 465.38657318 38.59196617 465.38657318 38.59413147 463.62896729 C38.59972857 459.96095169 38.61228056 456.29299715 38.625 452.625 C38.63001537 450.13802171 38.63457822 447.65104247 38.63867188 445.1640625 C38.6488461 439.06766589 38.66842225 432.97140129 38.6875 426.875 C28.7875 426.875 18.8875 426.875 8.6875 426.875 C8.72230469 430.70351563 8.75710937 434.53203125 8.79296875 438.4765625 C8.81637382 442.18993382 8.83458507 445.90329689 8.85229492 449.61669922 C8.86736905 452.19486171 8.88783167 454.77299862 8.91381836 457.35107422 C8.95026086 461.05963461 8.96724052 464.76785554 8.98046875 468.4765625 C8.99595261 469.62677887 9.01143646 470.77699524 9.02738953 471.96206665 C9.02876045 478.50029223 8.80125032 483.46122686 4.1875 488.51953125 C-0.82180355 492.42000459 -4.45595769 493.28626944 -10.671875 493.22265625 C-16.10503548 492.5073437 -19.95176107 489.63079216 -23.25 485.375 C-25.05957003 481.11718817 -25.4410628 477.03674114 -25.51782227 472.44213867 C-25.5477401 470.85105537 -25.5477401 470.85105537 -25.57826233 469.22782898 C-25.59497482 468.0943251 -25.61168732 466.96082123 -25.62890625 465.79296875 C-25.64968735 464.62365311 -25.67046844 463.45433746 -25.69187927 462.24958801 C-25.75717414 458.52061747 -25.81616659 454.79157753 -25.875 451.0625 C-25.91820429 448.53189391 -25.96181919 446.0012948 -26.00585938 443.47070312 C-26.112835 437.27220842 -26.21463848 431.07364494 -26.3125 424.875 C-27.73381226 424.19099121 -27.73381226 424.19099121 -29.18383789 423.49316406 C-30.44694103 422.87598594 -31.70987134 422.258454 -32.97265625 421.640625 C-33.59483032 421.34236816 -34.21700439 421.04411133 -34.85803223 420.73681641 C-44.97404772 415.76009511 -52.30727692 407.97076247 -57.3125 397.875 C-58.00046557 395.54785749 -58.66954682 393.21497865 -59.3125 390.875 C-60.06925522 390.88166183 -60.82601044 390.88832367 -61.60569763 390.89518738 C-68.76963682 390.95552907 -75.93345116 391.00109075 -83.097579 391.03043652 C-86.77992616 391.04603114 -90.4620617 391.06715433 -94.14428711 391.10131836 C-97.70398575 391.13413541 -101.26348203 391.15189956 -104.82332039 391.15963173 C-106.82893174 391.1677971 -108.83446273 391.19118017 -110.83995056 391.21488953 C-126.60297624 391.21776859 -126.60297624 391.21776859 -131.92405701 386.42277527 C-136.40346418 381.22769082 -136.6575437 377.52581672 -136.59375 370.859375 C-136.09404276 365.55692591 -133.5617295 363.00235345 -129.75 359.5625 C-110.97928431 346.56738914 -84.14258265 356.875 -61.3125 356.875 C-61.3125 283.615 -61.3125 210.355 -61.3125 134.875 C-82.1025 134.875 -102.8925 134.875 -124.3125 134.875 C-130.2959514 131.8832743 -133.32415208 129.85169585 -136.3125 123.875 C-136.81752343 118.34457948 -137.05057257 113.46469476 -134.6875 108.375 C-129.75644197 103.1844126 -125.43712383 101.04285083 -118.35746765 100.75474548 C-116.72198723 100.7580764 -116.72198723 100.7580764 -115.0534668 100.76147461 C-113.81255783 100.76155014 -112.57164886 100.76162567 -111.2931366 100.76170349 C-109.94933023 100.76680928 -108.60552429 100.77202526 -107.26171875 100.77734375 C-105.87881013 100.77921035 -104.49590085 100.78063311 -103.11299133 100.78163147 C-99.48475294 100.78543763 -95.856555 100.79525157 -92.22833252 100.80633545 C-88.52136787 100.81659055 -84.81439664 100.82113785 -81.10742188 100.82617188 C-73.84242954 100.83687565 -66.57747045 100.8539291 -59.3125 100.875 C-59.11515259 100.25975464 -58.91780518 99.64450928 -58.71447754 99.01062012 C-58.31923889 97.79783386 -58.31923889 97.79783386 -57.91601562 96.56054688 C-57.65679321 95.75967651 -57.3975708 94.95880615 -57.13049316 94.13366699 C-53.51689197 84.15568418 -44.03827839 75.08102319 -34.59382629 70.57907104 C-33.61000473 70.1390274 -32.62618317 69.69898376 -31.61254883 69.24560547 C-30.62047928 68.8002243 -29.62840973 68.35484314 -28.60627747 67.89596558 C-27.47085762 67.39058762 -27.47085762 67.39058762 -26.3125 66.875 C-26.30441315 66.22655624 -26.29632629 65.57811249 -26.28799438 64.91001892 C-26.20176176 58.14497675 -26.10225013 51.3802213 -25.99511719 44.61547852 C-25.95689635 42.09274114 -25.92203158 39.56995055 -25.890625 37.04711914 C-25.84482515 33.41533423 -25.7868543 29.78391348 -25.7265625 26.15234375 C-25.71501129 25.02916245 -25.70346008 23.90598114 -25.69155884 22.74876404 C-25.54108447 14.7169942 -25.2966976 7.8591976 -19.3125 1.875 C-13.3717926 -2.22691702 -6.68479924 -2.27030918 0 0 Z " fill="#000000" transform="translate(136.3125,10.125)"/>
<path d="M0 0 C11.8982968 6.03997509 16.12332572 27.08261365 20.546875 38.6640625 C21.81165615 41.9549861 23.07861547 45.24506609 24.34564209 48.53512573 C25.21208999 50.78545228 26.0778485 53.03604439 26.94293213 55.28689575 C30.89372739 65.56217425 34.90431201 75.81348053 38.92767334 86.06051636 C40.04294903 88.90405275 41.15513939 91.7487745 42.26611328 94.59399414 C42.62937714 95.5242894 42.99264099 96.45458466 43.36691284 97.41307068 C44.09293981 99.27240978 44.81895312 101.13175421 45.54495239 102.99110413 C47.73060486 108.5819702 49.93581511 114.16468459 52.1550293 119.74230957 C53.5837352 123.34032685 55.00030681 126.94304337 56.41442871 130.54681396 C57.07665013 132.22611857 57.74422365 133.90332425 58.41760254 135.57818604 C59.34200126 137.87886353 60.24717336 140.18627428 61.1484375 142.49609375 C61.55477921 143.48672066 61.55477921 143.48672066 61.96932983 144.49736023 C64.01789787 149.83938881 65.08455449 155.74200401 63.08071899 161.26179504 C60.45078562 166.24300238 57.13064265 169.51113995 51.796875 171.2890625 C45.64235129 172.05427859 40.6478418 171.70266273 35.53515625 168.00390625 C28.57986143 161.14239069 25.91770674 148.61128047 22.796875 140.2890625 C-6.903125 139.7940625 -6.903125 139.7940625 -37.203125 139.2890625 C-38.193125 142.2590625 -39.183125 145.2290625 -40.203125 148.2890625 C-41.15813049 150.88667743 -42.12768575 153.46506833 -43.140625 156.0390625 C-43.49930664 156.98845703 -43.49930664 156.98845703 -43.86523438 157.95703125 C-45.89588067 163.11133662 -48.2414367 166.93456344 -52.828125 170.1015625 C-57.95431592 171.90522227 -63.03674331 172.35253415 -68.26171875 170.59765625 C-73.56201015 167.87342046 -76.35574123 163.83121382 -78.203125 158.2890625 C-78.56463693 152.99301254 -77.65273808 148.92488662 -75.66796875 144.078125 C-75.11155154 142.65928353 -74.55541153 141.24033333 -73.99951172 139.82128906 C-73.70486023 139.08092407 -73.41020874 138.34055908 -73.10662842 137.57775879 C-71.89012152 134.49618237 -70.72297798 131.39692282 -69.55593872 128.29634094 C-62.16762351 108.6677657 -54.61236783 89.10596622 -46.87182617 69.61376953 C-43.50763605 61.13972385 -40.1730298 52.65542424 -36.8828125 44.15234375 C-36.15690842 42.2793754 -35.43099701 40.40640988 -34.70507812 38.53344727 C-33.65361537 35.81984752 -32.60374432 33.10569315 -31.55932617 30.38937378 C-21.2894018 3.68130827 -21.2894018 3.68130827 -14.44140625 0.0703125 C-9.48973814 -1.65801843 -4.9787754 -1.6066261 0 0 Z M-8.203125 64.2890625 C-10.34589539 69.64332901 -12.48195915 75.00020283 -14.61181641 80.35961914 C-15.33751044 82.1829457 -16.06504085 84.00554247 -16.79443359 85.82739258 C-17.84173998 88.44423363 -18.88244244 91.06361689 -19.921875 93.68359375 C-20.24998169 94.49931351 -20.57808838 95.31503326 -20.9161377 96.1554718 C-21.36660461 97.29631477 -21.36660461 97.29631477 -21.82617188 98.46020508 C-22.09264526 99.12860916 -22.35911865 99.79701324 -22.63366699 100.485672 C-23.35368257 102.45066246 -23.35368257 102.45066246 -23.203125 105.2890625 C-12.643125 105.2890625 -2.083125 105.2890625 8.796875 105.2890625 C7.96868581 100.11782362 7.96868581 100.11782362 6.39819336 95.39501953 C6.11797836 94.6947464 5.83776337 93.99447327 5.54905701 93.27297974 C5.24798538 92.53836517 4.94691376 91.80375061 4.63671875 91.046875 C4.17272423 89.89431717 4.17272423 89.89431717 3.69935608 88.71847534 C2.71670498 86.2813319 1.72568546 83.84769479 0.734375 81.4140625 C0.06389633 79.7554333 -0.60603149 78.09658131 -1.27539062 76.4375 C-2.91160405 72.38541434 -4.55532776 68.33645061 -6.203125 64.2890625 C-6.863125 64.2890625 -7.523125 64.2890625 -8.203125 64.2890625 Z " fill="#000000" transform="translate(210.203125,170.7109375)"/>
<path d="M0 0 C1.09511398 -0.01606293 2.19022797 -0.03212585 3.31852722 -0.04867554 C8.33181088 -0.0932229 13.34496299 -0.13419918 18.35839844 -0.15722656 C20.99943868 -0.1737726 23.64043439 -0.20104429 26.28125 -0.23925781 C30.09439265 -0.29413691 33.90648583 -0.31592009 37.7199707 -0.33056641 C38.8942009 -0.35323578 40.06843109 -0.37590515 41.27824402 -0.39926147 C48.26885976 -0.3813265 53.35347647 0.35924462 58.64575195 5.19287109 C61.79666997 9.86842686 63.24281628 14.82496454 62.2434082 20.46240234 C60.69261836 25.99569391 58.65223982 29.07562393 53.64575195 32.19287109 C48.8008963 34.0302415 44.90801279 34.19287109 39.64575195 34.19287109 C39.64575195 68.51287109 39.64575195 102.83287109 39.64575195 138.19287109 C43.60575195 138.52287109 47.56575195 138.85287109 51.64575195 139.19287109 C56.52595666 141.54582693 59.15401344 144.39396728 61.64575195 149.19287109 C63.1223543 155.29616079 62.73034611 159.67369305 59.64575195 165.19287109 C56.29700983 169.1426695 53.33069984 171.92015588 48.07913208 172.4535675 C46.62735062 172.46047859 46.62735062 172.46047859 45.14624023 172.4675293 C44.0447464 172.47706131 42.94325256 172.48659332 41.80838013 172.49641418 C40.62291595 172.49550278 39.43745178 172.49459137 38.21606445 172.49365234 C36.38143143 172.50008003 36.38143143 172.50008003 34.50973511 172.50663757 C31.92243061 172.51238081 29.33510997 172.51288119 26.74780273 172.50854492 C22.79293176 172.50538879 18.83881147 172.52883229 14.8840332 172.55419922 C12.36971123 172.5564726 9.85538725 172.55717553 7.34106445 172.55615234 C6.15964874 172.56536209 4.97823303 172.57457184 3.76101685 172.58406067 C-2.83656545 172.5469646 -7.89503619 172.34806671 -12.9987793 167.69287109 C-17.27760438 162.19765761 -17.98269235 157.97774202 -17.35424805 151.19287109 C-15.56556102 146.02555301 -12.82394486 143.28727658 -8.35424805 140.19287109 C-3.21910527 138.23218021 -0.07152354 138.19287109 5.64575195 138.19287109 C5.64575195 103.87287109 5.64575195 69.55287109 5.64575195 34.19287109 C3.33575195 34.19287109 1.02575195 34.19287109 -1.35424805 34.19287109 C-7.56922838 33.1487544 -11.37268128 30.83618899 -15.26049805 25.91162109 C-17.96268285 21.66533069 -17.93572346 17.04657559 -17.35424805 12.19287109 C-15.61871032 7.35411646 -12.6078944 4.02863533 -8.35424805 1.19287109 C-5.31287946 0.17908157 -3.18539 0.04249339 0 0 Z " fill="#000000" transform="translate(303.354248046875,169.80712890625)"/>
<path d="M0 0 C0.86936691 -0.00570007 1.73873383 -0.01140015 2.63444519 -0.01727295 C4.47446477 -0.02671778 6.31450123 -0.03325488 8.15454102 -0.03710938 C10.95945019 -0.04680237 13.76362254 -0.0778251 16.56835938 -0.109375 C18.35806858 -0.11590668 20.14778301 -0.1211565 21.9375 -0.125 C23.18935844 -0.1435202 23.18935844 -0.1435202 24.46650696 -0.16241455 C30.13840965 -0.1408867 34.49756729 0.71032744 38.8125 4.73828125 C43.57937814 10.97189112 43.89265739 15.40506701 43.16796875 23.203125 C40.87167416 28.14899026 37.8547301 30.51073018 33.16796875 33.203125 C29.36509982 34.47074798 25.77259737 34.3850263 21.80859375 34.40625 C20.57468903 34.41480011 20.57468903 34.41480011 19.31585693 34.42352295 C17.57419111 34.43296723 15.83250747 34.43950466 14.09082031 34.44335938 C11.44173466 34.45303817 8.79343397 34.48405521 6.14453125 34.515625 C4.44922334 34.52215821 2.7539099 34.52740743 1.05859375 34.53125 C0.2729303 34.5435968 -0.51273315 34.5559436 -1.32220459 34.56866455 C-7.88970784 34.54240511 -12.51380273 33.1607402 -17.64453125 28.828125 C-21.22790854 24.52807225 -22.31585153 20.98849541 -22.14453125 15.32421875 C-21.34269375 9.88174673 -19.03184755 6.15808083 -14.76953125 2.765625 C-9.78428634 0.11389898 -5.52508249 0.02793204 0 0 Z " fill="#000000" transform="translate(468.83203125,302.796875)"/>
<path d="M0 0 C0.86462357 -0.00807175 1.72924713 -0.01614349 2.62007141 -0.02445984 C4.4516907 -0.03828957 6.28333564 -0.0490167 8.11499023 -0.05688477 C9.97997638 -0.06838603 11.84493009 -0.08880841 13.7097168 -0.1184082 C16.41087108 -0.16128367 19.11104676 -0.17728305 21.8125 -0.1875 C22.63674973 -0.20500809 23.46099945 -0.22251617 24.31022644 -0.24055481 C30.02679864 -0.21939945 34.50494067 0.92654285 39.23828125 4.23828125 C43.03040943 9.00274999 44.61732521 12.91096246 44.515625 19.046875 C43.82649947 24.49193725 41.44415574 28.25850823 37.23828125 31.67578125 C32.12938756 34.33666338 27.50689233 34.42304593 21.81640625 34.4765625 C20.99758972 34.48463425 20.17877319 34.49270599 19.33514404 34.50102234 C17.60365903 34.51483179 15.87214715 34.52556794 14.140625 34.53344727 C12.3794755 34.54495699 10.6183606 34.56539295 8.85742188 34.5949707 C6.3018442 34.63786722 3.74730029 34.65384656 1.19140625 34.6640625 C0.41404114 34.68157059 -0.36332397 34.69907867 -1.16424561 34.71711731 C-6.78908542 34.69509612 -11.0605126 33.37483374 -15.76171875 30.23828125 C-20.70316054 24.91672856 -21.11098239 21.33008209 -21.04296875 14.22265625 C-20.54326151 8.92020716 -18.01094825 6.3656347 -14.19921875 2.92578125 C-9.67388846 -0.20713972 -5.30473649 0.0469644 0 0 Z " fill="#000000" transform="translate(20.76171875,302.76171875)"/>
<path d="M0 0 C0.81881653 -0.00807175 1.63763306 -0.01614349 2.48126221 -0.02445984 C4.21274722 -0.03826929 5.9442591 -0.04900544 7.67578125 -0.05688477 C9.43693075 -0.06839449 11.19804565 -0.08883045 12.95898438 -0.1184082 C15.51456205 -0.16130472 18.06910596 -0.17728406 20.625 -0.1875 C21.79104767 -0.21376213 21.79104767 -0.21376213 22.98065186 -0.24055481 C28.60549167 -0.21853362 32.87691885 1.10172876 37.578125 4.23828125 C42.51956679 9.55983394 42.92738864 13.14648041 42.859375 20.25390625 C42.35966776 25.55635534 39.8273545 28.1109278 36.015625 31.55078125 C31.49029471 34.68370222 27.12114274 34.4295981 21.81640625 34.4765625 C20.5194709 34.48867012 20.5194709 34.48867012 19.19633484 34.50102234 C17.36471555 34.51485207 15.53307061 34.5255792 13.70141602 34.53344727 C11.83642987 34.54494853 9.97147616 34.56537091 8.10668945 34.5949707 C5.40553517 34.63784617 2.70535949 34.65384555 0.00390625 34.6640625 C-0.82034348 34.68157059 -1.6445932 34.69907867 -2.49382019 34.71711731 C-8.21039239 34.69596195 -12.68853442 33.55001965 -17.421875 30.23828125 C-21.21400318 25.47381251 -22.80091896 21.56560004 -22.69921875 15.4296875 C-22.01009322 9.98462525 -19.62774949 6.21805427 -15.421875 2.80078125 C-10.31298131 0.13989912 -5.69048608 0.05351657 0 0 Z " fill="#000000" transform="translate(469.421875,174.76171875)"/>
<path d="M0 0 C1.23390472 -0.00855011 1.23390472 -0.00855011 2.49273682 -0.01727295 C4.23440264 -0.02671723 5.97608628 -0.03325466 7.71777344 -0.03710938 C10.36685909 -0.04678817 13.01515978 -0.07780521 15.6640625 -0.109375 C17.35937041 -0.11590821 19.05468385 -0.12115743 20.75 -0.125 C21.53566345 -0.1373468 22.3213269 -0.1496936 23.13079834 -0.16241455 C29.69830159 -0.13615511 34.32239648 1.2455098 39.453125 5.578125 C43.03650229 9.87817775 44.12444528 13.41775459 43.953125 19.08203125 C43.1512875 24.52450327 40.8404413 28.24816917 36.578125 31.640625 C31.59288009 34.29235102 27.33367624 34.37831796 21.80859375 34.40625 C20.50454338 34.41480011 20.50454338 34.41480011 19.17414856 34.42352295 C17.33412898 34.43296778 15.49409252 34.43950488 13.65405273 34.44335938 C10.84914356 34.45305237 8.04497121 34.4840751 5.24023438 34.515625 C3.45052517 34.52215668 1.66081074 34.5274065 -0.12890625 34.53125 C-1.38076469 34.5497702 -1.38076469 34.5497702 -2.65791321 34.56866455 C-8.3298159 34.5471367 -12.68897354 33.69592256 -17.00390625 29.66796875 C-21.77078439 23.43435888 -22.08406364 19.00118299 -21.359375 11.203125 C-19.06308041 6.25725974 -16.04613635 3.89551982 -11.359375 1.203125 C-7.55650607 -0.06449798 -3.96400362 0.0212237 0 0 Z " fill="#000000" transform="translate(21.359375,174.796875)"/>
<path d="M0 0 C0.84479919 -0.00570007 1.68959839 -0.01140015 2.55999756 -0.01727295 C4.34874217 -0.026718 6.13750414 -0.03325497 7.92626953 -0.03710938 C10.64777484 -0.04678928 13.36851647 -0.07780622 16.08984375 -0.109375 C17.8307247 -0.11590806 19.57161103 -0.12115734 21.3125 -0.125 C22.52380585 -0.1435202 22.52380585 -0.1435202 23.75958252 -0.16241455 C29.6137169 -0.13961557 34.60971695 0.72514716 39.1640625 4.73828125 C43.8027659 10.99253308 44.15219305 15.45363906 43.421875 23.203125 C41.27017159 27.66591726 38.51686714 30.4390053 34.421875 33.203125 C30.27061132 34.49364497 26.09146973 34.40196876 21.78125 34.44140625 C20.94023743 34.449478 20.09922485 34.45754974 19.23272705 34.46586609 C17.45416303 34.47967712 15.67557285 34.49041257 13.89697266 34.49829102 C12.08732275 34.50980196 10.27770656 34.53023982 8.46826172 34.55981445 C5.84319156 34.60269523 3.21912785 34.61868828 0.59375 34.62890625 C-0.20548889 34.64641434 -1.00472778 34.66392242 -1.82818604 34.68196106 C-7.47461257 34.66043216 -11.90028501 33.45849126 -16.578125 30.203125 C-20.37025318 25.43865626 -21.95716896 21.53044379 -21.85546875 15.39453125 C-21.16233955 9.91783432 -18.7808614 6.160405 -14.515625 2.765625 C-9.60347551 0.15277953 -5.44389077 0.0283655 0 0 Z " fill="#000000" transform="translate(468.578125,238.796875)"/>
<path d="M0 0 C0.84101257 -0.00807175 1.68202515 -0.01614349 2.54852295 -0.02445984 C4.32708697 -0.03827087 6.10567715 -0.04900632 7.88427734 -0.05688477 C9.69392725 -0.06839571 11.50354344 -0.08883357 13.31298828 -0.1184082 C15.93805844 -0.16128898 18.56212215 -0.17728203 21.1875 -0.1875 C22.38635834 -0.21376213 22.38635834 -0.21376213 23.60943604 -0.24055481 C29.25586257 -0.21902591 33.68153501 0.98291499 38.359375 4.23828125 C42.15150318 9.00274999 43.73841896 12.91096246 43.63671875 19.046875 C42.94358955 24.52357193 40.5621114 28.28100125 36.296875 31.67578125 C31.38472551 34.28862672 27.22514077 34.41304075 21.78125 34.44140625 C20.93645081 34.44710632 20.09165161 34.4528064 19.22125244 34.4586792 C17.43250783 34.46812425 15.64374586 34.47466122 13.85498047 34.47851562 C11.13347516 34.48819553 8.41273353 34.51921247 5.69140625 34.55078125 C3.9505253 34.55731431 2.20963897 34.56256359 0.46875 34.56640625 C-0.33878723 34.57875305 -1.14632446 34.59109985 -1.97833252 34.6038208 C-7.8324669 34.58102182 -12.82846695 33.71625909 -17.3828125 29.703125 C-22.0215159 23.44887317 -22.37094305 18.98776719 -21.640625 11.23828125 C-19.48892159 6.77548899 -16.73561714 4.00240095 -12.640625 1.23828125 C-8.48936132 -0.05223872 -4.31021973 0.03943749 0 0 Z " fill="#000000" transform="translate(21.640625,238.76171875)"/>
</svg>
