<?xml version="1.0" encoding="UTF-8"?>
<svg version="1.1" xmlns="http://www.w3.org/2000/svg" width="256" height="256">
<path d="M0 0 C1.03125 0.433125 2.0625 0.86625 3.125 1.3125 C7.63462173 2.72175679 12.11278623 3.70989573 16.75 4.625 C32.61903379 7.99064874 45.79650902 14.91954003 58.125 25.3125 C58.95644531 25.95058594 59.78789062 26.58867188 60.64453125 27.24609375 C77.84682938 41.57682715 86.90500543 64.66410994 88.9375 86.4375 C89.88016971 106.37701374 86.20088788 129.73409788 72.56762695 145.21679688 C69.01942568 150.20028369 69.41489565 155.37939755 69.453125 161.30078125 C69.44037537 162.44032761 69.42762573 163.57987396 69.41448975 164.75395203 C69.37827226 168.37788999 69.37548119 172.00089717 69.375 175.625 C69.35339947 179.26660909 69.32498257 182.90807746 69.29266357 186.54960632 C69.2748734 188.81210143 69.26461522 191.07467043 69.26251221 193.3372345 C69.25680206 194.86473579 69.25680206 194.86473579 69.25097656 196.4230957 C69.25051331 197.32131546 69.25005005 198.21953522 69.24957275 199.14497375 C69.125 201.3125 69.125 201.3125 68.125 203.3125 C22.915 203.3125 -22.295 203.3125 -68.875 203.3125 C-69.205 187.1425 -69.535 170.9725 -69.875 154.3125 C-72.845 150.3525 -75.815 146.3925 -78.875 142.3125 C-80.45019624 139.64431046 -81.8737057 137.1477552 -83.1875 134.375 C-83.51379395 133.69808105 -83.84008789 133.02116211 -84.17626953 132.32373047 C-94.98237902 109.32223178 -95.1459439 84.14580889 -86.875 60.3125 C-83.27324545 51.08008408 -77.9906327 43.05557758 -71.875 35.3125 C-71.43027344 34.70277344 -70.98554687 34.09304687 -70.52734375 33.46484375 C-56.99493338 15.95961566 -34.39169801 6.42316939 -13.125 3.1875 C-12.22265625 3.08179688 -11.3203125 2.97609375 -10.390625 2.8671875 C-7.73922078 2.42327092 -7.73922078 2.42327092 -5.2265625 0.71484375 C-2.875 -0.6875 -2.875 -0.6875 0 0 Z " fill="#8192A5" transform="translate(129.875,46.6875)"/>
<path d="M0 0 C1.03125 0.433125 2.0625 0.86625 3.125 1.3125 C7.63462173 2.72175679 12.11278623 3.70989573 16.75 4.625 C32.61903379 7.99064874 45.79650902 14.91954003 58.125 25.3125 C58.95644531 25.95058594 59.78789062 26.58867188 60.64453125 27.24609375 C77.84682938 41.57682715 86.90500543 64.66410994 88.9375 86.4375 C90.01153296 109.1556319 84.46874428 132.86961155 69.125 150.3125 C68.795 150.3125 68.465 150.3125 68.125 150.3125 C68.11469254 149.71337296 68.10438507 149.11424591 68.09376526 148.4969635 C67.98593035 142.28439912 67.87131456 136.07198659 67.75268555 129.85961914 C67.70926261 127.53836227 67.66759316 125.21707192 67.62768555 122.89575195 C67.5701606 119.56711722 67.50641575 116.23865215 67.44140625 112.91015625 C67.41633751 111.34298607 67.41633751 111.34298607 67.39076233 109.74415588 C67.37081711 108.78323532 67.35087189 107.82231476 67.33032227 106.83227539 C67.31477798 105.98178116 67.2992337 105.13128693 67.28321838 104.25502014 C67.33555171 102.30726202 67.33555171 102.30726202 66.125 101.3125 C63.31523482 101.15232834 60.52726404 101.05299466 57.71484375 100.99609375 C56.87280899 100.97531265 56.03077423 100.95453156 55.16322327 100.93312073 C52.46306821 100.86753188 49.76281283 100.80869724 47.0625 100.75 C45.23631759 100.70682363 43.41014546 100.66320964 41.58398438 100.61914062 C37.09776008 100.51184106 32.6114345 100.41060034 28.125 100.3125 C28.1095388 99.48897789 28.1095388 99.48897789 28.09376526 98.64881897 C27.98592053 92.95528719 27.87130551 87.26192079 27.75268555 81.56860352 C27.70926577 79.44135993 27.66759607 77.3140799 27.62768555 75.18676758 C27.57015293 72.13611849 27.50641033 69.08565411 27.44140625 66.03515625 C27.42469376 65.07787125 27.40798126 64.12058624 27.39076233 63.1342926 C27.3608445 61.81303627 27.3608445 61.81303627 27.33032227 60.46508789 C27.30700584 59.2959359 27.30700584 59.2959359 27.28321838 58.10316467 C27.31610881 56.28956647 27.31610881 56.28956647 26.125 55.3125 C24.61030552 55.08057135 23.08745438 54.90034762 21.5625 54.75 C20.73621094 54.66621094 19.90992188 54.58242187 19.05859375 54.49609375 C18.42050781 54.43550781 17.78242188 54.37492187 17.125 54.3125 C17.06441406 53.61382812 17.00382812 52.91515625 16.94140625 52.1953125 C16.85761719 51.28523438 16.77382812 50.37515625 16.6875 49.4375 C16.60628906 48.53257813 16.52507812 47.62765625 16.44140625 46.6953125 C16.25510715 44.30139139 16.25510715 44.30139139 15.125 42.3125 C12.07918731 41.84295739 12.07918731 41.84295739 8.5625 41.6875 C7.36496094 41.61273438 6.16742188 41.53796875 4.93359375 41.4609375 C4.00675781 41.41195312 3.07992187 41.36296875 2.125 41.3125 C1.63 35.3725 1.63 35.3725 1.125 29.3125 C-0.525 28.9825 -2.175 28.6525 -3.875 28.3125 C-5.68615956 30.12365956 -5.25699448 32.92528227 -5.4375 35.375 C-5.52128906 36.47972656 -5.60507813 37.58445313 -5.69140625 38.72265625 C-5.75199219 39.57730469 -5.81257813 40.43195313 -5.875 41.3125 C-6.72964844 41.37308594 -7.58429688 41.43367188 -8.46484375 41.49609375 C-9.56957031 41.57988281 -10.67429687 41.66367188 -11.8125 41.75 C-12.91464844 41.83121094 -14.01679687 41.91242188 -15.15234375 41.99609375 C-17.78609903 42.01668084 -17.78609903 42.01668084 -18.875 43.3125 C-19.10863881 45.16141946 -19.28803635 47.01738031 -19.4375 48.875 C-19.52128906 49.88691406 -19.60507813 50.89882812 -19.69140625 51.94140625 C-19.75199219 52.72386719 -19.81257813 53.50632813 -19.875 54.3125 C-20.58527344 54.37308594 -21.29554687 54.43367188 -22.02734375 54.49609375 C-22.94644531 54.57988281 -23.86554688 54.66367188 -24.8125 54.75 C-25.72902344 54.83121094 -26.64554687 54.91242188 -27.58984375 54.99609375 C-29.83659732 55.07294976 -29.83659732 55.07294976 -30.875 56.3125 C-30.99911582 58.55107356 -31.05303023 60.79355484 -31.08032227 63.03540039 C-31.09022186 63.7378035 -31.10012146 64.4402066 -31.11032104 65.16389465 C-31.14202122 67.49594704 -31.16672688 69.82801984 -31.19140625 72.16015625 C-31.21196844 73.77299035 -31.23296471 75.38581896 -31.25437927 76.99864197 C-31.30967592 81.25159275 -31.35905156 85.50459277 -31.40722656 89.75762939 C-31.45738631 94.09432375 -31.51310115 98.43094627 -31.56835938 102.76757812 C-31.67603375 111.28249141 -31.77745795 119.79746465 -31.875 128.3125 C-32.8944873 128.33755615 -33.91397461 128.3626123 -34.96435547 128.38842773 C-38.74020354 128.48247004 -42.51586627 128.58269837 -46.29150391 128.68481445 C-47.92687653 128.72817538 -49.56229477 128.76984961 -51.19775391 128.80981445 C-53.54603841 128.86748912 -55.89409304 128.93119129 -58.2421875 128.99609375 C-59.34226639 129.02116249 -59.34226639 129.02116249 -60.46456909 129.04673767 C-64.29702308 129.09887962 -64.29702308 129.09887962 -67.875 130.3125 C-68.205 138.2325 -68.535 146.1525 -68.875 154.3125 C-84.95240665 138.23509335 -92.60632862 115.9531267 -92.89794922 93.40820312 C-92.66086639 71.75800067 -85.16757686 52.32157284 -71.875 35.3125 C-71.42898437 34.70019531 -70.98296875 34.08789062 -70.5234375 33.45703125 C-56.97509538 15.96055262 -34.39856804 6.42421465 -13.125 3.1875 C-12.22265625 3.08179688 -11.3203125 2.97609375 -10.390625 2.8671875 C-7.73922078 2.42327092 -7.73922078 2.42327092 -5.2265625 0.71484375 C-2.875 -0.6875 -2.875 -0.6875 0 0 Z " fill="#60B7FE" transform="translate(129.875,46.6875)"/>
<path d="M0 0 C2.64 0 5.28 0 8 0 C8.01213028 1.53429153 8.01213028 1.53429153 8.02450562 3.09957886 C8.10187839 12.72342667 8.1895949 22.34713155 8.28752708 31.97079277 C8.33754421 36.91881361 8.3838736 41.86681254 8.421875 46.81494141 C8.4586596 51.58717966 8.50500057 56.3592369 8.55806351 61.13132095 C8.57664387 62.95500651 8.59173826 64.77873093 8.60334396 66.60247421 C8.6201444 69.15037456 8.64916358 71.69785702 8.68115234 74.24560547 C8.68331253 75.00517548 8.68547272 75.76474548 8.68769836 76.54733276 C8.62027029 80.73060566 8.62027029 80.73060566 11 84 C12.32 84 13.64 84 15 84 C16.54535511 80.90928978 16.17960453 77.63967134 16.20532227 74.24560547 C16.22017166 73.04547821 16.22017166 73.04547821 16.23532104 71.82110596 C16.26697262 69.16983017 16.29170789 66.51853644 16.31640625 63.8671875 C16.33697262 62.03158089 16.35796901 60.19597904 16.37937927 58.36038208 C16.43463268 53.52382261 16.48402752 48.68722017 16.53222656 43.85058594 C16.58241774 38.9172787 16.63811623 33.98403404 16.69335938 29.05078125 C16.80098092 19.36724092 16.90241701 9.68364632 17 0 C18.65 0 20.3 0 22 0 C22.33 27.39 22.66 54.78 23 83 C24.65 83.33 26.3 83.66 28 84 C29.99657574 82.00342426 29.18493427 78.00387402 29.20532227 75.26733398 C29.22017166 74.05279541 29.22017166 74.05279541 29.23532104 72.8137207 C29.26702987 70.12454195 29.29173035 67.4353455 29.31640625 64.74609375 C29.33696769 62.88663766 29.35796394 61.02718632 29.37937927 59.16773987 C29.43468366 54.26376185 29.4840559 49.35974107 29.53222656 44.45568848 C29.58238066 39.45544612 29.63809845 34.45526618 29.69335938 29.45507812 C29.80104321 19.63677201 29.90246532 9.81841181 30 0 C33.3 0 36.6 0 40 0 C40.75101116 21.91714207 41.10797049 43.81966174 41.125 65.75 C41.12749756 66.89393219 41.12999512 68.03786438 41.13256836 69.21646118 C41.13842011 72.47246386 41.13699278 75.72837144 41.1328125 78.984375 C41.13479645 79.96913315 41.1367804 80.9538913 41.13882446 81.9684906 C41.13571259 82.86801956 41.13260071 83.76754852 41.12939453 84.69433594 C41.12859894 85.48128845 41.12780334 86.26824097 41.12698364 87.07904053 C41 89 41 89 40 91 C26.8 91 13.6 91 0 91 C0 60.97 0 30.94 0 0 Z " fill="#8192A5" transform="translate(158,159)"/>
<path d="M0 0 C0.90427734 -0.00644531 1.80855469 -0.01289063 2.74023438 -0.01953125 C3.67287109 -0.00019531 4.60550781 0.01914063 5.56640625 0.0390625 C6.95956055 0.01005859 6.95956055 0.01005859 8.38085938 -0.01953125 C9.28642578 -0.01308594 10.19199219 -0.00664062 11.125 0 C11.94154053 0.00563965 12.75808105 0.0112793 13.59936523 0.01708984 C17.31501098 0.96742873 19.94250887 2.54075684 22.12890625 5.6640625 C22.94154448 9.04869941 22.82937393 12.31329946 22.71484375 15.77734375 C22.70635406 16.74689499 22.69786438 17.71644623 22.68911743 18.71537781 C22.65560494 21.80358315 22.58032853 24.88915028 22.50390625 27.9765625 C22.47380392 30.07352992 22.44642858 32.17053839 22.421875 34.26757812 C22.3609254 39.40156644 22.24351818 44.52987237 22.12890625 49.6640625 C11.56890625 49.6640625 1.00890625 49.6640625 -9.87109375 49.6640625 C-9.98598214 43.48817323 -10.08549019 37.31599973 -10.14575195 31.13989258 C-10.17087426 29.0398298 -10.20497833 26.93985427 -10.24829102 24.84008789 C-10.30904246 21.8189541 -10.33732638 18.79897754 -10.359375 15.77734375 C-10.38518143 14.84070389 -10.41098785 13.90406403 -10.43757629 12.93904114 C-10.43950811 8.43484041 -10.34146232 6.31709997 -7.64501953 2.57348633 C-4.754357 0.5837071 -3.45141468 0.02387106 0 0 Z " fill="#E9ECEF" transform="translate(121.87109375,200.3359375)"/>
<path d="M0 0 C2.31 0 4.62 0 7 0 C7.00808685 0.62196259 7.01617371 1.24392517 7.02450562 1.88473511 C7.11036507 8.34085016 7.20985976 14.79665154 7.31738281 21.25244141 C7.35573647 23.66384628 7.3905779 26.07530962 7.421875 28.48681641 C7.46738703 31.94715313 7.52540404 35.40708508 7.5859375 38.8671875 C7.59748871 39.95055389 7.60903992 41.03392029 7.62094116 42.15011597 C7.64081085 43.1510025 7.66068054 44.15188904 7.68115234 45.18310547 C7.69447601 46.06690887 7.70779968 46.95071228 7.7215271 47.86129761 C7.80669004 50.2132825 7.80669004 50.2132825 10 52 C12.475 51.505 12.475 51.505 15 51 C15.33 34.17 15.66 17.34 16 0 C17.65 0 19.3 0 21 0 C21.33 16.83 21.66 33.66 22 51 C23.65 51.33 25.3 51.66 27 52 C28.63959237 50.36040763 28.16642287 48.4665562 28.20532227 46.20483398 C28.22526749 45.18385117 28.24521271 44.16286835 28.26576233 43.11094666 C28.28247482 42.0005452 28.29918732 40.89014374 28.31640625 39.74609375 C28.33718735 38.61551041 28.35796844 37.48492706 28.37937927 36.32008362 C28.44499797 32.69262015 28.50381677 29.06508167 28.5625 25.4375 C28.60567351 22.98501814 28.6492874 20.532544 28.69335938 18.08007812 C28.80069184 12.05346573 28.9024349 6.02677799 29 0 C31.64 0 34.28 0 37 0 C37 20.13 37 40.26 37 61 C24.79 61 12.58 61 0 61 C0 40.87 0 20.74 0 0 Z " fill="#8091A4" transform="translate(61,189)"/>
<path d="M0 0 C1.29873047 0.00644531 2.59746094 0.01289063 3.93554688 0.01953125 C5.30729432 0.0362419 6.67903911 0.05317179 8.05078125 0.0703125 C9.43423843 0.08034576 10.81770252 0.08947101 12.20117188 0.09765625 C15.58861582 0.12126213 18.9759702 0.15713367 22.36328125 0.1953125 C22.36328125 4.8153125 22.36328125 9.4353125 22.36328125 14.1953125 C21.37328125 14.1953125 20.38328125 14.1953125 19.36328125 14.1953125 C19.36772247 14.82980316 19.3721637 15.46429382 19.3767395 16.11801147 C19.42088205 22.70365148 19.45110977 29.28924967 19.47314453 35.875 C19.48322108 38.33497829 19.49688256 40.79494456 19.51416016 43.25488281 C19.53833586 46.78453535 19.54974765 50.31402997 19.55859375 53.84375 C19.56891632 54.94899017 19.57923889 56.05423035 19.58987427 57.19296265 C19.59002533 58.21386993 19.59017639 59.23477722 19.59033203 60.28662109 C19.59477325 61.18818939 19.59921448 62.08975769 19.60379028 63.01864624 C19.36328125 65.1953125 19.36328125 65.1953125 17.36328125 67.1953125 C12.80772569 66.63975694 12.80772569 66.63975694 11.36328125 65.1953125 C11.2699442 63.59920268 11.24582753 61.99897822 11.24975586 60.40014648 C11.24983139 59.37916367 11.24990692 58.35818085 11.24998474 57.30625916 C11.25514603 56.1958577 11.26030731 55.08545624 11.265625 53.94140625 C11.26703995 52.81082291 11.2684549 51.68023956 11.26991272 50.51539612 C11.27553106 46.88784185 11.28808667 43.26034826 11.30078125 39.6328125 C11.30579389 37.18033943 11.3103572 34.7278654 11.31445312 32.27539062 C11.32550645 26.24867705 11.34226241 20.22199911 11.36328125 14.1953125 C9.71328125 14.1953125 8.06328125 14.1953125 6.36328125 14.1953125 C6.36772247 14.82980316 6.3721637 15.46429382 6.3767395 16.11801147 C6.42088205 22.70365148 6.45110977 29.28924967 6.47314453 35.875 C6.48322108 38.33497829 6.49688256 40.79494456 6.51416016 43.25488281 C6.53833586 46.78453535 6.54974765 50.31402997 6.55859375 53.84375 C6.56891632 54.94899017 6.57923889 56.05423035 6.58987427 57.19296265 C6.59002533 58.21386993 6.59017639 59.23477722 6.59033203 60.28662109 C6.59477325 61.18818939 6.59921448 62.08975769 6.60379028 63.01864624 C6.36328125 65.1953125 6.36328125 65.1953125 4.36328125 67.1953125 C1.06613332 66.86559771 -0.25940265 66.5726286 -2.63671875 64.1953125 C-2.87722778 62.05661011 -2.87722778 62.05661011 -2.86376953 59.37841797 C-2.86354294 57.87708817 -2.86354294 57.87708817 -2.86331177 56.34542847 C-2.8529892 55.26206207 -2.84266663 54.17869568 -2.83203125 53.0625 C-2.82778641 51.40204147 -2.82778641 51.40204147 -2.82345581 49.70803833 C-2.81223394 46.16202113 -2.78712566 42.61625375 -2.76171875 39.0703125 C-2.75169155 36.67057656 -2.74256525 34.27083667 -2.734375 31.87109375 C-2.71228807 25.97908099 -2.67879082 20.08721459 -2.63671875 14.1953125 C-4.94671875 14.1953125 -7.25671875 14.1953125 -9.63671875 14.1953125 C-9.71753969 12.23764969 -9.77582653 10.27904522 -9.82421875 8.3203125 C-9.85902344 7.22976562 -9.89382812 6.13921875 -9.9296875 5.015625 C-9.83300781 4.08492187 -9.73632812 3.15421875 -9.63671875 2.1953125 C-6.00365817 -0.22672788 -4.31852852 -0.03771641 0 0 Z " fill="#9DABBA" transform="translate(70.63671875,174.8046875)"/>
<path d="M0 0 C1.16917969 0.55429688 2.33835937 1.10859375 3.54296875 1.6796875 C5.09110925 2.41153573 6.63928837 3.14330227 8.1875 3.875 C8.95642578 4.23980469 9.72535156 4.60460937 10.51757812 4.98046875 C14.30633586 6.76915266 18.08159403 8.50802178 22 10 C21.56442084 11.47973345 21.12639904 12.95874785 20.6875 14.4375 C20.44386719 15.26121094 20.20023438 16.08492187 19.94921875 16.93359375 C19.42499283 18.62708076 18.8857234 20.31694115 18.28442383 21.98461914 C16.21733786 27.78957297 15.13171703 33.46660652 14.3125 39.5625 C13.879375 42.676875 13.44625 45.79125 13 49 C2.77 49 -7.46 49 -18 49 C-18 42.92444897 -17.46007198 38.64380975 -15.9375 32.9375 C-15.71634521 32.10621582 -15.49519043 31.27493164 -15.26733398 30.41845703 C-12.12607848 19.22443861 -6.72675932 9.45427616 0 0 Z " fill="#89C8FE" transform="translate(56,84)"/>
<path d="M0 0 C10.23 0 20.46 0 31 0 C32.375 9.5 32.375 9.5 32.79443359 12.44335938 C33.57448242 17.73262838 34.61252406 22.83617652 36 28 C35.30132812 28.06058594 34.60265625 28.12117188 33.8828125 28.18359375 C32.51769531 28.30927734 32.51769531 28.30927734 31.125 28.4375 C30.22007813 28.51871094 29.31515625 28.59992188 28.3828125 28.68359375 C25.98889139 28.86989285 25.98889139 28.86989285 24 30 C23.67 37.92 23.34 45.84 23 54 C10.4127298 41.4127298 2.61354965 24.60707134 0 7 C0 4.69 0 2.38 0 0 Z " fill="#89C8FD" transform="translate(38,147)"/>
<path d="M0 0 C3.73396617 3.27555515 5.84759327 7.03553836 8 11.4375 C8.34812744 12.14616211 8.69625488 12.85482422 9.05493164 13.58496094 C13.99321436 23.89395853 16.44928473 33.57265815 17 45 C9.74 45 2.48 45 -5 45 C-5.391875 42.009375 -5.78375 39.01875 -6.1875 35.9375 C-7.47610976 26.80192319 -9.83746889 18.64576851 -13 10 C-13.35760838 8.67297131 -13.70394775 7.34210355 -14 6 C-13.15695313 5.65066406 -12.31390625 5.30132812 -11.4453125 4.94140625 C-10.34960938 4.48636719 -9.25390625 4.03132813 -8.125 3.5625 C-7.03445312 3.11003906 -5.94390625 2.65757813 -4.8203125 2.19140625 C-3.19441376 1.50456537 -1.57868226 0.78934113 0 0 Z " fill="#88C8FD" transform="translate(192,88)"/>
<path d="M0 0 C3.38744578 2.42655452 6.55527506 4.74672588 9.125 8.0625 C9.4375 11.375 9.4375 11.375 9.125 14.0625 C6.421875 14.79296875 6.421875 14.79296875 3.125 15.0625 C0.703125 13.55078125 0.703125 13.55078125 -1.625 11.375 C-10.16417083 4.14077664 -17.95013508 2.18321908 -29.0390625 2.6875 C-38.2063443 3.58369048 -43.80926442 7.34166994 -50.453125 13.55078125 C-52.875 15.0625 -52.875 15.0625 -56.171875 14.79296875 C-57.06390625 14.55191406 -57.9559375 14.31085937 -58.875 14.0625 C-59.38087765 11.09950232 -59.43333214 8.95828564 -57.80859375 6.3515625 C-43.10732749 -9.93405075 -17.78779066 -11.26657117 0 0 Z " fill="#D8ECFE" transform="translate(152.875,12.9375)"/>
<path d="M0 0 C2.64 0 5.28 0 8 0 C8.04627129 10.78729626 8.08184264 21.57456904 8.10362434 32.3619442 C8.11407667 37.37056347 8.12826221 42.37911502 8.15087891 47.38769531 C8.17255575 52.21818333 8.1845577 57.04860606 8.18975449 61.87913895 C8.19345954 63.72519585 8.20069425 65.57124906 8.21146011 67.41727829 C8.22590657 69.99620124 8.22798083 72.57485191 8.22705078 75.15380859 C8.23783661 76.30718971 8.23783661 76.30718971 8.24884033 77.48387146 C8.22810432 82.77189568 8.22810432 82.77189568 6 85 C1.44444444 84.44444444 1.44444444 84.44444444 0 83 C-0.09507821 80.41360962 -0.12556376 77.8540144 -0.11352539 75.26733398 C-0.11367142 74.4576416 -0.11381744 73.64794922 -0.1139679 72.8137207 C-0.11326854 70.12448492 -0.1054751 67.43531751 -0.09765625 64.74609375 C-0.09579215 62.88664284 -0.09436821 61.02719144 -0.09336853 59.16773987 C-0.08954271 54.26370904 -0.07971188 49.35970764 -0.06866455 44.45568848 C-0.05845181 39.45548908 -0.05387121 34.45528494 -0.04882812 29.45507812 C-0.03808967 19.63670579 -0.02101248 9.81835534 0 0 Z " fill="#E9EDEF" transform="translate(180,159)"/>
<path d="M0 0 C2.31 0 4.62 0 7 0 C7 27.72 7 55.44 7 84 C4.525 84.495 4.525 84.495 2 85 C-0.52379877 82.47620123 -0.23534328 80.9258419 -0.24884033 77.48387146 C-0.24164978 76.71495071 -0.23445923 75.94602997 -0.22705078 75.15380859 C-0.22734283 74.34397018 -0.22763489 73.53413177 -0.22793579 72.69975281 C-0.2265395 70.01587304 -0.21096435 67.33226893 -0.1953125 64.6484375 C-0.19158343 62.79041699 -0.18873596 60.93239452 -0.18673706 59.07437134 C-0.17909224 54.17853386 -0.15943649 49.28281461 -0.1373291 44.38702393 C-0.11688893 39.39344889 -0.10773926 34.39985479 -0.09765625 29.40625 C-0.07619138 19.60411466 -0.04204522 9.80206715 0 0 Z " fill="#EBEEF0" transform="translate(167,159)"/>
<path d="M0 0 C4.66307014 -0.04937279 9.32598873 -0.08570627 13.98925781 -0.10986328 C15.57619883 -0.11993188 17.16312125 -0.13358767 18.75 -0.15087891 C21.02869247 -0.17509001 23.30714006 -0.18647422 25.5859375 -0.1953125 C26.29744965 -0.20563507 27.00896179 -0.21595764 27.74203491 -0.22659302 C29.49631665 -0.22699422 31.24996709 -0.12202209 33 0 C35 2 35 2 35 12 C27.41 12 19.82 12 12 12 C12 39.06 12 66.12 12 94 C11.67 94 11.34 94 11 94 C11 66.94 11 39.88 11 12 C8.69 12 6.38 12 4 12 C4 39.06 4 66.12 4 94 C3.67 94 3.34 94 3 94 C3 66.94 3 39.88 3 12 C2.01 12 1.02 12 0 12 C0 8.04 0 4.08 0 0 Z " fill="#A5B1BE" transform="translate(163,147)"/>
<path d="M0 0 C1.12276085 -0.0049926 1.12276085 -0.0049926 2.26820374 -0.01008606 C3.85449609 -0.01515818 5.44079915 -0.0174943 7.02709961 -0.01733398 C9.45899994 -0.01951898 11.89044574 -0.03766706 14.32226562 -0.05664062 C15.86067553 -0.05957474 17.39908759 -0.06155942 18.9375 -0.0625 C20.03287331 -0.07327827 20.03287331 -0.07327827 21.15037537 -0.08427429 C26.30633318 -0.06085432 26.30633318 -0.06085432 28.53515625 2.16796875 C28.80078125 4.48046875 28.80078125 4.48046875 28.78515625 7.16796875 C28.79289062 8.49828125 28.79289062 8.49828125 28.80078125 9.85546875 C28.53515625 12.16796875 28.53515625 12.16796875 26.53515625 14.16796875 C23.96588594 14.35526628 21.50641648 14.42371517 18.9375 14.3984375 C17.81330406 14.39775017 17.81330406 14.39775017 16.66639709 14.39704895 C15.08186256 14.39402686 13.49733099 14.38614181 11.9128418 14.3737793 C9.47889767 14.35551558 7.04533363 14.35326964 4.61132812 14.35351562 C3.07421544 14.34860076 1.53710535 14.34277257 0 14.3359375 C-0.7322731 14.33482468 -1.4645462 14.33371185 -2.2190094 14.33256531 C-7.34879137 14.28402113 -7.34879137 14.28402113 -8.46484375 13.16796875 C-8.56358191 11.16997303 -8.59456174 9.16839717 -8.58984375 7.16796875 C-8.59242187 6.07484375 -8.595 4.98171875 -8.59765625 3.85546875 C-8.33386576 -1.48240934 -4.32973361 0.00657983 0 0 Z " fill="#D7EBFD" transform="translate(118.46484375,114.83203125)"/>
<path d="M0 0 C0.7528125 0.45890625 1.505625 0.9178125 2.28125 1.390625 C5.846157 3.77559799 7.69571532 5.12095538 9.125 9.25 C9 12 9 12 7 14 C4.0515607 14.37825373 2.50384589 14.30345264 -0.0625 12.7578125 C-0.701875 12.21898438 -1.34125 11.68015625 -2 11.125 C-7.74197284 6.33230493 -12.63334887 5.55312271 -19.9921875 5.6796875 C-25.61716242 6.2787108 -29.42081536 8.67789193 -33.6875 12.25 C-36 14 -36 14 -38.6875 14.375 C-41 14 -41 14 -43 12 C-43.1875 9.3125 -43.1875 9.3125 -42 6 C-31.24257756 -5.03805085 -13.4002056 -8.61441789 0 0 Z " fill="#D8ECFE" transform="translate(145,23)"/>
<path d="M0 0 C0.495 0.99 0.495 0.99 1 2 C0.52691406 2.40089844 0.05382812 2.80179688 -0.43359375 3.21484375 C-10.21204746 11.6208829 -17.96640826 20.24176394 -25 31 C-26.02480469 30.62746094 -27.04960938 30.25492188 -28.10546875 29.87109375 C-29.46592113 29.39258981 -30.82661096 28.91476062 -32.1875 28.4375 C-32.86103516 28.19064453 -33.53457031 27.94378906 -34.22851562 27.68945312 C-38.1786475 26.32135867 -41.02398776 25.48799534 -45 27 C-46.83733844 28.35902991 -46.83733844 28.35902991 -48.3125 30.0625 C-49.6428125 31.5165625 -49.6428125 31.5165625 -51 33 C-51.66 32.67 -52.32 32.34 -53 32 C-39.77685685 14.6508385 -20.65083282 5.25749477 0 0 Z " fill="#89C8FE" transform="translate(110,51)"/>
<path d="M0 0 C4.55555556 0.55555556 4.55555556 0.55555556 6 2 C6.07244053 4.01964199 6.08377188 6.04167124 6.0625 8.0625 C6.05347656 9.16722656 6.04445312 10.27195312 6.03515625 11.41015625 C6.02355469 12.26480469 6.01195312 13.11945313 6 14 C7.11375 13.95875 8.2275 13.9175 9.375 13.875 C13 14 13 14 15 16 C15 19.63 15 23.26 15 27 C4.77 27 -5.46 27 -16 27 C-16 16 -16 16 -14 14 C-11.1796875 13.8046875 -11.1796875 13.8046875 -7.875 13.875 C-6.77929688 13.89304687 -5.68359375 13.91109375 -4.5546875 13.9296875 C-3.71164063 13.95289062 -2.86859375 13.97609375 -2 14 C-2.02320312 13.15695313 -2.04640625 12.31390625 -2.0703125 11.4453125 C-2.08835937 10.34960938 -2.10640625 9.25390625 -2.125 8.125 C-2.14820312 7.03445312 -2.17140625 5.94390625 -2.1953125 4.8203125 C-2 2 -2 2 0 0 Z " fill="#9EABBA" transform="translate(126,74)"/>
<path d="M0 0 C1.65 0 3.3 0 5 0 C5 30.03 5 60.06 5 91 C3.35 91 1.7 91 0 91 C0 60.97 0 30.94 0 0 Z " fill="#677A90" transform="translate(158,159)"/>
<path d="M0 0 C6.5705166 -0.24794402 12.56971459 0.67611771 19 2 C19 2.33 19 2.66 19 3 C18.28972656 3.06058594 17.57945313 3.12117188 16.84765625 3.18359375 C15.92855469 3.26738281 15.00945312 3.35117188 14.0625 3.4375 C12.68771484 3.55931641 12.68771484 3.55931641 11.28515625 3.68359375 C9.03840268 3.76044976 9.03840268 3.76044976 8 5 C7.84126045 7.21687994 7.74866163 9.43855298 7.68359375 11.66015625 C7.66281265 12.32462265 7.64203156 12.98908905 7.62062073 13.6736908 C7.55506342 15.80318543 7.49621215 17.93280668 7.4375 20.0625 C7.39432061 21.50326847 7.35070651 22.94402399 7.30664062 24.38476562 C7.19855473 27.92304903 7.09952907 31.46142397 7 35 C2.05 35 -2.9 35 -8 35 C-8.68062944 22.40835541 -4.96275994 11.45658412 0 0 Z " fill="#88C7FC" transform="translate(91,98)"/>
<path d="M0 0 C4.63032009 11.60492174 8.47863829 22.31608537 8 35 C3.05 35 -1.9 35 -7 35 C-7.06058594 32.84597656 -7.12117187 30.69195312 -7.18359375 28.47265625 C-7.24534241 26.3942499 -7.30874691 24.31590025 -7.37231445 22.23754883 C-7.4157163 20.7893576 -7.45738744 19.34111346 -7.49731445 17.89282227 C-7.55489062 15.81510441 -7.61862028 13.73765427 -7.68359375 11.66015625 C-7.72025146 10.40855713 -7.75690918 9.15695801 -7.79467773 7.86743164 C-7.67803906 5.10369496 -7.67803906 5.10369496 -9 4 C-10.51469448 3.76807135 -12.03754562 3.58784762 -13.5625 3.4375 C-14.38878906 3.35371094 -15.21507812 3.26992187 -16.06640625 3.18359375 C-16.70449219 3.12300781 -17.34257812 3.06242187 -18 3 C-12.54041956 -0.6397203 -6.33781023 -0.03948791 0 0 Z " fill="#89C7FC" transform="translate(165,98)"/>
<path d="M0 0 C2.64 0 5.28 0 8 0 C8.05058332 7.2265322 8.08568412 14.45301899 8.10986328 21.6796875 C8.11993983 24.13966579 8.13360131 26.59963206 8.15087891 29.05957031 C8.17505461 32.58922285 8.1864664 36.11871747 8.1953125 39.6484375 C8.20563507 40.75367767 8.21595764 41.85891785 8.22659302 42.99765015 C8.22674408 44.01855743 8.22689514 45.03946472 8.22705078 46.09130859 C8.231492 46.99287689 8.23593323 47.89444519 8.24050903 48.82333374 C8 51 8 51 6 53 C1.44444444 52.44444444 1.44444444 52.44444444 0 51 C-0.09333705 49.40389018 -0.11745372 47.80366572 -0.11352539 46.20483398 C-0.11344986 45.18385117 -0.11337433 44.16286835 -0.11329651 43.11094666 C-0.10813522 42.0005452 -0.10297394 40.89014374 -0.09765625 39.74609375 C-0.0962413 38.61551041 -0.09482635 37.48492706 -0.09336853 36.32008362 C-0.08775019 32.69252935 -0.07519458 29.06503576 -0.0625 25.4375 C-0.05748736 22.98502693 -0.05292405 20.5325529 -0.04882812 18.08007812 C-0.0377748 12.05336455 -0.02101884 6.02668661 0 0 Z " fill="#EBEEF0" transform="translate(82,189)"/>
<path d="M0 0 C2.64 0 5.28 0 8 0 C8.05058332 7.2265322 8.08568412 14.45301899 8.10986328 21.6796875 C8.11993983 24.13966579 8.13360131 26.59963206 8.15087891 29.05957031 C8.17505461 32.58922285 8.1864664 36.11871747 8.1953125 39.6484375 C8.20563507 40.75367767 8.21595764 41.85891785 8.22659302 42.99765015 C8.22674408 44.01855743 8.22689514 45.03946472 8.22705078 46.09130859 C8.231492 46.99287689 8.23593323 47.89444519 8.24050903 48.82333374 C8 51 8 51 6 53 C1.44444444 52.44444444 1.44444444 52.44444444 0 51 C-0.09333705 49.40389018 -0.11745372 47.80366572 -0.11352539 46.20483398 C-0.11344986 45.18385117 -0.11337433 44.16286835 -0.11329651 43.11094666 C-0.10813522 42.0005452 -0.10297394 40.89014374 -0.09765625 39.74609375 C-0.0962413 38.61551041 -0.09482635 37.48492706 -0.09336853 36.32008362 C-0.08775019 32.69252935 -0.07519458 29.06503576 -0.0625 25.4375 C-0.05748736 22.98502693 -0.05292405 20.5325529 -0.04882812 18.08007812 C-0.0377748 12.05336455 -0.02101884 6.02668661 0 0 Z " fill="#E8ECEE" transform="translate(69,189)"/>
<path d="M0 0 C1.84375 2.0546875 1.84375 2.0546875 3.5 4.875 C4.09425781 5.88691406 4.68851563 6.89882812 5.30078125 7.94140625 C5.86152344 8.95074219 6.42226562 9.96007812 7 11 C7.70189453 12.22009766 7.70189453 12.22009766 8.41796875 13.46484375 C14.14857986 24.06206613 16.79244223 34.9812928 16 47 C13.36 47 10.72 47 8 47 C7.79246094 45.741875 7.58492187 44.48375 7.37109375 43.1875 C4.71198065 28.06277349 -0.04648914 15.19476456 -8 2 C-4.77198825 -0.15200783 -3.74861144 -0.63633836 0 0 Z " fill="#43A9FC" transform="translate(201,86)"/>
<path d="M0 0 C2.64 0 5.28 0 8 0 C9.70078247 17.82672 1.83777496 34.70328161 -8.80078125 48.63671875 C-9.19652344 49.08660156 -9.59226563 49.53648437 -10 50 C-10.33 50 -10.66 50 -11 50 C-11.54870691 41.64746147 -11.3831607 35.160138 -7.38671875 27.6953125 C-4.11723743 21.340546 -2.42765551 15.03218284 -1.3125 8 C-1.18294922 7.22527344 -1.05339844 6.45054687 -0.91992188 5.65234375 C-0.60609991 3.76941199 -0.30200645 1.88486295 0 0 Z " fill="#44A9FC" transform="translate(209,147)"/>
<path d="M0 0 C4.95 0 9.9 0 15 0 C15 9.24 15 18.48 15 28 C11.7 28 8.4 28 5 28 C4.15238408 25.02426268 3.32179043 22.04537716 2.5 19.0625 C2.26152344 18.23169922 2.02304688 17.40089844 1.77734375 16.54492188 C0.2270395 10.85309057 -0.23806497 5.89805968 0 0 Z " fill="#89C7FC" transform="translate(83,147)"/>
<path d="M0 0 C3.19037161 1.79072471 5.84707807 3.73415372 7.25 7.1875 C7.4375 9.1875 7.4375 9.1875 5.4375 12.1875 C3.546875 13.02734375 3.546875 13.02734375 1.4375 13.1875 C-0.421875 12.19140625 -0.421875 12.19140625 -2.3125 10.75 C-5.83369372 8.4220997 -8.32230929 7.4392675 -12.55078125 7.671875 C-15.71876967 8.48386426 -18.07843249 10.34451792 -20.734375 12.1953125 C-22.5625 13.1875 -22.5625 13.1875 -25.5 12.6875 C-27.5625 11.1875 -27.5625 11.1875 -28.5625 8.1875 C-26.58960397 3.66144439 -23.76310497 1.6378529 -19.5625 -0.8125 C-13.30912087 -2.89695971 -5.97943127 -2.91191634 0 0 Z " fill="#D8ECFE" transform="translate(138.5625,33.8125)"/>
<path d="M0 0 C8.78515856 6.58886892 15.70294703 13.08076995 22 22 C22 22.33 22 22.66 22 23 C20.02237145 23.34234065 18.04278161 23.67335561 16.0625 24 C14.96035156 24.185625 13.85820312 24.37125 12.72265625 24.5625 C8.50826849 25.05779006 4.2433921 25 0 25 C0 16.75 0 8.5 0 0 Z " fill="#89C8FE" transform="translate(135,62)"/>
<path d="M0 0 C0 8.25 0 16.5 0 25 C-5.84384577 25 -10.47443588 24.94114764 -16.0625 24 C-17.18785156 23.814375 -18.31320313 23.62875 -19.47265625 23.4375 C-20.72369141 23.2209375 -20.72369141 23.2209375 -22 23 C-18.61403314 17.2138541 -7.63362201 0 0 0 Z " fill="#89C8FE" transform="translate(121,62)"/>
<path d="M0 0 C1.65 0 3.3 0 5 0 C5 20.13 5 40.26 5 61 C3.35 61 1.7 61 0 61 C0 40.87 0 20.74 0 0 Z " fill="#677A90" transform="translate(93,189)"/>
<path d="M0 0 C0.93134766 0.01611328 1.86269531 0.03222656 2.82226562 0.04882812 C4.26182617 0.11166992 4.26182617 0.11166992 5.73046875 0.17578125 C7.1990332 0.20961914 7.1990332 0.20961914 8.69726562 0.24414062 C11.1057433 0.30288398 13.51105953 0.38495996 15.91796875 0.48828125 C15.91796875 0.81828125 15.91796875 1.14828125 15.91796875 1.48828125 C14.72558594 1.52566406 13.53320312 1.56304687 12.3046875 1.6015625 C10.73824975 1.66722157 9.17184491 1.73366893 7.60546875 1.80078125 C6.81978516 1.82333984 6.03410156 1.84589844 5.22460938 1.86914062 C4.08862305 1.92231445 4.08862305 1.92231445 2.9296875 1.9765625 C1.88494263 2.01583862 1.88494263 2.01583862 0.8190918 2.0559082 C-1.67277299 2.62263384 -2.4865494 3.50928075 -4.08203125 5.48828125 C-4.55122087 7.55862029 -4.55122087 7.55862029 -4.5144043 9.86791992 C-4.53419846 10.74860641 -4.55399261 11.62929291 -4.5743866 12.53666687 C-4.58077652 13.4836293 -4.58716644 14.43059174 -4.59375 15.40625 C-4.6117012 16.37863113 -4.6296524 17.35101227 -4.64814758 18.3528595 C-4.70235592 21.46045589 -4.73618023 24.56789777 -4.76953125 27.67578125 C-4.80269501 29.78192259 -4.83718378 31.88804352 -4.87304688 33.99414062 C-4.95808856 39.15874286 -5.02484966 44.32329844 -5.08203125 49.48828125 C-6.73203125 49.48828125 -8.38203125 49.48828125 -10.08203125 49.48828125 C-10.20576027 43.31363212 -10.29643269 37.13970669 -10.35668945 30.96411133 C-10.38181176 28.86404855 -10.41591583 26.76407302 -10.45922852 24.66430664 C-10.51997996 21.64317285 -10.54826388 18.62319629 -10.5703125 15.6015625 C-10.59611893 14.66492264 -10.62192535 13.72828278 -10.64851379 12.76325989 C-10.65044314 8.26482075 -10.54446726 6.13642633 -7.86914062 2.38671875 C-4.86639279 0.34139927 -3.57459024 -0.10965001 0 0 Z " fill="#CECFD5" transform="translate(122.08203125,200.51171875)"/>
<path d="M0 0 C4.29 0 8.58 0 13 0 C12.06405737 12.47923511 9.91681736 25.86232927 2 36 C1.97494385 34.9805127 1.9498877 33.96102539 1.92407227 32.91064453 C1.83002996 29.13479646 1.72980163 25.35913373 1.62768555 21.58349609 C1.58432462 19.94812347 1.54265039 18.31270523 1.50268555 16.67724609 C1.44501088 14.32896159 1.38130871 11.98090696 1.31640625 9.6328125 C1.29969376 8.89942657 1.28298126 8.16604065 1.26576233 7.41043091 C1.21362038 3.57797692 1.21362038 3.57797692 0 0 Z " fill="#88C7FD" transform="translate(196,147)"/>
<path d="M0 0 C4.49511096 0.61530036 8.17224604 2.37878813 12.125 4.5 C12.78008545 4.85094727 13.4351709 5.20189453 14.11010742 5.56347656 C21.14912562 9.45831418 29.85409426 14.28297155 33 22 C31.58603098 22.50757862 30.16868271 23.00574925 28.75 23.5 C27.96109375 23.7784375 27.1721875 24.056875 26.359375 24.34375 C24 25 24 25 20 25 C18.39453125 23.1640625 18.39453125 23.1640625 16.8125 20.625 C13.61954183 15.77363037 10.06540113 11.57116818 6.11328125 7.32421875 C3.96423029 4.96065993 1.97060571 2.51330073 0 0 Z " fill="#87C7FD" transform="translate(150,56)"/>
<path d="M0 0 C13.90149022 -1.61645235 28.74259123 8.9717114 39.19921875 17.0703125 C41 19 41 19 41 23 C38.75 23.71484375 38.75 23.71484375 36 24 C34 22.62890625 34 22.62890625 32 20.5625 C22.81592015 11.84900937 11.31352945 6.42778025 0 1 C0 0.67 0 0.34 0 0 Z " fill="#47AAFC" transform="translate(147,53)"/>
<path d="M0 0 C1.79244141 0.01740234 1.79244141 0.01740234 3.62109375 0.03515625 C5.41740234 0.04869141 5.41740234 0.04869141 7.25 0.0625 C8.17683594 0.07410156 9.10367188 0.08570313 10.05859375 0.09765625 C11.37024217 2.72095309 11.19122221 4.7346425 11.18359375 7.66015625 C11.18617188 8.65144531 11.18875 9.64273438 11.19140625 10.6640625 C11.05859375 13.09765625 11.05859375 13.09765625 10.05859375 14.09765625 C7.89378578 14.19658565 5.7256559 14.22736725 3.55859375 14.22265625 C2.37265625 14.22523438 1.18671875 14.2278125 -0.03515625 14.23046875 C-2.94140625 14.09765625 -2.94140625 14.09765625 -3.94140625 13.09765625 C-4.04014441 11.09966053 -4.07112424 9.09808467 -4.06640625 7.09765625 C-4.06898438 6.00453125 -4.0715625 4.91140625 -4.07421875 3.78515625 C-3.88830844 0.02320635 -3.79903485 0.12612998 0 0 Z " fill="#D3E7F9" transform="translate(135.94140625,168.90234375)"/>
<path d="M0 0 C0.9796875 0.00515625 1.959375 0.0103125 2.96875 0.015625 C3.9484375 0.01046875 4.928125 0.0053125 5.9375 0 C8.46875 0.265625 8.46875 0.265625 10.46875 2.265625 C10.69921875 4.83203125 10.69921875 4.83203125 10.65625 7.828125 C10.64658203 9.31505859 10.64658203 9.31505859 10.63671875 10.83203125 C10.46875 13.265625 10.46875 13.265625 9.46875 14.265625 C7.30394203 14.3645544 5.13581215 14.395336 2.96875 14.390625 C1.7828125 14.39320313 0.596875 14.39578125 -0.625 14.3984375 C-3.53125 14.265625 -3.53125 14.265625 -4.53125 13.265625 C-4.65612758 11.45635219 -4.70695846 9.64166393 -4.71875 7.828125 C-4.73292969 6.83941406 -4.74710938 5.85070312 -4.76171875 4.83203125 C-4.44214005 1.27333286 -3.55394536 0.37294488 0 0 Z " fill="#D3E8FA" transform="translate(136.53125,145.734375)"/>
<path d="M0 0 C1.093125 0.00257813 2.18625 0.00515625 3.3125 0.0078125 C4.405625 0.00523437 5.49875 0.00265625 6.625 0 C9.3125 0.1328125 9.3125 0.1328125 10.3125 1.1328125 C10.41123816 3.13080822 10.44221799 5.13238408 10.4375 7.1328125 C10.44007812 8.2259375 10.44265625 9.3190625 10.4453125 10.4453125 C10.3125 13.1328125 10.3125 13.1328125 9.3125 14.1328125 C7.12610547 14.20540196 4.93749611 14.21655033 2.75 14.1953125 C0.95369141 14.18177734 0.95369141 14.18177734 -0.87890625 14.16796875 C-1.80574219 14.15636719 -2.73257813 14.14476562 -3.6875 14.1328125 C-3.71435938 11.98704613 -3.73383088 9.84118605 -3.75 7.6953125 C-3.76160156 6.50035156 -3.77320312 5.30539063 -3.78515625 4.07421875 C-3.65588833 0.1806689 -3.65588833 0.1806689 0 0 Z " fill="#D6EAFD" transform="translate(113.6875,168.8671875)"/>
<path d="M0 0 C0.98871094 -0.01417969 1.97742188 -0.02835938 2.99609375 -0.04296875 C5.5625 0.1875 5.5625 0.1875 7.5625 2.1875 C7.79296875 4.75390625 7.79296875 4.75390625 7.75 7.75 C7.74033203 9.23693359 7.74033203 9.23693359 7.73046875 10.75390625 C7.5625 13.1875 7.5625 13.1875 6.5625 14.1875 C4.37610547 14.26008946 2.18749611 14.27123783 0 14.25 C-1.79630859 14.23646484 -1.79630859 14.23646484 -3.62890625 14.22265625 C-4.55574219 14.21105469 -5.48257813 14.19945312 -6.4375 14.1875 C-6.46435938 12.04173363 -6.48383088 9.89587355 -6.5 7.75 C-6.51160156 6.55503906 -6.52320312 5.36007813 -6.53515625 4.12890625 C-6.37050569 -0.83036853 -4.46111388 0.02900594 0 0 Z " fill="#D6EBFD" transform="translate(116.4375,145.8125)"/>
<path d="M0 0 C2.32749345 3.49124017 2.50299316 4.89222251 2 9 C0.375 11.375 0.375 11.375 -2 13 C-5.6717087 13.61195145 -7.28813568 13.48706506 -10.375 11.375 C-12.4753727 8.30522452 -12.53293835 6.65443439 -12 3 C-8.84346923 -2.56150659 -5.55615687 -2.36432207 0 0 Z " fill="#C2E1FF" transform="translate(133,48)"/>
<path d="M0 0 C4.80548597 -0.04936883 9.61082494 -0.08570443 14.41650391 -0.10986328 C16.05194672 -0.11993254 17.68737149 -0.13358881 19.32275391 -0.15087891 C21.6709437 -0.17508705 24.01889588 -0.18647357 26.3671875 -0.1953125 C27.10057343 -0.20563507 27.83395935 -0.21595764 28.58956909 -0.22659302 C30.39462697 -0.22699368 32.1990783 -0.12212755 34 0 C36 2 36 2 36.265625 4.3125 C36.26046875 5.199375 36.2553125 6.08625 36.25 7 C36.25773437 8.3303125 36.25773437 8.3303125 36.265625 9.6875 C36 12 36 12 34 14 C31.41896694 14.17502995 28.94691837 14.23162279 26.3671875 14.1953125 C25.23943405 14.19106766 25.23943405 14.19106766 24.08889771 14.18673706 C21.68410422 14.17552874 19.27968119 14.15042352 16.875 14.125 C15.24609912 14.11497102 13.61719242 14.10584503 11.98828125 14.09765625 C7.99204444 14.07558735 3.99608506 14.04105351 0 14 C0 13.67 0 13.34 0 13 C9.9 13 19.8 13 30 13 C30 9.04 30 5.08 30 1 C20.1 1 10.2 1 0 1 C0 0.67 0 0.34 0 0 Z " fill="#C2DBF2" transform="translate(111,115)"/>
<path d="M0 0 C4.55555556 0.55555556 4.55555556 0.55555556 6 2 C6.07244053 4.01964199 6.08377188 6.04167124 6.0625 8.0625 C6.05347656 9.16722656 6.04445312 10.27195312 6.03515625 11.41015625 C6.02355469 12.26480469 6.01195312 13.11945313 6 14 C3.36 14 0.72 14 -2 14 C-2.05389087 12.04196493 -2.09274217 10.08351091 -2.125 8.125 C-2.14820312 7.03445312 -2.17140625 5.94390625 -2.1953125 4.8203125 C-2 2 -2 2 0 0 Z " fill="#8093A7" transform="translate(126,74)"/>
<path d="M0 0 C4.29 0 8.58 0 13 0 C14.31164842 2.62329684 14.13262846 4.63698625 14.125 7.5625 C14.12757813 8.55378906 14.13015625 9.54507813 14.1328125 10.56640625 C14 13 14 13 13 14 C11.35 14 9.7 14 8 14 C8 9.71 8 5.42 8 1 C5.36 1 2.72 1 0 1 C0 0.67 0 0.34 0 0 Z " fill="#C2DEF9" transform="translate(133,169)"/>
<path d="M0 0 C2.875 -0.1875 2.875 -0.1875 6 0 C8.20914 3.31371 8.22481553 4.3446021 8.125 8.1875 C8.10695312 9.08855469 8.08890625 9.98960938 8.0703125 10.91796875 C8.03550781 11.94857422 8.03550781 11.94857422 8 13 C10.97 13 13.94 13 17 13 C17 13.33 17 13.66 17 14 C15.43759968 14.02730408 13.8750573 14.04653226 12.3125 14.0625 C11.44238281 14.07410156 10.57226562 14.08570312 9.67578125 14.09765625 C7.01191443 14.00043483 4.59426811 13.59364333 2 13 C1.93941406 12.22914062 1.87882813 11.45828125 1.81640625 10.6640625 C1.73261719 9.66117188 1.64882812 8.65828125 1.5625 7.625 C1.48128906 6.62726563 1.40007812 5.62953125 1.31640625 4.6015625 C1.15034374 2.02072387 1.15034374 2.02072387 0 0 Z " fill="#8A9FB0" transform="translate(139,88)"/>
<path d="M0 0 C1.79133978 -0.05391993 3.58313899 -0.09275571 5.375 -0.125 C6.37273437 -0.14820313 7.37046875 -0.17140625 8.3984375 -0.1953125 C11 0 11 0 13 2 C13.23046875 4.56640625 13.23046875 4.56640625 13.1875 7.5625 C13.17783203 9.04943359 13.17783203 9.04943359 13.16796875 10.56640625 C13 13 13 13 12 14 C10.35 14 8.7 14 7 14 C7 10.04 7 6.08 7 2 C4.69 1.67 2.38 1.34 0 1 C0 0.67 0 0.34 0 0 Z " fill="#C0DCF7" transform="translate(134,146)"/>
<path d="M0 0 C1.79133978 -0.05391993 3.58313899 -0.09275571 5.375 -0.125 C6.37273437 -0.14820313 7.37046875 -0.17140625 8.3984375 -0.1953125 C11 0 11 0 13 2 C13.23046875 4.56640625 13.23046875 4.56640625 13.1875 7.5625 C13.17783203 9.04943359 13.17783203 9.04943359 13.16796875 10.56640625 C13 13 13 13 12 14 C10.35 14 8.7 14 7 14 C7 10.04 7 6.08 7 2 C4.69 1.67 2.38 1.34 0 1 C0 0.67 0 0.34 0 0 Z " fill="#C2DEFA" transform="translate(111,146)"/>
<path d="M0 0 C1.65 0 3.3 0 5 0 C6 1 6 1 6.1328125 3.6875 C6.12894531 5.3271875 6.12894531 5.3271875 6.125 7 C6.12757812 8.093125 6.13015625 9.18625 6.1328125 10.3125 C6 13 6 13 5 14 C3.35 14 1.7 14 0 14 C0 9.38 0 4.76 0 0 Z " fill="#C2DFFB" transform="translate(118,169)"/>
<path d="M0 0 C1.65 0 3.3 0 5 0 C5 4.62 5 9.24 5 14 C3.35 14 1.7 14 0 14 C0 9.38 0 4.76 0 0 Z " fill="#8C9BA8" transform="translate(93,175)"/>
<path d="M0 0 C1.65 0 3.3 0 5 0 C5 3.96 5 7.92 5 12 C3.35 12 1.7 12 0 12 C0 8.04 0 4.08 0 0 Z " fill="#8C9BA8" transform="translate(158,147)"/>
<path d="M0 0 C1.32 0.33 2.64 0.66 4 1 C2.73742767 2.17560179 1.46462916 3.34022865 0.1875 4.5 C-0.87404297 5.47453125 -0.87404297 5.47453125 -1.95703125 6.46875 C-4 8 -4 8 -7 8 C-4.69 5.36 -2.38 2.72 0 0 Z " fill="#78C1FE" transform="translate(64,75)"/>
<path d="M0 0 C0 2.64 0 5.28 0 8 C-1.32 6.68 -2.64 5.36 -4 4 C-3.67 3.01 -3.34 2.02 -3 1 C-1 0 -1 0 0 0 Z " fill="#69BAFE" transform="translate(61,193)"/>
</svg>
