<?xml version="1.0" encoding="UTF-8"?>
<svg version="1.1" xmlns="http://www.w3.org/2000/svg" width="512" height="512">
<path d="M0 0 C1.1088707 -0.01058945 1.1088707 -0.01058945 2.24014282 -0.02139282 C32.9284484 -0.24805157 32.9284484 -0.24805157 45.9765625 3.203125 C46.75773438 3.40180176 47.53890625 3.60047852 48.34375 3.80517578 C81.69202869 12.47339075 114.7740849 31.10419236 132.88964844 61.29931641 C144.95431462 82.43145183 148.09247393 108.04655538 141.86376953 131.50585938 C140.07653474 138.03294713 138.2160643 144.53695204 136.2565918 151.0144043 C136.02822128 151.78705627 135.79985077 152.55970825 135.56455994 153.35577393 C135.1300814 154.82313796 134.68356157 156.28700609 134.22340393 157.746521 C133.37725887 160.62525533 132.79282491 162.61873397 133.70800781 165.52954102 C135.06722366 167.40175262 135.06722366 167.40175262 137.3515625 169.578125 C143.25260305 175.47916555 146.16834401 181.53047913 146.35693359 189.91235352 C146.33041066 199.98986404 144.80234194 208.04559852 137.6796875 215.671875 C131.05704782 221.6261749 124.04981774 224.51074245 115.1015625 224.328125 C113.94914062 224.31007812 112.79671875 224.29203125 111.609375 224.2734375 C110.74054688 224.25023437 109.87171875 224.22703125 108.9765625 224.203125 C108.88632812 225.03328125 108.79609375 225.8634375 108.703125 226.71875 C107.83698712 230.8724865 106.28027712 234.19982929 104.3515625 237.953125 C103.81196899 239.01200928 103.81196899 239.01200928 103.26147461 240.09228516 C98.1221881 249.98170683 91.60489464 258.10831212 83.9765625 266.203125 C83.42484375 266.81929688 82.873125 267.43546875 82.3046875 268.0703125 C76.49745459 274.30877558 68.82611715 279.90806827 61.12890625 283.55078125 C58.65092055 285.08828683 58.65092055 285.08828683 58.26953125 288.33984375 C58.23472656 289.51160156 58.19992188 290.68335938 58.1640625 291.890625 C58.11636719 293.07011719 58.06867188 294.24960937 58.01953125 295.46484375 C58.00535156 296.36847656 57.99117187 297.27210938 57.9765625 298.203125 C58.59066986 298.31477997 59.20477722 298.42643494 59.8374939 298.54147339 C65.79416052 299.6715327 71.5004629 301.15866513 77.265625 303.0234375 C78.09492523 303.28696014 78.92422546 303.55048279 79.77865601 303.82199097 C82.38791727 304.65237151 84.99474783 305.49009953 87.6015625 306.328125 C89.38656217 306.89762644 91.17171721 307.46664112 92.95703125 308.03515625 C97.29868831 309.4188687 101.63818405 310.80916882 105.9765625 312.203125 C106.36183105 310.50482544 106.36183105 310.50482544 106.75488281 308.7722168 C107.10460374 307.25304318 107.45455077 305.73392159 107.8046875 304.21484375 C108.05629639 303.10151672 108.05629639 303.10151672 108.31298828 301.96569824 C112.39451228 284.35095205 120.10830414 268.88679573 131.9765625 255.203125 C132.64042969 254.39488281 133.30429687 253.58664062 133.98828125 252.75390625 C151.13498517 232.56453399 176.73641973 219.38938226 202.9765625 216.203125 C207.8343259 215.89144737 212.67208425 215.8213215 217.5390625 215.828125 C218.52776337 215.82894073 218.52776337 215.82894073 219.53643799 215.82977295 C230.51758064 215.87131406 240.5331997 216.81817712 250.9765625 220.203125 C251.6581543 220.41743164 252.33974609 220.63173828 253.04199219 220.85253906 C282.00596417 230.18130078 304.64060032 250.29524608 318.90234375 276.98828125 C332.55802299 303.84257205 334.3103563 335.1239522 325.51171875 363.71875 C316.10976914 392.21550839 295.5502663 415.28490189 269.1171875 429.19921875 C262.3137838 432.59607487 255.25939537 435.05796068 247.9765625 437.203125 C246.87054688 437.5434375 245.76453125 437.88375 244.625 438.234375 C228.07653144 442.41993613 201.68793257 444.05881004 185.9765625 436.203125 C185.98544495 436.89581482 185.99432739 437.58850464 186.003479 438.30218506 C186.09189633 445.50443276 186.15227383 452.70652657 186.19628906 459.90917969 C186.2141615 462.59816966 186.24200725 465.28678326 186.27832031 467.97558594 C186.32677865 471.83800061 186.34951876 475.69983708 186.3671875 479.5625 C186.38783264 480.7667865 186.40847778 481.971073 186.42974854 483.21185303 C186.43005066 484.33271301 186.43035278 485.453573 186.43066406 486.60839844 C186.43954651 487.59434998 186.44842896 488.58030151 186.45758057 489.59613037 C185.82484599 493.0253896 184.68017822 494.04034314 181.9765625 496.203125 C179.27863312 496.70452166 179.27863312 496.70452166 176.12316895 496.70648956 C174.91938347 496.71692055 173.71559799 496.72735154 172.47533417 496.73809862 C171.13785058 496.7294502 169.80036939 496.72042357 168.46289062 496.71105957 C167.04335133 496.71566719 165.62381681 496.72201918 164.2042923 496.72996855 C160.2987814 496.74670436 156.39366024 496.73839645 152.48814774 496.72602367 C148.27812272 496.71699278 144.06816587 496.73093313 139.8581543 496.74194336 C131.60889168 496.7597542 123.35977443 496.75587721 115.11050606 496.7442928 C108.4077243 496.73526881 101.70498335 496.73402998 95.00219727 496.73838806 C94.04916985 496.73900099 93.09614244 496.73961393 92.1142354 496.74024543 C90.17833645 496.7415243 88.24243751 496.74282115 86.30653858 496.7441358 C68.14246767 496.75554911 49.97847743 496.74241612 31.81441975 496.72093433 C16.21998942 496.70306267 0.62567818 496.70616657 -14.96875 496.72460938 C-33.06666272 496.74600284 -51.16450469 496.7544504 -69.26242828 496.74216032 C-71.1913096 496.74088609 -73.12019093 496.73962861 -75.04907227 496.73838806 C-76.47273896 496.73746241 -76.47273896 496.73746241 -77.92516661 496.73651806 C-84.62192193 496.73306058 -91.31863247 496.73890205 -98.01538086 496.74830627 C-106.17360879 496.75951072 -114.33168273 496.75651905 -122.48989296 496.7351833 C-126.65445051 496.72465185 -130.81875108 496.72058648 -134.98330688 496.73377991 C-138.79294098 496.74566664 -142.60207898 496.73920348 -146.41166782 496.7178697 C-147.79249358 496.71338773 -149.17336093 496.71570556 -150.55416012 496.72537285 C-152.42609284 496.73747712 -154.29814236 496.72270988 -156.17004395 496.70648956 C-157.73199871 496.70551545 -157.73199871 496.70551545 -159.32550812 496.70452166 C-162.72423448 496.07288539 -163.90984069 494.88465816 -166.0234375 492.203125 C-166.52680206 489.88877964 -166.52680206 489.88877964 -166.53137207 487.29188538 C-166.54265137 486.30388947 -166.55393066 485.31589355 -166.56555176 484.29795837 C-166.55745483 483.22002518 -166.54935791 482.14209198 -166.54101562 481.03149414 C-166.5480249 479.89111694 -166.55503418 478.75073975 -166.56225586 477.57580566 C-166.57989365 473.79638472 -166.56818477 470.01771019 -166.5546875 466.23828125 C-166.5573824 463.6071305 -166.56126481 460.97598072 -166.56628418 458.34483337 C-166.57356383 452.82087129 -166.56397445 447.29712297 -166.54492188 441.77319336 C-166.52324917 435.4168559 -166.53013244 429.06103363 -166.5522275 422.70470911 C-166.57269942 416.56654899 -166.57036015 410.42861411 -166.55870056 404.29043388 C-166.55604479 401.69151168 -166.55926226 399.09257623 -166.56861877 396.49366951 C-166.64158464 370.5073091 -166.64158464 370.5073091 -162.0234375 360.203125 C-161.61899918 359.21468849 -161.61899918 359.21468849 -161.20639038 358.20628357 C-153.9456215 341.53340144 -140.47445179 330.86923984 -124.0234375 324.203125 C-118.30040751 322.1367133 -112.48162625 320.35173761 -106.67578125 318.53515625 C-105.01137683 318.00946207 -103.3471186 317.48330484 -101.68299866 316.95671082 C-98.21411011 315.86068823 -94.7437583 314.76947426 -91.2722168 313.68188477 C-86.84623811 312.29497828 -82.42378207 310.8972098 -78.00232601 309.49596119 C-74.57271209 308.41015951 -71.14147427 307.32956675 -67.7097187 306.25055504 C-66.07915302 305.73732535 -64.44903907 305.22265794 -62.81941032 304.70646095 C-54.61743968 302.11198542 -46.52170605 299.65554482 -38.0234375 298.203125 C-37.52232163 293.57138259 -37.59424206 289.66241678 -39.0234375 285.203125 C-42.1913533 282.3578258 -45.48008143 280.48947118 -49.18359375 278.4375 C-55.32211583 275.02601903 -60.0870831 270.13261381 -65.0234375 265.203125 C-65.89871094 264.33945312 -66.77398437 263.47578125 -67.67578125 262.5859375 C-76.3862725 253.53991115 -89.0234375 237.34757858 -89.0234375 224.203125 C-89.84585938 224.24953125 -90.66828125 224.2959375 -91.515625 224.34375 C-101.76190853 224.67503861 -109.84202732 223.05121092 -117.4921875 215.90625 C-124.90488835 207.6615113 -126.60168424 198.9274714 -126.33984375 188.125 C-125.93073543 183.05407707 -124.73689325 179.46210895 -122.0234375 175.203125 C-121.41048828 174.21892578 -121.41048828 174.21892578 -120.78515625 173.21484375 C-118.53254913 169.84639409 -116.35306267 167.55925806 -113.0234375 165.203125 C-113.55765746 162.80542012 -114.09916487 160.40990386 -114.6484375 158.015625 C-114.8222998 157.25749512 -114.99616211 156.49936523 -115.17529297 155.71826172 C-116.38681346 150.56851698 -117.80549125 145.51892694 -119.35083008 140.46020508 C-127.20949733 114.52684368 -126.93587695 88.21423148 -114.2434082 63.78295898 C-98.24251548 34.57439297 -68.09372301 15.94870454 -37.0234375 6.203125 C-24.82452585 2.73505307 -12.72517126 0.08127475 0 0 Z " fill="#010101" transform="translate(174.0234375,7.796875)"/>
<path d="M0 0 C3.45731563 2.88026727 6.74567918 5.89386191 10 9 C10.90298828 9.79083984 10.90298828 9.79083984 11.82421875 10.59765625 C27.53456513 24.91641017 37.30610171 48.40849528 38.34375 69.40234375 C39.10634469 97.87254533 30.43055015 123.59580952 10.85351562 144.59838867 C-6.48347186 162.49934355 -30.46501208 172.75395043 -55.33666992 173.41967773 C-74.66051307 173.54048278 -93.03936994 169.27031042 -109.15625 158.3203125 C-116.80770482 154.76785134 -126.11319819 157.9592837 -134 159.5 C-135.25167969 159.73847656 -136.50335938 159.97695313 -137.79296875 160.22265625 C-140.86329068 160.80859555 -143.93216282 161.40121118 -147 162 C-145.90881657 158.56874672 -144.79612462 155.34891252 -143.0546875 152.1953125 C-142.70019531 151.52886719 -142.34570312 150.86242187 -141.98046875 150.17578125 C-141.24497659 148.81135232 -140.50018723 147.45189332 -139.74609375 146.09765625 C-137.13010869 141.12440993 -136.35675071 137.62698257 -137 132 C-138.21606784 129.42231579 -138.21606784 129.42231579 -140.0625 127.1875 C-145.3624202 119.45800178 -148.12209598 110.84754406 -151 102 C-151.54720703 100.36417969 -151.54720703 100.36417969 -152.10546875 98.6953125 C-158.56766271 75.81975265 -153.28630952 49.5859772 -141.92456055 29.15087891 C-137.24206312 21.14694367 -131.57618634 14.50113714 -125 8 C-124.20980469 7.19949219 -123.41960937 6.39898437 -122.60546875 5.57421875 C-89.65380957 -26.0659316 -35.76811635 -27.42391851 0 0 Z " fill="#6497C3" transform="translate(450,259)"/>
<path d="M0 0 C70.95 0 141.9 0 215 0 C223 17 223 17 224 21 C222.9526737 23.49374061 221.85531051 25.74869488 220.5625 28.109375 C219.82509946 29.51800866 219.08813406 30.92687019 218.3515625 32.3359375 C217.18004072 34.542712 216.0022844 36.7457683 214.81542969 38.94433594 C213.67172706 41.0738241 212.55364135 43.21534387 211.4375 45.359375 C211.07922119 46.00549744 210.72094238 46.65161987 210.35180664 47.31732178 C207.79064177 52.28041553 207.49545833 55.56677394 209 61 C211.40743101 63.06454002 211.40743101 63.06454002 214 64 C213.39502443 73.207967 212.43148852 82.33715412 211.27050781 91.48779297 C210.99599146 93.65667037 210.7282117 95.8263132 210.4609375 97.99609375 C210.2868538 99.38546628 210.11238926 100.77479115 209.9375 102.1640625 C209.70353516 104.02732178 209.70353516 104.02732178 209.46484375 105.92822266 C209 109 209 109 208 112 C143.98 112 79.96 112 14 112 C12.77637824 105.27008034 11.61407736 98.64940793 10.77905273 91.87939453 C10.6730777 91.04035583 10.56710266 90.20131714 10.45791626 89.33685303 C10.11340961 86.60254764 9.77333351 83.86771394 9.43359375 81.1328125 C9.19240437 79.20667311 8.95103244 77.28055656 8.70948792 75.35446167 C8.20577472 71.33209484 7.7042674 67.30946086 7.2043457 63.28662109 C6.56752128 58.16357787 5.92518433 53.0412439 5.28117275 47.91909981 C4.7821849 43.94538041 4.28616419 39.9712948 3.79100227 35.99709702 C3.55550184 34.10978825 3.31910773 32.22259074 3.08175468 30.33551407 C2.74868446 27.68383836 2.41964209 25.03169055 2.09155273 22.37939453 C1.99543198 21.62054962 1.89931122 20.86170471 1.80027771 20.0798645 C0.97914317 13.38362135 0.51936117 6.75169516 0 0 Z " fill="#636364" transform="translate(73,376)"/>
<path d="M0 0 C1.46158645 1.22529664 2.92041492 2.45389996 4.375 3.6875 C5.40625 4.47125 6.4375 5.255 7.5 6.0625 C19.86745968 17.3545284 30.31846829 34.97416132 31.30859375 52.09375 C31.33050781 52.9496875 31.35242188 53.805625 31.375 54.6875 C31.44847656 55.9559375 31.52195312 57.224375 31.59765625 58.53125 C32.06716369 69.64002014 30.21887121 79.38772654 27.13671875 90.02441406 C26.32312652 92.86885765 25.56499858 95.72475821 24.8125 98.5859375 C24.29311708 100.51601589 23.77231925 102.44571417 23.25 104.375 C23.00878418 105.29063721 22.76756836 106.20627441 22.51904297 107.1496582 C22.28330566 107.99101318 22.04756836 108.83236816 21.8046875 109.69921875 C21.49893799 110.82009888 21.49893799 110.82009888 21.18701172 111.96362305 C20.91904785 112.53250244 20.65108398 113.10138184 20.375 113.6875 C19.385 114.0175 18.395 114.3475 17.375 114.6875 C17.35518066 113.88530029 17.33536133 113.08310059 17.31494141 112.2565918 C17.21980505 108.62905823 17.1100792 105.00210955 17 101.375 C16.95359375 99.48104492 16.95359375 99.48104492 16.90625 97.54882812 C16.86757813 96.34033203 16.82890625 95.13183594 16.7890625 93.88671875 C16.7576416 92.77127686 16.7262207 91.65583496 16.69384766 90.5065918 C16.569751 87.48381214 16.569751 87.48381214 14.375 84.6875 C11.48692862 83.72480954 9.09976763 83.54612715 6.08227539 83.44824219 C-11.36595113 82.83451632 -24.24263898 76.85783429 -36.625 64.6875 C-37.1921875 64.13320312 -37.759375 63.57890625 -38.34375 63.0078125 C-41.80629094 59.30584054 -43.78976192 55.37204731 -46 50.8125 C-48.11785429 46.46901597 -48.11785429 46.46901597 -51.70703125 43.48828125 C-54.85858603 42.94450649 -57.08461356 43.36326814 -59.8125 45 C-61.439591 47.41258321 -62.587753 49.68508666 -63.8125 52.3125 C-66.73669421 58.412819 -70.87571751 62.92995789 -75.625 67.6875 C-76.19089844 68.265 -76.75679688 68.8425 -77.33984375 69.4375 C-82.31465599 74.10822836 -88.36399037 77.08542731 -94.625 79.6875 C-95.23974686 79.94469818 -95.85449371 80.20189636 -96.48786926 80.46688843 C-104.40459887 83.30674641 -112.26321501 83.09889043 -120.56090927 83.06762505 C-123.22624259 83.0584332 -125.89088477 83.06882645 -128.55618286 83.08424377 C-136.12598782 83.12414394 -143.69573226 83.12553628 -151.265625 83.12329102 C-155.91328916 83.12323997 -160.56057359 83.14236427 -165.2081337 83.17262459 C-167.83186578 83.18344804 -170.45487402 83.17132791 -173.07858276 83.15879822 C-174.6837435 83.16769907 -176.2888983 83.17777221 -177.89404297 83.18920898 C-178.62136124 83.17946548 -179.3486795 83.16972198 -180.09803772 83.15968323 C-183.50186044 83.20815164 -185.32311878 83.4597264 -188.07406616 85.53535461 C-190.16180672 88.4323971 -190.16737213 90.43322269 -190.234375 93.984375 C-190.26660156 95.18964844 -190.29882812 96.39492187 -190.33203125 97.63671875 C-190.35330078 99.51810547 -190.35330078 99.51810547 -190.375 101.4375 C-190.40464844 102.70722656 -190.43429688 103.97695312 -190.46484375 105.28515625 C-190.53553951 108.41933485 -190.58824012 111.55276956 -190.625 114.6875 C-191.615 114.3575 -192.605 114.0275 -193.625 113.6875 C-194.54467773 111.42529297 -194.54467773 111.42529297 -195.30859375 108.4296875 C-195.59468506 107.33688477 -195.88077637 106.24408203 -196.17553711 105.11816406 C-196.46823486 103.94479492 -196.76093262 102.77142578 -197.0625 101.5625 C-197.67642929 99.15868703 -198.29100814 96.75503986 -198.90625 94.3515625 C-199.20015625 93.19172852 -199.4940625 92.03189453 -199.796875 90.83691406 C-200.45689532 88.3268132 -201.165948 85.86507141 -201.96875 83.3984375 C-207.78940802 64.98021248 -205.68370967 45.54121368 -197.3125 28.3125 C-194.29154114 22.58108769 -190.83984813 17.58934981 -186.625 12.6875 C-185.86316406 11.72457031 -185.10132813 10.76164062 -184.31640625 9.76953125 C-181.60062539 6.51569907 -178.54048084 3.94956814 -175.1875 1.375 C-174.57334229 0.9020752 -173.95918457 0.42915039 -173.32641602 -0.05810547 C-171.43807553 -1.49346603 -169.53650301 -2.9081611 -167.625 -4.3125 C-166.79500488 -4.92279053 -166.79500488 -4.92279053 -165.94824219 -5.54541016 C-151.58923255 -15.89068088 -134.82571233 -22.49011948 -117.625 -26.3125 C-116.04138672 -26.75722656 -116.04138672 -26.75722656 -114.42578125 -27.2109375 C-75.72022034 -37.01095176 -30.73042681 -24.40900268 0 0 Z " fill="#5A5A5C" transform="translate(270.625,53.3125)"/>
<path d="M0 0 C15.62976776 5.95500977 15.62976776 5.95500977 18.80859375 10.69921875 C19.6875 13.5 19.6875 13.5 20.33984375 16.3203125 C21.81792873 22.32011308 25.94187884 26.55440138 31 29.875 C38.99943334 34.34084907 46.98331235 35.46074438 55.9765625 33.27734375 C68.5035139 29.01541951 73.18900648 22.62198703 79 11 C84.94 11 90.88 11 97 11 C97.886875 12.711875 98.77375 14.42375 99.6875 16.1875 C103.86870217 23.81721703 109.61534278 29.86560875 117.80859375 33.11328125 C125.98699161 35.38561456 133.90275224 34.99561728 141.5625 31.3125 C148.61952028 27.2972988 153.41106884 22.27860425 157 15 C157.29970703 13.27716797 157.29970703 13.27716797 157.60546875 11.51953125 C159.35928699 7.09322808 161.01787671 6.41004823 165.21875 4.54101562 C166.40984375 4.05665039 166.40984375 4.05665039 167.625 3.5625 C168.42679688 3.21251953 169.22859375 2.86253906 170.0546875 2.50195312 C172.02666971 1.6450799 174.01215496 0.81940079 176 0 C176.76433806 27.8841848 170.69736259 52.09001113 151.29150391 72.80249023 C134.54174194 89.91888781 111.60864231 99.10972337 87.8125 99.375 C64.85250264 99.43609429 45.27424946 90.7576332 28 76 C26.98873047 75.14148438 26.98873047 75.14148438 25.95703125 74.265625 C11.32896998 60.74219994 1.98412322 39.67237069 0 20 C-0.10637131 16.51923599 -0.0950883 13.04443456 -0.0625 9.5625 C-0.05798828 8.64017578 -0.05347656 7.71785156 -0.04882812 6.76757812 C-0.03713938 4.51164952 -0.02075455 2.25586033 0 0 Z " fill="#F4E0CB" transform="translate(96,189)"/>
<path d="M0 0 C0.88429688 0.60199219 1.76859375 1.20398438 2.6796875 1.82421875 C13.1406383 8.62174737 23.8586737 11.90660315 36.3046875 11.82421875 C37.18576172 11.8193042 38.06683594 11.81438965 38.97460938 11.80932617 C45.85447049 11.68611044 52.04497102 10.83661749 58.5546875 8.51171875 C59.58078125 8.14820313 60.606875 7.7846875 61.6640625 7.41015625 C66.64353622 5.49020991 70.69950089 3.58054892 74.7421875 0.07421875 C76.52929688 -1.34936523 76.52929688 -1.34936523 78.5546875 -2.48828125 C86.36178829 -1.34827157 93.82675323 1.43151715 101.3046875 3.88671875 C103.69504566 4.66618337 106.08566972 5.44483305 108.4765625 6.22265625 C110.23129883 6.7945166 110.23129883 6.7945166 112.02148438 7.37792969 C116.57337701 8.83861165 121.14520223 10.22902815 125.72363281 11.60400391 C128.37516017 12.4541573 130.96935785 13.47758689 133.5546875 14.51171875 C134.2146875 21.77171875 134.8746875 29.03171875 135.5546875 36.51171875 C131.41495392 36.51718719 131.41495392 36.51718719 127.19158936 36.52276611 C101.23348005 36.55894998 75.27548685 36.61709752 49.31747055 36.69562149 C35.9709182 36.7354641 22.62443643 36.76783004 9.27783203 36.78271484 C-2.35240508 36.79570431 -13.98251176 36.82259962 -25.61267543 36.86633182 C-31.77318666 36.88900751 -37.93353665 36.90462577 -44.09409332 36.9036026 C-49.88893302 36.9028596 -55.68341545 36.92066538 -61.47816277 36.95288658 C-63.6082668 36.96142679 -65.73841072 36.96310778 -67.86852455 36.95752144 C-70.77086502 36.95092199 -73.67205522 36.96870466 -76.57427979 36.99273682 C-77.8466521 36.98109619 -77.8466521 36.98109619 -79.1447289 36.9692204 C-82.78619532 37.02281554 -84.99270274 37.18301441 -87.9811821 39.35337448 C-90.12356767 42.51156696 -89.73936609 44.6002875 -89.41796875 48.3828125 C-89.35964371 49.10601181 -89.30131866 49.82921112 -89.2412262 50.57432556 C-88.19396958 62.60049914 -86.62013766 74.5880969 -85.13171387 86.56561279 C-84.71214762 89.9514651 -84.29869269 93.33806383 -83.88476562 96.72460938 C-83.07805428 103.32113434 -82.26147857 109.91632974 -81.4453125 116.51171875 C-94.9753125 116.51171875 -108.5053125 116.51171875 -122.4453125 116.51171875 C-122.53746926 108.73727224 -122.61701535 100.96474437 -122.66503906 93.19018555 C-122.68507246 90.54916946 -122.71230701 87.90819726 -122.74707031 85.26733398 C-122.7959515 81.45675784 -122.81836517 77.64677154 -122.8359375 73.8359375 C-122.85658264 72.66778 -122.87722778 71.4996225 -122.89849854 70.29606628 C-122.90211269 56.89411579 -117.89800373 45.03957818 -108.6953125 35.26171875 C-98.07526321 25.30291781 -84.48454636 21.65492388 -70.84765625 17.5390625 C-67.10178964 16.40799141 -63.36656835 15.24446 -59.6328125 14.07421875 C-58.27214174 13.64841729 -56.91146462 13.22263617 -55.55078125 12.796875 C-54.87192871 12.58434082 -54.19307617 12.37180664 -53.49365234 12.15283203 C-49.4804613 10.89673672 -45.46647729 9.64317798 -41.45263672 8.38916016 C-37.3980153 7.12227698 -33.34374759 5.85427416 -29.29003906 4.58447266 C-27.94737938 4.16477053 -26.60428693 3.74645006 -25.26074219 3.32958984 C-22.06134751 2.33642787 -18.87308323 1.3229605 -15.69140625 0.2734375 C-14.53769531 -0.10167969 -13.38398438 -0.47679687 -12.1953125 -0.86328125 C-10.67164063 -1.36988281 -10.67164063 -1.36988281 -9.1171875 -1.88671875 C-5.15367415 -2.77908871 -3.42990173 -2.08752805 0 0 Z " fill="#F0B048" transform="translate(146.4453125,323.48828125)"/>
<path d="M0 0 C17.85545269 15.30467374 30.27830001 36.82932255 32.21582031 60.65380859 C33.62094718 89.26684165 25.61659202 115.5543159 6.28515625 137.0625 C-10.45357252 155.02009596 -33.90759641 166.14495595 -58.5 167.34375 C-78.80436716 167.88722691 -98.18373303 163.8516402 -115.15625 152.3203125 C-122.80770482 148.76785134 -132.11319819 151.9592837 -140 153.5 C-141.25167969 153.73847656 -142.50335938 153.97695313 -143.79296875 154.22265625 C-146.86329068 154.80859555 -149.93216282 155.40121118 -153 156 C-151.4719611 150.90117545 -149.28963144 146.34334341 -146.875 141.625 C-146.50246094 140.88894531 -146.12992187 140.15289062 -145.74609375 139.39453125 C-144.8343878 137.59449642 -143.91770068 135.79698598 -143 134 C-142.11707747 134.00414807 -142.11707747 134.00414807 -141.21631813 134.00837994 C-126.85909938 134.07478532 -112.50189438 134.12435115 -98.14455605 134.15543652 C-91.20129487 134.17087078 -84.25813654 134.19189396 -77.31494141 134.22631836 C-70.61057501 134.25954265 -63.90633738 134.27686889 -57.20188522 134.28463173 C-54.64791562 134.29016178 -52.09395165 134.30096058 -49.54002762 134.31719017 C-45.95445527 134.33906321 -42.36932006 134.34196273 -38.78369141 134.34057617 C-37.7349585 134.351362 -36.68622559 134.36214783 -35.60571289 134.3732605 C-25.76450131 134.3322567 -17.60918459 132.41542137 -9.9765625 126.0234375 C-3.60121898 119.49690006 -0.748537 110.92306661 -0.81982422 101.90063477 C-0.83803223 101.12905029 -0.85624023 100.35746582 -0.875 99.5625 C-0.91625 97.066875 -0.9575 94.57125 -1 92 C-6.28 97.28 -11.56 102.56 -17 108 C-20.66771845 106.16614077 -22.46834996 104.74937171 -25.25 101.875 C-25.95640625 101.15054688 -26.6628125 100.42609375 -27.390625 99.6796875 C-27.92171875 99.12539063 -28.4528125 98.57109375 -29 98 C-27.4152642 94.13671373 -24.94043113 91.71123077 -21.9921875 88.796875 C-21.50670441 88.3142218 -21.02122131 87.8315686 -20.52102661 87.33428955 C-18.97700134 85.80141438 -17.42615176 84.27565996 -15.875 82.75 C-14.82375991 81.70879639 -13.77297343 80.66713459 -12.72265625 79.625 C-10.15366996 77.07800536 -7.57851839 74.53734823 -5 72 C-6.57436909 68.12946551 -9.04342235 65.79877598 -12.04296875 62.9375 C-13.04403498 61.96657373 -14.04467354 60.99520634 -15.04492188 60.0234375 C-16.62025491 58.50405824 -18.19915893 56.98892339 -19.78588867 55.48144531 C-21.32018204 54.01949071 -22.83855478 52.54244987 -24.35546875 51.0625 C-25.26965576 50.18722656 -26.18384277 49.31195313 -27.12573242 48.41015625 C-29 46 -29 46 -28.88330078 43.80151367 C-27.78188484 41.55514876 -26.46773797 40.06986553 -24.6875 38.3125 C-24.09324219 37.71050781 -23.49898437 37.10851562 -22.88671875 36.48828125 C-21 35 -21 35 -17 34 C-11.72 39.28 -6.44 44.56 -1 50 C-0.67 33.5 -0.34 17 0 0 Z " fill="#4078B1" transform="translate(456,265)"/>
<path d="M0 0 C3.22804971 1.38344988 4.95435419 2.88715026 7.125 5.625 C20.14011076 20.80472918 37.59380403 27.5742255 57 30 C57 36.27 57 42.54 57 49 C54.21093539 50.50501988 51.41899281 52.0041807 48.625 53.5 C47.43390625 54.14388672 47.43390625 54.14388672 46.21875 54.80078125 C45.45820313 55.20683594 44.69765625 55.61289063 43.9140625 56.03125 C43.2123291 56.40830078 42.5105957 56.78535156 41.78759766 57.17382812 C40 58 40 58 38 58 C37.09014236 56.49053126 36.24778901 54.94017364 35.4375 53.375 C32.20283563 47.81074767 28.65556498 44.94439208 23 42 C22.37351563 41.66097656 21.74703125 41.32195312 21.1015625 40.97265625 C14.46793737 37.93574348 6.42423274 37.80261591 -0.5546875 39.69140625 C-2.83987669 40.63632012 -4.88414992 41.72242957 -7 43 C-7.68707031 43.37769531 -8.37414062 43.75539062 -9.08203125 44.14453125 C-15.88803473 48.45196366 -18.5567661 54.97006411 -22 62 C-27.94 62 -33.88 62 -40 62 C-40.886875 60.288125 -41.77375 58.57625 -42.6875 56.8125 C-47.33850701 48.34528211 -53.33399107 43.28819592 -62.25 39.6875 C-71.30826712 38.0268177 -78.99998022 38.20894338 -87 43 C-88.06734375 43.63615234 -88.06734375 43.63615234 -89.15625 44.28515625 C-94.55806308 47.90316165 -97.29633737 52.15072988 -100 58 C-106.86923413 55.93296602 -112.73302038 52.45323367 -119 49 C-119 42.73 -119 36.46 -119 30 C-116.96328125 29.9906543 -114.9265625 29.98130859 -112.828125 29.97167969 C-106.03470401 29.93763546 -99.24157808 29.88193867 -92.44839478 29.81609726 C-88.33700155 29.77689295 -84.22581385 29.74457408 -80.11425781 29.72900391 C-76.13282363 29.71365622 -72.15195556 29.67890023 -68.17077637 29.63169098 C-66.6657 29.61706096 -65.16054273 29.6089698 -63.65539551 29.60811615 C-43.25405558 29.58494846 -24.21103286 24.34474288 -9 10 C-5.8928924 6.75356022 -2.90686859 3.4264538 0 0 Z " fill="#F5E0CB" transform="translate(215,122)"/>
<path d="M0 0 C6.30080524 4.47982784 11.92473197 11.7276776 13.3125 19.4375 C14.32433408 30.31070117 12.12319991 40.06518723 5.140625 48.65234375 C-2.00521284 55.63022386 -10.38736807 58.37971636 -20.125 58.8125 C-28.80273406 58.62072687 -36.54403577 54.49042897 -42.6875 48.4375 C-49.37556629 39.59916849 -51.94785956 30.46564612 -50.6875 19.4375 C-48.0178885 10.03318676 -42.09578172 2.6742071 -33.8359375 -2.375 C-22.98662082 -8.37171322 -10.31797697 -6.16285257 0 0 Z " fill="#010101" transform="translate(202.6875,405.5625)"/>
<path d="M0 0 C2.40783878 1.27559706 4.14371836 2.83908738 6.08398438 4.75097656 C6.80199219 5.43804687 7.52 6.12511719 8.25976562 6.83300781 C9.77148438 8.93847656 9.77148438 8.93847656 9.68652344 10.73120117 C8.36496228 13.91909723 6.07905363 15.99964094 3.64257812 18.36035156 C3.13348404 18.86520081 2.62438995 19.37005005 2.09986877 19.89019775 C0.47649317 21.49681635 -1.15701262 23.09267478 -2.79101562 24.68847656 C-3.89521613 25.77762641 -4.99874007 26.86746261 -6.1015625 27.95800781 C-8.80276853 30.62618416 -11.51310625 33.28475947 -14.22851562 35.93847656 C-12.65414653 39.80901106 -10.18509328 42.13970058 -7.18554688 45.00097656 C-6.18448064 45.97190283 -5.18384209 46.94327022 -4.18359375 47.91503906 C-2.60826071 49.43441832 -1.02935669 50.94955317 0.55737305 52.45703125 C2.09166642 53.91898586 3.61003916 55.39602669 5.12695312 56.87597656 C6.04114014 57.75125 6.95532715 58.62652344 7.8972168 59.52832031 C9.77148438 61.93847656 9.77148438 61.93847656 9.66845703 64.11889648 C8.45020628 66.59021463 6.89108318 68.29020097 4.95898438 70.25097656 C4.27191406 70.96898437 3.58484375 71.68699219 2.87695312 72.42675781 C0.77148438 73.93847656 0.77148438 73.93847656 -1.15486145 73.71592712 C-3.5343837 72.82380107 -4.72646229 71.80905929 -6.51245117 70.01098633 C-7.12956467 69.39687393 -7.74667816 68.78276154 -8.38249207 68.15003967 C-9.03679703 67.48338791 -9.69110199 66.81673615 -10.36523438 66.12988281 C-11.0452803 65.44796371 -11.72532623 64.76604462 -12.42597961 64.0634613 C-13.86082978 62.62189289 -15.29207959 61.17673323 -16.7199707 59.72827148 C-18.91104836 57.50601451 -21.11263978 55.29462837 -23.31640625 53.08496094 C-24.70830829 51.68388986 -26.09960531 50.28221739 -27.49023438 48.87988281 C-28.15061203 48.21525528 -28.81098969 47.55062775 -29.49137878 46.86585999 C-30.0990358 46.24859543 -30.70669281 45.63133087 -31.33276367 44.99536133 C-31.86918991 44.45210709 -32.40561615 43.90885284 -32.95829773 43.34913635 C-34.74804738 41.36150268 -35.22499577 39.9569558 -35.72851562 37.31347656 C-34.43686395 28.59482775 -22.9080881 20.33072135 -16.81176758 14.17163086 C-15.62055077 12.96366179 -14.43475127 11.75032898 -13.25415039 10.53198242 C-11.53481816 8.75821847 -9.79990569 7.0011728 -8.06054688 5.24707031 C-7.53443314 4.6982872 -7.0083194 4.14950409 -6.46626282 3.58409119 C-2.78421938 -0.07686495 -2.78421938 -0.07686495 0 0 Z " fill="#020405" transform="translate(347.228515625,299.0615234375)"/>
<path d="M0 0 C2.9519746 1.1546923 4.97042244 2.72142633 7.19213867 4.94921875 C7.78923141 5.54323486 8.38632416 6.13725098 9.00151062 6.74926758 C9.6339418 7.38888428 10.26637299 8.02850098 10.91796875 8.6875 C11.57581863 9.34580811 12.23366852 10.00411621 12.91145325 10.68237305 C14.29807992 12.07201594 15.68228022 13.46408362 17.06420898 14.85839844 C19.18485617 16.99733337 21.31342786 19.12812668 23.44335938 21.2578125 C24.789536 22.60890339 26.13525506 23.96045036 27.48046875 25.3125 C28.11897263 25.9521167 28.7574765 26.5917334 29.41532898 27.25073242 C30.00296524 27.84474854 30.5906015 28.43876465 31.19604492 29.05078125 C31.71470627 29.57325439 32.23336761 30.09572754 32.76774597 30.6340332 C34.53850522 32.59693881 35.00251778 34.01321834 35.5 36.625 C34.11712605 45.95939913 21.12224107 54.98738734 14.5625 61.5 C13.3415631 62.71591114 12.12085808 63.93205516 10.90039062 65.1484375 C7.93625987 68.10164966 4.96901042 71.05169398 2 74 C-1.41059403 72.39464713 -3.61792484 70.59481099 -6.25 67.875 C-6.95640625 67.15054688 -7.6628125 66.42609375 -8.390625 65.6796875 C-8.92171875 65.12539063 -9.4528125 64.57109375 -10 64 C-8.4152642 60.13671373 -5.94043113 57.71123077 -2.9921875 54.796875 C-2.50670441 54.3142218 -2.02122131 53.8315686 -1.52102661 53.33428955 C0.02299866 51.80141438 1.57384824 50.27565996 3.125 48.75 C4.17624009 47.70879639 5.22702657 46.66713459 6.27734375 45.625 C8.84633004 43.07800536 11.42148161 40.53734823 14 38 C12.42563091 34.12946551 9.95657765 31.79877598 6.95703125 28.9375 C5.95596502 27.96657373 4.95532646 26.99520634 3.95507812 26.0234375 C2.37974509 24.50405824 0.80084107 22.98892339 -0.78588867 21.48144531 C-2.32018204 20.01949071 -3.83855478 18.54244987 -5.35546875 17.0625 C-6.26965576 16.18722656 -7.18384277 15.31195313 -8.12573242 14.41015625 C-10 12 -10 12 -9.88769531 9.80151367 C-8.76606792 7.5252517 -7.39298776 6.066876 -5.5625 4.3125 C-4.94503906 3.71050781 -4.32757813 3.10851562 -3.69140625 2.48828125 C-2 1 -2 1 0 0 Z " fill="#020304" transform="translate(437,299)"/>
<path d="M0 0 C14.19 0 28.38 0 43 0 C43 10.56 43 21.12 43 32 C27.49 32 11.98 32 -4 32 C-2.68 21.44 -1.36 10.88 0 0 Z " fill="#F6E1CC" transform="translate(301,456)"/>
<path d="M0 0 C14.19 0 28.38 0 43 0 C44.32 10.56 45.64 21.12 47 32 C31.49 32 15.98 32 0 32 C0 21.44 0 10.88 0 0 Z " fill="#F6E1CC" transform="translate(24,456)"/>
<path d="M0 0 C1.72945653 0.14235457 3.45855654 0.28904382 5.1875 0.4375 C6.63189453 0.55931641 6.63189453 0.55931641 8.10546875 0.68359375 C10.78814012 0.97684123 13.35980785 1.45328372 16 2 C14.40301927 11.08760954 12.58406834 20.12759452 10.7421875 29.16796875 C10.43106447 30.69922426 10.12004124 32.23050006 9.80911255 33.76179504 C8.99800044 37.75509499 8.18555013 41.74812148 7.37280273 45.74108887 C6.54068159 49.83048067 5.70985132 53.92013471 4.87890625 58.00976562 C3.25385395 66.00676488 1.62738515 74.00347516 0 82 C-1.5912673 81.84630447 -3.18238453 81.69105482 -4.7734375 81.53515625 C-5.65950684 81.44886963 -6.54557617 81.36258301 -7.45849609 81.27368164 C-10.32917948 80.96455233 -13.16075919 80.52301804 -16 80 C-15.35464171 75.23800629 -14.55838326 70.53927833 -13.6171875 65.82714844 C-13.48209778 65.14819519 -13.34700806 64.46924194 -13.20782471 63.76971436 C-12.76547001 61.54921307 -12.32033824 59.32927968 -11.875 57.109375 C-11.56482906 55.5571717 -11.25477227 54.00494558 -10.94482422 52.45269775 C-10.29714794 49.21137775 -9.6480907 45.97033819 -8.99804688 42.72949219 C-8.16485417 38.57495905 -7.33513578 34.41974094 -6.50643921 30.26430893 C-5.86786004 27.06419172 -5.22745195 23.86444264 -4.58648682 20.66480255 C-4.27971939 19.13229921 -3.97352296 17.59968146 -3.66790771 16.06694794 C-3.24140194 13.92934546 -2.81243715 11.79225094 -2.3828125 9.65527344 C-2.13934082 8.43950623 -1.89586914 7.22373901 -1.64501953 5.97113037 C-1 3 -1 3 0 0 Z " fill="#010102" transform="translate(392,295)"/>
<path d="M0 0 C5.28 0 10.56 0 16 0 C16.37125 1.381875 16.7425 2.76375 17.125 4.1875 C18.75004042 9.12482376 20.74489133 11.10290473 25 14 C28.45844824 15.72922412 32.21165265 15.35136443 36 15 C40.70813298 13.31217874 43.31740144 11.21551203 46 7 C46.66 4.69 47.32 2.38 48 0 C53.28 0 58.56 0 64 0 C63.69711773 9.08646817 60.61338644 18.02942662 53.875 24.4375 C45.19950225 30.84899724 35.68451248 33.4694638 25 32 C21.68171232 31.08619462 18.93429474 29.78512228 16 28 C15.30132812 27.5875 14.60265625 27.175 13.8828125 26.75 C6.74701398 22.01075268 1.89831516 14.35258672 0 6 C0 4.02 0 2.04 0 0 Z " fill="#030302" transform="translate(152,240)"/>
<path d="M0 0 C1.47943027 0.29032661 2.95852623 0.58235679 4.4375 0.875 C5.67306641 1.11863281 5.67306641 1.11863281 6.93359375 1.3671875 C8.61603057 1.71439102 10.29654278 2.07614835 11.96044922 2.50341797 C18.09096276 4.02885092 23.94441231 4.3832426 30.25 4.375 C31.79880859 4.37693359 31.79880859 4.37693359 33.37890625 4.37890625 C43.86407624 4.23807979 53.8177631 2.37585528 64 0 C64.59547339 9.19133243 64.59547339 9.19133243 62.41796875 12.1484375 C61.31388672 12.75558594 61.31388672 12.75558594 60.1875 13.375 C59.3728125 13.83003906 58.558125 14.28507812 57.71875 14.75390625 C44.81524813 20.66801127 29.89413056 24.17913984 16 19.375 C10.62339571 17.0529062 4.1847586 14.1847586 0 10 C-0.07205511 8.31391034 -0.08386068 6.62499341 -0.0625 4.9375 C-0.05347656 4.01839844 -0.04445312 3.09929687 -0.03515625 2.15234375 C-0.02355469 1.44207031 -0.01195312 0.73179687 0 0 Z " fill="#F2DEC9" transform="translate(152,299)"/>
<path d="M0 0 C4.98669007 2.49334503 8.49675474 5.99350949 11 11 C11.59057744 16.67862925 11.29370905 21.16922672 8 26 C3.99653611 30.03627917 0.41408246 32.12458106 -5.3125 32.3125 C-9.94226662 32.25237316 -12.4369151 31.06591027 -16 28 C-20.3022759 23.23261319 -21.36282503 19.56252705 -21.28125 13.28125 C-20.69180611 8.50020514 -17.85179203 5.75038822 -14.375 2.6875 C-9.71860985 -0.62098774 -5.60468123 -0.62082623 0 0 Z " fill="#58585A" transform="translate(189,416)"/>
<path d="M0 0 C5.67476113 1.96434039 9.31400331 5.62800662 12 11 C12.3962444 16.84460492 11.95926533 20.77196458 9 26 C5.10505806 30.11842222 1.36523384 32.12618404 -4.3125 32.3125 C-8.94226662 32.25237316 -11.4369151 31.06591027 -15 28 C-19.39893104 23.00661882 -20.35676337 20.08984773 -20.28125 13.5390625 C-19.73016315 8.56397287 -16.99302299 5.87480597 -13.375 2.6875 C-8.92314854 -0.47565762 -5.3540278 -0.48837416 0 0 Z " fill="#C7C7C7" transform="translate(228,176)"/>
<path d="M0 0 C5.67476113 1.96434039 9.31400331 5.62800662 12 11 C12.3962444 16.84460492 11.95926533 20.77196458 9 26 C5.10505806 30.11842222 1.36523384 32.12618404 -4.3125 32.3125 C-8.94226662 32.25237316 -11.4369151 31.06591027 -15 28 C-19.39893104 23.00661882 -20.35676337 20.08984773 -20.28125 13.5390625 C-19.73016315 8.56397287 -16.99302299 5.87480597 -13.375 2.6875 C-8.92314854 -0.47565762 -5.3540278 -0.48837416 0 0 Z " fill="#C7C7C7" transform="translate(148,176)"/>
<path d="M0 0 C7.91317365 1.13045338 7.91317365 1.13045338 10.8125 3.8125 C11.37582031 4.31394531 11.93914062 4.81539062 12.51953125 5.33203125 C16.17097285 9.44592455 16.43409959 13.19581856 16.31640625 18.53125 C15.70229233 23.32285488 12.99546641 25.97688175 9.75 29.3125 C7 31 7 31 -1 32 C-0.67 21.44 -0.34 10.88 0 0 Z " fill="#F0DCC7" transform="translate(288,184)"/>
<path d="M0 0 C0.33 10.56 0.66 21.12 1 32 C-5.25686185 32 -6.38429151 31.71263509 -11 28 C-15.3022759 23.23261319 -16.36282503 19.56252705 -16.28125 13.28125 C-15.69180611 8.50020514 -12.85179203 5.75038822 -9.375 2.6875 C-5.56066756 -0.02268357 -5.12122052 0 0 0 Z " fill="#F1DCC8" transform="translate(80,184)"/>
<path d="M0 0 C0.79019531 0.45503906 1.58039063 0.91007812 2.39453125 1.37890625 C2.98621094 1.72824219 3.57789063 2.07757813 4.1875 2.4375 C4.1875 3.4275 4.1875 4.4175 4.1875 5.4375 C-9.3425 5.4375 -22.8725 5.4375 -36.8125 5.4375 C-36.8125 4.4475 -36.8125 3.4575 -36.8125 2.4375 C-30.20083608 0.70147651 -23.56263685 -0.89817363 -16.875 -2.3125 C-15.64910156 -2.57546875 -14.42320312 -2.8384375 -13.16015625 -3.109375 C-7.83481113 -3.83019184 -4.57889239 -2.66532542 0 0 Z " fill="#E7A945" transform="translate(339.8125,434.5625)"/>
</svg>
