<?xml version="1.0" standalone="no"?>
<!DOCTYPE svg PUBLIC "-//W3C//DTD SVG 20010904//EN"
 "http://www.w3.org/TR/2001/REC-SVG-20010904/DTD/svg10.dtd">
<svg version="1.0" xmlns="http://www.w3.org/2000/svg"
 width="3840.000000pt" height="499.000000pt" viewBox="0 0 3840.000000 499.000000"
 preserveAspectRatio="xMidYMid meet">

<g transform="translate(0.000000,499.000000) scale(0.100000,-0.100000)"
fill="#000000" stroke="none">
<path d="M17640 4979 c-76 -11 -140 -34 -235 -82 -167 -87 -61 69 -1725 -2537
l-1498 -2345 551 -3 c433 -2 554 1 563 10 7 7 559 881 1228 1943 669 1062
1220 1931 1225 1933 6 2 1326 -2115 1339 -2149 2 -5 -564 -10 -1257 -11
l-1261 -3 273 -425 273 -425 1285 -3 1284 -3 260 -434 260 -434 557 -1 558 0
-34 53 c-32 50 -2482 3881 -2815 4401 -176 276 -238 350 -345 415 -151 91
-318 125 -486 100z"/>
<path d="M2180 4929 c-1020 -99 -1863 -798 -2145 -1779 l-35 -122 0 -554 0
-554 31 -113 c110 -398 335 -782 632 -1079 389 -389 882 -630 1440 -703 102
-13 335 -15 1745 -15 1719 0 1700 0 1927 46 913 185 1660 897 1890 1800 61
241 70 320 70 614 0 288 -9 368 -65 598 -183 748 -738 1393 -1450 1684 -180
74 -371 127 -590 164 -97 17 -222 18 -1735 20 -896 1 -1668 -2 -1715 -7z
m3460 -886 c143 -33 254 -70 369 -124 470 -221 801 -655 897 -1174 26 -139 26
-411 0 -550 -108 -585 -516 -1057 -1074 -1244 -50 -17 -136 -41 -189 -53 l-98
-22 -1525 -4 c-1103 -2 -1551 0 -1620 8 -548 66 -1025 408 -1260 903 -244 512
-200 1107 115 1577 255 379 639 623 1094 695 70 11 380 13 1641 12 l1555 -2
95 -22z"/>
<path d="M8310 2475 l0 -2465 470 0 470 0 0 2030 0 2030 1620 0 c1771 0 1688
3 1838 -57 183 -74 358 -246 435 -429 186 -442 -42 -929 -508 -1086 l-70 -23
-1414 -5 -1413 -5 1411 -1228 1411 -1227 682 2 682 3 -520 436 c-285 240 -708
595 -939 788 -231 194 -421 356 -423 361 -2 4 147 10 330 13 365 5 420 12 621
78 548 181 986 670 1101 1230 43 209 46 479 7 669 -46 229 -147 465 -279 650
-86 122 -270 306 -392 392 -174 123 -421 231 -620 272 -171 35 -244 36 -2377
36 l-2123 0 0 -2465z"/>
<path d="M23020 4929 c-725 -69 -1381 -451 -1795 -1044 -227 -326 -364 -679
-426 -1100 -21 -136 -18 -511 4 -655 85 -553 329 -1036 713 -1412 140 -137
220 -202 374 -304 257 -169 567 -299 860 -358 229 -46 216 -46 1903 -46 l1592
1 272 427 272 427 -1832 5 -1832 5 -108 23 c-357 76 -665 255 -902 525 -169
192 -300 453 -355 706 -96 443 2 911 267 1280 211 294 545 523 891 611 201 51
171 50 1758 50 l1482 0 276 429 c152 236 276 431 276 435 0 9 -3592 5 -3690
-5z"/>
<path d="M27240 2671 c0 -2195 1 -2271 19 -2330 10 -33 30 -80 44 -103 34 -59
132 -150 195 -182 117 -59 -20 -56 2363 -54 l2183 3 278 430 278 430 -2210 3
-2210 2 0 2035 0 2035 -470 0 -470 0 0 -2269z"/>
<path d="M34670 4929 c-275 -28 -552 -108 -815 -233 -241 -115 -441 -256 -643
-450 -216 -209 -366 -414 -497 -681 -118 -241 -180 -433 -228 -705 -29 -169
-31 -576 -4 -745 71 -445 250 -852 522 -1190 80 -98 263 -283 364 -366 275
-225 665 -414 1022 -493 253 -56 242 -56 1889 -55 l1515 0 272 427 272 427
-1812 5 -1812 6 -100 22 c-315 72 -571 206 -787 410 -155 148 -265 299 -351
480 -39 85 -87 215 -87 239 0 11 351 13 2028 13 l2027 0 270 421 c149 231 272
425 273 430 2 5 -911 9 -2297 9 l-2301 0 0 20 c0 30 60 180 113 285 217 426
608 724 1099 838 93 21 100 21 1600 24 l1507 3 269 423 c148 232 272 428 276
435 6 9 -346 12 -1746 11 -964 -1 -1791 -6 -1838 -10z"/>
</g>
</svg>
