<?xml version="1.0" encoding="UTF-8"?>
<svg version="1.1" xmlns="http://www.w3.org/2000/svg" width="520" height="520">
<path d="M0 0 C1.01724152 0.00182281 2.03448303 0.00364563 3.08255005 0.00552368 C17.71838283 0.04971026 31.97881294 0.46605186 46.375 3.3125 C47.26912598 3.47347168 48.16325195 3.63444336 49.08447266 3.80029297 C72.49938713 8.03572754 95.05336982 15.7948761 116.375 26.3125 C117.46748047 26.84544678 117.46748047 26.84544678 118.58203125 27.38916016 C135.01447086 35.48324697 150.18289235 45.75720144 164.375 57.3125 C164.91511719 57.74965332 165.45523437 58.18680664 166.01171875 58.63720703 C180.08649098 70.1160204 193.31676869 82.88129466 204.375 97.3125 C205.53128906 98.74335938 205.53128906 98.74335938 206.7109375 100.203125 C239.22471113 141.02483447 260.31665098 195.10320105 260.578125 247.54296875 C260.58513931 248.48799255 260.59215363 249.43301636 260.59938049 250.40667725 C260.61678359 253.43783387 260.62323225 256.46879526 260.625 259.5 C260.62601212 261.05208664 260.62601212 261.05208664 260.62704468 262.63552856 C260.61168068 277.43766438 260.2540145 291.7516054 257.375 306.3125 C257.21402832 307.20662598 257.05305664 308.10075195 256.88720703 309.02197266 C252.65177246 332.43688713 244.8926239 354.99086982 234.375 376.3125 C233.84205322 377.40498047 233.84205322 377.40498047 233.29833984 378.51953125 C225.20425303 394.95197086 214.93029856 410.12039235 203.375 424.3125 C202.93784668 424.85261719 202.50069336 425.39273437 202.05029297 425.94921875 C190.5714796 440.02399098 177.80620534 453.25426869 163.375 464.3125 C161.94414063 465.46878906 161.94414063 465.46878906 160.484375 466.6484375 C119.66266553 499.16221113 65.58429895 520.25415098 13.14453125 520.515625 C12.19950745 520.52263931 11.25448364 520.52965363 10.28082275 520.53688049 C7.24966613 520.55428359 4.21870474 520.56073225 1.1875 520.5625 C-0.36458664 520.56351212 -0.36458664 520.56351212 -1.94802856 520.56454468 C-16.75016438 520.54918068 -31.0641054 520.1915145 -45.625 517.3125 C-46.51912598 517.15152832 -47.41325195 516.99055664 -48.33447266 516.82470703 C-71.74938713 512.58927246 -94.30336982 504.8301239 -115.625 494.3125 C-116.35332031 493.95720215 -117.08164063 493.6019043 -117.83203125 493.23583984 C-134.26447086 485.14175303 -149.43289235 474.86779856 -163.625 463.3125 C-164.16511719 462.87534668 -164.70523438 462.43819336 -165.26171875 461.98779297 C-179.33649098 450.5089796 -192.56676869 437.74370534 -203.625 423.3125 C-204.39585937 422.35859375 -205.16671875 421.4046875 -205.9609375 420.421875 C-233.31925208 386.07295007 -251.24268332 343.70493842 -257.625 300.3125 C-257.80232666 299.11947266 -257.97965332 297.92644531 -258.16235352 296.69726562 C-259.82070742 284.70232149 -259.98245086 272.78125162 -259.9375 260.6875 C-259.93567719 259.67025848 -259.93385437 258.65301697 -259.93197632 257.60494995 C-259.88778974 242.96911717 -259.47144814 228.70868706 -256.625 214.3125 C-256.46402832 213.41837402 -256.30305664 212.52424805 -256.13720703 211.60302734 C-251.90177246 188.18811287 -244.1426239 165.63413018 -233.625 144.3125 C-233.26970215 143.58417969 -232.9144043 142.85585937 -232.54833984 142.10546875 C-224.45425303 125.67302914 -214.18029856 110.50460765 -202.625 96.3125 C-202.18784668 95.77238281 -201.75069336 95.23226562 -201.30029297 94.67578125 C-189.8214796 80.60100902 -177.05620534 67.37073131 -162.625 56.3125 C-161.19414062 55.15621094 -161.19414062 55.15621094 -159.734375 53.9765625 C-125.38545007 26.61824792 -83.01743842 8.69481668 -39.625 2.3125 C-37.83545898 2.04651001 -37.83545898 2.04651001 -36.00976562 1.77514648 C-24.01482149 0.11679258 -12.09375162 -0.04495086 0 0 Z " fill="#F0F2F3" transform="translate(259.625,-0.3125)"/>
<path d="M0 0 C2.47894271 2.27229701 4.89616022 4.60329963 7.31494141 6.93969727 C8.24048828 7.80208008 9.16603516 8.66446289 10.11962891 9.55297852 C21.43986258 20.3761481 30.1125956 33.06959767 37.31494141 46.93969727 C37.65122559 47.58100586 37.98750977 48.22231445 38.33398438 48.88305664 C44.15740471 60.14148694 48.23901362 71.65095415 51.31494141 83.93969727 C51.49428223 84.64578125 51.67362305 85.35186523 51.85839844 86.0793457 C61.24670537 125.03103028 51.7758009 167.47414672 31.85449219 201.42895508 C26.8172979 209.52961435 21.0192757 216.76728535 14.45556641 223.68188477 C12.76176688 225.46841054 11.2075931 227.25722077 9.68994141 229.18969727 C6.52915696 232.84955294 3.0470475 235.87403869 -0.68505859 238.93969727 C-1.62349609 239.71571289 -2.56193359 240.49172852 -3.52880859 241.29125977 C-11.70271992 247.89604897 -20.36272643 253.11863216 -29.68505859 257.93969727 C-30.36052734 258.29306152 -31.03599609 258.64642578 -31.73193359 259.01049805 C-67.57052544 277.53679302 -110.20200317 280.26544349 -148.66015625 268.66381836 C-172.41042195 261.05340523 -192.90354127 248.31880401 -210.68505859 230.93969727 C-211.60673828 230.07989258 -212.52841797 229.22008789 -213.47802734 228.33422852 C-232.31953743 210.34311099 -246.48341476 185.24910859 -252.68505859 159.93969727 C-252.93771484 158.97547852 -253.19037109 158.01125977 -253.45068359 157.01782227 C-263.79040548 115.45619507 -256.45275475 72.77426458 -234.77880859 36.17797852 C-228.65498422 26.70661581 -221.41509309 18.13989486 -213.68505859 9.93969727 C-213.03666016 9.2268457 -212.38826172 8.51399414 -211.72021484 7.77954102 C-157.39302324 -49.67589578 -58.52981939 -52.25809968 0 0 Z " fill="#FEFEFE" transform="translate(361.68505859375,141.060302734375)"/>
<path d="M0 0 C2.47894271 2.27229701 4.89616022 4.60329963 7.31494141 6.93969727 C8.24048828 7.80208008 9.16603516 8.66446289 10.11962891 9.55297852 C21.43986258 20.3761481 30.1125956 33.06959767 37.31494141 46.93969727 C37.65122559 47.58100586 37.98750977 48.22231445 38.33398438 48.88305664 C44.15740471 60.14148694 48.23901362 71.65095415 51.31494141 83.93969727 C51.49428223 84.64578125 51.67362305 85.35186523 51.85839844 86.0793457 C61.24670537 125.03103028 51.7758009 167.47414672 31.85449219 201.42895508 C26.8172979 209.52961435 21.0192757 216.76728535 14.45556641 223.68188477 C12.76176688 225.46841054 11.2075931 227.25722077 9.68994141 229.18969727 C6.52915696 232.84955294 3.0470475 235.87403869 -0.68505859 238.93969727 C-1.62349609 239.71571289 -2.56193359 240.49172852 -3.52880859 241.29125977 C-11.70271992 247.89604897 -20.36272643 253.11863216 -29.68505859 257.93969727 C-30.36052734 258.29306152 -31.03599609 258.64642578 -31.73193359 259.01049805 C-67.57052544 277.53679302 -110.20200317 280.26544349 -148.66015625 268.66381836 C-172.41042195 261.05340523 -192.90354127 248.31880401 -210.68505859 230.93969727 C-211.60673828 230.07989258 -212.52841797 229.22008789 -213.47802734 228.33422852 C-232.31953743 210.34311099 -246.48341476 185.24910859 -252.68505859 159.93969727 C-252.93771484 158.97547852 -253.19037109 158.01125977 -253.45068359 157.01782227 C-263.79040548 115.45619507 -256.45275475 72.77426458 -234.77880859 36.17797852 C-228.65498422 26.70661581 -221.41509309 18.13989486 -213.68505859 9.93969727 C-213.03666016 9.2268457 -212.38826172 8.51399414 -211.72021484 7.77954102 C-157.39302324 -49.67589578 -58.52981939 -52.25809968 0 0 Z M-206.31005859 27.68969727 C-232.25253821 57.38515766 -242.02192923 94.4845154 -239.53125 133.33911133 C-236.61818543 169.3809818 -217.30843764 202.31411426 -190.42724609 225.76000977 C-158.88385255 250.8329636 -121.4671722 260.74449934 -81.43505859 256.18969727 C-46.38504425 250.43462079 -12.81903017 232.15516164 8.53662109 203.28833008 C30.37912611 172.71553866 40.97075296 136.77911997 35.74853516 99.04516602 C35.11331709 95.29978058 34.23829399 91.62447815 33.31494141 87.93969727 C33.12158203 86.96258789 32.92822266 85.98547852 32.72900391 84.97875977 C25.83058287 52.27845225 2.82438796 21.73180019 -24.80737305 3.6081543 C-84.24843248 -34.3967273 -158.2412147 -23.25145013 -206.31005859 27.68969727 Z " fill="#FABC07" transform="translate(361.68505859375,141.060302734375)"/>
<path d="M0 0 C10.20191434 7.70901628 17.90591233 17.79402434 22 30 C22 30.99 22 31.98 22 33 C22.57878906 33.24878906 23.15757812 33.49757812 23.75390625 33.75390625 C32.20659532 38.44331114 36.77162773 48.04172788 39.60546875 56.890625 C41.81165654 68.68608447 39.69195241 79.36247945 33.42578125 89.5625 C26.7950428 98.71260993 18.75890492 103.84857273 8 107 C7.43627686 107.17633469 6.87255371 107.35266937 6.29174805 107.53434753 C3.12604448 108.17757604 0.08176941 108.15229981 -3.1484375 108.17700195 C-3.86126389 108.18357315 -4.57409027 108.19014435 -5.30851746 108.19691467 C-7.66401287 108.21659588 -10.01944445 108.22830294 -12.375 108.23828125 C-13.58819412 108.24439454 -13.58819412 108.24439454 -14.82589722 108.25063133 C-19.11260724 108.27147691 -23.39928546 108.28578129 -27.68603516 108.29516602 C-32.0860257 108.30618596 -36.48550432 108.34053849 -40.88531494 108.38033772 C-44.29141085 108.40665682 -47.69738804 108.41487164 -51.10357666 108.41844749 C-52.72368805 108.42327949 -54.34379537 108.43479518 -55.96380615 108.45348549 C-70.65053372 108.61230349 -83.06664108 106.28601407 -94.15625 96 C-103.33510095 86.41015573 -106.53102797 75.90759232 -106.27734375 62.89453125 C-105.42799855 50.96781062 -98.79375321 40.79446307 -90 33 C-89.34 33 -88.68 33 -88 33 C-87.896875 32.13890625 -87.79375 31.2778125 -87.6875 30.390625 C-85.18320282 18.03988665 -75.92928749 7.39108325 -66 0.125 C-45.4591144 -13.31650118 -20.7909745 -13.26173271 0 0 Z " fill="#4486F4" transform="translate(293,209)"/>
<path d="M0 0 C1.65 1.65 3.3 3.3 5 5 C-0.94 10.94 -6.88 16.88 -13 23 C-15.784375 21.515 -15.784375 21.515 -18.625 20 C-26.5269536 16.36751153 -34.14147559 15.30411136 -42.671875 17.7734375 C-47.11670488 19.63787956 -51.09351887 22.19534688 -55 25 C-52.91699596 26.05583462 -50.82975681 27.07730431 -48.703125 28.04296875 C-42.70429812 30.84178448 -37.48375646 34.05967304 -33 39 C-32.67 39.99 -32.34 40.98 -32 42 C-37.61 47.61 -43.22 53.22 -49 59 C-50.32 58.34 -51.64 57.68 -53 57 C-53 56.34 -53 55.68 -53 55 C-53.78375 54.690625 -54.5675 54.38125 -55.375 54.0625 C-58 53 -58 53 -60 52 C-65.16317948 51.33926405 -69.60061975 51.23063587 -74 54.25 C-77.20022472 56.74248271 -78.75452866 59.29597224 -79.3359375 63.33203125 C-79.43284003 69.48534199 -78.66643321 73.00957702 -75 78 C-73.68 78.99 -72.36 79.98 -71 81 C-79.91 89.91 -79.91 89.91 -89 99 C-97.65677756 94.67161122 -101.69073972 86.80646125 -105 78 C-108.14784542 68.31586408 -106.51175859 56.89819055 -102 48 C-98.7449452 42.2305068 -94.95721075 37.39389134 -90 33 C-89.34 33 -88.68 33 -88 33 C-87.896875 32.13890625 -87.79375 31.2778125 -87.6875 30.390625 C-85.18320282 18.03988665 -75.92928749 7.39108325 -66 0.125 C-45.50722087 -13.28502137 -20.75171155 -13.32247343 0 0 Z " fill="#FABC06" transform="translate(293,209)"/>
<path d="M0 0 C5.86502016 3.22128708 10.32577623 6.44717668 13.6875 12.3125 C14.18765625 13.16972656 14.6878125 14.02695313 15.203125 14.91015625 C17.31971469 18.92229936 17.54814667 21.95985965 17.5 26.4375 C17.49097656 27.52417969 17.48195313 28.61085938 17.47265625 29.73046875 C17.46105469 30.56191406 17.44945312 31.39335937 17.4375 32.25 C19.231875 32.3428125 19.231875 32.3428125 21.0625 32.4375 C25.90767656 33.0388517 28.05154889 34.78343101 31.4375 38.25 C34.17670879 42.73404727 34.05127417 47.14308416 33.4375 52.25 C32.12508216 56.64410783 30.05940888 58.82414645 26.28320312 61.40991211 C19.77300235 64.48385733 12.44948034 63.84524675 5.40625 63.81640625 C3.84500764 63.82164944 2.28376845 63.82792846 0.72253418 63.83518982 C-2.53880798 63.84556035 -5.79971289 63.84108061 -9.06103516 63.82641602 C-13.22393285 63.80922195 -17.38545098 63.83274711 -21.54819489 63.86790562 C-24.76891078 63.88994774 -27.98929989 63.88842203 -31.21006775 63.8801403 C-32.74415095 63.87932471 -34.27825908 63.88611267 -35.81227112 63.90091133 C-51.57646866 64.02971449 -51.57646866 64.02971449 -57.5625 58.25 C-61.17440831 53.3964982 -61.41000845 48.09685604 -60.5625 42.25 C-58.23281069 37.41141452 -55.40108548 34.57968931 -50.5625 32.25 C-45.52101322 31.43336247 -41.10315046 31.60732574 -36.5625 34.0625 C-33.5625 36.25 -33.5625 36.25 -31.5625 39.25 C-28.51917235 37.8915798 -26.43940849 36.36536976 -24.109375 33.9921875 C-23.490625 33.36699219 -22.871875 32.74179687 -22.234375 32.09765625 C-21.60015625 31.44667969 -20.9659375 30.79570312 -20.3125 30.125 C-19.6628125 29.46628906 -19.013125 28.80757813 -18.34375 28.12890625 C-16.74538273 26.50703357 -15.15188103 24.8806719 -13.5625 23.25 C-18.28558237 14.3961189 -27.40737722 10.38611653 -36.5625 7.25 C-26.7234059 -3.15132804 -13.22058137 -6.4713847 0 0 Z " fill="#FEFEFD" transform="translate(273.5625,227.75)"/>
<path d="M0 0 C1.01724152 0.00182281 2.03448303 0.00364563 3.08255005 0.00552368 C17.71838283 0.04971026 31.97881294 0.46605186 46.375 3.3125 C47.26912598 3.47347168 48.16325195 3.63444336 49.08447266 3.80029297 C72.49938713 8.03572754 95.05336982 15.7948761 116.375 26.3125 C117.46748047 26.84544678 117.46748047 26.84544678 118.58203125 27.38916016 C135.01447086 35.48324697 150.18289235 45.75720144 164.375 57.3125 C164.91511719 57.74965332 165.45523437 58.18680664 166.01171875 58.63720703 C180.08649098 70.1160204 193.31676869 82.88129466 204.375 97.3125 C205.53128906 98.74335938 205.53128906 98.74335938 206.7109375 100.203125 C239.22471113 141.02483447 260.31665098 195.10320105 260.578125 247.54296875 C260.58513931 248.48799255 260.59215363 249.43301636 260.59938049 250.40667725 C260.61678359 253.43783387 260.62323225 256.46879526 260.625 259.5 C260.62601212 261.05208664 260.62601212 261.05208664 260.62704468 262.63552856 C260.61168068 277.43766438 260.2540145 291.7516054 257.375 306.3125 C257.21402832 307.20662598 257.05305664 308.10075195 256.88720703 309.02197266 C252.65177246 332.43688713 244.8926239 354.99086982 234.375 376.3125 C233.84205322 377.40498047 233.84205322 377.40498047 233.29833984 378.51953125 C225.20425303 394.95197086 214.93029856 410.12039235 203.375 424.3125 C202.93784668 424.85261719 202.50069336 425.39273437 202.05029297 425.94921875 C190.5714796 440.02399098 177.80620534 453.25426869 163.375 464.3125 C161.94414063 465.46878906 161.94414063 465.46878906 160.484375 466.6484375 C119.66266553 499.16221113 65.58429895 520.25415098 13.14453125 520.515625 C12.19950745 520.52263931 11.25448364 520.52965363 10.28082275 520.53688049 C7.24966613 520.55428359 4.21870474 520.56073225 1.1875 520.5625 C-0.36458664 520.56351212 -0.36458664 520.56351212 -1.94802856 520.56454468 C-16.75016438 520.54918068 -31.0641054 520.1915145 -45.625 517.3125 C-46.51912598 517.15152832 -47.41325195 516.99055664 -48.33447266 516.82470703 C-71.74938713 512.58927246 -94.30336982 504.8301239 -115.625 494.3125 C-116.35332031 493.95720215 -117.08164063 493.6019043 -117.83203125 493.23583984 C-134.26447086 485.14175303 -149.43289235 474.86779856 -163.625 463.3125 C-164.16511719 462.87534668 -164.70523438 462.43819336 -165.26171875 461.98779297 C-179.33649098 450.5089796 -192.56676869 437.74370534 -203.625 423.3125 C-204.39585937 422.35859375 -205.16671875 421.4046875 -205.9609375 420.421875 C-233.31925208 386.07295007 -251.24268332 343.70493842 -257.625 300.3125 C-257.80232666 299.11947266 -257.97965332 297.92644531 -258.16235352 296.69726562 C-259.82070742 284.70232149 -259.98245086 272.78125162 -259.9375 260.6875 C-259.93567719 259.67025848 -259.93385437 258.65301697 -259.93197632 257.60494995 C-259.88778974 242.96911717 -259.47144814 228.70868706 -256.625 214.3125 C-256.46402832 213.41837402 -256.30305664 212.52424805 -256.13720703 211.60302734 C-251.90177246 188.18811287 -244.1426239 165.63413018 -233.625 144.3125 C-233.26970215 143.58417969 -232.9144043 142.85585937 -232.54833984 142.10546875 C-224.45425303 125.67302914 -214.18029856 110.50460765 -202.625 96.3125 C-202.18784668 95.77238281 -201.75069336 95.23226562 -201.30029297 94.67578125 C-189.8214796 80.60100902 -177.05620534 67.37073131 -162.625 56.3125 C-161.19414062 55.15621094 -161.19414062 55.15621094 -159.734375 53.9765625 C-125.38545007 26.61824792 -83.01743842 8.69481668 -39.625 2.3125 C-37.83545898 2.04651001 -37.83545898 2.04651001 -36.00976562 1.77514648 C-24.01482149 0.11679258 -12.09375162 -0.04495086 0 0 Z M-47.625 5.3125 C-48.48915527 5.46734863 -49.35331055 5.62219727 -50.24365234 5.78173828 C-90.66040082 13.22844791 -128.50084856 32.03967385 -160.625 57.3125 C-161.65496094 58.11558594 -162.68492187 58.91867188 -163.74609375 59.74609375 C-179.60069876 72.63182604 -194.71054989 87.70509162 -206.625 104.3125 C-207.46320477 105.43481969 -208.30308299 106.55589128 -209.14453125 107.67578125 C-215.68335279 116.47895624 -221.2535595 125.76254549 -226.625 135.3125 C-227.0051123 135.97556152 -227.38522461 136.63862305 -227.77685547 137.32177734 C-242.24422597 162.66007439 -251.13584442 190.56588946 -255.625 219.3125 C-255.77598145 220.2715625 -255.92696289 221.230625 -256.08251953 222.21875 C-266.15012233 288.94512712 -249.24539619 357.93622527 -209.47265625 412.50390625 C-205.69920054 417.59195269 -201.76215855 422.51523823 -197.625 427.3125 C-197.00238281 428.04597656 -196.37976563 428.77945312 -195.73828125 429.53515625 C-184.1264481 442.83515375 -171.56115409 455.7360372 -157.25048828 466.12695312 C-155.64828731 467.29551544 -154.0718672 468.49916326 -152.49609375 469.703125 C-108.47039518 502.89017979 -53.48543262 519.43593473 1.3125 519.625 C2.41392334 519.62892761 2.41392334 519.62892761 3.53759766 519.63293457 C18.73312641 519.63867182 33.40378957 517.9808283 48.375 515.3125 C49.20241699 515.17360352 50.02983398 515.03470703 50.88232422 514.89160156 C93.52212178 507.58192198 134.70593843 486.22149892 167.375 458.3125 C168.11234375 457.68730469 168.8496875 457.06210937 169.609375 456.41796875 C182.90033539 444.79983613 195.79981297 432.24689707 206.18945312 417.93798828 C207.35801544 416.33578731 208.56166326 414.7593672 209.765625 413.18359375 C231.27366284 384.66140317 245.7357075 351.1012389 253.375 316.3125 C253.63796875 315.14589844 253.9009375 313.97929687 254.171875 312.77734375 C254.98434095 308.9678733 255.69774504 305.14761175 256.375 301.3125 C256.51325195 300.5695166 256.65150391 299.8265332 256.79394531 299.06103516 C261.53955754 272.89589322 260.54782642 245.48256069 256.375 219.3125 C256.14151855 217.80163818 256.14151855 217.80163818 255.90332031 216.26025391 C247.86633624 166.10530241 223.56072109 118.80703251 188.375 82.3125 C187.71048828 81.62075684 187.04597656 80.92901367 186.36132812 80.21630859 C177.41974651 70.95766376 168.43009981 62.10771458 158.01660156 54.51416016 C156.40888646 53.33730505 154.82516168 52.1278979 153.2421875 50.91796875 C122.70529704 27.89871229 85.87403246 12.39730255 48.375 5.3125 C46.83561768 5.02052734 46.83561768 5.02052734 45.26513672 4.72265625 C14.44391256 -0.8588171 -16.86863222 -0.35856634 -47.625 5.3125 Z " fill="#A0A6AC" transform="translate(259.625,-0.3125)"/>
<path d="M0 0 C1.65 1.65 3.3 3.3 5 5 C-0.94 10.94 -6.88 16.88 -13 23 C-15.784375 21.515 -15.784375 21.515 -18.625 20 C-26.52904785 16.36654881 -34.09290784 15.3460142 -42.63671875 17.73828125 C-46.34995152 19.27022618 -49.09527669 21.07949902 -52.0625 23.75 C-56.20770859 26.94828448 -60.91804871 26.17541255 -65.86865234 25.97802734 C-72.2544021 25.79574672 -77.20086059 27.33841843 -83 30 C-84.66409336 30.67306426 -86.33008047 31.34152374 -88 32 C-83.82696443 16.84529188 -74.4303812 5.06243887 -61 -3 C-41.62936136 -13.79618032 -18.47112833 -11.85835278 0 0 Z " fill="#E94537" transform="translate(293,209)"/>
<path d="M0 0 C0 8.58 0 17.16 0 26 C-5.19297858 26.09254813 -10.38302121 26.17196028 -15.57617188 26.21972656 C-17.33733897 26.23966673 -19.0984414 26.26682911 -20.859375 26.30175781 C-33.67790594 26.54938852 -45.42849299 26.22228323 -56 18 C-43.99245626 -6.45055928 -23.75859176 -2.21468571 0 0 Z " fill="#37A954" transform="translate(260,291)"/>
<path d="M0 0 C0.66 0.66 1.32 1.32 2 2 C1.27296875 2.81339844 0.5459375 3.62679687 -0.203125 4.46484375 C-19.25153889 26.05347273 -35.18409164 51.42512683 -44 79 C-44.31324219 79.93457031 -44.62648438 80.86914062 -44.94921875 81.83203125 C-50.80220574 100.59397768 -53.50671871 120.45361656 -55 140 C-55.66 140 -56.32 140 -57 140 C-58.3483822 88.53674611 -35.88675856 38.19135081 -1 1 C-0.67 0.67 -0.34 0.34 0 0 Z " fill="#A2A8AD" transform="translate(108,116)"/>
<path d="M0 0 C4.86496326 3.91792901 8.96861703 8.01920741 12.8125 12.9375 C13.32748047 13.59298828 13.84246094 14.24847656 14.37304688 14.92382812 C33.87052459 40.04696526 47.57082204 68.8201525 54 100 C54.33767665 101.3228417 54.6802501 102.64444166 55.02734375 103.96484375 C56.04247103 107.97200169 56.65447419 111.95868402 57.125 116.0625 C57.20991699 116.78622803 57.29483398 117.50995605 57.38232422 118.25561523 C58.16742742 125.51663511 58.19117374 132.70353547 58 140 C57.34 140 56.68 140 56 140 C55.89510254 138.93023926 55.89510254 138.93023926 55.78808594 137.83886719 C52.7825685 107.73537256 47.36320213 80.31132556 34 53 C33.46052734 51.88431641 33.46052734 51.88431641 32.91015625 50.74609375 C25.71067476 36.00429832 16.44802087 22.86139304 5.9140625 10.31640625 C3.43623157 7.31772514 1.20596035 4.20220051 -1 1 C-0.67 0.67 -0.34 0.34 0 0 Z " fill="#A1A7AD" transform="translate(411,116)"/>
<path d="M0 0 C1.32 0 2.64 0 4 0 C4.26554688 1.07378906 4.53109375 2.14757813 4.8046875 3.25390625 C5.16139421 4.6901201 5.51816866 6.12631712 5.875 7.5625 C6.04902344 8.26697266 6.22304687 8.97144531 6.40234375 9.69726562 C7.25045976 13.1054355 8.13590887 16.48280816 9.15625 19.84375 C10.02247027 23.08405544 9.96080686 24.82933737 9 28 C7.68 28 6.36 28 5 28 C4.34 28.66 3.68 29.32 3 30 C-1.67601163 30.45993557 -3.91318937 30.67058528 -7.9375 28.1875 C-11.10748911 24.82539034 -11.42000155 21.56408393 -11.3359375 17.0078125 C-11 15 -11 15 -9 12 C-4.97020535 9.31347023 -2.76065969 9.59655426 2 10 C1.34 6.7 0.68 3.4 0 0 Z " fill="#676B70" transform="translate(215,42)"/>
<path d="M0 0 C3.22618733 2.0790985 4.8669302 3.80039529 7 7 C7.34207368 10.80556973 7.04155983 14.52417419 4.80078125 17.69921875 C2.37157801 19.92439442 0.20395077 20.95751026 -3 21.625 C-7.19977529 20.75004681 -8.93868007 18.99012644 -12 16 C-13.60086627 12.79826746 -13.49917089 9.47422941 -13 6 C-9.36990394 0.31284951 -6.66395172 -0.56474167 0 0 Z " fill="#686C71" transform="translate(175,66)"/>
<path d="M0 0 C1.65 0 3.3 0 5 0 C8.96 8.91 12.92 17.82 17 27 C15.68 27.33 14.36 27.66 13 28 C12.01 26.02 11.02 24.04 10 22 C5.71 22 1.42 22 -3 22 C-3.33 24.64 -3.66 27.28 -4 30 C-5.32 30 -6.64 30 -8 30 C-7.41514195 24.89399204 -6.27293 20.440017 -4.5625 15.5625 C-2.7862716 10.41683941 -1.19286595 5.31367561 0 0 Z " fill="#696D72" transform="translate(244,37)"/>
<path d="M0 0 C3.14674823 2.74331897 3.89954133 4.37492386 4.5625 8.5 C4 12 4 12 1.9375 14.9375 C-1.7595073 17.53327109 -3.56644342 17.71253588 -8 17 C-10.75329021 15.20437595 -12.52627461 13.94745078 -14 11 C-14.375 8.1875 -14.375 8.1875 -14 5 C-9.40393063 -0.44271373 -6.99352194 -1.6880915 0 0 Z " fill="#EBEDEE" transform="translate(63,302)"/>
<path d="M0 0 C4.78928081 0.92424717 6.3477954 2.00235082 9.5625 5.6875 C10.25 9.1875 10.25 9.1875 9.5625 12.6875 C7.125 15.5625 7.125 15.5625 4.5625 17.6875 C4.2325 18.0175 3.9025 18.3475 3.5625 18.6875 C-0.29053968 19.12534542 -1.97872122 18.99335252 -5.25 16.8125 C-7.79080753 14.34428697 -8.3370948 13.4238048 -8.8125 9.9375 C-8.16518148 4.32740615 -5.56931462 1.11386292 0 0 Z " fill="#EAECED" transform="translate(137.4375,419.3125)"/>
<path d="M0 0 C3.65907504 0.68607657 5.35167676 1.98984314 8 4.5625 C9.54586876 7.65423752 9.29359521 10.15679552 9 13.5625 C6.38882396 16.86998965 4.37396185 18.37930509 0.1875 18.9375 C-3 18.5625 -3 18.5625 -5.875 16.5625 C-8.24266331 13.2199165 -8.75726358 11.50236585 -8.484375 7.5 C-7.33922431 2.91939725 -4.4623814 0.83669651 0 0 Z " fill="#EBEDEE" transform="translate(392,410.4375)"/>
<path d="M0 0 C4.23295677 0.43047018 5.72110375 1.40860375 8.6875 4.375 C10.13180855 7.26361709 10.06438506 9.17147701 9.6875 12.375 C7.27830163 15.5636449 5.51192574 17.07680346 1.75 18.4375 C-2.47041882 18.351369 -4.23809289 17.23491359 -7.3125 14.375 C-8.54738599 10.37978061 -8.77820323 8.37293548 -7 4.5625 C-3.813386 0.43170408 -3.813386 0.43170408 0 0 Z " fill="#EBEDEE" transform="translate(450.3125,333.625)"/>
<path d="M0 0 C3.69988632 2.10220814 4.80188875 3.31899258 6 7.4375 C6 11.40316899 5.44976383 12.93779521 3 16 C-0.51253146 18.34168764 -1.86469356 18.49623677 -6 18 C-8.90374964 16.45133352 -10.52463698 15.25800491 -11.70703125 12.12890625 C-12.15169011 9.93054608 -12.31324192 8.22357646 -12 6 C-8.49781514 1.5512787 -5.70770895 -0.66368709 0 0 Z " fill="#E8EAEC" transform="translate(68,323)"/>
<path d="M0 0 C2.75329021 1.79562405 4.52627461 3.05254922 6 6 C6.04022391 8.3329866 6.04320247 10.66706666 6 13 C3.04893565 14.25348607 2.02593537 14.01044806 -1.015625 12.78515625 C-2.08296875 12.21667969 -3.1503125 11.64820312 -4.25 11.0625 C-5.32765625 10.49660156 -6.4053125 9.93070313 -7.515625 9.34765625 C-8.33546875 8.90292969 -9.1553125 8.45820312 -10 8 C-9.1395861 12.33229715 -9.1395861 12.33229715 -7 16 C-5.865625 15.95875 -4.73125 15.9175 -3.5625 15.875 C-2.386875 15.91625 -1.21125 15.9575 0 16 C0.66 16.99 1.32 17.98 2 19 C0.44014791 20.55985209 -1.08906098 20.24452344 -3.25 20.3125 C-6.7926931 20.28429384 -7.88090304 20.0744356 -11 18.125 C-13.54193954 15.42418924 -13.94515196 14.47534972 -14.375 10.75 C-13.88072704 5.80727042 -12.46171699 4.46171699 -9 1 C-5.89951072 -0.55024464 -3.42105782 -0.28992015 0 0 Z " fill="#686C71" transform="translate(354,67)"/>
<path d="M0 0 C0 1.32 0 2.64 0 4 C-0.92232422 4.14695312 -0.92232422 4.14695312 -1.86328125 4.296875 C-6.77789554 5.17068709 -6.77789554 5.17068709 -11.0625 7.5625 C-12.53225634 11.3838665 -12.66826883 14.96882994 -12 19 C-10.20606332 21.87029869 -9.01736724 23.49131638 -6 25 C-1.14707508 25.66739635 1.99885712 25.75085716 6 22.75 C7.75981787 20.33025043 8.67467334 18.92793994 9 16 C10.32 16 11.64 16 13 16 C12.68327951 21.22588808 9.69889181 24.5609835 6 28 C2.14371204 30.33224601 -1.57999942 30.69115839 -6 30 C-10.95520521 27.42710499 -14.49116963 24.01766074 -17 19 C-17.68786581 14.17511265 -17.60581161 10.23178102 -14.8125 6.125 C-10.4355517 0.84078511 -6.88953559 -0.4052668 0 0 Z " fill="#6C6F74" transform="translate(143,75)"/>
<path d="M0 0 C2.93602134 1.99899325 4.62130844 3.44520943 5.48046875 6.97265625 C5.625 9.0625 5.625 9.0625 5 13 C1.77449387 16.69984527 -1.19240183 17.55278157 -6 18 C-7.80304155 12.69905784 -9.50723624 7.39691512 -11 2 C-7.33755697 -0.34396354 -4.27605847 -0.52512999 0 0 Z " fill="#E9EBED" transform="translate(323,451)"/>
<path d="M0 0 C4.40612466 0.76274091 6.93342245 1.58295645 10 5 C10.7975483 10.02455429 10.82360163 11.83726829 7.875 16 C4.47539234 18.36494446 3.05412149 18.67568691 -1 18 C-3.875 16.5 -3.875 16.5 -6 15 C-5.39644592 11.14974121 -4.23227397 8.13898841 -2.4375 4.6875 C-1.98246094 3.80449219 -1.52742187 2.92148437 -1.05859375 2.01171875 C-0.53458984 1.01591797 -0.53458984 1.01591797 0 0 Z " fill="#E9EBEC" transform="translate(170,439)"/>
<path d="M0 0 C0.99 0 1.98 0 3 0 C2.85892253 1.45880109 2.71197585 2.91703551 2.5625 4.375 C2.48128906 5.18710937 2.40007812 5.99921875 2.31640625 6.8359375 C2 9 2 9 1 11 C2.0725 10.79375 3.145 10.5875 4.25 10.375 C7.86935819 10.01306418 9.14160546 9.91117322 12 12 C13.96224402 15.92448803 13.42538262 20.39986888 12.328125 24.52734375 C11.59844559 26.70605632 10.83271312 28.85873768 10 31 C9.01 31 8.02 31 7 31 C7.08378906 29.85660156 7.16757812 28.71320313 7.25390625 27.53515625 C7.35704794 26.04428998 7.45989747 24.55340347 7.5625 23.0625 C7.61857422 22.30775391 7.67464844 21.55300781 7.73242188 20.77539062 C7.86176157 18.85254042 7.93516912 16.92610452 8 15 C6.94570314 13.73527935 6.94570314 13.73527935 4.5625 13.75 C3.2940625 13.87375 3.2940625 13.87375 2 14 C-0.00993705 17.01490557 -0.72623341 19.2149927 -1.625 22.6875 C-1.88539063 23.68136719 -2.14578125 24.67523438 -2.4140625 25.69921875 C-2.60742188 26.45847656 -2.80078125 27.21773437 -3 28 C-3.99 28 -4.98 28 -6 28 C-5.76622908 18.16036927 -2.95306149 9.2950607 0 0 Z " fill="#6A6E72" transform="translate(303,42)"/>
<path d="M0 0 C0.66 0 1.32 0 2 0 C3.00605593 2.60197202 4.00502525 5.20629362 5 7.8125 C5.42925781 8.91948242 5.42925781 8.91948242 5.8671875 10.04882812 C6.13789063 10.76103516 6.40859375 11.47324219 6.6875 12.20703125 C6.93886719 12.8616333 7.19023437 13.51623535 7.44921875 14.19067383 C8 16 8 16 8 19 C6.35 18.67 4.7 18.34 3 18 C2.71125 18.639375 2.4225 19.27875 2.125 19.9375 C1 22 1 22 -1 23 C-3.875 23.4375 -3.875 23.4375 -7 23 C-11.24910509 18.2652829 -14 11.40059547 -14 5 C-13.01 5 -12.02 5 -11 5 C-10.73445312 5.60328125 -10.46890625 6.2065625 -10.1953125 6.828125 C-9.84210938 7.62734375 -9.48890625 8.4265625 -9.125 9.25 C-8.77695313 10.03890625 -8.42890625 10.8278125 -8.0703125 11.640625 C-7.09586095 13.78868608 -6.07013571 15.89829202 -5 18 C-3.33388095 18.042721 -1.66617115 18.04063832 0 18 C1.33954055 16.881 1.33954055 16.881 1.1875 14 C1.15531256 10.1214136 0.30999406 6.56141499 -0.66015625 2.8203125 C-0.77230469 2.21960937 -0.88445312 1.61890625 -1 1 C-0.67 0.67 -0.34 0.34 0 0 Z " fill="#696D72" transform="translate(195,56)"/>
<path d="M0 0 C2.8125 1.25 2.8125 1.25 5 3 C5.8125 5.1875 5.8125 5.1875 6 7 C5.01 7.33 4.02 7.66 3 8 C2.34 7.01 1.68 6.02 1 5 C-2.5 4.58333333 -2.5 4.58333333 -6 5 C-8.15705515 6.7564331 -8.15705515 6.7564331 -8.265625 8.875 C-8.26046875 9.57625 -8.2553125 10.2775 -8.25 11 C-8.25515625 11.70125 -8.2603125 12.4025 -8.265625 13.125 C-8.15705515 15.2435669 -8.15705515 15.2435669 -6 17 C-1.34375005 16.58984222 -1.34375005 16.58984222 3 15 C3.66 15.33 4.32 15.66 5 16 C3.25 19.875 3.25 19.875 1 21 C-4.15434412 21.50698467 -4.15434412 21.50698467 -7 21 C-9.9375 18.5625 -9.9375 18.5625 -12 16 C-12.33 15.67 -12.66 15.34 -13 15 C-13.69087003 8.20644468 -13.69087003 8.20644468 -11.953125 5.171875 C-8.16571346 0.58242337 -5.86923422 -0.4603321 0 0 Z " fill="#6A6E72" transform="translate(289,47)"/>
<path d="M0 0 C3.4375 0.8125 3.4375 0.8125 5.4375 3.8125 C5.97920249 9.87956793 5.97920249 9.87956793 4.3125 12.75 C1.4675175 14.36215675 -0.3536929 14.33638687 -3.5625 13.8125 C-6 11.75 -6 11.75 -7.5625 8.8125 C-7.5 5.125 -7.5 5.125 -6.5625 1.8125 C-3.5625 -0.1875 -3.5625 -0.1875 0 0 Z " fill="#EAECED" transform="translate(214.5625,55.1875)"/>
<path d="M0 0 C3.32337147 0.69838966 4.98011619 1.8689661 7.15625 4.453125 C7.96875 7.703125 7.96875 7.703125 8.15625 10.453125 C6.83625 10.453125 5.51625 10.453125 4.15625 10.453125 C3.846875 9.64875 3.5375 8.844375 3.21875 8.015625 C2.39289655 5.56232095 2.39289655 5.56232095 1.15625 4.453125 C-2.97170128 4.07730998 -2.97170128 4.07730998 -6.71875 5.578125 C-8.37229531 8.33403384 -8.23740568 10.30387952 -7.84375 13.453125 C-6.84375 15.453125 -6.84375 15.453125 -4.84375 16.453125 C-1.71825983 16.70361136 -1.71825983 16.70361136 1.15625 16.453125 C1.48625 17.443125 1.81625 18.433125 2.15625 19.453125 C-0.74670805 20.90460403 -2.61636779 20.82551525 -5.84375 20.453125 C-10.11598587 18.00054515 -10.11598587 18.00054515 -11.84375 15.453125 C-12.84718209 11.58172745 -12.59925771 8.21597633 -11.0234375 4.5390625 C-8.07279409 0.18531592 -4.87979323 -0.3578515 0 0 Z " fill="#676B70" transform="translate(371.84375,78.546875)"/>
<path d="M0 0 C3.40524375 0.68104875 4.52547983 1.6479153 6.5 4.5 C6.92841969 7.98856031 7.16830867 10.34902396 5.375 13.4375 C2.5300175 15.04965675 0.7088071 15.02388687 -2.5 14.5 C-5.12846098 12.07904909 -6.31388233 10.45385308 -7 6.9375 C-6.15690298 2.82740203 -4.10564592 0.82112918 0 0 Z " fill="#EBEDEE" transform="translate(171.5,68.5)"/>
<path d="M0 0 C7.75 0.75 7.75 0.75 10 3 C10.56338028 8.29577465 10.56338028 8.29577465 8.5 10.875 C8.005 11.24625 7.51 11.6175 7 12 C7.66 13.98 8.32 15.96 9 18 C8.01 17.67 7.02 17.34 6 17 C4.8125 13.9375 4.8125 13.9375 4 11 C3.01 11 2.02 11 1 11 C1 12.98 1 14.96 1 17 C0.01 17 -0.98 17 -2 17 C-1.85941524 14.54126232 -1.71277001 12.08314825 -1.5625 9.625 C-1.52318359 8.92632812 -1.48386719 8.22765625 -1.44335938 7.5078125 C-1.11328125 2.2265625 -1.11328125 2.2265625 0 0 Z " fill="#787C80" transform="translate(231,457)"/>
<path d="M0 0 C0.99 0.33 1.98 0.66 3 1 C2.62875 1.9075 2.2575 2.815 1.875 3.75 C0.69640701 6.88097015 0.69640701 6.88097015 1.875 9.375 C2.24625 9.91125 2.6175 10.4475 3 11 C0.50907189 12.24546405 -0.41080733 11.7767578 -3 11 C-7.15825278 15.4024476 -7.15825278 15.4024476 -9 21 C-8.34 21 -7.68 21 -7 21 C-7 22.32 -7 23.64 -7 25 C-9.4375 24.375 -9.4375 24.375 -12 23 C-13.1875 20.375 -13.1875 20.375 -13 17 C-11.56541173 14.83753803 -9.96496462 12.89544139 -8.3046875 10.90234375 C-6.70095229 8.97142632 -6.70095229 8.97142632 -7.125 6 C-7.41375 5.34 -7.7025 4.68 -8 4 C-5 2 -5 2 -2 2 C-1.34 1.34 -0.68 0.68 0 0 Z " fill="#696C71" transform="translate(391,85)"/>
<path d="M0 0 C1.32 0.33 2.64 0.66 4 1 C3.34 2.98 2.68 4.96 2 7 C3.32 7.33 4.64 7.66 6 8 C5.34 9.32 4.68 10.64 4 12 C2.68 11.34 1.36 10.68 0 10 C-0.99 14.29 -1.98 18.58 -3 23 C-2.34 23 -1.68 23 -1 23 C-1 23.99 -1 24.98 -1 26 C-5.875 25.125 -5.875 25.125 -7 24 C-7.49238912 18.09133053 -6.09486218 13.49901323 -4 8 C-4.66 8 -5.32 8 -6 8 C-5.67 6.68 -5.34 5.36 -5 4 C-4.01 4 -3.02 4 -2 4 C-1.34 2.68 -0.68 1.36 0 0 Z " fill="#6B6F73" transform="translate(336,55)"/>
<path d="M0 0 C0.66 0.66 1.32 1.32 2 2 C1.625 5.625 1.625 5.625 1 9 C3.31 9.33 5.62 9.66 8 10 C7.67 10.99 7.34 11.98 7 13 C3.7 12.01 0.4 11.02 -3 10 C-2.2575 11.1446875 -2.2575 11.1446875 -1.5 12.3125 C0 15 0 15 0 18 C-0.66 18 -1.32 18 -2 18 C-3.98046875 15.515625 -3.98046875 15.515625 -6.1875 12.25 C-6.92355469 11.18265625 -7.65960938 10.1153125 -8.41796875 9.015625 C-10 6 -10 6 -9.92578125 3.734375 C-7.66517603 -0.50068289 -4.27781316 -0.36406921 0 0 Z " fill="#74787C" transform="translate(378,425)"/>
<path d="M0 0 C2 3 2 3 1.875 5.4375 C0.83687696 8.47771747 -0.60145094 9.91094114 -3 12 C-2.34 13.65 -1.68 15.3 -1 17 C-1.99 17 -2.98 17 -4 17 C-6.31 12.38 -8.62 7.76 -11 3 C-4.90909091 -0.65454545 -4.90909091 -0.65454545 0 0 Z " fill="#696D72" transform="translate(364,433)"/>
<path d="M0 0 C3.375 2.125 3.375 2.125 6 5 C6.375 8.3125 6.375 8.3125 6 11 C5.34 11 4.68 11 4 11 C3.62875 9.865625 3.2575 8.73125 2.875 7.5625 C2.11755999 5.62821715 2.11755999 5.62821715 1 4 C-1.94109858 2.75949193 -1.94109858 2.75949193 -5 3 C-5.99 3.66 -6.98 4.32 -8 5 C-8.36297936 6.97747122 -8.36297936 6.97747122 -8.1875 9.125 C-8.125625 10.40375 -8.06375 11.6825 -8 13 C-6.02 13.66 -4.04 14.32 -2 15 C-2.66 13.02 -3.32 11.04 -4 9 C-3.01 9.33 -2.02 9.66 -1 10 C0.1875 13.0625 0.1875 13.0625 1 16 C0.34 16.66 -0.32 17.32 -1 18 C-5.16301483 17.92290713 -7.30269141 17.62578976 -10.4375 14.8125 C-12.30215998 11.45611204 -12.6303761 9.7822566 -12 6 C-8.57142548 0.85713823 -6.21724352 -0.71737425 0 0 Z " fill="#72757A" transform="translate(77,344)"/>
<path d="M0 0 C3.14674823 2.74331897 3.89954133 4.37492386 4.5625 8.5 C4 12 4 12 1.9375 14.9375 C-1.7595073 17.53327109 -3.56644342 17.71253588 -8 17 C-10.75329021 15.20437595 -12.52627461 13.94745078 -14 11 C-14.375 8.1875 -14.375 8.1875 -14 5 C-9.40393063 -0.44271373 -6.99352194 -1.6880915 0 0 Z M-10.5 3.625 C-12.2821682 5.96356801 -12.2821682 5.96356801 -11.9375 9.0625 C-10.85657525 12.75518675 -10.85657525 12.75518675 -8 15 C-4.56890417 14.87746086 -2.01779446 14.62380951 0.9375 12.8125 C2.5339636 10.08912093 2.38630872 8.09046979 2 5 C1.06402685 2.98048938 1.06402685 2.98048938 -1 2 C-4.95601633 1.49650701 -7.1204721 1.42830686 -10.5 3.625 Z " fill="#696D71" transform="translate(63,302)"/>
<path d="M0 0 C3.65907504 0.68607657 5.35167676 1.98984314 8 4.5625 C9.54586876 7.65423752 9.29359521 10.15679552 9 13.5625 C6.38882396 16.86998965 4.37396185 18.37930509 0.1875 18.9375 C-3 18.5625 -3 18.5625 -5.875 16.5625 C-8.24266331 13.2199165 -8.75726358 11.50236585 -8.484375 7.5 C-7.33922431 2.91939725 -4.4623814 0.83669651 0 0 Z M-4.875 4.6875 C-6.55468045 7.48696741 -6.45742277 9.36054064 -6 12.5625 C-4.01677007 15.3537125 -2.87013879 16.38847224 0.5 17.0625 C3.10963005 16.70311929 3.10963005 16.70311929 5.375 15 C7.34359806 12.54790742 7.34359806 12.54790742 6.9375 8.9375 C6.3249155 5.30733076 6.3249155 5.30733076 3 3.5625 C-0.12026907 3.23747197 -2.14747535 3.05098521 -4.875 4.6875 Z " fill="#6B6F74" transform="translate(392,410.4375)"/>
<path d="M0 0 C0 0.66 0 1.32 0 2 C-1.65 2 -3.3 2 -5 2 C-5.061875 3.27875 -5.12375 4.5575 -5.1875 5.875 C-5.22230469 6.59429687 -5.25710938 7.31359375 -5.29296875 8.0546875 C-5.19628906 8.69664062 -5.09960938 9.33859375 -5 10 C-4.01 10.66 -3.02 11.32 -2 12 C-2 12.66 -2 13.32 -2 14 C-5.73439735 13.33472731 -8.48779884 11.68250727 -11.6875 9.6875 C-12.66074219 9.09324219 -13.63398438 8.49898438 -14.63671875 7.88671875 C-17 6 -17 6 -17.83203125 3.76953125 C-17.88746094 3.18558594 -17.94289063 2.60164063 -18 2 C-15.93827387 1.66191314 -13.8755797 1.32972639 -11.8125 1 C-10.66394531 0.814375 -9.51539063 0.62875 -8.33203125 0.4375 C-5.49584607 0.06510523 -2.85280436 -0.08596021 0 0 Z " fill="#6F7378" transform="translate(473,297)"/>
<path d="M0 0 C4.78928081 0.92424717 6.3477954 2.00235082 9.5625 5.6875 C10.25 9.1875 10.25 9.1875 9.5625 12.6875 C7.125 15.5625 7.125 15.5625 4.5625 17.6875 C4.2325 18.0175 3.9025 18.3475 3.5625 18.6875 C-0.29053968 19.12534542 -1.97872122 18.99335252 -5.25 16.8125 C-7.79080753 14.34428697 -8.3370948 13.4238048 -8.8125 9.9375 C-8.16518148 4.32740615 -5.56931462 1.11386292 0 0 Z M-4.875 4.25 C-6.78037189 6.71417281 -6.78037189 6.71417281 -6.3125 10.3125 C-5.73009286 13.73292055 -5.73009286 13.73292055 -3.4375 15.6875 C0.4921507 16.12412786 2.69942366 16.28501439 6 14 C7.70917059 11.79153273 7.70917059 11.79153273 8.0625 9.1875 C7.38847224 5.81736121 6.3537125 4.67072993 3.5625 2.6875 C-0.09602292 2.07774618 -1.74262879 2.24206974 -4.875 4.25 Z " fill="#6E7277" transform="translate(137.4375,419.3125)"/>
<path d="M0 0 C4.23295677 0.43047018 5.72110375 1.40860375 8.6875 4.375 C10.13180855 7.26361709 10.06438506 9.17147701 9.6875 12.375 C7.27830163 15.5636449 5.51192574 17.07680346 1.75 18.4375 C-2.47041882 18.351369 -4.23809289 17.23491359 -7.3125 14.375 C-8.54738599 10.37978061 -8.77820323 8.37293548 -7 4.5625 C-3.813386 0.43170408 -3.813386 0.43170408 0 0 Z M-4.6875 3.9375 C-6.65609806 6.38959258 -6.65609806 6.38959258 -6.25 10 C-5.6374155 13.63016924 -5.6374155 13.63016924 -2.3125 15.375 C1.22937831 15.70838596 1.22937831 15.70838596 4.6875 15.375 C7.10894512 13.37814251 7.10894512 13.37814251 7.0625 9.4375 C6.98236433 6.49384964 6.95031734 5.68648722 5 3.375 C1.10875325 1.6922987 -1.09501917 1.57402577 -4.6875 3.9375 Z " fill="#666A6F" transform="translate(450.3125,333.625)"/>
<path d="M0 0 C5.76044212 0.60636233 10.72014369 2.75658279 16 5 C16 5.66 16 6.32 16 7 C9.565 8.98 9.565 8.98 3 11 C7.95 12.98 7.95 12.98 13 15 C13 15.66 13 16.32 13 17 C7.19834261 16.02541328 2.16017278 14.98746845 -3 12 C-3 11.01 -3 10.02 -3 9 C1.29 8.01 5.58 7.02 10 6 C5.05 4.02 5.05 4.02 0 2 C0 1.34 0 0.68 0 0 Z " fill="#696D71" transform="translate(452,314)"/>
<path d="M0 0 C3.68386204 0.8062545 5.1556308 2.38804811 7.1953125 5.48046875 C7.54732353 8.94191053 7.76466844 11.34175687 6.1953125 14.48046875 C5.5353125 14.48046875 4.8753125 14.48046875 4.1953125 14.48046875 C4.24414062 11.50195312 4.24414062 11.50195312 4.29296875 8.5234375 C4.27794467 6.27741414 4.27794467 6.27741414 3.1953125 3.48046875 C1.73738366 3.42647139 0.27888538 3.38767698 -1.1796875 3.35546875 C-2.39785156 3.32066406 -2.39785156 3.32066406 -3.640625 3.28515625 C-6.01810993 3.26676824 -6.01810993 3.26676824 -7.8046875 5.48046875 C-8.38811103 8.93816066 -8.38811103 8.93816066 -7.8046875 12.48046875 C-5.4319901 14.48911234 -5.4319901 14.48911234 -2.8046875 15.48046875 C-2.8046875 13.50046875 -2.8046875 11.52046875 -2.8046875 9.48046875 C-2.1446875 9.48046875 -1.4846875 9.48046875 -0.8046875 9.48046875 C-0.8046875 12.12046875 -0.8046875 14.76046875 -0.8046875 17.48046875 C-3.5546875 17.79296875 -3.5546875 17.79296875 -6.8046875 17.48046875 C-9.93869 14.758835 -10.71689719 13.09500089 -11.3046875 8.98046875 C-10.27321154 1.760137 -6.968396 -0.42546312 0 0 Z " fill="#6E7276" transform="translate(55.8046875,279.51953125)"/>
<path d="M0 0 C4.1426988 3.7759454 6.50141906 8.74285047 9.25 13.5625 C9.8171875 14.53380859 10.384375 15.50511719 10.96875 16.50585938 C11.49984375 17.43333984 12.0309375 18.36082031 12.578125 19.31640625 C13.31144043 20.59173218 13.31144043 20.59173218 14.05957031 21.89282227 C14.36991211 22.58819092 14.68025391 23.28355957 15 24 C14.67 24.66 14.34 25.32 14 26 C13.01 26 12.02 26 11 26 C8.34437683 22.68223096 6.33259733 18.91291967 4.1875 15.25 C3.56423828 14.23421875 2.94097656 13.2184375 2.29882812 12.171875 C1.42967773 10.70234375 1.42967773 10.70234375 0.54296875 9.203125 C0.00696045 8.30239258 -0.52904785 7.40166016 -1.08129883 6.47363281 C-2 4 -2 4 -1.15893555 1.67480469 C-0.77648682 1.12211914 -0.39403809 0.56943359 0 0 Z " fill="#676B70" transform="translate(149,66)"/>
<path d="M0 0 C2.93602134 1.99899325 4.62130844 3.44520943 5.48046875 6.97265625 C5.625 9.0625 5.625 9.0625 5 13 C1.77449387 16.69984527 -1.19240183 17.55278157 -6 18 C-7.80304155 12.69905784 -9.50723624 7.39691512 -11 2 C-7.33755697 -0.34396354 -4.27605847 -0.52512999 0 0 Z M-8 3 C-7.69106068 4.6256807 -7.3777305 6.25052748 -7.0625 7.875 C-6.88847656 8.77992188 -6.71445312 9.68484375 -6.53515625 10.6171875 C-6.10036299 12.99956317 -6.10036299 12.99956317 -5 15 C-2.25913944 15.22223194 -0.56036279 15.34781139 1.8125 13.875 C3.57844751 11.08666183 3.46181576 9.23271032 3 6 C1.43695474 3.52018248 1.43695474 3.52018248 -1 2 C-3.87704151 1.65749506 -5.4086487 1.70432435 -8 3 Z " fill="#707478" transform="translate(323,451)"/>
<path d="M0 0 C3.69988632 2.10220814 4.80188875 3.31899258 6 7.4375 C6 11.40316899 5.44976383 12.93779521 3 16 C-0.51253146 18.34168764 -1.86469356 18.49623677 -6 18 C-8.90374964 16.45133352 -10.52463698 15.25800491 -11.70703125 12.12890625 C-12.15169011 9.93054608 -12.31324192 8.22357646 -12 6 C-8.49781514 1.5512787 -5.70770895 -0.66368709 0 0 Z M-8.4375 4.6875 C-10.14667059 6.89596727 -10.14667059 6.89596727 -10.5 9.5 C-10.14061929 12.10963005 -10.14061929 12.10963005 -8.4375 14.375 C-5.99407073 16.33796842 -5.99407073 16.33796842 -2.4375 15.9375 C0.85139551 15.19050837 0.85139551 15.19050837 3 13.875 C4.6448094 10.79098238 3.77769676 8.29025552 3 5 C1.06832602 2.65186266 1.06832602 2.65186266 -2.375 2.625 C-5.99209108 2.70511016 -5.99209108 2.70511016 -8.4375 4.6875 Z " fill="#6F7277" transform="translate(68,323)"/>
<path d="M0 0 C4.40612466 0.76274091 6.93342245 1.58295645 10 5 C10.7975483 10.02455429 10.82360163 11.83726829 7.875 16 C4.47539234 18.36494446 3.05412149 18.67568691 -1 18 C-3.875 16.5 -3.875 16.5 -6 15 C-5.39644592 11.14974121 -4.23227397 8.13898841 -2.4375 4.6875 C-1.98246094 3.80449219 -1.52742187 2.92148437 -1.05859375 2.01171875 C-0.53458984 1.01591797 -0.53458984 1.01591797 0 0 Z M1 3 C0.29773859 4.24176695 -0.38629109 5.49385599 -1.0625 6.75 C-1.44535156 7.44609375 -1.82820312 8.1421875 -2.22265625 8.859375 C-3.1312406 11.36140628 -2.88336837 12.5332355 -2 15 C0.80045046 15.85650653 0.80045046 15.85650653 4 16 C6.52006844 14.56338689 6.52006844 14.56338689 8 12 C8.46636948 8.73541367 8.60121852 6.90182778 6.75 4.125 C4.78595012 2.63949494 4.78595012 2.63949494 1 3 Z " fill="#6E7277" transform="translate(170,439)"/>
<path d="M0 0 C6.52307692 -0.36923077 6.52307692 -0.36923077 8.9375 1.5 C9.288125 1.995 9.63875 2.49 10 3 C7.36 2.67 4.72 2.34 2 2 C2 3.98 2 5.96 2 8 C4.97 8.495 4.97 8.495 8 9 C8 9.66 8 10.32 8 11 C5.69 10.67 3.38 10.34 1 10 C0.67 11.65 0.34 13.3 0 15 C2.31 15.33 4.62 15.66 7 16 C7 16.66 7 17.32 7 18 C3.7 17.67 0.4 17.34 -3 17 C-2.44915905 11.1243632 -1.55242359 5.69221983 0 0 Z " fill="#75797D" transform="translate(215,455)"/>
<path d="M0 0 C0 1.32 0 2.64 0 4 C-1.134375 4.28875 -2.26875 4.5775 -3.4375 4.875 C-4.613125 5.24625 -5.78875 5.6175 -7 6 C-8.35091528 8.70183055 -8.33858058 11.11808206 -8.5625 14.125 C-8.64628906 15.22070312 -8.73007812 16.31640625 -8.81640625 17.4453125 C-8.87699219 18.28835937 -8.93757813 19.13140625 -9 20 C-10.32 20 -11.64 20 -13 20 C-12.67 13.73 -12.34 7.46 -12 1 C-11.01 1 -10.02 1 -9 1 C-8.67 1.66 -8.34 2.32 -8 3 C-7.608125 2.505 -7.21625 2.01 -6.8125 1.5 C-4.44908285 -0.45593143 -2.98564997 -0.24207973 0 0 Z " fill="#65696E" transform="translate(276,46)"/>
<path d="M0 0 C2.5 1.375 2.5 1.375 4 3 C4 3.66 4 4.32 4 5 C3.01 5 2.02 5 1 5 C1 4.34 1 3.68 1 3 C-3.0100934 2.82135369 -3.0100934 2.82135369 -7 3 C-9.21370051 4.78657757 -9.21370051 4.78657757 -9.1953125 7.1640625 C-9.17210937 7.97617187 -9.14890625 8.78828125 -9.125 9.625 C-9.08375 11.06875 -9.0425 12.5125 -9 14 C-6.03 14 -3.06 14 0 14 C0 14.99 0 15.98 0 17 C-7.36196319 17.49079755 -7.36196319 17.49079755 -10.4375 15.125 C-13.03473593 11.59275913 -13.5180745 9.40363323 -13 5 C-9.20570207 -0.45430328 -6.21203752 -0.78883016 0 0 Z " fill="#74777C" transform="translate(205,451)"/>
<path d="M0 0 C0.66 0 1.32 0 2 0 C1.67 0.7425 1.34 1.485 1 2.25 C-0.22782871 5.13883312 -0.22782871 5.13883312 0 9 C0.99 9 1.98 9 3 9 C3.66 8.01 4.32 7.02 5 6 C5.66 6 6.32 6 7 6 C6.649375 6.5775 6.29875 7.155 5.9375 7.75 C4.85082593 10.35801776 5.06934867 11.39417629 6 14 C6.86625 13.566875 6.86625 13.566875 7.75 13.125 C9.83333333 12.08333333 11.91666667 11.04166667 14 10 C12.55746343 13.36591866 10.66735273 15.51047079 8 18 C3.93501119 16.62815653 1.32603439 14.77931541 -1.8125 11.875 C-2.60269531 11.15054687 -3.39289063 10.42609375 -4.20703125 9.6796875 C-4.79871094 9.12539063 -5.39039063 8.57109375 -6 8 C-5.04956626 6.66102417 -4.08940853 5.32894573 -3.125 4 C-2.59132813 3.2575 -2.05765625 2.515 -1.5078125 1.75 C-1.01023437 1.1725 -0.51265625 0.595 0 0 Z " fill="#6F7377" transform="translate(414,386)"/>
<path d="M0 0 C0 0.66 0 1.32 0 2 C-0.99 2.66 -1.98 3.32 -3 4 C-3.33 4.99 -3.66 5.98 -4 7 C-0.59687262 5.94124926 2.01353231 4.99097846 5 3 C7.96076291 3.35888035 8.84658021 3.84658021 11 6 C11.36487512 8.84602594 11.40199375 10.3864306 9.8125 12.8125 C7.44017475 14.36678206 5.77958655 14.22537188 3 14 C3 13.34 3 12.68 3 12 C4.65 11.34 6.3 10.68 8 10 C8 9.01 8 8.02 8 7 C4.62537285 7.54723683 2.91765 8.0549 0 10 C-4.54054054 9.45945946 -4.54054054 9.45945946 -6 8 C-5.6875 4.5 -5.6875 4.5 -5 1 C-3 0 -3 0 0 0 Z " fill="#73777B" transform="translate(435,361)"/>
<path d="M0 0 C3.31467895 1.53406629 5.03944771 2.86311633 7 6 C7 6.66 7 7.32 7 8 C5.0625 7.1875 5.0625 7.1875 3 6 C2.67 5.01 2.34 4.02 2 3 C0.02 3.99 0.02 3.99 -2 5 C-1.67 5.598125 -1.34 6.19625 -1 6.8125 C0 9 0 9 0 12 C-2.99332739 11.0022242 -3.94766315 10.2477975 -6 8 C-6.99 8.33 -7.98 8.66 -9 9 C-8.34 9.94875 -7.68 10.8975 -7 11.875 C-5 15 -5 15 -5 17 C-8.36720387 15.60667426 -9.9859524 14.0210714 -12 11 C-10.50253294 7.11002809 -8.29577922 5.53051948 -4.875 3.25 C-3.50988281 2.32960938 -3.50988281 2.32960938 -2.1171875 1.390625 C-1.06917969 0.70226562 -1.06917969 0.70226562 0 0 Z " fill="#6E7277" transform="translate(95,375)"/>
<path d="M0 0 C0 0.66 0 1.32 0 2 C-2.31 2.33 -4.62 2.66 -7 3 C-7 4.98 -7 6.96 -7 9 C-4.36 8.67 -1.72 8.34 1 8 C1 8.66 1 9.32 1 10 C-0.98 10.33 -2.96 10.66 -5 11 C-5 12.65 -5 14.3 -5 16 C-4.34 15.67 -3.68 15.34 -3 15 C-1.00039988 14.960008 1.00047242 14.95653201 3 15 C3 15.66 3 16.32 3 17 C-1.95 17.495 -1.95 17.495 -7 18 C-7.50404808 15.89679937 -8.00310508 13.79240209 -8.5 11.6875 C-8.91765625 9.92986328 -8.91765625 9.92986328 -9.34375 8.13671875 C-10 5 -10 5 -10 2 C-3.375 0 -3.375 0 0 0 Z " fill="#6F7377" transform="translate(307,454)"/>
<path d="M0 0 C0.66 0 1.32 0 2 0 C0.36363636 5.53846154 0.36363636 5.53846154 -1.625 8.0625 C-3.36073958 10.50831486 -3.24444395 12.06667261 -3 15 C-1.35 15.33 0.3 15.66 2 16 C2.48210937 15.278125 2.96421875 14.55625 3.4609375 13.8125 C4.09257812 12.884375 4.72421875 11.95625 5.375 11 C6.31472656 9.6078125 6.31472656 9.6078125 7.2734375 8.1875 C8.12808594 7.1046875 8.12808594 7.1046875 9 6 C9.66 6 10.32 6 11 6 C9.24385848 10.97573431 6.74380523 15.25619477 3 19 C-3.46153846 18.53846154 -3.46153846 18.53846154 -6 16 C-7.12867877 10.35660615 -4.3402344 6.61516649 -1.5078125 1.9765625 C-0.76144531 0.99816406 -0.76144531 0.99816406 0 0 Z " fill="#696D72" transform="translate(154,429)"/>
<path d="M0 0 C0 0.66 0 1.32 0 2 C-1.98 2.99 -1.98 2.99 -4 4 C-4 4.99 -4 5.98 -4 7 C-1.03824877 6.38722388 0.38058783 5.74627478 3 4 C6.32240324 4.3241369 7.60776303 4.60776303 10 7 C9.54545455 12.45454545 9.54545455 12.45454545 7 15 C4.375 15.125 4.375 15.125 2 15 C2 14.34 2 13.68 2 13 C3.65 12.34 5.3 11.68 7 11 C7 10.01 7 9.02 7 8 C3.18186553 8.27540704 3.18186553 8.27540704 0 10 C-2.4375 10.1875 -2.4375 10.1875 -5 10 C-7 8 -7 8 -7.3125 5.5625 C-7 3 -7 3 -5.75 1.1875 C-4 0 -4 0 0 0 Z " fill="#6F7377" transform="translate(427,375)"/>
<path d="M0 0 C2.80740885 2.24592708 4.61164156 3.89467213 5.8125 7.3125 C5.874375 7.869375 5.93625 8.42625 6 9 C5.01 9 4.02 9 3 9 C2.34 7.35 1.68 5.7 1 4 C-3.57239006 2.86733849 -3.57239006 2.86733849 -7.9375 4 C-9.52633023 6.99073926 -9.18792343 9.68001939 -9 13 C-7.02 13.99 -5.04 14.98 -3 16 C-3 16.66 -3 17.32 -3 18 C-8.37313433 17.52238806 -8.37313433 17.52238806 -10.875 15.4375 C-12.49515222 11.92717019 -12.9088974 8.73165194 -12 5 C-8.39599398 0.88113597 -5.51038931 -1.17242326 0 0 Z " fill="#767A7E" transform="translate(114,396)"/>
<path d="M0 0 C1.32 0 2.64 0 4 0 C2.70024676 6.71539173 0.70071112 12.72019113 -2 19 C-2.99 18.67 -3.98 18.34 -5 18 C-4.42934122 11.58008874 -2.32655091 5.98410537 0 0 Z " fill="#6E7277" transform="translate(323,57)"/>
<path d="M0 0 C-1.20381448 2.49361571 -2.45428722 4.68143083 -4 7 C-2.68 7.66 -1.36 8.32 0 9 C0.45375 8.505 0.9075 8.01 1.375 7.5 C3 6 3 6 5 6 C4.67 6.5775 4.34 7.155 4 7.75 C2.72924102 10.19883862 2.72924102 10.19883862 3 14 C3.93283296 16.20067421 3.93283296 16.20067421 5 18 C2 18 2 18 0.28125 16.390625 C-0.3065625 15.68421875 -0.894375 14.9778125 -1.5 14.25 C-2.0878125 13.55390625 -2.675625 12.8578125 -3.28125 12.140625 C-4.89985026 10.12473195 -6.46396189 8.0792711 -8 6 C-7.0479279 4.99403703 -6.08812654 3.99538437 -5.125 3 C-4.59132813 2.443125 -4.05765625 1.88625 -3.5078125 1.3125 C-2 0 -2 0 0 0 Z " fill="#717579" transform="translate(406,398)"/>
<path d="M0 0 C0 0.66 0 1.32 0 2 C-2.64 2 -5.28 2 -8 2 C-8 3.98 -8 5.96 -8 8 C-5.69 8 -3.38 8 -1 8 C-1 8.66 -1 9.32 -1 10 C-2.98 10 -4.96 10 -7 10 C-7 12.64 -7 15.28 -7 18 C-7.66 18 -8.32 18 -9 18 C-9.99250545 12.29309366 -10.10477512 6.78591511 -10 1 C-6.78548731 -0.60725635 -3.56387464 -0.05748185 0 0 Z " fill="#6A6E73" transform="translate(283,458)"/>
<path d="M0 0 C3 1 3 1 4.6875 4.375 C6 8 6 8 6 11 C3.03 11 0.06 11 -3 11 C-1.125 2.25 -1.125 2.25 0 0 Z " fill="#E5E8E9" transform="translate(246,44)"/>
<path d="M0 0 C0.99 0 1.98 0 3 0 C2.67 3.3 2.34 6.6 2 10 C-4.0018137 10.21824777 -9.19233704 9.5056904 -15 8 C-15 7.34 -15 6.68 -15 6 C-10.05 6.33 -5.1 6.66 0 7 C0 4.69 0 2.38 0 0 Z " fill="#76797E" transform="translate(473,280)"/>
<path d="M0 0 C1.78596189 2.67894284 2.39169178 4.0031669 3.0703125 7.01171875 C3.24433594 7.76904297 3.41835938 8.52636719 3.59765625 9.30664062 C3.85869141 10.48516602 3.85869141 10.48516602 4.125 11.6875 C4.30675781 12.48478516 4.48851562 13.28207031 4.67578125 14.10351562 C5.12273427 16.06775651 5.56210416 18.03372014 6 20 C5.34 20.33 4.68 20.66 4 21 C3.67 21.66 3.34 22.32 3 23 C2.72285156 21.81921875 2.44570313 20.6384375 2.16015625 19.421875 C1.7942857 17.86457984 1.42839946 16.30728837 1.0625 14.75 C0.88009766 13.97269531 0.69769531 13.19539062 0.50976562 12.39453125 C0.24389648 11.26337891 0.24389648 11.26337891 -0.02734375 10.109375 C-0.18968506 9.41811523 -0.35202637 8.72685547 -0.51928711 8.01464844 C-0.9985662 6.00600899 -1.49546602 4.00243058 -2 2 C-1.34 2 -0.68 2 0 2 C0 1.34 0 0.68 0 0 Z " fill="#A4A9AF" transform="translate(459,196)"/>
<path d="M0 0 C3.96 0 7.92 0 12 0 C12 0.66 12 1.32 12 2 C10.35 2 8.7 2 7 2 C7 6.95 7 11.9 7 17 C6.34 17 5.68 17 5 17 C5 12.05 5 7.1 5 2 C3.35 2 1.7 2 0 2 C0 1.34 0 0.68 0 0 Z " fill="#666A6E" transform="translate(246,459)"/>
<path d="M0 0 C0.268125 1.11375 0.53625 2.2275 0.8125 3.375 C1.65809019 7.21840951 1.65809019 7.21840951 5 9 C5 9.66 5 10.32 5 11 C1.49833282 10.35154312 -1.09856846 9.06154347 -4 7 C-5.1875 4.9375 -5.1875 4.9375 -6 3 C-6.66 2.34 -7.32 1.68 -8 1 C-2.25 0 -2.25 0 0 0 Z " fill="#73767B" transform="translate(466,300)"/>
<path d="M0 0 C-1.36370299 2.99220268 -2.94908083 5.29026529 -5.125 7.75 C-5.93324219 8.67039062 -5.93324219 8.67039062 -6.7578125 9.609375 C-7.37269531 10.29773438 -7.37269531 10.29773438 -8 11 C-7.690625 11.598125 -7.38125 12.19625 -7.0625 12.8125 C-6 15 -6 15 -5 18 C-7.88437779 16.70700306 -9.87219421 15.34058637 -12 13 C-10.48665656 7.61922331 -5.99032955 0 0 0 Z " fill="#6E7277" transform="translate(127,408)"/>
<path d="M0 0 C0 0.66 0 1.32 0 2 C-1.78398614 3.28006797 -3.62853906 4.47660351 -5.5 5.625 C-7.03140625 6.57246094 -7.03140625 6.57246094 -8.59375 7.5390625 C-9.3878125 8.02117187 -10.181875 8.50328125 -11 9 C-10.34 11.31 -9.68 13.62 -9 16 C-12 15 -12 15 -13.75 12.625 C-15 10 -15 10 -14 7 C-11.34765625 5.17578125 -11.34765625 5.17578125 -8.0625 3.3125 C-6.98097656 2.68988281 -5.89945313 2.06726563 -4.78515625 1.42578125 C-2 0 -2 0 0 0 Z " fill="#71757A" transform="translate(89,362)"/>
<path d="M0 0 C0.66 0 1.32 0 2 0 C2.3125 3.1875 2.3125 3.1875 2 7 C-0.4375 9.875 -0.4375 9.875 -3 12 C-3.33 12.33 -3.66 12.66 -4 13 C-6.9375 13.25 -6.9375 13.25 -10 13 C-10.66 12.01 -11.32 11.02 -12 10 C-8.7 9.67 -5.4 9.34 -2 9 C-1.34 6.03 -0.68 3.06 0 0 Z " fill="#787B7F" transform="translate(145,425)"/>
<path d="M0 0 C2.375 -0.1875 2.375 -0.1875 5 0 C5.66 0.99 6.32 1.98 7 3 C9.17897492 4.00805555 9.17897492 4.00805555 11.625 4.6875 C12.85089844 5.06455078 12.85089844 5.06455078 14.1015625 5.44921875 C14.72804688 5.63097656 15.35453125 5.81273437 16 6 C16 6.66 16 7.32 16 8 C10.19834261 7.02541328 5.16017278 5.98746845 0 3 C0 2.01 0 1.02 0 0 Z " fill="#777B7F" transform="translate(449,323)"/>
<path d="M0 0 C3.33761045 2.15090451 4.73470933 3.20412799 6 7 C5.01 7 4.02 7 3 7 C2.566875 6.505 2.13375 6.01 1.6875 5.5 C-0.00145193 3.70500769 -0.00145193 3.70500769 -3 3.6875 C-6.17941514 3.78340875 -6.17941514 3.78340875 -9 6 C-9 4.68 -9 3.36 -9 2 C-5.48746854 -0.34168764 -4.13530644 -0.49623677 0 0 Z " fill="#7A7D82" transform="translate(395,411)"/>
<path d="M0 0 C4.29024448 0.77224401 6.20600408 2.36550447 9.125 5.5625 C9.5 8.875 9.5 8.875 9.125 11.5625 C8.465 11.5625 7.805 11.5625 7.125 11.5625 C6.75375 10.428125 6.3825 9.29375 6 8.125 C5.23436451 6.18967243 5.23436451 6.18967243 4.125 4.5625 C0.19791908 3.19655881 -2.89765383 3.50967307 -6.875 4.5625 C-4.67880298 1.85948828 -3.46709854 0.67834537 0 0 Z " fill="#6B6E73" transform="translate(73.875,343.4375)"/>
<path d="M0 0 C2 2 2 2 2 6 C1.34 6 0.68 6 0 6 C-0.33 5.01 -0.66 4.02 -1 3 C-2.98 3.33 -4.96 3.66 -7 4 C-6.34 5.65 -5.68 7.3 -5 9 C-5.99 9 -6.98 9 -8 9 C-10 6 -10 6 -9.8125 3.9375 C-7.91967282 -0.57616481 -4.26828349 -0.36325817 0 0 Z " fill="#6A6E72" transform="translate(378,425)"/>
<path d="M0 0 C0.99 0 1.98 0 3 0 C3.66 5.61 4.32 11.22 5 17 C4.01 17 3.02 17 2 17 C1.34 11.39 0.68 5.78 0 0 Z " fill="#72767B" transform="translate(288,458)"/>
<path d="M0 0 C1.32 0.33 2.64 0.66 4 1 C4.36923077 6.53846154 4.36923077 6.53846154 2.5 8.875 C1.7575 9.431875 1.7575 9.431875 1 10 C1.66 11.98 2.32 13.96 3 16 C0 15 0 15 -1.1875 13.1875 C-2 11 -2 11 -2 7 C-1.01 6.67 -0.02 6.34 1 6 C0.67 4.02 0.34 2.04 0 0 Z " fill="#696D71" transform="translate(237,459)"/>
<path d="M0 0 C-0.33 0.99 -0.66 1.98 -1 3 C-2.98248715 3.71706982 -4.98415349 4.38290413 -7 5 C-9.28728734 6.83883881 -9.28728734 6.83883881 -9.125 9.625 C-9.063125 10.800625 -9.063125 10.800625 -9 12 C-9.99 12 -10.98 12 -12 12 C-12.3125 9.3125 -12.3125 9.3125 -12 6 C-8.11715092 1.40188924 -5.92842909 -0.15601129 0 0 Z " fill="#7D8085" transform="translate(61,301)"/>
<path d="M0 0 C3.77126791 1.01180358 4.78414572 1.67621858 7 5 C7.33333333 11.33333333 7.33333333 11.33333333 6 14 C5.34 14 4.68 14 4 14 C4.03255208 12.01432292 4.06510417 10.02864583 4.09765625 8.04296875 C4.08263217 5.79694539 4.08263217 5.79694539 3 3 C0.03 2.505 0.03 2.505 -3 2 C-2.01 1.34 -1.02 0.68 0 0 Z " fill="#787C80" transform="translate(56,280)"/>
<path d="M0 0 C5.75 0.75 5.75 0.75 8 3 C8 4.32 8 5.64 8 7 C4.59687262 5.94124926 1.98646769 4.99097846 -1 3 C-0.67 2.01 -0.34 1.02 0 0 Z " fill="#E4E6E8" transform="translate(348,70)"/>
<path d="M0 0 C4.14298667 0.59834725 7.18194377 2.00664285 10.8125 4.0625 C11.78832031 4.61035156 12.76414062 5.15820312 13.76953125 5.72265625 C14.50558594 6.14417969 15.24164063 6.56570313 16 7 C16 7.66 16 8.32 16 9 C10.04675579 7.60668753 5.24258516 5.11464243 0 2 C0 1.34 0 0.68 0 0 Z " fill="#6F7377" transform="translate(436,352)"/>
<path d="M0 0 C-0.33 1.65 -0.66 3.3 -1 5 C-2.32 5.33 -3.64 5.66 -5 6 C-5.66 4.02 -6.32 2.04 -7 0 C-4.3333581 -1.33332095 -2.83319697 -0.67102033 0 0 Z " fill="#E6E8E9" transform="translate(363,436)"/>
<path d="M0 0 C0.763125 0.20625 1.52625 0.4125 2.3125 0.625 C2.0625 2.5 2.0625 2.5 1.3125 4.625 C-0.75 5.875 -0.75 5.875 -2.6875 6.625 C-3.6775 4.975 -4.6675 3.325 -5.6875 1.625 C-2.6875 -0.375 -2.6875 -0.375 0 0 Z " fill="#E4E6E8" transform="translate(375.6875,427.375)"/>
<path d="M0 0 C1.875 0.3125 1.875 0.3125 4 1 C6.40825003 4.61237504 6.23008634 6.01041291 5.625 10.125 C5 12 5 12 2.4375 14 C1.2309375 14.495 1.2309375 14.495 0 15 C-0.33 14.34 -0.66 13.68 -1 13 C0.32 12.01 1.64 11.02 3 10 C2.41825155 4.6913151 2.41825155 4.6913151 0 0 Z " fill="#6B6F73" transform="translate(68,325)"/>
<path d="M0 0 C3 3.75 3 3.75 3 6 C5.97 6 8.94 6 12 6 C12 6.99 12 7.98 12 9 C4.71910112 9.48539326 4.71910112 9.48539326 1.5 7.3125 C-0.24633224 4.62023779 -0.34982212 3.14839906 0 0 Z " fill="#6F7377" transform="translate(193,459)"/>
<path d="M0 0 C2.93167219 0.31693753 4.58982661 0.63225834 6.8125 2.625 C8.41568775 5.8313755 8.20379759 8.46750852 8 12 C7.34 12 6.68 12 6 12 C5.34 9.03 4.68 6.06 4 3 C2.35 2.67 0.7 2.34 -1 2 C-0.67 1.34 -0.34 0.68 0 0 Z " fill="#6A6E72" transform="translate(320,451)"/>
<path d="M0 0 C1.65 0 3.3 0 5 0 C5.33 1.65 5.66 3.3 6 5 C4.34385343 5.38218767 2.67542976 5.71395102 1 6 C0 5 0 5 -0.0625 2.4375 C-0.041875 1.633125 -0.02125 0.82875 0 0 Z " fill="#EAECED" transform="translate(233,460)"/>
<path d="M0 0 C2.64 0.33 5.28 0.66 8 1 C7.34 1.66 6.68 2.32 6 3 C4.68 3 3.36 3 2 3 C2.33 4.98 2.66 6.96 3 9 C2.34 9 1.68 9 1 9 C-1 6 -1 6 -0.625 2.8125 C-0.41875 1.884375 -0.2125 0.95625 0 0 Z " fill="#8A8D91" transform="translate(231,457)"/>
<path d="M0 0 C0.99 0.66 1.98 1.32 3 2 C3.4409511 4.86618213 3.41501866 6.36655047 1.8125 8.8125 C-0.55982525 10.36678206 -2.22041345 10.22537188 -5 10 C-5 9.34 -5 8.68 -5 8 C-3.35 7.34 -1.7 6.68 0 6 C0 4.02 0 2.04 0 0 Z " fill="#6B6F74" transform="translate(443,365)"/>
<path d="M0 0 C0.99 0 1.98 0 3 0 C3.47401764 4.07655174 3.31020611 5.58343751 0.8125 8.9375 C-2 11 -2 11 -4.8125 10.8125 C-5.534375 10.544375 -6.25625 10.27625 -7 10 C-7 9.67 -7 9.34 -7 9 C-5.02 8.34 -3.04 7.68 -1 7 C-0.67 4.69 -0.34 2.38 0 0 Z " fill="#84888C" transform="translate(457,340)"/>
<path d="M0 0 C0.99 0.33 1.98 0.66 3 1 C2.01 2.485 2.01 2.485 1 4 C0.60986284 5.9896995 0.26797351 7.99019869 0 10 C-0.99 10 -1.98 10 -3 10 C-3.36923077 4.58461538 -3.36923077 4.58461538 -1.5 1.625 C-1.005 1.08875 -0.51 0.5525 0 0 Z " fill="#7C8084" transform="translate(195,452)"/>
<path d="M0 0 C0.2475 0.5775 0.495 1.155 0.75 1.75 C2.82554091 5.48597363 4.93173944 7.64391315 9 9 C9 9.66 9 10.32 9 11 C3.57534247 10.51780822 3.57534247 10.51780822 1.125 8.3125 C-0.28983481 5.40422845 -0.21776233 3.19384754 0 0 Z " fill="#6D7175" transform="translate(102,403)"/>
<path d="M0 0 C0.99 0.33 1.98 0.66 3 1 C2.25 6.75 2.25 6.75 0 9 C-2.625 9.125 -2.625 9.125 -5 9 C-5 8.34 -5 7.68 -5 7 C-3.35 6.34 -1.7 5.68 0 5 C0 3.35 0 1.7 0 0 Z " fill="#676B70" transform="translate(434,381)"/>
<path d="M0 0 C0.66 0 1.32 0 2 0 C2.4125 0.45375 2.825 0.9075 3.25 1.375 C5.58139465 3.53986646 7.97828036 4.12705877 11 5 C10.67 5.66 10.34 6.32 10 7 C5.85463326 6.5289356 3.0080208 6.0080208 0 3 C0 2.01 0 1.02 0 0 Z " fill="#74787C" transform="translate(443,345)"/>
<path d="M0 0 C4.19469571 0.59924224 8.00999834 1.57499941 12 3 C11.67 3.66 11.34 4.32 11 5 C9.54096742 4.69078116 8.08279278 4.37751201 6.625 4.0625 C5.81289063 3.88847656 5.00078125 3.71445312 4.1640625 3.53515625 C2 3 2 3 0 2 C0 1.34 0 0.68 0 0 Z " fill="#75787D" transform="translate(452,314)"/>
<path d="M0 0 C-3 2 -3 2 -5.5625 3.3125 C-8.40888319 5.28307298 -9.02942868 6.73535101 -10 10 C-10.33 10 -10.66 10 -11 10 C-10.40550688 3.69837297 -10.40550688 3.69837297 -8.875 1.0625 C-5.96905769 -0.58420065 -3.26178195 -0.18462917 0 0 Z " fill="#676B70" transform="translate(56,280)"/>
<path d="M0 0 C0 0.99 0 1.98 0 3 C-3.3 3.33 -6.6 3.66 -10 4 C-6.2751896 0.2751896 -5.07777425 -0.13362564 0 0 Z " fill="#7F8387" transform="translate(68,323)"/>
<path d="M0 0 C2.12508244 3.18762365 2.5020163 5.26512223 3 9 C2.34 9 1.68 9 1 9 C0.67 9.66 0.34 10.32 0 11 C-0.66 8.03 -1.32 5.06 -2 2 C-1.34 2 -0.68 2 0 2 C0 1.34 0 0.68 0 0 Z " fill="#ADB2B7" transform="translate(459,196)"/>
<path d="M0 0 C0.7734375 0.433125 0.7734375 0.433125 1.5625 0.875 C4.62356725 2.28780027 7.74944918 3.1248517 11 4 C11 4.66 11 5.32 11 6 C7.14521782 6.35858439 5.42240542 6.2754818 2.125 4.125 C1.42375 3.42375 0.7225 2.7225 0 2 C0 1.34 0 0.68 0 0 Z " fill="#676B70" transform="translate(50,313)"/>
<path d="M0 0 C0.99 0.33 1.98 0.66 3 1 C2.67 3.31 2.34 5.62 2 8 C1.01 8 0.02 8 -1 8 C-1.125 2.25 -1.125 2.25 0 0 Z " fill="#7D8084" transform="translate(66,348)"/>
<path d="M0 0 C0.66 0.33 1.32 0.66 2 1 C1.360625 1.721875 0.72125 2.44375 0.0625 3.1875 C-1.98673535 5.98191184 -2.61332946 7.61663274 -3 11 C-3.66 11 -4.32 11 -5 11 C-4.50769231 4.6 -4.50769231 4.6 -1.9375 1.5625 C-0.9784375 0.7890625 -0.9784375 0.7890625 0 0 Z " fill="#6C7075" transform="translate(447,334)"/>
<path d="M0 0 C6.52307692 0.49230769 6.52307692 0.49230769 8.9375 3.0625 C9.288125 3.701875 9.63875 4.34125 10 5 C9.01 5 8.02 5 7 5 C6.34 4.34 5.68 3.68 5 3 C3.01178687 2.60235737 1.01055661 2.26224651 -1 2 C-0.67 1.34 -0.34 0.68 0 0 Z " fill="#676A6F" transform="translate(136,420)"/>
<path d="M0 0 C0.33 1.32 0.66 2.64 1 4 C1.928125 3.814375 2.85625 3.62875 3.8125 3.4375 C7 3 7 3 10 4 C10 4.66 10 5.32 10 6 C6.7 5.67 3.4 5.34 0 5 C0 3.35 0 1.7 0 0 Z " fill="#7E8286" transform="translate(212,467)"/>
<path d="M0 0 C0.66 0 1.32 0 2 0 C0.90931332 3.77545388 0.0916909 6.47043472 -3 9 C-3.33 8.01 -3.66 7.02 -4 6 C-2.1875 2.8125 -2.1875 2.8125 0 0 Z " fill="#74787C" transform="translate(154,429)"/>
<path d="M0 0 C2.475 0.495 2.475 0.495 5 1 C4.67 2.32 4.34 3.64 4 5 C2.68 4.67 1.36 4.34 0 4 C0 2.68 0 1.36 0 0 Z " fill="#6B6F73" transform="translate(325,48)"/>
<path d="M0 0 C2.64 0 5.28 0 8 0 C8 0.99 8 1.98 8 3 C5.125 3.1875 5.125 3.1875 2 3 C1.34 2.01 0.68 1.02 0 0 Z " fill="#818488" transform="translate(133,435)"/>
<path d="M0 0 C0.66 0 1.32 0 2 0 C0.68775452 3.93673644 -0.91910327 6.22719294 -4 9 C-4.66 8.34 -5.32 7.68 -6 7 C-5.04882866 5.8274869 -4.08882991 4.66212985 -3.125 3.5 C-2.59132813 2.8503125 -2.05765625 2.200625 -1.5078125 1.53125 C-0.76144531 0.77328125 -0.76144531 0.77328125 0 0 Z " fill="#787C80" transform="translate(414,386)"/>
<path d="M0 0 C-0.33 1.65 -0.66 3.3 -1 5 C-3.91517292 3.92598892 -5.77810176 3.22189824 -8 1 C-2.25 0 -2.25 0 0 0 Z " fill="#E3E5E6" transform="translate(466,300)"/>
<path d="M0 0 C0 0.66 0 1.32 0 2 C-1.65 2 -3.3 2 -5 2 C-5 2.99 -5 3.98 -5 5 C-5.66 5 -6.32 5 -7 5 C-7 4.34 -7 3.68 -7 3 C-7.66 2.67 -8.32 2.34 -9 2 C-5.86501708 0.14223235 -3.62528568 -0.20140476 0 0 Z " fill="#63676C" transform="translate(473,297)"/>
<path d="M0 0 C0.33 0 0.66 0 1 0 C1.33 3.3 1.66 6.6 2 10 C1.01 10 0.02 10 -1 10 C-0.67 6.7 -0.34 3.4 0 0 Z " fill="#818488" transform="translate(291,465)"/>
<path d="M0 0 C0.33 1.98 0.66 3.96 1 6 C0.01 5.67 -0.98 5.34 -2 5 C-2.33 4.01 -2.66 3.02 -3 2 C-3.99 1.34 -4.98 0.68 -6 0 C-3 -1 -3 -1 0 0 Z " fill="#828589" transform="translate(365,434)"/>
<path d="M0 0 C0.99 0.33 1.98 0.66 3 1 C4.1875 3.5625 4.1875 3.5625 5 6 C3.02 6.33 1.04 6.66 -1 7 C-0.01 6.67 0.98 6.34 2 6 C1.34 4.02 0.68 2.04 0 0 Z " fill="#7C7F84" transform="translate(73,353)"/>
<path d="M0 0 C0.99 0.33 1.98 0.66 3 1 C1.35 2.65 -0.3 4.3 -2 6 C-2.66 5.01 -3.32 4.02 -4 3 C-2.1875 1.4375 -2.1875 1.4375 0 0 Z " fill="#7E8185" transform="translate(64,313)"/>
<path d="M0 0 C0.99 0 1.98 0 3 0 C2.67 3.3 2.34 6.6 2 10 C0.0044484 6.00889681 -0.19546065 4.30013434 0 0 Z " fill="#898C90" transform="translate(473,280)"/>
<path d="M0 0 C0.33 0.66 0.66 1.32 1 2 C1.66 2.33 2.32 2.66 3 3 C2.67 4.98 2.34 6.96 2 9 C1.01 8.67 0.02 8.34 -1 8 C-0.67 5.36 -0.34 2.72 0 0 Z " fill="#ABB1B6" transform="translate(57,206)"/>
<path d="M0 0 C0.33 0 0.66 0 1 0 C1.125 5.75 1.125 5.75 0 8 C-0.66 8 -1.32 8 -2 8 C-1.125 1.125 -1.125 1.125 0 0 Z " fill="#9FA5AB" transform="translate(57,213)"/>
<path d="M0 0 C0.99 0.495 0.99 0.495 2 1 C2.73075648 3.3140622 3.40138258 5.64828869 4 8 C3.01 7.67 2.02 7.34 1 7 C0.67 4.69 0.34 2.38 0 0 Z " fill="#72767A" transform="translate(236,467)"/>
<path d="M0 0 C-5.75 3 -5.75 3 -8 3 C-7.67 2.01 -7.34 1.02 -7 0 C-3.86650268 -1.04449911 -3.01031744 -0.93423645 0 0 Z " fill="#7B7E82" transform="translate(320,452)"/>
<path d="M0 0 C1.875 0.125 1.875 0.125 4 1 C5.25 4.0625 5.25 4.0625 6 7 C5.01 7 4.02 7 3 7 C2.690625 6.21625 2.38125 5.4325 2.0625 4.625 C1.07124962 2.07669872 1.07124962 2.07669872 0 0 Z " fill="#6D7176" transform="translate(114,398)"/>
<path d="M0 0 C2 4 2 4 1.125 6.75 C0.75375 7.4925 0.3825 8.235 0 9 C-0.66 9 -1.32 9 -2 9 C-1.34 6.03 -0.68 3.06 0 0 Z " fill="#A9AEB3" transform="translate(509,328)"/>
</svg>
