<?xml version="1.0" encoding="UTF-8"?>
<svg version="1.1" xmlns="http://www.w3.org/2000/svg" width="400" height="400">
<path d="M0 0 C0.88567657 0.00248749 1.77135315 0.00497498 2.68386841 0.00753784 C15.4328385 0.0629525 27.86978618 0.26739497 40.3125 3.3125 C41.2917041 3.54888184 42.2709082 3.78526367 43.27978516 4.02880859 C56.49239535 7.30431339 69.13165232 11.21611975 81.3125 17.3125 C82.05661133 17.67714355 82.80072266 18.04178711 83.56738281 18.41748047 C117.32117391 35.05872327 144.90124433 60.03716787 164.16455078 92.39257812 C165.23626609 94.18500032 166.33180979 95.96034239 167.43359375 97.734375 C177.22140704 113.99015848 183.06293227 131.90115301 187.3125 150.3125 C187.49184082 151.06241211 187.67118164 151.81232422 187.85595703 152.58496094 C193.27853869 176.37539368 193.09925731 206.62027213 187.3125 230.3125 C187.08143555 231.27575195 186.85037109 232.23900391 186.61230469 233.23144531 C174.6444339 281.81046298 145.3310369 325.44670332 102.26513672 351.75048828 C100.92279972 352.55834342 99.57858663 353.36309025 98.23242188 354.16455078 C96.43999968 355.23626609 94.66465761 356.33180979 92.890625 357.43359375 C76.63484152 367.22140704 58.72384699 373.06293227 40.3125 377.3125 C39.56258789 377.49184082 38.81267578 377.67118164 38.04003906 377.85595703 C14.24960632 383.27853869 -15.99527213 383.09925731 -39.6875 377.3125 C-40.65075195 377.08143555 -41.61400391 376.85037109 -42.60644531 376.61230469 C-90.82772784 364.73256511 -134.57363139 335.6155106 -160.84204102 292.89575195 C-180.0779176 260.71944566 -190.16856686 228.18724126 -190 190.625 C-189.99751251 189.73932343 -189.99502502 188.85364685 -189.99246216 187.94113159 C-189.9370475 175.1921615 -189.73260503 162.75521382 -186.6875 150.3125 C-186.45111816 149.3332959 -186.21473633 148.3540918 -185.97119141 147.34521484 C-182.69568661 134.13260465 -178.78388025 121.49334768 -172.6875 109.3125 C-172.32285645 108.56838867 -171.95821289 107.82427734 -171.58251953 107.05761719 C-149.7205478 62.71450917 -111.47590516 26.7660343 -64.45629883 10.18896484 C-43.19689786 3.14110729 -22.36484492 -0.10036599 0 0 Z " fill="#38484F" transform="translate(199.6875,9.6875)"/>
<path d="M0 0 C0.99507568 0.44085938 0.99507568 0.44085938 2.01025391 0.890625 C16.39623061 7.38996073 28.59665934 16.09680586 40 27 C40.67289063 27.60972656 41.34578125 28.21945313 42.0390625 28.84765625 C58.64528051 44.42839068 69.10430492 66.34797364 75 88 C75.28810547 89.05574219 75.28810547 89.05574219 75.58203125 90.1328125 C83.35382108 120.38939885 77.6972909 155.68685637 62.08984375 182.58203125 C55.7548624 193.07090361 48.60074508 202.32280386 40 211 C39.08605469 211.92683594 38.17210937 212.85367188 37.23046875 213.80859375 C12.31590562 237.83700279 -20.26937408 248.58792123 -54.41088867 248.41943359 C-87.95824205 247.72038946 -117.88033796 234.06178212 -142 211 C-142.67289063 210.39027344 -143.34578125 209.78054688 -144.0390625 209.15234375 C-165.4457311 189.0676009 -178.39401562 157.66917355 -180.20654297 128.69873047 C-181.2644377 91.9135931 -171.60868849 58.3906319 -145.94604492 31.10571289 C-144.6352317 29.73279762 -143.31782536 28.36618592 -142 27 C-141.38382813 26.33226562 -140.76765625 25.66453125 -140.1328125 24.9765625 C-105.57480376 -11.56563813 -44.77372333 -19.95486277 0 0 Z " fill="#FEFEFD" transform="translate(251,81)"/>
<path d="M0 0 C0.99507568 0.44085938 0.99507568 0.44085938 2.01025391 0.890625 C16.39623061 7.38996073 28.59665934 16.09680586 40 27 C40.67289063 27.60972656 41.34578125 28.21945313 42.0390625 28.84765625 C58.64528051 44.42839068 69.10430492 66.34797364 75 88 C75.28810547 89.05574219 75.28810547 89.05574219 75.58203125 90.1328125 C83.35382108 120.38939885 77.6972909 155.68685637 62.08984375 182.58203125 C55.7548624 193.07090361 48.60074508 202.32280386 40 211 C39.08605469 211.92683594 38.17210937 212.85367188 37.23046875 213.80859375 C12.31590562 237.83700279 -20.26937408 248.58792123 -54.41088867 248.41943359 C-87.95824205 247.72038946 -117.88033796 234.06178212 -142 211 C-142.67289063 210.39027344 -143.34578125 209.78054688 -144.0390625 209.15234375 C-165.4457311 189.0676009 -178.39401562 157.66917355 -180.20654297 128.69873047 C-181.2644377 91.9135931 -171.60868849 58.3906319 -145.94604492 31.10571289 C-144.6352317 29.73279762 -143.31782536 28.36618592 -142 27 C-141.38382813 26.33226562 -140.76765625 25.66453125 -140.1328125 24.9765625 C-105.57480376 -11.56563813 -44.77372333 -19.95486277 0 0 Z M-121.12890625 49.1015625 C-122.83303762 51.01537446 -124.42507065 52.97910851 -126 55 C-126.5465625 55.63808594 -127.093125 56.27617187 -127.65625 56.93359375 C-136.93375314 68.08768275 -143.27101454 81.03980653 -147 95 C-147.24492187 95.91136719 -147.48984375 96.82273437 -147.7421875 97.76171875 C-153.03258843 122.58312039 -148.13265616 149.66019451 -134.92578125 171.18359375 C-131.59518269 176.0545097 -127.84430749 180.53082274 -124 185 C-123.20722656 185.99515625 -122.41445312 186.9903125 -121.59765625 188.015625 C-108.45206748 203.11822624 -86.38106363 214.10493692 -66.609375 216.75390625 C-37.74078849 218.72221897 -11.25603651 214.22004169 11.50390625 195.2109375 C29.31349114 179.43593743 41.97098279 160.84112662 46 137 C46.18175781 136.12601562 46.36351562 135.25203125 46.55078125 134.3515625 C50.06761851 108.11289842 44.53662892 83.00888316 29.1640625 61.421875 C12.69460194 40.04518741 -8.56241687 26.30837925 -35.1875 21.4140625 C-67.22688377 17.93437533 -97.78766866 26.06012063 -121.12890625 49.1015625 Z " fill="#F3B91B" transform="translate(251,81)"/>
<path d="M0 0 C8.03338638 5.81167413 12.92957568 13.08765033 17.05859375 21.9609375 C18.58284796 24.67789909 20.34278178 26.6263978 22.50390625 28.86328125 C27.80413684 34.54424674 30.496928 41.14741196 30.94140625 48.92578125 C30.4714836 57.68200667 26.58464922 66.2119263 20.44140625 72.42578125 C11.71823524 79.39010515 3.00393031 79.74206402 -7.796875 79.76171875 C-9.07282028 79.76837555 -10.34876556 79.77503235 -11.66337585 79.78189087 C-14.35735069 79.79199565 -17.05092163 79.7975764 -19.74487305 79.79638672 C-23.17093543 79.79618386 -26.59616526 79.82347021 -30.02203083 79.85793114 C-33.3219462 79.88572168 -36.62185867 79.88435385 -39.921875 79.88671875 C-41.13885574 79.90108978 -42.35583649 79.91546082 -43.60969543 79.93026733 C-52.55995012 79.88270328 -59.2993666 78.21066054 -66.80859375 73.30078125 C-73.7136097 66.08190094 -76.96448885 58.46584775 -77.93359375 48.61328125 C-77.57959007 39.09244553 -73.3100526 32.77700995 -66.859375 26.16796875 C-64.27445613 23.08713166 -62.60076025 19.86112561 -60.93359375 16.23828125 C-55.72154151 5.22975902 -47.67099348 -0.85989901 -36.43359375 -5.44921875 C-23.83454984 -9.1443447 -11.03788804 -6.7912502 0 0 Z " fill="#F3BA20" transform="translate(223.55859375,163.57421875)"/>
<path d="M0 0 C6.88672865 5.23391378 10.84321405 11.19624948 14.375 19.0625 C15.98325575 21.96973155 17.65042369 23.80354937 19.9375 26.1875 C25.24511667 32.00339672 28.04870502 38.6023379 28.5 46.5 C28.03007735 55.25622542 24.14324297 63.78614505 18 70 C9.27682899 76.9643239 0.56252406 77.31628277 -10.23828125 77.3359375 C-11.51422653 77.3425943 -12.79017181 77.3492511 -14.1047821 77.35610962 C-16.79875694 77.3662144 -19.49232788 77.37179515 -22.1862793 77.37060547 C-25.61234168 77.37040261 -29.03757151 77.39768896 -32.46343708 77.43214989 C-35.76335245 77.45994043 -39.06326492 77.4585726 -42.36328125 77.4609375 C-43.58026199 77.47530853 -44.79724274 77.48967957 -46.05110168 77.50448608 C-53.52527961 77.4647663 -59.30104633 76.36811812 -66 73 C-66 67.81443356 -64.39846722 65.55161392 -60.90280151 61.80026245 C-52.00630049 54.04916429 -37.07236555 56.82854254 -26.125 57.125 C-22.1843694 57.19909733 -18.24489913 57.25719966 -14.30368042 57.28707886 C-11.86033538 57.30882899 -9.41704451 57.35767637 -6.97488403 57.4367981 C-0.3096654 57.76026917 -0.3096654 57.76026917 5.23266602 54.62255859 C7.83458302 50.76155674 8.41076588 47.61063743 8 43 C6.65884601 39.99020117 6.65884601 39.99020117 4 38 C2.80375 37.62875 1.6075 37.2575 0.375 36.875 C-3 35 -3 35 -3.71875 32.65234375 C-3.99416544 30.72708389 -4.24605374 28.79833868 -4.4765625 26.8671875 C-5.42277562 21.68419923 -8.32412708 17.67587292 -12 14 C-11.34 14 -10.68 14 -10 14 C-10 13.34 -10 12.68 -10 12 C-9.34 12 -8.68 12 -8 12 C-8 11.34 -8 10.68 -8 10 C-7.34 10 -6.68 10 -6 10 C-5.7525 9.38125 -5.505 8.7625 -5.25 8.125 C-3.79371361 5.64931313 -2.62187494 5.04874998 0 4 C0 2.68 0 1.36 0 0 Z " fill="#5880BC" transform="translate(226,166)"/>
<path d="M0 0 C6.81184542 3.71093072 10.62283779 8.63023212 13.0546875 15.92578125 C13.18250536 18.59973089 13.09860621 21.24673982 13.0546875 23.92578125 C14.1065625 24.01859375 14.1065625 24.01859375 15.1796875 24.11328125 C19.13290054 25.23049363 21.05182039 27.12765508 24.0546875 29.92578125 C25.79984792 33.4161021 24.90100077 37.21354349 24.0546875 40.92578125 C22.23348454 43.74570842 21.04777794 45.42923603 18.0546875 46.92578125 C16.29442308 47.03683041 14.53003139 47.08498174 12.76635742 47.1027832 C11.66148483 47.11561844 10.55661224 47.12845367 9.41825867 47.14167786 C8.21933487 47.14906479 7.02041107 47.15645172 5.78515625 47.1640625 C3.94272087 47.17617012 3.94272087 47.17617012 2.06306458 47.18852234 C-0.5403807 47.20237259 -3.1438442 47.21309052 -5.74731445 47.22094727 C-9.73090971 47.23417616 -13.7138953 47.28204642 -17.69726562 47.32617188 C-20.22395222 47.33629797 -22.75064588 47.34481433 -25.27734375 47.3515625 C-27.06662041 47.37782463 -27.06662041 47.37782463 -28.89204407 47.40461731 C-37.17454288 47.38287238 -37.17454288 47.38287238 -41.15478516 45.02246094 C-43.50116347 42.2748884 -44.84323347 40.38891401 -45.09765625 36.7421875 C-44.68622132 32.42586107 -44.32353186 30.391282 -41.5078125 26.92578125 C-37.45316393 23.76117749 -35.11452544 23.4950135 -29.9453125 23.92578125 C-26.84491707 25.68072206 -24.45705583 27.41403792 -21.9453125 29.92578125 C-17.9853125 25.96578125 -14.0253125 22.00578125 -9.9453125 17.92578125 C-14.67290424 12.25267116 -18.40641895 8.13200422 -25.9453125 6.92578125 C-25.9453125 5.93578125 -25.9453125 4.94578125 -25.9453125 3.92578125 C-18.13456326 -1.85995893 -9.26704064 -3.37988883 0 0 Z " fill="#FDFDFA" transform="translate(209.9453125,177.07421875)"/>
<path d="M0 0 C1.953125 1.52994792 3.90625 3.05989583 5.859375 4.58984375 C7.98570733 5.99058457 9.51819775 6.55441546 12 7 C14.1875 7.4375 14.1875 7.4375 16 8 C16.33 8.66 16.66 9.32 17 10 C19.01669827 11.13350534 19.01669827 11.13350534 21 12 C-8.15482575 31.22021903 -42.44357281 38.88804883 -77.0625 32.4375 C-91.10349865 29.52412121 -104.75989371 24.50909891 -117 17 C-115 16 -115 16 -111.5625 16.5 C-108.04687076 17.26285394 -108.04687076 17.26285394 -105 16 C-105.33 15.01 -105.66 14.02 -106 13 C-105.34 13 -104.68 13 -104 13 C-103.81824219 12.36191406 -103.63648438 11.72382813 -103.44921875 11.06640625 C-103.19785156 10.24011719 -102.94648438 9.41382813 -102.6875 8.5625 C-102.44386719 7.73878906 -102.20023438 6.91507812 -101.94921875 6.06640625 C-101.63597656 5.38449219 -101.32273438 4.70257813 -101 4 C-98 3 -98 3 -95.875 3.625 C-94 5 -94 5 -93.25 7.625 C-93.12625 8.800625 -93.12625 8.800625 -93 10 C-93.99 10.33 -94.98 10.66 -96 11 C-95.67 12.98 -95.34 14.96 -95 17 C-94.34 17 -93.68 17 -93 17 C-92.67 18.65 -92.34 20.3 -92 22 C-90.741875 21.87625 -89.48375 21.7525 -88.1875 21.625 C-87.47980469 21.55539062 -86.77210938 21.48578125 -86.04296875 21.4140625 C-83.70011858 21.07334609 -83.70011858 21.07334609 -81 19 C-80.505 20.485 -80.505 20.485 -80 22 C-79.34 18.7 -78.68 15.4 -78 12 C-74.16380575 11.04095144 -72.67568464 11.08107884 -69 12 C-69 12.66 -69 13.32 -69 14 C-71.31 13.67 -73.62 13.34 -76 13 C-76 14.32 -76 15.64 -76 17 C-75.236875 17.103125 -74.47375 17.20625 -73.6875 17.3125 C-70.82940576 18.04364039 -69.84257115 18.76951913 -68 21 C-67.855625 19.700625 -67.71125 18.40125 -67.5625 17.0625 C-67.125 13.125 -67.125 13.125 -66 12 C-63.32461486 11.95753357 -60.67290614 11.95080541 -58 12 C-57.34 12 -56.68 12 -56 12 C-53.33333333 12 -50.66666667 12 -48 12 C-47.505 13.485 -47.505 13.485 -47 15 C-46.34 15 -45.68 15 -45 15 C-45 14.34 -45 13.68 -45 13 C-42.04335481 11.5216774 -39.25770263 11.93967217 -36 12 C-36 12.99 -36 13.98 -36 15 C-36.495 14.505 -36.495 14.505 -37 14 C-38.66617115 13.95936168 -40.33388095 13.957279 -42 14 C-42.33 15.32 -42.66 16.64 -43 18 C-40.69 18.99 -38.38 19.98 -36 21 C-36.495 22.485 -36.495 22.485 -37 24 C-38.65 23.67 -40.3 23.34 -42 23 C-42.33 23.66 -42.66 24.32 -43 25 C-41.02 25 -39.04 25 -37 25 C-36.814375 23.7934375 -36.814375 23.7934375 -36.625 22.5625 C-36.315625 21.2940625 -36.315625 21.2940625 -36 20 C-35.01 19.505 -35.01 19.505 -34 19 C-33.53476937 17.10466658 -33.53476937 17.10466658 -33.375 14.9375 C-33.189375 12.9884375 -33.189375 12.9884375 -33 11 C-31.02 11 -29.04 11 -27 11 C-26.67 10.34 -26.34 9.68 -26 9 C-21.05 9.495 -21.05 9.495 -16 10 C-15.67 9.01 -15.34 8.02 -15 7 C-11.00544473 7.61454696 -8.25533664 9.70646737 -5 12 C-5.350625 11.4225 -5.70125 10.845 -6.0625 10.25 C-7.14917407 7.64198224 -6.93065133 6.60582371 -6 4 C-5.01 6.97 -5.01 6.97 -4 10 C-3.01 10 -2.02 10 -1 10 C-0.67 6.7 -0.34 3.4 0 0 Z " fill="#EFB820" transform="translate(252,295)"/>
<path d="M0 0 C0.70511719 0.68578125 1.41023438 1.3715625 2.13671875 2.078125 C2.13671875 3.398125 2.13671875 4.718125 2.13671875 6.078125 C-0.30078125 8.203125 -0.30078125 8.203125 -2.86328125 10.078125 C-3.19328125 10.738125 -3.52328125 11.398125 -3.86328125 12.078125 C-4.52328125 12.078125 -5.18328125 12.078125 -5.86328125 12.078125 C-5.86328125 12.738125 -5.86328125 13.398125 -5.86328125 14.078125 C-6.52328125 14.078125 -7.18328125 14.078125 -7.86328125 14.078125 C-7.86328125 14.738125 -7.86328125 15.398125 -7.86328125 16.078125 C-12.45344518 15.31309768 -12.45344518 15.31309768 -14.62109375 14.0703125 C-19.6525285 11.84385879 -25.51605136 12.38496557 -30.86328125 13.078125 C-33.53921469 14.4003045 -35.79861031 15.97002506 -38.234375 17.6875 C-42.4885862 19.93787026 -46.76600938 19.73266973 -51.5 19.8671875 C-56.05230111 20.15269767 -59.64274411 21.40446372 -63.86328125 23.078125 C-61.15848504 12.82837095 -55.56124026 5.18899877 -46.86328125 -0.921875 C-31.56771417 -9.13183958 -14.85675503 -9.97206477 0 0 Z " fill="#E34739" transform="translate(223.86328125,163.921875)"/>
<path d="M0 0 C1.98 0.66 3.96 1.32 6 2 C6.33 3.65 6.66 5.3 7 7 C6.01 7.33 5.02 7.66 4 8 C4.33 9.98 4.66 11.96 5 14 C5.66 14 6.32 14 7 14 C7.33 15.65 7.66 17.3 8 19 C9.258125 18.87625 10.51625 18.7525 11.8125 18.625 C12.52019531 18.55539062 13.22789062 18.48578125 13.95703125 18.4140625 C16.29988142 18.07334609 16.29988142 18.07334609 19 16 C19.495 17.485 19.495 17.485 20 19 C20.66 15.7 21.32 12.4 22 9 C25.83619425 8.04095144 27.32431536 8.08107884 31 9 C31 9.66 31 10.32 31 11 C28.69 10.67 26.38 10.34 24 10 C24 11.32 24 12.64 24 14 C25.1446875 14.1546875 25.1446875 14.1546875 26.3125 14.3125 C29.17059424 15.04364039 30.15742885 15.76951913 32 18 C32.33 15.36 32.66 12.72 33 10 C35.64 10 38.28 10 41 10 C41 10.66 41 11.32 41 12 C39.02 12 37.04 12 35 12 C35 13.32 35 14.64 35 16 C36.65 16 38.3 16 40 16 C40 16.33 40 16.66 40 17 C38.02 17 36.04 17 34 17 C34 18.32 34 19.64 34 21 C35.98 21 37.96 21 40 21 C40 21.66 40 22.32 40 23 C40.66 23 41.32 23 42 23 C42 22.34 42 21.68 42 21 C45.05263664 20.01879536 46.94736336 20.01879536 50 21 C50 20.34 50 19.68 50 19 C48.02 18.01 46.04 17.02 44 16 C44.33 14.35 44.66 12.7 45 11 C46.98 11 48.96 11 51 11 C51 11.99 51 12.98 51 14 C49.68 13.67 48.36 13.34 47 13 C47 13.66 47 14.32 47 15 C47.804375 15.2475 48.60875 15.495 49.4375 15.75 C50.283125 16.1625 51.12875 16.575 52 17 C52.495 18.98 52.495 18.98 53 21 C51.35 23.64 49.7 26.28 48 29 C54.93 29 61.86 29 69 29 C69 29.33 69 29.66 69 30 C39.99373418 35.20083192 8.11495584 29.40760212 -17 14 C-15 13 -15 13 -11.5625 13.5 C-8.04687076 14.26285394 -8.04687076 14.26285394 -5 13 C-5.33 12.01 -5.66 11.02 -6 10 C-5.34 10 -4.68 10 -4 10 C-3.79503906 9.36191406 -3.59007812 8.72382813 -3.37890625 8.06640625 C-3.10949219 7.24011719 -2.84007812 6.41382813 -2.5625 5.5625 C-2.16224609 4.32693359 -2.16224609 4.32693359 -1.75390625 3.06640625 C-1 1 -1 1 0 0 Z " fill="#EAB625" transform="translate(152,298)"/>
<path d="M0 0 C0 5.94 0 11.88 0 18 C-4.09009745 18.09260598 -8.17747303 18.17199502 -12.26806641 18.21972656 C-13.65491156 18.23965342 -15.04167482 18.2668056 -16.42822266 18.30175781 C-25.02656554 18.51283627 -32.25398064 18.09580875 -40 14 C-40 8.78889641 -38.3724602 6.52387418 -34.97338867 2.66870117 C-26.49677753 -4.89641856 -10.429943 -1.06009257 0 0 Z " fill="#36A552" transform="translate(200,225)"/>
<path d="M0 0 C1.953125 1.52994792 3.90625 3.05989583 5.859375 4.58984375 C7.98570733 5.99058457 9.51819775 6.55441546 12 7 C14.1875 7.4375 14.1875 7.4375 16 8 C16.33 8.66 16.66 9.32 17 10 C19.01669827 11.13350534 19.01669827 11.13350534 21 12 C12.75143661 17.31904087 4.32070052 22.75270055 -5 26 C-5.99 25.67 -6.98 25.34 -8 25 C-7.01 24.34 -6.02 23.68 -5 23 C-4.27034634 20.43717258 -4.27034634 20.43717258 -4 18 C-4.99 17.34 -5.98 16.68 -7 16 C-7.33 17.32 -7.66 18.64 -8 20 C-9.32 19.67 -10.64 19.34 -12 19 C-12.13277344 18.38511719 -12.26554688 17.77023437 -12.40234375 17.13671875 C-12.57894531 16.32847656 -12.75554687 15.52023437 -12.9375 14.6875 C-13.11152344 13.88699219 -13.28554687 13.08648437 -13.46484375 12.26171875 C-13.99886159 9.854599 -13.99886159 9.854599 -15 7 C-11.00544473 7.61454696 -8.25533664 9.70646737 -5 12 C-5.350625 11.4225 -5.70125 10.845 -6.0625 10.25 C-7.14917407 7.64198224 -6.93065133 6.60582371 -6 4 C-5.34 5.98 -4.68 7.96 -4 10 C-3.01 10 -2.02 10 -1 10 C-0.67 6.7 -0.34 3.4 0 0 Z " fill="#EDB721" transform="translate(252,295)"/>
<path d="M0 0 C1.9375 1.0625 1.9375 1.0625 3 3 C4.13071827 7.69682975 4.22597431 10.67899104 2 15 C2.598125 14.67 3.19625 14.34 3.8125 14 C6 13 6 13 9 13 C7.52841629 16.61497739 5.58537669 18.40591511 2.5 20.75 C1.7059375 21.36359375 0.911875 21.9771875 0.09375 22.609375 C-2 24 -2 24 -4 24 C-3.01 25.6396875 -3.01 25.6396875 -2 27.3125 C-0.41535071 29.93707538 0 30.8256378 0 34 C-3.28788824 30.88983545 -5.83735988 27.98381075 -8 24 C-2.25 19 -2.25 19 0 19 C0 18.34 0 17.68 0 17 C-3.0786541 16.92840339 -5.60935543 16.87613709 -8.5625 17.8125 C-11 18 -11 18 -13.8125 15.9375 C-16 13 -16 13 -16.625 10 C-14.92149478 1.82317492 -7.47300086 -0.96727777 0 0 Z " fill="#3A4B52" transform="translate(68,272)"/>
<path d="M0 0 C1 3 1 3 -0.4375 6.1875 C-1.2109375 7.5796875 -1.2109375 7.5796875 -2 9 C-1.67 9.33 -1.34 9.66 -1 10 C-0.34 9.01 0.32 8.02 1 7 C2.32 7.33 3.64 7.66 5 8 C3.82744291 11.33727786 2.81131596 13.77437487 0 16 C-0.66 16 -1.32 16 -2 16 C-2.33 16.99 -2.66 17.98 -3 19 C-3.556875 19.12375 -4.11375 19.2475 -4.6875 19.375 C-7.2293782 20.06199411 -8.14043927 20.8846266 -10.0625 22.625 C-11.031875 23.40875 -12.00125 24.1925 -13 25 C-13.99 24.67 -14.98 24.34 -16 24 C-15.67 23.071875 -15.34 22.14375 -15 21.1875 C-13.85032996 18.07970709 -13.85032996 18.07970709 -14 15 C-14.66 14.34 -15.32 13.68 -16 13 C-17.32 14.32 -18.64 15.64 -20 17 C-20.99 16.67 -21.98 16.34 -23 16 C-21.61211066 12.81273653 -20.00538267 10.88378016 -17.4375 8.5625 C-14.61940633 5.84964634 -13.12356529 4.0776547 -13 0 C-12.01 0.33 -11.02 0.66 -10 1 C-6.1496895 -1.56687367 -4.41430237 -0.83288724 0 0 Z " fill="#414D52" transform="translate(326,82)"/>
<path d="M0 0 C4.24708346 1.55792547 6.56584427 4.72696783 9.25 8.1875 C9.70890625 8.73986328 10.1678125 9.29222656 10.640625 9.86132812 C13.08164961 12.98889091 13.9615613 14.69313106 14.46875 18.7421875 C14 22 14 22 12.828125 23.77734375 C9.50269535 26.22202842 8.24534274 27 4 27 C4 26.01 4 25.02 4 24 C5.98 23.34 7.96 22.68 10 22 C10 20.02 10 18.04 10 16 C9.29875 16.825 8.5975 17.65 7.875 18.5 C5 21 5 21 2 21.625 C-3.0506111 20.57278935 -5.24501846 17.13247231 -8 13 C-8.55335968 6.80237154 -8.55335968 6.80237154 -6.75 4.1875 C-4.89830833 2.93099494 -3.02638399 1.94564586 -1 1 C-0.67 0.67 -0.34 0.34 0 0 Z " fill="#F1F7F8" transform="translate(99,69)"/>
<path d="M0 0 C2.9375 2.3125 2.9375 2.3125 5 5 C5 5.99 5 6.98 5 8 C6.3921875 7.2265625 6.3921875 7.2265625 7.8125 6.4375 C11 5 11 5 14 6 C14 6.66 14 7.32 14 8 C10.56778191 9.84335203 7.12840873 11.67292909 3.6875 13.5 C2.71103516 14.02464844 1.73457031 14.54929688 0.72851562 15.08984375 C-0.20927734 15.58613281 -1.14707031 16.08242187 -2.11328125 16.59375 C-2.97735596 17.05458984 -3.84143066 17.51542969 -4.73168945 17.99023438 C-7 19 -7 19 -10 19 C-12.18971955 15.57856321 -13.79702462 12.90416306 -14.6875 8.9375 C-13.78271069 5.07158202 -12.10960043 3.52242639 -9.00390625 1.14453125 C-5.76746891 -0.70396025 -3.61310211 -0.73600228 0 0 Z " fill="#EBF2F3" transform="translate(341,119)"/>
<path d="M0 0 C0.99 0.33 1.98 0.66 3 1 C2.39214597 9.73390265 1.31858334 18.3459967 0 27 C-0.58652344 26.83242188 -1.17304688 26.66484375 -1.77734375 26.4921875 C-4.20088032 25.8582454 -4.20088032 25.8582454 -7.5625 26.125 C-11 26 -11 26 -12.65625 24.76171875 C-15.09525465 21.56407021 -15.24762748 17.92857653 -15 14 C-13.5111211 11.22075938 -12.21243017 9.21243017 -10 7 C-4.47058824 6.76470588 -4.47058824 6.76470588 -2 8 C-1.34 5.36 -0.68 2.72 0 0 Z " fill="#EEF3F5" transform="translate(228,30)"/>
<path d="M0 0 C1.125 3.75 1.125 3.75 0 6 C1.32 6 2.64 6 4 6 C5.875 8.1875 5.875 8.1875 7 11 C6.34589287 14.05249994 5.40929009 15.57609241 3.25 17.8125 C0.22105071 19.41111212 -1.61402051 19.48371136 -5 19 C-9.24679343 16.43217142 -11.21715568 13.59786167 -13 9 C-13.5625 6.4375 -13.5625 6.4375 -13 4 C-8.70248418 -0.82160311 -6.48883139 -1.68709616 0 0 Z " fill="#3B4C53" transform="translate(284,328)"/>
<path d="M0 0 C3.77951359 1.58092495 6.11924093 4.25376233 8.0078125 7.83984375 C8.15499778 11.59306839 7.51659496 13.14262334 5.3203125 16.15234375 C2.38173933 18.29670796 0.65400144 18.83984375 -2.9921875 18.83984375 C-6.69211027 16.84757764 -8.65553711 15.34481934 -10.9921875 11.83984375 C-11.55542453 7.49487235 -11.44612691 5.52075286 -8.9921875 1.83984375 C-5.74370714 -0.32580982 -3.85663918 -0.76986143 0 0 Z " fill="#E9EEF1" transform="translate(86.9921875,85.16015625)"/>
<path d="M0 0 C2.62941545 2.62941545 3.87338559 4.5064667 4.19140625 8.2578125 C3.97204438 12.28609411 3.44721855 14.44755356 0.875 17.625 C-2.97325296 19.46546881 -4.94711542 19.25270978 -9 18 C-11.66850202 15.81045988 -12.78757527 14.22855954 -13.37890625 10.80859375 C-13.58052364 6.86079511 -13.54161396 4.72215194 -11.125 1.5 C-7.06901148 -1.36305072 -4.86751035 -1.25883888 0 0 Z " fill="#EDF2F3" transform="translate(186,37)"/>
<path d="M0 0 C4.25270744 0.87792635 6.51840003 2.48015005 9 6.125 C9.87513358 10.02825065 9.59473883 13.13376862 7.5 16.625 C4.02870362 18.70777783 0.89095441 18.91245506 -3 18.125 C-5.8100346 16.33136089 -7.50940468 15.10619065 -9 12.125 C-9.48846856 7.81019437 -9.43801339 5.78202008 -7 2.125 C-3.98562562 0.11541708 -3.39006391 -0.21829957 0 0 Z " fill="#ECF2F4" transform="translate(72,100.875)"/>
<path d="M0 0 C4.40339556 0.74621301 6.82368382 1.73545282 10 5 C11.19062239 8.08161088 11.36579944 9.96260052 10.26171875 13.09375 C8.52010085 16.80561517 7.49314208 18.67123861 4 21 C-0.85515649 21.53946183 -3.80058648 20.39966487 -8 18 C-6.65150163 13.64029169 -4.95092154 9.68658562 -2.875 5.625 C-2.33617187 4.56539063 -1.79734375 3.50578125 -1.2421875 2.4140625 C-0.83226562 1.61742187 -0.42234375 0.82078125 0 0 Z " fill="#A0B1B9" transform="translate(131,333)"/>
<path d="M0 0 C3.91441027 1.30480342 6.53969951 2.62847711 9 6 C9.64385355 10.34601146 9.30481265 12.4429286 7.1875 16.3125 C4.69208932 19.37829026 3.15317984 20.84624269 -0.8125 21.375 C-4.76038325 20.91054315 -6.87355474 19.38205353 -10 17 C-8.57394582 13.07297642 -6.70550338 9.75380481 -4.4375 6.25 C-3.81746094 5.28578125 -3.19742188 4.3215625 -2.55859375 3.328125 C-1 1 -1 1 0 0 Z " fill="#A5B6BE" transform="translate(110,320)"/>
<path d="M0 0 C6 0 12 0 18 0 C18.33 0.99 18.66 1.98 19 3 C19.66 3 20.32 3 21 3 C21 2.34 21 1.68 21 1 C23.95664519 -0.4783226 26.74229737 -0.06032783 30 0 C30 0.99 30 1.98 30 3 C29.67 2.67 29.34 2.34 29 2 C27.33382885 1.95936168 25.66611905 1.957279 24 2 C23.67 3.32 23.34 4.64 23 6 C26.465 7.485 26.465 7.485 30 9 C29.67 9.99 29.34 10.98 29 12 C26.525 11.505 26.525 11.505 24 11 C23.67 11.66 23.34 12.32 23 13 C23.66 13.33 24.32 13.66 25 14 C24.195625 13.979375 23.39125 13.95875 22.5625 13.9375 C20.06645115 13.70366379 20.06645115 13.70366379 19 15 C17.00041636 15.04080783 14.99954746 15.04254356 13 15 C13 14.67 13 14.34 13 14 C14.65 14 16.3 14 18 14 C18 12.02 18 10.04 18 8 C15.525 7.505 15.525 7.505 13 7 C13 5.68 13 4.36 13 3 C14.32 3.33 15.64 3.66 17 4 C17 3.67 17 3.34 17 3 C15.02 3 13.04 3 11 3 C11 4.32 11 5.64 11 7 C12.98 7.99 14.96 8.98 17 10 C16.67 10.99 16.34 11.98 16 13 C13.36 12.67 10.72 12.34 8 12 C8 12.66 8 13.32 8 14 C7.34 14 6.68 14 6 14 C6 13.34 6 12.68 6 12 C4.02 12 2.04 12 0 12 C0.33 9.03 0.66 6.06 1 3 C2.98 3 4.96 3 7 3 C7 2.34 7 1.68 7 1 C4.69 1 2.38 1 0 1 C0 0.67 0 0.34 0 0 Z " fill="#E7B62B" transform="translate(186,307)"/>
<path d="M0 0 C0.99 0.33 1.98 0.66 3 1 C2.67 2.65 2.34 4.3 2 6 C2.66 6.33 3.32 6.66 4 7 C4 7.66 4 8.32 4 9 C4.66 9 5.32 9 6 9 C6 9.66 6 10.32 6 11 C6.99 11.33 7.98 11.66 9 12 C7.38462556 15.89917968 4.72075127 18.71293772 1.875 21.75 C1.40707031 22.25660156 0.93914062 22.76320313 0.45703125 23.28515625 C-0.69126541 24.52719141 -1.84508672 25.76411494 -3 27 C-3.66 26.67 -4.32 26.34 -5 26 C-4.45032426 22.15226983 -2.67967752 20.67967752 0 18 C0 17.01 0 16.02 0 15 C-0.99 14.67 -1.98 14.34 -3 14 C-3.99 14.495 -3.99 14.495 -5 15 C-5.73075648 17.3140622 -6.40138258 19.64828869 -7 22 C-8.32 21.67 -9.64 21.34 -11 21 C-11.71875 18.78125 -11.71875 18.78125 -12 16 C-10.38424282 13.49041969 -8.4817192 11.48003174 -6.46875 9.28125 C-4.70229112 7.05816622 -4.70229112 7.05816622 -5.28125 4.21875 C-5.5184375 3.4865625 -5.755625 2.754375 -6 2 C-4.33333333 2 -2.66666667 2 -1 2 C-0.67 1.34 -0.34 0.68 0 0 Z " fill="#445157" transform="translate(301,66)"/>
<path d="M0 0 C1.051875 0.12375 2.10375 0.2475 3.1875 0.375 C2.8575 1.365 2.5275 2.355 2.1875 3.375 C-0.8125 4.5 -0.8125 4.5 -3.8125 5.375 C-5.11573831 6.47575495 -5.11573831 6.47575495 -5.1875 9.1875 C-5.12877677 12.52345644 -5.12877677 12.52345644 -2.5625 14.625 C-1.655 15.2025 -0.7475 15.78 0.1875 16.375 C1.115625 17.0246875 1.115625 17.0246875 2.0625 17.6875 C5.24959907 18.71862029 7.95254671 17.9971064 11.1875 17.375 C12.1775 14.735 13.1675 12.095 14.1875 9.375 C12.2075 8.715 10.2275 8.055 8.1875 7.375 C7.5275 9.025 6.8675 10.675 6.1875 12.375 C5.5275 12.045 4.8675 11.715 4.1875 11.375 C6.0625 5.625 6.0625 5.625 7.1875 3.375 C11.56754013 3.87557601 14.26217815 5.01948376 17.1875 8.375 C17.26323919 13.14656914 16.86974606 15.34062694 14.25 19.3125 C11.6440476 21.9184524 10.75523812 22.31822619 7.0625 22.6875 C1.12626657 22.2087715 -2.96262643 20.08613305 -7.3125 16.0625 C-9.3142661 12.4760024 -9.45262487 10.4291242 -8.8125 6.375 C-6.75219055 2.21791545 -4.74997635 0.46721079 0 0 Z " fill="#ECF4F5" transform="translate(53.8125,116.625)"/>
<path d="M0 0 C2.40234375 0.31640625 2.40234375 0.31640625 4.21484375 1.56640625 C5.40234375 3.31640625 5.40234375 3.31640625 5.40234375 7.31640625 C8.70234375 7.31640625 12.00234375 7.31640625 15.40234375 7.31640625 C15.07234375 8.30640625 14.74234375 9.29640625 14.40234375 10.31640625 C11.10234375 10.64640625 7.80234375 10.97640625 4.40234375 11.31640625 C4.07234375 12.30640625 3.74234375 13.29640625 3.40234375 14.31640625 C4.22734375 14.74953125 5.05234375 15.18265625 5.90234375 15.62890625 C6.72734375 16.18578125 7.55234375 16.74265625 8.40234375 17.31640625 C8.40234375 18.30640625 8.40234375 19.29640625 8.40234375 20.31640625 C4.51981944 18.89234168 1.15194634 17.07798085 -2.34765625 14.87890625 C-3.311875 14.28207031 -4.27609375 13.68523437 -5.26953125 13.0703125 C-7.59765625 11.31640625 -7.59765625 11.31640625 -8.59765625 8.31640625 C-7.55859375 6.2734375 -7.55859375 6.2734375 -5.97265625 4.12890625 C-5.46476562 3.41347656 -4.956875 2.69804687 -4.43359375 1.9609375 C-2.59765625 0.31640625 -2.59765625 0.31640625 0 0 Z " fill="#A4B5BC" transform="translate(334.59765625,272.68359375)"/>
<path d="M0 0 C3.9661411 0.82627939 5.48622355 2.51974674 8 5.625 C8 6.285 8 6.945 8 7.625 C5.8125 9.1328125 5.8125 9.1328125 3 10.75 C2.071875 11.28882812 1.14375 11.82765625 0.1875 12.3828125 C-0.534375 12.79273437 -1.25625 13.20265625 -2 13.625 C0.75698184 15.90638945 0.75698184 15.90638945 3.5625 15.4375 C6.33255117 14.79127558 6.33255117 14.79127558 8 11.625 C8.66 11.625 9.32 11.625 10 11.625 C9.73136414 14.93817555 9.40940132 16.26376354 6.875 18.5 C3.06191664 19.9920761 0.91673328 19.76441332 -3 18.625 C-6.60533367 15.49405234 -7.85614307 12.21920136 -8.2265625 7.5625 C-8 5.625 -8 5.625 -5.9375 2.625 C-3 0.625 -3 0.625 0 0 Z " fill="#F0F4F6" transform="translate(123,54.375)"/>
<path d="M0 0 C3.9375 0.625 3.9375 0.625 6.4375 2.25 C8.35859443 5.29173285 8.38935216 7.08549143 7.9375 10.625 C6.9475 12.11 6.9475 12.11 5.9375 13.625 C1.70320244 12.31438409 -2.13657404 10.68143741 -6.0625 8.625 C-5.7325 10.935 -5.4025 13.245 -5.0625 15.625 C-2.4225 15.955 0.2175 16.285 2.9375 16.625 C2.9375 17.285 2.9375 17.945 2.9375 18.625 C-0.66343965 19.54617061 -2.44877771 19.91140374 -5.875 18.3125 C-8.0625 16.625 -8.0625 16.625 -9.0625 14.625 C-9.51519417 10.09805825 -9.75511379 6.91995904 -7.0625 3.125 C-3.55147796 0.1991483 -3.55147796 0.1991483 0 0 Z " fill="#EBF1F2" transform="translate(272.0625,53.375)"/>
<path d="M0 0 C2.73080856 2.38945749 3.76900145 3.97333979 4.5625 7.5 C3.75849765 11.07334379 1.69942727 12.63800114 -1 15 C-4 12 -7 9 -10 6 C-10.33 7.98 -10.66 9.96 -11 12 C-9.7625 12.6496875 -9.7625 12.6496875 -8.5 13.3125 C-7.675 13.869375 -6.85 14.42625 -6 15 C-6 15.99 -6 16.98 -6 18 C-8.57531492 17.65198447 -10.54832896 17.29035995 -12.75 15.875 C-14.75729824 12.86405264 -15 10.59906257 -15 7 C-11.53512806 0.85087944 -6.9245973 -1.21796277 0 0 Z " fill="#F1F9FA" transform="translate(332,103)"/>
<path d="M0 0 C10.46606289 -0.36939045 10.46606289 -0.36939045 12.86328125 1.2890625 C14 3 14 3 13.875 6.5625 C13 10 13 10 10 12 C7.66800612 12.07905064 5.33167378 12.08798769 3 12 C3 14.64 3 17.28 3 20 C2.01 20 1.02 20 0 20 C0 13.4 0 6.8 0 0 Z " fill="#A3B4BC" transform="translate(198,349)"/>
<path d="M0 0 C3.49644963 -0.31785906 5.397402 -0.39644605 8.375 1.5625 C10.57846465 4.86769698 10.43244601 7.10798594 10 11 C9.34 11.66 8.68 12.32 8 13 C5.27130593 12.96712417 2.7033382 12.43602229 0 12 C-0.33 13.32 -0.66 14.64 -1 16 C-1.99 15.67 -2.98 15.34 -4 15 C-5.48882438 10.92532275 -6.26270217 7.33458585 -6 3 C-5.195625 2.87625 -4.39125 2.7525 -3.5625 2.625 C-2.716875 2.41875 -1.87125 2.2125 -1 2 C-0.67 1.34 -0.34 0.68 0 0 Z " fill="#6E5A10" transform="translate(226,304)"/>
<path d="M0 0 C2.9375 1.5625 2.9375 1.5625 5 4 C5.8125 7.75 5.8125 7.75 6 11 C4.125 10.875 4.125 10.875 2 10 C0.75 6.9375 0.75 6.9375 0 4 C-2.95455222 3.09722016 -4.38387578 2.68313611 -7.1875 4.125 C-10.80434474 7.86656353 -11.11074874 11.26755491 -11.125 16.3125 C-11.09306101 17.87522911 -11.05459773 19.43789839 -11 21 C-6.9899066 21.17864631 -6.9899066 21.17864631 -3 21 C-2.34 20.34 -1.68 19.68 -1 19 C-0.01 19 0.98 19 2 19 C1.6875 20.875 1.6875 20.875 1 23 C-2.72579089 25.48386059 -4.58711402 25.3804212 -9 25 C-11.85746217 23.73001681 -13.48137263 22.7161997 -15.3125 20.1875 C-17.28212341 13.92051642 -15.21149551 9.77053164 -12.38671875 4.171875 C-9.35311616 -0.57934483 -5.17944964 -0.79761505 0 0 Z " fill="#E7EEF0" transform="translate(258,39)"/>
<path d="M0 0 C1.9375 1.5625 1.9375 1.5625 3 3 C2.67 3.99 2.34 4.98 2 6 C1.443125 5.690625 0.88625 5.38125 0.3125 5.0625 C-2.25474537 3.88295483 -4.1658472 3.14170764 -7 3 C-9.54002013 4.37283423 -9.54002013 4.37283423 -11 7 C-10.90789053 11.97391145 -9.64912611 17.35087389 -6 21 C-3.04182893 21.25005386 -3.04182893 21.25005386 0 21 C2.22189824 18.77810176 2.92598892 16.91517292 4 14 C4.66 14 5.32 14 6 14 C6.49046322 19.39509537 6.49046322 19.39509537 4.125 22.3125 C0.36313499 25.29986339 -2.19837324 25.48830103 -7 25 C-12.59226331 20.93289941 -14.44542637 15.46608516 -15.5 8.875 C-14.7712096 4.68445522 -13.0013265 3.0013265 -10 0 C-6.22941703 -1.25686099 -3.86146303 -0.82745636 0 0 Z " fill="#EEF4F6" transform="translate(155,37)"/>
<path d="M0 0 C0.66 0.33 1.32 0.66 2 1 C2.625 3.5625 2.625 3.5625 3 6 C3.99 6 4.98 6 6 6 C6 4.35 6 2.7 6 1 C7.73662334 4.22515763 8.8905928 7.51329166 10 11 C9.360625 11.433125 8.72125 11.86625 8.0625 12.3125 C5.73253997 13.91239177 5.73253997 13.91239177 5 17 C8.96 16.505 8.96 16.505 13 16 C9.63263969 18.82858266 6.12548042 20.4998253 2 22 C1.01 21.67 0.02 21.34 -1 21 C-0.01 20.34 0.98 19.68 2 19 C2.72965366 16.43717258 2.72965366 16.43717258 3 14 C2.01 13.34 1.02 12.68 0 12 C-0.33 13.32 -0.66 14.64 -1 16 C-2.32 15.67 -3.64 15.34 -5 15 C-5.13277344 14.38511719 -5.26554688 13.77023437 -5.40234375 13.13671875 C-5.57894531 12.32847656 -5.75554687 11.52023437 -5.9375 10.6875 C-6.11152344 9.88699219 -6.28554687 9.08648437 -6.46484375 8.26171875 C-6.99886159 5.854599 -6.99886159 5.854599 -8 3 C-4.00544473 3.61454696 -1.25533664 5.70646737 2 8 C1.67 7.4225 1.34 6.845 1 6.25 C0 4 0 4 0 0 Z " fill="#E2B52E" transform="translate(245,299)"/>
<path d="M0 0 C0.66 0 1.32 0 2 0 C3.1734316 2.60130627 4.33892508 5.20568508 5.5 7.8125 C5.83386719 8.55048828 6.16773438 9.28847656 6.51171875 10.04882812 C6.82753906 10.76103516 7.14335937 11.47324219 7.46875 12.20703125 C7.90864258 13.18893433 7.90864258 13.18893433 8.35742188 14.19067383 C9 16 9 16 9 19 C4.65136348 18.43555175 1.82172345 16.84572036 -1.8125 14.4375 C-2.78832031 13.79683594 -3.76414062 13.15617187 -4.76953125 12.49609375 C-5.50558594 12.00238281 -6.24164063 11.50867188 -7 11 C-6.71125 11.60328125 -6.4225 12.2065625 -6.125 12.828125 C-5.75375 13.62734375 -5.3825 14.4265625 -5 15.25 C-4.62875 16.03890625 -4.2575 16.8278125 -3.875 17.640625 C-3 20 -3 20 -3 24 C-3.99 23.67 -4.98 23.34 -6 23 C-7.20718817 20.5386285 -8.22605697 18.17935235 -9.1875 15.625 C-9.46013672 14.93921875 -9.73277344 14.2534375 -10.01367188 13.546875 C-11.17139955 10.56405784 -12 8.22557496 -12 5 C-7.7170548 5.5479083 -5.14864359 7.02432804 -1.6875 9.5625 C-0.80449219 10.20316406 0.07851563 10.84382813 0.98828125 11.50390625 C1.65214844 11.99761719 2.31601562 12.49132812 3 13 C2.79503906 12.38511719 2.59007812 11.77023437 2.37890625 11.13671875 C1.25260417 7.7578125 0.12630208 4.37890625 -1 1 C-0.67 0.67 -0.34 0.34 0 0 Z " fill="#A4B4BC" transform="translate(264,334)"/>
<path d="M0 0 C0.66 0 1.32 0 2 0 C3.56668459 1.66898675 5.055181 3.41196756 6.5 5.1875 C7.2940625 6.15042969 8.088125 7.11335938 8.90625 8.10546875 C10.80058529 10.7243166 11.97595287 12.95568596 13 16 C9.1280483 17.29065057 6.55767399 16.22324098 2.8125 15.0625 C2.15830078 14.86720703 1.50410156 14.67191406 0.83007812 14.47070312 C-0.78227407 13.98817437 -2.39146289 13.49509795 -4 13 C-1.36 16.3 1.28 19.6 4 23 C3.01 23.66 2.02 24.32 1 25 C-0.44163007 23.27427512 -1.87813165 21.5442653 -3.3125 19.8125 C-4.11300781 18.84957031 -4.91351563 17.88664062 -5.73828125 16.89453125 C-7.73111988 14.34411083 -9.41061246 11.81357599 -11 9 C-6.93714243 7.36870113 -3.79897816 8.70031223 0.25 9.9375 C1.51328125 10.31777344 2.7765625 10.69804687 4.078125 11.08984375 C5.04234375 11.39019531 6.0065625 11.69054687 7 12 C4.36 8.7 1.72 5.4 -1 2 C-0.67 1.34 -0.34 0.68 0 0 Z " fill="#A3B4BC" transform="translate(302,309)"/>
<path d="M0 0 C2.68001095 1.90421831 3.73156609 3.36246947 5 6.375 C5 10.25327556 3.40419005 12.02639651 1 15 C-1.70427712 17.70427712 -3.23162525 18.85592973 -7 19.5625 C-11.10389613 18.79301948 -12.53959272 17.32878632 -15 14 C-15.6875 11.125 -15.6875 11.125 -15 8 C-10.80105894 1.78454622 -7.73286092 -0.66662594 0 0 Z M-10.57421875 6.2734375 C-12.28638684 8.0561469 -12.28638684 8.0561469 -12.5625 11.25 C-12.23633324 14.13104112 -12.23633324 14.13104112 -10 16 C-5.68736673 15.91862956 -3.51163483 15.39189051 -0.0625 12.75 C2.16001983 10.2065055 2.16001983 10.2065055 2.5 7.375 C1.91098837 4.57719477 1.35997801 3.60141365 -1 2 C-5.87692991 2 -7.10168164 3.13551317 -10.57421875 6.2734375 Z " fill="#9FB0B8" transform="translate(87,298)"/>
<path d="M0 0 C0 0.99 0 1.98 0 3 C-0.928125 2.79375 -1.85625 2.5875 -2.8125 2.375 C-6.15173402 1.63307034 -6.15173402 1.63307034 -9 4 C-8.74969935 8.25511108 -8.33790677 10.54945765 -5.75 14 C-3.18553619 16.31401566 -3.18553619 16.31401566 -0.1875 15.8125 C0.534375 15.544375 1.25625 15.27625 2 15 C2.33 14.01 2.66 13.02 3 12 C2.67 11.34 2.34 10.68 2 10 C0.35 10.33 -1.3 10.66 -3 11 C-2.3125 9.0625 -2.3125 9.0625 -1 7 C1.625 6.25 1.625 6.25 4 6 C5.625 8.1875 5.625 8.1875 7 11 C6.34589287 14.05249994 5.40929009 15.57609241 3.25 17.8125 C0.22105071 19.41111212 -1.61402051 19.48371136 -5 19 C-9.24679343 16.43217142 -11.21715568 13.59786167 -13 9 C-13.5625 6.4375 -13.5625 6.4375 -13 4 C-8.70248418 -0.82160311 -6.48883139 -1.68709616 0 0 Z " fill="#A3B4BB" transform="translate(284,328)"/>
<path d="M0 0 C0.99 0 1.98 0 3 0 C3.06058594 0.99902344 3.12117187 1.99804688 3.18359375 3.02734375 C3.26738281 4.31769531 3.35117188 5.60804687 3.4375 6.9375 C3.51871094 8.22527344 3.59992188 9.51304688 3.68359375 10.83984375 C3.64919188 13.86023957 3.64919188 13.86023957 5 15 C7.5 15.16666667 7.5 15.16666667 10 15 C11.94090826 13.05909174 11.39919435 9.52706098 11.5625 6.9375 C11.64628906 5.64714844 11.73007813 4.35679688 11.81640625 3.02734375 C11.87699219 2.02832031 11.93757812 1.02929688 12 0 C12.99 0 13.98 0 15 0 C15 6.27 15 12.54 15 19 C13.68 18.67 12.36 18.34 11 18 C9.2675 18.3403125 9.2675 18.3403125 7.5 18.6875 C4 19 4 19 1.796875 17.50390625 C-0.62435669 14.12997252 -0.44571109 11.23196795 -0.25 7.25 C-0.23195312 6.55261719 -0.21390625 5.85523438 -0.1953125 5.13671875 C-0.14838554 3.42388461 -0.07664605 1.71176176 0 0 Z " fill="#E9EEF1" transform="translate(194,36)"/>
<path d="M0 0 C5 3 5 3 6.0625 5.3125 C5.97300139 9.1609401 4.36695146 11.04131067 2 14 C-1 16 -1 16 -3.5625 15.8125 C-6 15 -6 15 -8 12 C-5.36 8.04 -2.72 4.08 0 0 Z " fill="#3B4D53" transform="translate(111,323)"/>
<path d="M0 0 C2.4375 1.3125 2.4375 1.3125 4 4 C4.76844855 9.14939748 4.746574 13.47698905 2.4375 18.1875 C-0.91208495 20.67821701 -2.91701013 20.58328427 -7 20 C-10.1850357 18.23984869 -10.83296972 17.50109084 -12 14 C-12.39527019 8.76266997 -11.77531183 5.48319603 -9 1 C-5.90826248 -0.54586876 -3.40570448 -0.29359521 0 0 Z M-7.8125 3.4375 C-9.54211675 7.16983089 -9.75976917 10.9553465 -9 15 C-7.75981779 16.83431045 -7.75981779 16.83431045 -6 18 C-2.90351124 18.16448881 -2.90351124 18.16448881 0 17 C2.2156198 13.47515031 2.43522057 10.09107332 2 6 C0.96057155 3.55754253 0.96057155 3.55754253 -1 2 C-4.06862112 1.38627578 -5.34627516 1.48152857 -7.8125 3.4375 Z " fill="#A6B7BF" transform="translate(189,348)"/>
<path d="M0 0 C4.75 0.75 4.75 0.75 7 3 C7.52271411 6.83323681 7.07335904 8.84154448 5.4375 12.375 C3 15 3 15 -0.75 15.375 C-1.8225 15.25125 -2.895 15.1275 -4 15 C-5.11346788 12.19966161 -5.03510273 11.09856297 -4.00390625 8.203125 C-3.52824219 7.22859375 -3.05257812 6.2540625 -2.5625 5.25 C-2.08941406 4.26515625 -1.61632812 3.2803125 -1.12890625 2.265625 C-0.75636719 1.51796875 -0.38382813 0.7703125 0 0 Z " fill="#3A4B52" transform="translate(132,336)"/>
<path d="M0 0 C4.22184381 0.07818229 6.32592467 0.3933322 9.5 3.25 C11 6 11 6 10.9375 8.6875 C10 11 10 11 7 13 C3.45892439 12.90920319 2.24682592 12.24015495 -0.3125 9.75 C-2.13848873 6.77431467 -2.55363488 5.41408177 -2 2 C-1.34 1.34 -0.68 0.68 0 0 Z " fill="#425154" transform="translate(81,88)"/>
<path d="M0 0 C3 0.125 3 0.125 6 1 C7.4375 2.625 7.4375 2.625 8 5 C7.55555556 11.44444444 7.55555556 11.44444444 5 14 C2.5625 14.4375 2.5625 14.4375 0 14 C-1.875 11.9375 -1.875 11.9375 -3 9 C-2.67857143 2.67857143 -2.67857143 2.67857143 0 0 Z " fill="#3E4E55" transform="translate(179,39)"/>
<path d="M0 0 C-3.44450737 2.29633824 -5.93812283 2.54016485 -10 3 C-9.34 4.65 -8.68 6.3 -8 8 C-3.545 7.505 -3.545 7.505 1 7 C1 7.99 1 8.98 1 10 C-1.64 10.33 -4.28 10.66 -7 11 C-6.67 13.31 -6.34 15.62 -6 18 C-2.7 17.34 0.6 16.68 4 16 C4.33 16.66 4.66 17.32 5 18 C3.58603098 18.50757862 2.16868271 19.00574925 0.75 19.5 C-0.03890625 19.7784375 -0.8278125 20.056875 -1.640625 20.34375 C-4 21 -4 21 -8 21 C-8.83661862 18.2092793 -9.66942737 15.41751988 -10.5 12.625 C-10.73847656 11.8309375 -10.97695312 11.036875 -11.22265625 10.21875 C-11.44824219 9.45820313 -11.67382812 8.69765625 -11.90625 7.9140625 C-12.11572266 7.2123291 -12.32519531 6.5105957 -12.54101562 5.78759766 C-13 4 -13 4 -13 2 C-11.5882217 1.46605821 -10.17029756 0.94834896 -8.75 0.4375 C-7.96109375 0.14746094 -7.1721875 -0.14257812 -6.359375 -0.44140625 C-3.80896548 -1.04522837 -2.44677771 -0.8473932 0 0 Z " fill="#A0B1B9" transform="translate(250,342)"/>
<path d="M0 0 C1.9375 1.375 1.9375 1.375 3 3 C3 3.66 3 4.32 3 5 C2.01 5 1.02 5 0 5 C-0.33 4.34 -0.66 3.68 -1 3 C-2.65 3 -4.3 3 -6 3 C-6.33 4.32 -6.66 5.64 -7 7 C-3.37 8.32 0.26 9.64 4 11 C4.6875 13.8125 4.6875 13.8125 5 17 C3.43358384 19.18890076 2.50663009 19.90638357 -0.15625 20.3984375 C-0.9296875 20.39070313 -1.703125 20.38296875 -2.5 20.375 C-3.2734375 20.38273437 -4.046875 20.39046875 -4.84375 20.3984375 C-7.48245826 19.9108501 -8.39157252 19.11363867 -10 17 C-10 16.34 -10 15.68 -10 15 C-9.01 15 -8.02 15 -7 15 C-6.67 15.66 -6.34 16.32 -6 17 C-3.36 17 -0.72 17 2 17 C1.88968982 15.02718472 1.88968982 15.02718472 1 13 C-1.28116792 11.89284625 -1.28116792 11.89284625 -4 11.3125 C-8.9447619 10.0552381 -8.9447619 10.0552381 -10 9 C-10.45232816 3.79822616 -10.45232816 3.79822616 -8.9375 1.125 C-5.8930714 -0.64273274 -3.4368988 -0.36823916 0 0 Z " fill="#A3B4BB" transform="translate(225,347)"/>
<path d="M0 0 C0.66 0 1.32 0 2 0 C1.38545304 3.99455527 -0.70646737 6.74466336 -3 10 C-0.525 10.99 -0.525 10.99 2 12 C3.32 10.35 4.64 8.7 6 7 C6.99 7.33 7.98 7.66 9 8 C8.319375 8.763125 7.63875 9.52625 6.9375 10.3125 C6.298125 11.199375 5.65875 12.08625 5 13 C5.66868314 16.11332248 5.66868314 16.11332248 8.0625 17.1875 C8.701875 17.455625 9.34125 17.72375 10 18 C10.433125 17.1028125 10.433125 17.1028125 10.875 16.1875 C12 14 12 14 14 11 C14.66 11 15.32 11 16 11 C15.40716379 14.39192363 14.23256811 16.2107757 11.9375 18.75 C11.38964844 19.36359375 10.84179688 19.9771875 10.27734375 20.609375 C9.85582031 21.06828125 9.43429687 21.5271875 9 22 C3.66666667 18 -1.66666667 14 -7 10 C-6.57847656 9.44570313 -6.15695312 8.89140625 -5.72265625 8.3203125 C-5.17480469 7.59585937 -4.62695312 6.87140625 -4.0625 6.125 C-3.51722656 5.40570313 -2.97195313 4.68640625 -2.41015625 3.9453125 C-0.96035376 2.05642921 -0.96035376 2.05642921 0 0 Z " fill="#A4B4BC" transform="translate(323,285)"/>
<path d="M0 0 C0.66 0 1.32 0 2 0 C1.93071289 0.78544189 1.86142578 1.57088379 1.79003906 2.38012695 C0.18760601 21.62500577 -1.23444767 42.64933254 5.1015625 61.23046875 C6 64 6 64 6 68 C5.34 68 4.68 68 4 68 C3.37280138 65.37550869 2.74821022 62.75043881 2.125 60.125 C1.95097656 59.39796875 1.77695313 58.6709375 1.59765625 57.921875 C1.23774346 56.4022432 0.88536139 54.88081299 0.53955078 53.35791016 C0.18688539 51.81671451 -0.18383206 50.27950952 -0.57470703 48.74755859 C-2.39469524 41.00413051 -2.22458636 33.27614392 -2.125 25.375 C-2.11494398 23.97526686 -2.10582279 22.57552669 -2.09765625 21.17578125 C-2.07426238 17.78367075 -2.04148173 14.3919294 -2 11 C-1.34 11 -0.68 11 0 11 C0 7.37 0 3.74 0 0 Z " fill="#494B2C" transform="translate(71,173)"/>
<path d="M0 0 C2.39269355 3.58904033 3.13187655 7.10996411 4.0625 11.25 C4.23587891 11.98863281 4.40925781 12.72726563 4.58789062 13.48828125 C8.94721877 32.42881045 8.53303751 53.11234373 4 72 C3.67 72 3.34 72 3 72 C2.875 64.375 2.875 64.375 4 61 C4.09747021 57.98945787 4.13992888 55.00269968 4.1328125 51.9921875 C4.13424759 50.67034958 4.13424759 50.67034958 4.13571167 49.32180786 C4.13639186 47.46079436 4.1345488 45.59977847 4.13037109 43.73876953 C4.12500784 40.87917811 4.13032806 38.01974286 4.13671875 35.16015625 C4.13605819 33.35416632 4.13477749 31.54817648 4.1328125 29.7421875 C4.13483673 28.88180878 4.13686096 28.02143005 4.13894653 27.13497925 C4.50808892 23.25580394 4.50808892 23.25580394 3 20 C2.68076508 17.9427083 2.48838648 15.88386479 2.28125 13.8125 C2.18001957 11.9832467 2.18001957 11.9832467 1 11 C0.76636119 9.15108054 0.58696365 7.29511969 0.4375 5.4375 C0.35371094 4.42558594 0.26992188 3.41367188 0.18359375 2.37109375 C0.12300781 1.58863281 0.06242187 0.80617187 0 0 Z " fill="#D7B23F" transform="translate(322,159)"/>
<path d="M0 0 C3.9722047 0.08827122 5.76149362 0.81731426 8.9375 3.25 C11 6 11 6 10.875 8.75 C10 11 10 11 9 12 C5.28558261 12.42209289 3.41000573 12.23174237 0.125 10.375 C-2 8 -2 8 -2.4375 4.875 C-2 2 -2 2 0 0 Z " fill="#3D4B51" transform="translate(68,104)"/>
<path d="M0 0 C0 1.32 0 2.64 0 4 C-2.97 3.505 -2.97 3.505 -6 3 C-6 3.99 -6 4.98 -6 6 C-6 6.99 -6 7.98 -6 9 C-6.72574219 8.74347656 -7.45148438 8.48695312 -8.19921875 8.22265625 C-11.14056407 7.67550656 -11.14056407 7.67550656 -13.45703125 9.87109375 C-14.23433594 10.71800781 -15.01164062 11.56492187 -15.8125 12.4375 C-16.60269531 13.28183594 -17.39289063 14.12617187 -18.20703125 14.99609375 C-19.09455078 15.98802734 -19.09455078 15.98802734 -20 17 C-20.99 16.67 -21.98 16.34 -23 16 C-21.61211066 12.81273653 -20.00538267 10.88378016 -17.4375 8.5625 C-14.61940633 5.84964634 -13.12356529 4.0776547 -13 0 C-12.01 0.33 -11.02 0.66 -10 1 C-6.1496895 -1.56687367 -4.41430237 -0.83288724 0 0 Z " fill="#E3ECEE" transform="translate(326,82)"/>
<path d="M0 0 C-1.08239553 3.57190523 -2.62852365 5.80922242 -5.125 8.5 C-7.62678301 11.26763625 -7.62678301 11.26763625 -8.375 14.9375 C-8.189375 15.9584375 -8.189375 15.9584375 -8 17 C-6.02 17.33 -4.04 17.66 -2 18 C0.97 14.37 3.94 10.74 7 7 C7.99 7.33 8.98 7.66 10 8 C0.8985031 20.60447852 0.8985031 20.60447852 -4 21.625 C-8.04381805 20.78253791 -9.53235541 19.26600019 -12 16 C-12.4375 13.6875 -12.4375 13.6875 -12 11 C-10.42980393 8.85329283 -8.955716 7.07621389 -7.125 5.1875 C-6.66480469 4.68541016 -6.20460938 4.18332031 -5.73046875 3.66601562 C-2.28890306 0 -2.28890306 0 0 0 Z " fill="#A6B7BE" transform="translate(98,309)"/>
<path d="M0 0 C0.66 0.66 1.32 1.32 2 2 C0.02 4.31 -1.96 6.62 -4 9 C-2.68 9.99 -1.36 10.98 0 12 C1.175625 10.7625 1.175625 10.7625 2.375 9.5 C5 7 5 7 7 7 C5.50163895 10.11198065 3.80066242 13.0534615 2 16 C4.475 16.99 4.475 16.99 7 18 C9.31 16.02 11.62 14.04 14 12 C14 15 14 15 12.46875 16.82421875 C11.8190625 17.43910156 11.169375 18.05398438 10.5 18.6875 C9.8503125 19.31011719 9.200625 19.93273437 8.53125 20.57421875 C8.0259375 21.04472656 7.520625 21.51523437 7 22 C4.07153324 20.57268007 1.48582937 19.13071088 -1 17 C-1 16.34 -1 15.68 -1 15 C-1.598125 14.731875 -2.19625 14.46375 -2.8125 14.1875 C-4.97224808 13.01506533 -6.35790256 11.80630718 -8 10 C-6.34908222 5.70761377 -3.26245434 3.1206085 0 0 Z " fill="#A2B3BA" transform="translate(314,297)"/>
<path d="M0 0 C4.3177458 0.50797009 8.03302114 1.19682779 12 3 C12 3.66 12 4.32 12 5 C8.7 4.34 5.4 3.68 2 3 C1.67 4.98 1.34 6.96 1 9 C3.31 9.66 5.62 10.32 8 11 C8 11.66 8 12.32 8 13 C3.545 12.01 3.545 12.01 -1 11 C-1.33 13.31 -1.66 15.62 -2 18 C2.455 18.99 2.455 18.99 7 20 C7 20.66 7 21.32 7 22 C2.6822542 21.49202991 -1.03302114 20.80317221 -5 19 C-4.39297368 12.3227105 -2.22368606 6.29872004 0 0 Z " fill="#A4B5BC" transform="translate(147,340)"/>
<path d="M0 0 C2.6875 0.5 2.6875 0.5 5.5 3.1875 C7.6875 6.5 7.6875 6.5 8.1875 9.25 C7.6875 11.5 7.6875 11.5 4.6875 13.5 C1.14642439 13.40920319 -0.06567408 12.74015495 -2.625 10.25 C-4.45098873 7.27431467 -4.86613488 5.91408177 -4.3125 2.5 C-2.3125 0.5 -2.3125 0.5 0 0 Z " fill="#414F57" transform="translate(98.3125,73.5)"/>
<path d="M0 0 C2 2 2 2 2.625 4.3125 C1.71616242 8.22050161 -0.5866681 9.19856881 -3.859375 11.27734375 C-6 12 -6 12 -8.203125 11.19140625 C-10 10 -10 10 -11 9 C-11.4375 6.6875 -11.4375 6.6875 -11 4 C-7.46465653 0.95796027 -4.71894598 -0.786491 0 0 Z " fill="#424F54" transform="translate(341,122)"/>
<path d="M0 0 C1.9375 1.0625 1.9375 1.0625 3 3 C3.8125 6.5 3.8125 6.5 4 10 C3.01 11.485 3.01 11.485 2 13 C1.01 12.67 0.02 12.34 -1 12 C-0.835 10.88625 -0.67 9.7725 -0.5 8.625 C0.0455458 5.27967967 0.0455458 5.27967967 0 3 C-5.26159459 2.35834212 -7.68592849 3.79422999 -11.6796875 6.90625 C-12.11539063 7.2671875 -12.55109375 7.628125 -13 8 C-12.67 9.98 -12.34 11.96 -12 14 C-10.02 14.66 -8.04 15.32 -6 16 C-6.33 16.66 -6.66 17.32 -7 18 C-12.42465753 17.51780822 -12.42465753 17.51780822 -14.875 15.3125 C-16.38185358 12.21507874 -16.55651279 10.40864082 -16 7 C-11.18798839 1.27760781 -7.33659556 -0.94962197 0 0 Z " fill="#A3B4BB" transform="translate(68,272)"/>
<path d="M0 0 C4.88083499 0.47851323 7.86873395 1.45768243 12 4 C15.19395026 4.71401232 15.19395026 4.71401232 18 5 C18 5.33 18 5.66 18 6 C23.10525415 8.12718923 28.03389382 8.42516703 33.48828125 8.75390625 C36 9 36 9 37 10 C38.54955559 10.09899523 40.10353673 10.13079524 41.65625 10.1328125 C43.06583984 10.13474609 43.06583984 10.13474609 44.50390625 10.13671875 C45.98697266 10.13091797 45.98697266 10.13091797 47.5 10.125 C48.48871094 10.12886719 49.47742188 10.13273437 50.49609375 10.13671875 C51.43582031 10.13542969 52.37554687 10.13414062 53.34375 10.1328125 C54.21193359 10.13168457 55.08011719 10.13055664 55.97460938 10.12939453 C57.99604154 10.2241537 57.99604154 10.2241537 59 9 C61.01964199 8.92755947 63.04167124 8.91622812 65.0625 8.9375 C66.16722656 8.94652344 67.27195312 8.95554687 68.41015625 8.96484375 C69.26480469 8.97644531 70.11945313 8.98804688 71 9 C71 9.33 71 9.66 71 10 C48.59935233 15.50191346 24.84571293 12.2970427 4 3 C1.54296875 1.3125 1.54296875 1.3125 0 0 Z " fill="#FEFAD0" transform="translate(153,286)"/>
<path d="M0 0 C2.31 0.33 4.62 0.66 7 1 C7.32309043 9.23880597 7.32309043 9.23880597 5 13 C2.5 13.9375 2.5 13.9375 0 14 C-2 12 -2 12 -2.265625 9.94140625 C-2.26046875 9.15636719 -2.2553125 8.37132812 -2.25 7.5625 C-2.25515625 6.78003906 -2.2603125 5.99757813 -2.265625 5.19140625 C-2 3 -2 3 0 0 Z " fill="#3E4D52" transform="translate(219,40)"/>
<path d="M0 0 C0.66 0 1.32 0 2 0 C3 5 4 10 5 15 C5.45890625 14.21753906 5.9178125 13.43507813 6.390625 12.62890625 C7.00421875 11.61699219 7.6178125 10.60507812 8.25 9.5625 C8.85328125 8.55316406 9.4565625 7.54382813 10.078125 6.50390625 C12 4 12 4 14.234375 3.15234375 C14.81703125 3.10207031 15.3996875 3.05179687 16 3 C9.24450176 15.83776812 9.24450176 15.83776812 5 21 C4.01 21 3.02 21 2 21 C0.49025965 13.90961228 -0.28307925 7.24997422 0 0 Z " fill="#A3B4BC" transform="translate(161,344)"/>
<path d="M0 0 C2.3125 0.8125 2.3125 0.8125 3.3125 1.8125 C3.78308824 8.04779412 3.78308824 8.04779412 1.8125 11.25 C1.3175 11.765625 0.8225 12.28125 0.3125 12.8125 C-5.5625 11.9375 -5.5625 11.9375 -6.6875 10.8125 C-7.05745025 6.89102734 -7.23934638 4.6300502 -5 1.3125 C-2.6875 -0.1875 -2.6875 -0.1875 0 0 Z " fill="#6B5910" transform="translate(166.6875,303.1875)"/>
<path d="M0 0 C0.99 0.33 1.98 0.66 3 1 C2.814375 1.763125 2.62875 2.52625 2.4375 3.3125 C1.77180827 6.08967375 1.77180827 6.08967375 3 9 C2.24460937 8.92394531 1.48921875 8.84789063 0.7109375 8.76953125 C-2.05738859 8.73898037 -2.05738859 8.73898037 -3.8359375 10.57421875 C-7.14771602 14.84134515 -7.14771602 14.84134515 -7.875 20 C-7.58625 20.66 -7.2975 21.32 -7 22 C-8.32 21.67 -9.64 21.34 -11 21 C-11.71875 18.78125 -11.71875 18.78125 -12 16 C-10.38424282 13.49041969 -8.4817192 11.48003174 -6.46875 9.28125 C-4.70229112 7.05816622 -4.70229112 7.05816622 -5.28125 4.21875 C-5.5184375 3.4865625 -5.755625 2.754375 -6 2 C-4.33333333 2 -2.66666667 2 -1 2 C-0.67 1.34 -0.34 0.68 0 0 Z " fill="#EAF0F3" transform="translate(301,66)"/>
<path d="M0 0 C0.886875 0.12375 1.77375 0.2475 2.6875 0.375 C2.6875 1.035 2.6875 1.695 2.6875 2.375 C1.4809375 2.808125 1.4809375 2.808125 0.25 3.25 C-2.4451468 4.10762568 -2.4451468 4.10762568 -3.3125 6.375 C-1.9925 7.035 -0.6725 7.695 0.6875 8.375 C-3.0625 9.5 -3.0625 9.5 -5.3125 8.375 C-4.9825 10.685 -4.6525 12.995 -4.3125 15.375 C-1.6725 15.705 0.9675 16.035 3.6875 16.375 C3.6875 17.035 3.6875 17.695 3.6875 18.375 C0.08656035 19.29617061 -1.69877771 19.66140374 -5.125 18.0625 C-7.3125 16.375 -7.3125 16.375 -8.3125 14.375 C-8.77364626 9.76353744 -9.01360453 6.67937149 -6.1875 2.875 C-3.3125 0.375 -3.3125 0.375 0 0 Z " fill="#F0F5F7" transform="translate(271.3125,53.625)"/>
<path d="M0 0 C2.75 -0.3125 2.75 -0.3125 6 0 C8.62846098 2.42095091 9.81388233 4.04614692 10.5 7.5625 C9.85138213 10.7245121 8.31083617 11.8312986 6 14 C4.8000962 12.23754778 3.61540483 10.46473019 2.4375 8.6875 C1.77621094 7.70136719 1.11492187 6.71523437 0.43359375 5.69921875 C-0.27603516 4.36310547 -0.27603516 4.36310547 -1 3 C-0.67 2.01 -0.34 1.02 0 0 Z " fill="#EBF1F4" transform="translate(326,103)"/>
<path d="M0 0 C0.66 0 1.32 0 2 0 C6.57446809 17.14893617 6.57446809 17.14893617 7 26 C6.01 26.33 5.02 26.66 4 27 C3.129043 23.44139062 2.28123075 19.87765408 1.4375 16.3125 C1.19064453 15.30509766 0.94378906 14.29769531 0.68945312 13.25976562 C0.46064453 12.28330078 0.23183594 11.30683594 -0.00390625 10.30078125 C-0.21861572 9.40528564 -0.4333252 8.50979004 -0.65454102 7.5871582 C-1.02823115 4.78857564 -0.70459974 2.71774186 0 0 Z " fill="#E4EAEC" transform="translate(163,31)"/>
<path d="M0 0 C1.65 0.33 3.3 0.66 5 1 C4.505 1.515625 4.01 2.03125 3.5 2.5625 C1.50350759 5.80680017 1.78435615 8.26217334 2 12 C4.97 12.495 4.97 12.495 8 13 C10.05925681 9.91111478 10.2390374 9.29064073 10.125 5.8125 C10.063125 3.9253125 10.063125 3.9253125 10 2 C10.66 2 11.32 2 12 2 C12.33 4.31 12.66 6.62 13 9 C13.66 7.68 14.32 6.36 15 5 C14.8864371 6.64666203 14.75882619 8.29236082 14.625 9.9375 C14.55539063 10.85402344 14.48578125 11.77054687 14.4140625 12.71484375 C14.27742188 13.46894531 14.14078125 14.22304688 14 15 C13.01 15.495 13.01 15.495 12 16 C11.67 15.01 11.34 14.02 11 13 C10.34 13.66 9.68 14.32 9 15 C6.31160615 15.26991906 3.70858064 15.08737357 1 15 C0.67 13.35 0.34 11.7 0 10 C-0.99 10.33 -1.98 10.66 -3 11 C-3 8.69 -3 6.38 -3 4 C-2.34 3.67 -1.68 3.34 -1 3 C-0.67 2.01 -0.34 1.02 0 0 Z " fill="#E0B435" transform="translate(159,302)"/>
<path d="M0 0 C3.28753748 1.09584583 3.60078861 1.47761131 5.375 4.23828125 C6.01695313 5.22151367 6.01695313 5.22151367 6.671875 6.22460938 C7.11015625 6.91361328 7.5484375 7.60261719 8 8.3125 C8.8740291 9.66338909 9.74900393 11.01366683 10.625 12.36328125 C11.03234375 12.99959473 11.4396875 13.6359082 11.859375 14.29150391 C13.05737388 16.14552696 13.05737388 16.14552696 14.875 18.29296875 C15.431875 19.13794922 15.431875 19.13794922 16 20 C15.67 20.99 15.34 21.98 15 23 C10.06067177 21.35355726 8.0909332 16.81614016 5.25 12.625 C4.63511719 11.7484375 4.02023438 10.871875 3.38671875 9.96875 C2.81050781 9.12570313 2.23429687 8.28265625 1.640625 7.4140625 C1.10985352 6.6401416 0.57908203 5.8662207 0.03222656 5.06884766 C-1 3 -1 3 0 0 Z " fill="#EDF4F6" transform="translate(102,57)"/>
<path d="M0 0 C0.66 0.66 1.32 1.32 2 2 C1.87890625 3.984375 1.87890625 3.984375 1 6 C-0.84765625 7.265625 -0.84765625 7.265625 -3.0625 8.25 C-3.79597656 8.58515625 -4.52945313 8.9203125 -5.28515625 9.265625 C-6.13400391 9.62914063 -6.13400391 9.62914063 -7 10 C-7.33 8.68 -7.66 7.36 -8 6 C-8.66 6 -9.32 6 -10 6 C-10.33 7.32 -10.66 8.64 -11 10 C-10.51644989 3.59296098 -10.51644989 3.59296098 -8.3125 1.0625 C-5.34831544 -0.29942264 -3.22654537 -0.35071145 0 0 Z " fill="#E9EFF1" transform="translate(126,55)"/>
<path d="M0 0 C0.99 0.33 1.98 0.66 3 1 C3 1.66 3 2.32 3 3 C4.65 3.33 6.3 3.66 8 4 C7.67 4.99 7.34 5.98 7 7 C4.69 6.67 2.38 6.34 0 6 C-0.2475 6.70125 -0.495 7.4025 -0.75 8.125 C-2.16088026 11.37002459 -3.97895398 14.10316737 -6 17 C-6.99 16.67 -7.98 16.34 -9 16 C-7.56691865 12.04093183 -5.66858051 8.71281819 -3.375 5.1875 C-2.74335938 4.21167969 -2.11171875 3.23585938 -1.4609375 2.23046875 C-0.73777344 1.12638672 -0.73777344 1.12638672 0 0 Z " fill="#EDF4F6" transform="translate(286,61)"/>
<path d="M0 0 C1.65 0.33 3.3 0.66 5 1 C4.67 1.99 4.34 2.98 4 4 C3.01 3.01 2.02 2.02 1 1 C2.98 3.97 4.96 6.94 7 10 C10.74691447 9.21693046 10.74691447 9.21693046 13 8 C12.67 7.34 12.34 6.68 12 6 C12.99 6 13.98 6 15 6 C15 7.32 15 8.64 15 10 C10.8217888 12.38754926 7.82021034 13.88534476 3 13 C0.44211557 11.21723207 -1.79134035 9.19559066 -4 7 C-3.34 6.67 -2.68 6.34 -2 6 C-1.34 6.33 -0.68 6.66 0 7 C0 4.69 0 2.38 0 0 Z " fill="#EAB832" transform="translate(258,290)"/>
<path d="M0 0 C5.56818182 0.56818182 5.56818182 0.56818182 7 2 C7.25 4.9375 7.25 4.9375 7 8 C4 10 4 10 1.375 9.6875 C-1 9 -1 9 -2 8 C-2.1875 5.0625 -2.1875 5.0625 -2 2 C-1.34 1.34 -0.68 0.68 0 0 Z " fill="#A4B4BC" transform="translate(357,197)"/>
<path d="M0 0 C1.98 0 3.96 0 6 0 C6 0.33 6 0.66 6 1 C4.35 1 2.7 1 1 1 C0.87530901 6.57830016 0.87530901 6.57830016 2 12 C1.34 12 0.68 12 0 12 C-0.33 13.32 -0.66 14.64 -1 16 C-1.99 15.67 -2.98 15.34 -4 15 C-5.48882438 10.92532275 -6.26270217 7.33458585 -6 3 C-5.195625 2.87625 -4.39125 2.7525 -3.5625 2.625 C-2.716875 2.41875 -1.87125 2.2125 -1 2 C-0.67 1.34 -0.34 0.68 0 0 Z " fill="#BE9826" transform="translate(226,304)"/>
<path d="M0 0 C-1.47158371 3.61497739 -3.41462331 5.40591511 -6.5 7.75 C-7.2940625 8.36359375 -8.088125 8.9771875 -8.90625 9.609375 C-11 11 -11 11 -13 11 C-12.01 12.6396875 -12.01 12.6396875 -11 14.3125 C-9.41535071 16.93707538 -9 17.8256378 -9 21 C-12.30602451 17.87267952 -14.74289154 14.93835641 -17 11 C-14.73596792 9.15767006 -12.4645436 7.32612166 -10.1875 5.5 C-9.22360352 4.71302734 -9.22360352 4.71302734 -8.24023438 3.91015625 C-7.61826172 3.41386719 -6.99628906 2.91757812 -6.35546875 2.40625 C-5.49924927 1.71499023 -5.49924927 1.71499023 -4.62573242 1.00976562 C-3 0 -3 0 0 0 Z " fill="#A7B8BE" transform="translate(77,285)"/>
<path d="M0 0 C3.625 0.375 3.625 0.375 7 1 C7.625 3.3125 7.625 3.3125 8 6 C7.01 7.485 7.01 7.485 6 9 C3 9.3125 3 9.3125 0 9 C-2 7 -2 7 -2.25 4.5 C-2 2 -2 2 0 0 Z " fill="#A5B6BE" transform="translate(351,234)"/>
<path d="M0 0 C0.625 2.875 0.625 2.875 1 6 C-1 8 -1 8 -4 8.25 C-7 8 -7 8 -9 6 C-8.75 2.9375 -8.75 2.9375 -8 0 C-5.13822943 -1.43088528 -3.06624227 -0.59991697 0 0 Z " fill="#A5B6BE" transform="translate(50,235)"/>
<path d="M0 0 C0.763125 0.20625 1.52625 0.4125 2.3125 0.625 C2.6425 2.935 2.9725 5.245 3.3125 7.625 C0.3125 9.625 0.3125 9.625 -2.3125 9.3125 C-4.6875 8.625 -4.6875 8.625 -5.6875 7.625 C-5.9375 4.6875 -5.9375 4.6875 -5.6875 1.625 C-2.6875 -0.375 -2.6875 -0.375 0 0 Z " fill="#A5B6BE" transform="translate(41.6875,197.375)"/>
<path d="M0 0 C2.875 -0.1875 2.875 -0.1875 6 0 C8 3 8 3 7.6875 5.625 C7 8 7 8 6 9 C3.0625 9.25 3.0625 9.25 0 9 C-2 6 -2 6 -1.6875 3.9375 C-1 2 -1 2 0 0 Z " fill="#A5B6BE" transform="translate(353,163)"/>
<path d="M0 0 C1.98 0.66 3.96 1.32 6 2 C6.33 3.65 6.66 5.3 7 7 C6.01 7.33 5.02 7.66 4 8 C4 9.65 4 11.3 4 13 C3.01 13.495 3.01 13.495 2 14 C2 12.35 2 10.7 2 9 C0.68 8.34 -0.64 7.68 -2 7 C-2.33 8.65 -2.66 10.3 -3 12 C-3.66 11.34 -4.32 10.68 -5 10 C-3.35 6.7 -1.7 3.4 0 0 Z " fill="#6A5710" transform="translate(152,298)"/>
<path d="M0 0 C2.03477711 1.6585553 2.93665784 2.46258133 3.25 5.12109375 C2.81573865 9.14479661 2.47436053 11.41402523 -0.125 14.625 C-3.85245066 16.40769379 -6.0476966 15.98807585 -10 15 C-11 14 -11 14 -11.0625 11.4375 C-11.041875 10.633125 -11.02125 9.82875 -11 9 C-10.608125 9.495 -10.21625 9.99 -9.8125 10.5 C-8.05545568 12.21841684 -8.05545568 12.21841684 -5.4375 12.375 C-4.633125 12.25125 -3.82875 12.1275 -3 12 C-0.93089514 8.89634272 -0.77712426 8.35194595 -0.9375 4.875 C-0.958125 3.59625 -0.97875 2.3175 -1 1 C-0.67 0.67 -0.34 0.34 0 0 Z " fill="#EDF3F4" transform="translate(187,40)"/>
<path d="M0 0 C1 2 1 2 0.25 5.0625 C-0.1625 6.031875 -0.575 7.00125 -1 8 C-1.99 8.33 -2.98 8.66 -4 9 C-4 9.66 -4 10.32 -4 11 C-2.7625 10.67 -1.525 10.34 -0.25 10 C5.49772546 8.69828227 11.1373892 8.82144333 17 9 C16.67 9.66 16.34 10.32 16 11 C13.84110521 11.23427567 11.67022058 11.36098581 9.5 11.4375 C3.43265351 11.77250686 -1.37077833 12.76772244 -7 15 C-5.34292168 9.35086937 -3.52237988 4.73699363 0 0 Z " fill="#DC5C1B" transform="translate(167,172)"/>
<path d="M0 0 C2.5 0.25 2.5 0.25 4.5 2.25 C4.625 5.375 4.625 5.375 4.5 8.25 C1.125 8.875 1.125 8.875 -2.5 9.25 C-4.5 7.25 -4.5 7.25 -4.75 4.75 C-4.40058445 1.25584452 -3.49415548 0.34941555 0 0 Z " fill="#A9B9C1" transform="translate(43.5,162.75)"/>
<path d="M0 0 C6.15234375 -0.09765625 6.15234375 -0.09765625 8 0 C9 1 9 1 9.1875 3.4375 C9 6 9 6 7 8 C3.375 8.125 3.375 8.125 0 8 C0 5.36 0 2.72 0 0 Z " fill="#405159" transform="translate(200,351)"/>
<path d="M0 0 C0.6875 1.8125 0.6875 1.8125 1 4 C-0.24609375 5.42578125 -0.24609375 5.42578125 -2 7 C-3.60929648 9.60026277 -5.09910814 12.2526122 -6.59765625 14.91796875 C-7.06042969 15.60503906 -7.52320313 16.29210937 -8 17 C-8.66 17 -9.32 17 -10 17 C-10.0825 17.598125 -10.165 18.19625 -10.25 18.8125 C-11.21332412 21.62219534 -12.63379711 22.27912517 -15 24 C-15.28875 24.680625 -15.5775 25.36125 -15.875 26.0625 C-17 28 -17 28 -20.125 29.25 C-21.07375 29.4975 -22.0225 29.745 -23 30 C-22.21625 29.0925 -21.4325 28.185 -20.625 27.25 C-20.07972656 26.610625 -19.53445313 25.97125 -18.97265625 25.3125 C-17.52850074 23.61954938 -16.07691976 21.9329253 -14.62109375 20.25 C-9.13248493 13.81450142 -4.33546896 7.2927756 0 0 Z " fill="#4D4D2D" transform="translate(312,264)"/>
<path d="M0 0 C2.91517292 1.07401108 4.77810176 1.77810176 7 4 C6.625 6.625 6.625 6.625 6 9 C3.69 8.67 1.38 8.34 -1 8 C-1.99 9.485 -1.99 9.485 -3 11 C-3.66 11 -4.32 11 -5 11 C-3.55049545 7.2089881 -1.84827434 3.6125362 0 0 Z " fill="#64520D" transform="translate(141,292)"/>
<path d="M0 0 C3.36318818 1.01419099 4.9815017 2.81929141 7.0078125 5.60546875 C7.3203125 8.41796875 7.3203125 8.41796875 7.0078125 10.60546875 C6.3478125 10.60546875 5.6878125 10.60546875 5.0078125 10.60546875 C4.4509375 9.63609375 3.8940625 8.66671875 3.3203125 7.66796875 C1.24392501 4.2386281 1.24392501 4.2386281 -2.7421875 3.73046875 C-4.3509375 3.66859375 -4.3509375 3.66859375 -5.9921875 3.60546875 C-6.9821875 5.09046875 -6.9821875 5.09046875 -7.9921875 6.60546875 C-8.6521875 6.60546875 -9.3121875 6.60546875 -9.9921875 6.60546875 C-9.6796875 4.23046875 -9.6796875 4.23046875 -8.9921875 1.60546875 C-5.6045955 -0.65292591 -3.95434959 -0.62014708 0 0 Z " fill="#EBF2F4" transform="translate(86.9921875,85.39453125)"/>
<path d="M0 0 C0.99 0.33 1.98 0.66 3 1 C1.38462556 4.89917968 -1.27924873 7.71293772 -4.125 10.75 C-4.59292969 11.25660156 -5.06085938 11.76320313 -5.54296875 12.28515625 C-6.69126541 13.52719141 -7.84508672 14.76411494 -9 16 C-9.66 15.67 -10.32 15.34 -11 15 C-10.52042767 10.71446004 -7.7812778 8.23068595 -4.9375 5.25 C-4.46505859 4.74339844 -3.99261719 4.23679687 -3.50585938 3.71484375 C-2.34369289 2.47050387 -1.17269839 1.23441936 0 0 Z " fill="#E8EDF1" transform="translate(307,77)"/>
<path d="M0 0 C3.375 1.0625 3.375 1.0625 5.375 3.3125 C6.57323062 6.6076342 6.64747605 7.80178012 5.375 11.0625 C3.82443891 13.20786649 2.15955892 15.0949094 0.375 17.0625 C-0.3125 15.25 -0.3125 15.25 -0.625 13.0625 C0.375 12.0625 1.375 11.0625 2.375 10.0625 C2.79179297 7.52019153 2.79179297 7.52019153 2.375 5.0625 C1.715 4.4025 1.055 3.7425 0.375 3.0625 C-2.59565509 3.40477572 -2.59565509 3.40477572 -5.625 4.0625 C-6.615 4.0625 -7.605 4.0625 -8.625 4.0625 C-5.63696953 1.07446953 -4.30385585 0.07420441 0 0 Z " fill="#A3B4BC" transform="translate(85.625,297.9375)"/>
<path d="M0 0 C0.33 0.99 0.66 1.98 1 3 C1.928125 2.484375 2.85625 1.96875 3.8125 1.4375 C7 0 7 0 10 1 C10 1.66 10 2.32 10 3 C2.08 6.96 2.08 6.96 -6 11 C-5.34 9.68 -4.68 8.36 -4 7 C-3.67 6.13375 -3.34 5.2675 -3 4.375 C-2 2 -2 2 0 0 Z " fill="#E6ECEE" transform="translate(345,124)"/>
<path d="M0 0 C1.98 0.66 3.96 1.32 6 2 C5.51470588 8.43014706 5.51470588 8.43014706 3.25 10.9375 C0.64597372 12.16717908 -1.15312226 12.23723981 -4 12 C-3.01 11.67 -2.02 11.34 -1 11 C-0.06619039 6.46859347 -0.06619039 6.46859347 -1 2 C-0.67 1.34 -0.34 0.68 0 0 Z " fill="#455359" transform="translate(62,124)"/>
<path d="M0 0 C2.56529454 1.28264727 2.66499863 2.22772349 3.625 4.875 C3.88539063 5.57367188 4.14578125 6.27234375 4.4140625 6.9921875 C5 9 5 9 5 12 C1.88801935 10.50163895 -1.0534615 8.80066242 -4 7 C-3.649375 7.5775 -3.29875 8.155 -2.9375 8.75 C-1.83422289 11.39786506 -2.19843491 12.33185326 -3 15 C-3.83819158 13.37750059 -4.6704116 11.75191503 -5.5 10.125 C-5.9640625 9.22007812 -6.428125 8.31515625 -6.90625 7.3828125 C-8 5 -8 5 -8 3 C-4.00544473 3.61454696 -1.25533664 5.70646737 2 8 C1.67 7.4225 1.34 6.845 1 6.25 C0 4 0 4 0 0 Z " fill="#6C5713" transform="translate(245,299)"/>
<path d="M0 0 C0.99 0.99 1.98 1.98 3 3 C0.90603799 4.86694188 -1.19870197 6.71826176 -3.3125 8.5625 C-4.20485352 9.36204102 -4.20485352 9.36204102 -5.11523438 10.17773438 C-6.67819037 11.53113202 -8.33487746 12.7744864 -10 14 C-10.99 13.67 -11.98 13.34 -13 13 C-11.44533803 8.91667098 -8.74912156 6.91791007 -5.375 4.25 C-4.37210937 3.45078125 -3.36921875 2.6515625 -2.3359375 1.828125 C-1.17964844 0.92320313 -1.17964844 0.92320313 0 0 Z " fill="#EFF5F7" transform="translate(323,93)"/>
<path d="M0 0 C0.99 0 1.98 0 3 0 C3 6.27 3 12.54 3 19 C2.01 19 1.02 19 0 19 C-1.09587955 14.75448144 -0.92865836 11.0407161 -0.5625 6.6875 C-0.46066406 5.43324219 -0.35882813 4.17898437 -0.25390625 2.88671875 C-0.17011719 1.93410156 -0.08632812 0.98148438 0 0 Z " fill="#F2F6F7" transform="translate(206,36)"/>
<path d="M0 0 C0.78375 0.04125 1.5675 0.0825 2.375 0.125 C2.705 1.115 3.035 2.105 3.375 3.125 C4.365 3.455 5.355 3.785 6.375 4.125 C5.385 4.62 5.385 4.62 4.375 5.125 C4.705 6.115 5.035 7.105 5.375 8.125 C0.92 7.135 0.92 7.135 -3.625 6.125 C-3.955 4.805 -4.285 3.485 -4.625 2.125 C-2.625 0.125 -2.625 0.125 0 0 Z " fill="#3F5058" transform="translate(221.625,348.875)"/>
<path d="M0 0 C4.39600078 0.50240009 6.90775631 1.82186065 10 5 C11.36859945 8.84918594 11.10940365 11.21128082 9.5625 14.875 C9.046875 15.90625 8.53125 16.9375 8 18 C7.34 18 6.68 18 6 18 C6.33 14.04 6.66 10.08 7 6 C3.535 4.02 3.535 4.02 0 2 C0 1.34 0 0.68 0 0 Z " fill="#A6B7BF" transform="translate(131,333)"/>
<path d="M0 0 C1.29608947 0.93137592 2.58671632 1.8703566 3.875 2.8125 C4.59429687 3.33457031 5.31359375 3.85664063 6.0546875 4.39453125 C8 6 8 6 10 9 C7.69 9.33 5.38 9.66 3 10 C2.67 11.32 2.34 12.64 2 14 C1.67 14 1.34 14 1 14 C-0.20568053 9.32798795 -0.09382426 4.78503708 0 0 Z " fill="#86772A" transform="translate(252,295)"/>
<path d="M0 0 C3.34292611 3.1019945 5.76244801 6.43575362 8.25 10.25 C8.95640625 11.32765625 9.6628125 12.4053125 10.390625 13.515625 C10.92171875 14.33546875 11.4528125 15.1553125 12 16 C11.01 16.66 10.02 17.32 9 18 C5.37 12.72 1.74 7.44 -2 2 C-1.34 1.34 -0.68 0.68 0 0 Z " fill="#A4B5BD" transform="translate(287,321)"/>
<path d="M0 0 C1.65 0.33 3.3 0.66 5 1 C5.93065133 3.60582371 6.14917407 4.64198224 5.0625 7.25 C4.711875 7.8275 4.36125 8.405 4 9 C2.02 8.34 0.04 7.68 -2 7 C-2 3 -2 3 0 0 Z " fill="#3A4B52" transform="translate(332,276)"/>
<path d="M0 0 C2.64 0 5.28 0 8 0 C8 0.66 8 1.32 8 2 C6.02 2 4.04 2 2 2 C2 3.32 2 4.64 2 6 C3.65 6 5.3 6 7 6 C7 6.33 7 6.66 7 7 C5.02 7 3.04 7 1 7 C1 8.32 1 9.64 1 11 C2.98 11 4.96 11 7 11 C7 11.66 7 12.32 7 13 C1.25 13.125 1.25 13.125 -1 12 C-0.67 8.04 -0.34 4.08 0 0 Z " fill="#725D10" transform="translate(185,308)"/>
<path d="M0 0 C-6.67706165 6.21657464 -18.70333007 12 -28 12 C-28 11.34 -28 10.68 -28 10 C-22.555 9.01 -22.555 9.01 -17 8 C-17 7.34 -17 6.68 -17 6 C-15.7625 5.566875 -14.525 5.13375 -13.25 4.6875 C-10.70728831 3.74906511 -8.97635328 2.98175824 -6.8125 1.3125 C-4.45218888 -0.39669081 -2.84554514 -0.23712876 0 0 Z " fill="#FEFACD" transform="translate(252,283)"/>
<path d="M0 0 C0 0.66 0 1.32 0 2 C0.99 2.33 1.98 2.66 3 3 C0.8125 5.5625 0.8125 5.5625 -2 8 C-4.6875 8 -4.6875 8 -7 7 C-7.66 6.01 -8.32 5.02 -9 4 C-2.25 0 -2.25 0 0 0 Z " fill="#415053" transform="translate(129,63)"/>
<path d="M0 0 C0.66 0 1.32 0 2 0 C1.73136414 3.31317555 1.40940132 4.63876354 -1.125 6.875 C-4.86084312 8.33685166 -7.15304539 8.01617669 -11 7 C-11.66 6.01 -12.32 5.02 -13 4 C-12.01 3.34 -11.02 2.68 -10 2 C-9.01 2.66 -8.02 3.32 -7 4 C-4.41666667 3.91666667 -4.41666667 3.91666667 -2 3 C-1.34 2.01 -0.68 1.02 0 0 Z " fill="#EDF3F6" transform="translate(131,66)"/>
<path d="M0 0 C2.97 0 5.94 0 9 0 C9.28571429 8.57142857 9.28571429 8.57142857 7 12 C7 10.02 7 8.04 7 6 C4.69 5.34 2.38 4.68 0 4 C0 2.68 0 1.36 0 0 Z " fill="#E8B72A" transform="translate(176,308)"/>
<path d="M0 0 C3.42674122 5.14011183 4.24793158 8.86803982 4.1953125 15.05078125 C4.1924826 15.70958786 4.18965271 16.36839447 4.18673706 17.04716492 C4.17560924 19.13580062 4.15051948 21.22399556 4.125 23.3125 C4.11496059 24.73501982 4.10583642 26.1575464 4.09765625 27.58007812 C4.07569447 31.05352681 4.04121646 34.52672033 4 38 C3.67 38 3.34 38 3 38 C2.98018066 37.41734375 2.96036133 36.8346875 2.93994141 36.234375 C2.50656952 24.05207578 1.78045619 12.06561573 0 0 Z " fill="#EABF45" transform="translate(295,172)"/>
<path d="M0 0 C6.61231803 7.10211937 9.54587166 16.80200679 12 26 C8.09698644 22.90450649 7.09786031 19.77579553 5.7265625 15.1796875 C5.02415046 12.80976216 5.02415046 12.80976216 3.3125 10.1875 C2 8 2 8 2 4 C1.34 4 0.68 4 0 4 C0 2.68 0 1.36 0 0 Z " fill="#FEF8C9" transform="translate(283,148)"/>
<path d="M0 0 C1.98 0 3.96 0 6 0 C6 0.99 6 1.98 6 3 C4.68 2.67 3.36 2.34 2 2 C2 2.66 2 3.32 2 4 C2.804375 4.2475 3.60875 4.495 4.4375 4.75 C7 6 7 6 7.875 8 C8 10 8 10 7 12 C4.69 12 2.38 12 0 12 C-0.33 11.01 -0.66 10.02 -1 9 C1.97 9.495 1.97 9.495 5 10 C5 9.34 5 8.68 5 8 C3.02 7.01 1.04 6.02 -1 5 C-0.67 3.35 -0.34 1.7 0 0 Z " fill="#6F5B0D" transform="translate(197,309)"/>
<path d="M0 0 C3.69230769 0.69230769 3.69230769 0.69230769 5 2 C5.04092937 4.33297433 5.04241723 6.66705225 5 9 C3.35 9 1.7 9 0 9 C-1.36623674 6.26752652 -1.128426 4.01801098 -1 1 C-0.67 0.67 -0.34 0.34 0 0 Z " fill="#E7B72C" transform="translate(229,306)"/>
<path d="M0 0 C0.99 0.33 1.98 0.66 3 1 C3 1.99 3 2.98 3 4 C4.98 3.67 6.96 3.34 9 3 C9.33 3.66 9.66 4.32 10 5 C8.68 5 7.36 5 6 5 C4.68 7.97 3.36 10.94 2 14 C1 10 1 10 2 8 C-1.3 8 -4.6 8 -8 8 C-7.34 7.01 -6.68 6.02 -6 5 C-3.69 5.33 -1.38 5.66 1 6 C0.67 4.02 0.34 2.04 0 0 Z " fill="#DAB23A" transform="translate(146,294)"/>
<path d="M0 0 C0.66 0 1.32 0 2 0 C2.15855469 0.66644531 2.31710938 1.33289063 2.48046875 2.01953125 C4.07010387 8.2990291 6.17849489 13.95991427 9.01171875 19.78515625 C10 22 10 22 10 24 C10.99 24.33 11.98 24.66 13 25 C12.67 26.32 12.34 27.64 12 29 C8.03210218 23.14664719 5.09354596 17.16320971 2.625 10.5625 C2.36251465 9.86447266 2.1000293 9.16644531 1.82958984 8.44726562 C0.7598134 5.49981987 0 3.15962187 0 0 Z " fill="#FEF9C9" transform="translate(105,224)"/>
<path d="M0 0 C2.125 0.375 2.125 0.375 4 1 C4.125 3.875 4.125 3.875 4 7 C3.34 7.66 2.68 8.32 2 9 C0.68 9 -0.64 9 -2 9 C-2.125 5.625 -2.125 5.625 -2 2 C-1.34 1.34 -0.68 0.68 0 0 Z " fill="#E0B53A" transform="translate(164,305)"/>
<path d="M0 0 C1.52299523 2.93720508 2.80100302 5.9168649 4 9 C6.64 9.33 9.28 9.66 12 10 C12 10.66 12 11.32 12 12 C8.39906035 12.92117061 6.61372229 13.28640374 3.1875 11.6875 C1 10 1 10 0 8 C-0.13415472 5.3276379 -0.04318541 2.67749512 0 0 Z " fill="#EAEFF2" transform="translate(263,60)"/>
<path d="M0 0 C6.625 0.75 6.625 0.75 10 3 C3.6 7.06153846 3.6 7.06153846 0.5625 6.75 C0.046875 6.5025 -0.46875 6.255 -1 6 C-0.67 4.02 -0.34 2.04 0 0 Z " fill="#3E4F55" transform="translate(149,343)"/>
<path d="M0 0 C2.69082872 0.17635452 5.32851446 0.61835921 8 1 C8 1.66 8 2.32 8 3 C5.69 2.67 3.38 2.34 1 2 C1 3.32 1 4.64 1 6 C2.65 6.33 4.3 6.66 6 7 C2.25 8.125 2.25 8.125 0 7 C-0.33 8.65 -0.66 10.3 -1 12 C-1.66 11.67 -2.32 11.34 -3 11 C-2.69217504 9.35328588 -2.37860766 7.70764424 -2.0625 6.0625 C-1.88847656 5.14597656 -1.71445313 4.22945313 -1.53515625 3.28515625 C-1 1 -1 1 0 0 Z " fill="#6E5A10" transform="translate(175,306)"/>
<path d="M0 0 C5.18996171 0.89202467 10.11946714 2.56993865 15.1171875 4.18359375 C18.72304081 5.33338471 22.2676342 6.35849963 26 7 C26 7.33 26 7.66 26 8 C22.7 8 19.4 8 16 8 C16 7.34 16 6.68 16 6 C12.37 5.67 8.74 5.34 5 5 C4.67 4.01 4.34 3.02 4 2 C2.68 2 1.36 2 0 2 C0 1.34 0 0.68 0 0 Z " fill="#4B4C2C" transform="translate(148,319)"/>
<path d="M0 0 C1.15056074 3.34764216 0.89420005 5.01998619 -0.546875 8.22265625 C-0.8975 9.00833984 -1.248125 9.79402344 -1.609375 10.60351562 C-2.17398437 11.82071289 -2.17398437 11.82071289 -2.75 13.0625 C-3.1109375 13.87783203 -3.471875 14.69316406 -3.84375 15.53320312 C-5.5412577 19.27571557 -6.92184945 22.20432406 -10 25 C-9.47731534 22.23723823 -8.89130413 19.6739124 -8 17 C-7.34 17 -6.68 17 -6 17 C-6 15.68 -6 14.36 -6 13 C-5.34 13 -4.68 13 -4 13 C-4 11.35 -4 9.7 -4 8 C-3.34 8 -2.68 8 -2 8 C-1.855625 7.236875 -1.71125 6.47375 -1.5625 5.6875 C-1 3 -1 3 0 0 Z " fill="#FEFACE" transform="translate(293,227)"/>
<path d="M0 0 C4.875 4.625 4.875 4.625 6 8 C5.01 8 4.02 8 3 8 C2.34 8.66 1.68 9.32 1 10 C-0.5625 8.875 -0.5625 8.875 -2 7 C-1.56521739 1.56521739 -1.56521739 1.56521739 0 0 Z " fill="#454E54" transform="translate(322,108)"/>
<path d="M0 0 C0.66 0.33 1.32 0.66 2 1 C-2.38692098 5.76294278 -2.38692098 5.76294278 -5.34375 6.90625 C-8.49457791 8.20364973 -10.69089268 9.95780462 -13.3125 12.125 C-14.19550781 12.84945312 -15.07851562 13.57390625 -15.98828125 14.3203125 C-16.65214844 14.87460938 -17.31601563 15.42890625 -18 16 C-18.66 15.67 -19.32 15.34 -20 15 C-6.74351585 3.62151777 -6.74351585 3.62151777 0 0 Z " fill="#D8B23A" transform="translate(133,89)"/>
<path d="M0 0 C1 1 1 1 1.0625 3.5625 C1.041875 4.366875 1.02125 5.17125 1 6 C-2.34373475 5.44271087 -5.03312999 4.64826111 -8 3 C-7.67 2.01 -7.34 1.02 -7 0 C-4.31633121 -1.3418344 -2.84719317 -0.73004953 0 0 Z " fill="#515B5F" transform="translate(276,57)"/>
<path d="M0 0 C-0.103125 0.928125 -0.20625 1.85625 -0.3125 2.8125 C-0.209375 3.864375 -0.10625 4.91625 0 6 C2.44496043 7.71711243 2.44496043 7.71711243 5 9 C5 9.99 5 10.98 5 12 C2.42468508 11.65198447 0.45167104 11.29035995 -1.75 9.875 C-3.61159182 7.08261228 -3.68969198 4.28926502 -4 1 C-2 0 -2 0 0 0 Z " fill="#E6EEF2" transform="translate(321,109)"/>
<path d="M0 0 C0.99 0.33 1.98 0.66 3 1 C2.01 2.175625 2.01 2.175625 1 3.375 C-1.20201441 5.71512812 -1.20201441 5.71512812 -1 8 C-0.01 8.66 0.98 9.32 2 10 C1.67 10.99 1.34 11.98 1 13 C-0.98 11.68 -2.96 10.36 -5 9 C-3.7508258 5.54074837 -2.32472205 2.85306797 0 0 Z " fill="#A7B8BF" transform="translate(331,274)"/>
<path d="M0 0 C1.9375 1.375 1.9375 1.375 3 3 C3 3.66 3 4.32 3 5 C2.01 5 1.02 5 0 5 C-0.33 4.34 -0.66 3.68 -1 3 C-3.37305578 2.58219121 -3.37305578 2.58219121 -6 3 C-7.78969026 5.42672567 -7.78969026 5.42672567 -9 8 C-9.33 8 -9.66 8 -10 8 C-10.21917317 5.29686424 -10.32851983 3.56041618 -8.9375 1.1875 C-5.90624457 -0.67036623 -3.46577141 -0.37133265 0 0 Z " fill="#A7B8C0" transform="translate(225,347)"/>
<path d="M0 0 C4.41611524 1.7664461 6.08995952 2.55106313 9 6 C9 6.66 9 7.32 9 8 C8.01 8 7.02 8 6 8 C6 8.66 6 9.32 6 10 C5.34 10 4.68 10 4 10 C2.68 6.7 1.36 3.4 0 0 Z " fill="#3E4F57" transform="translate(256,344)"/>
<path d="M0 0 C1.32 0.33 2.64 0.66 4 1 C2.82744291 4.33727786 1.81131596 6.77437487 -1 9 C-1.66 9 -2.32 9 -3 9 C-3.33 9.99 -3.66 10.98 -4 12 C-4.66 11.34 -5.32 10.68 -6 10 C-4.68 8.68 -3.36 7.36 -2 6 C-2.33 5.34 -2.66 4.68 -3 4 C-2.34 4 -1.68 4 -1 4 C-0.67 2.68 -0.34 1.36 0 0 Z " fill="#778389" transform="translate(327,89)"/>
<path d="M0 0 C1.32 0 2.64 0 4 0 C5.625 2.375 5.625 2.375 7 5 C7.66 5.66 8.32 6.32 9 7 C8.01 7 7.02 7 6 7 C5.67 7.66 5.34 8.32 5 9 C4.401875 8.38125 3.80375 7.7625 3.1875 7.125 C0.99188856 4.86323046 0.99188856 4.86323046 -2 3 C-1.34 3 -0.68 3 0 3 C0 2.01 0 1.02 0 0 Z " fill="#4B595E" transform="translate(88,82)"/>
<path d="M0 0 C1.2375 0.1546875 1.2375 0.1546875 2.5 0.3125 C3.16 1.3025 3.82 2.2925 4.5 3.3125 C0.54 5.2925 0.54 5.2925 -3.5 7.3125 C-4.125 4.9375 -4.125 4.9375 -4.5 2.3125 C-2.5 0.3125 -2.5 0.3125 0 0 Z " fill="#48535A" transform="translate(122.5,57.6875)"/>
<path d="M0 0 C0.5775 0.680625 1.155 1.36125 1.75 2.0625 C2.4925 2.701875 3.235 3.34125 4 4 C6.39788436 3.78842197 7.85584361 3.07207819 10 2 C9.67 1.34 9.34 0.68 9 0 C9.99 0 10.98 0 12 0 C12 1.32 12 2.64 12 4 C7.84920663 6.37188193 4.81106927 7.74838855 0 7 C-1.875 5 -1.875 5 -3 3 C-0.525 3.99 -0.525 3.99 2 5 C1.34 3.35 0.68 1.7 0 0 Z " fill="#DFB336" transform="translate(261,296)"/>
<path d="M0 0 C0.66 0 1.32 0 2 0 C2.36368892 1.60203467 2.71561952 3.20674203 3.0625 4.8125 C3.25972656 5.70582031 3.45695313 6.59914063 3.66015625 7.51953125 C4 10 4 10 3 13 C2.01 13.495 2.01 13.495 1 14 C0.06380187 10.84493858 -0.1057123 8.03413498 -0.0625 4.75 C-0.05347656 3.85796875 -0.04445312 2.9659375 -0.03515625 2.046875 C-0.02355469 1.37140625 -0.01195312 0.6959375 0 0 Z " fill="#9CADB5" transform="translate(161,344)"/>
<path d="M0 0 C0.99 0.33 1.98 0.66 3 1 C2.34 1 1.68 1 1 1 C1.66 4.96 2.32 8.92 3 13 C1.02 13.33 -0.96 13.66 -3 14 C-3 12.02 -3 10.04 -3 8 C-2.34 8 -1.68 8 -1 8 C-0.67 5.36 -0.34 2.72 0 0 Z " fill="#DFB537" transform="translate(219,306)"/>
<path d="M0 0 C2.875 -0.125 2.875 -0.125 6 0 C6.66 0.66 7.32 1.32 8 2 C7.625 4.625 7.625 4.625 7 7 C6.01 7 5.02 7 4 7 C2.02 3.535 2.02 3.535 0 0 Z " fill="#424D51" transform="translate(325,106)"/>
<path d="M0 0 C6.52307692 0.61538462 6.52307692 0.61538462 8.9375 2.5625 C9.288125 3.036875 9.63875 3.51125 10 4 C9.67 4.99 9.34 5.98 9 7 C8.443125 6.690625 7.88625 6.38125 7.3125 6.0625 C4.87459567 4.94238179 2.63775814 4.43962636 0 4 C0 2.66666667 0 1.33333333 0 0 Z " fill="#E5E8EC" transform="translate(148,36)"/>
<path d="M0 0 C0 0.99 0 1.98 0 3 C-0.86625 2.731875 -1.7325 2.46375 -2.625 2.1875 C-6.33112587 1.98160412 -6.70984739 2.17846588 -9.375 4.4375 C-10.24125 5.283125 -11.1075 6.12875 -12 7 C-11.6815535 4.05436986 -11.33733608 2.38923394 -9.375 0.125 C-6.00901647 -1.46941325 -3.56578737 -0.75430117 0 0 Z " fill="#A7B7BF" transform="translate(284,328)"/>
<path d="M0 0 C0.99 0 1.98 0 3 0 C2.814375 0.9075 2.62875 1.815 2.4375 2.75 C2.04265379 5.68314324 2.05308428 7.2644657 3 10 C-0.33333333 8.33333333 -3.66666667 6.66666667 -7 5 C-3.25 3.875 -3.25 3.875 -1 5 C-0.67 3.35 -0.34 1.7 0 0 Z " fill="#DCB237" transform="translate(244,297)"/>
<path d="M0 0 C0.66 0 1.32 0 2 0 C1.52758009 4.25177923 -0.84964071 6.29969203 -4 9 C-4.99 9 -5.98 9 -7 9 C-7.33 9.99 -7.66 10.98 -8 12 C-8.66 11.34 -9.32 10.68 -10 10 C-9.34 10 -8.68 10 -8 10 C-8 9.34 -8 8.68 -8 8 C-7.34 8 -6.68 8 -6 8 C-6 7.34 -6 6.68 -6 6 C-5.34 6 -4.68 6 -4 6 C-3.71125 5.38125 -3.4225 4.7625 -3.125 4.125 C-2 2 -2 2 0 0 Z " fill="#7B6E95" transform="translate(224,170)"/>
<path d="M0 0 C0.33 1.65 0.66 3.3 1 5 C0.34 5 -0.32 5 -1 5 C-1.33 5.99 -1.66 6.98 -2 8 C-4.475 4.04 -4.475 4.04 -7 0 C-3 -1 -3 -1 0 0 Z " fill="#435059" transform="translate(116,65)"/>
<path d="M0 0 C0 3.3 0 6.6 0 10 C-0.66 10 -1.32 10 -2 10 C-2.33 10.66 -2.66 11.32 -3 12 C-3.24954005 10.56589632 -3.47392642 9.12739928 -3.6875 7.6875 C-3.81511719 6.88699219 -3.94273437 6.08648437 -4.07421875 5.26171875 C-4 3 -4 3 -2.58203125 1.20703125 C-1 0 -1 0 0 0 Z " fill="#E6ECEE" transform="translate(217,41)"/>
<path d="M0 0 C3.00140922 3.71045773 5.89335474 7.48963648 8.75 11.3125 C9.16121094 11.86228516 9.57242188 12.41207031 9.99609375 12.97851562 C10.99813666 14.31845673 11.99917397 15.65914974 13 17 C12.67 17.66 12.34 18.32 12 19 C11.51789063 18.36191406 11.03578125 17.72382813 10.5390625 17.06640625 C9.90742187 16.24011719 9.27578125 15.41382813 8.625 14.5625 C7.99851562 13.73878906 7.37203125 12.91507812 6.7265625 12.06640625 C5.16246096 9.91471908 5.16246096 9.91471908 3 9 C3 8.01 3 7.02 3 6 C2.34 6 1.68 6 1 6 C0.67 4.02 0.34 2.04 0 0 Z " fill="#54522A" transform="translate(88,265)"/>
<path d="M0 0 C0.66 0 1.32 0 2 0 C1.71125 0.556875 1.4225 1.11375 1.125 1.6875 C-1.58951598 6.66089507 -1.58951598 6.66089507 -1 12 C-2.32 11.67 -3.64 11.34 -5 11 C-5.33 9.35 -5.66 7.7 -6 6 C-5.195625 5.38125 -4.39125 4.7625 -3.5625 4.125 C-0.96125481 2.25835959 -0.96125481 2.25835959 0 0 Z " fill="#F0F7F8" transform="translate(295,76)"/>
<path d="M0 0 C1 3 1 3 0.328125 5.0078125 C-0.02765625 5.70648438 -0.3834375 6.40515625 -0.75 7.125 C-1.26820313 8.18074219 -1.26820313 8.18074219 -1.796875 9.2578125 C-3 11 -3 11 -6 12 C-5.73781251 7.5428126 -5.42288711 5.48477302 -2.4375 2.0625 C-1.633125 1.381875 -0.82875 0.70125 0 0 Z " fill="#F3F6F8" transform="translate(249,41)"/>
<path d="M0 0 C0.66 0.33 1.32 0.66 2 1 C2.1875 3.875 2.1875 3.875 2 7 C-1 9 -1 9 -3.1875 8.625 C-3.785625 8.41875 -4.38375 8.2125 -5 8 C-3.98379995 4.95139986 -3.22608429 4.13333078 -1 2 C-0.67 1.34 -0.34 0.68 0 0 Z " fill="#465056" transform="translate(108,84)"/>
<path d="M0 0 C0 0.99 0 1.98 0 3 C-2 5 -2 5 -4 7 C-4.12375 7.70125 -4.2475 8.4025 -4.375 9.125 C-4.58125 9.74375 -4.7875 10.3625 -5 11 C-8.0625 12.25 -8.0625 12.25 -11 13 C-9.46356148 9.31930113 -7.21849055 7.01224796 -4.375 4.25 C-3.55773437 3.45078125 -2.74046875 2.6515625 -1.8984375 1.828125 C-0.95871094 0.92320313 -0.95871094 0.92320313 0 0 Z " fill="#E0B33C" transform="translate(112,105)"/>
<path d="M0 0 C-5.07735551 4.63584633 -12.3526143 6.14777106 -19 7 C-15.7141754 4.24832423 -12.36372513 2.78066201 -8.375 1.25 C-7.22773438 0.80140625 -6.08046875 0.3528125 -4.8984375 -0.109375 C-2 -1 -2 -1 0 0 Z " fill="#D5B03B" transform="translate(161,78)"/>
<path d="M0 0 C2.31 0.66 4.62 1.32 7 2 C6.67 2.99 6.34 3.98 6 5 C4.35 4.67 2.7 4.34 1 4 C0.67 4.66 0.34 5.32 0 6 C0.66 6.33 1.32 6.66 2 7 C0.68 6.67 -0.64 6.34 -2 6 C-1.34 4.02 -0.68 2.04 0 0 Z " fill="#D9B43D" transform="translate(209,314)"/>
<path d="M0 0 C0.66 0.33 1.32 0.66 2 1 C-1.17320782 4.53586014 -3.16743695 6.58578031 -8 7 C-7.67 5.35 -7.34 3.7 -7 2 C-6.21625 1.855625 -5.4325 1.71125 -4.625 1.5625 C-2.03578982 1.12201075 -2.03578982 1.12201075 0 0 Z " fill="#F6FAFC" transform="translate(339,131)"/>
<path d="M0 0 C3.99996286 1.33332095 4.83782337 3.4957827 7 7 C8.98 6.67 10.96 6.34 13 6 C11.25 8.0625 11.25 8.0625 9 10 C6.41801825 9.78483485 5.31089225 9.32643687 3.515625 7.44140625 C3.09796875 6.82136719 2.6803125 6.20132812 2.25 5.5625 C1.82203125 4.94503906 1.3940625 4.32757813 0.953125 3.69140625 C0 2 0 2 0 0 Z " fill="#6C570B" transform="translate(259,291)"/>
<path d="M0 0 C0.33 0.66 0.66 1.32 1 2 C-1.31 5.3 -3.62 8.6 -6 12 C-6.33 10.68 -6.66 9.36 -7 8 C-6.34 8 -5.68 8 -5 8 C-5.33 7.01 -5.66 6.02 -6 5 C-4.68 4.34 -3.36 3.68 -2 3 C-2 2.34 -2 1.68 -2 1 C-1.34 0.67 -0.68 0.34 0 0 Z " fill="#DCB431" transform="translate(308,268)"/>
<path d="M0 0 C0.99 0.33 1.98 0.66 3 1 C0.03 4.96 0.03 4.96 -3 9 C-4.32 8.67 -5.64 8.34 -7 8 C-4.69 5.36 -2.38 2.72 0 0 Z " fill="#A0B1B9" transform="translate(105,316)"/>
<path d="M0 0 C0.33 0.66 0.66 1.32 1 2 C0.0625 4.125 0.0625 4.125 -1 6 C-1.33 4.68 -1.66 3.36 -2 2 C-3.32 2.33 -4.64 2.66 -6 3 C-6.33 4.98 -6.66 6.96 -7 9 C-8.125 7.3125 -8.125 7.3125 -9 5 C-8.25 2.3125 -8.25 2.3125 -7 0 C-4.30234372 -1.34882814 -2.84835666 -0.80338265 0 0 Z " fill="#7A671E" transform="translate(169,304)"/>
<path d="M0 0 C0 3 0 3 -1.5625 5.5 C-2.036875 6.325 -2.51125 7.15 -3 8 C-2.67 8.99 -2.34 9.98 -2 11 C-4.475 10.01 -4.475 10.01 -7 9 C-5.44499019 5.18315774 -2.96404505 2.80804268 0 0 Z " fill="#53A344" transform="translate(166,229)"/>
<path d="M0 0 C0.66 0 1.32 0 2 0 C-1.07517084 10.55808656 -1.07517084 10.55808656 -3 15 C-3.33 15 -3.66 15 -4 15 C-4.33 12.69 -4.66 10.38 -5 8 C-4.01 8 -3.02 8 -2 8 C-2 6.35 -2 4.7 -2 3 C-1.34 3 -0.68 3 0 3 C0 2.01 0 1.02 0 0 Z " fill="#EBBA34" transform="translate(109,157)"/>
<path d="M0 0 C5.07648175 2.78387709 9.4833069 6.40829416 14 10 C12 11 12 11 8.5625 9.875 C5.03764929 8.29539885 3.7382866 6.4765732 2 3 C1.34 2.67 0.68 2.34 0 2 C0 1.34 0 0.68 0 0 Z " fill="#EDBD3E" transform="translate(131,271)"/>
<path d="M0 0 C0 0.33 0 0.66 0 1 C-2.76937583 1.52992381 -5.54003079 2.0492458 -8.3125 2.5625 C-9.09818359 2.71396484 -9.88386719 2.86542969 -10.69335938 3.02148438 C-11.45068359 3.16005859 -12.20800781 3.29863281 -12.98828125 3.44140625 C-13.68477783 3.57232666 -14.38127441 3.70324707 -15.09887695 3.83813477 C-17 4 -17 4 -20 3 C-13.45841601 -0.65111665 -7.36120371 -0.29887594 0 0 Z " fill="#4D4B29" transform="translate(186,71)"/>
<path d="M0 0 C0.66 0.99 1.32 1.98 2 3 C-1.4352048 5.29013653 -2.985331 5.17842973 -7 5 C-7.33 4.01 -7.66 3.02 -8 2 C-6.865625 1.855625 -5.73125 1.71125 -4.5625 1.5625 C-1.19222799 1.38828522 -1.19222799 1.38828522 0 0 Z " fill="#9AABB3" transform="translate(136,349)"/>
<path d="M0 0 C2 0.75 2 0.75 4 3.75 C3.34 3.75 2.68 3.75 2 3.75 C1.67 4.41 1.34 5.07 1 5.75 C0.01 6.245 0.01 6.245 -1 6.75 C-1.99 4.77 -2.98 2.79 -4 0.75 C-2 -0.25 -2 -0.25 0 0 Z " fill="#3E4F57" transform="translate(294,323.25)"/>
<path d="M0 0 C2.97 0.495 2.97 0.495 6 1 C6.33 2.98 6.66 4.96 7 7 C6.34 7 5.68 7 5 7 C5 6.34 5 5.68 5 5 C3.35 4.67 1.7 4.34 0 4 C0 2.68 0 1.36 0 0 Z " fill="#D6AC2D" transform="translate(199,310)"/>
<path d="M0 0 C0.99 0.66 1.98 1.32 3 2 C1.8572081 3.16964602 0.71068285 4.33564556 -0.4375 5.5 C-1.07558594 6.1496875 -1.71367187 6.799375 -2.37109375 7.46875 C-4 9 -4 9 -5 9 C-5 6.69 -5 4.38 -5 2 C-3.02 2.99 -3.02 2.99 -1 4 C-0.67 2.68 -0.34 1.36 0 0 Z " fill="#E8B835" transform="translate(293,285)"/>
<path d="M0 0 C7.48291572 6.15034169 7.48291572 6.15034169 10 10 C7.69 9.34 5.38 8.68 3 8 C3 6.68 3 5.36 3 4 C2.01 4 1.02 4 0 4 C0 2.68 0 1.36 0 0 Z " fill="#E2B73A" transform="translate(285,103)"/>
<path d="M0 0 C3.375 0.3125 3.375 0.3125 7 1 C7.66 1.99 8.32 2.98 9 4 C8.01 4.66 7.02 5.32 6 6 C6 5.34 6 4.68 6 4 C3.03 3.505 3.03 3.505 0 3 C0 2.01 0 1.02 0 0 Z " fill="#E3EBED" transform="translate(179,36)"/>
<path d="M0 0 C0.66 0.33 1.32 0.66 2 1 C1.01 3.97 0.02 6.94 -1 10 C-3 8 -3 8 -3.3125 5.5625 C-2.95209822 2.60720543 -2.28773145 1.81112073 0 0 Z " fill="#9DAEB5" transform="translate(89,317)"/>
<path d="M0 0 C2.88437779 1.29299694 4.87219421 2.65941363 7 5 C6.34 5 5.68 5 5 5 C4.67 6.65 4.34 8.3 4 10 C2.68 9.67 1.36 9.34 0 9 C0.33 7.68 0.66 6.36 1 5 C1.33 5.99 1.66 6.98 2 8 C1.47731534 5.23723823 0.89130413 2.6739124 0 0 Z " fill="#D2AE3D" transform="translate(240,305)"/>
<path d="M0 0 C0.99 0.33 1.98 0.66 3 1 C2.34 1.66 1.68 2.32 1 3 C1 4.32 1 5.64 1 7 C0.01 7 -0.98 7 -2 7 C-2.33 8.65 -2.66 10.3 -3 12 C-3.66 11.34 -4.32 10.68 -5 10 C-3.35 6.7 -1.7 3.4 0 0 Z " fill="#675712" transform="translate(152,298)"/>
<path d="M0 0 C2 0 2 0 4.125 1.8125 C6 4 6 4 6 7 C6.99 7 7.98 7 9 7 C9.33 8.65 9.66 10.3 10 12 C5.22864787 8.42148591 2.70923672 5.31427203 0 0 Z " fill="#DFB43C" transform="translate(97,277)"/>
<path d="M0 0 C0 3.61537605 -0.89229241 5.11165997 -3 8 C-3.99 8 -4.98 8 -6 8 C-6 8.99 -6 9.98 -6 11 C-6.99 10.67 -7.98 10.34 -9 10 C-6.03 6.7 -3.06 3.4 0 0 Z " fill="#ECC146" transform="translate(159,187)"/>
<path d="M0 0 C1 2 1 2 0.25 5.0625 C-0.1625 6.031875 -0.575 7.00125 -1 8 C-1.99 8.33 -2.98 8.66 -4 9 C-4 9.99 -4 10.98 -4 12 C-4.66 12 -5.32 12 -6 12 C-4.68139111 7.38486888 -2.78644563 3.90102388 0 0 Z " fill="#D6594B" transform="translate(167,172)"/>
<path d="M0 0 C0.99 0.99 1.98 1.98 3 3 C2.34 3 1.68 3 1 3 C1.34444881 5.47266765 1.34444881 5.47266765 2 8 C2.66 8.33 3.32 8.66 4 9 C3.34 10.65 2.68 12.3 2 14 C1.67 14 1.34 14 1 14 C-0.20568053 9.32798795 -0.09382426 4.78503708 0 0 Z " fill="#625512" transform="translate(252,295)"/>
<path d="M0 0 C-0.8125 1.9375 -0.8125 1.9375 -2 4 C-5.47325181 5.1577506 -8.36067448 5.06866652 -12 5 C-9.9330412 2.9330412 -8.69369158 2.35542451 -6 1.375 C-5.29875 1.11460937 -4.5975 0.85421875 -3.875 0.5859375 C-2 0 -2 0 0 0 Z " fill="#EDBC3A" transform="translate(243,289)"/>
<path d="M0 0 C3.465 1.485 3.465 1.485 7 3 C6.67 3.99 6.34 4.98 6 6 C3.69 5.67 1.38 5.34 -1 5 C-0.67 3.35 -0.34 1.7 0 0 Z " fill="#DCB133" transform="translate(196,314)"/>
<path d="M0 0 C0.66 0.66 1.32 1.32 2 2 C-0.97 4.64 -3.94 7.28 -7 10 C-7 7 -7 7 -5.46875 5.17578125 C-4.8190625 4.56089844 -4.169375 3.94601562 -3.5 3.3125 C-2.8503125 2.68988281 -2.200625 2.06726563 -1.53125 1.42578125 C-0.77328125 0.72001953 -0.77328125 0.72001953 0 0 Z " fill="#A6B7BF" transform="translate(314,297)"/>
<path d="M0 0 C2.475 0.495 2.475 0.495 5 1 C5 2.32 5 3.64 5 5 C2.5 6.75 2.5 6.75 0 8 C0 5.36 0 2.72 0 0 Z " fill="#46555A" transform="translate(328,116)"/>
<path d="M0 0 C0.33 0.99 0.66 1.98 1 3 C1.66 3 2.32 3 3 3 C3 2.01 3 1.02 3 0 C3.66 0 4.32 0 5 0 C5.99 1.98 6.98 3.96 8 6 C6.51800098 5.55090939 5.03944764 5.09043436 3.5625 4.625 C2.73878906 4.36976562 1.91507812 4.11453125 1.06640625 3.8515625 C-1 3 -1 3 -2 1 C-1.34 0.67 -0.68 0.34 0 0 Z " fill="#465256" transform="translate(105,71)"/>
<path d="M0 0 C1.98 0 3.96 0 6 0 C6 1.32 6 2.64 6 4 C4.02 4 2.04 4 0 4 C0 2.68 0 1.36 0 0 Z " fill="#DDB73D" transform="translate(186,315)"/>
<path d="M0 0 C2.625 1.125 2.625 1.125 5 3 C5.3125 5.6875 5.3125 5.6875 5 8 C4.401875 7.360625 3.80375 6.72125 3.1875 6.0625 C1.09189663 3.79689611 1.09189663 3.79689611 -2 3 C-2 2.34 -2 1.68 -2 1 C-1.34 0.67 -0.68 0.34 0 0 Z " fill="#F1F8FA" transform="translate(340,119)"/>
<path d="M0 0 C3.24732932 1.62366466 3.70155136 4.75387839 5 8 C3.68 8.33 2.36 8.66 1 9 C-0.4783226 6.04335481 -0.06032783 3.25770263 0 0 Z " fill="#F3F9FB" transform="translate(63,106)"/>
<path d="M0 0 C0.66 0 1.32 0 2 0 C2.33 2.31 2.66 4.62 3 7 C1.68 6.67 0.36 6.34 -1 6 C-1.042721 4.33388095 -1.04063832 2.66617115 -1 1 C-0.67 0.67 -0.34 0.34 0 0 Z " fill="#E1E9EB" transform="translate(261,43)"/>
<path d="M0 0 C0.99 0.33 1.98 0.66 3 1 C3 2.65 3 4.3 3 6 C2.01 6.495 2.01 6.495 1 7 C0.67 7.99 0.34 8.98 0 10 C-0.66 9.67 -1.32 9.34 -2 9 C-1.34 6.03 -0.68 3.06 0 0 Z " fill="#E4E9ED" transform="translate(228,30)"/>
<path d="M0 0 C0.25 7.5 0.25 7.5 -2 12 C-2 8.7 -2 5.4 -2 2 C-2.99 1.67 -3.98 1.34 -5 1 C-2 0 -2 0 0 0 Z " fill="#E2B940" transform="translate(185,308)"/>
<path d="M0 0 C1.14266516 3.35897545 0.85911331 5.30450352 -0.3125 8.625 C-0.70888672 9.78902344 -0.70888672 9.78902344 -1.11328125 10.9765625 C-2 13 -2 13 -4 15 C-3.43179252 9.54520815 -2.05362055 5.08940744 0 0 Z " fill="#FEF5C2" transform="translate(109,161)"/>
<path d="M0 0 C0.99 1.485 0.99 1.485 2 3 C1.01 3.495 1.01 3.495 0 4 C0 2.68 0 1.36 0 0 Z M-1 6 C-1 6.66 -1 7.32 -1 8 C-2.98 8.33 -4.96 8.66 -7 9 C-7 8.01 -7 7.02 -7 6 C-3.25 4.875 -3.25 4.875 -1 6 Z " fill="#E2ECEE" transform="translate(110,87)"/>
<path d="M0 0 C1.32 0.66 2.64 1.32 4 2 C4 2.99 4 3.98 4 5 C4.99 5.33 5.98 5.66 7 6 C3.625 5.6875 3.625 5.6875 0 5 C-0.66 4.01 -1.32 3.02 -2 2 C-1.34 1.34 -0.68 0.68 0 0 Z " fill="#E1E3E8" transform="translate(120,68)"/>
<path d="M0 0 C0.33 1.32 0.66 2.64 1 4 C-0.32 4.33 -1.64 4.66 -3 5 C-1.125 1.125 -1.125 1.125 0 0 Z " fill="#334249" transform="translate(59,71)"/>
<path d="M0 0 C1.98567708 0.09765625 3.97135417 0.1953125 5.95703125 0.29296875 C5.62703125 1.28296875 5.29703125 2.27296875 4.95703125 3.29296875 C1.65703125 3.29296875 -1.64296875 3.29296875 -5.04296875 3.29296875 C-2.04296875 0.29296875 -2.04296875 0.29296875 0 0 Z " fill="#90A1A7" transform="translate(344.04296875,279.70703125)"/>
<path d="M0 0 C2.97 0.495 2.97 0.495 6 1 C6 2.32 6 3.64 6 5 C3.69 4.34 1.38 3.68 -1 3 C-0.67 2.01 -0.34 1.02 0 0 Z " fill="#EEF5F8" transform="translate(320,81)"/>
<path d="M0 0 C0.33 0 0.66 0 1 0 C1 2.31 1 4.62 1 7 C0.34 7 -0.32 7 -1 7 C-1.33 7.66 -1.66 8.32 -2 9 C-2.66 7.02 -3.32 5.04 -4 3 C-3.01 3.33 -2.02 3.66 -1 4 C-0.67 2.68 -0.34 1.36 0 0 Z " fill="#F9FDFD" transform="translate(229,36)"/>
<path d="M0 0 C2.79872437 2.52788007 4.45773019 4.20411134 5 8 C4.01 8.33 3.02 8.66 2 9 C0.14223235 5.86501708 -0.20140476 3.62528568 0 0 Z " fill="#95A6AE" transform="translate(271,332)"/>
<path d="M0 0 C2.64 1.98 5.28 3.96 8 6 C7.01 6.33 6.02 6.66 5 7 C5 6.34 5 5.68 5 5 C2.03 4.505 2.03 4.505 -1 4 C-0.67 2.68 -0.34 1.36 0 0 Z " fill="#454C33" transform="translate(113,296)"/>
<path d="M0 0 C1.32 0.66 2.64 1.32 4 2 C3.67 3.32 3.34 4.64 3 6 C1.68 5.67 0.36 5.34 -1 5 C-0.67 3.35 -0.34 1.7 0 0 Z " fill="#E1B846" transform="translate(142,294)"/>
<path d="M0 0 C2.125 0.375 2.125 0.375 4 1 C3.34 1 2.68 1 2 1 C1.731875 1.61875 1.46375 2.2375 1.1875 2.875 C0 5 0 5 -3 7 C-2.25 2.25 -2.25 2.25 0 0 Z " fill="#F3C040" transform="translate(130,127)"/>
<path d="M0 0 C0.391875 0.474375 0.78375 0.94875 1.1875 1.4375 C3.40808374 3.35179633 5.13375709 3.61266988 8 4 C7.67 4.66 7.34 5.32 7 6 C5.00045254 6.04254356 2.99958364 6.04080783 1 6 C0 5 0 5 -0.0625 2.4375 C-0.041875 1.633125 -0.02125 0.82875 0 0 Z " fill="#F5FCFD" transform="translate(176,49)"/>
<path d="M0 0 C0.33 0.99 0.66 1.98 1 3 C-1 5 -1 5 -4.125 5.125 C-5.548125 5.063125 -5.548125 5.063125 -7 5 C-6.67 4.01 -6.34 3.02 -6 2 C-2.9375 0.8125 -2.9375 0.8125 0 0 Z " fill="#98A9B1" transform="translate(84,312)"/>
<path d="M0 0 C2.69082872 0.17635452 5.32851446 0.61835921 8 1 C8 1.66 8 2.32 8 3 C5.69 2.67 3.38 2.34 1 2 C0.67 3.32 0.34 4.64 0 6 C-0.38218767 4.34385343 -0.71395102 2.67542976 -1 1 C-0.67 0.67 -0.34 0.34 0 0 Z " fill="#776315" transform="translate(175,306)"/>
<path d="M0 0 C1.76462683 3.08809695 2 4.23312136 2 8 C1.34 8 0.68 8 0 8 C-0.33 8.66 -0.66 9.32 -1 10 C-1.33 8.35 -1.66 6.7 -2 5 C-1.34 5 -0.68 5 0 5 C0 3.35 0 1.7 0 0 Z " fill="#DDB641" transform="translate(251,300)"/>
<path d="M0 0 C0.33 1.32 0.66 2.64 1 4 C-0.8125 5.5625 -0.8125 5.5625 -3 7 C-3.99 6.67 -4.98 6.34 -6 6 C-4.02 4.02 -2.04 2.04 0 0 Z " fill="#EFC449" transform="translate(273,265)"/>
<path d="M0 0 C0.33 1.32 0.66 2.64 1 4 C-0.9375 6.75 -0.9375 6.75 -3 9 C-3.99 8.67 -4.98 8.34 -6 8 C-4.02 5.36 -2.04 2.72 0 0 Z " fill="#EEC046" transform="translate(280,256)"/>
<path d="M0 0 C-1.4562545 0.67119549 -2.91507867 1.33681807 -4.375 2 C-5.59316406 2.556875 -5.59316406 2.556875 -6.8359375 3.125 C-9 4 -9 4 -11 4 C-10.67 3.01 -10.34 2.02 -10 1 C-6.19730268 -0.6900877 -3.94727832 -1.19873962 0 0 Z " fill="#D65826" transform="translate(171,183)"/>
<path d="M0 0 C2 1.1875 2 1.1875 4 3 C4.25 5.6875 4.25 5.6875 4 8 C3.34 8 2.68 8 2 8 C0.23537317 4.91190305 0 3.76687864 0 0 Z " fill="#F7F8FC" transform="translate(90,88)"/>
<path d="M0 0 C0.99 0.33 1.98 0.66 3 1 C1.375 3 1.375 3 -1 5 C-4.25 5.25 -4.25 5.25 -7 5 C-7 4.67 -7 4.34 -7 4 C-5.35 4 -3.7 4 -2 4 C-2 3.01 -2 2.02 -2 1 C-1.34 0.67 -0.68 0.34 0 0 Z " fill="#DFE5E8" transform="translate(105,85)"/>
<path d="M0 0 C2 1.125 2 1.125 4 3 C4.25 6.1875 4.25 6.1875 4 9 C3.34 9 2.68 9 2 9 C1.34 6.03 0.68 3.06 0 0 Z " fill="#A8B9C0" transform="translate(115,323)"/>
<path d="M0 0 C2.64 0.33 5.28 0.66 8 1 C8 1.66 8 2.32 8 3 C4.71303767 3.79953138 3.28976808 4.09658936 0 3 C0 2.01 0 1.02 0 0 Z " fill="#E8B930" transform="translate(184,320)"/>
<path d="M0 0 C2.31 0.33 4.62 0.66 7 1 C5.75 2.5625 5.75 2.5625 4 4 C1.8125 3.6875 1.8125 3.6875 0 3 C0 2.01 0 1.02 0 0 Z " fill="#D5B237" transform="translate(210,310)"/>
<path d="M0 0 C0.99 0 1.98 0 3 0 C3 1.98 3 3.96 3 6 C2.01 6.33 1.02 6.66 0 7 C0 4.69 0 2.38 0 0 Z " fill="#E4B328" transform="translate(156,306)"/>
<path d="M0 0 C1.32 0.66 2.64 1.32 4 2 C3.67 2.99 3.34 3.98 3 5 C1.68 4.67 0.36 4.34 -1 4 C-0.67 2.68 -0.34 1.36 0 0 Z " fill="#D9B343" transform="translate(153,300)"/>
<path d="M0 0 C0.33 0.66 0.66 1.32 1 2 C0.01 3.32 -0.98 4.64 -2 6 C-3.32 5.67 -4.64 5.34 -6 5 C-4.02 3.35 -2.04 1.7 0 0 Z " fill="#4E4F31" transform="translate(285,297)"/>
<path d="M0 0 C0.99 0.33 1.98 0.66 3 1 C-0.465 3.97 -0.465 3.97 -4 7 C-3.67 5.35 -3.34 3.7 -3 2 C-2.01 2 -1.02 2 0 2 C0 1.34 0 0.68 0 0 Z " fill="#484B2E" transform="translate(109,105)"/>
<path d="M0 0 C0.1875 2.375 0.1875 2.375 0 5 C-0.99 5.66 -1.98 6.32 -3 7 C-3.33 6.01 -3.66 5.02 -4 4 C-4.66 3.67 -5.32 3.34 -6 3 C-2.25 0 -2.25 0 0 0 Z " fill="#43545B" transform="translate(322,100)"/>
<path d="M0 0 C0.99 0.33 1.98 0.66 3 1 C3.33 1.99 3.66 2.98 4 4 C1.36 4.33 -1.28 4.66 -4 5 C-4 4.34 -4 3.68 -4 3 C-2.1875 1.3125 -2.1875 1.3125 0 0 Z " fill="#4B545B" transform="translate(327,99)"/>
<path d="M0 0 C3.36591866 1.44253657 5.51047079 3.33264727 8 6 C6.68 6 5.36 6 4 6 C4 5.34 4 4.68 4 4 C2.68 3.67 1.36 3.34 0 3 C0 2.01 0 1.02 0 0 Z " fill="#DAAF37" transform="translate(277,97)"/>
<path d="M0 0 C2.31 0.66 4.62 1.32 7 2 C7 2.66 7 3.32 7 4 C1.25 3.25 1.25 3.25 -1 1 C-0.67 0.67 -0.34 0.34 0 0 Z " fill="#9CADB3" transform="translate(148,349)"/>
<path d="M0 0 C0.99 0.33 1.98 0.66 3 1 C3.6875 3.0625 3.6875 3.0625 4 5 C3.01 5.66 2.02 6.32 1 7 C0.34 5.02 -0.32 3.04 -1 1 C-0.67 0.67 -0.34 0.34 0 0 Z " fill="#43545A" transform="translate(284,337)"/>
<path d="M0 0 C0.99 0 1.98 0 3 0 C2.49396008 2.16874252 2.00016187 3.99967627 1 6 C0.34 6 -0.32 6 -1 6 C-1.042721 4.33388095 -1.04063832 2.66617115 -1 1 C-0.67 0.67 -0.34 0.34 0 0 Z " fill="#F5B91A" transform="translate(164,307)"/>
<path d="M0 0 C3.375 0.25 3.375 0.25 7 1 C8.4375 3.0625 8.4375 3.0625 9 5 C5.22454612 3.90931332 2.52956528 3.0916909 0 0 Z " fill="#E6B627" transform="translate(254,296)"/>
<path d="M0 0 C0.33 0 0.66 0 1 0 C1 2.64 1 5.28 1 8 C0.01 8 -0.98 8 -2 8 C-2.33 6.68 -2.66 5.36 -3 4 C-2.01 4 -1.02 4 0 4 C0 2.68 0 1.36 0 0 Z " fill="#E7B724" transform="translate(250,297)"/>
<path d="M0 0 C0.99 0.33 1.98 0.66 3 1 C1.07423885 3.43929746 -0.80090595 5.80090595 -3 8 C-3.36923077 3.44615385 -3.36923077 3.44615385 -1.5 1.1875 C-1.005 0.795625 -0.51 0.40375 0 0 Z " fill="#A3B4BC" transform="translate(329,292)"/>
<path d="M0 0 C0.66 0 1.32 0 2 0 C1.46930939 3.82097239 0.50298434 6.06171403 -2 9 C-2 7.02 -2 5.04 -2 3 C-1.34 3 -0.68 3 0 3 C0 2.01 0 1.02 0 0 Z " fill="#DCAF39" transform="translate(317,249)"/>
<path d="M0 0 C0.33 0.99 0.66 1.98 1 3 C1.99 3.33 2.98 3.66 4 4 C2 5 2 5 0.0546875 4.44140625 C-0.66460937 4.15136719 -1.38390625 3.86132812 -2.125 3.5625 C-2.84945312 3.27503906 -3.57390625 2.98757812 -4.3203125 2.69140625 C-5.15175781 2.34916016 -5.15175781 2.34916016 -6 2 C-6 1.67 -6 1.34 -6 1 C-4.02 0.67 -2.04 0.34 0 0 Z " fill="#EFBB40" transform="translate(239,106)"/>
<path d="M0 0 C-1.3125 1.5 -1.3125 1.5 -3 3 C-3.99 3 -4.98 3 -6 3 C-6.99 3.495 -6.99 3.495 -8 4 C-5.97675095 -0.48005146 -4.79569304 -1.43870791 0 0 Z " fill="#E6EEEE" transform="translate(254,40)"/>
<path d="M0 0 C2.0625 0.4375 2.0625 0.4375 4 1 C1.03 3.475 1.03 3.475 -2 6 C-1.125 1.125 -1.125 1.125 0 0 Z " fill="#FEFEE3" transform="translate(155,187)"/>
<path d="M0 0 C0.6875 1.6875 0.6875 1.6875 1 4 C-0.4375 6.75 -0.4375 6.75 -2 9 C-2.66 8.01 -3.32 7.02 -4 6 C-3.34 5.01 -2.68 4.02 -2 3 C-1.34 3 -0.68 3 0 3 C0 2.01 0 1.02 0 0 Z " fill="#DAE4E8" transform="translate(94,93)"/>
<path d="M0 0 C0.99 0.99 1.98 1.98 3 3 C2.01 3.33 1.02 3.66 0 4 C-0.66 3.34 -1.32 2.68 -2 2 C-1.34 1.34 -0.68 0.68 0 0 Z M-4 3 C-3.34 3.33 -2.68 3.66 -2 4 C-3.98 4.99 -3.98 4.99 -6 6 C-5.34 5.01 -4.68 4.02 -4 3 Z " fill="#E3EBEE" transform="translate(323,93)"/>
<path d="M0 0 C1.875 0.3125 1.875 0.3125 4 1 C4.66 1.99 5.32 2.98 6 4 C4.35 4 2.7 4 1 4 C0.67 2.68 0.34 1.36 0 0 Z " fill="#E4EEF0" transform="translate(102,74)"/>
<path d="M0 0 C0.66 0.33 1.32 0.66 2 1 C1.34 2.32 0.68 3.64 0 5 C-0.66 5 -1.32 5 -2 5 C-2.33 6.32 -2.66 7.64 -3 9 C-2.25 2.25 -2.25 2.25 0 0 Z " fill="#DEE5EA" transform="translate(118,56)"/>
</svg>
