<?xml version="1.0" encoding="UTF-8"?>
<svg version="1.1" xmlns="http://www.w3.org/2000/svg" width="400" height="400">
<path d="M0 0 C0.93763184 0.21462891 1.87526367 0.42925781 2.84130859 0.65039062 C30.31598292 7.11292539 55.79598458 18.39517022 78 36 C78.86753906 36.66257813 79.73507812 37.32515625 80.62890625 38.0078125 C99.87479982 53.09475739 115.10832038 71.66552222 126.88867188 93.01367188 C127.9165918 94.85092067 128.98712584 96.65287209 130.078125 98.453125 C153.20942945 138.34096496 156.1525159 190.65987316 144.59350586 234.51025391 C141.80012363 244.69168425 138.82064058 254.57708365 134 264 C133.59152832 264.80469727 133.18305664 265.60939453 132.76220703 266.43847656 C123.69841376 284.09255748 113.48094365 300.23300396 99.54296875 314.42626953 C97.95092796 316.05005037 96.38160097 317.69391029 94.8125 319.33984375 C63.63125776 351.69214622 17.75631069 372.47372053 -27.2734375 373.3359375 C-30.64088556 373.37685231 -34.00733783 373.38319672 -37.375 373.375 C-38.69659622 373.37368576 -38.69659622 373.37368576 -40.04489136 373.37234497 C-67.13673197 373.28368824 -93.73255531 368.60466591 -118 356 C-119.64013999 355.18782189 -121.28081283 354.3767194 -122.921875 353.56640625 C-134.09667924 347.96988597 -144.27788867 341.85322777 -154 334 C-154.84183838 333.32735107 -154.84183838 333.32735107 -155.70068359 332.64111328 C-194.72281964 301.25841076 -219.05753066 256.45160071 -225.58984375 206.86328125 C-226.29070596 200.03827163 -226.2442928 193.16675188 -226.25 186.3125 C-226.25067474 185.58278992 -226.25134949 184.85307983 -226.25204468 184.10125732 C-226.20594621 152.58283214 -218.79894288 123.76986012 -204 96 C-203.6400293 95.31873047 -203.28005859 94.63746094 -202.90917969 93.93554688 C-179.7572484 50.41564775 -139.25545339 18.75520807 -92.43896484 4.06787109 C-83.12791892 1.30226989 -73.59381352 -0.52433673 -64 -2 C-63.33170166 -2.1045752 -62.66340332 -2.20915039 -61.97485352 -2.31689453 C-42.1174418 -4.97214944 -19.50746002 -4.46646002 0 0 Z " fill="#384950" transform="translate(238,15)"/>
<path d="M0 0 C0.73410095 -0.01252808 1.4682019 -0.02505615 2.22454834 -0.03796387 C18.49022557 -0.26175037 33.73352555 -0.13636828 49.27734375 5.2734375 C49.95941895 5.50337402 50.64149414 5.73331055 51.34423828 5.97021484 C84.53973846 17.42448633 110.40747154 40.96146448 126.23681641 72.09033203 C141.04863115 103.16664537 142.28976799 138.74196699 131.0546875 171.171875 C124.48779673 188.92557971 114.44010058 203.79913613 101.27734375 217.2734375 C100.5503125 218.06234375 99.82328125 218.85125 99.07421875 219.6640625 C80.54415018 239.29220921 54.54146751 250.10354107 28.27734375 254.2734375 C27.4575 254.40492188 26.63765625 254.53640625 25.79296875 254.671875 C-8.59261077 259.05900066 -41.26096296 248.57942141 -68.6875 228.0546875 C-95.17940844 206.95033407 -112.44695677 177.01679552 -116.72265625 143.2734375 C-117.59642161 125.88490429 -118.02613687 108.01128691 -112.72265625 91.2734375 C-112.50834961 90.58588379 -112.29404297 89.89833008 -112.07324219 89.18994141 C-101.78456548 57.22315767 -79.36554384 29.88456586 -49.6171875 14.234375 C-34.23694163 6.40594732 -17.42163688 0.27161701 0 0 Z " fill="#FEFEFE" transform="translate(189.72265625,72.7265625)"/>
<path d="M0 0 C0.73410095 -0.01252808 1.4682019 -0.02505615 2.22454834 -0.03796387 C18.49022557 -0.26175037 33.73352555 -0.13636828 49.27734375 5.2734375 C49.95941895 5.50337402 50.64149414 5.73331055 51.34423828 5.97021484 C84.53973846 17.42448633 110.40747154 40.96146448 126.23681641 72.09033203 C141.04863115 103.16664537 142.28976799 138.74196699 131.0546875 171.171875 C124.48779673 188.92557971 114.44010058 203.79913613 101.27734375 217.2734375 C100.5503125 218.06234375 99.82328125 218.85125 99.07421875 219.6640625 C80.54415018 239.29220921 54.54146751 250.10354107 28.27734375 254.2734375 C27.4575 254.40492188 26.63765625 254.53640625 25.79296875 254.671875 C-8.59261077 259.05900066 -41.26096296 248.57942141 -68.6875 228.0546875 C-95.17940844 206.95033407 -112.44695677 177.01679552 -116.72265625 143.2734375 C-117.59642161 125.88490429 -118.02613687 108.01128691 -112.72265625 91.2734375 C-112.50834961 90.58588379 -112.29404297 89.89833008 -112.07324219 89.18994141 C-101.78456548 57.22315767 -79.36554384 29.88456586 -49.6171875 14.234375 C-34.23694163 6.40594732 -17.42163688 0.27161701 0 0 Z M-65.72265625 66.2734375 C-74.99505455 77.2833353 -81.26785535 91.3996844 -84.72265625 105.2734375 C-84.94695312 106.10230469 -85.17125 106.93117188 -85.40234375 107.78515625 C-90.74082666 131.07703032 -85.35850766 157.04038025 -73.53125 177.5 C-58.10009335 201.16332877 -36.42791331 216.66079965 -8.72265625 223.2734375 C7.29129039 226.27227303 24.82219432 225.46092979 40.27734375 220.2734375 C40.91671875 220.06444824 41.55609375 219.85545898 42.21484375 219.64013672 C57.57505947 214.47232221 69.89398438 205.65679687 81.27734375 194.2734375 C82.01726562 193.53351563 82.7571875 192.79359375 83.51953125 192.03125 C102.95509539 171.38568965 108.09564448 145.47924369 107.40917969 118.15625 C106.2849351 93.57276831 93.13176917 71.13295425 75.52734375 54.5859375 C55.79321566 36.71600662 30.68089264 29.13791746 4.44140625 29.95703125 C-23.80832361 31.39792241 -47.05356544 45.78406244 -65.72265625 66.2734375 Z " fill="#F4B918" transform="translate(189.72265625,72.7265625)"/>
<path d="M0 0 C9.38176217 6.02511373 15.90888745 13.72916813 20.546875 23.80078125 C21.99042182 26.86907324 23.60340054 28.77359002 26.109375 31.05078125 C32.21201108 36.89093836 33.83224771 43.44234187 34.109375 51.73828125 C33.80216064 60.88534114 30.85917392 67.19192756 24.67578125 73.8828125 C18.45368996 79.28156467 11.18630036 81.77092416 3.06567383 81.8527832 C1.39792656 81.87203606 1.39792656 81.87203606 -0.30351257 81.89167786 C-1.50143936 81.89906479 -2.69936615 81.90645172 -3.93359375 81.9140625 C-5.17176346 81.92213425 -6.40993317 81.93020599 -7.68562317 81.93852234 C-10.30740971 81.95235308 -12.92921418 81.96307974 -15.55102539 81.97094727 C-18.22703929 81.97979265 -20.90253146 82.00063498 -23.57836914 82.0324707 C-27.44693607 82.07521862 -31.3148197 82.09132802 -35.18359375 82.1015625 C-36.37139938 82.11907059 -37.55920502 82.13657867 -38.78300476 82.15461731 C-49.35535584 82.12718707 -57.66412635 79.01426796 -65.390625 71.67578125 C-71.57718385 63.96613557 -73.42793533 55.41572115 -72.390625 45.67578125 C-70.68710972 38.23290577 -66.60786411 33.28221099 -61.69140625 27.609375 C-59.26572608 24.51652982 -57.54229401 21.42698226 -55.765625 17.92578125 C-50.5406329 7.82253565 -43.15910731 1.94908116 -32.68359375 -2.46484375 C-22.40012131 -5.14854949 -9.52771589 -4.77731517 0 0 Z " fill="#F5BA19" transform="translate(219.390625,161.32421875)"/>
<path d="M0 0 C6.15353661 4.23055642 8.76725529 8.94823497 12.00878906 15.46582031 C13.88517803 19.1548993 15.62022925 22.01710647 18.75 24.8125 C23.817085 29.40418344 25.63844365 34.71990117 26.37890625 41.4375 C26.73475486 52.09000031 24.29922659 59.38058851 17.06640625 67.20703125 C10.84431496 72.60578342 3.57692536 75.09514291 -4.54370117 75.17700195 C-5.65553268 75.18983719 -6.7673642 75.20267242 -7.91288757 75.21589661 C-9.11081436 75.22328354 -10.30874115 75.23067047 -11.54296875 75.23828125 C-12.78113846 75.246353 -14.01930817 75.25442474 -15.29499817 75.26274109 C-17.91678471 75.27657183 -20.53858918 75.28729849 -23.16040039 75.29516602 C-25.83641429 75.3040114 -28.51190646 75.32485373 -31.18774414 75.35668945 C-35.05631107 75.39943737 -38.9241947 75.41554677 -42.79296875 75.42578125 C-43.98077438 75.44328934 -45.16858002 75.46079742 -46.39237976 75.47883606 C-53.99412956 75.45911312 -60.97261434 74.78148586 -66.74137878 69.36494446 C-67.36439629 68.68929695 -67.36439629 68.68929695 -68 68 C-63.96984847 61.88386405 -59.50821975 56.05771795 -52.07128906 54.31286621 C-43.72922946 53.43899941 -35.3575947 53.95459353 -27 54.375 C-23.21593164 54.51026564 -19.43205659 54.6268258 -15.64697266 54.72964478 C-13.30341327 54.79913988 -10.9603737 54.89050275 -8.61865234 55.00643921 C-7.55984863 55.04862579 -6.50104492 55.09081238 -5.41015625 55.13427734 C-4.48340088 55.18014984 -3.55664551 55.22602234 -2.60180664 55.27328491 C0.60788541 54.93614979 2.40904754 53.88919506 5 52 C7.06959988 48.35356212 7.51850185 45.1480148 7 41 C4.81805066 37.15976916 3.45821287 36.16037451 -0.75 34.6875 C-1.8225 34.460625 -2.895 34.23375 -4 34 C-4.14695312 32.80503906 -4.14695312 32.80503906 -4.296875 31.5859375 C-5.18564129 25.2879557 -6.0206039 20.97424512 -10 16 C-10.66 14.68 -11.32 13.36 -12 12 C-8.04 8.04 -4.08 4.08 0 0 Z " fill="#557EBE" transform="translate(227,168)"/>
<path d="M0 0 C4.96643579 3.30176009 9.80627721 8.46600937 11.109375 14.40234375 C11.24706188 17.41105697 11.227372 20.39342014 11.109375 23.40234375 C12.16125 23.44359375 13.213125 23.48484375 14.296875 23.52734375 C18.14893668 24.41142348 19.94552943 25.30301954 22.2890625 28.5234375 C23.89800528 32.20868263 23.38010921 35.67256713 22.109375 39.40234375 C19.91113685 42.10786763 18.21380833 43.85012708 15.109375 45.40234375 C13.41582448 45.51817329 11.71785482 45.57191277 10.02050781 45.59521484 C8.42810272 45.61930923 8.42810272 45.61930923 6.80352783 45.64389038 C1.94129021 45.68830738 -2.92081006 45.72941164 -7.78320312 45.75244141 C-10.34774858 45.76899733 -12.91224797 45.79628213 -15.4765625 45.83447266 C-19.17211882 45.88923928 -22.86659249 45.91111719 -26.5625 45.92578125 C-28.27841339 45.95978531 -28.27841339 45.95978531 -30.0289917 45.99447632 C-38.91165798 45.97090935 -38.91165798 45.97090935 -42.59863281 42.99462891 C-46.03251762 39.11084228 -46.23250232 36.70022808 -46.17578125 31.66015625 C-45.74995873 28.28857519 -44.35585326 26.66213632 -41.890625 24.40234375 C-38.62128222 22.11380381 -35.8208098 21.93072157 -31.890625 22.40234375 C-28.8302917 24.16792065 -26.38474745 25.9082213 -23.890625 28.40234375 C-19.930625 24.44234375 -15.970625 20.48234375 -11.890625 16.40234375 C-16.0007999 11.05951425 -16.0007999 11.05951425 -21.015625 8.08984375 C-22.00949219 7.63158203 -22.00949219 7.63158203 -23.0234375 7.1640625 C-24.62101792 6.5123299 -26.25376315 5.94796437 -27.890625 5.40234375 C-26.50559912 1.96863376 -25.25938113 0.66828401 -21.890625 -0.84765625 C-14.35591477 -3.89051999 -7.28035026 -3.62726671 0 0 Z " fill="#FEFDFD" transform="translate(211.890625,178.59765625)"/>
<path d="M0 0 C2.65626313 1.63594812 5.01990606 3.48323531 7.41015625 5.484375 C5.82348047 9.38723267 3.27665144 11.81958482 0.28515625 14.734375 C-1.07996094 16.07242188 -1.07996094 16.07242188 -2.47265625 17.4375 C-3.17132813 18.11296875 -3.87 18.7884375 -4.58984375 19.484375 C-5.19570312 19.195625 -5.8015625 18.906875 -6.42578125 18.609375 C-12.54138727 15.8996911 -17.89946305 14.24732464 -24.58984375 15.484375 C-30.52133065 17.76166337 -30.52133065 17.76166337 -35.58984375 21.484375 C-37.75416725 21.64491548 -39.92175591 21.76208901 -42.08984375 21.859375 C-48.13196504 22.23623533 -52.98093476 23.26015247 -58.58984375 25.484375 C-57.20371944 16.61632969 -51.77599804 9.88621435 -45.03515625 4.2421875 C-31.9591413 -5.15750376 -14.66379079 -6.99715496 0 0 Z " fill="#E84535" transform="translate(219.58984375,161.515625)"/>
<path d="M0 0 C0 6.27 0 12.54 0 19 C-3.96601332 19.09253174 -7.92922934 19.17194289 -11.89575195 19.21972656 C-13.89756051 19.24940781 -15.89901919 19.30027058 -17.90039062 19.3515625 C-26.07634278 19.43393985 -33.51023274 19.23503318 -39.73413086 13.36425781 C-40.15186768 12.91405273 -40.56960449 12.46384766 -41 12 C-30.54432528 -4.18872325 -17.76049565 -2.11755048 0 0 Z " fill="#37A853" transform="translate(200,224)"/>
<path d="M0 0 C3.5699819 3.46199312 6.79703371 7.01687737 9.875 10.9375 C10.67679688 11.93652344 11.47859375 12.93554688 12.3046875 13.96484375 C14 17 14 17 13.8984375 20.23046875 C12.71621888 23.87478614 11.27264696 25.06616316 8 27 C5.1875 27.25 5.1875 27.25 3 27 C3 26.34 3 25.68 3 25 C4.2065625 24.5359375 4.2065625 24.5359375 5.4375 24.0625 C7.89080405 23.23664655 7.89080405 23.23664655 9 22 C9.04063832 20.33382885 9.042721 18.66611905 9 17 C8.29875 17.845625 7.5975 18.69125 6.875 19.5625 C4 22 4 22 1 22.0625 C-3.34565926 20.52341234 -6.0474229 18.64536044 -8.375 14.625 C-9.20609765 11.13438987 -9.25119112 9.40602026 -8 6 C-5.51714516 3.70531942 -2.84100929 1.82497635 0 0 Z " fill="#EDEEEF" transform="translate(101,69)"/>
<path d="M0 0 C3.04889927 2.30727513 4.45738189 4.20167325 5 8 C5.94875 7.505 6.8975 7.01 7.875 6.5 C11 5 11 5 13 5 C12.79321289 6.82519531 12.79321289 6.82519531 12 9 C9.95874023 10.46386719 9.95874023 10.46386719 7.30859375 11.796875 C6.36435547 12.28027344 5.42011719 12.76367188 4.44726562 13.26171875 C3.45404297 13.75285156 2.46082031 14.24398437 1.4375 14.75 C0.44041016 15.25660156 -0.55667969 15.76320312 -1.58398438 16.28515625 C-4.05004219 17.53588413 -6.52186137 18.77343055 -9 20 C-9.29648437 19.36707031 -9.59296875 18.73414063 -9.8984375 18.08203125 C-10.85740701 15.9389477 -10.85740701 15.9389477 -12.625 14.6875 C-14 13 -14 13 -14.5625 9.625 C-13.9766683 5.84964016 -13.84258238 5.41069276 -11.125 3.125 C-7.00902656 0.32613806 -5.00796457 -0.50079646 0 0 Z " fill="#F2F3F4" transform="translate(340,119)"/>
<path d="M0 0 C0.99 0 1.98 0 3 0 C2.68820356 2.83341232 2.37558083 5.66672955 2.0625 8.5 C1.97548828 9.29148437 1.88847656 10.08296875 1.79882812 10.8984375 C1.24115491 15.93815103 0.64027388 20.97010066 0 26 C-1.77174819 25.91276622 -3.54247377 25.80458345 -5.3125 25.6875 C-6.29863281 25.62949219 -7.28476563 25.57148437 -8.30078125 25.51171875 C-11.30376112 24.94241287 -12.25422898 24.46796294 -14 22 C-15.07191224 17.32952522 -15.43042941 15.10681847 -13.6875 10.625 C-12 8 -12 8 -10 6 C-7 5.75 -7 5.75 -4 6 C-3.34 6.66 -2.68 7.32 -2 8 C-1.34 5.36 -0.68 2.72 0 0 Z " fill="#F2F3F4" transform="translate(228,32)"/>
<path d="M0 0 C2.60070416 2.19006666 3.79308347 3.81550846 4.3828125 7.19140625 C4.56809655 10.94032015 4.45087747 13.27859604 2.4375 16.5 C-0.87196135 18.5365916 -3.10687114 19.06830051 -7 19 C-9.92114179 17.03140444 -11.4897564 15.45613379 -12.66796875 12.09375 C-13.45012587 8.06680244 -13.15953178 6.31336599 -11.25 2.5625 C-7.71354169 -1.46513308 -4.96945657 -1.41984474 0 0 Z " fill="#ECEEEE" transform="translate(186,38)"/>
<path d="M0 0 C2.968533 1.79569742 5.42401036 3.84802072 7 7 C7.54035146 11.05263598 7.34199395 12.53730231 4.875 15.875 C2 18 2 18 -0.9375 18.5625 C-5.4607886 17.73169189 -8.62851383 15.788895 -11.4375 12.125 C-12.24832204 9.0618945 -11.88405345 7.0310404 -11 4 C-7.96681604 -0.43311502 -5.18983773 -0.80531965 0 0 Z " fill="#F1F2F3" transform="translate(89,86)"/>
<path d="M0 0 C0.33 1.65 0.66 3.3 1 5 C-0.299375 5.84884766 -0.299375 5.84884766 -1.625 6.71484375 C-2.75011962 7.4555475 -3.87511316 8.19644279 -5 8.9375 C-5.57234375 9.31068359 -6.1446875 9.68386719 -6.734375 10.06835938 C-8.17385729 11.01944589 -9.58914489 12.00694276 -11 13 C-11 13.33 -11 13.66 -11 14 C-9.64455078 14.07347656 -9.64455078 14.07347656 -8.26171875 14.1484375 C-7.08222656 14.22320312 -5.90273438 14.29796875 -4.6875 14.375 C-3.51574219 14.44460937 -2.34398437 14.51421875 -1.13671875 14.5859375 C2 15 2 15 5 17 C4.67 18.32 4.34 19.64 4 21 C1.58490559 21.67286212 -0.83180356 22.33846012 -3.25 23 C-3.93191406 23.19078125 -4.61382812 23.3815625 -5.31640625 23.578125 C-8.70600912 24.49957044 -11.45778976 25 -15 25 C-15 24.01 -15 23.02 -15 22 C-12.03 21.01 -9.06 20.02 -6 19 C-9.63 18.34 -13.26 17.68 -17 17 C-17 15.68 -17 14.36 -17 13 C-14.8125 11.078125 -14.8125 11.078125 -12 9.25 C-11.071875 8.63640625 -10.14375 8.0228125 -9.1875 7.390625 C-8.1046875 6.70226562 -8.1046875 6.70226562 -7 6 C-8.03125 6.33 -9.0625 6.66 -10.125 7 C-13.48426709 7.9715192 -16.49106202 8.17116771 -20 8 C-19.67 6.68 -19.34 5.36 -19 4 C-16.58490559 3.32713788 -14.16819644 2.66153988 -11.75 2 C-11.06808594 1.80921875 -10.38617188 1.6184375 -9.68359375 1.421875 C-6.29399088 0.50042956 -3.54221024 0 0 0 Z " fill="#A6B4BB" transform="translate(55,230)"/>
<path d="M0 0 C2.8100346 1.79363911 4.50940468 3.01880935 6 6 C6.40820726 9.67386532 6.24841035 11.55286137 4.4375 14.8125 C1.15780591 17.75581521 -0.59737644 18.22386221 -5 18 C-9.05814893 15.78208098 -11.52855692 13.28337284 -13.125 8.9375 C-12.97598672 5.43568803 -12.12614404 3.75611264 -10 1 C-6.79826746 -0.60086627 -3.47422941 -0.49917089 0 0 Z " fill="#EEEFF0" transform="translate(77,102)"/>
<path d="M0 0 C3.5 0.5 3.5 0.5 5.4375 1.875 C6.5 3.5 6.5 3.5 6.5 5.5 C9.47 4.84 12.44 4.18 15.5 3.5 C15.17 4.82 14.84 6.14 14.5 7.5 C11.86 8.16 9.22 8.82 6.5 9.5 C6.17 10.82 5.84 12.14 5.5 13.5 C7.81 13.83 10.12 14.16 12.5 14.5 C12.5 15.82 12.5 17.14 12.5 18.5 C5.67576662 17.26583013 -0.89367844 15.6084005 -7.5 13.5 C-6.43382353 0.91911765 -6.43382353 0.91911765 0 0 Z " fill="#A7B6BD" transform="translate(349.5,232.5)"/>
<path d="M0 0 C1.5843317 0.08768248 3.16753567 0.19587329 4.75 0.3125 C6.07257813 0.39951172 6.07257813 0.39951172 7.421875 0.48828125 C10.37826464 1.0750798 11.84308126 1.91249934 14 4 C14.4375 7 14.4375 7 14 10 C13.21882812 10.69029297 13.21882812 10.69029297 12.421875 11.39453125 C11.95265625 11.92433594 11.4834375 12.45414062 11 13 C11.0709961 15.31604192 11.0709961 15.31604192 11.8125 17.6875 C12.02519531 18.49574219 12.23789063 19.30398438 12.45703125 20.13671875 C12.72580078 21.05904297 12.72580078 21.05904297 13 22 C11.09375 21.71875 11.09375 21.71875 9 21 C8 18.66666667 7 16.33333333 6 14 C3.93109581 12.95710245 3.93109581 12.95710245 2 13 C2 15.64 2 18.28 2 21 C0.68 21 -0.64 21 -2 21 C-1.85888117 18.24968413 -1.71228835 15.49984582 -1.5625 12.75 C-1.52318359 11.97269531 -1.48386719 11.19539063 -1.44335938 10.39453125 C-1.40146484 9.64042969 -1.35957031 8.88632812 -1.31640625 8.109375 C-1.27974854 7.41811523 -1.24309082 6.72685547 -1.20532227 6.01464844 C-0.99324476 3.93371671 -0.55491323 2.01427578 0 0 Z " fill="#A8B6BD" transform="translate(180,347)"/>
<path d="M0 0 C1.32 0 2.64 0 4 0 C4.67076489 2.76989964 5.33676317 5.54079742 6 8.3125 C6.28617188 9.49102539 6.28617188 9.49102539 6.578125 10.69335938 C6.84882813 11.8293457 6.84882813 11.8293457 7.125 12.98828125 C7.29257813 13.68477783 7.46015625 14.38127441 7.6328125 15.09887695 C8 17 8 17 8 20 C6.328125 20.80859375 6.328125 20.80859375 4 21 C1.421875 18.91015625 1.421875 18.91015625 -1.25 16.0625 C-2.14203125 15.12535156 -3.0340625 14.18820312 -3.953125 13.22265625 C-4.62859375 12.48917969 -5.3040625 11.75570313 -6 11 C-5.67 14.96 -5.34 18.92 -5 23 C-5.99 23 -6.98 23 -8 23 C-8.67449966 20.60612843 -9.33976641 18.21030779 -10 15.8125 C-10.19078125 15.13896484 -10.3815625 14.46542969 -10.578125 13.77148438 C-11.5825836 10.09444844 -12.23704741 6.8149818 -12 3 C-5.35427158 3.64922747 -2.39313684 8.34458633 2 13 C1.34 8.71 0.68 4.42 0 0 Z " fill="#A6B4BB" transform="translate(238,343)"/>
<path d="M0 0 C0.99 0.66 1.98 1.32 3 2 C2.67 6.95 2.34 11.9 2 17 C4.31 14.36 6.62 11.72 9 9 C9.99 9.33 10.98 9.66 12 10 C10.57139081 14.49108752 8.06922708 17.46169316 4.875 20.8125 C4.17310547 21.56563477 4.17310547 21.56563477 3.45703125 22.33398438 C2.31098175 23.56189455 1.15634689 24.78178215 0 26 C-0.99 25.67 -1.98 25.34 -3 25 C-2.67 19.72 -2.34 14.44 -2 9 C-4.64 11.97 -7.28 14.94 -10 18 C-10.99 17.01 -11.98 16.02 -13 15 C-12.39671875 14.33613281 -11.7934375 13.67226563 -11.171875 12.98828125 C-10.37265625 12.10527344 -9.5734375 11.22226562 -8.75 10.3125 C-7.96109375 9.44238281 -7.1721875 8.57226562 -6.359375 7.67578125 C-4.15500436 5.17579137 -2.05866059 2.62054272 0 0 Z " fill="#A8B7BE" transform="translate(97,307)"/>
<path d="M0 0 C1.32 0 2.64 0 4 0 C4 6.93 4 13.86 4 21 C-0.73751475 19.81562131 -1.15741989 18.87622747 -3.75 14.9375 C-4.67039063 13.55884766 -4.67039063 13.55884766 -5.609375 12.15234375 C-6.06828125 11.44207031 -6.5271875 10.73179687 -7 10 C-7.33 13.63 -7.66 17.26 -8 21 C-9.32 21 -10.64 21 -12 21 C-12 14.4 -12 7.8 -12 1 C-10.68 1 -9.36 1 -8 1 C-5.859375 3.625 -5.859375 3.625 -3.75 7 C-3.04359375 8.11375 -2.3371875 9.2275 -1.609375 10.375 C-0.81273437 11.674375 -0.81273437 11.674375 0 13 C0 8.71 0 4.42 0 0 Z " fill="#A8B6BD" transform="translate(210,348)"/>
<path d="M0 0 C0.66 0 1.32 0 2 0 C4.12079476 2.25058029 5.86572377 4.81701029 7.6875 7.3125 C8.21150391 8.00279297 8.73550781 8.69308594 9.27539062 9.40429688 C9.76587891 10.07138672 10.25636719 10.73847656 10.76171875 11.42578125 C11.21506592 12.03848877 11.66841309 12.65119629 12.13549805 13.2824707 C12.42078369 13.84925537 12.70606934 14.41604004 13 15 C12.67 15.99 12.34 16.98 12 18 C6.30860098 16.90301833 1.25432063 15.45946923 -4 13 C-3.566875 13.61488281 -3.13375 14.22976563 -2.6875 14.86328125 C-2.130625 15.67152344 -1.57375 16.47976563 -1 17.3125 C-0.443125 18.11300781 0.11375 18.91351563 0.6875 19.73828125 C2 22 2 22 2 25 C1.01 25 0.02 25 -1 25 C-2.3503418 23.62304688 -2.3503418 23.62304688 -3.69921875 21.71875 C-4.18583984 21.04199219 -4.67246094 20.36523438 -5.17382812 19.66796875 C-5.67333984 18.95253906 -6.17285156 18.23710937 -6.6875 17.5 C-7.19861328 16.78457031 -7.70972656 16.06914062 -8.23632812 15.33203125 C-9.49983511 13.56075977 -10.75378948 11.78346291 -12 10 C-11.67 9.34 -11.34 8.68 -11 8 C-5.34979382 8.60108576 -0.33835539 10.07528683 5 12 C4.55527344 11.46890625 4.11054688 10.9378125 3.65234375 10.390625 C3.08644531 9.68421875 2.52054687 8.9778125 1.9375 8.25 C1.36902344 7.55390625 0.80054688 6.8578125 0.21484375 6.140625 C-1 4 -1 4 -0.68359375 1.734375 C-0.45800781 1.16203125 -0.23242188 0.5896875 0 0 Z " fill="#AAB8BF" transform="translate(295,314)"/>
<path d="M0 0 C1.051875 0.12375 2.10375 0.2475 3.1875 0.375 C2.8575 1.365 2.5275 2.355 2.1875 3.375 C-0.8125 4.5 -0.8125 4.5 -3.8125 5.375 C-5.11996709 6.47423541 -5.11996709 6.47423541 -5.125 9.1875 C-5.08704159 12.41447577 -5.08704159 12.41447577 -3.125 14.625 C0.69606757 17.5166187 3.02622511 18.41436525 7.875 18.25 C11.22078738 17.72759889 11.22078738 17.72759889 12.625 15.5 C13.31544628 13.25801208 13.31544628 13.25801208 13.1875 10.375 C11.8675 9.715 10.5475 9.055 9.1875 8.375 C7.8675 9.695 6.5475 11.015 5.1875 12.375 C4.1875 9.375 4.1875 9.375 5.625 6.1875 C6.140625 5.259375 6.65625 4.33125 7.1875 3.375 C10.59062738 4.43375074 13.20103231 5.38402154 16.1875 7.375 C16.61135993 11.68424263 16.66117436 14.28554898 14.9375 18.25 C12.14319316 21.64308688 10.27773917 22.22823704 5.9375 22.8125 C0.20906699 22.14418282 -3.66142621 19.39163168 -7.8125 15.5 C-9.35743897 12.21700469 -9.30659832 9.95721285 -8.8125 6.375 C-6.76419068 2.21465617 -4.74200479 0.4664267 0 0 Z " fill="#F5F6F6" transform="translate(55.8125,116.625)"/>
<path d="M0 0 C3.59368212 1.69217071 6.90624166 3.73467159 10.25 5.875 C11.32765625 6.55304688 12.4053125 7.23109375 13.515625 7.9296875 C14.33546875 8.61289062 15.1553125 9.29609375 16 10 C16 11.32 16 12.64 16 14 C11.05 14.33 6.1 14.66 1 15 C3.97 16.98 6.94 18.96 10 21 C9.67 22.32 9.34 23.64 9 25 C5.11390189 23.24933204 1.72187742 20.81675994 -1.75 18.375 C-2.35199219 17.95476562 -2.95398438 17.53453125 -3.57421875 17.1015625 C-5.05113043 16.07006863 -6.52579194 15.03535421 -8 14 C-7.67 13.01 -7.34 12.02 -7 11 C-2.05 10.67 2.9 10.34 8 10 C5.03 7.69 2.06 5.38 -1 3 C-0.67 2.01 -0.34 1.02 0 0 Z " fill="#AAB8BF" transform="translate(326,278)"/>
<path d="M0 0 C2.65359262 1.93640542 3.7609947 3.37858623 4.9375 6.4375 C5.02059529 9.84440708 4.12056368 11.36757612 2 14 C-0.11328125 14.640625 -0.11328125 14.640625 -2 15 C-2.83905565 13.87926138 -3.67107831 12.75325453 -4.5 11.625 C-4.9640625 10.99851562 -5.428125 10.37203125 -5.90625 9.7265625 C-7 8 -7 8 -7 6 C-7.99 6 -8.98 6 -10 6 C-10.39827408 10.19018386 -10.39827408 10.19018386 -8.625 13.8125 C-6.99913203 15.06987173 -6.99913203 15.06987173 -5 16 C-5 16.66 -5 17.32 -5 18 C-8.63364102 17.75775727 -10.4342157 17.62053762 -12.9375 14.875 C-14.34495609 11.06658941 -14.13085027 8.8872978 -13 5 C-8.83447748 0.94128575 -5.82421992 -0.58242199 0 0 Z " fill="#F1F2F3" transform="translate(330,103)"/>
<path d="M0 0 C2.875 2.375 2.875 2.375 5 5 C5 5.66 5 6.32 5 7 C2.03 8.65 -0.94 10.3 -4 12 C-4 12.66 -4 13.32 -4 14 C-1.36 14 1.28 14 4 14 C4.33 13.01 4.66 12.02 5 11 C5.66 11 6.32 11 7 11 C6.62120265 13.19702465 6.09789619 14.83875922 4.9375 16.75 C1.81250041 18.76612877 -1.45493966 18.65171816 -5 18 C-7.375 16.25 -7.375 16.25 -9 14 C-9.433125 13.401875 -9.86625 12.80375 -10.3125 12.1875 C-11.36698223 8.83232926 -10.85790175 6.37032832 -10 3 C-7.0879799 -0.34343049 -4.29142741 -0.70064121 0 0 Z " fill="#EEEFF0" transform="translate(127,56)"/>
<path d="M0 0 C0.99 7.26 1.98 14.52 3 22 C1.68 22 0.36 22 -1 22 C-1.33 20.35 -1.66 18.7 -2 17 C-4.64 16.34 -7.28 15.68 -10 15 C-10.66 16.32 -11.32 17.64 -12 19 C-12.99 19 -13.98 19 -15 19 C-14.05188226 14.41310884 -11.73877829 11.11159146 -9.1875 7.25 C-8.74857422 6.55261719 -8.30964844 5.85523438 -7.85742188 5.13671875 C-7.42365234 4.47800781 -6.98988281 3.81929688 -6.54296875 3.140625 C-6.15133545 2.53766602 -5.75970215 1.93470703 -5.35620117 1.31347656 C-4 0 -4 0 0 0 Z " fill="#A6B4BB" transform="translate(171,345)"/>
<path d="M0 0 C2 1 2 1 3 3 C3.36932376 6.47306385 3.59633757 9.80732485 2 13 C-2.47238653 11.58192622 -6.71146306 9.88695626 -11 8 C-10.53146378 10.99405579 -10.53146378 10.99405579 -9 14 C-5.47548841 15.46022435 -5.47548841 15.46022435 -2 16 C-2 16.66 -2 17.32 -2 18 C-6.3322929 18.4247346 -8.34962488 18.47048413 -11.9375 15.875 C-14 13 -14 13 -14.5625 10.0625 C-13.8627824 6.25292641 -12.38777961 4.01983892 -10 1 C-6.80732485 -0.59633757 -3.47306385 -0.36932376 0 0 Z " fill="#F1F2F3" transform="translate(276,55)"/>
<path d="M0 0 C0.6809082 1.78417969 0.6809082 1.78417969 1 4 C-0.13989258 5.73925781 -0.13989258 5.73925781 -1.89453125 7.453125 C-2.52037109 8.071875 -3.14621094 8.690625 -3.79101562 9.328125 C-4.45810547 9.96234375 -5.12519531 10.5965625 -5.8125 11.25 C-6.46798828 11.8996875 -7.12347656 12.549375 -7.79882812 13.21875 C-12.70563616 18 -12.70563616 18 -15 18 C-14.47731534 15.23723823 -13.89130413 12.6739124 -13 10 C-13.88319294 6.84979639 -13.88319294 6.84979639 -15 4 C-16.98 4 -18.96 4 -21 4 C-21.33 3.01 -21.66 2.02 -22 1 C-14.64206267 0.08839714 -7.41017023 -0.11459026 0 0 Z " fill="#A7B6BD" transform="translate(64,259)"/>
<path d="M0 0 C0.99 0.99 1.98 1.98 3 3 C1.35 4.32 -0.3 5.64 -2 7 C-0.75023244 10.65316671 -0.32901247 11.78065836 3 14 C4.98 12.68 6.96 11.36 9 10 C9.99 11.485 9.99 11.485 11 13 C8.92375562 14.82121437 6.83975198 16.6319006 4.75 18.4375 C4.16347656 18.95376953 3.57695313 19.47003906 2.97265625 20.00195312 C2.39902344 20.49501953 1.82539062 20.98808594 1.234375 21.49609375 C0.71069336 21.95169678 0.18701172 22.4072998 -0.35253906 22.87670898 C-2.21015148 24.14328793 -3.80540019 24.58068958 -6 25 C-6 23.68 -6 22.36 -6 21 C-4 19.25 -4 19.25 -2 18 C-2.62759865 15.07120629 -3.58622659 12.63904371 -5 10 C-5.47050781 10.37253906 -5.94101563 10.74507813 -6.42578125 11.12890625 C-7.04839844 11.60199219 -7.67101562 12.07507813 -8.3125 12.5625 C-8.92738281 13.03816406 -9.54226562 13.51382812 -10.17578125 14.00390625 C-10.77777344 14.33261719 -11.37976563 14.66132813 -12 15 C-12.99 14.67 -13.98 14.34 -15 14 C-13.92929873 10.7878962 -13.409251 10.26834536 -10.83984375 8.30078125 C-10.21142578 7.81416016 -9.58300781 7.32753906 -8.93554688 6.82617188 C-8.27619141 6.32666016 -7.61683594 5.82714844 -6.9375 5.3125 C-6.27427734 4.80138672 -5.61105469 4.29027344 -4.92773438 3.76367188 C-3.2899169 2.50290591 -1.64556863 1.25063216 0 0 Z " fill="#A8B6BD" transform="translate(78,286)"/>
<path d="M0 0 C0.99 0.66 1.98 1.32 3 2 C3 2.99 3 3.98 3 5 C-0.3 4.67 -3.6 4.34 -7 4 C-6.71636678 11.16155468 -6.71636678 11.16155468 -3 17 C-1.02 16.67 0.96 16.34 3 16 C3 14.68 3 13.36 3 12 C1.68 12.33 0.36 12.66 -1 13 C-1.33 12.01 -1.66 11.02 -2 10 C0.35438733 8.57055055 1.48032433 7.91338739 4.25 8.375 C4.8275 8.58125 5.405 8.7875 6 9 C6.66 11.31 7.32 13.62 8 16 C4.8236121 19.28226749 3.30174234 20.82807177 -1.3125 21.4375 C-5.15821805 20.98122837 -5.55561415 20.91937138 -7.875 18.1875 C-10.89605645 13.65591532 -11.55981203 10.41151632 -11 5 C-7.78103132 0.55024918 -5.47495108 -0.83314473 0 0 Z " fill="#A8B7BE" transform="translate(258,338)"/>
<path d="M0 0 C3 2.125 3 2.125 5 5 C5.3125 8.3125 5.3125 8.3125 5 11 C4.01 11 3.02 11 2 11 C1.67 8.69 1.34 6.38 1 4 C-1.92434733 3.70756527 -4.15229834 3.48817599 -7 4 C-11.09848004 8.20356927 -11.90697939 12.32574283 -12 18 C-11.03882095 20.12870693 -11.03882095 20.12870693 -9 21 C-6.45769153 21.41679297 -6.45769153 21.41679297 -4 21 C-3.34 20.34 -2.68 19.68 -2 19 C-1.01 19 -0.02 19 1 19 C0.6875 20.875 0.6875 20.875 0 23 C-3.25860909 25.17240606 -3.82050803 25.23564158 -7.5 24.8125 C-8.2734375 24.73644531 -9.046875 24.66039063 -9.84375 24.58203125 C-12.40630437 23.89032726 -13.3758204 23.0747904 -15 21 C-16.71747796 15.84756613 -16.54977708 11.64717236 -14.25 6.75 C-10.89543833 0.73974367 -7.07528804 -1.48510996 0 0 Z " fill="#EFF0F1" transform="translate(258,40)"/>
<path d="M0 0 C2.375 2.5625 2.375 2.5625 4 5 C2.68 5.33 1.36 5.66 0 6 C-0.66 5.01 -1.32 4.02 -2 3 C-4.93443402 3.26656572 -4.93443402 3.26656572 -8 4 C-10.27032103 7.40548155 -10.15124622 8.96744811 -9.55859375 12.92578125 C-8.68257021 16.17870781 -7.05343428 18.35040738 -5 21 C-1.535 20.505 -1.535 20.505 2 20 C2.66 18.02 3.32 16.04 4 14 C4.99 14 5.98 14 7 14 C6.38780245 20.489294 6.38780245 20.489294 4.73046875 22.671875 C1.54986239 25.11297243 -2.09116475 25.20645257 -6 25 C-9.7483504 23.1258248 -11.22844764 20.93958717 -12.8125 17.1875 C-14.05439236 13.31825154 -14.60369551 10.0749447 -14 6 C-10.50740262 0.05856998 -6.70346154 -1.91527473 0 0 Z " fill="#F3F4F5" transform="translate(155,38)"/>
<path d="M0 0 C0 0.99 0 1.98 0 3 C-2.3078491 4.15392455 -4.47230331 4.53437166 -7 5 C-6.76086492 9.1450081 -6.57307276 11.36325249 -3.75 14.5 C-1.10689535 16.27157197 -1.10689535 16.27157197 1.8125 15.75 C2.534375 15.5025 3.25625 15.255 4 15 C4.33 13.68 4.66 12.36 5 11 C4.01 11 3.02 11 2 11 C1.01 11 0.02 11 -1 11 C0.04874998 8.37812506 0.64931313 7.20628639 3.125 5.75 C3.74375 5.5025 4.3625 5.255 5 5 C6.65 6.65 8.3 8.3 10 10 C9.11040186 13.55839258 8.29483345 15.68878692 5.75 18.375 C2.34264836 20.38843506 0.89424625 20.77884925 -3 20 C-6.21486395 17.83475282 -9.2478882 15.50422361 -11 12 C-11.49512681 7.62637986 -11.49223866 5.68044756 -8.875 2.0625 C-5.56851204 -0.30954571 -3.9760803 -0.46233492 0 0 Z " fill="#A8B6BD" transform="translate(313,303)"/>
<path d="M0 0 C0.99 0.33 1.98 0.66 3 1 C2.690625 1.7425 2.38125 2.485 2.0625 3.25 C1.1905075 5.50692176 0.52332993 7.6450153 0 10 C1.32 10.33 2.64 10.66 4 11 C4.99 9.02 5.98 7.04 7 5 C7.99 5.33 8.98 5.66 10 6 C9.34 8.64 8.68 11.28 8 14 C9.32 14.33 10.64 14.66 12 15 C13.32 12.69 14.64 10.38 16 8 C16.99 8.33 17.98 8.66 19 9 C17.02 12.96 15.04 16.92 13 21 C8.23388525 19.41129508 4.84651566 17.90790939 0.625 15.375 C-0.43460937 14.74335938 -1.49421875 14.11171875 -2.5859375 13.4609375 C-3.78089844 12.73777344 -3.78089844 12.73777344 -5 12 C-3.6404241 7.7794035 -2.05956153 3.9318902 0 0 Z " fill="#A6B4BB" transform="translate(334,263)"/>
<path d="M0 0 C4.571279 0.54855348 8.67435795 1.41744803 13 3 C13 3.99 13 4.98 13 6 C9.7 5.67 6.4 5.34 3 5 C2.34 6.32 1.68 7.64 1 9 C3.64 9.66 6.28 10.32 9 11 C9 11.99 9 12.98 9 14 C4.545 13.01 4.545 13.01 0 12 C-0.33 13.98 -0.66 15.96 -1 18 C1.64 18.66 4.28 19.32 7 20 C7 20.99 7 21.98 7 23 C5.58194169 22.71517632 4.16559621 22.42181856 2.75 22.125 C1.96109375 21.96257812 1.1721875 21.80015625 0.359375 21.6328125 C-1.96831144 21.00849925 -3.89031952 20.15161458 -6 19 C-4.3186083 12.51292846 -2.46937673 6.2322365 0 0 Z " fill="#A6B4BB" transform="translate(146,339)"/>
<path d="M0 0 C0.99 0.33 1.98 0.66 3 1 C2.34 3.97 1.68 6.94 1 10 C2.32 10.33 3.64 10.66 5 11 C5.99 9.02 6.98 7.04 8 5 C8.99 5.33 9.98 5.66 11 6 C10.01 8.64 9.02 11.28 8 14 C10.97 14.495 10.97 14.495 14 15 C14.66 12.69 15.32 10.38 16 8 C17.32 7.67 18.64 7.34 20 7 C19.54554036 8.41791408 19.08625056 9.83428046 18.625 11.25 C18.24214844 12.43335938 18.24214844 12.43335938 17.8515625 13.640625 C17.04826333 15.86627958 16.10288338 17.90931672 15 20 C12.20776841 19.02241999 9.41620228 18.04301077 6.625 17.0625 C5.8309375 16.78470703 5.036875 16.50691406 4.21875 16.22070312 C3.45820313 15.95322266 2.69765625 15.68574219 1.9140625 15.41015625 C1.2123291 15.16402588 0.5105957 14.91789551 -0.21240234 14.66430664 C-2 14 -2 14 -4 13 C-3.27991594 8.39146203 -1.68704061 4.32762591 0 0 Z " fill="#A7B6BD" transform="translate(340,248)"/>
<path d="M0 0 C2.86867231 1.38264837 5.56024032 2.92148553 8.25 4.625 C8.95640625 5.07101562 9.6628125 5.51703125 10.390625 5.9765625 C10.92171875 6.31429688 11.4528125 6.65203125 12 7 C11.67 7.66 11.34 8.32 11 9 C7.33118845 8.29445932 4.29549466 6.72264494 1 5 C0.34 6.65 -0.32 8.3 -1 10 C-0.21625 10.309375 0.5675 10.61875 1.375 10.9375 C4 12 4 12 6 13 C5.67 13.99 5.34 14.98 5 16 C3.88625 15.505 3.88625 15.505 2.75 15 C-0.13883312 13.77217129 -0.13883312 13.77217129 -4 14 C-4.33 14.99 -4.66 15.98 -5 17 C-2.69 18.65 -0.38 20.3 2 22 C1.67 22.66 1.34 23.32 1 24 C-3.10958767 22.54955729 -6.43258745 20.48889248 -10 18 C-9.40074509 15.11694872 -8.54853768 13.00340943 -6.93359375 10.546875 C-6.53076172 9.928125 -6.12792969 9.309375 -5.71289062 8.671875 C-5.29201172 8.03765625 -4.87113281 7.4034375 -4.4375 6.75 C-4.01275391 6.1003125 -3.58800781 5.450625 -3.15039062 4.78125 C-2.1052694 3.18421082 -1.05330163 1.5916558 0 0 Z " fill="#A7B5BD" transform="translate(112,320)"/>
<path d="M0 0 C0.66 0.33 1.32 0.66 2 1 C2 1.66 2 2.32 2 3 C-0.31 4.32 -2.62 5.64 -5 7 C-4.67 8.65 -4.34 10.3 -4 12 C-1.36 10.68 1.28 9.36 4 8 C4.33 8.99 4.66 9.98 5 11 C3.02 12.32 1.04 13.64 -1 15 C-0.01 16.32 0.98 17.64 2 19 C4.64 17.68 7.28 16.36 10 15 C10 16.32 10 17.64 10 19 C8.54462432 19.83848804 7.08559627 20.67063934 5.625 21.5 C4.81289063 21.9640625 4.00078125 22.428125 3.1640625 22.90625 C1 24 1 24 -1 24 C-2.14501953 22.43945312 -2.14501953 22.43945312 -3.3828125 20.28125 C-3.82753906 19.51425781 -4.27226562 18.74726563 -4.73046875 17.95703125 C-5.19066406 17.14621094 -5.65085937 16.33539063 -6.125 15.5 C-6.82689453 14.28376953 -6.82689453 14.28376953 -7.54296875 13.04296875 C-8.70201772 11.03237359 -9.85396471 9.01803239 -11 7 C-7.47856678 4.11230519 -4.21890588 1.78131581 0 0 Z " fill="#A7B5BC" transform="translate(280,325)"/>
<path d="M0 0 C1.32 0 2.64 0 4 0 C4.33 4.95 4.66 9.9 5 15 C6.65 15 8.3 15 10 15 C11.94090826 13.05909174 11.39919435 9.52706098 11.5625 6.9375 C11.64628906 5.64714844 11.73007813 4.35679688 11.81640625 3.02734375 C11.87699219 2.02832031 11.93757812 1.02929688 12 0 C12.99 0 13.98 0 15 0 C15 6.27 15 12.54 15 19 C13.68 18.67 12.36 18.34 11 18 C9.2675 18.3403125 9.2675 18.3403125 7.5 18.6875 C4 19 4 19 1.796875 17.50390625 C-0.62435669 14.12997252 -0.44571109 11.23196795 -0.25 7.25 C-0.23195312 6.55261719 -0.21390625 5.85523438 -0.1953125 5.13671875 C-0.14838554 3.42388461 -0.07664605 1.71176176 0 0 Z " fill="#E0E2E4" transform="translate(194,37)"/>
<path d="M0 0 C3.3563415 2.20811941 3.91234961 3.64313768 4.875 7.5625 C5 11 5 11 3 14 C2.34 14 1.68 14 1 14 C-0.231394 10.30581799 0.35567236 7.7943739 1 4 C-4.26159459 3.35834212 -6.68592849 4.79422999 -10.6796875 7.90625 C-11.11539063 8.2671875 -11.55109375 8.628125 -12 9 C-11.67 10.65 -11.34 12.3 -11 14 C-9.02 14.66 -7.04 15.32 -5 16 C-5.33 16.99 -5.66 17.98 -6 19 C-11.34586466 18.40601504 -11.34586466 18.40601504 -13.8125 16.875 C-15.73185845 13.84443402 -16 11.57319831 -16 8 C-11.62727668 1.37844755 -7.92302541 -0.84889558 0 0 Z " fill="#A7B5BC" transform="translate(70,273)"/>
<path d="M0 0 C3.25 0.375 3.25 0.375 6.125 2.5625 C8.25 5.375 8.25 5.375 8.6875 8.0625 C8.25 10.375 8.25 10.375 6.25 12.375 C2.02815619 12.29681771 -0.07592467 11.9816678 -3.25 9.125 C-4.75 6.375 -4.75 6.375 -4.5625 3.625 C-3.42197875 0.46663347 -3.42197875 0.46663347 0 0 Z " fill="#405158" transform="translate(84.75,88.625)"/>
<path d="M0 0 C2.5625 0.375 2.5625 0.375 4.375 1.9375 C6.00149865 5.2761025 5.96245291 7.70876496 5.5625 11.375 C4.375 13.375 4.375 13.375 2.5625 14.375 C-0.77942692 14.13046876 -2.04293557 13.76956443 -4.4375 11.375 C-4.703125 9.28125 -4.703125 9.28125 -4.6875 6.875 C-4.69265625 6.0809375 -4.6978125 5.286875 -4.703125 4.46875 C-4.29501363 1.25187213 -3.12758182 0.48116643 0 0 Z " fill="#3E4E56" transform="translate(181.4375,39.625)"/>
<path d="M0 0 C4.06703133 0.39106071 5.61224628 1.1951547 8.25 4.3125 C8.0625 8.0625 8.0625 8.0625 7.25 11.3125 C2.85490434 11.74339173 0.88156793 11.77301828 -2.75 9.125 C-4.75 6.3125 -4.75 6.3125 -4.625 3.5625 C-3.38936592 0.38515522 -3.38936592 0.38515522 0 0 Z " fill="#3B4B53" transform="translate(71.75,104.6875)"/>
<path d="M0 0 C2.5 -0.3125 2.5 -0.3125 5 0 C7 2 7 2 7.3125 5.3125 C6.98867205 9.13366982 6.22414284 10.94180359 4 14 C1.625 13.6875 1.625 13.6875 -1 13 C-3 10 -3 10 -2.75 6.5 C-2 3 -2 3 0 0 Z " fill="#415159" transform="translate(219,41)"/>
<path d="M0 0 C2.25 0.875 2.25 0.875 4.25 2.875 C4.3125 5.25 4.3125 5.25 3.25 7.875 C1.11360035 9.75938468 -1.02914195 11.02150979 -3.75 11.875 C-6.6875 11.125 -6.6875 11.125 -8.75 9.875 C-9.125 7.125 -9.125 7.125 -8.75 3.875 C-5.79337409 1.19340906 -4.05523394 -0.18432882 0 0 Z " fill="#415159" transform="translate(337.75,122.125)"/>
<path d="M0 0 C2.9375 0.1875 2.9375 0.1875 6 1 C7.375 3.0625 7.375 3.0625 8 5 C5.36 5 2.72 5 0 5 C0.33 6.65 0.66 8.3 1 10 C0.28457031 9.73316406 -0.43085938 9.46632813 -1.16796875 9.19140625 C-4.19173405 8.67064518 -4.19173405 8.67064518 -6.67578125 11.08984375 C-7.54589844 12.02957031 -8.41601562 12.96929687 -9.3125 13.9375 C-10.63701172 15.34322266 -10.63701172 15.34322266 -11.98828125 16.77734375 C-12.65214844 17.51082031 -13.31601562 18.24429688 -14 19 C-14.99 18.01 -15.98 17.02 -17 16 C-11.555 11.05 -11.555 11.05 -6 6 C-6.33 5.01 -6.66 4.02 -7 3 C-5.5459375 2.5359375 -5.5459375 2.5359375 -4.0625 2.0625 C-1.15934208 1.30476658 -1.15934208 1.30476658 0 0 Z " fill="#EFF0F1" transform="translate(318,81)"/>
<path d="M0 0 C1.32 0.33 2.64 0.66 4 1 C2.60517394 5.53318469 0.80376746 9.75687859 -1.1953125 14.046875 C-2.1269786 15.9561344 -2.1269786 15.9561344 -2 18 C0.31 18.99 2.62 19.98 5 21 C4.67 21.99 4.34 22.98 4 24 C2.56068883 23.54738642 1.12361001 23.08767021 -0.3125 22.625 C-1.11300781 22.36976563 -1.91351563 22.11453125 -2.73828125 21.8515625 C-5 21 -5 21 -8 19 C-6.60121198 14.53202662 -4.86369228 10.36177921 -2.875 6.125 C-2.33617187 4.97257812 -1.79734375 3.82015625 -1.2421875 2.6328125 C-0.62730469 1.32957031 -0.62730469 1.32957031 0 0 Z " fill="#A4B2B9" transform="translate(132,332)"/>
<path d="M0 0 C2.75 0.4375 2.75 0.4375 5.5625 3.125 C7.73203451 6.41029511 8.40177401 7.63548494 7.75 11.4375 C6.75 12.4375 6.75 12.4375 4 12.875 C0.75 12.4375 0.75 12.4375 -2.1875 9.75 C-4.25 6.4375 -4.25 6.4375 -4.125 3.625 C-2.90060241 0.56400602 -2.90060241 0.56400602 0 0 Z " fill="#3F4F57" transform="translate(99.25,74.5625)"/>
<path d="M0 0 C5.875 0.875 5.875 0.875 7 2 C7.36995025 5.92147266 7.55184638 8.1824498 5.3125 11.5 C3 13 3 13 0.3125 12.875 C-2 12 -2 12 -3 10 C-3.30343947 6.51044604 -3.39470082 4.62494296 -1.5 1.625 C-1.005 1.08875 -0.51 0.5525 0 0 Z " fill="#5E5F43" transform="translate(164,301)"/>
<path d="M0 0 C2.5625 0.375 2.5625 0.375 4.375 2 C5.87673956 5.00347913 5.92314764 7.05704168 5.5625 10.375 C3.5625 12.375 3.5625 12.375 1.125 12.6875 C-1.4375 12.375 -1.4375 12.375 -3.25 11.3125 C-5.084421 8.31949731 -4.74857576 5.79683337 -4.4375 2.375 C-2.4375 0.375 -2.4375 0.375 0 0 Z " fill="#A1872F" transform="translate(229.4375,302.625)"/>
<path d="M0 0 C0.99 0.33 1.98 0.66 3 1 C2.835 1.763125 2.67 2.52625 2.5 3.3125 C1.90854604 6.03596236 1.90854604 6.03596236 2 9 C1.2575 9.04125 0.515 9.0825 -0.25 9.125 C-4.19110785 10.37898886 -5.13115514 12.40074324 -7 16 C-7.33709062 18.75258812 -7.33709062 18.75258812 -7 21 C-7.99 21 -8.98 21 -10 21 C-10.66 20.34 -11.32 19.68 -12 19 C-12 14.33472612 -9.40026767 11.8627844 -6.375 8.6484375 C-4.77554129 6.9346793 -4.77554129 6.9346793 -4 4 C-4.66 4 -5.32 4 -6 4 C-5.67 3.01 -5.34 2.02 -5 1 C-3.68 1.66 -2.36 2.32 -1 3 C-0.67 2.01 -0.34 1.02 0 0 Z " fill="#F2F3F4" transform="translate(300,67)"/>
<path d="M0 0 C0.99 0 1.98 0 3 0 C3.83862315 3.60295699 4.66998677 7.20755065 5.5 10.8125 C5.73847656 11.83666016 5.97695312 12.86082031 6.22265625 13.91601562 C6.44824219 14.89892578 6.67382812 15.88183594 6.90625 16.89453125 C7.11572266 17.80050049 7.32519531 18.70646973 7.54101562 19.63989258 C8 22 8 22 8 25 C7.01 25.33 6.02 25.66 5 26 C4.26508611 23.06034442 3.53080997 20.12056151 2.80078125 17.1796875 C2.3341572 15.32684858 1.8574332 13.47639102 1.35546875 11.6328125 C0.27953897 7.65419445 -0.20604085 4.12081696 0 0 Z " fill="#EDEFEF" transform="translate(163,33)"/>
<path d="M0 0 C4.68785138 1.51537521 6.59816661 5.3797875 9.125 9.3125 C9.56714844 9.97701172 10.00929688 10.64152344 10.46484375 11.32617188 C12.72685499 14.78069358 14.64688443 18.06988344 16 22 C15.01 22.33 14.02 22.66 13 23 C11.0378518 20.08588304 9.0809595 17.16827368 7.125 14.25 C6.56941406 13.425 6.01382813 12.6 5.44140625 11.75 C4.90644531 10.95078125 4.37148437 10.1515625 3.8203125 9.328125 C3.08192139 8.22839355 3.08192139 8.22839355 2.32861328 7.10644531 C1.07560928 5.11987447 0.0092535 3.11901357 -1 1 C-0.67 0.67 -0.34 0.34 0 0 Z " fill="#F4F5F5" transform="translate(103,58)"/>
<path d="M0 0 C1.32 0 2.64 0 4 0 C4.3383344 2.37438249 4.67079002 4.74934959 5 7.125 C5.09539062 7.79015625 5.19078125 8.4553125 5.2890625 9.140625 C5.83611453 13.12628981 6.10022182 16.97859938 6 21 C4.68 21 3.36 21 2 21 C1.66280953 18.43795456 1.33012847 15.87545682 1 13.3125 C0.90460938 12.59126953 0.80921875 11.87003906 0.7109375 11.12695312 C0.23316265 7.39007129 -0.11919794 3.77708469 0 0 Z " fill="#A7B5BC" transform="translate(218,347)"/>
<path d="M0 0 C2.4375 0.8125 2.4375 0.8125 4.4375 2.8125 C3.86931818 8.38068182 3.86931818 8.38068182 2.4375 9.8125 C0.09805264 9.52519945 -2.2364143 9.19313221 -4.5625 8.8125 C-5.89091008 3.37809513 -5.89091008 3.37809513 -4.4375 0.875 C-2.5625 -0.1875 -2.5625 -0.1875 0 0 Z " fill="#A7B5BD" transform="translate(44.5625,197.1875)"/>
<path d="M0 0 C2.9375 0.75 2.9375 0.75 6 2 C6.9375 4 6.9375 4 7 6 C6.67 6.66 6.34 7.32 6 8 C5.01 8 4.02 8 3 8 C3 9.98 3 11.96 3 14 C2.34 14 1.68 14 1 14 C0.87625 13.030625 0.7525 12.06125 0.625 11.0625 C0.315625 9.5465625 0.315625 9.5465625 0 8 C-0.66 7.67 -1.32 7.34 -2 7 C-2.33 8.32 -2.66 9.64 -3 11 C-3.66 10.67 -4.32 10.34 -5 10 C-3.35 6.7 -1.7 3.4 0 0 Z " fill="#555946" transform="translate(153,296)"/>
<path d="M0 0 C0.99 0.33 1.98 0.66 3 1 C3 1.66 3 2.32 3 3 C4.65 3.33 6.3 3.66 8 4 C7.67 4.99 7.34 5.98 7 7 C4.69 6.67 2.38 6.34 0 6 C-0.2475 6.70125 -0.495 7.4025 -0.75 8.125 C-2.16088026 11.37002459 -3.97895398 14.10316737 -6 17 C-6.99 16.67 -7.98 16.34 -9 16 C-7.56691865 12.04093183 -5.66858051 8.71281819 -3.375 5.1875 C-2.74335938 4.21167969 -2.11171875 3.23585938 -1.4609375 2.23046875 C-0.73777344 1.12638672 -0.73777344 1.12638672 0 0 Z " fill="#F2F3F4" transform="translate(285,62)"/>
<path d="M0 0 C3.67189306 1.62612407 6.61621667 3.87957994 9.75 6.375 C11.22726562 7.53128906 11.22726562 7.53128906 12.734375 8.7109375 C15 11 15 11 15 15 C11.32810694 13.37387593 8.38378333 11.12042006 5.25 8.625 C4.26515625 7.85414063 3.2803125 7.08328125 2.265625 6.2890625 C0 4 0 4 0 0 Z " fill="#A8B6BD" transform="translate(314,295)"/>
<path d="M0 0 C4.55555556 0.55555556 4.55555556 0.55555556 6 2 C6.1875 4.9375 6.1875 4.9375 6 8 C4 10 4 10 1.5 10.3125 C0.2625 10.1578125 0.2625 10.1578125 -1 10 C-3 7 -3 7 -2.75 4.4375 C-2 2 -2 2 0 0 Z " fill="#AAB8BF" transform="translate(355,197)"/>
<path d="M0 0 C0.99 0.33 1.98 0.66 3 1 C1.38989473 5.07376031 -1.53822271 7.76507069 -4.625 10.75 C-5.140625 11.25660156 -5.65625 11.76320313 -6.1875 12.28515625 C-7.45383339 13.52803902 -8.7263144 14.76465276 -10 16 C-10.99 15.67 -11.98 15.34 -13 15 C-11.38989473 10.92623969 -8.46177729 8.23492931 -5.375 5.25 C-4.859375 4.74339844 -4.34375 4.23679687 -3.8125 3.71484375 C-2.54616661 2.47196098 -1.2736856 1.23534724 0 0 Z " fill="#A9B7BE" transform="translate(91,302)"/>
<path d="M0 0 C1.9375 0.75 1.9375 0.75 3.9375 2.75 C3.5625 5.875 3.5625 5.875 2.9375 8.75 C0.625 9.375 0.625 9.375 -2.0625 9.75 C-3.0525 9.09 -4.0425 8.43 -5.0625 7.75 C-5.4375 4.75 -5.4375 4.75 -5.0625 1.75 C-2.0625 -0.25 -2.0625 -0.25 0 0 Z " fill="#A8B7BE" transform="translate(354.0625,163.25)"/>
<path d="M0 0 C3 0.125 3 0.125 4 1.125 C4.1875 4.0625 4.1875 4.0625 4 7.125 C3.34 7.785 2.68 8.445 2 9.125 C-1.29714793 8.79528521 -2.6226839 8.5023161 -5 6.125 C-4.27477017 0.17811542 -4.27477017 0.17811542 0 0 Z " fill="#AAB8BF" transform="translate(47,163.875)"/>
<path d="M0 0 C2.4375 1.1875 2.4375 1.1875 5 3 C5.875 5.625 5.875 5.625 6 8 C5 9 5 9 3.15234375 9.09765625 C1.1015625 9.06510417 -0.94921875 9.03255208 -3 9 C-3.33 9.66 -3.66 10.32 -4 11 C-4.66 11 -5.32 11 -6 11 C-4.54955729 6.89041233 -2.48889248 3.56741255 0 0 Z " fill="#48524A" transform="translate(143,290)"/>
<path d="M0 0 C0.99 0.33 1.98 0.66 3 1 C3.94921875 3.28515625 3.94921875 3.28515625 4.6875 6.0625 C5.06455078 7.44115234 5.06455078 7.44115234 5.44921875 8.84765625 C5.63097656 9.55792969 5.81273437 10.26820313 6 11 C2.52846619 10.23596585 0.00229182 8.91813089 -3 7 C-2.34 9.31 -1.68 11.62 -1 14 C-1.66 14 -2.32 14 -3 14 C-4.32 10.37 -5.64 6.74 -7 3 C-3.00095031 3 -1.19799578 4.72586967 2 7 C1.34 4.69 0.68 2.38 0 0 Z " fill="#515747" transform="translate(243,298)"/>
<path d="M0 0 C0.99 0 1.98 0 3 0 C3 6.27 3 12.54 3 19 C2.01 19 1.02 19 0 19 C-0.66 17.68 -1.32 16.36 -2 15 C-1.67 14.67 -1.34 14.34 -1 14 C-0.76472227 11.65012738 -0.58613583 9.29443961 -0.4375 6.9375 C-0.35371094 5.64714844 -0.26992187 4.35679688 -0.18359375 3.02734375 C-0.12300781 2.02832031 -0.06242188 1.02929688 0 0 Z " fill="#F6F6F7" transform="translate(206,37)"/>
<path d="M0 0 C0.99 0 1.98 0 3 0 C2.69669576 3.14858689 1.90729121 4.09119887 -0.3984375 6.359375 C-1.38070313 7.14828125 -2.36296875 7.9371875 -3.375 8.75 C-4.35210937 9.54921875 -5.32921875 10.3484375 -6.3359375 11.171875 C-9 13 -9 13 -12 13 C-12 12.01 -12 11.02 -12 10 C-9.62890625 7.7734375 -9.62890625 7.7734375 -6.5625 5.375 C-5.55316406 4.57835938 -4.54382813 3.78171875 -3.50390625 2.9609375 C-2.67761719 2.31382813 -1.85132813 1.66671875 -1 1 C-0.67 0.67 -0.34 0.34 0 0 Z " fill="#EFF0F1" transform="translate(321,94)"/>
<path d="M0 0 C0.99 0.33 1.98 0.66 3 1 C0.93687686 4.66415876 -1.35872176 7.70548128 -4.1875 10.8125 C-4.90292969 11.60269531 -5.61835938 12.39289063 -6.35546875 13.20703125 C-6.89816406 13.79871094 -7.44085938 14.39039062 -8 15 C-8.99 14.67 -9.98 14.34 -11 14 C-9.42219077 10.28954753 -7.09296752 7.70093616 -4.375 4.75 C-3.55773437 3.85796875 -2.74046875 2.9659375 -1.8984375 2.046875 C-1.27195312 1.37140625 -0.64546875 0.6959375 0 0 Z " fill="#F0F1F2" transform="translate(306,78)"/>
<path d="M0 0 C3.86790003 0.96697501 4.94476825 1.52700207 7.75 4.0625 C8.67039062 4.88427734 8.67039062 4.88427734 9.609375 5.72265625 C10.29773438 6.35494141 10.29773438 6.35494141 11 7 C8 8 8 8 5.9375 8.3125 C3.45079063 8.94278479 3.45079063 8.94278479 2 13 C1.34 8.71 0.68 4.42 0 0 Z " fill="#6A663F" transform="translate(251,294)"/>
<path d="M0 0 C2.31 0 4.62 0 7 0 C7 0.66 7 1.32 7 2 C5.02 2 3.04 2 1 2 C1 2.99 1 3.98 1 5 C2.65 5 4.3 5 6 5 C6 5.66 6 6.32 6 7 C4.35 7 2.7 7 1 7 C1 8.32 1 9.64 1 11 C2.65 11 4.3 11 6 11 C6 11.33 6 11.66 6 12 C3.69 12 1.38 12 -1 12 C-1.02698189 10.37509046 -1.04638757 8.75005367 -1.0625 7.125 C-1.07410156 6.22007812 -1.08570313 5.31515625 -1.09765625 4.3828125 C-1 2 -1 2 0 0 Z " fill="#5D5E43" transform="translate(186,306)"/>
<path d="M0 0 C1.98 0 3.96 0 6 0 C6 0.99 6 1.98 6 3 C3.525 2.01 3.525 2.01 1 1 C2.24546405 4.73639216 3.63404953 5.18756513 7 7 C6.67 8.65 6.34 10.3 6 12 C4.02 12 2.04 12 0 12 C-0.33 10.68 -0.66 9.36 -1 8 C1.31 8.66 3.62 9.32 6 10 C4.49336217 6.98672434 1.96833589 6.38943382 -1 5 C-0.67 3.35 -0.34 1.7 0 0 Z " fill="#565A46" transform="translate(197,307)"/>
<path d="M0 0 C1.65 0 3.3 0 5 0 C5.125 3.375 5.125 3.375 5 7 C4.34 7.66 3.68 8.32 3 9 C0.875 8.625 0.875 8.625 -1 8 C-1.125 2.25 -1.125 2.25 0 0 Z " fill="#EFB618" transform="translate(164,303)"/>
<path d="M0 0 C3.53571429 0.53571429 3.53571429 0.53571429 5 2 C5.125 4.5 5.125 4.5 5 7 C4 8 4 8 1.5 8.125 C-1 8 -1 8 -2 7 C-2.1875 4.5625 -2.1875 4.5625 -2 2 C-1.34 1.34 -0.68 0.68 0 0 Z " fill="#41525A" transform="translate(348,236)"/>
<path d="M0 0 C0.78375 0.04125 1.5675 0.0825 2.375 0.125 C3.035 1.445 3.695 2.765 4.375 4.125 C3.715 4.125 3.055 4.125 2.375 4.125 C2.045 3.465 1.715 2.805 1.375 2.125 C0.385 2.125 -0.605 2.125 -1.625 2.125 C-1.625 2.785 -1.625 3.445 -1.625 4.125 C0.355 5.115 2.335 6.105 4.375 7.125 C4.045 8.775 3.715 10.425 3.375 12.125 C1.395 12.125 -0.585 12.125 -2.625 12.125 C-2.625 11.135 -2.625 10.145 -2.625 9.125 C-0.975 9.455 0.675 9.785 2.375 10.125 C2.705 9.465 3.035 8.805 3.375 8.125 C1.065 7.465 -1.245 6.805 -3.625 6.125 C-4.25 4.25 -4.25 4.25 -4.625 2.125 C-2.625 0.125 -2.625 0.125 0 0 Z " fill="#565A45" transform="translate(211.625,305.875)"/>
<path d="M0 0 C1.99954746 -0.04254356 4.00041636 -0.04080783 6 0 C7 1 7 1 7.0625 3.5625 C7.041875 4.366875 7.02125 5.17125 7 6 C4.69 6.33 2.38 6.66 0 7 C0 4.69 0 2.38 0 0 Z " fill="#3F4F57" transform="translate(183,351)"/>
<path d="M0 0 C-0.33 0.99 -0.66 1.98 -1 3 C-1.969375 3.268125 -2.93875 3.53625 -3.9375 3.8125 C-4.948125 4.204375 -5.95875 4.59625 -7 5 C-8.45160938 8.01779872 -8.45160938 8.01779872 -9 11 C-9.99 10.01 -10.98 9.02 -12 8 C-9.49922557 0.88241125 -7.68009555 -0.43472239 0 0 Z " fill="#E6E8E9" transform="translate(59,117)"/>
<path d="M0 0 C2.375 2.5625 2.375 2.5625 4 5 C2.68 5.33 1.36 5.66 0 6 C-0.66 5.01 -1.32 4.02 -2 3 C-4.31 3.33 -6.62 3.66 -9 4 C-9 2.68 -9 1.36 -9 0 C-5.39297148 -1.20234284 -3.64185324 -1.0405295 0 0 Z " fill="#E9EAEB" transform="translate(155,38)"/>
<path d="M0 0 C2.875 -0.1875 2.875 -0.1875 6 0 C8 3 8 3 7.625 5.1875 C7.41875 5.785625 7.2125 6.38375 7 7 C6.01 7 5.02 7 4 7 C0 2.65714286 0 2.65714286 0 0 Z " fill="#43535B" transform="translate(324,106)"/>
<path d="M0 0 C2.64 0.33 5.28 0.66 8 1 C8 1.33 8 1.66 8 2 C6.02 2 4.04 2 2 2 C1.67 3.32 1.34 4.64 1 6 C2.65 6 4.3 6 6 6 C6 6.66 6 7.32 6 8 C4.35 8 2.7 8 1 8 C0.67 9.32 0.34 10.64 0 12 C-0.66 12 -1.32 12 -2 12 C-1.34 8.04 -0.68 4.08 0 0 Z " fill="#555A46" transform="translate(175,304)"/>
<path d="M0 0 C1.2375 0.1546875 1.2375 0.1546875 2.5 0.3125 C3.16 1.3025 3.82 2.2925 4.5 3.3125 C0.54 5.2925 0.54 5.2925 -3.5 7.3125 C-4.125 4.9375 -4.125 4.9375 -4.5 2.3125 C-2.5 0.3125 -2.5 0.3125 0 0 Z " fill="#48575E" transform="translate(123.5,58.6875)"/>
<path d="M0 0 C4.875 0.875 4.875 0.875 6 2 C6.04063832 3.66617115 6.042721 5.33388095 6 7 C0.25 5.125 0.25 5.125 -2 4 C-1.34 2.68 -0.68 1.36 0 0 Z " fill="#425259" transform="translate(270,57)"/>
<path d="M0 0 C4.875 4.75 4.875 4.75 6 7 C7.98 6.67 9.96 6.34 12 6 C12 6.66 12 7.32 12 8 C10.02 8.99 8.04 9.98 6 11 C4.9944239 9.54550599 3.99569565 8.08627557 3 6.625 C2.443125 5.81289063 1.88625 5.00078125 1.3125 4.1640625 C0 2 0 2 0 0 Z " fill="#515747" transform="translate(259,289)"/>
<path d="M0 0 C2.1519437 3.22791555 2.20086443 4.28400809 2 8 C0.35 7.67 -1.3 7.34 -3 7 C-1.125 2.25 -1.125 2.25 0 0 Z " fill="#44555D" transform="translate(167,350)"/>
<path d="M0 0 C-2.97 2.475 -2.97 2.475 -6 5 C-6.66 3.35 -7.32 1.7 -8 0 C-4.94736336 -0.98120464 -3.05263664 -0.98120464 0 0 Z " fill="#42525A" transform="translate(60,263)"/>
<path d="M0 0 C0.99 0.33 1.98 0.66 3 1 C2.67 2.65 2.34 4.3 2 6 C0.02 6 -1.96 6 -4 6 C-4.33 4.68 -4.66 3.36 -5 2 C-2.69 2.66 -0.38 3.32 2 4 C1.34 2.68 0.68 1.36 0 0 Z " fill="#606042" transform="translate(201,313)"/>
<path d="M0 0 C1.32 0.66 2.64 1.32 4 2 C4 3.32 4 4.64 4 6 C2.35 5.67 0.7 5.34 -1 5 C-0.67 3.35 -0.34 1.7 0 0 Z " fill="#E9B21A" transform="translate(143,292)"/>
<path d="M0 0 C2.31 0.33 4.62 0.66 7 1 C7 1.66 7 2.32 7 3 C6.34 3 5.68 3 5 3 C4.67 3.66 4.34 4.32 4 5 C2.68 4.34 1.36 3.68 0 3 C0 2.01 0 1.02 0 0 Z " fill="#E3AE1C" transform="translate(198,308)"/>
<path d="M0 0 C1.32 0.66 2.64 1.32 4 2 C3.67 2.99 3.34 3.98 3 5 C1.35 4.67 -0.3 4.34 -2 4 C-1.34 2.68 -0.68 1.36 0 0 Z " fill="#EAB21A" transform="translate(154,298)"/>
<path d="M0 0 C2.625 -0.1875 2.625 -0.1875 5 0 C4.67 0.99 4.34 1.98 4 3 C2.02 3 0.04 3 -2 3 C-1.34 2.01 -0.68 1.02 0 0 Z " fill="#F3F4F4" transform="translate(54,117)"/>
</svg>
