<?xml version="1.0" encoding="UTF-8"?>
<svg version="1.1" xmlns="http://www.w3.org/2000/svg" width="302" height="299">
<path d="M0 0 C1.32165786 -0.00761181 1.32165786 -0.00761181 2.67001587 -0.0153774 C3.63886607 -0.01587516 4.60771627 -0.01637292 5.60592556 -0.01688576 C7.14889511 -0.02345914 7.14889511 -0.02345914 8.72303575 -0.03016531 C12.18672199 -0.04357187 15.65038277 -0.04973639 19.11408901 -0.0558567 C21.59088666 -0.06375628 24.06768315 -0.07202514 26.54447842 -0.08063698 C33.99012953 -0.1046104 41.43577646 -0.11978868 48.88145295 -0.13269705 C50.98513729 -0.13640967 53.08882096 -0.14038286 55.19250464 -0.14444971 C68.26072263 -0.16968991 81.32894167 -0.19173948 94.39717865 -0.20417786 C97.42407199 -0.20710748 100.45096529 -0.21006915 103.47785854 -0.21308327 C104.23016447 -0.21382932 104.9824704 -0.21457537 105.75757348 -0.21534403 C117.93686773 -0.22799006 130.11601573 -0.26120294 142.29524166 -0.3028851 C154.80462317 -0.34534547 167.31392991 -0.36887772 179.82338327 -0.37409842 C186.8448292 -0.3775082 193.86604672 -0.38921164 200.88742161 -0.42220116 C207.49563852 -0.45319876 214.10353021 -0.45859549 220.711833 -0.4468174 C223.13454896 -0.44659661 225.55728335 -0.45490619 227.97993565 -0.47247124 C231.29389375 -0.49518645 234.60641226 -0.48685538 237.92037868 -0.47098732 C239.3502314 -0.49181045 239.3502314 -0.49181045 240.80897003 -0.51305425 C249.960828 -0.40547446 257.29990282 3.30287201 264.08259487 9.38701439 C264.87407925 10.07279564 265.66556362 10.75857689 266.48103237 11.46513939 C273.91846019 20.39005277 273.27965815 30.30068277 273.225173 41.33379173 C273.23059913 43.17932244 273.23772454 45.02484882 273.24641323 46.87036705 C273.26459363 51.86432383 273.25760021 56.85794875 273.24489689 61.85191107 C273.23473877 67.09047848 273.24417065 72.32901832 273.25044155 77.5675869 C273.25771106 86.36552061 273.24814986 95.16331986 273.22907925 103.96123314 C273.20732543 114.11384129 273.21435391 124.26612791 273.23638487 134.41872823 C273.25457488 143.15279517 273.2570792 151.88676566 273.24663019 160.62084544 C273.2404133 165.82963107 273.23950953 171.03826592 273.25277615 176.2470417 C273.26438602 181.14737892 273.2562155 186.04730445 273.23319912 190.9475975 C273.22793879 192.73936659 273.2293796 194.53117071 273.23824978 196.32292557 C273.29551082 209.07125649 272.65036077 220.30690911 263.29597378 230.01054955 C257.9068033 234.4379854 251.63152492 237.29618492 245.39509487 240.32451439 C243.91390328 241.06248556 242.43377336 241.80259113 240.95466518 242.54472923 C237.9634208 244.04358013 234.96797965 245.53345287 231.96882534 247.01640892 C225.9215323 250.01473205 219.94069295 253.13779101 213.95759487 256.26201439 C211.7573902 257.40455052 209.55686868 258.5464767 207.35603237 259.68779564 C206.26645229 260.25321068 205.17687222 260.81862572 204.05427456 261.40117455 C197.04057625 265.0390061 190.02502564 268.67328912 183.00398159 272.2969265 C181.79058641 272.92327844 180.57720767 273.54966223 179.36384487 274.17607689 C178.75420895 274.49079445 178.14457302 274.80551201 177.51646328 275.12976646 C173.39461324 277.25969515 169.27976927 279.40272263 165.16801357 281.55206871 C162.19818976 283.10328667 159.22556953 284.64909879 156.25257778 286.19423485 C154.82760647 286.93646001 153.403857 287.68103661 151.98145962 288.4281826 C125.72488778 302.21540666 125.72488778 302.21540666 110.33259487 297.88701439 C103.67306532 295.41420572 97.56824783 291.92472152 91.38191128 288.46806908 C82.43153605 283.47381581 73.33621826 278.79511123 64.20759487 274.13701439 C53.80247335 268.82010033 43.45385475 263.43972636 33.23786831 257.76518822 C27.52671662 254.61583107 21.75405024 251.60614387 15.94196987 248.64873314 C15.16381924 248.25211479 14.3856686 247.85549644 13.58393764 247.44685936 C9.69805471 245.46783769 5.80791868 243.49795224 1.91071987 241.54131126 C-23.43268811 228.73151954 -23.43268811 228.73151954 -28.36078739 216.48122406 C-29.41370272 212.70159482 -29.58278291 209.20928365 -29.57328892 205.3210659 C-29.57923116 204.55261475 -29.58517341 203.78416359 -29.59129572 202.99242604 C-29.60858656 200.42713347 -29.61167906 197.86202849 -29.61467075 195.29668236 C-29.62393313 193.45321826 -29.63398326 191.60975797 -29.64476109 189.76630211 C-29.67095781 184.76394651 -29.68388926 179.76164454 -29.6927824 174.75923109 C-29.69865297 171.63035142 -29.70686436 168.50148625 -29.71579075 165.37261391 C-29.74312893 155.5727495 -29.76246721 145.77291842 -29.77019453 135.97301853 C-29.77914941 124.67986665 -29.8142201 113.38719971 -29.87219572 102.09419525 C-29.91550732 93.3525478 -29.93560727 84.61103639 -29.93827677 75.86928284 C-29.94036756 70.65413631 -29.95206806 65.43944599 -29.98791599 60.22441292 C-30.02101283 55.31417378 -30.02512434 50.40473042 -30.00763798 45.4944191 C-30.0061043 43.69981877 -30.01468921 41.90517447 -30.03455448 40.11068344 C-30.15440811 28.60202712 -29.43908866 18.91865692 -21.2822504 9.91920853 C-15.56668207 4.45695784 -8.04058514 0.02459302 0 0 Z " fill="#232730" transform="translate(29.292405128479004,-0.13701438903808594)"/>
<path d="M0 0 C1.32165786 -0.00761181 1.32165786 -0.00761181 2.67001587 -0.0153774 C3.63886607 -0.01587516 4.60771627 -0.01637292 5.60592556 -0.01688576 C7.14889511 -0.02345914 7.14889511 -0.02345914 8.72303575 -0.03016531 C12.18672199 -0.04357187 15.65038277 -0.04973639 19.11408901 -0.0558567 C21.59088666 -0.06375628 24.06768315 -0.07202514 26.54447842 -0.08063698 C33.99012953 -0.1046104 41.43577646 -0.11978868 48.88145295 -0.13269705 C50.98513729 -0.13640967 53.08882096 -0.14038286 55.19250464 -0.14444971 C68.26072263 -0.16968991 81.32894167 -0.19173948 94.39717865 -0.20417786 C97.42407199 -0.20710748 100.45096529 -0.21006915 103.47785854 -0.21308327 C104.23016447 -0.21382932 104.9824704 -0.21457537 105.75757348 -0.21534403 C117.93686773 -0.22799006 130.11601573 -0.26120294 142.29524166 -0.3028851 C154.80462317 -0.34534547 167.31392991 -0.36887772 179.82338327 -0.37409842 C186.8448292 -0.3775082 193.86604672 -0.38921164 200.88742161 -0.42220116 C207.49563852 -0.45319876 214.10353021 -0.45859549 220.711833 -0.4468174 C223.13454896 -0.44659661 225.55728335 -0.45490619 227.97993565 -0.47247124 C231.29389375 -0.49518645 234.60641226 -0.48685538 237.92037868 -0.47098732 C239.3502314 -0.49181045 239.3502314 -0.49181045 240.80897003 -0.51305425 C249.960828 -0.40547446 257.29990282 3.30287201 264.08259487 9.38701439 C264.87407925 10.07279564 265.66556362 10.75857689 266.48103237 11.46513939 C273.91846019 20.39005277 273.27965815 30.30068277 273.225173 41.33379173 C273.23059913 43.17932244 273.23772454 45.02484882 273.24641323 46.87036705 C273.26459363 51.86432383 273.25760021 56.85794875 273.24489689 61.85191107 C273.23473877 67.09047848 273.24417065 72.32901832 273.25044155 77.5675869 C273.25771106 86.36552061 273.24814986 95.16331986 273.22907925 103.96123314 C273.20732543 114.11384129 273.21435391 124.26612791 273.23638487 134.41872823 C273.25457488 143.15279517 273.2570792 151.88676566 273.24663019 160.62084544 C273.2404133 165.82963107 273.23950953 171.03826592 273.25277615 176.2470417 C273.26438602 181.14737892 273.2562155 186.04730445 273.23319912 190.9475975 C273.22793879 192.73936659 273.2293796 194.53117071 273.23824978 196.32292557 C273.29551082 209.07125649 272.65036077 220.30690911 263.29597378 230.01054955 C257.9068033 234.4379854 251.63152492 237.29618492 245.39509487 240.32451439 C243.91390328 241.06248556 242.43377336 241.80259113 240.95466518 242.54472923 C237.9634208 244.04358013 234.96797965 245.53345287 231.96882534 247.01640892 C225.9215323 250.01473205 219.94069295 253.13779101 213.95759487 256.26201439 C211.7573902 257.40455052 209.55686868 258.5464767 207.35603237 259.68779564 C206.26645229 260.25321068 205.17687222 260.81862572 204.05427456 261.40117455 C197.04057625 265.0390061 190.02502564 268.67328912 183.00398159 272.2969265 C181.79058641 272.92327844 180.57720767 273.54966223 179.36384487 274.17607689 C178.75420895 274.49079445 178.14457302 274.80551201 177.51646328 275.12976646 C173.39461324 277.25969515 169.27976927 279.40272263 165.16801357 281.55206871 C162.19818976 283.10328667 159.22556953 284.64909879 156.25257778 286.19423485 C154.82760647 286.93646001 153.403857 287.68103661 151.98145962 288.4281826 C125.72488778 302.21540666 125.72488778 302.21540666 110.33259487 297.88701439 C103.67306532 295.41420572 97.56824783 291.92472152 91.38191128 288.46806908 C82.43153605 283.47381581 73.33621826 278.79511123 64.20759487 274.13701439 C53.80247335 268.82010033 43.45385475 263.43972636 33.23786831 257.76518822 C27.52671662 254.61583107 21.75405024 251.60614387 15.94196987 248.64873314 C15.16381924 248.25211479 14.3856686 247.85549644 13.58393764 247.44685936 C9.69805471 245.46783769 5.80791868 243.49795224 1.91071987 241.54131126 C-23.43268811 228.73151954 -23.43268811 228.73151954 -28.36078739 216.48122406 C-29.41370272 212.70159482 -29.58278291 209.20928365 -29.57328892 205.3210659 C-29.57923116 204.55261475 -29.58517341 203.78416359 -29.59129572 202.99242604 C-29.60858656 200.42713347 -29.61167906 197.86202849 -29.61467075 195.29668236 C-29.62393313 193.45321826 -29.63398326 191.60975797 -29.64476109 189.76630211 C-29.67095781 184.76394651 -29.68388926 179.76164454 -29.6927824 174.75923109 C-29.69865297 171.63035142 -29.70686436 168.50148625 -29.71579075 165.37261391 C-29.74312893 155.5727495 -29.76246721 145.77291842 -29.77019453 135.97301853 C-29.77914941 124.67986665 -29.8142201 113.38719971 -29.87219572 102.09419525 C-29.91550732 93.3525478 -29.93560727 84.61103639 -29.93827677 75.86928284 C-29.94036756 70.65413631 -29.95206806 65.43944599 -29.98791599 60.22441292 C-30.02101283 55.31417378 -30.02512434 50.40473042 -30.00763798 45.4944191 C-30.0061043 43.69981877 -30.01468921 41.90517447 -30.03455448 40.11068344 C-30.15440811 28.60202712 -29.43908866 18.91865692 -21.2822504 9.91920853 C-15.56668207 4.45695784 -8.04058514 0.02459302 0 0 Z M71.01324368 8.18092155 C59.87897588 8.26713625 48.74494405 8.36676454 37.6109724 8.48532486 C34.14870886 8.52202782 30.68644579 8.55456922 27.2241087 8.58348846 C23.21142794 8.61741951 19.19896864 8.66094467 15.18647337 8.71224332 C13.72056409 8.72945862 12.25461147 8.74334685 10.78863764 8.75369525 C8.79562338 8.76836971 6.80272031 8.79636777 4.80985928 8.82510948 C3.69666254 8.83711356 2.58346581 8.84911764 1.43653584 8.86148548 C-1.50993061 8.94380685 -1.50993061 8.94380685 -4.29240513 11.13701439 C-4.93049107 11.2775222 -5.568577 11.41803001 -6.22599888 11.56279564 C-11.42232503 13.00676529 -15.52770308 17.87895617 -18.22990513 22.32451439 C-19.73460489 26.30754317 -20.41752092 29.64953001 -20.45062351 33.91075706 C-20.46041233 34.87026772 -20.47020115 35.82977837 -20.4802866 36.8183651 C-20.48604206 37.86614632 -20.49179752 38.91392754 -20.49772739 39.9934597 C-20.50762699 41.10378059 -20.51752659 42.21410149 -20.52772617 43.35806847 C-20.55948244 47.06040356 -20.58422989 50.76275021 -20.60881138 54.46513939 C-20.62944384 57.08296044 -20.65044164 59.70077863 -20.6717844 62.31859398 C-20.71617276 67.85033154 -20.75683564 73.38208665 -20.79509068 78.91386986 C-20.83353004 84.46956249 -20.87494437 90.0252198 -20.92009068 95.58086205 C-20.92552438 96.25102742 -20.93095809 96.92119279 -20.93655646 97.6116662 C-20.94198222 98.28077886 -20.94740798 98.94989152 -20.95299816 99.63928032 C-21.05693166 112.45870483 -21.14431701 125.27808604 -21.20933557 138.09776974 C-21.25038504 146.16880591 -21.30907101 154.23927796 -21.39725858 162.30994344 C-21.46057716 168.16463321 -21.50409483 174.01934079 -21.54104519 179.87425041 C-21.55995565 182.30175123 -21.58587154 184.72920912 -21.61931133 187.15655327 C-21.66442777 190.50013027 -21.68430015 193.84298761 -21.69841099 197.18681908 C-21.72728932 198.63818134 -21.72728932 198.63818134 -21.75675106 200.11886406 C-21.74824042 207.25862153 -20.50914639 214.36064768 -15.74272156 219.95630074 C-11.02522636 224.41777052 -5.00922339 227.18987415 0.70759487 230.13701439 C2.27852247 230.96006019 3.84878025 231.78438512 5.41853237 232.60967064 C9.03324194 234.50897677 12.65060409 236.40308587 16.27009487 238.29326439 C20.34635235 240.42299442 24.41640941 242.56406691 28.4829855 244.7122097 C36.73394718 249.06949983 45.01273918 253.37162582 53.30308437 257.65337181 C84.04946811 273.53328017 84.04946811 273.53328017 94.02790737 279.08623314 C94.92372524 279.58413353 95.81954311 280.08203392 96.74250698 280.5950222 C98.45210153 281.54855584 100.15888112 282.50716283 101.86213589 283.47197533 C110.18370728 288.12274687 118.09933259 292.00600833 127.78571987 289.62651634 C133.69058152 287.69855168 138.89264235 285.03499883 144.27009487 281.94951439 C150.31009818 278.5529178 156.35434862 275.23813628 162.58259487 272.19951439 C169.94619729 268.59464352 177.12776333 264.68295096 184.29304409 260.69975853 C190.93875258 257.02772088 197.69370291 253.61584478 204.49177456 250.23857689 C210.77041865 247.11653084 217.00909298 243.91669583 223.24470425 240.7097683 C224.63946497 239.99314311 226.03497732 239.27797897 227.43122768 238.56426048 C234.84618332 234.77389541 242.2277651 230.9284298 249.49665737 226.86357689 C250.60476772 226.24563255 251.71287807 225.62768822 252.85456753 224.9910183 C258.97362412 221.01462639 261.74353351 216.02668745 263.70759487 209.13701439 C263.88773498 206.63116936 263.96437682 204.11689805 263.96829128 201.60458946 C263.97211683 200.86669003 263.97594238 200.12879059 263.97988385 199.36853057 C263.99016643 196.90676364 263.98623076 194.44523201 263.98225307 191.98344994 C263.98660223 190.21393684 263.99178606 188.44442564 263.99774075 186.67491722 C264.01112151 181.87521326 264.01171033 177.0755881 264.00917745 172.27586913 C264.0081069 168.26509017 264.01299337 164.2543271 264.01778287 160.24355155 C264.02887533 150.77809541 264.02931723 141.31267896 264.0232687 131.84721947 C264.01723123 122.09288169 264.02953478 112.33868824 264.05083877 102.58437508 C264.06847282 94.20115863 264.07445319 85.81798803 264.07120103 77.43475372 C264.06939057 72.43168101 264.07200049 67.42871122 264.08591557 62.42565536 C264.09851826 57.71832252 264.09652671 53.01121402 264.08350468 48.30388451 C264.08114449 46.58061013 264.08385351 44.85731985 264.0921278 43.13406372 C264.26580768 27.44296817 264.26580768 27.44296817 256.70759487 14.13701439 C248.04517067 7.90517539 239.51228109 7.28868893 229.16120815 7.4399929 C227.63084111 7.44004846 226.10047209 7.43746158 224.57011318 7.43247032 C220.42481275 7.42650069 216.28054081 7.45764162 212.13544226 7.49571919 C207.70371586 7.53005326 203.27197153 7.53013631 198.84013271 7.53446007 C191.32979647 7.54642713 183.81982602 7.58013009 176.30964565 7.62944603 C166.02204278 7.6969954 155.73461045 7.72811159 145.44682264 7.75001073 C123.46279102 7.79911243 101.47978205 7.93713073 79.49644566 8.11469555 C76.66871572 8.13732553 73.84098076 8.15920424 71.01324368 8.18092155 Z " fill="#404855" transform="translate(29.292405128479004,-0.13701438903808594)"/>
<path d="M0 0 C4.56880979 3.16302216 8.28821811 6.61739695 10 12 C10.99333159 18.62791939 10.99633297 24.30353631 7.3125 30.0625 C3.95534369 34.34739506 1.14171559 37.51508326 -4.3125 38.75 C-5.199375 38.8325 -6.08625 38.915 -7 39 C-7 35.37 -7 31.74 -7 28 C-5.35 27.34 -3.7 26.68 -2 26 C0.38685551 22.03381795 0.20983785 18.22632489 0.125 13.6875 C0.10695312 12.43324219 0.08890625 11.17898437 0.0703125 9.88671875 C0.04710937 8.93410156 0.02390625 7.98148438 0 7 C-1.51980469 7.23396484 -1.51980469 7.23396484 -3.0703125 7.47265625 C-4.42180536 7.66974896 -5.77337192 7.86633675 -7.125 8.0625 C-7.79015625 8.16626953 -8.4553125 8.27003906 -9.140625 8.37695312 C-14.5683472 9.14854108 -18.83059539 8.72313487 -24 7 C-23.979375 7.969375 -23.95875 8.93875 -23.9375 9.9375 C-24 13 -24 13 -25 14 C-25.23192865 15.51469448 -25.41215238 17.03754562 -25.5625 18.5625 C-25.64628906 19.38878906 -25.73007813 20.21507813 -25.81640625 21.06640625 C-25.87699219 21.70449219 -25.93757812 22.34257813 -26 23 C-25.34 23 -24.68 23 -24 23 C-24 23.66 -24 24.32 -24 25 C-22.68 25.33 -21.36 25.66 -20 26 C-20 26.66 -20 27.32 -20 28 C-19.01 28 -18.02 28 -17 28 C-17 28.99 -17 29.98 -17 31 C-19.3125 31.1875 -19.3125 31.1875 -22 31 C-23.625 29.5625 -23.625 29.5625 -25 28 C-25.99 27.67 -26.98 27.34 -28 27 C-26.40521237 30.06057006 -26.40521237 30.06057006 -24 33 C-20.86734521 33.9688059 -20.86734521 33.9688059 -18 34 C-18.33 35.32 -18.66 36.64 -19 38 C-24.51664885 37.21190731 -28.19735096 35.2873925 -31.6875 30.9375 C-35.0523639 25.85281677 -36.45366546 20.45404381 -35.65625 14.3828125 C-33.77779311 7.02552302 -30.32118353 2.05913379 -23.875 -1.9375 C-16.25757358 -4.656803 -7.03495868 -3.92758904 0 0 Z " fill="#41495A" transform="translate(165,29)"/>
<path d="M0 0 C1.32350795 -0.00668677 1.32350795 -0.00668677 2.67375344 -0.01350862 C4.1290751 -0.01323207 4.1290751 -0.01323207 5.61379719 -0.01294994 C6.64385468 -0.01662663 7.67391218 -0.02030332 8.73518354 -0.02409142 C12.20354089 -0.03514726 15.67186831 -0.03897533 19.14024067 -0.04278088 C21.62028315 -0.04904408 24.10032468 -0.05569075 26.58036518 -0.0626936 C34.03490835 -0.08193444 41.48944356 -0.09252385 48.94400427 -0.10142139 C52.45506359 -0.10580514 55.9661214 -0.11117174 59.47717953 -0.11641026 C71.14985529 -0.1334224 82.82253011 -0.14791625 94.49521637 -0.155159 C97.52418933 -0.15706887 100.55316227 -0.15898921 103.5821352 -0.16094494 C104.71138102 -0.16167055 104.71138102 -0.16167055 105.8634399 -0.16241082 C118.0569938 -0.17070994 130.25044957 -0.1960449 142.44396063 -0.22852562 C154.96463361 -0.2616057 167.48525673 -0.27960863 180.00597364 -0.28280324 C187.03514269 -0.2849675 194.06416865 -0.29370375 201.0932951 -0.31926441 C207.70640412 -0.3432568 214.319302 -0.34679111 220.93246174 -0.33650303 C223.35923652 -0.33600678 225.78602384 -0.34235322 228.21275997 -0.35605907 C231.5272499 -0.37373085 234.84081074 -0.36669413 238.15530109 -0.35352612 C239.11436192 -0.36449536 240.07342275 -0.37546461 241.06154603 -0.38676625 C247.3318489 -0.3266745 251.28958952 0.94344464 256.70200825 4.13422108 C256.04200825 4.46422108 255.38200825 4.79422108 254.70200825 5.13422108 C253.22107276 4.43486061 253.22107276 4.43486061 251.71021938 3.72137165 C247.03541156 1.60874951 242.63255113 1.71086862 237.57063007 1.7398119 C236.56518402 1.73372079 235.55973797 1.72762969 234.52382386 1.72135401 C231.16236741 1.70473551 227.80129024 1.70949836 224.43980122 1.7142992 C222.02639085 1.70695805 219.61298399 1.69837169 217.1995821 1.68863392 C211.32801245 1.66871751 205.45653488 1.66303739 199.58494119 1.6648218 C194.80831951 1.66613148 190.03172855 1.66231482 185.25511265 1.65489674 C183.87706284 1.65279742 182.49901303 1.65069982 181.12096322 1.64860392 C180.09195736 1.64703862 180.09195736 1.64703862 179.04216351 1.64544171 C166.0754786 1.62655041 153.1088503 1.62758556 140.14215733 1.63441104 C128.30138584 1.63998052 116.46083112 1.61918459 104.62011026 1.58605057 C92.44392364 1.55224417 80.26784064 1.53715421 68.09160626 1.5417676 C61.26296908 1.54400595 54.434532 1.53886311 47.6059351 1.51387501 C41.17901951 1.4905562 34.75243939 1.49352897 28.32551098 1.51380253 C25.97340322 1.51720392 23.62126491 1.51216134 21.26919842 1.49781895 C1.58825149 1.1014417 1.58825149 1.1014417 -15.6847105 9.66937733 C-16.44396832 10.50340076 -17.20322613 11.3374242 -17.98549175 12.19672108 C-18.77310894 13.03332264 -19.56072613 13.8699242 -20.3722105 14.73187733 C-22.05070524 16.82573993 -23.23939017 18.68302061 -24.29799175 21.13422108 C-24.95799175 21.13422108 -25.61799175 21.13422108 -26.29799175 21.13422108 C-27.19848423 25.75246756 -27.44971488 30.22714422 -27.45621014 34.91702747 C-27.4636171 36.06402841 -27.4636171 36.06402841 -27.4711737 37.23420107 C-27.48648183 39.78599601 -27.49489111 42.33776592 -27.50331402 44.88959217 C-27.5128978 46.72296841 -27.52290818 48.55634247 -27.5333128 50.38971424 C-27.56031369 55.36026079 -27.5813493 60.33081678 -27.60131478 65.30139589 C-27.62320407 70.49842481 -27.65057835 75.69542477 -27.67737103 80.89243031 C-27.72725813 90.73077034 -27.77221173 100.5691265 -27.81539339 110.407498 C-27.8647998 121.60937785 -27.91970531 132.81122863 -27.97507298 144.01308036 C-28.0888319 167.05343347 -28.19568419 190.09381447 -28.29799175 213.13422108 C-28.62799175 213.13422108 -28.95799175 213.13422108 -29.29799175 213.13422108 C-29.43833034 188.69901698 -29.54404542 164.26387354 -29.60886478 139.82834721 C-29.63976536 128.48176293 -29.68187334 117.13542949 -29.75062847 105.78900623 C-29.81054666 95.89617291 -29.84916849 86.00352129 -29.86252272 76.11051154 C-29.87032543 70.87511584 -29.88858432 65.64023985 -29.93237209 60.40501118 C-29.97330939 55.47027726 -29.98561831 50.53627368 -29.97663784 45.60138607 C-29.97827907 43.79709679 -29.99008776 41.99278132 -30.0132246 40.18863964 C-30.15391494 28.64500808 -29.47327805 18.94585837 -21.28771305 9.91678715 C-15.57149104 4.45240842 -8.04267214 0.01885113 0 0 Z " fill="#93B4AE" transform="translate(29.29799175262451,-0.13422107696533203)"/>
<path d="M0 0 C3.23939656 1.73539102 5.42321134 3.42321134 8 6 C8 7.32 8 8.64 8 10 C5.125 10.1875 5.125 10.1875 2 10 C1.34 9.01 0.68 8.02 0 7 C-4.17660573 6.73481868 -7.04340734 6.68113578 -11 8 C-11.05410687 9.77049689 -11.09284119 11.54146849 -11.125 13.3125 C-11.15980469 14.79169922 -11.15980469 14.79169922 -11.1953125 16.30078125 C-11.20682639 19.22406527 -11.20682639 19.22406527 -9 22 C-5.99507264 22.33388082 -3.89359346 22.56215006 -1 22 C1.05270463 20.15811388 1.05270463 20.15811388 2 18 C-0.31 18 -2.62 18 -5 18 C-5 16.35 -5 14.7 -5 13 C-0.38 13 4.24 13 9 13 C9 19.22447215 8.68124651 20.39844187 5 25 C1.03632461 28.6369516 -2.19144572 28.44668258 -7.375 28.28125 C-12.21696224 27.76246833 -14.17288286 25.93888973 -17.3125 22.375 C-19.47992515 18.0401497 -19.69150695 14.75517745 -19 10 C-17.70350806 6.18255152 -16.38893418 4.36047558 -13.4375 1.625 C-8.83902121 -0.54882634 -5.00459962 -0.8286837 0 0 Z " fill="#E4E5E6" transform="translate(105,106)"/>
<path d="M0 0 C2.97 0 5.94 0 9 0 C16.66742597 18.82004556 16.66742597 18.82004556 18 28 C16.02 28 14.04 28 12 28 C11.34 26.35 10.68 24.7 10 23 C6.37 22.67 2.74 22.34 -1 22 C-1.33 23.65 -1.66 25.3 -2 27 C-3 28 -3 28 -5.5625 28.0625 C-6.366875 28.041875 -7.17125 28.02125 -8 28 C-7.29263232 22.98484266 -6.01167569 18.2751273 -4.5625 13.4375 C-4.23668945 12.3247168 -4.23668945 12.3247168 -3.90429688 11.18945312 C-2.77321945 7.37503886 -1.56086296 3.66621299 0 0 Z " fill="#E7E7E8" transform="translate(90,141)"/>
<path d="M0 0 C1.98 0 3.96 0 6 0 C6.33 2.97 6.66 5.94 7 9 C7.33 8.67 7.66 8.34 8 8 C14.96238651 7.42931258 14.96238651 7.42931258 18.5 9.375 C20.83642831 13.46374954 20.63958625 17.40390346 20 22 C18.83567931 24.48050929 17.90574048 26.09425952 16 28 C13.32461486 28.04246643 10.67290614 28.04919459 8 28 C7.34 28 6.68 28 6 28 C4.02 28 2.04 28 0 28 C0 18.76 0 9.52 0 0 Z " fill="#C4C5C7" transform="translate(197,106)"/>
<path d="M0 0 C1.98 0 3.96 0 6 0 C6 9.57 6 19.14 6 29 C4.02 29 2.04 29 0 29 C-1.96822886 27.03177114 -1.66248381 23.65191291 -2 21 C-2.66 21.33 -3.32 21.66 -4 22 C-3.67 19.36 -3.34 16.72 -3 14 C-7.62 14 -12.24 14 -17 14 C-17 15.65 -17 17.3 -17 19 C-14.69 19 -12.38 19 -10 19 C-11.875 22.875 -11.875 22.875 -13 24 C-18.79588336 24.46740995 -18.79588336 24.46740995 -21 24 C-23.35161843 21.76412118 -23.95364866 20.44250077 -24.29296875 17.203125 C-24.25816406 16.22859375 -24.22335938 15.2540625 -24.1875 14.25 C-24.16042969 13.26515625 -24.13335937 12.2803125 -24.10546875 11.265625 C-24.07066406 10.51796875 -24.03585938 9.7703125 -24 9 C-21.1004339 7.34123921 -19.08364791 6.7638784 -15.75 6.875 C-13.89375 6.936875 -13.89375 6.936875 -12 7 C-11.34 8.32 -10.68 9.64 -10 11 C-8.02 11 -6.04 11 -4 11 C-3.67 10.01 -3.34 9.02 -3 8 C-2.67 9.65 -2.34 11.3 -2 13 C-1.34 8.71 -0.68 4.42 0 0 Z " fill="#363A44" transform="translate(117,105)"/>
<path d="M0 0 C1.98 0 3.96 0 6 0 C6 3.96 6 7.92 6 12 C10.29 12 14.58 12 19 12 C19 8.04 19 4.08 19 0 C20.98 0 22.96 0 25 0 C25 9.24 25 18.48 25 28 C23.02 28 21.04 28 19 28 C19 24.37 19 20.74 19 17 C14.71 17 10.42 17 6 17 C6 20.63 6 24.26 6 28 C4.02 28 2.04 28 0 28 C0 18.76 0 9.52 0 0 Z " fill="#E3E4E5" transform="translate(143,106)"/>
<path d="M0 0 C0 0.66 0 1.32 0 2 C0.9590625 2.4640625 0.9590625 2.4640625 1.9375 2.9375 C4 4 4 4 5 5 C5.07226502 6.85287502 5.0838122 8.70833878 5.0625 10.5625 C5.05347656 11.57441406 5.04445312 12.58632812 5.03515625 13.62890625 C5.02355469 14.41136719 5.01195312 15.19382813 5 16 C4.34 16 3.68 16 3 16 C2.67 16.99 2.34 17.98 2 19 C-1.09780948 21.06520632 -1.9540481 21.29477024 -5.5 21.3125 C-6.66015625 21.33763672 -6.66015625 21.33763672 -7.84375 21.36328125 C-10.50052926 20.9156717 -11.38872529 20.12254457 -13 18 C-13 17.34 -13 16.68 -13 16 C-13.66 16 -14.32 16 -15 16 C-15.76447876 6.2996139 -15.76447876 6.2996139 -13.125 1.8125 C-8.73271871 -0.73502315 -4.95979323 -0.43337999 0 0 Z " fill="#C3C4C7" transform="translate(171,148)"/>
<path d="M0 0 C0.66 0.33 1.32 0.66 2 1 C1.01 2.485 1.01 2.485 0 4 C1.32 4.33 2.64 4.66 4 5 C3.34 5 2.68 5 2 5 C2.020625 6.134375 2.04125 7.26875 2.0625 8.4375 C2 12 2 12 1 13 C0.76807135 14.51469448 0.58784762 16.03754562 0.4375 17.5625 C0.35371094 18.38878906 0.26992187 19.21507813 0.18359375 20.06640625 C0.12300781 20.70449219 0.06242188 21.34257813 0 22 C0.66 22 1.32 22 2 22 C2 22.66 2 23.32 2 24 C3.32 24.33 4.64 24.66 6 25 C6 25.66 6 26.32 6 27 C6.99 27 7.98 27 9 27 C9 27.99 9 28.98 9 30 C6.6875 30.1875 6.6875 30.1875 4 30 C2.375 28.5625 2.375 28.5625 1 27 C0.01 26.67 -0.98 26.34 -2 26 C-0.40521237 29.06057006 -0.40521237 29.06057006 2 32 C5.13265479 32.9688059 5.13265479 32.9688059 8 33 C7.67 34.32 7.34 35.64 7 37 C1.48335115 36.21190731 -2.19735096 34.2873925 -5.6875 29.9375 C-9.07156441 24.82380267 -10.40140319 19.45003502 -9.69140625 13.34765625 C-8.1599398 7.02203396 -5.34957482 3.60546687 0 0 Z " fill="#475163" transform="translate(139,30)"/>
<path d="M0 0 C0.91586866 2.5056784 1.07751859 3.74711149 0.28515625 6.33203125 C-0.32005859 7.55986328 -0.32005859 7.55986328 -0.9375 8.8125 C-1.31777344 9.62332031 -1.69804687 10.43414062 -2.08984375 11.26953125 C-7.86483626 19.52458189 -16.37396519 23.61765004 -25.1875 28 C-26.4732808 28.65045962 -27.75842476 29.30217942 -29.04296875 29.95507812 C-31.70509481 31.3069477 -34.3698445 32.65342292 -37.03662109 33.99609375 C-42.61633399 36.8105443 -48.16171169 39.69088757 -53.70809937 42.57028198 C-56.72307027 44.13458344 -59.74058348 45.69396608 -62.7578125 47.25390625 C-63.9664868 47.87903914 -65.17514568 48.50420187 -66.38378906 49.12939453 C-66.98114868 49.43838684 -67.5785083 49.74737915 -68.19396973 50.06573486 C-69.99361638 50.99669773 -71.79320805 51.92776678 -73.59277344 52.85888672 C-74.18445816 53.16502899 -74.77614288 53.47117126 -75.38575745 53.78659058 C-76.58365116 54.40643004 -77.78151687 55.02632361 -78.97935486 55.64627075 C-81.96042027 57.18898075 -84.94222505 58.73022105 -87.92504883 60.26953125 C-93.77500547 63.28893783 -99.61830172 66.31994874 -105.44641113 69.38136292 C-108.32568728 70.89269507 -111.20810029 72.39798467 -114.09088135 73.90261841 C-115.48233046 74.63091043 -116.87228358 75.3620682 -118.26068115 76.09616089 C-120.1844222 77.11300709 -122.11300903 78.1200201 -124.04296875 79.125 C-125.14664795 79.70507812 -126.25032715 80.28515625 -127.38745117 80.8828125 C-128.24959229 81.25148438 -129.1117334 81.62015625 -130 82 C-130.66 81.67 -131.32 81.34 -132 81 C-110.94688049 69.37886434 -110.94688049 69.37886434 -102 65 C-95.56347196 61.84864376 -89.27825428 58.45515024 -83 55 C-76.86107822 51.62507485 -70.72249747 48.28313392 -64.4375 45.1875 C-52.97632903 39.5410978 -41.634969 33.65863619 -30.31542969 27.734375 C-28.29202315 26.67588604 -26.26702683 25.62041998 -24.23925781 24.5703125 C-12.46992236 18.45044812 -4.76982737 12.798543 0 0 Z " fill="#A6CDBA" transform="translate(300,212)"/>
<path d="M0 0 C1.65 0 3.3 0 5 0 C5.33 0.66 5.66 1.32 6 2 C6.66 1.34 7.32 0.68 8 0 C11.71080071 -0.41231119 14.04963017 -0.63469928 17.2109375 1.4765625 C19.82950896 5.17000609 19.44001326 8.34315409 19.25 12.75 C19.23195312 13.54277344 19.21390625 14.33554688 19.1953125 15.15234375 C19.14833082 17.10208348 19.07659044 19.05119878 19 21 C17.02 21 15.04 21 13 21 C12.67 16.05 12.34 11.1 12 6 C10.35 6 8.7 6 7 6 C5.12175109 7.87824891 5.60897603 11.03935276 5.4375 13.5625 C5.31181641 15.35880859 5.31181641 15.35880859 5.18359375 17.19140625 C5.12300781 18.11824219 5.06242188 19.04507813 5 20 C3.35 20 1.7 20 0 20 C0 13.4 0 6.8 0 0 Z " fill="#BFC1C3" transform="translate(180,148)"/>
<path d="M0 0 C1.98 0 3.96 0 6 0 C6.33 4.62 6.66 9.24 7 14 C8.65 14 10.3 14 12 14 C13.35091528 11.29816945 13.33858058 8.88191794 13.5625 5.875 C13.64628906 4.77929688 13.73007813 3.68359375 13.81640625 2.5546875 C13.87699219 1.71164063 13.93757812 0.86859375 14 0 C15.65 0 17.3 0 19 0 C19 6.6 19 13.2 19 20 C17.35 20 15.7 20 14 20 C14 19.34 14 18.68 14 18 C13.01 18.66 12.02 19.32 11 20 C9.0625 20.3359375 9.0625 20.3359375 7 20.375 C6.319375 20.40335938 5.63875 20.43171875 4.9375 20.4609375 C3 20 3 20 1.26171875 18.4921875 C-0.5286296 14.9558338 -0.32058628 11.61291451 -0.1875 7.75 C-0.17396484 7.00492187 -0.16042969 6.25984375 -0.14648438 5.4921875 C-0.11127204 3.66114584 -0.05746851 1.83047831 0 0 Z " fill="#E2E2E4" transform="translate(173,114)"/>
<path d="M0 0 C2.5625 1.3125 2.5625 1.3125 4 3 C4 3.99 4 4.98 4 6 C2.35 6 0.7 6 -1 6 C-1 5.34 -1 4.68 -1 4 C-2.98 4 -4.96 4 -7 4 C-7 5.32 -7 6.64 -7 8 C-5.4221875 7.9071875 -5.4221875 7.9071875 -3.8125 7.8125 C0.21225709 8.01043887 2.02723853 8.29748957 5 11 C5.67615409 14.53102693 5.4252877 16.26541215 3.625 19.375 C-0.32260482 21.81875537 -4.47082499 21.8392962 -9 21 C-10.80859375 19.66015625 -10.80859375 19.66015625 -12 18 C-12 17.01 -12 16.02 -12 15 C-10.35 15 -8.7 15 -7 15 C-7 15.66 -7 16.32 -7 17 C-5.02 16.67 -3.04 16.34 -1 16 C-1 15.34 -1 14.68 -1 14 C-1.92232422 13.83564453 -1.92232422 13.83564453 -2.86328125 13.66796875 C-3.67152344 13.50941406 -4.47976562 13.35085937 -5.3125 13.1875 C-6.51326172 12.96126953 -6.51326172 12.96126953 -7.73828125 12.73046875 C-10.28691813 11.90733387 -11.38149694 11.11532204 -13 9 C-13.4375 6 -13.4375 6 -13 3 C-9.8445364 -1.11582208 -4.73463862 -0.65155577 0 0 Z " fill="#AEAFB3" transform="translate(216,148)"/>
<path d="M0 0 C3.80097585 0.10366298 6.21902582 0.79379464 9.1875 3.3125 C10 5.5 10 5.5 10.1875 7.3125 C7.8125 7.4375 7.8125 7.4375 5.1875 7.3125 C4.5275 6.6525 3.8675 5.9925 3.1875 5.3125 C1.8675 5.3125 0.5475 5.3125 -0.8125 5.3125 C-1.1425 8.2825 -1.4725 11.2525 -1.8125 14.3125 C0.1675 14.9725 2.1475 15.6325 4.1875 16.3125 C4.5175 15.3225 4.8475 14.3325 5.1875 13.3125 C6.8375 13.3125 8.4875 13.3125 10.1875 13.3125 C9.8575 14.9625 9.5275 16.6125 9.1875 18.3125 C8.1975 18.6425 7.2075 18.9725 6.1875 19.3125 C6.1875 19.9725 6.1875 20.6325 6.1875 21.3125 C-2.79254312 22.08368691 -2.79254312 22.08368691 -6.375 19.375 C-8.26181414 15.35526552 -9.03843097 11.75849866 -8.8125 7.3125 C-6.74472788 2.68462907 -5.18647361 0.42512079 0 0 Z " fill="#E0E1E2" transform="translate(117.8125,147.6875)"/>
<path d="M0 0 C0 0.33 0 0.66 0 1 C-21.12 1 -42.24 1 -64 1 C-64 1.66 -64 2.32 -64 3 C-92.05 3 -120.1 3 -149 3 C-146.23295076 0.23295076 -144.58685532 0.72520966 -140.70776367 0.68115234 C-139.73039529 0.66608816 -139.73039529 0.66608816 -138.73328209 0.65071964 C-136.54485304 0.6195486 -134.35655229 0.60269078 -132.16796875 0.5859375 C-130.60903496 0.56709472 -129.05011046 0.54746966 -127.49119568 0.52711487 C-123.26838789 0.47479892 -119.04554852 0.4354594 -114.82257843 0.39890671 C-111.31656387 0.36709845 -107.81064498 0.32800549 -104.30470276 0.28913784 C-69.53718628 -0.09260702 -34.76906836 -0.11169747 0 0 Z " fill="#303541" transform="translate(175,8)"/>
<path d="M0 0 C1.98 0 3.96 0 6 0 C6 1.98 6 3.96 6 6 C7.32 6 8.64 6 10 6 C10 7.65 10 9.3 10 11 C8.68 11 7.36 11 6 11 C6 14.63 6 18.26 6 22 C7.32 22 8.64 22 10 22 C10 23.65 10 25.3 10 27 C8.72125 27.061875 7.4425 27.12375 6.125 27.1875 C5.04605469 27.23970703 5.04605469 27.23970703 3.9453125 27.29296875 C3.30335938 27.19628906 2.66140625 27.09960938 2 27 C-0.42130331 23.36804504 -0.21022785 21.61650652 -0.125 17.3125 C-0.09792969 15.54326172 -0.09792969 15.54326172 -0.0703125 13.73828125 C-0.03550781 12.38283203 -0.03550781 12.38283203 0 11 C-0.99 11 -1.98 11 -3 11 C-3 9.35 -3 7.7 -3 6 C-2.01 6 -1.02 6 0 6 C0 4.02 0 2.04 0 0 Z " fill="#D1D1D3" transform="translate(133,142)"/>
<path d="M0 0 C0 0.66 0 1.32 0 2 C-1.609375 3.515625 -1.609375 3.515625 -3.75 5.25 C-8.17690672 9.0109119 -11.13411945 12.40235836 -13 18 C-13.11996454 20.69147956 -13.18531849 23.3590364 -13.20532227 26.05151367 C-13.21522186 26.87125168 -13.22512146 27.69098969 -13.23532104 28.53556824 C-13.26692009 31.24633898 -13.2916872 33.95712725 -13.31640625 36.66796875 C-13.33697715 38.54698646 -13.35797366 40.42599955 -13.37937927 42.30500793 C-13.43458586 47.2517015 -13.4840014 52.19843674 -13.53222656 57.14520264 C-13.58245187 62.19254262 -13.63813257 67.23982207 -13.69335938 72.28710938 C-13.80092368 82.19135454 -13.90237253 92.09565225 -14 102 C-14.33 102 -14.66 102 -15 102 C-15.81498079 91.56668263 -16.17547979 81.18765288 -16.203125 70.72265625 C-16.20595238 69.98515074 -16.20877975 69.24764523 -16.21169281 68.48779106 C-16.22650414 64.60115092 -16.23585263 60.71454632 -16.24023438 56.82788086 C-16.245761 52.84154629 -16.26992766 48.855546 -16.29820633 44.86931705 C-16.31688032 41.77136776 -16.32204035 38.67349939 -16.32357025 35.57549858 C-16.3265754 34.10560675 -16.33453065 32.63571561 -16.34775543 31.1658802 C-16.42859712 21.510232 -16.45683521 13.10054661 -9.5 5.625 C-8.9121875 4.97789063 -8.324375 4.33078125 -7.71875 3.6640625 C-5.12020527 1.14819874 -3.68087363 0 0 0 Z " fill="#303541" transform="translate(25,11)"/>
<path d="M0 0 C1.33332095 2.6666419 0.67102033 4.16680303 0 7 C-0.66 7 -1.32 7 -2 7 C-2.90049248 11.61824648 -3.15172313 16.09292314 -3.15821838 20.7828064 C-3.16562535 21.92980733 -3.16562535 21.92980733 -3.17318195 23.09998 C-3.18849007 25.65177494 -3.19689936 28.20354485 -3.20532227 30.75537109 C-3.21490605 32.58874734 -3.22491643 34.42212139 -3.23532104 36.25549316 C-3.26232194 41.22603971 -3.28335755 46.1965957 -3.30332303 51.16717482 C-3.32521232 56.36420374 -3.3525866 61.56120369 -3.37937927 66.75820923 C-3.42926638 76.59654927 -3.47421998 86.43490542 -3.51740164 96.27327693 C-3.56680805 107.47515677 -3.62171355 118.67700756 -3.67708123 129.87885928 C-3.79084014 152.91921239 -3.89769243 175.9595934 -4 199 C-4.33 199 -4.66 199 -5 199 C-5.11689049 174.53022765 -5.20501631 150.06049726 -5.25906086 125.59050179 C-5.2848236 114.22820823 -5.31993741 102.86608833 -5.37719727 91.50390625 C-5.42709111 81.59864079 -5.45930504 71.69350111 -5.47044247 61.78811347 C-5.47695105 56.54502721 -5.49220811 51.30230074 -5.52865028 46.05932999 C-5.56270412 41.11973646 -5.57303398 36.1806494 -5.56553841 31.24094963 C-5.56690876 29.43260759 -5.57678513 27.6242478 -5.59602737 25.81600761 C-5.69232371 16.2961605 -5.67801172 8.13074354 0 0 Z " fill="#A0C3BD" transform="translate(5,14)"/>
<path d="M0 0 C1.98 0 3.96 0 6 0 C6 1.98 6 3.96 6 6 C7.32 6 8.64 6 10 6 C10 7.65 10 9.3 10 11 C8.68 11 7.36 11 6 11 C6 14.3 6 17.6 6 21 C7.32 21 8.64 21 10 21 C10 22.65 10 24.3 10 26 C3.9453125 26.1953125 3.9453125 26.1953125 2 26 C0 24 0 24 -0.1953125 20.7421875 C-0.17210937 19.46601562 -0.14890625 18.18984375 -0.125 16.875 C-0.10695312 15.59367187 -0.08890625 14.31234375 -0.0703125 12.9921875 C-0.04710937 12.00476563 -0.02390625 11.01734375 0 10 C-0.99 10 -1.98 10 -3 10 C-3 8.68 -3 7.36 -3 6 C-2.01 6 -1.02 6 0 6 C0 4.02 0 2.04 0 0 Z " fill="#E2E3E4" transform="translate(129,108)"/>
<path d="M0 0 C2.31 0 4.62 0 7 0 C7 1.65 7 3.3 7 5 C5.68 5.33 4.36 5.66 3 6 C4.32 6.33 5.64 6.66 7 7 C7 13.93 7 20.86 7 28 C4.69 28 2.38 28 0 28 C0 18.76 0 9.52 0 0 Z " fill="#7C7F84" transform="translate(146,141)"/>
<path d="M0 0 C1.98 0 3.96 0 6 0 C6 9.57 6 19.14 6 29 C4.02 29 2.04 29 0 29 C0 19.43 0 9.86 0 0 Z " fill="#989A9E" transform="translate(117,105)"/>
<path d="M0 0 C0 0.66 0 1.32 0 2 C0.99 2 1.98 2 3 2 C3 1.34 3 0.68 3 0 C4.32 0 5.64 0 7 0 C7 0.66 7 1.32 7 2 C7.66 2 8.32 2 9 2 C9 1.34 9 0.68 9 0 C10.32 0.33 11.64 0.66 13 1 C12.34 1 11.68 1 11 1 C11 1.66 11 2.32 11 3 C12.65 3 14.3 3 16 3 C16 5.64 16 8.28 16 11 C15.34 11 14.68 11 14 11 C14 8.69 14 6.38 14 4 C13.01 4 12.02 4 11 4 C11 6.31 11 8.62 11 11 C10.34 11 9.68 11 9 11 C9 8.69 9 6.38 9 4 C8.34 4 7.68 4 7 4 C6.67 6.31 6.34 8.62 6 11 C-0.15234375 11.09765625 -0.15234375 11.09765625 -2 11 C-3 10 -3 10 -3.0625 7.4375 C-3.041875 6.633125 -3.02125 5.82875 -3 5 C-3.66 5 -4.32 5 -5 5 C-5 6.98 -5 8.96 -5 11 C-5.99 11 -6.98 11 -8 11 C-8 8.36 -8 5.72 -8 3 C-2.25 0 -2.25 0 0 0 Z " fill="#436F4C" transform="translate(134,208)"/>
<path d="M0 0 C2.4375 0.375 2.4375 0.375 5 1 C5.99 1 6.98 1 8 1 C8.33 0.67 8.66 0.34 9 0 C10.99958364 -0.04080783 13.00045254 -0.04254356 15 0 C15.02688151 1.64574566 15.04634123 3.29161413 15.0625 4.9375 C15.07410156 5.85402344 15.08570313 6.77054688 15.09765625 7.71484375 C15 10 15 10 14 11 C12.00041636 11.04080783 9.99954746 11.04254356 8 11 C8 10.34 8 9.68 8 9 C9.65 9.33 11.3 9.66 13 10 C13 9.34 13 8.68 13 8 C12.21625 7.855625 11.4325 7.71125 10.625 7.5625 C8 7 8 7 6 6 C5.67 6.99 5.34 7.98 5 9 C2.625 9.125 2.625 9.125 0 9 C-2 7 -2 7 -2.25 4.5 C-2 2 -2 2 0 0 Z " fill="#3D6347" transform="translate(138,226)"/>
<path d="M0 0 C0.33 0 0.66 0 1 0 C1 9.24 1 18.48 1 28 C0.34 27.67 -0.32 27.34 -1 27 C-1 26.01 -1 25.02 -1 24 C-2.98 23.67 -4.96 23.34 -7 23 C-7 19.7 -7 16.4 -7 13 C-5.02 12.34 -3.04 11.68 -1 11 C-0.67 7.37 -0.34 3.74 0 0 Z " fill="#333740" transform="translate(142,106)"/>
<path d="M0 0 C2.475 0.99 2.475 0.99 5 2 C5.30719041 5.37909451 5.34529892 7.40357459 3.625 10.375 C-0.32260482 12.81875537 -4.47082499 12.8392962 -9 12 C-10.80859375 10.66015625 -10.80859375 10.66015625 -12 9 C-12 8.01 -12 7.02 -12 6 C-10.35 6 -8.7 6 -7 6 C-7 6.66 -7 7.32 -7 8 C-5.02 7.67 -3.04 7.34 -1 7 C-0.67 4.69 -0.34 2.38 0 0 Z " fill="#A4A5A9" transform="translate(216,157)"/>
<path d="M0 0 C3.29714793 0.32971479 4.6226839 0.6226839 7 3 C7.38080215 6.50337981 7.40245078 8.36278626 5.5 11.375 C5.005 11.91125 4.51 12.4475 4 13 C1.03 12.505 1.03 12.505 -2 12 C-2.05395478 10.37536158 -2.09277195 8.75021459 -2.125 7.125 C-2.14820313 6.22007812 -2.17140625 5.31515625 -2.1953125 4.3828125 C-2 2 -2 2 0 0 Z " fill="#373A42" transform="translate(164,152)"/>
<path d="M0 0 C3.0625 0.1875 3.0625 0.1875 5.0625 2.1875 C5.61436722 8.25803942 5.61436722 8.25803942 3.875 11.1875 C2.0625 12.1875 2.0625 12.1875 -0.5625 11.9375 C-2.9375 11.1875 -2.9375 11.1875 -3.9375 10.1875 C-4.0354057 8.69011876 -4.06724864 7.18807108 -4.0625 5.6875 C-4.06507813 4.8728125 -4.06765625 4.058125 -4.0703125 3.21875 C-3.85713865 -0.04155587 -3.32363189 0.21214672 0 0 Z " fill="#30333A" transform="translate(206.9375,117.8125)"/>
<path d="M0 0 C6.0546875 -0.1953125 6.0546875 -0.1953125 8 0 C8.66 0.66 9.32 1.32 10 2 C9.44444444 6.55555556 9.44444444 6.55555556 8 8 C6.33382885 8.04063832 4.66611905 8.042721 3 8 C3 9.32 3 10.64 3 12 C2.01 12 1.02 12 0 12 C0 8.04 0 4.08 0 0 Z " fill="#4A7F55" transform="translate(119,223)"/>
<path d="M0 0 C0.33 0 0.66 0 1 0 C1 5.61 1 11.22 1 17 C-0.98 17 -2.96 17 -5 17 C-5.33 11.72 -5.66 6.44 -6 1 C-5.34 1 -4.68 1 -4 1 C-3.34 2.32 -2.68 3.64 -2 5 C-1.34 3.35 -0.68 1.7 0 0 Z " fill="#A9AAAE" transform="translate(198,152)"/>
<path d="M0 0 C1.32 0 2.64 0 4 0 C4 6.27 4 12.54 4 19 C2.68 19 1.36 19 0 19 C-1.09587955 14.75448144 -0.92865836 11.0407161 -0.5625 6.6875 C-0.46066406 5.43324219 -0.35882813 4.17898437 -0.25390625 2.88671875 C-0.17011719 1.93410156 -0.08632812 0.98148437 0 0 Z " fill="#E6E6E7" transform="translate(188,114)"/>
<path d="M0 0 C1.32 0 2.64 0 4 0 C4 6.27 4 12.54 4 19 C2.68 19 1.36 19 0 19 C0 12.73 0 6.46 0 0 Z " fill="#E7E7E8" transform="translate(147,149)"/>
<path d="M0 0 C1.32 0 2.64 0 4 0 C4 6.27 4 12.54 4 19 C2.68 19 1.36 19 0 19 C0 12.73 0 6.46 0 0 Z " fill="#FCFCFC" transform="translate(118,114)"/>
<path d="M0 0 C-0.82242187 0.24492188 -1.64484375 0.48984375 -2.4921875 0.7421875 C-11.48979435 3.75524291 -16.8055017 7.90082853 -23 15 C-23.66 15.66 -24.32 16.32 -25 17 C-25 13.18993509 -24.87830336 11.029229 -22.36328125 8.08203125 C-15.94536343 2.34869133 -8.85898087 -2.50941089 0 0 Z " fill="#8AA0AD" transform="translate(30,2)"/>
<path d="M0 0 C0.99 0 1.98 0 3 0 C4.26582219 3.86723631 4.1118765 7.73151262 4.0625 11.75 C4.05798828 12.44738281 4.05347656 13.14476562 4.04882812 13.86328125 C4.0371002 15.57555803 4.01916653 17.28779033 4 19 C2.68 19 1.36 19 0 19 C0 12.73 0 6.46 0 0 Z " fill="#C4C6C8" transform="translate(181,149)"/>
<path d="M0 0 C0.33 0 0.66 0 1 0 C1.33 4.62 1.66 9.24 2 14 C3.65 14 5.3 14 7 14 C8.35091528 11.29816945 8.33858058 8.88191794 8.5625 5.875 C8.64628906 4.77929688 8.73007813 3.68359375 8.81640625 2.5546875 C8.87699219 1.71164063 8.93757812 0.86859375 9 0 C9.33 0 9.66 0 10 0 C10 6.27 10 12.54 10 19 C11.32 19.33 12.64 19.66 14 20 C12.35 20 10.7 20 9 20 C9 19.34 9 18.68 9 18 C8.01 18.66 7.02 19.32 6 20 C3.95703125 20.1953125 3.95703125 20.1953125 1.8125 20.125 C0.554375 20.08375 -0.70375 20.0425 -2 20 C-2 19.67 -2 19.34 -2 19 C0.31 19 2.62 19 5 19 C5 18.34 5 17.68 5 17 C4.360625 16.855625 3.72125 16.71125 3.0625 16.5625 C1 16 1 16 0 15 C-0.07313567 12.46950598 -0.09247527 9.96695163 -0.0625 7.4375 C-0.05798828 6.72658203 -0.05347656 6.01566406 -0.04882812 5.28320312 C-0.03700864 3.52209987 -0.01907263 1.76103964 0 0 Z " fill="#B6B8BB" transform="translate(178,114)"/>
<path d="M0 0 C3 0.125 3 0.125 4 1.125 C4.14115161 3.79558851 4.04247107 6.44932238 4 9.125 C1.66705225 9.16741723 -0.66702567 9.16592937 -3 9.125 C-4 8.125 -4 8.125 -4.125 4.625 C-3.9657228 0.16523845 -3.9657228 0.16523845 0 0 Z " fill="#375841" transform="translate(166,225.875)"/>
<path d="M0 0 C1.32 0 2.64 0 4 0 C5.33257403 13.6332574 5.33257403 13.6332574 4 20 C1.7522025 17.94766315 0.9977758 16.99332739 0 14 C-0.06970052 11.60509014 -0.08448003 9.20832309 -0.0625 6.8125 C-0.05347656 5.54019531 -0.04445312 4.26789063 -0.03515625 2.95703125 C-0.02355469 1.98121094 -0.01195312 1.00539063 0 0 Z " fill="#E7E7E8" transform="translate(198,107)"/>
<path d="M0 0 C1.134375 0.020625 2.26875 0.04125 3.4375 0.0625 C3.4375 2.7025 3.4375 5.3425 3.4375 8.0625 C1.10455225 8.10491723 -1.22952567 8.10342937 -3.5625 8.0625 C-4.5625 7.0625 -4.5625 7.0625 -4.6875 4.0625 C-4.50687014 -0.27261656 -4.44520527 0.07798606 0 0 Z " fill="#416C4B" transform="translate(165.5625,210.9375)"/>
<path d="M0 0 C1.81242052 -0.02687279 3.62495233 -0.04633715 5.4375 -0.0625 C6.44683594 -0.07410156 7.45617187 -0.08570313 8.49609375 -0.09765625 C11 0 11 0 12 1 C12.04092937 3.33297433 12.04241723 5.66705225 12 8 C11.67 8 11.34 8 11 8 C10.67 6.35 10.34 4.7 10 3 C9.34 3 8.68 3 8 3 C7.67 4.98 7.34 6.96 7 9 C6.34 9 5.68 9 5 9 C5 6.69 5 4.38 5 2 C4.01 2 3.02 2 2 2 C2 4.31 2 6.62 2 9 C1.34 9 0.68 9 0 9 C0 6.03 0 3.06 0 0 Z " fill="#55945E" transform="translate(172,226)"/>
<path d="M0 0 C0.33 0.99 0.66 1.98 1 3 C-1.31 3 -3.62 3 -6 3 C-6 4.65 -6 6.3 -6 8 C-3.69 8 -1.38 8 1 8 C1 8.66 1 9.32 1 10 C-1.76250036 11.38125018 -3.94731099 11.19079306 -7 11 C-9 9 -9 9 -9.3125 5.5625 C-9 2 -9 2 -7.875 0 C-5.06863762 -1.49672661 -2.99840718 -0.73294398 0 0 Z " fill="#5BA265" transform="translate(114,208)"/>
<path d="M0 0 C2.5 0.125 2.5 0.125 3.5 1.125 C3.21269945 3.46444736 2.88063221 5.7989143 2.5 8.125 C0.125 8.25 0.125 8.25 -2.5 8.125 C-3.16 7.465 -3.82 6.805 -4.5 6.125 C-3.77607362 0.18880368 -3.77607362 0.18880368 0 0 Z " fill="#487B52" transform="translate(185.5,210.875)"/>
<path d="M0 0 C0 0.66 0 1.32 0 2 C-1.609375 3.515625 -1.609375 3.515625 -3.75 5.25 C-7.30236546 8.26260675 -9.64025709 11.00658892 -12 15 C-12.66 15.99 -13.32 16.98 -14 18 C-14.75 16.4375 -14.75 16.4375 -15 14 C-12.4131011 8.03888514 -7.07006422 0 0 0 Z " fill="#373B49" transform="translate(25,11)"/>
<path d="M0 0 C0.99 0.66 1.98 1.32 3 2 C2.67 2.99 2.34 3.98 2 5 C0.02 5 -1.96 5 -4 5 C-4 4.34 -4 3.68 -4 3 C-5.65 3 -7.3 3 -9 3 C-8.67 4.32 -8.34 5.64 -8 7 C-8.66 7 -9.32 7 -10 7 C-10 5.02 -10 3.04 -10 1 C-6.60907078 -0.04336284 -3.5382677 -0.22584687 0 0 Z " fill="#42454C" transform="translate(213,160)"/>
<path d="M0 0 C0.02708567 1.60407328 0.04643483 3.2082785 0.0625 4.8125 C0.07410156 5.70582031 0.08570313 6.59914063 0.09765625 7.51953125 C0 10 0 10 -1 13 C-2.32 13 -3.64 13 -5 13 C-5 9.04 -5 5.08 -5 1 C-1 0 -1 0 0 0 Z " fill="#D5D6D7" transform="translate(203,120)"/>
<path d="M0 0 C2.86724686 0.57344937 3.8614515 0.8614515 6 3 C6.680625 3.165 7.36125 3.33 8.0625 3.5 C9.0215625 3.7475 9.0215625 3.7475 10 4 C11.35439668 6.70879335 11.06501451 9.00933268 11 12 C9.35 12 7.7 12 6 12 C6.99 11.34 7.98 10.68 9 10 C9.33 9.01 9.66 8.02 10 7 C9.443125 7.268125 8.88625 7.53625 8.3125 7.8125 C6 8 6 8 3.3125 5.75 C1 3 1 3 0 0 Z " fill="#353B49" transform="translate(137,56)"/>
<path d="M0 0 C0.66 0 1.32 0 2 0 C2 0.99 2 1.98 2 3 C3.98 3 5.96 3 8 3 C8 5.64 8 8.28 8 11 C7.34 11 6.68 11 6 11 C6 8.69 6 6.38 6 4 C4.68 4 3.36 4 2 4 C2 5.98 2 7.96 2 10 C2.66 10.33 3.32 10.66 4 11 C2.68 11 1.36 11 0 11 C-1.125 3.375 -1.125 3.375 0 0 Z " fill="#5A9E63" transform="translate(172,208)"/>
<path d="M0 0 C0.66 0.33 1.32 0.66 2 1 C2.6328125 3.28515625 2.6328125 3.28515625 3.125 6.0625 C3.29257813 6.98160156 3.46015625 7.90070313 3.6328125 8.84765625 C3.75398438 9.55792969 3.87515625 10.26820313 4 11 C2.02 11 0.04 11 -2 11 C-1.85892253 9.54119891 -1.71197585 8.08296449 -1.5625 6.625 C-1.48128906 5.81289062 -1.40007812 5.00078125 -1.31640625 4.1640625 C-1 2 -1 2 0 0 Z " fill="#33373F" transform="translate(94,147)"/>
<path d="M0 0 C1.98 0.495 1.98 0.495 4 1 C3.34 1 2.68 1 2 1 C2 1.66 2 2.32 2 3 C3.65 3 5.3 3 7 3 C7 5.64 7 8.28 7 11 C6.34 11 5.68 11 5 11 C5 8.69 5 6.38 5 4 C4.01 4 3.02 4 2 4 C2 6.31 2 8.62 2 11 C1.34 11 0.68 11 0 11 C-1.125 3.375 -1.125 3.375 0 0 Z " fill="#5CA466" transform="translate(143,208)"/>
<path d="M0 0 C0.94719352 2.55330427 1.08477442 3.74441144 0.21484375 6.3671875 C-2.58063456 11.85555777 -5.27393081 16.00909713 -10 20 C-10.66 20 -11.32 20 -12 20 C-10.69886735 17.14370404 -9.28411995 15.07789787 -7.125 12.8125 C-3.70650154 8.95831056 -1.83979217 4.77263734 0 0 Z " fill="#ABD4BF" transform="translate(300,212)"/>
<path d="M0 0 C-4.625 5.875 -4.625 5.875 -8 7 C-8.66 7.66 -9.32 8.32 -10 9 C-10.35789474 3.63157895 -10.35789474 3.63157895 -8.9375 1.125 C-5.99772876 -0.58196395 -3.32129197 -0.18799766 0 0 Z " fill="#D7D7D9" transform="translate(167,149)"/>
<path d="M0 0 C2.64752004 2.57784846 4.94432065 4.91648098 7 8 C6.38125 8.061875 5.7625 8.12375 5.125 8.1875 C2.72238859 8.828919 2.72238859 8.828919 1.75 11.5625 C1.5025 12.366875 1.255 13.17125 1 14 C0.67 14 0.34 14 0 14 C0 9.38 0 4.76 0 0 Z " fill="#1E2129" transform="translate(200,153)"/>
<path d="M0 0 C1.65 0 3.3 0 5 0 C5.66 1.32 6.32 2.64 7 4 C8.65 4 10.3 4 12 4 C12 4.33 12 4.66 12 5 C9.69 5.66 7.38 6.32 5 7 C4.67 5.02 4.34 3.04 4 1 C3.01 1 2.02 1 1 1 C1 7.27 1 13.54 1 20 C0.67 20 0.34 20 0 20 C0 13.4 0 6.8 0 0 Z " fill="#A7A9AC" transform="translate(180,148)"/>
<path d="M0 0 C1.32 0 2.64 0 4 0 C4.02689216 1.47906892 4.04634621 2.95827483 4.0625 4.4375 C4.07410156 5.26121094 4.08570313 6.08492187 4.09765625 6.93359375 C4 9 4 9 3 10 C1.00041636 10.04080783 -1.00045254 10.04254356 -3 10 C-3 9.34 -3 8.68 -3 8 C-0.525 8.495 -0.525 8.495 2 9 C2 8.34 2 7.68 2 7 C0.35 6.67 -1.3 6.34 -3 6 C-2.67 4.68 -2.34 3.36 -2 2 C-2 2.99 -2 3.98 -2 5 C-0.68 5 0.64 5 2 5 C2 3.68 2 2.36 2 1 C1.34 0.67 0.68 0.34 0 0 Z " fill="#599D63" transform="translate(149,227)"/>
<path d="M0 0 C0.33 0 0.66 0 1 0 C1.08090971 1.62418745 1.13914995 3.24951745 1.1875 4.875 C1.22230469 5.77992187 1.25710937 6.68484375 1.29296875 7.6171875 C1.19628906 8.40351562 1.09960938 9.18984375 1 10 C0.01 10.66 -0.98 11.32 -2 12 C-1.34 8.04 -0.68 4.08 0 0 Z M-3 13 C-3.66 14.32 -4.32 15.64 -5 17 C-5.66 17 -6.32 17 -7 17 C-7 19.64 -7 22.28 -7 25 C-7.33 25 -7.66 25 -8 25 C-8 21.37 -8 17.74 -8 14 C-6 13 -6 13 -3 13 Z " fill="#343947" transform="translate(166,43)"/>
<path d="M0 0 C1.98 0 3.96 0 6 0 C6 0.66 6 1.32 6 2 C7.65 2 9.3 2 11 2 C11.33 1.34 11.66 0.68 12 0 C12 0.99 12 1.98 12 3 C9.47524538 4.26237731 7.68799534 4.09856404 4.875 4.0625 C3.96492187 4.05347656 3.05484375 4.04445312 2.1171875 4.03515625 C1.41851562 4.02355469 0.71984375 4.01195312 0 4 C0 2.68 0 1.36 0 0 Z " fill="#3A3D45" transform="translate(209,152)"/>
<path d="M0 0 C0.99 0 1.98 0 3 0 C4.28571429 7.42857143 4.28571429 7.42857143 3 11 C2.01 11 1.02 11 0 11 C0 7.37 0 3.74 0 0 Z " fill="#D3D4D6" transform="translate(181,149)"/>
<path d="M0 0 C0.33 0 0.66 0 1 0 C1.04898438 0.83144531 1.09796875 1.66289062 1.1484375 2.51953125 C1.22320312 3.60621094 1.29796875 4.69289062 1.375 5.8125 C1.44460937 6.89144531 1.51421875 7.97039062 1.5859375 9.08203125 C1.81195733 12.18626186 1.81195733 12.18626186 4 15 C4 16.32 4 17.64 4 19 C2.68 19 1.36 19 0 19 C0 12.73 0 6.46 0 0 Z " fill="#DADBDC" transform="translate(147,149)"/>
<path d="M0 0 C0.33 0 0.66 0 1 0 C1 6.27 1 12.54 1 19 C0.67 19 0.34 19 0 19 C-0.33 16.69 -0.66 14.38 -1 12 C-1.99 12.495 -1.99 12.495 -3 13 C-2.88490339 11.58249437 -2.75746342 10.16598831 -2.625 8.75 C-2.55539063 7.96109375 -2.48578125 7.1721875 -2.4140625 6.359375 C-1.98492887 3.914123 -1.21399362 2.15163097 0 0 Z " fill="#30343E" transform="translate(116,114)"/>
<path d="M0 0 C0.94875 0.04125 1.8975 0.0825 2.875 0.125 C2.215 0.785 1.555 1.445 0.875 2.125 C0.875 3.445 0.875 4.765 0.875 6.125 C-1.435 6.125 -3.745 6.125 -6.125 6.125 C-5.28810868 1.94054341 -4.61542241 0.1846169 0 0 Z " fill="#395C43" transform="translate(150.125,225.875)"/>
<path d="M0 0 C0.99 0.33 1.98 0.66 3 1 C2.67 2.65 2.34 4.3 2 6 C5.11332248 5.33131686 5.11332248 5.33131686 6.1875 2.9375 C6.455625 2.298125 6.72375 1.65875 7 1 C7 3.31 7 5.62 7 8 C5.00045254 8.04254356 2.99958364 8.04080783 1 8 C0 7 0 7 -0.0625 3.4375 C-0.041875 2.303125 -0.02125 1.16875 0 0 Z " fill="#5BA165" transform="translate(162,227)"/>
<path d="M0 0 C1.2065625 0.0309375 1.2065625 0.0309375 2.4375 0.0625 C2.4375 0.7225 2.4375 1.3825 2.4375 2.0625 C1.4475 2.0625 0.4575 2.0625 -0.5625 2.0625 C-0.5625 4.3725 -0.5625 6.6825 -0.5625 9.0625 C-1.5525 9.0625 -2.5425 9.0625 -3.5625 9.0625 C-3.66015625 2.91015625 -3.66015625 2.91015625 -3.5625 1.0625 C-2.5625 0.0625 -2.5625 0.0625 0 0 Z " fill="#487A52" transform="translate(133.5625,225.9375)"/>
<path d="M0 0 C1.4540625 0.0309375 1.4540625 0.0309375 2.9375 0.0625 C2.6075 1.0525 2.2775 2.0425 1.9375 3.0625 C0.9475 2.7325 -0.0425 2.4025 -1.0625 2.0625 C-1.0625 3.3825 -1.0625 4.7025 -1.0625 6.0625 C0.5875 5.7325 2.2375 5.4025 3.9375 5.0625 C3.6075 6.0525 3.2775 7.0425 2.9375 8.0625 C0.5625 8.1875 0.5625 8.1875 -2.0625 8.0625 C-4.0625 6.0625 -4.0625 6.0625 -4.25 3.5 C-3.97031732 -0.13587487 -3.72751987 0.07607183 0 0 Z " fill="#569860" transform="translate(156.0625,210.9375)"/>
<path d="M0 0 C4 0 4 0 6 1 C5.67 2.32 5.34 3.64 5 5 C3.35 5.33 1.7 5.66 0 6 C-0.38218767 4.34385343 -0.71395102 2.67542976 -1 1 C-0.67 0.67 -0.34 0.34 0 0 Z " fill="#293B33" transform="translate(155,212)"/>
<path d="M0 0 C0.99 0.33 1.98 0.66 3 1 C2.34 1 1.68 1 1 1 C1.04125 2.093125 1.0825 3.18625 1.125 4.3125 C1 8 1 8 -1 11 C-1.39013716 12.9896995 -1.73202649 14.99019869 -2 17 C-2.33 17 -2.66 17 -3 17 C-3.34548714 10.66606918 -2.29342747 5.89738492 0 0 Z " fill="#515A6F" transform="translate(140,34)"/>
<path d="M0 0 C0.66 0 1.32 0 2 0 C2.66 1.32 3.32 2.64 4 4 C3.34 4 2.68 4 2 4 C2 5.98 2 7.96 2 10 C2.66 10.33 3.32 10.66 4 11 C2.68 11 1.36 11 0 11 C0 7.37 0 3.74 0 0 Z " fill="#599E63" transform="translate(132,208)"/>
<path d="M0 0 C0.33 0 0.66 0 1 0 C1.33730842 1.43657245 1.66969591 2.87430093 2 4.3125 C2.185625 5.11300781 2.37125 5.91351563 2.5625 6.73828125 C3 9 3 9 3 12 C2.34 11.34 1.68 10.68 1 10 C0.01 10.495 0.01 10.495 -1 11 C-2.0257259 6.58937864 -2.03684712 4.07369424 0 0 Z " fill="#41444C" transform="translate(108,155)"/>
<path d="M0 0 C1.65 0 3.3 0 5 0 C4.01 0.495 4.01 0.495 3 1 C3 3.31 3 5.62 3 8 C2.01 8 1.02 8 0 8 C0 5.36 0 2.72 0 0 Z " fill="#4B8155" transform="translate(155,227)"/>
<path d="M0 0 C0.1875 2.875 0.1875 2.875 0 6 C-0.99 6.66 -1.98 7.32 -3 8 C-3.12375 7.195625 -3.2475 6.39125 -3.375 5.5625 C-3.684375 4.2940625 -3.684375 4.2940625 -4 3 C-4.66 2.67 -5.32 2.34 -6 2 C-1.125 0 -1.125 0 0 0 Z " fill="#C6C7C9" transform="translate(198,150)"/>
<path d="M0 0 C2.00720923 0.28674418 4.0085944 0.61866701 6 1 C6.33 1.99 6.66 2.98 7 4 C4.36 4 1.72 4 -1 4 C-1 1 -1 1 0 0 Z " fill="#53905D" transform="translate(108,207)"/>
<path d="M0 0 C1.65 0 3.3 0 5 0 C5.66 1.32 6.32 2.64 7 4 C6.01 4.495 6.01 4.495 5 5 C2.375 4.0625 2.375 4.0625 0 3 C0 2.01 0 1.02 0 0 Z " fill="#B4B6B9" transform="translate(204,163)"/>
<path d="M0 0 C0.99 0 1.98 0 3 0 C3 0.99 3 1.98 3 3 C3.66 3 4.32 3 5 3 C5 3.66 5 4.32 5 5 C3.35 5.33 1.7 5.66 0 6 C0 4.02 0 2.04 0 0 Z " fill="#3B6046" transform="translate(119,212)"/>
<path d="M0 0 C0 0.66 0 1.32 0 2 C-1.64453125 3.2890625 -1.64453125 3.2890625 -3.8125 4.625 C-4.52019531 5.07101563 -5.22789063 5.51703125 -5.95703125 5.9765625 C-8 7 -8 7 -11 7 C-9.73742767 5.82439821 -8.46462916 4.65977135 -7.1875 3.5 C-6.12595703 2.52546875 -6.12595703 2.52546875 -5.04296875 1.53125 C-3 0 -3 0 0 0 Z " fill="#2D313D" transform="translate(25,11)"/>
<path d="M0 0 C2.0625 0.4375 2.0625 0.4375 4 1 C3.01 1.495 3.01 1.495 2 2 C2.33 3.98 2.66 5.96 3 8 C1.68 7.67 0.36 7.34 -1 7 C-1.04254356 5.00045254 -1.04080783 2.99958364 -1 1 C-0.67 0.67 -0.34 0.34 0 0 Z " fill="#5CA365" transform="translate(162,211)"/>
<path d="M0 0 C4.875 0.875 4.875 0.875 6 2 C6.04063832 3.66617115 6.042721 5.33388095 6 7 C5.34 5.68 4.68 4.36 4 3 C3.01 3 2.02 3 1 3 C0.34 3.66 -0.32 4.32 -1 5 C-0.67 3.35 -0.34 1.7 0 0 Z " fill="#599D63" transform="translate(138,226)"/>
<path d="M0 0 C0.66 0.33 1.32 0.66 2 1 C1.50168276 4.68754757 0.89932357 6.60490662 -2 9 C-1.125 2.25 -1.125 2.25 0 0 Z " fill="#4F525A" transform="translate(94,147)"/>
<path d="M0 0 C1.65 0 3.3 0 5 0 C5 1.32 5 2.64 5 4 C3.35 4 1.7 4 0 4 C0 2.68 0 1.36 0 0 Z " fill="#DADBDC" transform="translate(147,141)"/>
<path d="M0 0 C1.65 0 3.3 0 5 0 C4.67 1.32 4.34 2.64 4 4 C4 3.01 4 2.02 4 1 C3.195625 1.7425 3.195625 1.7425 2.375 2.5 C-0.59358445 4.37489544 -2.55312427 4.23501425 -6 4 C-6 3.67 -6 3.34 -6 3 C-4.35 3 -2.7 3 -1 3 C-0.67 2.01 -0.34 1.02 0 0 Z " fill="#B6B7BA" transform="translate(123,161)"/>
<path d="M0 0 C0.99 0 1.98 0 3 0 C3 1.98 3 3.96 3 6 C2.01 6 1.02 6 0 6 C0 4.02 0 2.04 0 0 Z " fill="#273831" transform="translate(134,212)"/>
</svg>
